<?xml version="1.0" encoding="UTF-8" standalone="no"?>
<svg xmlns="http://www.w3.org/2000/svg" height="200px" width="600px" version="1.1" xmlns:xlink="http://www.w3.org/1999/xlink" viewBox="0 0 600 200"><!-- Generator: Sketch 47.1 (45422) - http://www.bohemiancoding.com/sketch -->
 <title>assets/Duke-Branding-Logo</title>
 <desc>Created with Sketch.</desc>
 <defs>
  <rect id="path-1" y="0" x="0" height="157.67" width="94.684"/>
  <rect id="path-3" y="0" x="0" height="157.67" width="94.684"/>
  <rect id="path-5" y="0" x="0" height="157.67" width="94.684"/>
  <rect id="path-7" y="0" x="0" height="157.67" width="94.684"/>
  <rect id="path-9" y="0" x="0" height="157.67" width="94.684"/>
  <rect id="path-11" y="0" x="0" height="157.67" width="94.684"/>
 </defs>
 <g id="Symbols" fill-rule="evenodd" fill="none">
  <g id="assets/Duke-Branding-Logo">
   <g id="Duke-Branding-Logo" transform="translate(168 21)">
    <g id="Group" fill-rule="nonzero" fill="#272525" transform="translate(111 15)">
     <path id="Shape" d="m14.871 51.894h-14.008l0.00048-51.516 14.008 0.00007c12.629 0 21.354 7.3043 21.354 25.758 0 18.377-8.802 25.758-21.354 25.758zm14.924-25.758c0-12.763-4.516-20.453-14.924-20.453l-7.8075 0.0004v40.906h7.8075c10.485 0 14.924-7.612 14.924-20.453z"/>
     <path id="Shape" d="m60.87 52.817c-9.873 0-16.992-6.536-16.992-18.223v-34.216l6.2 0.00007v34.447c0 8.381 5.205 12.686 10.791 12.686 5.206 0 10.717-4.152 10.717-12.686v-34.447l6.199 0.00007v34.216c0.001 11.687-7.271 18.223-16.915 18.223z"/>
     <polygon id="Shape" points="93.63 51.894 87.429 51.894 87.429 0.37807 93.63 0.37807 93.63 24.83 109.47 0.37807 116.74 0.37807 99.369 26.29 118.89 51.894 111.08 51.894 93.63 28.828"/>
     <polygon id="Shape" points="125.24 0.37807 152.41 0.37807 152.41 5.6834 131.44 5.6834 131.44 22.83 149.12 22.83 149.12 27.981 131.44 27.981 131.44 46.589 152.34 46.589 152.34 51.894 125.24 51.894"/>
    </g>
    <g id="Group" fill-rule="nonzero" fill="#272525" transform="translate(111 76)">
     <path id="Shape" d="m11.069 13.051v0.153c2.274 0.845 3.739 3.148 3.739 5.99 0 4.876-3.199 7.333-7.0924 7.333h-6.899l-0.00002-25.725 6.3595 0.00016c3.7389 0 6.5139 1.728 6.5139 6.0288 0 2.6112-1.195 4.492-2.621 6.22zm-1.5419-0.345c1.3879-1.767 2.3129-3.533 2.3129-5.6834 0-3.1485-1.735-4.6457-5.011-4.6457h-4.2394v10.329h6.9375zm-0.6548 1.497h-6.2827v10.789h4.8952c3.2762 0 5.4732-1.843 5.4732-5.798 0-3.033-1.927-4.991-4.0857-4.991z"/>
     <path id="Shape" d="m28.874 15.355l5.281 11.174h-1.966l-5.012-10.713h-5.551v10.713h-1.772v-25.727l6.013 0.00016c4.24 0 6.514 2.6878 6.514 6.912 0.001 3.3398-1.889 5.8368-3.507 7.6408zm-7.247-1.114h6.167c1.658-1.804 2.738-4.108 2.738-6.4119 0-2.9944-1.389-5.4522-4.588-5.4522h-4.317v11.864z"/>
     <path id="Shape" d="m37.891 26.529h-1.966l7.709-25.727 2.197 0.00016 7.825 25.727h-1.89l-1.542-5.223h-10.831l-1.502 5.223zm1.927-6.758h9.906l-5.01-17.01-4.896 17.01z"/>
     <polygon id="Shape" points="59.396 3.4133 59.396 26.528 57.623 26.528 57.623 0.80216 59.974 0.80216 72.231 24.071 72.231 0.80216 74.004 0.80216 74.004 26.529 71.73 26.529"/>
     <path id="Shape" d="m86.761 26.529h-6.283v-25.727l6.283 0.00016c5.973 0 9.981 3.6859 9.981 12.902 0 9.062-4.046 12.825-9.981 12.825zm8.131-12.825c0-7.1038-2.428-11.327-8.171-11.327l-4.471-0.0001v22.616h4.471c5.783-0.001 8.171-4.224 8.171-11.289z"/>
     <polygon id="Shape" points="109 24.992 109 26.528 99.516 26.528 99.516 24.992 103.29 24.992 103.29 2.3377 99.516 2.3377 99.516 0.80216 109 0.80216 109 2.3377 105.07 2.3377 105.07 24.992"/>
     <polygon id="Shape" points="115.05 3.4133 115.05 26.528 113.28 26.528 113.28 0.80216 115.63 0.80216 127.88 24.071 127.88 0.80216 129.65 0.80216 129.65 26.529 127.38 26.529"/>
     <path id="Shape" d="m152.43 16.353v8.793c-2.66 1.382-5.08 1.804-7.47 1.804-6.79 0-10.18-5.49-10.18-13.477 0-7.9868 4.51-13.093 11.06-13.093 1.97-0.00026 4.2 0.34465 5.63 0.9595v1.7664c-1.81-0.8065-4.01-1.1906-5.74-1.1906-4.4 0-9.1 3.4934-9.1 11.558 0 8.87 4.16 11.98 8.67 11.98 2.08 0 3.86-0.461 5.4-1.344v-7.756h1.73z"/>
    </g>
    <g id="Group">
     <g id="Clipped">
      <mask id="mask-2" fill="white">
       <use xlink:href="#path-1"/>
      </mask>
      <polygon id="Shape" points="0 137.06 0 157.67 49.462 157.67 94.684 127.52 94.684 73.919" fill-rule="nonzero" mask="url(#mask-2)" fill="#EB0029"/>
     </g>
     <g id="Clipped">
      <mask id="mask-4" fill="white">
       <use xlink:href="#path-3"/>
      </mask>
      <polygon id="Shape" points="0 85.528 0 138.08 94.684 74.953 94.684 22.396" fill-rule="nonzero" mask="url(#mask-4)" fill="#9F1B96"/>
     </g>
     <g id="Clipped">
      <mask id="mask-6" fill="white">
       <use xlink:href="#path-5"/>
      </mask>
      <polygon id="Shape" points="50.941 0 0.0079167 33.96 0.0079167 86.518 94.684 23.391 94.684 0" fill-rule="nonzero" mask="url(#mask-6)" fill="#0080BB"/>
     </g>
     <g id="Clipped">
      <mask id="mask-8" fill="white">
       <use xlink:href="#path-7"/>
      </mask>
      <g id="Group" mask="url(#mask-8)">
       <g id="Clipped">
        <mask id="mask-10" fill="white">
         <use xlink:href="#path-9"/>
        </mask>
        <path id="Shape" fill-rule="nonzero" fill="#fff" mask="url(#mask-10)" d="m94.699 69.411v-0.402c-2.013-2.434-5.558-2.75-7.211-2.498 0.577 2.31 1.156 5.777-2.314 5.92-3.474 0.145-10.562-2.31-12.733-2.887 0.869-1.011 2.314-3.176 2.171-4.765-3.616 2.023-6.944 1.155-9.114-2.886 0.532 0.894 3.763 2.02 3.763 2.02s-0.373-1.728-1.214-3.97c1.801 0.524 2.487 0.431 4.575 1.823-0.287-1.879-2.455-3.662-3.181-5.342 1.012-0.433 7.812-8.084 9.981-7.652 1.156 1.733-0.958 2.503-1.301 3.754 1.012 1.011 5.642 2.309 7.378 0.289-1.448 1.153-5.063-1.59-4.339-2.022 0.721-0.433 1.446-2.31 1.446-3.25 2.893 0.07 4.195-4.257 4.195-4.257 0.867 0 0.867 0 4.34 1.733-0.58-1.733-4.961-4.545-4.961-4.545 0.157 1.91-2.994 3.535-2.994 3.535 1.011-1.011 0.143-4.764 0.143-4.764s1.736-0.722 5.352-0.432c-2.025-1.589-8.535-1.156-7.951-0.145 0.585 1.01 0.863 4.331-0.006 4.475 0.146-2.021-2.602-4.62-2.602-4.62-0.29-1.011 0.786-2.717 2.602-3.321-1.88-0.145-7.232 4.475-5.785 5.341 3.038 1.299 4.773 3.176 2.747 5.198-2.025 2.021-9.83 7.243-11.573 7.652-0.866-1.012 0.87-2.744-3.761-6.498 0.933 1.197 0.393 3.489-0.489 4.185-0.364-0.227-0.743-0.426-1.14-0.592-5.115-2.136-7.001-0.664-9.201-2.16-0.475-0.324-0.964-0.782-1.504-1.449 0.788 0.157 1.996 0.294 3.25 0.288 2.198-0.009 4.535-0.458 4.996-2.019-0.99 0.21-1.814 0.338-2.531 0.381-2.078 0.128-3.247-0.455-4.849-1.825-1.301-1.589 8.971-10.106 10.273-3.321 0 0 3.46-7.59-1.52-7.795-2.364-0.084-5.568 1.876-5.568 1.876s-0.208-3.772-6.631-1.459c-0.535-2.007-2.424-4.298-5.136-5.07 3.393 3.406 0.079 4.133 0.517 6.508-1.294-2.524-5.578-4.813-9.872-3.876 6.655 2.02 1.737 5.34 5.498 7.938-3.617 3.61-4.341 9.818-2.604 14.871 0.432-2.888 2.604-4.621 2.604-4.621s-1.587 4.148-0.631 8.682c0.526 2.506 1.827 5.127 4.608 7.234 2.36 0 9.233-4.755 16.276-0.759-5.355-1.869-10.994 1.155-12.731 2.168-3.461 2.906-7.061 2.289-10.695-6.956-1.386-3.527-2.778-8.306-4.169-14.633-0.867-3.581-4.241-6.132-12.045-8.728 0 0-6.792-1.89-13.089-5.807l-3.9819 2.678c7.1945 8.864 18.952 13.378 18.952 13.378s-12.984-2.181-21.044-9.377l-0.02782 0.002v4.297h0.02814c6.7116 10.387 20.034 13.595 20.034 13.595s-9.9338 0.972-20.034-7.647l-0.02343 0.004 0.0044 0.659h0.01935c5.5672 11.195 19.647 16.264 20.949 16.506 0.08-0.003 0.115-0.001 0.096 0.007-0.009 0.005-0.047 0-0.096-0.007-1.177 0.04-12.256 1.124-17.263-3.602 2.3187 5.741 9.338 8.687 15.069 9.722 3.204 0.579 3.861 0.801 5.209 0.335-3.986 2.875-6.321 2.784-9.349 2.415-2.136-0.26-3.551-0.778-3.551-0.778s0.625 0.857 1.921 1.862c2.754 2.136 8.55 4.941 17.897 1.602-1.591 3.465-6.51 5.486-9.259 5.628 6.797 3.132 15.718-1.396 17.163-3.258-2.08 5.194-5.873 6.293-5.734 6.439 0.146 0.14 6.945 0.719 13.021-6.354-0.24 2.282-1.177 4.1-2.46 4.909 4.339-1.158 7.813-3.899 8.39-5.776 0.29 1.877-0.867 3.031-0.867 3.031s3.897-0.747 7.133-3.483c-2.324 4.063-12.286 7.853-15.669 7.747-7.288 3.205-8.617 11.921-13.237 18.53-4.7 5.21-10.199 3.63-6.294-0.99-3.326 1.3-2.893 3.29-2.602 4.24-4.822-4.01 4.213-11.222 5.632-13.886 1.545-2.892 0.311-5.507-2.007-7.03-5.048-3.319-8.634 0.15-12.634 3.168-3.4267 2.591-9.9069 3.011-7.195-2.81-7.2455 7.226 6.748 16.618 13.309 3.755-0.768 4.008-2.683 5.381-3.428 6.063 5.027 0.049 6.108-7.736 9.038-5.161 0.45 0.395 0.411 1.229-0.328 2.271-1.72 2.425-5.791 6.222-5.996 9.97-0.271 5.03 3.179 9.16 8.606 7.44 4.774-1.52 9.236-7.76 10.769-11.488 1.157 5.048-4.341 19.058-10.126 14.288-0.391 1.24-0.099 2.86 0.471 4.44 0.861 2.39 2.362 4.69 3.146 5.38-1.815-0.13-4.667-2.57-5.451-3.81-0.092-0.14-0.161-0.27-0.192-0.38 0.035 0.15 0.08 0.29 0.119 0.43 1.528 5.65 5.619 9.01 7.838 10.4-1.546-0.12-3.193-0.53-4.484-1.49 3.052 4.16 8.189 9.27 10.128 9.72 0.917 1.01 1.389 2.96 2.36 3.85h3.656c4.846 0 5.382 2.96 5.423 3.23 0.333-3.24-2.472-5.35-2.472-5.35s4.92 0.15 6.945 5.49c-1.014-6.35-4.052-8.09-5.065-8.23 2.895 0.14 4.052 1.15 5.21 2.45-1.301-4.04-5.787-5.63-7.234-5.63s0.867 3.61-2.749 2.31-5.207-3.46-6.51-8.66c-1.301-5.2 0.144-8.52 3.471-11.55 2.607-2.37 8.594-6.73 9.991-15.33 8.191-1.12 11.089 12.16 1.856 12.85 3.975 2.66 12.501 1.21 16.944-2.05-2.75 3.75-6.655 5.63-6.655 5.63s6.22-1.45 11.428-6.79c-0.897 2.11-1.512 2.5-2.315 3.75 0 0 8.391-4.47 9.405-6.79 1.011-2.3 2.747 2.89 6.942-5.91 0.771-1.498 4.918-0.868 4.918-0.868s-2.602-2.309-6.509-0.287c1.598-2.623 4.792-2.178 6.509-2.022-3.921-2.625-8.048-0.736-8.679 0.577-0.867-2.452 4.404-5.518 5.209-5.718-6.511-0.144-9.403 5.285-9.692 6.442-0.291 1.156 2.603 2.746-0.291 4.036-2.894 1.31-13.308 2.02-15.479 1.45 4.939-3.16 6.255-10.915 3.946-15.52-1.224-2.441-3.464-3.996-6.727-3.51 2.428-2.514 4.258-5.083 4.371-6.893 0.031-0.712-1.302-1.733-2.314-2.456 0 0 7.957 0.146 5.789 4.765 1.292-1.095 4.048-4.188 2.456-6.064 2.506-0.441 8.826 1.009 10.56 1.298 1.737 0.291-1.589 2.022-3.036 1.587-0.736-0.219-0.61 1.536 0.658 3.26 1.226 1.668 3.523 3.306 7.152 3.091-5.385-1.555-5.381-3.719-5.122-4.474 0.019-0.055 0.04-0.105 0.059-0.143 0.051-0.102 0.227-0.167 0.474-0.22 1.157-0.247 3.961-0.212 3.723-2.236 1.011 1.877 3.471 4.188 6.365 2.889 2.893-1.298-1.157 4.474-1.881 5.052 1.608-1.069 3.215-2.625 4.03-4.151v-3.37c-0.081-0.095-0.168-0.186-0.269-0.274-1.736 0.577-3.471 0.865-5.352-1.011 1.587 0.114 4.434 0.135 5.621-0.624v-3.017c-0.399-0.319-0.788-0.566-1.137-0.691 0 0-0.502 0.399-1.246 0.718-0.805 0.346-1.895 0.601-2.949 0.15 1.012-1.009 1.881-1.877 1.302-3.467-0.459-1.264 2.563-0.603 4.032 0.302"/>
       </g>
       <g id="Clipped">
        <mask id="mask-12" fill="white">
         <use xlink:href="#path-11"/>
        </mask>
        <path id="Shape" fill-rule="nonzero" fill="#fff" mask="url(#mask-12)" d="m61.815 41.427c-4.483-2.168-7.812 1.731-7.812 1.731 2.218-1.598 4.279-1.184 6.062-0.507 0.994 0.379 1.904 0.838 2.704 1.078 3.733 1.124 7.475-2.13 5.94-6.822-0.103-0.317-0.231-0.639-0.384-0.967 0.054 0.388 0.052 0.801 0.001 1.222-0.324 2.694-2.724 5.688-6.45 4.286-0.02-0.008-0.041-0.013-0.061-0.021"/>
       </g>
      </g>
     </g>
    </g>
   </g>
  </g>
 </g>
</svg>
