<?xml version="1.0" encoding="UTF-8"?>
<svg width="1920px" height="1080px" viewBox="0 0 1920 1080" version="1.1" xmlns="http://www.w3.org/2000/svg" xmlns:xlink="http://www.w3.org/1999/xlink">
    <!-- Generator: Sketch 50.2 (55047) - http://www.bohemiancoding.com/sketch -->
    <title>duke-design-agency-logo</title>
    <desc>Created with Sketch.</desc>
    <defs>
        <path d="M555.304348,370 C510.400942,370 474,406.400942 474,451.304348 L474,628.695652 C474,673.597826 510.400942,710 555.304348,710 L732.695652,710 C777.599058,710 814,673.597826 814,628.695652 L814,451.304348 C814,406.400942 777.599058,370 732.695652,370 L555.304348,370 Z" id="path-1"></path>
        <path d="M583.206522,465.767899 C583.206522,498.368478 609.619348,524.836739 642.150942,524.836739 C674.682536,524.836739 701.09413,498.368478 701.09413,465.767899 C701.09413,433.166087 674.682536,406.697826 642.150942,406.697826 C609.619348,406.697826 583.206522,433.166087 583.206522,465.767899 Z M750.203188,473.846594 L694.265797,513.808913 C691.267391,515.676449 688.81471,520.082899 688.81471,523.598696 L688.81471,610.873986 C688.81471,614.391014 690.821449,615.192971 693.272899,612.658986 C693.272899,612.658986 721.89942,585.100507 730.566957,572.219928 C737.716812,561.596159 744.741014,551.042609 745.251014,536.768768 C745.267029,536.342536 744.837101,535.604638 744.101667,535.964348 C740.489783,537.739493 729.867246,542.787754 730.550942,540.410217 C731.372609,537.548551 750.214275,518.212899 750.214275,518.212899 C750.214275,518.212899 755.076522,513.02913 755.003841,501.347174 C755.003841,501.217826 755.017391,501.08971 755.023551,500.95913 L755.129493,483.801449 C755.119638,480.928696 755.11471,478.750725 755.11471,478.750725 C755.11471,474.181667 753.633986,473.15058 752.298623,473.15058 C751.201014,473.151812 750.203188,473.846594 750.203188,473.846594 Z M529.192101,478.750725 C529.192101,478.750725 529.18471,480.928696 529.174855,483.801449 L529.280797,500.95913 C529.284493,501.08971 529.298043,501.217826 529.298043,501.347174 C529.226594,513.02913 534.088841,518.212899 534.088841,518.212899 C534.088841,518.212899 552.930507,537.548551 553.754638,540.410217 C554.437101,542.787754 543.813333,537.739493 540.202681,535.964348 C539.467246,535.604638 539.037319,536.342536 539.052101,536.768768 C539.562101,551.042609 546.587536,561.596159 553.738623,572.219928 C562.404928,585.100507 591.031449,612.658986 591.031449,612.658986 C593.482899,615.192971 595.489638,614.391014 595.489638,610.873986 L595.489638,523.598696 C595.489638,520.082899 593.036957,515.676449 590.039783,513.808913 L534.099928,473.846594 C534.099928,473.846594 533.102101,473.15058 532.005725,473.15058 C530.670362,473.15058 529.192101,474.181667 529.192101,478.750725 Z M673.422319,525.584493 L610.879565,561.258623 C607.817101,563.002971 605.308986,567.288696 605.308986,570.777391 C605.308986,570.777391 605.065072,602.627754 605.308986,609.257754 C605.392754,611.441884 606.282174,610.788986 606.799565,610.553696 C611.268841,608.503841 617.041449,606.150942 616.532681,607.923623 C616.106449,609.406812 611.65442,614.436594 606.798333,619.658551 C605.592319,620.954493 605.308986,622.486957 605.308986,623.244565 L605.308986,656.292319 C605.308986,659.781014 607.817101,661.206304 610.879565,659.459493 L673.422319,623.785362 C676.483551,622.038551 678.991667,617.75529 678.991667,614.266594 L678.991667,581.218841 C678.991667,580.286304 678.769928,579.272464 677.131522,579.993116 C672.763261,581.912391 667.606594,583.99058 668.090725,582.307826 C668.530507,580.775362 676.486014,572.414565 678.305507,570.057971 C678.997826,569.158696 678.991667,568.16087 678.991667,568.16087 L678.991667,528.751667 C678.991667,526.274348 677.726522,524.836739 675.898406,524.836739 C675.151884,524.837971 674.310507,525.076957 673.422319,525.584493 Z M658.612609,638.949855 L628.702464,655.861159 C625.585797,657.622754 625.330797,660.888478 628.132101,663.115725 L638.53413,670.468841 C642.198986,672.681304 646.041232,673.695145 647.58971,670.468841 L661.459493,641.610725 C662.525072,639.394565 662.254058,638.134348 660.969203,638.134348 C660.384058,638.134348 659.588261,638.396739 658.612609,638.949855 Z" id="path-3"></path>
    </defs>
    <g id="duke-design-agency-logo" stroke="none" stroke-width="1" fill="none" fill-rule="evenodd">
        <path d="M987.055688,502.389594 C987.055688,557.091406 953.741848,578.113507 907.285036,578.113507 L849.725254,578.113507 L849.725254,426.666913 L907.285036,426.666913 C954.195181,426.666913 987.055688,447.914449 987.055688,502.389594 Z M907.059601,542.398725 C931.081341,542.398725 940.825543,527.027275 940.825543,502.389594 C940.825543,477.751913 931.081341,462.380464 907.059601,462.380464 L895.048732,462.380464 L895.048732,542.398725 L907.059601,542.398725 Z M1075.21054,580.824884 C1035.77793,580.824884 1007.90409,559.125246 1007.90409,523.63713 L1007.90409,426.666913 L1053.22757,426.666913 L1053.22757,522.507493 C1053.22757,537.87771 1063.65178,544.885899 1075.21054,544.885899 C1086.76685,544.885899 1097.19105,537.87771 1097.19105,522.507493 L1097.19105,426.666913 L1142.51453,426.666913 L1142.51453,523.63713 C1142.51453,559.125246 1114.64069,580.824884 1075.21054,580.824884 Z M1317.01091,578.113507 L1259.44989,578.113507 L1217.97851,524.315899 L1217.97851,578.113507 L1172.65504,578.113507 L1172.65504,426.666913 L1217.97851,426.666913 L1217.97851,487.696913 L1254.23779,426.666913 L1309.3067,426.666913 L1258.76989,503.745899 L1317.01091,578.113507 Z M1329.92844,578.113507 L1329.92844,426.666913 L1445.95714,426.666913 L1442.33047,462.380464 L1375.25192,462.380464 L1375.25192,483.175899 L1432.81293,483.175899 L1432.81293,518.213145 L1375.25192,518.213145 L1375.25192,542.398725 L1442.10504,542.398725 L1445.50257,578.113507 L1329.92844,578.113507 Z M894.288659,625.033507 C894.288659,646.37713 883.1475,654.579014 867.851196,654.579014 L849.725254,654.579014 L849.725254,595.485536 L867.851196,595.485536 C883.324891,595.485536 894.288659,603.864812 894.288659,625.033507 Z M904.015616,654.579014 L904.015616,595.485536 L938.234891,595.485536 L938.234891,604.218362 L914.450906,604.218362 L914.450906,620.006188 L934.610688,620.006188 L934.610688,628.560391 L914.450906,628.560391 L914.450906,645.84742 L938.412283,645.84742 L938.412283,654.579014 L904.015616,654.579014 Z M965.91163,594.427348 C969.183514,594.427348 973.869601,594.780899 978.644384,596.368797 L977.848587,606.246043 C972.808949,604.305826 968.299022,603.512493 965.115833,603.512493 C960.076196,603.512493 956.095978,606.15858 956.095978,611.185899 C956.095978,615.772203 960.959457,618.153435 966.000326,620.445971 C972.897645,623.533072 981.031775,627.502203 981.031775,637.380681 C981.031775,650.433725 971.570906,655.637203 959.633949,655.637203 C954.681775,655.637203 949.111196,654.84387 944.867355,653.785681 L945.839312,644.436913 C950.614094,645.84742 956.095978,646.641986 959.633949,646.641986 C965.204529,646.641986 970.332862,644.524377 970.332862,638.879884 C970.332862,634.204884 965.646775,631.999812 960.871993,629.97213 C953.885978,626.972493 945.485761,623.092058 945.485761,611.626913 C945.485761,600.071841 954.41692,594.427348 965.91163,594.427348 Z M1005.52409,646.200971 L1014.27909,646.200971 L1014.27909,654.579014 L986.424964,654.579014 L986.424964,646.200971 L995.090036,646.200971 L995.090036,603.953507 L986.424964,603.953507 L986.424964,595.485536 L1014.27909,595.485536 L1014.27909,603.953507 L1005.52409,603.953507 L1005.52409,646.200971 Z M1065.65236,628.384232 L1065.65236,651.050899 C1058.93243,653.874377 1052.2125,655.549739 1044.78424,655.549739 C1027.2767,655.549739 1018.96518,643.378725 1018.96518,624.768652 C1018.96518,606.15858 1030.19504,594.516043 1047.17163,594.516043 C1052.9196,594.516043 1058.48895,595.309377 1062.82272,597.073435 L1062.82272,606.775754 C1057.78185,604.394522 1052.56605,603.071478 1047.79127,603.071478 C1037.71076,603.071478 1029.75279,609.156986 1029.75279,624.591261 C1029.75279,640.820101 1036.65011,646.905609 1045.84612,646.905609 C1048.76322,646.905609 1052.2125,646.37713 1055.2183,644.613072 L1055.2183,628.384232 L1065.65236,628.384232 Z M1109.15511,654.579014 L1094.47721,628.736551 L1085.98953,609.156986 L1085.98953,654.579014 L1075.64417,654.579014 L1075.64417,595.485536 L1088.02337,595.485536 L1102.17033,621.504159 L1111.27764,642.231841 L1111.27764,595.485536 L1121.62301,595.485536 L1121.62301,654.579014 L1109.15511,654.579014 Z M1162.0325,644.083362 L1159.0267,654.579014 L1147.97301,654.579014 L1166.10018,595.485536 L1178.30199,595.485536 L1196.34047,654.579014 L1185.37547,654.579014 L1182.36967,644.083362 L1162.0325,644.083362 Z M1246.38822,628.384232 L1246.38822,651.050899 C1239.6683,653.874377 1232.94714,655.549739 1225.51888,655.549739 C1208.01134,655.549739 1199.69982,643.378725 1199.69982,624.768652 C1199.69982,606.15858 1210.92967,594.516043 1227.9075,594.516043 C1233.65547,594.516043 1239.22482,595.309377 1243.55859,597.073435 L1243.55859,606.775754 C1238.51772,604.394522 1233.30192,603.071478 1228.52591,603.071478 C1218.4454,603.071478 1210.48743,609.156986 1210.48743,624.591261 C1210.48743,640.820101 1217.38475,646.905609 1226.57953,646.905609 C1229.49909,646.905609 1232.94714,646.37713 1235.95417,644.613072 L1235.95417,628.384232 L1246.38822,628.384232 Z M1256.3788,654.579014 L1256.3788,595.485536 L1290.59808,595.485536 L1290.59808,604.218362 L1266.81286,604.218362 L1266.81286,620.006188 L1286.97388,620.006188 L1286.97388,628.560391 L1266.81286,628.560391 L1266.81286,645.84742 L1290.77547,645.84742 L1290.77547,654.579014 L1256.3788,654.579014 Z M1333.74975,654.579014 L1319.07062,628.736551 L1310.5817,609.156986 L1310.5817,654.579014 L1300.23634,654.579014 L1300.23634,595.485536 L1312.61554,595.485536 L1326.76373,621.504159 L1335.87105,642.231841 L1335.87105,595.485536 L1346.21641,595.485536 L1346.21641,654.579014 L1333.74975,654.579014 Z M1387.42047,616.300681 L1388.04011,603.864812 C1386.71337,603.512493 1383.79627,603.158942 1381.7612,603.158942 C1373.62707,603.158942 1366.55236,609.950319 1366.55236,624.503797 C1366.55236,641.438507 1373.27351,646.905609 1381.7612,646.905609 C1385.74141,646.905609 1390.78105,645.84742 1396.61772,643.378725 L1398.82772,652.021623 C1393.16844,654.491551 1386.35982,655.549739 1380.70054,655.549739 C1362.5746,655.549739 1355.85467,642.672855 1355.85467,624.503797 C1355.85467,605.716333 1366.90714,594.516043 1382.91178,594.516043 C1387.42047,594.516043 1392.46134,595.485536 1397.41228,596.985971 L1396.70518,616.300681 L1387.42047,616.300681 Z M1428.97931,654.579014 L1418.54772,654.579014 L1418.54772,633.324087 L1401.47996,595.485536 L1413.32822,595.485536 L1423.85098,622.210029 L1434.45996,595.485536 L1445.95714,595.485536 L1428.97931,633.324087 L1428.97931,654.579014 Z M867.7625,645.84742 C878.816196,645.84742 883.501051,638.174014 883.501051,625.033507 C883.501051,611.979232 878.726268,604.218362 867.7625,604.218362 L860.15808,604.218362 L860.15808,645.84742 L867.7625,645.84742 Z M1164.68475,635.529159 L1179.6275,635.529159 L1172.20047,607.481623 L1164.68475,635.529159 Z" id="Fill-1" fill="#000000"></path>
        <mask id="mask-2" fill="white">
            <use xlink:href="#path-1"></use>
        </mask>
        <g id="Clip-5"></g>
        <polygon id="Fill-4" fill="#952D97" mask="url(#mask-2)" points="474 710 814 710 814 370 474 370"></polygon>
        <polygon id="Fill-6" fill="#DF0034" mask="url(#mask-2)" points="813.718514 710 814.000616 709.717899 814.000616 483.23971 587.239094 710"></polygon>
        <polygon id="Fill-7" fill="#0082BA" mask="url(#mask-2)" points="474 370.281486 474 596.760906 700.76029 369.999384 474.282101 369.999384"></polygon>
        <mask id="mask-4" fill="white">
            <use xlink:href="#path-3"></use>
        </mask>
        <use id="Clip-10" fill="#FFFFFF" xlink:href="#path-3"></use>
    </g>
</svg>