<?xml version="1.0" encoding="UTF-8" standalone="no"?>
<svg xmlns="http://www.w3.org/2000/svg" height="200px" width="600px" version="1.1" xmlns:xlink="http://www.w3.org/1999/xlink" viewBox="0 0 600 200"><!-- Generator: Sketch 47.1 (45422) - http://www.bohemiancoding.com/sketch -->
 <title>assets/Envoc-Logo</title>
 <desc>Created with Sketch.</desc>
 <g id="Symbols" fill-rule="evenodd" fill="none">
  <g id="assets/Envoc-Logo">
   <path id="Shape" fill="#284358" d="m180.19 85.333c0 1.905-0.76 2.096-2.67 2.857l-42.09 8.572v9.718c0 6.47 3.05 10.47 15.43 10.47s15.43-4 15.43-10.47v-1.72c0-2.09 0.76-3.05 3.04-3.05h7.81c2.1 0 3.05 0.96 3.05 3.05v2.67c0 12.76-7.62 21.33-29.71 21.33-21.91-0.19-29.53-8.57-29.53-21.33v-36.954c0-12.762 8-21.333 29.91-21.333 21.9 0 29.33 8.571 29.33 21.333v14.857zm-44.76-2.095l31.05-6.095v-5.714c0-6.286-3.81-10.477-15.43-10.477-11.81 0-15.43 4.191-15.43 10.477-0.19 0-0.19 11.809-0.19 11.809z"/>
   <path id="Shape1" fill="#284358" d="m209.14 53.333l0.38 4.953c4.38-3.81 12.96-9.143 25.72-9.143 14.47 0 21.9 8.381 21.9 19.809v55.238c0 2.1-0.76 3.05-2.85 3.05h-8.96c-2.09 0-2.85-0.95-2.85-3.05v-51.619c0-6.285-3.05-10.285-11.43-10.285-9.91 0-17.72 5.333-21.15 8v53.904c0 2.1-0.76 3.05-2.85 3.05h-8.95c-2.1 0-3.05-0.95-3.05-3.05v-70.857c0-2.095 0.76-2.857 3.05-2.857h8.19c2.09 0 2.66 0.953 2.85 2.857"/>
   <path id="Shape2" fill="#284358" d="m293.33 127.43c-2.09 0-2.66-0.76-3.04-2.86l-24.39-71.046c-0.57-2.095 0.58-3.048 2.67-3.048h9.53c2.09 0 2.85 1.334 3.23 3.048l14.86 44.571 2.48 7.615 2.47-7.424 15.43-44.762c0.57-1.905 1.33-3.048 3.43-3.048h8.57c2.1 0 3.24 1.143 2.67 3.048l-24.57 71.046c-0.57 2.1-1.15 2.86-3.05 2.86h-10.29z"/>
   <path id="Shape3" fill="#284358" d="m475.62 70.476v2.857c0 2.096-0.76 2.857-2.86 2.857h-8.38c-2.09 0-3.05-0.761-3.05-2.857v-1.714c0-6.476-3.62-10.286-15.43-10.286-11.61 0-15.23 3.81-15.23 10.286v34.671c0 6.47 3.62 10.28 15.23 10.28 11.81 0 15.43-3.62 15.43-10.28v-3.05c0-2.1 0.77-3.05 3.05-3.05h8.38c2.1 0 2.86 0.95 2.86 3.05v4.19c0 12.76-8 21.33-29.72 21.33-21.9 0-29.71-8.57-29.71-21.33v-36.954c0-12.762 7.81-21.333 29.71-21.333 21.91 0 29.72 8.571 29.72 21.333"/>
   <path id="Shape4" fill="#B0D135" d="m340.57 70.476c0-12.762 9.14-21.333 31.05-21.333 21.9 0 31.05 8.571 31.05 21.333v36.954c0 12.76-9.15 21.33-31.05 21.33-21.91 0-31.05-8.57-31.05-21.33v-36.954zm47.43 1.143c0-6.667-4.57-10.476-16.19-10.476s-16.38 3.809-16.38 10.476v34.481c0 6.66 4.57 10.47 16.38 10.47 11.62 0 16.19-3.62 16.19-10.47v-34.481z"/>
   <path id="Shape5" fill="#B0D135" d="m388.76 23.81c2.86 0 3.81 0.952 3.81 3.619v7.809c0 2.667-1.14 3.619-3.81 3.619h-35.43c-2.85 0-4-1.143-4-3.619v-7.809c0-2.858 1.15-3.619 4-3.619h35.43z"/>
   <path id="Shape6" fill="#B0D135" d="m259.43 154.67c0-2.86 1.9-4.77 6.67-4.77 4.95 0 6.66 1.91 6.66 4.77v12.38c0 0.57-0.19 0.76-0.57 0.76h-1.9c-0.58 0-0.58-0.19-0.77-0.76v-0.95c-0.95 0.76-2.85 2.09-5.52 2.09-3.24 0-4.95-1.9-4.95-4.38v-1.71c0-2.29 1.71-4.39 4.95-4.39h5.52v-2.66c0-1.53-0.76-2.48-3.42-2.48-2.67 0-3.43 0.76-3.43 2.29v0.38c0 0.57-0.19 0.76-0.77 0.76h-1.9c-0.38 0-0.57-0.19-0.57-0.76v-0.57zm10.09 8.76v-3.05h-4.95c-1.71 0-2.28 0.76-2.28 2.1v0.76c0 1.33 0.76 1.9 2.47 1.9 2.29 0 4-1.14 4.76-1.71z"/>
   <path id="Shape7" fill="#B0D135" d="m285.9 167.81c-0.57 0-0.76-0.19-0.76-0.76v-23.43c0-0.57 0.19-0.76 0.76-0.76h2.1c0.38 0 0.57 0.19 0.57 0.76v8.19c0.95-0.76 2.86-2.1 5.91-2.1 3.42 0 4.95 1.91 4.95 4.77v8.57c0 2.85-1.53 4.76-4.95 4.76-3.05 0-4.96-1.33-5.91-2.1v1.15c0 0.57-0.19 0.76-0.76 0.76l-1.91 0.19zm10.1-12.57c0-1.34-0.57-2.29-2.67-2.29-2.28 0-4 1.34-4.76 1.91v8.38c0.76 0.57 2.48 1.71 4.76 1.71 2.1 0 2.67-1.14 2.67-2.28v-7.43z"/>
   <path id="Shape8" fill="#B0D135" d="m316.19 159.05c0 0.38-0.19 0.57-0.57 0.57h-9.72v3.24c0 1.52 0.77 2.28 3.62 2.28 2.86 0 3.62-0.95 3.62-2.28v-0.38c0-0.38 0.19-0.77 0.76-0.77h1.72c0.38 0 0.76 0.19 0.76 0.77v0.57c0 2.85-1.71 4.95-6.86 4.95-4.95 0-6.85-1.9-6.85-4.95v-8.38c0-2.86 1.71-4.96 6.85-4.96 4.96 0 6.67 1.91 6.67 4.96v4.38zm-10.29-1.91h7.05v-2.28c0-1.34-0.95-2.29-3.62-2.29-2.66 0-3.62 0.95-3.62 2.29v2.28h0.19z"/>
   <path id="Shape9" fill="#B0D135" d="m329.33 150.29c0.38 0 0.77 0.19 0.77 0.57v1.33c0 0.57-0.2 0.76-0.77 0.76h-3.62v9.53c0 1.52 0.96 2.28 3.62 2.28h0.77c0.38 0 0.76 0.19 0.76 0.76v1.53c0 0.57-0.19 0.76-0.76 0.76h-1.15c-4.95 0-6.47-1.71-6.47-4.95v-9.91h-1.91c-0.57 0-0.76-0.19-0.76-0.76v-1.33c0-0.38 0.19-0.57 0.76-0.76l1.72-0.2h0.19v-3.61c0-0.58 0.19-0.77 0.76-0.77h2.09c0.38 0 0.57 0.19 0.57 0.77v3.61l3.43 0.39z"/>
   <path id="Shape10" fill="#B0D135" d="m342.29 150.29c0.38 0 0.76 0.19 0.76 0.57v1.33c0 0.57-0.19 0.76-0.76 0.76h-3.62v9.53c0 1.52 0.95 2.28 3.62 2.28h0.76c0.38 0 0.76 0.19 0.76 0.76v1.53c0 0.57-0.19 0.76-0.76 0.76h-1.15c-4.95 0-6.47-1.71-6.47-4.95v-9.91h-1.91c-0.57 0-0.76-0.19-0.76-0.76v-1.33c0-0.38 0.19-0.57 0.76-0.76l1.72-0.2h0.19v-3.61c0-0.58 0.19-0.77 0.76-0.77h2.1c0.38 0 0.57 0.19 0.57 0.77v3.61l3.43 0.39z"/>
   <path id="Shape11" fill="#B0D135" d="m360.38 159.05c0 0.38-0.19 0.57-0.57 0.57h-9.71v3.24c0 1.52 0.76 2.28 3.61 2.28 2.86 0 3.62-0.95 3.62-2.28v-0.38c0-0.38 0.19-0.77 0.77-0.77h1.71c0.38 0 0.76 0.19 0.76 0.77v0.57c0 2.85-1.71 4.95-6.86 4.95-4.95 0-6.85-1.9-6.85-4.95v-8.38c0-2.86 1.71-4.96 6.85-4.96 4.96 0 6.67 1.91 6.67 4.96v4.38zm-10.28-1.91h7.04v-2.28c0-1.34-0.95-2.29-3.62-2.29-2.66 0-3.62 0.95-3.62 2.29 0.2 0 0.2 2.28 0.2 2.28z"/>
   <path id="Shape12" fill="#B0D135" d="m374.1 150.48v1.71c0 0.57-0.2 0.76-0.77 0.76-2.66 0.19-4.76 1.53-5.52 2.29v11.81c0 0.57-0.19 0.76-0.57 0.76h-2.1c-0.57 0-0.76-0.19-0.76-0.76v-16.19c0-0.38 0.19-0.76 0.76-0.76h1.91c0.57 0 0.57 0.19 0.76 0.76l0.19 1.52c0.95-0.95 2.86-2.48 5.52-2.48 0.38 0 0.58 0.2 0.58 0.58z"/>
   <path id="Shape13" fill="#B0D135" d="m394.29 150.48v1.71c0 0.57-0.19 0.76-0.77 0.76-2.66 0.19-4.76 1.53-5.52 2.29v11.81c0 0.57-0.19 0.76-0.57 0.76h-2.1c-0.57 0-0.76-0.19-0.76-0.76v-16.19c0-0.38 0.19-0.76 0.76-0.76h1.91c0.57 0 0.57 0.19 0.76 0.76l0.19 1.52c0.95-0.95 2.86-2.48 5.52-2.48 0.19 0 0.58 0.2 0.58 0.58z"/>
   <path id="Shape14" fill="#B0D135" d="m410.48 159.05c0 0.38-0.19 0.57-0.58 0.57h-9.71v3.24c0 1.52 0.76 2.28 3.62 2.28s3.62-0.95 3.62-2.28v-0.38c0-0.38 0.19-0.77 0.76-0.77h1.71c0.39 0 0.77 0.19 0.77 0.77v0.57c0 2.85-1.72 4.95-6.86 4.95-4.95 0-6.86-1.9-6.86-4.95v-8.38c0-2.86 1.72-4.96 6.86-4.96 4.95 0 6.67 1.91 6.67 4.96v4.38zm-10.29-1.91h7.05v-2.28c0-1.34-0.95-2.29-3.62-2.29s-3.62 0.95-3.62 2.29c0.19 0 0.19 2.28 0.19 2.28z"/>
   <path id="Shape15" fill="#B0D135" d="m414.29 154.67c0-2.86 1.9-4.77 6.66-4.77 4.95 0 6.67 1.91 6.67 4.77v12.38c0 0.57-0.19 0.76-0.57 0.76h-1.91c-0.57 0-0.57-0.19-0.76-0.76v-0.95c-0.95 0.76-2.86 2.09-5.52 2.09-3.24 0-4.96-1.9-4.96-4.38v-1.71c0-2.29 1.72-4.39 4.96-4.39h5.52v-2.66c0-1.53-0.76-2.48-3.43-2.48-2.66 0-3.43 0.76-3.43 2.29v0.38c0 0.57-0.19 0.76-0.76 0.76h-1.9c-0.38 0-0.57-0.19-0.57-0.76v-0.57zm10.09 8.76v-3.05h-4.95c-1.72 0-2.29 0.76-2.29 2.1v0.76c0 1.33 0.76 1.9 2.48 1.9 2.28 0 4-1.14 4.76-1.71z"/>
   <path id="Shape16" fill="#B0D135" d="m435.43 167.05c0 0.57-0.19 0.76-0.57 0.76h-2.1c-0.57 0-0.76-0.19-0.76-0.76v-23.43c0-0.57 0.19-0.76 0.76-0.76h2.1c0.38 0 0.57 0.19 0.57 0.76v23.43z"/>
   <path id="Shape17" fill="#B0D135" d="m443.81 146.86c0 0.38-0.19 0.76-0.57 0.76h-2.1c-0.57 0-0.76-0.19-0.76-0.76v-3.24c0-0.57 0.19-0.76 0.76-0.76h2.1c0.38 0 0.57 0.19 0.57 0.76v3.24zm0 20.19c0 0.57-0.19 0.76-0.57 0.76h-2.1c-0.57 0-0.76-0.19-0.76-0.76v-16.19c0-0.57 0.19-0.76 0.76-0.76h2.1c0.38 0 0.57 0.19 0.57 0.76v16.19z"/>
   <path id="Shape18" fill="#B0D135" d="m457.14 150.29c0.38 0 0.76 0.19 0.76 0.57v1.33c0 0.57-0.19 0.76-0.76 0.76h-3.62v9.53c0 1.52 0.96 2.28 3.62 2.28h0.76c0.39 0 0.77 0.19 0.77 0.76v1.53c0 0.57-0.19 0.76-0.77 0.76h-1.14c-4.95 0-6.47-1.71-6.47-4.95v-9.91h-1.91c-0.57 0-0.76-0.19-0.76-0.76v-1.33c0-0.38 0.19-0.57 0.76-0.76l1.72-0.2h0.19v-3.61c0-0.58 0.19-0.77 0.76-0.77h2.09c0.38 0 0.57 0.19 0.57 0.77v3.61l3.43 0.39z"/>
   <path id="Shape19" fill="#B0D135" d="m467.62 161.14c0.38 0.96 0.57 2.29 0.57 2.48 0-0.19 0.38-1.33 0.57-2.29l3.43-10.28c0.19-0.38 0.38-0.76 0.76-0.76h1.91c0.38 0 0.76 0.19 0.57 0.76l-8 23.24c-0.19 0.38-0.19 0.76-0.76 0.76h-1.53c-0.57 0-0.76-0.19-0.57-0.76l1.91-6.29-5.91-17.14c-0.19-0.38 0.19-0.76 0.57-0.76h2.1c0.38 0 0.57 0.19 0.76 0.76l3.62 10.28z"/>
  </g>
 </g>
</svg>
