<?xml version="1.0" encoding="UTF-8" standalone="no"?>
<svg xmlns="http://www.w3.org/2000/svg" height="200px" width="600px" version="1.1" xmlns:xlink="http://www.w3.org/1999/xlink" viewBox="0 0 600 200"><!-- Generator: Sketch 47.1 (45422) - http://www.bohemiancoding.com/sketch -->
 <title>assets/Pinion-LMS-Logo</title>
 <desc>Created with Sketch.</desc>
 <g id="Symbols" fill-rule="evenodd" fill="none">
  <g id="assets/Pinion-LMS-Logo" fill="#CA4446">
   <path id="Shape" fill-rule="nonzero" d="m127.47 33.754c1.19-0.476 3.33-0.476 4.28-0.951 0.96-0.476 2.86-0.715 3.81-0.715 1.19 0 2.38-0.238 3.57-0.476 1.43-0.237 2.62-0.237 4.05-0.475 0.71-0.238 1.43-0.238 1.9-0.715 0.72-0.476 0.48-1.428 1.19-1.904 2.62-1.666 6.91 0.238 9.29-1.428-1.19-1.189-4.05-0.476-5.48-0.713-1.9-0.238-4.04-0.238-5.95 0-2.14 0.237-4.52 0.237-6.66 0-2.38-0.476 2.38-1.429 2.85-1.429 4.52-0.475 9.05 0 13.57 0.238 3.33 0 6.43 0.953 9.52 1.191 1.43 0 3.09 1.19 4.52 0.475 0.95-1.19 0.95-1.19 2.38-1.19 0.72 0.239 0.72 1.19 1.19 1.428 1.43 0.953 3.81 1.19 5.48 1.904 1.9 0.715 3.81 1.428 5.71 2.143 0.95 0.238 4.76 1.666 4.76 0.713-0.95-1.428-3.33-2.379-5-3.094-1.9-0.951-4.05-1.666-5.95-2.142-0.95-0.237-1.9-0.475-2.86-1.19-0.95-0.713 1.19-0.476 1.91-0.476 0 0-0.72 0 0 0 1.19 0.238 5.24 1.429 6.19 1.904 2.85 1.191 5.47 2.381 8.09 3.808 4.05 2.143 8.33 4.999 11.66 8.331 1.67 1.666 3.57 3.095 5.24 4.521 1.66 1.429 3.33 3.334 5.47 4.523 0.72 0.477 2.62 1.428 2.62-0.238 0-1.428 0.24-2.142-1.19-4.285-0.48-0.951-0.95-1.904-1.67-2.617-0.95-0.953-3.33-2.381-3.09-3.094 0.71-1.428 5.95 3.332 7.14 4.522 2.14 2.142 4.05 4.523 5.95 7.14 4.05 5.236 8.09 11.187 10 17.375 1.66 2.619 2.38 6.426 3.09 9.283 0.72 2.617 0.95 5.236 1.67 7.617 0.47 1.903 0.71 4.283 0.95 6.426 0.24 3.332 0.71 6.902 0.71 10.236 0 5.47-0.24 10.71-1.66 15.94-1.43 6.19-4.29 11.9-7.38 17.38-6.67 11.42-17.14 21.9-28.8 27.85-5.47 2.85-11.66 4.52-17.85 4.76-3.33 0.23-5.95-1.19-8.81-2.62-1.19-0.72-3.09-1.43-3.57-2.86-0.47-1.66 2.62-1.9 3.57-1.9 1.19 0 2.62-0.24 3.81 0 0.71 0.24 2.14 0.47 2.86 0.24 2.38-0.72-0.72-6.91-1.19-8.33-0.72-1.91-5-14.05 0.23-13.57 3.1 0.24 5.72 3.57 8.33 5.24 2.86 1.9 6.43 3.8 9.76 4.52 1.19 0.24 2.15 0.47 3.34 0.47s2.61-0.23 3.8-0.23c1.67 0.23 7.38-2.15 4.76-4.29-2.14-1.9-3.33-4.52-5.47-6.66-1.9-2.14-5.24-4.76-5.47-7.62-0.24-2.62 5.95-2.62 7.37-2.62 3.34 0 6.67 0.24 9.76-0.47 2.62-0.48 5-1.43 7.14-2.86 1.91-1.19 5.72-4.05 4.29-6.9-1.43-2.86-5.48-3.81-8.09-4.76-2.62-0.95-5.48-0.24-8.1-1.43-2.85-1.43-1.66-4.05 0.24-5.71 2.62-2.14 5.95-3.1 8.57-5.476 2.38-2.143 4.28-4.76 5.71-7.617 1.19-2.381 2.62-6.426 0.48-8.807-1.91-1.904-5.24-0.951-7.38-0.476-3.33 0.715-5.71 2.619-8.57 3.81-3.33 1.426-5-0.24-4.52-3.572 0.47-3.57 3.33-6.426 3.81-9.758 0.95-4.283 0.47-10.949-1.91-14.756-4.28-6.902-10.95 3.332-12.85 7.141-0.71 1.666-2.62 4.758-5 4.045s-2.62-4.522-3.09-6.426c-1.43-5.236-3.81-9.996-7.86-13.566-1.66-1.428-4.04-3.571-6.42-3.571s-3.34 2.143-3.57 4.284c-0.24 2.619-0.72 4.998-0.72 7.379 0 2.617 1.19 6.426-0.24 8.806-1.19 2.381-4.28-1.191-5.23-2.142-1.67-1.666-3.81-3.332-5.71-4.76-2.15-1.428-4.53-2.381-6.91-3.094-2.38-0.715-5.71-1.666-8.33-0.715-2.38 0.953-4.04 3.094-6.19 4.285-2.38 1.19-4.76 2.618-7.14 3.807-2.37 0.953-4.76 1.668-6.9 3.094-1.19 0.715-1.43 1.906-3.09 1.906-1.67 0-1.67-0.715-1.19-1.906-1.43 0-2.86 1.429-4.05 2.144-1.66 1.188-3.33 2.379-4.76 3.807-1.43 1.191-2.62 2.619-4.04 4.047-0.48 0.713-3.34 3.57-3.1 4.283 2.86-1.189 5-4.045 7.38-5.711 0.48-0.477 2.86-2.381 3.33-1.904 0.48 1.189-1.66 2.617-2.38 3.332-5.71 4.76-9.995 11.424-13.327 17.851-1.666 3.094-3.094 6.666-3.807 10.236-0.478 3.09-0.715 6.19-1.191 9.28-0.475 3.57-0.238 7.62-0.238 11.42 0 1.91-0.237 3.81-0.237 5.72 0 1.66 0.237 3.33-0.478 4.76-1.428-2.38-1.428-6.67-1.428-9.28-0.238-4.29-0.238-8.81-0.238-13.1 0-0.95 0-1.9-0.475-2.61-0.476-0.72-1.428-0.24-1.666-0.96-1.191-1.9 0-4.52 0.238-6.42 0.715-3.811 2.618-7.858 4.284-11.427 4.046-8.806 9.523-16.66 16.663-23.087 3.33-3.094 7.38-5.475 10.71-8.092 0.95-0.715 4.28-3.094 3.09-4.522-0.47-0.714-1.19 0-1.43-0.714-0.23-0.715 0.48-1.905 0.72-2.619-1.67-0.237-3.57 1.191-5 1.904-1.67 0.715-3.09 1.666-4.76 2.381-2.62 1.428-5.24 2.142-7.85 3.332-2.86 1.428-5.479 3.808-7.62 5.949-1.191 0.953-2.143 2.144-3.334 3.095-0.713 0.715-2.855 2.618-3.807 2.381 0-2.857 3.807-5.713 5.713-7.379 0.713-0.714 1.428-1.429 1.903-1.904 0-0.953 1.666-0.953 2.142-1.191 1.428-0.713 2.623-2.141 3.813-3.569 5.23-6.189 13.8-8.568 20.46-12.853-1.42-0.238-2.61 0.238-4.04 0.715-0.72 0.713-1.19 1.427-2.38 1.666-0.95 0.238-1.91 0.238-2.86-0.239 0-1.666 1.67-1.427 2.62-2.142 0.95-0.713 0.48-1.666 1.19-2.379 1.43 0.475 1.9 1.903 2.86 0.237 0.71-1.428 0.95-0.477 2.14-1.19 1.19-0.476 1.9-1.666 2.62-2.379-1.67-0.715-6.19 1.426-7.62 2.141-2.62 1.191-5 2.379-7.62 3.808-4.99 3.094-9.755 7.141-14.991 9.758-0.237-1.189 1.904-3.094 2.618-4.045 0.952-1.191 2.38-2.381 3.573-3.57 2.62-2.619 6.19-4.285 9.52-5.951s7.14-3.809 10.47-5.236c1.67 0.238 7.14-1.905 7.14-1.905zm25.47 2.143c0 2.379 5.71 5.474 6.42 2.617 0-1.904-5.23-4.283-6.42-2.617 0 0.238 0.24-0.238 0 0zm-28.09 8.568c2.14 0 3.81-1.191 5.48-2.379-0.95-0.24-5.72 0.713-5.48 2.379 0.48 0 0-0.238 0 0zm52.84 94.495c0.48 1.42 2.86 1.66 2.62 0.47-0.95-0.71-1.91-0.71-2.62-0.47 0.48 0.71 0.24 0 0 0zm-49.51-74.741c-0.23 0-0.47 0-0.95 0.24-0.71 0.237-1.42 0.951-1.9 1.426-0.95 0.953-1.91 1.906-2.86 2.857 0 0 0 0.238-0.24 0.238h0.72c0.47-0.238 0.71-0.476 1.19-0.714 0.71-0.475 1.19-1.19 2.14-1.666 0.95-0.475 1.67-1.19 2.62-0.952 0.48 0 0.71-0.238 0.71-0.476-0.23-0.476-0.71-0.713-1.19-0.953h-0.24zm-18.56-15.707c-0.48 0.238-0.71 0.475-1.19 0.475-0.71 0.238-1.19 0.714-1.67 1.429-0.23 0.237-0.47 0.475-0.23 0.713 0.95 0 1.9-0.713 2.61-1.19 0.48-0.476 0.96-0.714 1.19-1.427-0.23-0.239-0.23-0.239-0.71 0zm25.7-21.422c-0.23-2.142-7.85 2.381-1.42 0.477 0.24 0 1.42-0.239 1.42-0.477zm1.43 143.52c-0.24-0.95-0.71-1.9-1.19-1.9-0.47 0-0.95-0.72-1.19-1.43-0.71-1.91 0.48-1.67 3.1 0.71 1.19 1.19 2.85 2.14 3.57 2.14 0.71 0 1.43 0.96 1.66 2.15 0.24 1.9 0 2.14-4.99 2.14-3.81 0-5.96-0.48-7.86-1.91-1.9-1.19-2.14-1.9-1.19-1.9s1.67 0.48 2.14 0.95c0.24 0.48 1.91 0.95 3.57 0.95l2.38-1.9zm-38.555-53.79c-0.238-4.52 1.428-9.76 2.385-12.14 0.71-1.9 1.19-6.901 9.52-15.944 0.47-0.478 0.95-1.429 1.66-1.429 0.72 0 1.43-0.477 1.91-0.952 0.47-0.714 0.23-0.714-0.72-0.238-0.71 0.475 0.48-1.191 2.62-3.332 4.05-4.285 12.38-9.045 15.47-9.758 3.33-0.715 12.38-0.953 12.38-0.953 3.57 2.856 4.04 4.047 3.09 5.475-0.71 1.428-2.38 1.666-8.57 1.666s-8.56 0.476-12.85 2.379c-4.04 1.904-5.47 3.095-6.66 5.951-0.72 1.904-1.67 3.57-2.15 3.808-2.14 1.428-8.09 12.377-9.99 18.327-1.67 5.24-2.14 8.57-2.14 16.42 0 6.9-0.24 9.52-0.96 9.29-2.85-1.19 3.1 14.75 8.33 22.61 2.15 3.33 4.05 6.18 4.05 6.18 0 0.24-1.67-0.71-3.81-2.14-3.81-2.38-12.85-11.18-12.137-11.9 0.238-0.24 0.957 0.24 1.907 1.19 2.62 2.62 3.33 0.95 1.43-3.09-4.05-9.76-5.479-17.14-5.003-21.9 0.238-2.38 0.238-8.33 0.238-9.52zm19.275 15.71c0 6.43 3.81 17.37 8.1 23.8 1.9 2.86 3.57 5.47 3.57 5.95 0 1.43-5.72-5-8.81-9.52-4.52-7.14-6.66-13.8-6.66-21.9 0-8.09 0.95-13.56 2.14-13.56 0.47 0 0.71-0.24 0.47-0.72-0.23-0.24-0.23-1.19 0.48-1.9 0.48-0.72 0.71-1.43 0.48-1.91-0.24-0.23-1.19 0.24-1.91 1.19-1.9 2.38-1.66 1.43 0.48-4.52 1.66-4.04 2.38-5 3.57-4.76 2.14 0.48 3.81-4.997 2.62-7.614-0.72-1.191-0.48-1.904 0.47-2.144 0.72-0.237 1.19-0.951 0.95-1.426-0.23-0.477 0.24-0.477 1.19 0 0.96 0.475 3.34 0.951 5.24 0.951 8.33 0 9.05 4.047 1.67 7.853-4.53 2.14-5.71 3.33-8.57 8.33-2.86 4.76-3.33 6.43-3.1 9.52 0.24 2.38 0.24 3.1-0.47 2.15-0.72-1.2-0.72-0.96-0.95 0.23 0 0.72-0.24 2.14-0.48 3.1l-0.48 6.9zm5.48-35.94c0 0.476 0.24 0.951 0.47 0.951 0.24 0 0.72-0.475 0.96-0.951 0.23-0.477 0.23-0.953-0.48-0.953-0.48 0-0.95 0.476-0.95 0.953zm21.89 62.83c0.96 2.86-7.61-6.9-9.28-10.94-0.95-1.91-1.9-5.72-2.38-8.33-0.24-2.62-0.95-4.76-1.19-4.76-1.19 0-4.52-9.05-3.57-9.52 0.48-0.24 0.72-0.96 0.48-1.2-0.48-0.71 7.14-5.47 9.04-5.47 0.72 0 1.67 0.71 2.14 1.43 0.96 0.95 0.72 2.14-0.71 5.24-3.33 6.66-3.33 13.32-0.47 22.37 0.71 1.9 1.9 4.52 3.57 6.66 0.95 1.43 2.14 3.57 2.37 4.52zm-7.13-37.12c-0.24 0.95-0.48 1.66-0.24 1.9s0.71-0.24 0.95-1.19 0.48-1.67 0.24-1.91c0-0.23-0.48 0.24-0.95 1.2zm26.41 30.7c1.91 3.09 1.91 3.09-4.28-1.91-1.43-1.19-3.33-2.14-4.28-2.14-0.96 0-1.91-0.71-2.38-1.9-0.24-0.96-1.19-1.91-1.91-1.91-0.95 0-1.19-0.47-0.71-1.66 0.47-0.95 0.95-2.86 1.43-4.52 0.47-1.67 1.42-3.34 2.38-3.57 2.14-0.72 4.76 3.09 4.76 6.9 0 1.9 0.71 4.28 1.66 5.47 0.72 1.67 2.38 3.81 3.33 5.24zm-9.04-14.52c0.24 0.71 0.95 1.43 1.19 1.43 0.48 0 0.48-0.72 0.24-1.43-0.24-0.72-0.95-1.43-1.19-1.43-0.24 0.24-0.48 0.71-0.24 1.43zm-75.449-29.99l-0.953-3.57c-0.475-1.9-0.713-5.237-0.238-7.379 0.714-4.998 6.189-15.947 8.808-17.85 1.188-0.714 1.903-1.666 1.903-1.904-0.237-0.238-0.237-0.476 0-0.476 0.238 0 0.476 0.238 0.476 0.476v1.428c0 0.476-1.428 2.379-3.094 4.283-3.332 3.572-6.902 14.758-6.902 21.422v3.57z"/>
   <path id="Combined-Shape" d="m267.76 66.516h25.94c2.38 0 4.05 0.475 5.24 1.428 1.19 0.951 1.66 2.617 1.66 4.76v7.14c0 2.141-0.47 3.807-1.66 4.76s-2.86 1.428-5.24 1.428h-20.47v12.377h-5.24v-31.893h-0.23zm6.42 3.213v11.186h18.33c1.19 0 2.14-0.237 2.62-0.713 0.47-0.475 0.95-1.428 0.95-2.619v-4.522c0-1.427-0.24-2.142-0.95-2.617-0.48-0.476-1.43-0.715-2.62-0.715h-18.33z"/>
   <polygon id="Path" points="319.17 66.516 324.4 66.516 324.4 98.647 319.17 98.647"/>
   <path id="Path" d="m345.35 66.516h3.33l24.04 21.42c1.19 0.953 2.38 2.381 3.57 4.047-0.24-1.428-0.24-2.856-0.24-4.047v-3.807-17.613h4.76v32.131h-3.09l-24.76-22.373c-0.47-0.476-0.95-0.953-1.66-1.428-0.48-0.476-1.19-1.191-1.67-2.142 0.24 1.189 0.24 2.38 0.24 3.57v22.373h-5v-32.131h0.48z"/>
   <polygon id="Path" points="402.71 66.516 407.95 66.516 407.95 98.647 402.71 98.647"/>
   <path id="Combined-Shape" d="m428.41 74.131c0-1.427 0.24-2.617 0.48-3.808 0.24-0.951 0.71-1.666 1.19-2.379 0.47-0.477 1.43-0.953 2.38-1.191 0.95-0.237 2.14-0.237 3.57-0.237h22.13c1.43 0 2.62 0 3.57 0.237 0.96 0.238 1.67 0.714 2.38 1.191 0.48 0.475 0.96 1.428 1.2 2.379 0.23 0.953 0.23 2.142 0.23 3.808v16.899c0 1.429 0 2.619-0.23 3.808-0.24 0.953-0.72 1.666-1.2 2.381-0.47 0.475-1.42 0.951-2.38 1.19-0.95 0.238-2.14 0.238-3.57 0.238h-22.13c-1.43 0-2.62 0-3.57-0.238-0.95-0.239-1.67-0.715-2.38-1.19-0.48-0.476-0.95-1.428-1.19-2.381-0.48-0.951-0.48-2.379-0.48-3.808v-16.899zm31.48 20.291v-23.087h-26.66v23.325h26.66v-0.238z"/>
   <path id="Path" d="m486.73 66.753h3.33l24.04 21.421c1.19 0.953 2.38 2.381 3.57 4.047-0.24-1.428-0.48-2.857-0.48-4.285v-3.807-17.613h5v32.131h-3.1l-24.75-22.373c-0.48-0.477-0.95-0.953-1.66-1.428-0.48-0.477-1.19-1.191-1.67-2.143 0.24 1.19 0.24 2.381 0.24 3.571v22.373h-5v-31.894h0.48z"/>
   <path id="Path" d="m308.57 131.55c-1.19 0.72-2.61 1.19-4.28 1.19-2.14 0-4.05-0.71-5.47-2.14-1.43-1.43-2.15-3.33-2.15-5.71 0-2.62 0.72-4.76 2.15-6.19 1.42-1.67 3.57-2.38 5.95-2.38 1.43 0 2.61 0.24 3.57 0.71v2.62c-1.19-0.71-2.38-1.19-3.81-1.19-1.67 0-2.86 0.48-4.05 1.67s-1.43 2.62-1.43 4.52 0.48 3.33 1.43 4.28c0.95 0.96 2.38 1.67 3.81 1.67s2.62-0.48 3.81-1.43v2.38h0.47z"/>
   <path id="Combined-Shape" d="m323.57 132.74c-2.38 0-4.28-0.71-5.47-2.14-1.43-1.43-2.15-3.33-2.15-5.95s0.72-4.76 2.15-6.19c1.42-1.43 3.33-2.14 5.95-2.14 2.38 0 4.28 0.71 5.47 2.14 1.43 1.43 1.9 3.33 1.9 5.95s-0.71 4.52-2.14 5.95c-1.43 1.67-3.33 2.38-5.71 2.38zm0.83-14.81c-1.66 0-2.85 0.47-3.81 1.66-0.95 1.19-1.42 2.62-1.42 4.52 0 1.91 0.47 3.34 1.42 4.29 0.96 1.19 2.15 1.67 3.81 1.67 1.67 0 2.86-0.48 3.81-1.67 0.95-0.95 1.43-2.62 1.43-4.52 0-1.91-0.48-3.57-1.43-4.53-0.95-0.95-2.14-1.42-3.81-1.42z"/>
   <path id="Path" d="m353.14 131.79h-2.62v-2.38c-0.95 1.9-2.61 2.86-4.76 2.86-3.8 0-5.71-2.15-5.71-6.67v-9.28h2.62v9.04c0 3.34 1.19 5 3.81 5 1.19 0 2.14-0.47 3.09-1.43 0.72-0.95 1.19-2.14 1.19-3.57v-9.04h2.62v15.47h-0.24z"/>
   <path id="Path" d="m370.87 119.18c-0.47-0.24-1.19-0.48-1.9-0.48-1.19 0-1.9 0.48-2.62 1.43-0.71 0.95-1.19 2.38-1.19 4.04v8.1h-2.62v-15.71h2.62v3.33c0.48-1.19 0.95-1.9 1.67-2.62 0.71-0.71 1.66-0.95 2.38-0.95 0.71 0 1.19 0 1.43 0.24v2.62h0.23z"/>
   <path id="Path" d="m377 131.79v-2.62c1.43 0.95 2.86 1.43 4.53 1.43 2.14 0 3.33-0.71 3.33-2.14 0-0.48 0-0.72-0.24-0.95l-0.72-0.72c-0.23-0.24-0.71-0.47-1.18-0.71-0.48-0.24-0.96-0.48-1.43-0.48-0.72-0.24-1.19-0.48-1.91-0.95-0.47-0.24-0.95-0.71-1.42-0.95-0.24-0.24-0.72-0.72-0.72-1.19 0-0.48-0.24-0.95-0.24-1.67 0-0.71 0.24-1.43 0.48-1.9 0.24-0.48 0.71-0.95 1.43-1.43 0.47-0.48 1.19-0.72 1.9-0.95 0.72-0.24 1.43-0.24 2.14-0.24 1.43 0 2.62 0.24 3.57 0.71v2.62c-1.19-0.71-2.38-1.19-4.04-1.19-0.48 0-0.95 0-1.19 0.24-0.48 0-0.72 0.24-0.95 0.48-0.24 0.23-0.48 0.47-0.72 0.71s-0.24 0.47-0.24 0.95 0 0.72 0.24 0.95l0.72 0.72c0.23 0.24 0.71 0.47 0.95 0.47 0.47 0.24 0.95 0.48 1.43 0.48 0.71 0.24 1.42 0.48 1.9 0.71 0.48 0.24 0.95 0.72 1.43 0.95 0.47 0.24 0.71 0.72 0.95 1.2 0.24 0.47 0.24 0.95 0.24 1.66 0 0.72-0.24 1.43-0.48 2.14-0.24 0.48-0.71 0.96-1.43 1.43-0.47 0.48-1.19 0.72-1.9 0.95-0.71 0.24-1.43 0.24-2.38 0.24-1.43 0-2.86-0.24-4.05-0.95z"/>
   <path id="Combined-Shape" d="m410.09 125.12h-11.19c0 1.67 0.48 3.1 1.43 4.05s2.14 1.43 3.81 1.43c1.66 0 3.33-0.48 4.76-1.67v2.38c-1.43 0.96-3.1 1.43-5.48 1.43-2.14 0-4.04-0.71-5.23-2.14s-1.91-3.33-1.91-5.95c0-2.38 0.72-4.52 2.15-5.95 1.42-1.43 3.09-2.38 5.23-2.38s3.57 0.71 4.76 1.9 1.67 3.1 1.67 5.48v1.42zm-1.81-2.67c0-1.43-0.53-2.62-1.07-3.33-0.81-0.72-1.88-1.19-3.22-1.19s-2.42 0.47-3.49 1.19c-0.81 0.95-1.61 1.9-1.61 3.33h9.39z"/>
   <path id="Path" d="m437.7 116.32l-4.76 15.71h-2.62l-3.33-11.19c-0.24-0.47-0.24-0.95-0.24-1.43 0 0.48-0.24 0.96-0.24 1.43l-3.57 11.19h-2.62l-4.76-15.71h2.62l3.33 11.9c0 0.48 0.24 0.71 0.24 1.43h0.24c0-0.48 0.23-0.95 0.23-1.43l3.57-11.66h2.39l3.33 11.9c0 0.47 0.24 0.95 0.24 1.43h0.23c0-0.48 0-0.96 0.24-1.43l3.1-11.9h2.38v-0.24z"/>
   <path id="Combined-Shape" d="m456.85 132.5h-2.61v-2.38c-1.19 1.91-2.62 2.86-4.76 2.86-1.67 0-2.86-0.48-3.57-1.19-0.96-0.71-1.43-1.9-1.43-3.33 0-2.86 1.67-4.53 5.23-5.24l4.77-0.71c0-2.62-1.2-4.05-3.34-4.05-1.9 0-3.57 0.71-5.23 1.9v-2.61c1.42-0.96 3.33-1.43 5.23-1.43 3.81 0 5.48 1.9 5.48 5.95v10.23h0.23zm-2.37-8.15l-4.33 0.48c-1.36 0.24-2.44 0.47-2.98 0.95s-1.08 1.19-1.08 2.14c0 0.72 0.27 1.43 0.81 1.91 0.54 0.47 1.35 0.71 2.43 0.71 1.36 0 2.71-0.48 3.52-1.43 0.82-0.95 1.36-1.9 1.36-3.33v-1.43h0.27z"/>
   <path id="Path" d="m473.69 119.18c-0.47-0.24-1.19-0.48-1.9-0.48-1.19 0-1.9 0.48-2.62 1.43-0.71 0.95-1.19 2.38-1.19 4.04v8.1h-2.62v-15.71h2.62v3.33c0.48-1.19 0.95-1.9 1.67-2.62 0.71-0.71 1.67-0.95 2.38-0.95s1.19 0 1.43 0.24v2.62h0.23z"/>
   <path id="Combined-Shape" d="m493.63 125.12h-11.19c0 1.67 0.48 3.1 1.43 4.05s2.14 1.43 3.81 1.43c1.66 0 3.33-0.48 4.76-1.67v2.38c-1.43 0.96-3.1 1.43-5.48 1.43-2.14 0-4.04-0.71-5.23-2.14s-1.91-3.33-1.91-5.95c0-2.38 0.72-4.52 2.15-5.95 1.42-1.43 3.09-2.38 5.23-2.38s3.57 0.71 4.76 1.9 1.67 3.1 1.67 5.48v1.42zm-2.26-2.67c0-1.43-0.48-2.62-0.96-3.33-0.71-0.72-1.66-1.19-2.85-1.19s-2.14 0.47-3.1 1.19c-0.71 0.95-1.42 1.9-1.42 3.33h8.33z"/>
  </g>
 </g>
</svg>
