<?xml version="1.0" encoding="UTF-8" standalone="no"?>
<svg xmlns="http://www.w3.org/2000/svg" height="200px" width="600px" version="1.1" xmlns:xlink="http://www.w3.org/1999/xlink" viewBox="0 0 600 200"><!-- Generator: Sketch 47.1 (45422) - http://www.bohemiancoding.com/sketch -->
 <title>assets/Stun-Design-Logo</title>
 <desc>Created with Sketch.</desc>
 <g id="Symbols" fill-rule="evenodd" fill="none">
  <g id="assets/Stun-Design-Logo">
   <path id="Shape" fill-rule="nonzero" fill="#A7C600" d="m399.1 50.67h-30.63v17.232h10.17v44.658h-10.17v17.09h38.73v-16.95h-8.1v-41.352c5.08-2.44 8.37-3.302 11.94-3.302h4.13c3.7 0 5.08 0.43 6.31 1.722 1.1 1.291 1.65 3.161 1.65 6.46v36.472h-8.1v16.95h38.31v-17.09h-9.75v-38.628c0-11.629-1.23-15.792-4.39-18.953-2.89-3.016-6.87-4.452-13.46-4.452h-6.87c-7 0-10.02 1.436-19.77 10.627v-10.484zm-69.63 78.98h30.63v-17.09h-10.17v-61.89h-31.03v17.087h10.57v41.213c-5.08 2.3-8.38 3.3-11.95 3.3h-4.12c-3.71 0-5.08-0.57-6.31-1.87-1.1-1.15-1.65-3.01-1.65-6.46v-53.27h-30.22v17.232h9.75v38.488c0 11.48 1.24 15.64 4.4 18.95 2.88 3.01 6.87 4.45 13.46 4.45h6.87c6.86 0 10.02-1.58 19.77-10.63v10.49zm-64.13-17.09h-11.81c-3.43 0-4.81-0.29-5.36-0.86-0.82-0.86-1.1-2.01-1.1-5.46v-38.338h18.41v-17.232h-18.41v-19.67h-20.46v19.67h-10.16v17.232h10.16v43.798c0 8.04 0.96 11.63 3.43 14.21 2.61 2.73 6.19 4.31 13.33 4.31 5.63 0 10.84-0.86 14.14-1.72l7.83-2.01v-13.93zm-118.38-38.628c0 11.057 0.83 14.933 3.98 18.238 2.2 2.442 5.22 3.586 11.26 4.306l21.98 2.873c3.29 0.43 4.25 0.721 4.94 1.441 0.69 0.86 1.1 2 1.1 5.88 0 4.16-0.27 5.46-0.96 6.03-0.55 0.58-1.51 1.01-4.12 1.01h-15.8c-2.6 0-3.43-0.29-3.98-1.01-0.68-0.86-0.96-2.3-1.09-8.18h-18.27c0.27 14.07 1.51 18.23 4.53 21.39 2.34 2.59 6.32 3.74 13.05 3.74h29.25c5.49 0 8.79-1.01 11.12-3.45 3.16-3.3 5.22-8.76 5.22-20.53 0-10.198-0.82-15.654-3.57-18.528-2.06-2.154-4.94-3.302-10.71-4.018l-23.07-2.875c-3.3-0.428-4.12-0.718-4.95-1.433-0.96-0.865-1.23-2.156-1.23-5.745 0-3.735 0.41-4.883 1.1-5.599 0.68-0.719 1.65-0.861 4.12-0.861h13.59c2.48 0 3.44 0.284 3.98 1.003 0.69 0.861 0.97 1.722 1.24 7.611h18.27c-0.28-13.352-1.38-17.948-4.4-21.108-2.2-2.296-6.18-3.447-12.91-3.447h-27.33c-5.76 0-8.78 1.151-11.12 3.593-3.02 3.157-5.22 8.9-5.22 19.669z"/>
   <path id="Shape" fill-rule="nonzero" fill="#A7C600" d="m440.01 146.7v13.74h-2.27v1.63h12.62v-5.3h-1.72v3.67h-6.91v-6.42h5.12v-1.56h-5.12v-5.76h6.78v3.36h1.72v-4.99h-12.49v1.63h2.27zm-19.32 0l4.46 14.71c0.18 0.58 0.37 0.73 1.02 0.73h1.16c0.65 0 0.83-0.15 1.02-0.73l4.46-14.71h1.95v-1.63h-6.06v1.63h2.34l-3.99 13.67h-0.46l-3.97-13.67h2.35v-1.63h-6.23v1.63h1.95zm-7.45 13.74v-13.74h2.37v-1.63h-6.5v1.63h2.37v13.74h-2.37v1.63h6.5v-1.63h-2.37zm-13.92 0v-13.74h4.25v3.79h1.72v-5.42h-13.7v5.42h1.72v-3.79h4.25v13.74h-2.39v1.63h6.54v-1.63h-2.39zm-15.04 1.63c1.3 0 2.02-0.2 2.49-0.65 0.76-0.83 0.95-1.87 1.02-4.91h-1.79c-0.07 2.45-0.19 3.13-0.53 3.5-0.23 0.24-0.51 0.36-1.39 0.36h-4.44c-0.93 0-1.18-0.09-1.41-0.34-0.35-0.39-0.56-1.24-0.56-6.46s0.21-6.07 0.56-6.46c0.23-0.24 0.48-0.34 1.41-0.34h4.44c0.9 0 1.18 0.12 1.39 0.34 0.34 0.36 0.49 1.14 0.53 3.25h1.77c-0.07-2.84-0.26-3.86-1-4.63-0.44-0.46-1.12-0.66-2.46-0.66h-4.97c-1.39 0-1.95 0.2-2.41 0.68-0.81 0.83-1.12 2.07-1.12 7.82 0 5.76 0.31 7 1.12 7.82 0.46 0.49 1.02 0.68 2.41 0.68h4.94zm-19.15-15.41h0.44l2.41 8.16h-5.26l2.41-8.16zm-1.74 15.41v-1.63h-2.35l1.21-4.06c1.49 0 4.94-0.02 6.17-0.02l1.23 4.08h-2.34v1.63h6.2v-1.63h-1.95l-4.51-14.71c-0.18-0.58-0.34-0.73-0.99-0.73h-1.26c-0.65 0-0.81 0.15-0.99 0.73l-4.51 14.71h-1.95v1.63h6.04zm-19.16-9.16v-6.21h4.87c0.79 0 1.19 0.1 1.42 0.34 0.28 0.29 0.51 0.82 0.51 2.77 0 1.92-0.23 2.4-0.51 2.69-0.23 0.24-0.61 0.41-1.44 0.41h-4.85zm8.47 4.57c-0.09-2.73-0.58-3.38-2.16-3.72v-0.05c1.61-0.34 2.35-1.04 2.35-4 0-2.48-0.3-3.28-0.93-3.93-0.51-0.51-1.23-0.71-2.37-0.71h-9.36v1.63h2.28v13.74h-2.28v1.63h6.37v-1.63h-2.37v-6h4.33c0.91 0 1.38 0.14 1.77 0.53 0.33 0.34 0.52 0.85 0.56 2.53 0.1 3.43 0.24 3.92 0.54 4.23 0.21 0.22 0.48 0.34 1.18 0.34h2.44v-1.65h-2.19c-0.04-0.63-0.09-1.36-0.16-2.94zm-26.88-10.78v13.74h-2.27v1.63h12.62v-5.3h-1.72v3.67h-6.9v-6.42h5.11v-1.56h-5.11v-5.76h6.77v3.36h1.72v-4.99h-12.49v1.63h2.27zm-11.93 13.74v-13.74h4.25v3.79h1.72v-5.42h-13.7v5.42h1.72v-3.79h4.25v13.74h-2.39v1.63h6.54v-1.63h-2.39zm-15.04-0.82h-0.3l-6.41-13.87c-0.25-0.53-0.42-0.68-1-0.68h-4.45v1.63h2.27v13.74h-2.27v1.63h6.29v-1.63h-2.37v-13.26h0.3l6.55 14.24c0.25 0.53 0.41 0.65 0.99 0.65h2.05v-15.37h2.23v-1.63h-6.25v1.63h2.37v12.92zm-18.24 0.82v-13.74h2.37v-1.63h-6.5v1.63h2.37v13.74h-2.37v1.63h6.5v-1.63h-2.37zm-21.73-2.1h-0.78c-0.88 0-1.22-0.1-1.45-0.36-0.33-0.34-0.44-0.86-0.44-2.42 0-1.57 0.11-1.95 0.33-2.19 0.19-0.22 0.55-0.38 1.01-0.46l0.59-0.14c0.51 0.62 1.91 2.2 2.98 3.51l-0.84 1.3c-0.4 0.62-0.67 0.76-1.4 0.76zm0.96-12.7c-1.15 0-1.74 0.16-2.16 0.6-0.52 0.54-0.65 1.26-0.65 3.22 0 1.03 0.14 1.69 0.42 2.21l-0.13 0.02c-1 0.12-1.59 0.38-1.91 0.72-0.55 0.58-0.63 1.14-0.63 3.15 0 1.94 0.17 2.8 0.74 3.42 0.48 0.5 1.11 0.66 2.27 0.66h1.38c1.07 0 1.55-0.34 2.12-1.22l0.63-1.02h0.11l1.85 2.21h2.31v-1.35h-1.52l-1.91-2.22 1.91-3.05h1.41v-1.36h-2.22l-1.92 3.32h-0.14l-2.31-2.8c-0.42-0.48-0.65-0.82-0.78-1.14-0.11-0.3-0.21-0.82-0.21-1.53 0-1.52 0.06-1.98 0.29-2.24 0.21-0.22 0.49-0.3 1.16-0.3h0.88c0.56 0 0.84 0.06 1.03 0.28 0.23 0.22 0.33 0.64 0.33 2.3h1.43c0-2.04-0.16-2.8-0.67-3.34-0.36-0.38-0.95-0.54-1.89-0.54h-1.22zm-20.17 13.98h-0.3l-6.4-13.87c-0.26-0.53-0.42-0.68-1-0.68h-4.46v1.63h2.28v13.74h-2.28v1.63h6.29v-1.63h-2.36v-13.26h0.3l6.54 14.24c0.26 0.53 0.42 0.65 1 0.65h2.04v-15.37h2.23v-1.63h-6.24v1.63h2.36v12.92zm-16.67-9.39c-0.07-2.68-0.26-3.73-1.02-4.5-0.42-0.46-1.1-0.66-2.44-0.66h-5.02c-1.4 0-1.95 0.2-2.42 0.68-0.81 0.83-1.11 2.07-1.11 7.85 0 5.73 0.3 6.97 1.11 7.79 0.47 0.48 1.02 0.68 2.42 0.68h5.09c1.34 0 1.99-0.2 2.5-0.73 0.71-0.77 0.99-1.65 0.99-6.21v-1.56h-5.88v1.56h4.12v0.54c0 3.3-0.21 4-0.56 4.36-0.2 0.25-0.51 0.34-1.42 0.34h-4.54c-0.93 0-1.18-0.09-1.42-0.34-0.35-0.38-0.56-1.24-0.56-6.43 0-5.25 0.21-6.1 0.56-6.49 0.24-0.24 0.49-0.34 1.42-0.34h4.46c0.93 0 1.21 0.12 1.42 0.34 0.35 0.37 0.46 1.1 0.51 3.12h1.79zm-18.97 10.21v-13.74h2.37v-1.63h-6.49v1.63h2.37v13.74h-2.37v1.63h6.49v-1.63h-2.37zm-8.56-3.06c0-2.25-0.21-3.13-0.79-3.73-0.44-0.47-1.14-0.69-2.37-0.81l-4.77-0.48c-0.88-0.1-1.21-0.17-1.44-0.44-0.32-0.34-0.42-0.73-0.42-2.26 0-1.46 0.1-2.21 0.42-2.53 0.28-0.29 0.6-0.36 1.35-0.36h4.2c0.74 0 1.07 0.07 1.3 0.34 0.3 0.32 0.39 0.78 0.44 2.96h1.79c-0.05-2.91-0.24-3.62-0.89-4.29-0.48-0.54-1.18-0.71-2.39-0.71h-4.73c-1.21 0-1.88 0.27-2.35 0.76-0.72 0.72-0.95 1.77-0.95 3.85 0 2.19 0.19 3.04 0.77 3.62 0.44 0.49 1.11 0.71 2.39 0.83l4.77 0.49c0.88 0.09 1.21 0.19 1.44 0.46 0.35 0.34 0.42 0.75 0.42 2.33 0 1.63-0.12 2.28-0.42 2.6-0.28 0.29-0.6 0.36-1.37 0.36h-4.68c-0.76 0-1.06-0.07-1.3-0.34-0.27-0.29-0.41-0.7-0.44-3.08h-1.78c0.02 3.08 0.25 3.76 0.88 4.42 0.49 0.53 1.18 0.7 2.36 0.7h5.24c1.23 0 1.9-0.27 2.37-0.75 0.7-0.7 0.95-1.68 0.95-3.94zm-26.92-10.68v13.74h-2.28v1.63h12.62v-5.3h-1.72v3.67h-6.9v-6.42h5.11v-1.56h-5.11v-5.76h6.77v3.36h1.72v-4.99h-12.49v1.63h2.28zm-15.55 0h4.7c1.04 0 1.49 0.12 1.95 0.61 0.63 0.63 1.05 2.01 1.05 6.29 0 4.22-0.42 5.61-1.05 6.24-0.44 0.48-0.91 0.6-1.95 0.6h-4.7v-13.74zm4.81-1.63h-8.81v1.63h2.28v13.74h-2.28v1.63h8.81c1.66 0 2.52-0.31 3.24-1.04 0.92-1 1.5-2.89 1.5-7.46 0-4.56-0.58-6.46-1.5-7.45-0.72-0.73-1.58-1.05-3.24-1.05z"/>
   <path id="Shape" stroke="#A7C600" d="m145 138h309.54"/>
   <path id="Shape" stroke="#A7C600" d="m145 168h309.54"/>
  </g>
 </g>
</svg>
