<?xml version="1.0" standalone="no"?>
<!DOCTYPE svg PUBLIC "-//W3C//DTD SVG 20010904//EN"
 "http://www.w3.org/TR/2001/REC-SVG-20010904/DTD/svg10.dtd">
<svg version="1.0" xmlns="http://www.w3.org/2000/svg"
 width="1024.000000pt" height="1024.000000pt" viewBox="0 0 1024.000000 1024.000000"
 preserveAspectRatio="xMidYMid meet">
<metadata>
Created by potrace 1.11, written by Peter Selinger 2001-2013
</metadata>
<g transform="translate(0.000000,1024.000000) scale(0.100000,-0.100000)"
fill="#000000" stroke="none">
<path d="M0 5120 l0 -5120 5120 0 5120 0 0 5120 0 5120 -5120 0 -5120 0 0
-5120z m8001 4668 c34 -126 142 -606 168 -743 88 -474 139 -969 161 -1565 6
-160 10 -1278 10 -2671 0 -1569 3 -2415 10 -2449 12 -64 33 -90 72 -90 16 0
76 15 133 34 58 19 105 32 105 31 0 -5 220 -908 225 -926 6 -17 -97 -65 -275
-130 -245 -89 -526 -107 -762 -50 -114 28 -266 107 -360 186 l-78 66 -122 -45
c-433 -156 -892 -233 -1233 -206 -373 30 -661 149 -881 366 -255 249 -395 571
-470 1074 -15 101 -18 233 -21 1072 -2 527 -7 958 -10 958 -3 0 -45 -24 -92
-54 -154 -96 -303 -167 -318 -152 -10 9 -112 1169 -104 1177 3 4 51 26 106 50
140 60 436 212 730 374 599 330 893 455 1223 517 100 19 152 23 352 23 203 0
254 -3 374 -24 115 -20 140 -21 147 -10 22 36 51 181 61 310 36 450 -126 1544
-319 2151 -19 61 -31 114 -26 119 9 9 296 173 631 361 218 122 531 287 544
288 4 0 12 -19 19 -42z m-5256 -2749 c33 -6 102 -31 154 -56 167 -80 297 -238
347 -423 11 -42 18 -102 18 -170 1 -185 -60 -328 -194 -462 -63 -62 -96 -85
-171 -121 -113 -54 -173 -68 -299 -68 -300 1 -551 195 -631 487 -18 65 -21 97
-17 194 7 184 63 313 189 439 161 162 361 221 604 180z m999 -2136 c26 -307
50 -575 53 -595 l5 -36 -83 -27 c-103 -32 -362 -100 -446 -116 l-63 -12 0
-1668 0 -1669 -610 0 -610 0 -2 1652 -3 1653 -82 7 c-45 4 -122 14 -170 22
-101 19 -337 92 -351 109 -10 12 99 1152 111 1164 3 2 45 -6 94 -20 614 -175
1219 -176 1818 -2 82 24 179 55 215 69 36 14 67 25 70 26 3 0 27 -251 54 -557z"/>
<path d="M6529 5450 c-129 -15 -305 -68 -501 -150 l-78 -32 -2 -861 c-5 -1414
-4 -1564 11 -1656 41 -269 125 -351 377 -368 156 -10 371 39 654 150 l85 33 0
1240 c0 1309 -1 1328 -46 1449 -61 162 -226 227 -500 195z"/>
</g>
</svg>
