<?xml version="1.0" standalone="no"?>
<!DOCTYPE svg PUBLIC "-//W3C//DTD SVG 20010904//EN"
 "http://www.w3.org/TR/2001/REC-SVG-20010904/DTD/svg10.dtd">
<svg version="1.0" xmlns="http://www.w3.org/2000/svg"
 width="1024.000000pt" height="1024.000000pt" viewBox="0 0 1024.000000 1024.000000"
 preserveAspectRatio="xMidYMid meet">
<metadata>
Created by potrace 1.11, written by Peter Selinger 2001-2013
</metadata>
<g transform="translate(0.000000,1024.000000) scale(0.100000,-0.100000)"
fill="#000000" stroke="none">
<path d="M4965 9129 c-337 -19 -673 -144 -947 -351 -376 -284 -619 -692 -692
-1164 -21 -133 -21 -385 0 -518 91 -584 445 -1070 974 -1336 364 -183 808
-230 1215 -129 443 111 837 404 1088 809 183 296 275 684 247 1043 -34 444
-214 833 -531 1144 -364 357 -835 532 -1354 502z m903 -544 c208 -49 385 -224
438 -435 22 -88 15 -251 -16 -337 -58 -166 -207 -312 -370 -364 -91 -29 -236
-36 -320 -15 -212 53 -373 208 -436 421 -24 81 -24 230 0 310 49 165 161 301
309 377 105 53 274 71 395 43z"/>
<path d="M1694 7105 c-29 -44 -33 -101 -33 -450 -1 -495 12 -617 84 -772 27
-58 57 -98 157 -203 365 -388 516 -565 496 -586 -14 -14 -93 11 -234 73 -82
36 -160 66 -174 67 -25 1 -25 0 -23 -74 5 -190 86 -441 214 -663 73 -126 210
-335 283 -432 147 -196 464 -540 849 -923 241 -241 256 -253 288 -250 24 2 37
10 46 28 10 20 13 311 13 1376 0 1509 5 1400 -73 1516 -40 60 -78 88 -921 690
-796 569 -882 628 -917 628 -30 0 -42 -6 -55 -25z"/>
<path d="M7466 6503 c-948 -677 -934 -665 -976 -787 -20 -54 -20 -89 -20
-1413 0 -1071 3 -1363 13 -1383 9 -18 22 -26 46 -28 31 -3 46 10 268 230 376
373 713 739 860 933 89 119 243 356 308 474 119 220 181 412 200 628 6 62 5
74 -9 79 -9 3 -75 -20 -154 -54 -204 -90 -272 -109 -272 -78 0 32 168 227 470
548 80 84 157 176 172 203 15 28 39 91 53 140 34 119 48 356 43 760 -3 281 -4
302 -23 335 -18 30 -27 35 -61 38 -39 3 -72 -20 -918 -625z"/>
<path d="M6030 5564 c-19 -8 -461 -258 -982 -556 -654 -373 -960 -553 -988
-580 -22 -22 -54 -70 -72 -106 l-33 -67 -3 -590 c-3 -592 -1 -675 21 -675 6 0
63 21 125 46 120 48 192 65 192 45 0 -23 -51 -90 -179 -234 -72 -82 -137 -158
-143 -170 -10 -17 -14 -146 -16 -527 -2 -278 0 -525 3 -549 5 -30 16 -54 36
-74 26 -25 35 -29 69 -24 56 7 1948 1086 2007 1144 23 23 54 65 70 95 l28 53
0 560 c0 525 -1 560 -18 563 -9 2 -61 -15 -116 -37 -54 -22 -117 -43 -139 -47
-75 -12 -64 7 157 260 l121 140 0 633 c0 698 2 680 -61 702 -39 13 -36 14 -79
-5z"/>
<path d="M5130 1897 c-256 -144 -477 -271 -492 -280 -41 -28 -63 -82 -49 -126
14 -48 46 -77 231 -206 224 -158 315 -188 379 -127 19 18 100 176 244 477 118
248 217 461 220 473 9 37 -2 52 -37 52 -23 0 -158 -72 -496 -263z"/>
</g>
</svg>
