<?xml version="1.0" standalone="no"?>
<!DOCTYPE svg PUBLIC "-//W3C//DTD SVG 20010904//EN"
 "http://www.w3.org/TR/2001/REC-SVG-20010904/DTD/svg10.dtd">
<svg version="1.0" xmlns="http://www.w3.org/2000/svg"
 width="700.000000pt" height="700.000000pt" viewBox="0 0 700.000000 700.000000"
 preserveAspectRatio="xMidYMid meet">
<metadata>
Created by potrace 1.11, written by Peter Selinger 2001-2013
</metadata>
<g transform="translate(0.000000,700.000000) scale(0.100000,-0.100000)"
fill="#000000" stroke="none">
<path d="M3487 6044 c-1 -1 -34 -4 -72 -7 -120 -10 -246 -45 -375 -104 -151
-68 -350 -238 -437 -373 -24 -36 -46 -69 -50 -75 -44 -57 -117 -256 -138 -375
-23 -135 -20 -318 7 -425 5 -22 12 -49 14 -59 7 -39 38 -123 70 -193 103 -226
306 -430 534 -539 338 -161 748 -142 1063 49 239 144 417 370 500 633 60 189
67 416 21 604 -53 211 -151 381 -307 535 -188 185 -416 295 -662 320 -66 7
-164 12 -168 9z m228 -605 c295 -107 447 -441 331 -729 -112 -281 -416 -420
-708 -324 -143 47 -282 187 -338 340 -28 75 -38 230 -20 305 76 329 422 521
735 408z"/>
<path d="M1004 4749 c-18 -20 -19 -39 -19 -298 1 -443 4 -450 285 -701 207
-185 303 -294 243 -276 -10 3 -31 8 -48 12 -16 4 -79 25 -138 47 -86 32 -111
37 -117 27 -4 -7 -7 -18 -5 -24 2 -6 6 -30 9 -53 21 -166 94 -312 277 -548
108 -141 330 -360 594 -587 250 -216 315 -267 343 -273 48 -9 47 -28 47 899
l-1 871 -22 40 c-27 51 -39 64 -82 96 -31 23 -220 139 -316 194 -19 11 -148
89 -287 174 -626 382 -692 421 -718 421 -14 0 -34 -9 -45 -21z"/>
<path d="M5925 4738 c-51 -32 -431 -263 -605 -368 -119 -72 -538 -326 -606
-368 -59 -37 -93 -73 -118 -127 -18 -37 -19 -80 -19 -895 0 -470 3 -865 7
-877 13 -42 43 -38 109 13 34 27 64 51 67 54 3 3 34 30 70 60 36 30 67 57 70
60 3 3 34 30 70 60 36 30 70 60 76 65 6 6 55 50 110 99 117 106 374 364 374
376 0 5 6 15 13 22 31 31 131 171 176 247 74 123 126 276 126 371 0 45 -4 45
-174 -15 -193 -67 -195 -56 -22 109 117 112 152 144 311 286 25 22 68 100 86
156 13 39 17 107 21 327 3 153 2 293 -1 312 -14 72 -61 83 -141 33z"/>
<path d="M4230 3767 c-14 -6 -140 -67 -280 -135 -140 -69 -300 -146 -355 -172
-55 -26 -190 -92 -300 -145 -110 -53 -264 -128 -341 -165 -154 -74 -204 -111
-236 -174 -21 -40 -22 -53 -22 -433 0 -215 3 -395 6 -399 4 -3 47 6 95 21 48
16 93 29 98 31 6 1 15 3 20 4 57 13 38 -17 -100 -153 -93 -92 -115 -119 -116
-142 -5 -188 -2 -642 4 -665 9 -36 45 -53 85 -43 15 3 101 42 192 86 371 179
507 245 1004 486 126 61 231 111 234 111 17 0 96 78 114 113 22 41 22 53 23
379 1 186 -2 343 -6 350 -6 10 -27 6 -91 -14 -98 -32 -148 -42 -148 -29 0 5
55 65 123 133 l123 123 -1 390 c-1 215 -3 398 -4 407 -3 43 -65 61 -121 35z"/>
<path d="M3920 1607 c-14 -6 -95 -45 -180 -85 -85 -41 -182 -87 -215 -102
-167 -77 -331 -162 -342 -177 -20 -26 -15 -68 8 -89 24 -21 166 -109 250 -153
82 -43 155 -55 187 -28 12 9 50 72 114 187 14 25 67 119 118 208 50 90 98 179
106 198 13 30 12 34 -4 42 -10 6 -26 5 -42 -1z"/>
</g>
</svg>
