<?xml version="1.0" standalone="no"?>
<!DOCTYPE svg PUBLIC "-//W3C//DTD SVG 20010904//EN"
 "http://www.w3.org/TR/2001/REC-SVG-20010904/DTD/svg10.dtd">
<svg version="1.0" xmlns="http://www.w3.org/2000/svg"
 width="1500.000000pt" height="1500.000000pt" viewBox="0 0 1500.000000 1500.000000"
 preserveAspectRatio="xMidYMid meet">
<metadata>
Created by potrace 1.11, written by Peter Selinger 2001-2013
</metadata>
<g transform="translate(0.000000,1500.000000) scale(0.100000,-0.100000)"
fill="#000000" stroke="none">
<path d="M7285 12940 c-305 -31 -648 -138 -917 -287 -220 -121 -376 -239 -558
-422 -386 -387 -623 -880 -686 -1427 -22 -185 -15 -498 15 -669 86 -498 303
-927 650 -1287 399 -414 925 -671 1495 -728 150 -16 474 -8 616 15 130 21 304
65 435 111 138 49 400 179 520 259 884 590 1282 1653 1001 2675 -180 657 -654
1225 -1271 1525 -229 111 -456 182 -705 220 -125 19 -466 28 -595 15z m390
-1220 c534 -74 952 -480 1035 -1005 16 -100 14 -295 -5 -399 -88 -494 -490
-890 -985 -971 -580 -94 -1143 246 -1330 803 -118 353 -66 734 147 1060 52 80
234 259 320 316 248 162 546 234 818 196z"/>
<path d="M2132 10191 c-16 -17 -34 -50 -41 -75 -7 -31 -11 -216 -11 -587 0
-439 3 -561 16 -647 25 -172 84 -332 162 -438 17 -23 164 -162 328 -310 314
-283 640 -600 663 -647 23 -44 5 -53 -76 -38 -73 14 -357 112 -486 167 -131
56 -142 49 -127 -88 40 -386 203 -725 589 -1223 203 -263 343 -413 666 -714
492 -459 1241 -1101 1323 -1134 37 -15 47 -15 76 -3 19 8 37 25 44 42 9 22 12
473 10 1889 l-3 1860 -37 77 c-74 155 -11 113 -1488 1009 -729 442 -1359 823
-1400 846 -61 36 -84 43 -126 43 -45 0 -57 -4 -82 -29z"/>
<path d="M12755 10203 c-16 -8 -646 -390 -1400 -847 -1524 -924 -1456 -878
-1532 -1033 l-38 -78 -3 -1858 c-2 -2051 -7 -1913 59 -1936 57 -20 82 -5 284
163 768 641 1393 1219 1635 1511 470 566 681 962 731 1372 20 167 10 177 -126
119 -136 -57 -417 -153 -488 -167 -130 -25 -113 14 100 226 132 132 449 425
676 625 145 128 195 200 255 371 57 161 62 235 65 854 2 522 1 563 -16 607
-25 65 -57 88 -121 88 -28 -1 -64 -8 -81 -17z"/>
<path d="M9105 8098 c-44 -9 -3049 -1462 -3130 -1513 -70 -44 -149 -134 -187
-213 l-32 -67 -9 -425 c-11 -590 -2 -1269 18 -1289 13 -13 22 -12 77 8 280
104 448 144 448 108 0 -8 -17 -37 -39 -64 -36 -46 -248 -257 -395 -394 -114
-107 -106 -34 -106 -862 0 -699 1 -719 20 -757 11 -22 34 -47 52 -56 41 -21
121 -21 169 0 21 8 720 347 1555 751 1069 518 1535 749 1574 779 64 51 129
141 159 220 21 56 21 69 21 776 0 395 -3 725 -6 734 -10 26 -49 19 -204 -34
-155 -53 -273 -82 -296 -73 -8 3 -14 12 -14 21 0 8 117 133 260 277 l260 262
0 852 c0 924 1 900 -55 937 -35 23 -92 32 -140 22z"/>
<path d="M8365 3442 c-69 -25 -1470 -699 -1520 -731 -61 -41 -88 -86 -82 -143
2 -30 13 -59 29 -80 27 -35 478 -315 603 -374 185 -88 322 -83 387 12 57 85
693 1221 702 1256 8 31 7 40 -9 58 -22 24 -45 25 -110 2z"/>
</g>
</svg>
