<?xml version="1.0" encoding="utf-8"?>
<!-- Generator: Adobe Illustrator 19.0.0, SVG Export Plug-In . SVG Version: 6.00 Build 0)  -->
<svg version="1.1" id="Layer_1" xmlns="http://www.w3.org/2000/svg" xmlns:xlink="http://www.w3.org/1999/xlink" x="0px" y="0px"
	 viewBox="0 0 1386 1980" enable-background="new 0 0 1386 1980" xml:space="preserve">
<g>
	<defs>
		<rect id="SVGID_1_" x="0.1" y="0" width="1384.5" height="1977.9"/>
	</defs>
	<clipPath id="SVGID_2_">
		<use xlink:href="#SVGID_1_"  overflow="visible"/>
	</clipPath>
	<polygon clip-path="url(#SVGID_2_)" fill="#ED1C24" points="-24.5,2272.2 458.1,1724.1 458.1,1069.8 -24.5,1645.4 	"/>
	<polygon clip-path="url(#SVGID_2_)" fill="#0054A6" points="1394.6,2272.2 912,1724.1 912,1043.8 1394.6,1645.4 	"/>
	<polygon clip-path="url(#SVGID_2_)" fill="#FFFFFF" points="51.9,1983.9 79.1,1933.7 0,1895.9 78.6,1850.4 30.6,1808.3 177.9,1799 
		3.1,1691 84.5,1653.2 37.2,1540.9 151.9,1582 185.2,1498.6 302.6,1667.3 303.8,1519.7 348.4,1565.4 389.6,1484.4 431.7,1561.3 
		480.3,1531.4 457.7,1719.5 506.5,1728.5 368.2,1844.3 422.7,1884.2 401,1907 358.2,1854.9 250.2,1999.3 238.5,1951 	"/>
	<polygon clip-path="url(#SVGID_2_)" fill="#FFFFFF" points="721,1798.7 996.1,1873 1010.4,2157.5 1166,1918.9 1441.1,1993.2 
		1262.3,1771.4 1417.9,1532.8 1151.7,1634.4 972.9,1412.6 987.2,1697.1 	"/>
	<polygon clip-path="url(#SVGID_2_)" fill="#231F20" points="-15.7,-10.8 692.9,475.9 1403.6,-10.8 1401.9,278.3 692.9,750.3 
		-16.6,278.3 	"/>
	<polygon clip-path="url(#SVGID_2_)" fill="#FFC20E" points="691.9,967.9 -18.1,493.3 -17.4,780.7 487.7,1176.8 691.9,1048.5 
		898.4,1176.8 1401.2,780.7 1401.9,493.3 	"/>
	<polygon clip-path="url(#SVGID_2_)" fill="#ED1C24" points="-20.7,245 690.4,770.2 1407.2,245 1407.2,508.4 690.4,999.5 -20,508.4 
			"/>
	<polygon clip-path="url(#SVGID_2_)" fill="#FFFFFF" points="1292.2,686.9 1293,686.5 1186.4,660.1 1233.1,502.9 1071.4,554.9 
		1073.1,435.5 875.8,628.5 944.7,250.4 790.2,316.1 693.7,110 693.7,110 693.7,110 693.7,110 693.7,110 597.1,316.1 442.6,250.4 
		511.6,628.5 314.2,435.5 315.9,554.9 154.2,502.9 200.9,660.1 93,686.6 463.7,955.9 322.1,1391.8 692.8,1122.4 1063.6,1391.8 
		922,955.9 	"/>
	<g clip-path="url(#SVGID_2_)">
		<g>
			<polygon fill="#231F20" points="743.3,899.2 713.6,886 695.4,904.3 676.8,885.5 645.3,899 662.8,913.5 727.3,913.5 			"/>
			<rect x="662.8" y="922.9" fill="#ED1C24" width="64.5" height="9.6"/>
			<rect x="662.8" y="942.2" fill="#ED1C24" width="64.5" height="9.6"/>
			<rect x="662.8" y="962.1" fill="#ED1C24" width="64.5" height="9.6"/>
			<rect x="662.8" y="981.8" fill="#ED1C24" width="64.5" height="9.6"/>
			<polygon fill="#FFC20E" points="673,1001 673,1026.1 679.1,1026.1 679,1039.6 708.8,1028.2 708.8,1026.1 715.8,1026.1 
				715.9,1001 			"/>
			<polygon fill="#FFC20E" points="708.7,1032.8 679,1044.2 678.9,1060.6 708.7,1049.2 			"/>
			<polygon fill="#FFC20E" points="708.6,1074.9 678.8,1086.3 678.8,1132.5 693.6,1121.9 708.5,1133.2 			"/>
			<polygon fill="#FFC20E" points="708.6,1053.9 678.9,1065.2 678.9,1081.6 708.6,1070.3 			"/>
		</g>
		<g>
			<g>
				<path fill="#231F20" d="M641.6,811.2v4.6l-36.9,8v-4.9l29.7-5.3l-29.7-5.4v-4.9L641.6,811.2z M629.1,800.4
					c4.2,0,6.7-0.2,7.9-1.1c0.6-0.5,1.1-1.2,1.1-2.3c0-1-0.4-1.8-1-2.4c-0.7-0.6-1.8-0.9-3.1-0.9v-4.1c2.4,0.1,4.4,0.7,5.9,2.1
					c1.4,1.3,2,3.2,2,5.3c0,2.3-0.6,3.9-2.1,5.3c-2.1,2.1-6.1,2.4-11.8,2.4c-5.6,0-9.6-0.3-11.8-2.3c-1.5-1.4-2.1-3.2-2.1-5.3
					c0-2.2,0.6-3.9,2.1-5.3c2.4-2.2,7-2.3,12.7-2.3V800.4z M619.2,794.6c-0.6,0.5-1.1,1.3-1.1,2.4c0,1.1,0.5,1.8,1.1,2.3
					c1,0.8,3.2,1.1,6.8,1.1v-6.8C622.3,793.5,620.2,793.8,619.2,794.6z M641.6,775.4h-19.7c-2.5,0-3.7,1.4-3.7,3.2
					c0,1.8,1.2,3.2,3.7,3.2h19.7v4.2h-26.8v-4h2.1c-0.6-0.4-1.3-1.1-1.7-1.7c-0.5-0.8-0.8-1.8-0.8-2.9c0-2,0.7-3.4,2-4.6
					c1.2-1.1,2.6-1.6,5.5-1.6h19.7V775.4z M629.1,763.8c4.2,0,6.7-0.2,7.9-1.1c0.6-0.5,1.1-1.2,1.1-2.3c0-1-0.4-1.8-1-2.4
					c-0.7-0.6-1.8-0.9-3.1-0.9v-4.1c2.4,0.1,4.4,0.7,5.9,2.1c1.4,1.3,2,3.2,2,5.3c0,2.3-0.6,3.9-2.1,5.3c-2.1,2.1-6.1,2.4-11.8,2.4
					c-5.6,0-9.6-0.3-11.8-2.3c-1.5-1.4-2.1-3.2-2.1-5.3c0-2.2,0.6-3.9,2.1-5.3c2.4-2.2,7-2.3,12.7-2.3V763.8z M619.2,758
					c-0.6,0.5-1.1,1.3-1.1,2.4c0,1.1,0.5,1.8,1.1,2.3c1,0.8,3.2,1.1,6.8,1.1v-6.8C622.3,756.9,620.2,757.1,619.2,758z M641.6,751.3
					h-3.2l-19.9-8.4v7.9h-3.7v-12.5h3.2l19.8,8.4v-8.4h3.8V751.3z M641.6,714.6h-2.4c0.7,0.4,1.4,1,1.8,1.6c0.6,0.8,1,1.8,1,3.2
					c0,2-0.6,3.4-2,4.6c-1.2,1.1-3.2,1.7-6,1.7c-2.5,0-4.7-0.8-6.1-2.4c-1.2-1.3-1.8-2.9-1.8-5.7v-2.7h-4.2c-2.5,0-3.8,1.1-3.8,3.2
					c0,0.9,0.4,1.6,0.9,2.1c0.8,0.7,1.7,1,3.1,1v4.2c-2.1,0-4.1-0.5-5.7-2.1c-1.2-1.2-2-3.1-2-5.2c0-2.1,0.6-4,1.9-5.2
					c1.3-1.3,3.2-2.1,5.9-2.1h19.5V714.6z M611.2,719l-7,4.2v-3.8l7-3.6V719z M629.1,714.8v2.4c0,1.3,0.2,2.2,1,3
					c0.7,0.8,2.2,1.2,3.7,1.2c2.8,0,4.5-1,4.5-3.3c0-2-1.7-3.4-4.2-3.4H629.1z M639.9,694.6c-1.2,1.5-3.1,2.4-6,2.4h-29.2v-4.2h29.1
					c2.6,0,4-1.2,4-4h3.8C641.6,691.1,641.3,693,639.9,694.6z M641.6,676h-2.4c0.7,0.4,1.4,1,1.8,1.6c0.6,0.8,1,1.7,1,3.2
					c0,2-0.6,3.4-2,4.6c-1.2,1-3.2,1.7-6,1.7c-2.5,0-4.7-0.8-6.1-2.4c-1.2-1.3-1.8-2.9-1.8-5.7v-2.7h-4.2c-2.5,0-3.8,1.1-3.8,3.2
					c0,0.9,0.4,1.6,0.9,2.1c0.8,0.7,1.7,1,3.1,1v4.2c-2.1,0-4.1-0.5-5.7-2.1c-1.2-1.2-2-3.1-2-5.2c0-2.2,0.6-4,1.9-5.2
					c1.3-1.3,3.2-2.1,5.9-2.1h19.5V676z M629.1,676.2v2.4c0,1.3,0.2,2.2,1,3c0.7,0.8,2.2,1.2,3.7,1.2c2.8,0,4.5-1.1,4.5-3.3
					c0-2-1.7-3.4-4.2-3.4H629.1z"/>
				<path fill="#231F20" d="M609.2,639.2h34.2v8.3h-34.2v7h-7.5v-22.3h7.5V639.2z M630.1,627.5c2.1,0,4.6-0.1,5.4-0.6
					c0.7-0.4,1.2-1.1,1.2-2c0-1-0.5-1.5-1.2-2c-0.4-0.2-1.5-0.4-1.9-0.4v-7.8c2.5,0.2,5.3,0.9,7.5,2.8c1.9,1.8,2.7,4.4,2.7,7.4
					c0,3.2-0.6,5.1-2.7,7.4c-2.9,3-8.7,3.1-13.5,3.1c-4.7,0-10.6-0.1-13.5-3.1c-2.2-2.2-2.7-4.7-2.7-7.4c0-2.7,0.5-5.1,2.7-7.3
					c3.7-3.5,11-3,16-3.1V627.5z M619.6,622.8c-0.6,0.5-1.2,1.1-1.2,2c0,1,0.5,1.6,1.2,2c0.6,0.4,2.7,0.6,4.9,0.6v-5.2
					C622.3,622.3,620.2,622.4,619.6,622.8z M619.1,598.1c0,2.6,1.9,4.9,5,4.9h19.2v7.8h-31.5v-7.5h3.4c-1.1-0.9-2.1-2-2.8-3.5
					c-0.6-1.3-1.1-2.9-1.1-4.6h7.7V598.1z M619.1,580c0,2.6,1.9,4.9,5,4.9h19.2v7.8h-31.5v-7.5h3.4c-1.1-0.9-2.1-2-2.8-3.5
					c-0.6-1.3-1.1-2.9-1.1-4.6h7.7V580z M630.1,568.2c2.1,0,4.6-0.1,5.4-0.6c0.7-0.4,1.2-1.1,1.2-2c0-1-0.5-1.5-1.2-2
					c-0.4-0.2-1.5-0.4-1.9-0.4v-7.8c2.5,0.2,5.3,0.9,7.5,2.8c1.9,1.8,2.7,4.4,2.7,7.4c0,3.2-0.6,5.1-2.7,7.4
					c-2.9,3-8.7,3.1-13.5,3.1c-4.7,0-10.6-0.1-13.5-3.1c-2.2-2.2-2.7-4.7-2.7-7.4c0-2.8,0.5-5.1,2.7-7.3c3.7-3.5,11-3,16-3.1V568.2z
					 M619.6,563.5c-0.6,0.5-1.2,1.1-1.2,2c0,1,0.5,1.6,1.2,2c0.6,0.4,2.7,0.6,4.9,0.6V563C622.3,563,620.2,563.1,619.6,563.5z
					 M643.3,528.6h-2.3c0.6,0.4,1.6,1.6,2,2.3c0.5,0.9,0.8,2,0.8,3c0,2.6-0.6,4.3-2.6,5.9c-2.7,2.2-7.4,2.2-13.6,2.2
					c-6.3,0-10.9,0-13.6-2.2c-1.9-1.5-2.6-3.3-2.6-5.9c0-1,0.3-2.1,0.8-3c0.4-0.7,0.9-1.3,1.6-1.9h-12.1v-7.8h41.7V528.6z
					 M621.3,528.9c-1,0-1.8,0.3-2.2,0.8c-0.4,0.5-0.6,1.1-0.6,1.7c0,0.8,0.4,1.6,1.2,2c1.3,0.6,4.4,0.6,8,0.6c3.6,0,6.7,0,8-0.6
					c0.9-0.4,1.2-1.3,1.2-2c0-0.6-0.2-1.2-0.6-1.7c-0.5-0.5-1.2-0.8-2.2-0.8H621.3z M630.1,511.1c2.1,0,4.6-0.1,5.4-0.6
					c0.7-0.4,1.2-1.1,1.2-2c0-1-0.5-1.5-1.2-2c-0.4-0.2-1.5-0.4-1.9-0.4v-7.8c2.5,0.2,5.3,0.9,7.5,2.8c1.9,1.8,2.7,4.4,2.7,7.4
					c0,3.2-0.6,5.1-2.7,7.4c-2.9,3-8.7,3.1-13.5,3.1c-4.7,0-10.6-0.1-13.5-3.1c-2.2-2.2-2.7-4.7-2.7-7.4c0-2.7,0.5-5.1,2.7-7.3
					c3.7-3.5,11-3,16-3.1V511.1z M619.6,506.4c-0.6,0.5-1.2,1.1-1.2,2c0,1,0.5,1.6,1.2,2c0.6,0.4,2.7,0.6,4.9,0.6v-5.2
					C622.3,505.9,620.2,506,619.6,506.4z M641.2,478.7c2,2,2.6,4.6,2.6,7.4c0,2.8-0.9,5.7-2.7,7.5c-1.9,1.8-4,2.9-7.2,3v-7.7
					c0.9-0.1,1.6-0.4,2-0.8c0.5-0.5,0.8-1.2,0.8-1.9c0-0.8-0.1-1.3-0.6-1.9c-0.4-0.4-1.1-0.6-1.8-0.6c-0.6,0-1.2,0.1-1.8,0.5
					c-0.6,0.5-1,1.2-1.3,2l-1.7,4.4c-0.9,2.2-2,3.9-3.6,4.9c-1.2,0.7-2.6,1.1-4.4,1.1c-3.4,0-5.4-1.1-7.3-2.9
					c-1.9-1.9-2.9-4.6-2.9-7.4c0-2.7,0.9-5.4,2.6-7.1c1.6-1.7,3.9-2.9,7.1-2.9v7.7c-0.8,0-1.5,0.2-2,0.6c-0.5,0.5-0.8,1.1-0.8,1.8
					c0,0.8,0.3,1.4,0.7,1.8c0.4,0.5,1,0.6,1.8,0.6c0.6,0,1-0.1,1.4-0.4c0.6-0.4,1.1-1.1,1.4-2l1.6-4.3c0.8-2.2,1.9-3.7,3.3-4.7
					c1.1-0.8,2.8-1.4,5.1-1.4C637.1,475.8,639.5,477.1,641.2,478.7z M609.7,461.8h-8.3v-8.3h8.3V461.8z M643.3,461.6h-30.2v-7.8
					h30.2V461.6z M643.3,436h-2.3c0.6,0.4,1.6,1.6,2,2.3c0.5,0.9,0.8,2,0.8,3c0,2.6-0.6,4.3-2.6,5.9c-2.7,2.2-7.4,2.2-13.6,2.2
					c-6.3,0-10.9,0-13.6-2.2c-1.9-1.5-2.6-3.3-2.6-5.9c0-1,0.3-2.1,0.8-3c0.4-0.7,0.9-1.3,1.6-1.9h-12.1v-7.8h41.7V436z
					 M621.3,436.3c-1,0-1.8,0.3-2.2,0.8c-0.4,0.5-0.6,1.1-0.6,1.7c0,0.8,0.4,1.6,1.2,2c1.3,0.6,4.4,0.6,8,0.6c3.6,0,6.7,0,8-0.6
					c0.9-0.4,1.2-1.3,1.2-2c0-0.6-0.2-1.2-0.6-1.7c-0.5-0.5-1.2-0.8-2.2-0.8H621.3z M630.1,418.5c2.1,0,4.6-0.1,5.4-0.6
					c0.7-0.4,1.2-1.1,1.2-2c0-1-0.5-1.5-1.2-2c-0.4-0.2-1.5-0.4-1.9-0.4v-7.8c2.5,0.2,5.3,0.9,7.5,2.8c1.9,1.8,2.7,4.4,2.7,7.4
					c0,3.2-0.6,5.1-2.7,7.4c-2.9,3-8.7,3.1-13.5,3.1c-4.7,0-10.6-0.1-13.5-3.1c-2.2-2.2-2.7-4.7-2.7-7.4c0-2.8,0.5-5.1,2.7-7.3
					c3.7-3.5,11-3,16-3.1V418.5z M609,413.9v5.1l-8.5-4.4v-6.3L609,413.9z M619.6,413.8c-0.6,0.5-1.2,1.1-1.2,2c0,1,0.5,1.6,1.2,2
					c0.6,0.4,2.7,0.6,4.9,0.6v-5.2C622.3,413.3,620.2,413.4,619.6,413.8z M630.1,395.1c2.1,0,4.6-0.1,5.4-0.6c0.7-0.4,1.2-1.1,1.2-2
					c0-1-0.5-1.5-1.2-2c-0.4-0.2-1.5-0.4-1.9-0.4v-7.8c2.5,0.2,5.3,0.9,7.5,2.8c1.9,1.8,2.7,4.4,2.7,7.4c0,3.2-0.6,5.1-2.7,7.4
					c-2.9,3-8.7,3.1-13.5,3.1c-4.7,0-10.6-0.1-13.5-3.1c-2.2-2.2-2.7-4.7-2.7-7.4c0-2.7,0.5-5.1,2.7-7.3c3.7-3.5,11-3,16-3.1V395.1z
					 M619.6,390.5c-0.6,0.5-1.2,1.1-1.2,2c0,1,0.5,1.6,1.2,2c0.6,0.4,2.7,0.6,4.9,0.6v-5.2C622.3,389.9,620.2,390.1,619.6,390.5z
					 M641.2,361.6c2,2,2.6,4.6,2.6,7.4c0,2.8-0.9,5.7-2.7,7.5c-1.9,1.8-4,2.9-7.2,3v-7.7c0.9-0.1,1.6-0.3,2-0.8
					c0.5-0.5,0.8-1.2,0.8-1.9c0-0.8-0.1-1.3-0.6-1.9c-0.4-0.4-1.1-0.6-1.8-0.6c-0.6,0-1.2,0.1-1.8,0.5c-0.6,0.5-1,1.2-1.3,2
					l-1.7,4.4c-0.9,2.2-2,3.9-3.6,4.9c-1.2,0.7-2.6,1.1-4.4,1.1c-3.4,0-5.4-1.1-7.3-2.9c-1.9-1.9-2.9-4.6-2.9-7.4
					c0-2.7,0.9-5.4,2.6-7.1c1.6-1.7,3.9-2.9,7.1-2.9v7.7c-0.8,0-1.5,0.2-2,0.6c-0.5,0.5-0.8,1.1-0.8,1.8c0,0.8,0.3,1.4,0.7,1.8
					c0.4,0.5,1,0.6,1.8,0.6c0.6,0,1-0.1,1.4-0.4c0.6-0.4,1.1-1.1,1.4-2l1.6-4.3c0.8-2.2,1.9-3.7,3.3-4.7c1.1-0.8,2.8-1.4,5.1-1.4
					C637.1,358.6,639.5,360,641.2,361.6z"/>
			</g>
			<g>
				<path fill="#231F20" d="M713.1,809.6c0,3.4-1.2,5.6-3,7.2c-3.2,2.9-8,3.1-18.6,3.1c-10.6,0-15.4-0.2-18.6-3.1
					c-1.8-1.6-3-3.9-3-7.2c0-3,1-5.2,2.6-6.8c2-2,4.9-2.9,8.4-3v5.1c-2.8,0-6.4,0.8-6.4,4.7c0,1.7,0.7,2.7,1.6,3.4
					c2,1.5,5.4,1.8,15.4,1.8c10,0,13.4-0.3,15.4-1.8c0.9-0.7,1.6-1.8,1.6-3.4c0-3-2.4-4.7-5.9-4.7h-8.4v4.7H690v-9.8h12.5
					C709.5,799.8,713.1,804.1,713.1,809.6z M698.4,791.6c4.9,0,7.7-0.2,9.1-1.3c0.7-0.6,1.3-1.4,1.3-2.7c0-1.1-0.4-2-1.2-2.7
					c-0.8-0.7-2.1-1.1-3.5-1.1v-4.7c2.7,0.1,5,0.8,6.8,2.4c1.6,1.5,2.3,3.7,2.3,6.1c0,2.7-0.7,4.4-2.4,6c-2.4,2.4-7,2.7-13.5,2.7
					c-6.5,0-11-0.3-13.5-2.7c-1.7-1.6-2.4-3.6-2.4-6c0-2.5,0.7-4.4,2.4-6c2.8-2.6,8-2.7,14.6-2.7V791.6z M687.1,785
					c-0.7,0.6-1.3,1.5-1.3,2.7c0,1.2,0.6,2.1,1.3,2.7c1.1,0.9,3.6,1.2,7.8,1.2v-7.8C690.7,783.8,688.2,784,687.1,785z M712.7,760.5
					l-14.5,5.9l5.3,3.3h9.2v4.8h-42.2v-4.8h26.1L682,761v-5.1l12,7.5l18.7-8.2V760.5z M710.3,739c2.1,1.5,2.8,3.8,2.8,6.5
					c0,2.7-0.8,4.9-2.8,6.5c-2.4,1.9-6.8,2.3-13,2.3c-6.2,0-10.6-0.4-13-2.3c-2.1-1.5-2.8-3.7-2.8-6.5c0-2.7,0.8-5,2.8-6.5
					c2.4-1.9,6.8-2.2,13-2.2C703.5,736.8,707.9,737.1,710.3,739z M687.1,742.8c-0.8,0.6-1.3,1.6-1.3,2.7c0,1.1,0.5,2.1,1.3,2.7
					c1.5,1.1,4.7,1.2,10.3,1.2c5.5,0,8.7-0.1,10.2-1.2c0.8-0.6,1.3-1.5,1.3-2.7c0-1.1-0.5-2.1-1.3-2.7c-1.5-1.1-4.7-1.2-10.2-1.2
					C691.8,741.6,688.6,741.6,687.1,742.8z M712.7,707.7h-22.6c-2.8,0-4.3,1.6-4.3,3.6c0,2,1.4,3.6,4.3,3.6h22.6v4.8h-22.6
					c-2.8,0-4.3,1.7-4.3,3.7c0,2,1.4,3.6,4.3,3.6h22.6v4.8H682v-4.6h2.4c-0.7-0.4-1.5-1.2-1.9-1.9c-0.6-0.9-0.9-2.1-0.9-3.3
					c0-2.4,1.3-4.6,3.2-5.9c-0.8-0.7-1.7-1.5-2.3-2.4c-0.6-0.9-0.9-2.4-0.9-3.5c0-2.7,0.8-4.2,2.3-5.5c1.4-1.2,3-1.8,6.3-1.8h22.6
					V707.7z M712.7,672.2h-22.6c-2.8,0-4.3,1.6-4.3,3.6c0,2,1.4,3.6,4.3,3.6h22.6v4.8h-22.6c-2.8,0-4.3,1.7-4.3,3.7
					c0,2,1.4,3.6,4.3,3.6h22.6v4.8H682v-4.6h2.4c-0.7-0.4-1.5-1.2-1.9-1.9c-0.6-0.9-0.9-2.1-0.9-3.3c0-2.4,1.3-4.6,3.2-5.9
					c-0.8-0.7-1.7-1.5-2.3-2.4c-0.6-0.9-0.9-2.4-0.9-3.5c0-2.7,0.8-4.2,2.3-5.5c1.4-1.2,3-1.8,6.3-1.8h22.6V672.2z M698.4,657
					c4.9,0,7.7-0.2,9.1-1.3c0.7-0.6,1.3-1.4,1.3-2.7c0-1.1-0.4-2-1.2-2.7c-0.8-0.7-2.1-1.1-3.5-1.1v-4.7c2.7,0.1,5,0.8,6.8,2.4
					c1.6,1.5,2.3,3.7,2.3,6.1c0,2.7-0.7,4.4-2.4,6c-2.4,2.4-7,2.7-13.5,2.7c-6.5,0-11-0.3-13.5-2.7c-1.7-1.6-2.4-3.6-2.4-6
					c0-2.5,0.7-4.4,2.4-6c2.8-2.5,8-2.7,14.6-2.7V657z M687.1,650.4c-0.7,0.6-1.3,1.5-1.3,2.7c0,1.2,0.6,2.1,1.3,2.7
					c1.1,0.9,3.6,1.2,7.8,1.2v-7.8C690.7,649.2,688.2,649.5,687.1,650.4z M712.7,626.7h-22.6c-2.8,0-4.3,1.7-4.3,3.7
					c0,2,1.4,3.6,4.3,3.6h22.6v4.8H682v-4.6h2.4c-0.7-0.4-1.5-1.2-1.9-1.9c-0.6-0.9-0.9-2.1-0.9-3.3c0-2.3,0.8-3.9,2.3-5.2
					c1.4-1.2,3-1.8,6.3-1.8h22.6V626.7z M712.7,606.2H709l-22.8-9.7v9H682v-14.3h3.7l22.7,9.7v-9.7h4.3V606.2z M712.7,574.4h-2.4
					c0.7,0.4,1.5,1.2,1.9,1.9c0.6,0.9,0.9,2.1,0.9,3.3c0,2.3-0.8,3.9-2.3,5.2c-1.4,1.2-3,1.8-6.3,1.8H682v-4.8h22.6
					c2.8,0,4.3-1.7,4.3-3.7c0-2-1.4-3.6-4.3-3.6H682v-4.8h30.7V574.4z M712.7,538.9h-22.6c-2.8,0-4.3,1.6-4.3,3.6
					c0,2,1.4,3.6,4.3,3.6h22.6v4.8h-22.6c-2.8,0-4.3,1.7-4.3,3.7c0,2,1.4,3.6,4.3,3.6h22.6v4.8H682v-4.6h2.4
					c-0.7-0.4-1.5-1.2-1.9-1.9c-0.6-0.9-0.9-2.1-0.9-3.3c0-2.4,1.3-4.6,3.2-5.9c-0.8-0.7-1.7-1.5-2.3-2.4c-0.6-0.9-0.9-2.4-0.9-3.5
					c0-2.7,0.8-4.2,2.3-5.5c1.4-1.2,3-1.8,6.3-1.8h22.6V538.9z"/>
				<path fill="#231F20" d="M714.9,503h-47.6v-9.5h39.1v-12.4h8.6V503z M714.9,462.3H712c0.9,0.7,1.7,1.4,2.3,2.3
					c0.7,1.1,1.1,2.1,1.1,3.9c0,3.3-0.9,5.4-3.3,7.3c-1.9,1.5-4.5,2.1-8,2.1c-3.3,0-6.1-1.2-8-3.5c-1.5-1.8-2.5-4.1-2.5-8.8v-2.7
					h-4.1c-2,0-3.1,1-3.1,2.7c0,0.9,0.3,1.5,0.9,1.9c0.7,0.5,1.5,0.8,2.5,0.8v9c-2.9,0-5.6-0.9-8-3.3c-1.8-1.8-3.2-5.2-3.2-8.4
					c0-3.1,0.8-6.2,2.9-8.3c2-2,4.9-3.4,9-3.4h24.6V462.3z M699.8,462.9v1.5c0,1.5,0,2.5,0.9,3.4c0.7,0.7,2.1,1.1,3.1,1.1
					c2.6,0,3.9-1.2,3.9-3.1c0-1.6-1.3-3-3.9-3H699.8z M714.9,433.3h-25.2c-2.2,0-3.3,1.2-3.3,2.8c0,1.6,1.1,2.8,3.3,2.8h25.2v9h-36
					v-8.6h2.6c-0.9-0.7-1.7-1.6-2.3-2.6c-0.5-1-0.9-2.3-0.9-3.4c0-3.3,0.9-5.2,3-7c1.7-1.4,3.7-2,8.2-2h25.4V433.3z M714.9,404.2
					h-2.6c0.7,0.4,1.8,1.8,2.3,2.6c0.5,1,0.9,2.3,0.9,3.4c0,2.9-0.7,5-2.9,6.7c-3.1,2.5-8.4,2.5-15.6,2.5c-7.2,0-12.5,0-15.6-2.5
					c-2.2-1.7-2.9-3.7-2.9-6.7c0-1.1,0.3-2.4,0.9-3.4c0.5-0.8,1.1-1.5,1.8-2.2h-13.8v-9h47.6V404.2z M689.7,404.6
					c-1.1,0-2,0.3-2.5,0.9c-0.5,0.5-0.7,1.3-0.7,1.9c0,0.9,0.4,1.9,1.4,2.3c1.5,0.7,5,0.7,9.1,0.7c4.1,0,7.6,0,9.1-0.7
					c1-0.5,1.4-1.5,1.4-2.3c0-0.7-0.3-1.4-0.7-1.9c-0.5-0.5-1.4-0.9-2.5-0.9H689.7z M714.9,362.2v9.5l-36,9.2V371l21.7-4l-21.7-4
					V353L714.9,362.2z M711.2,330.2c3.5,2.3,4.3,5.7,4.3,9.5c0,3.8-0.8,7.2-4.3,9.5c-3.4,2.3-9.4,2.5-14.3,2.5
					c-4.8,0-10.8-0.2-14.3-2.5c-3.5-2.3-4.3-5.7-4.3-9.5c0-3.8,0.8-7.2,4.3-9.5c3.4-2.3,9.4-2.5,14.3-2.5
					C701.7,327.8,707.7,328,711.2,330.2z M687.8,337.4c-1,0.5-1.4,1.5-1.4,2.3c0,0.9,0.4,1.9,1.4,2.3c1.5,0.7,5,0.7,9.1,0.7
					c4.1,0,7.6,0,9.1-0.7c1-0.5,1.4-1.5,1.4-2.3c0-0.9-0.4-1.9-1.4-2.3c-1.5-0.7-5-0.7-9.1-0.7C692.8,336.7,689.3,336.7,687.8,337.4
					z M714.9,308.7h-25.2c-2.2,0-3.3,1.2-3.3,2.8c0,1.6,1.1,2.8,3.3,2.8h25.2v9h-36v-8.6h2.6c-0.9-0.7-1.7-1.6-2.3-2.6
					c-0.5-1-0.9-2.3-0.9-3.4c0-3.3,0.9-5.2,3-7c1.7-1.4,3.7-2,8.2-2h25.4V308.7z M714.9,281.7h-47.6v-9.5h47.6V281.7z M714.9,251.3
					h-2.6c0.7,0.4,1.8,1.8,2.3,2.6c0.5,1,0.9,2.3,0.9,3.4c0,2.9-0.7,5-2.9,6.7c-3.1,2.5-8.4,2.5-15.6,2.5c-7.2,0-12.5,0-15.6-2.5
					c-2.2-1.7-2.9-3.7-2.9-6.7c0-1.1,0.3-2.4,0.9-3.4c0.5-0.8,1.1-1.5,1.8-2.2h-13.8v-9h47.6V251.3z M689.7,251.7
					c-1.1,0-2,0.3-2.5,0.9c-0.5,0.5-0.7,1.3-0.7,1.9c0,0.9,0.4,1.9,1.4,2.3c1.5,0.7,5,0.7,9.1,0.7c4.1,0,7.6,0,9.1-0.7
					c1-0.5,1.4-1.5,1.4-2.3c0-0.7-0.3-1.4-0.7-1.9c-0.5-0.5-1.4-0.9-2.5-0.9H689.7z M699.8,231.6c2.4,0,5.2-0.1,6.2-0.7
					c0.8-0.5,1.4-1.2,1.4-2.3c0-1.1-0.5-1.7-1.4-2.3c-0.5-0.3-1.7-0.5-2.2-0.5v-8.9c2.8,0.2,6.1,1,8.6,3.2c2.2,2,3.1,5,3.1,8.5
					c0,3.6-0.7,5.9-3.1,8.4c-3.3,3.5-10,3.5-15.4,3.5c-5.4,0-12.1-0.1-15.5-3.5c-2.5-2.5-3.1-5.4-3.1-8.4c0-3.1,0.5-5.9,3.1-8.4
					c4.2-4,12.6-3.5,18.3-3.5V231.6z M687.7,226.2c-0.7,0.5-1.3,1.2-1.3,2.3c0,1.1,0.6,1.8,1.3,2.3c0.7,0.5,3.1,0.7,5.6,0.7v-6
					C690.9,225.6,688.5,225.8,687.7,226.2z M699.8,205.2c2.4,0,5.2-0.1,6.2-0.7c0.8-0.5,1.4-1.2,1.4-2.3c0-1.1-0.5-1.7-1.4-2.3
					c-0.5-0.3-1.7-0.5-2.2-0.5v-8.9c2.8,0.2,6.1,1,8.6,3.2c2.2,2,3.1,5,3.1,8.5c0,3.6-0.7,5.9-3.1,8.4c-3.3,3.5-10,3.5-15.4,3.5
					c-5.4,0-12.1-0.1-15.5-3.5c-2.5-2.5-3.1-5.4-3.1-8.4c0-3.1,0.5-5.9,3.1-8.4c4.2-4,12.6-3.5,18.3-3.5V205.2z M687.7,199.9
					c-0.7,0.5-1.3,1.2-1.3,2.3c0,1.1,0.6,1.8,1.3,2.3c0.7,0.5,3.1,0.7,5.6,0.7v-6C690.9,199.3,688.5,199.4,687.7,199.9z
					 M714.9,170.6h-25.2c-2.2,0-3.3,1.2-3.3,2.8c0,1.6,1.1,2.8,3.3,2.8h25.2v9h-36v-8.6h2.6c-0.9-0.7-1.7-1.6-2.3-2.6
					c-0.5-1-0.9-2.3-0.9-3.4c0-3.3,0.9-5.2,3-7c1.7-1.4,3.7-2,8.2-2h25.4V170.6z"/>
			</g>
			<g>
				<path fill="#231F20" d="M779.2,808c1.3,1.5,2,3.2,2,5.7c0,3-1.1,4.9-2.6,6.3c-2.8,2.5-7,2.7-16.2,2.7c-9.2,0-13.4-0.2-16.2-2.7
					c-1.6-1.4-2.6-3.4-2.6-6.3c0-2.5,0.8-4.4,2.2-5.9c1.7-1.7,4.3-2.6,7.4-2.6v4.5c-1.6,0-3.2,0.3-4.2,1.1c-0.8,0.6-1.3,1.5-1.3,2.9
					c0,1.5,0.6,2.4,1.4,3c1.8,1.3,4.7,1.6,13.5,1.6c8.8,0,11.7-0.3,13.5-1.6c0.8-0.6,1.4-1.6,1.4-3c0-1.4-0.6-2.3-1.3-2.9
					c-1-0.8-2.6-1.2-4.2-1.2v-4.5C774.8,805.2,777.5,806.2,779.2,808z M778.7,790.2c1.8,1.3,2.5,3.3,2.5,5.7c0,2.4-0.7,4.3-2.5,5.6
					c-2.1,1.7-5.9,2-11.3,2s-9.2-0.3-11.3-2c-1.8-1.3-2.5-3.3-2.5-5.6c0-2.4,0.7-4.4,2.5-5.7c2.1-1.7,5.9-1.9,11.3-1.9
					S776.6,788.5,778.7,790.2z M758.4,793.5c-0.7,0.5-1.1,1.4-1.1,2.4c0,1,0.4,1.8,1.1,2.3c1.3,1,4.1,1.1,9,1.1
					c4.8,0,7.6-0.1,8.9-1.1c0.7-0.5,1.1-1.3,1.1-2.3c0-1-0.4-1.9-1.1-2.4c-1.3-1-4.1-1-8.9-1C762.5,792.5,759.7,792.5,758.4,793.5z
					 M780.8,764.2H761c-2.5,0-3.7,1.4-3.7,3.2c0,1.8,1.2,3.2,3.7,3.2h19.7v4.2H761c-2.5,0-3.7,1.4-3.7,3.2c0,1.8,1.2,3.2,3.7,3.2
					h19.7v4.2h-26.8v-4h2.1c-0.6-0.4-1.3-1.1-1.7-1.7c-0.5-0.8-0.8-1.8-0.8-2.9c0-2.1,1.1-4,2.8-5.1c-0.7-0.6-1.5-1.3-2-2.1
					c-0.5-0.8-0.8-2.1-0.8-3.1c0-2.3,0.7-3.7,2-4.8c1.2-1.1,2.6-1.6,5.5-1.6h19.7V764.2z M768.3,751.9c4.2,0,6.7-0.2,7.9-1.1
					c0.6-0.5,1.1-1.2,1.1-2.3c0-1-0.4-1.8-1-2.4c-0.7-0.6-1.8-0.9-3.1-0.9V741c2.4,0.1,4.4,0.7,5.9,2.1c1.4,1.3,2,3.2,2,5.3
					c0,2.3-0.6,3.9-2.1,5.3c-2.1,2.1-6.1,2.4-11.8,2.4c-5.6,0-9.6-0.3-11.8-2.3c-1.5-1.4-2.1-3.2-2.1-5.3c0-2.2,0.6-3.9,2.1-5.3
					c2.4-2.2,7-2.3,12.7-2.3V751.9z M758.4,746.1c-0.6,0.5-1.1,1.3-1.1,2.4s0.5,1.8,1.1,2.3c1,0.8,3.2,1.1,6.8,1.1v-6.8
					C761.5,745.1,759.4,745.3,758.4,746.1z M779.1,724.5c-1.2,1.5-3.2,2.3-6,2.3h-15.9v3.1h-3.3v-3.1h-7.4v-4.2h7.4v-4.1h3.3v4.1
					h15.8c2.8,0,4-1.5,4-4.3h3.8C780.8,720.7,780.6,722.8,779.1,724.5z M778.7,703.2c1.8,1.3,2.5,3.3,2.5,5.7c0,2.4-0.7,4.3-2.5,5.6
					c-2.1,1.7-5.9,2-11.3,2s-9.2-0.3-11.3-2c-1.8-1.3-2.5-3.3-2.5-5.6c0-2.4,0.7-4.4,2.5-5.7c2.1-1.7,5.9-1.9,11.3-1.9
					S776.6,701.6,778.7,703.2z M758.4,706.6c-0.7,0.5-1.1,1.4-1.1,2.4c0,1,0.4,1.8,1.1,2.3c1.3,1,4.1,1.1,9,1.1
					c4.8,0,7.6-0.1,8.9-1.1c0.7-0.5,1.1-1.3,1.1-2.3c0-1-0.4-1.9-1.1-2.4c-1.3-1-4.1-1-8.9-1C762.5,705.5,759.7,705.6,758.4,706.6z
					 M779.1,684.8c-1.2,1.5-3.2,2.3-6,2.3h-15.9v3.1h-3.3v-3.1h-7.4v-4.2h7.4v-4.1h3.3v4.1h15.8c2.8,0,4-1.5,4-4.3h3.8
					C780.8,681,780.6,683.1,779.1,684.8z M780.8,664.8H761c-2.5,0-3.7,1.5-3.7,3.2c0,1.8,1.2,3.2,3.7,3.2h19.7v4.2h-36.9v-4.2h12
					c-0.6-0.4-1.2-1-1.5-1.5c-0.5-0.8-0.8-1.8-0.8-2.9c0-2,0.7-3.4,2-4.6c1.2-1.1,2.6-1.6,5.5-1.6h19.7V664.8z M768.3,652.9
					c4.2,0,6.7-0.2,7.9-1.1c0.6-0.5,1.1-1.2,1.1-2.3c0-1-0.4-1.8-1-2.4c-0.7-0.6-1.8-0.9-3.1-0.9V642c2.4,0.1,4.4,0.7,5.9,2.1
					c1.4,1.3,2,3.2,2,5.3c0,2.3-0.6,3.9-2.1,5.3c-2.1,2.1-6.1,2.4-11.8,2.4c-5.6,0-9.6-0.3-11.8-2.3c-1.5-1.4-2.1-3.2-2.1-5.3
					c0-2.2,0.6-3.9,2.1-5.3c2.4-2.2,7-2.3,12.7-2.3V652.9z M758.4,647.1c-0.6,0.5-1.1,1.3-1.1,2.4c0,1.1,0.5,1.8,1.1,2.3
					c1,0.8,3.2,1.1,6.8,1.1v-6.8C761.5,646.1,759.4,646.3,758.4,647.1z"/>
				<path fill="#231F20" d="M780.3,615.6h-41.7v-8.3h34.2v-10.9h7.5V615.6z M780.3,580h-2.6c0.8,0.6,1.5,1.2,2,2
					c0.6,0.9,1,1.9,1,3.5c0,2.9-0.8,4.7-2.9,6.4c-1.6,1.3-4,1.8-7,1.8c-2.9,0-5.3-1.1-7-3c-1.3-1.6-2.2-3.6-2.2-7.7v-2.4H758
					c-1.8,0-2.8,0.9-2.8,2.3c0,0.8,0.3,1.3,0.8,1.7c0.6,0.5,1.3,0.7,2.2,0.7v7.8c-2.6,0-4.9-0.8-7-2.9c-1.6-1.6-2.8-4.6-2.8-7.3
					c0-2.7,0.7-5.4,2.6-7.3c1.8-1.8,4.3-3,7.8-3h21.5V580z M767.1,580.5v1.3c0,1.3,0,2.2,0.8,3c0.6,0.6,1.9,1,2.7,1
					c2.3,0,3.4-1.1,3.4-2.7c0-1.4-1.2-2.6-3.4-2.6H767.1z M780.3,554.7h-22.1c-1.9,0-2.9,1.1-2.9,2.5s0.9,2.5,2.9,2.5h22.1v7.8
					h-31.5V560h2.3c-0.8-0.6-1.5-1.4-2-2.3c-0.5-0.9-0.8-2-0.8-3c0-2.9,0.8-4.6,2.6-6.1c1.5-1.2,3.2-1.8,7.1-1.8h22.2V554.7z
					 M780.3,530.4H778c0.6,0.4,1.6,1.6,2,2.3c0.5,0.9,0.8,2,0.8,3c0,2.6-0.6,4.3-2.6,5.9c-2.7,2.2-7.4,2.2-13.6,2.2
					c-6.3,0-10.9,0-13.6-2.2c-1.9-1.5-2.6-3.3-2.6-5.9c0-1,0.3-2.1,0.8-3c0.4-0.7,0.9-1.3,1.6-1.9h-12.1v-7.8h41.7V530.4z
					 M758.2,530.7c-1,0-1.8,0.3-2.2,0.8c-0.4,0.5-0.6,1.1-0.6,1.7c0,0.8,0.4,1.6,1.2,2c1.3,0.6,4.4,0.6,8,0.6c3.6,0,6.7,0,8-0.6
					c0.9-0.4,1.2-1.3,1.2-2c0-0.6-0.2-1.2-0.6-1.7c-0.5-0.5-1.2-0.8-2.2-0.8H758.2z M777,491.4c3,2,3.7,5,3.7,8.3
					c0,3.3-0.7,6.3-3.7,8.3c-3,2-8.2,2.2-12.5,2.2s-9.5-0.2-12.5-2.2c-3-2-3.7-5-3.7-8.3c0-3.3,0.7-6.3,3.7-8.3
					c3-2,8.2-2.2,12.5-2.2S774,489.4,777,491.4z M756.6,497.6c-0.9,0.4-1.2,1.3-1.2,2c0,0.8,0.4,1.6,1.2,2c1.3,0.6,4.4,0.6,8,0.6
					c3.6,0,6.7,0,8-0.6c0.9-0.4,1.2-1.3,1.2-2c0-0.8-0.4-1.6-1.2-2c-1.3-0.6-4.4-0.6-8-0.6C761,497.1,757.9,497.1,756.6,497.6z
					 M755.9,475.5h24.3v7.8h-24.3v2.9H750v-2.9h-1.8c-4.1,0-6.6-1.4-8.2-3.6c-1.6-2.3-1.9-4.9-1.9-8.1h7c0,2.6,1.2,3.9,3.6,3.9h1.2
					v-3.9h5.9V475.5z M746.6,459.8h-8.3v-8.3h8.3V459.8z M780.3,459.6H750v-7.8h30.2V459.6z M780.3,434.8H778c0.6,0.4,1.6,1.6,2,2.3
					c0.5,0.9,0.8,2,0.8,3c0,2.6-0.6,4.3-2.6,5.9c-2.7,2.2-7.4,2.2-13.6,2.2c-6.3,0-10.9,0-13.6-2.2c-1.9-1.5-2.6-3.3-2.6-5.9
					c0-1,0.3-2.1,0.8-3c0.4-0.7,0.9-1.3,1.6-1.9h-12.1v-7.8h41.7V434.8z M758.2,435.2c-1,0-1.8,0.3-2.2,0.8
					c-0.4,0.5-0.6,1.1-0.6,1.7c0,0.8,0.4,1.6,1.2,2c1.3,0.6,4.4,0.6,8,0.6c3.6,0,6.7,0,8-0.6c0.9-0.4,1.2-1.3,1.2-2
					c0-0.6-0.2-1.2-0.6-1.7c-0.5-0.5-1.2-0.8-2.2-0.8H758.2z M767.1,416.5c2.1,0,4.6-0.1,5.4-0.6c0.7-0.4,1.2-1.1,1.2-2
					c0-1-0.5-1.5-1.2-2c-0.4-0.2-1.5-0.4-1.9-0.4v-7.8c2.5,0.2,5.3,0.9,7.5,2.8c1.9,1.8,2.7,4.4,2.7,7.4c0,3.2-0.6,5.1-2.7,7.4
					c-2.9,3-8.7,3.1-13.5,3.1c-4.7,0-10.6-0.1-13.5-3.1c-2.2-2.2-2.7-4.7-2.7-7.4c0-2.8,0.5-5.1,2.7-7.3c3.7-3.5,11-3,16-3.1V416.5z
					 M756.5,411.8c-0.6,0.5-1.2,1.1-1.2,2c0,1,0.5,1.6,1.2,2c0.6,0.4,2.8,0.6,4.9,0.6v-5.2C759.3,411.2,757.2,411.4,756.5,411.8z
					 M780.3,387.2h-2.6c0.8,0.6,1.5,1.2,2,2c0.6,0.9,1,1.9,1,3.5c0,2.9-0.8,4.7-2.9,6.4c-1.6,1.3-4,1.8-7,1.8c-2.9,0-5.3-1.1-7-3
					c-1.3-1.6-2.2-3.6-2.2-7.7v-2.4H758c-1.8,0-2.8,0.9-2.8,2.3c0,0.8,0.3,1.3,0.8,1.7c0.6,0.5,1.3,0.7,2.2,0.7v7.8
					c-2.6,0-4.9-0.8-7-2.9c-1.6-1.6-2.8-4.6-2.8-7.3c0-2.7,0.7-5.4,2.6-7.3c1.8-1.8,4.3-3,7.8-3h21.5V387.2z M767.1,387.7v1.3
					c0,1.3,0,2.2,0.8,3c0.6,0.6,1.9,1,2.7,1c2.3,0,3.4-1.1,3.4-2.7c0-1.4-1.2-2.6-3.4-2.6H767.1z M778.1,359c2,2,2.6,4.6,2.6,7.4
					c0,2.8-0.9,5.7-2.7,7.5c-1.9,1.8-4,2.9-7.2,3v-7.7c0.9-0.1,1.6-0.4,2-0.8c0.5-0.5,0.8-1.2,0.8-1.9c0-0.8-0.1-1.3-0.6-1.9
					c-0.4-0.4-1.1-0.6-1.8-0.6c-0.6,0-1.2,0.1-1.8,0.5c-0.6,0.5-1,1.2-1.3,2l-1.7,4.4c-0.9,2.2-2,3.9-3.6,4.9
					c-1.2,0.7-2.6,1.1-4.4,1.1c-3.4,0-5.4-1.1-7.3-2.9c-1.9-1.9-2.9-4.6-2.9-7.4c0-2.7,0.9-5.4,2.6-7.1c1.6-1.7,3.9-2.9,7.1-2.9v7.7
					c-0.8,0-1.5,0.2-2,0.6c-0.5,0.5-0.8,1.1-0.8,1.8c0,0.8,0.3,1.4,0.7,1.8c0.4,0.5,1,0.6,1.8,0.6c0.6,0,1-0.1,1.4-0.4
					c0.6-0.4,1.1-1.1,1.4-2l1.6-4.3c0.8-2.2,1.9-3.7,3.3-4.7c1.1-0.8,2.8-1.4,5.1-1.4C774.1,356,776.4,357.3,778.1,359z"/>
			</g>
		</g>
	</g>
	<g clip-path="url(#SVGID_2_)">
		<g>
			<path fill="#0079C1" d="M485.1,1426.5v-25.3h10c3.9,0,6.8,1.2,8.9,3.5c2,2.2,3,5.3,3,9.2c0,4.3-1.3,7.6-3.9,9.7
				c-2.4,2-5.8,2.9-10.2,2.9H485.1L485.1,1426.5z M490.3,1422.6h3.6c5.4,0,8-2.9,8-8.7c0-2.7-0.7-4.8-2-6.4
				c-1.4-1.6-3.5-2.4-6.2-2.4h-3.5V1422.6L490.3,1422.6z M507.4,1426.5l9.4-25.3h6.7l9.4,25.3h-5.6l-1.8-5.4h-10.7l-1.8,5.4H507.4
				L507.4,1426.5z M520.1,1405.2l-4,12h8.1L520.1,1405.2L520.1,1405.2z M534.6,1426.5l9.4-25.3h6.7l9.4,25.3h-5.6l-1.8-5.4h-10.7
				l-1.8,5.4H534.6L534.6,1426.5z M547.3,1405.2l-4,12h8.1L547.3,1405.2L547.3,1405.2z M562.8,1426.5v-25.3h10
				c3.9,0,6.8,1.2,8.9,3.5c2,2.2,3,5.3,3,9.2c0,4.3-1.3,7.6-3.9,9.7c-2.4,2-5.8,2.9-10.2,2.9H562.8L562.8,1426.5z M568,1422.6h3.6
				c5.4,0,8-2.9,8-8.7c0-2.7-0.7-4.8-2-6.4c-1.4-1.6-3.5-2.4-6.2-2.4H568V1422.6L568,1422.6z"/>
			<path fill="#231F20" d="M613.4,1410.3v-9.2h2.9c3.1,0,4.6,1.6,4.6,4.7c0,3-1.5,4.5-4.4,4.5H613.4L613.4,1410.3z M614.7,1409.2
				h1.9c1.1,0,2-0.3,2.5-1c0.4-0.6,0.7-1.5,0.7-2.6c0-2.3-1.1-3.5-3.4-3.5h-1.7V1409.2L614.7,1409.2z M625.5,1410.5
				c-1,0-1.7-0.3-2.3-0.9c-0.5-0.6-0.8-1.4-0.8-2.4c0-1,0.2-1.8,0.7-2.5c0.5-0.7,1.3-1,2.3-1c0.9,0,1.6,0.3,2.1,0.8
				c0.5,0.6,0.7,1.4,0.7,2.4l0,0.4h-4.6c0.1,1.5,0.7,2.3,1.8,2.3c0.4,0,0.8-0.1,1.1-0.4c0.3-0.2,0.4-0.6,0.5-1h1.2
				C628.1,1409.7,627.1,1410.5,625.5,1410.5L625.5,1410.5z M627.1,1406.4c0-0.6-0.2-1-0.4-1.3c-0.3-0.3-0.7-0.5-1.3-0.5
				c-1,0-1.6,0.6-1.7,1.8H627.1L627.1,1406.4z M631,1403.9h-1.2v3.8c0,0.9,0.2,1.6,0.6,2.1c0.4,0.5,1.1,0.8,2,0.8
				c0.9,0,1.5-0.3,2-0.9l0.1-0.2v0.8h1.1v-6.4h-1.2v3.6c0,0.7-0.1,1.2-0.3,1.5c-0.3,0.4-0.8,0.5-1.5,0.5c-0.6,0-1-0.2-1.2-0.5
				c-0.2-0.3-0.3-0.7-0.3-1.4V1403.9L631,1403.9z M641,1410.4v-0.9c-0.3,0.1-0.6,0.1-0.9,0.1c-0.5,0-0.7-0.2-0.7-0.6v-4.2h1.6v-0.9
				h-1.6v-1.6l-1.2,0.5v1.2h-1.3v0.9h1.3v4.5c0,0.4,0.2,0.7,0.5,0.9c0.3,0.2,0.7,0.3,1.1,0.3C640.3,1410.5,640.7,1410.4,641,1410.4
				L641,1410.4z M646.2,1405.6h1.2c0-0.7-0.3-1.2-0.8-1.5c-0.4-0.3-1-0.4-1.7-0.4c-0.7,0-1.3,0.1-1.7,0.4c-0.5,0.3-0.8,0.8-0.8,1.5
				c0,0.5,0.2,0.9,0.5,1.2c0.3,0.2,0.6,0.4,1.2,0.6l1.3,0.4c0.7,0.2,1,0.5,1,0.9c0,0.7-0.5,1.1-1.5,1.1c-0.4,0-0.8-0.1-1-0.3
				c-0.3-0.2-0.4-0.5-0.4-0.9h-1.2c0,1.4,0.9,2.1,2.7,2.1c0.7,0,1.4-0.2,1.8-0.5c0.6-0.4,0.8-0.9,0.8-1.6c0-0.5-0.2-0.9-0.6-1.2
				c-0.3-0.2-0.7-0.4-1.3-0.6l-1.3-0.4c-0.5-0.1-0.8-0.4-0.8-0.8c0-0.6,0.4-0.9,1.3-0.9C645.8,1404.6,646.2,1404.9,646.2,1405.6
				L646.2,1405.6z M654.7,1408.1h-1.2c-0.1,1-0.6,1.5-1.6,1.5c-0.7,0-1.2-0.3-1.4-0.8c-0.2-0.4-0.3-1-0.3-1.7c0-1.7,0.6-2.5,1.7-2.5
				c0.4,0,0.8,0.1,1.1,0.3c0.3,0.2,0.4,0.6,0.4,1h1.2c0-0.7-0.3-1.3-0.8-1.7c-0.5-0.4-1.1-0.6-1.8-0.6c-1,0-1.8,0.3-2.3,0.9
				c-0.5,0.6-0.8,1.4-0.8,2.4c0,2.3,1,3.4,3.1,3.4C653.6,1410.5,654.5,1409.7,654.7,1408.1L654.7,1408.1z M656.3,1410.3h1.2v-3.6
				c0-0.7,0.1-1.2,0.4-1.5c0.3-0.4,0.8-0.5,1.4-0.5c0.6,0,1,0.2,1.2,0.5c0.2,0.3,0.3,0.7,0.3,1.4v3.8h1.2v-3.8c0-0.9-0.2-1.6-0.5-2
				c-0.4-0.5-1-0.7-1.9-0.7c-0.8,0-1.5,0.3-2,0.8l-0.1,0.2v-3.6h-1.2V1410.3L656.3,1410.3z M666.7,1410.5c-1,0-1.7-0.3-2.3-0.9
				c-0.5-0.6-0.8-1.4-0.8-2.4c0-1,0.2-1.8,0.7-2.5c0.5-0.7,1.3-1,2.3-1c0.9,0,1.6,0.3,2.1,0.8c0.5,0.6,0.7,1.4,0.7,2.4l0,0.4h-4.6
				c0.1,1.5,0.7,2.3,1.8,2.3c0.4,0,0.8-0.1,1.1-0.4c0.3-0.2,0.4-0.6,0.5-1h1.2C669.2,1409.7,668.3,1410.5,666.7,1410.5L666.7,1410.5
				z M668.3,1406.4c0-0.6-0.2-1-0.4-1.3c-0.3-0.3-0.7-0.5-1.3-0.5c-1,0-1.6,0.6-1.7,1.8H668.3L668.3,1406.4z M671.1,1410.3h1.2v-3.3
				c0-0.8,0.1-1.3,0.4-1.7c0.3-0.4,0.8-0.6,1.4-0.5l0.2,0v-1.1l-0.3,0c-0.7,0-1.3,0.2-1.8,0.8v-0.7h-1.2V1410.3L671.1,1410.3z
				 M679.7,1410.3l3.8-9.2h1.4l3.8,9.2h-1.4l-0.9-2.4H682l-0.9,2.4H679.7L679.7,1410.3z M684.2,1402.2l-1.8,4.6h3.5L684.2,1402.2
				L684.2,1402.2z M691.5,1410.3v-3.5l2.9,3.5h1.6l-3.2-3.7l2.8-2.7H694l-2.5,2.7v-5.5h-1.2v9.2H691.5L691.5,1410.3z M699.4,1410.5
				c-0.7,0-1.2-0.2-1.7-0.5c-0.5-0.4-0.7-0.9-0.7-1.5c0-0.8,0.4-1.4,1.1-1.7c0.6-0.3,1.3-0.4,2.1-0.4h1.1v-0.5
				c0-0.8-0.5-1.2-1.5-1.2c-0.8,0-1.2,0.3-1.2,1h-1.2c0.1-1.2,0.9-1.9,2.6-1.9c0.7,0,1.3,0.2,1.8,0.5c0.5,0.4,0.8,0.9,0.8,1.6v2.2
				c0,1.3,0.1,2.1,0.2,2.3h-1.1c-0.1-0.1-0.1-0.4-0.2-1c-0.1,0.2-0.2,0.3-0.3,0.4C700.7,1410.2,700.1,1410.5,699.4,1410.5
				L699.4,1410.5z M701.3,1407.6v-0.5h-1.1c-1.3,0-2,0.4-2,1.3c0,0.7,0.5,1.1,1.4,1.1C700.7,1409.6,701.3,1408.9,701.3,1407.6
				L701.3,1407.6z M706.7,1410.5c-0.9,0-1.6-0.4-2.1-1.1c-0.4-0.6-0.6-1.4-0.6-2.4c0-1,0.2-1.7,0.6-2.3c0.5-0.7,1.2-1,2.1-1
				c0.9,0,1.5,0.3,2,0.9l0,0v-3.5h1.2v9.2h-1.2v-0.8l-0.1,0.1C708.2,1410.2,707.6,1410.5,706.7,1410.5L706.7,1410.5z M707.1,1404.5
				c-0.6,0-1.1,0.3-1.4,0.8c-0.2,0.4-0.4,1-0.4,1.7c0,0.7,0.1,1.3,0.4,1.7c0.3,0.6,0.8,0.8,1.4,0.8c0.6,0,1.1-0.3,1.4-0.8
				c0.2-0.4,0.4-1,0.4-1.7c0-0.7-0.1-1.3-0.4-1.7C708.2,1404.8,707.7,1404.5,707.1,1404.5L707.1,1404.5z M714.8,1410.5
				c-1,0-1.7-0.3-2.3-0.9c-0.5-0.6-0.8-1.4-0.8-2.4c0-1,0.2-1.8,0.7-2.5c0.5-0.7,1.3-1,2.3-1c0.9,0,1.6,0.3,2.1,0.8
				c0.5,0.6,0.7,1.4,0.7,2.4l0,0.4H713c0.1,1.5,0.7,2.3,1.8,2.3c0.4,0,0.8-0.1,1.1-0.4c0.3-0.2,0.4-0.6,0.5-1h1.2
				C717.3,1409.7,716.4,1410.5,714.8,1410.5L714.8,1410.5z M716.4,1406.4c0-0.6-0.2-1-0.4-1.3c-0.3-0.3-0.7-0.5-1.3-0.5
				c-1,0-1.6,0.6-1.7,1.8H716.4L716.4,1406.4z M719.2,1410.3h1.2v-3.6c0-0.7,0.1-1.1,0.3-1.5c0.3-0.4,0.7-0.6,1.3-0.6
				c0.9,0,1.4,0.6,1.4,1.7v4h1.2v-3.6c0-0.7,0.1-1.1,0.3-1.5c0.3-0.4,0.7-0.6,1.3-0.6c0.9,0,1.4,0.6,1.4,1.7v4h1.2v-4
				c0-1.8-0.8-2.6-2.3-2.6c-0.8,0-1.4,0.3-1.8,0.8l-0.2,0.3c-0.1-0.2-0.2-0.4-0.4-0.6c-0.4-0.4-1-0.6-1.6-0.6
				c-0.8,0-1.4,0.3-1.8,0.8l-0.1,0.1v-0.8h-1.2V1410.3L719.2,1410.3z M730.8,1401.1h1.3v1.2h-1.3V1401.1L730.8,1401.1z
				 M730.8,1410.3v-6.4h1.2v6.4H730.8L730.8,1410.3z M737.7,1405.6h1.2c0-0.7-0.3-1.2-0.8-1.5c-0.4-0.3-1-0.4-1.7-0.4
				c-0.7,0-1.3,0.1-1.7,0.4c-0.5,0.3-0.8,0.8-0.8,1.5c0,0.5,0.2,0.9,0.5,1.2c0.3,0.2,0.6,0.4,1.2,0.6l1.3,0.4c0.7,0.2,1,0.5,1,0.9
				c0,0.7-0.5,1.1-1.5,1.1c-0.4,0-0.8-0.1-1-0.3c-0.3-0.2-0.4-0.5-0.4-0.9h-1.2c0,1.4,0.9,2.1,2.7,2.1c0.7,0,1.4-0.2,1.8-0.5
				c0.6-0.4,0.8-0.9,0.8-1.6c0-0.5-0.2-0.9-0.6-1.2c-0.3-0.2-0.7-0.4-1.3-0.6l-1.3-0.4c-0.5-0.1-0.8-0.4-0.8-0.8
				c0-0.6,0.4-0.9,1.3-0.9C737.3,1404.6,737.7,1404.9,737.7,1405.6L737.7,1405.6z M746.2,1408.1H745c-0.1,1-0.6,1.5-1.6,1.5
				c-0.7,0-1.2-0.3-1.4-0.8c-0.2-0.4-0.3-1-0.3-1.7c0-1.7,0.6-2.5,1.7-2.5c0.4,0,0.8,0.1,1.1,0.3c0.3,0.2,0.4,0.6,0.4,1h1.2
				c0-0.7-0.3-1.3-0.8-1.7c-0.5-0.4-1.1-0.6-1.8-0.6c-1,0-1.8,0.3-2.3,0.9c-0.5,0.6-0.8,1.4-0.8,2.4c0,2.3,1,3.4,3.1,3.4
				C745.2,1410.5,746,1409.7,746.2,1408.1L746.2,1408.1z M747.8,1410.3h1.2v-3.6c0-0.7,0.1-1.2,0.4-1.5c0.3-0.4,0.8-0.5,1.4-0.5
				c0.6,0,1,0.2,1.2,0.5c0.2,0.3,0.3,0.7,0.3,1.4v3.8h1.2v-3.8c0-0.9-0.2-1.6-0.5-2c-0.4-0.5-1-0.7-1.9-0.7c-0.8,0-1.5,0.3-2,0.8
				l-0.1,0.2v-3.6h-1.2V1410.3L747.8,1410.3z M758.2,1410.5c-1,0-1.7-0.3-2.3-0.9c-0.5-0.6-0.8-1.4-0.8-2.4c0-1,0.2-1.8,0.7-2.5
				c0.5-0.7,1.3-1,2.3-1c0.9,0,1.6,0.3,2.1,0.8c0.5,0.6,0.8,1.4,0.7,2.4l0,0.4h-4.6c0.1,1.5,0.7,2.3,1.8,2.3c0.4,0,0.8-0.1,1.1-0.4
				c0.3-0.2,0.4-0.6,0.5-1h1.2C760.7,1409.7,759.8,1410.5,758.2,1410.5L758.2,1410.5z M759.8,1406.4c0-0.6-0.2-1-0.4-1.3
				c-0.3-0.3-0.7-0.5-1.3-0.5c-1,0-1.6,0.6-1.7,1.8H759.8L759.8,1406.4z M762.6,1410.3h1.2v-3.3c0-0.8,0.1-1.3,0.4-1.7
				c0.3-0.4,0.8-0.6,1.4-0.5l0.2,0v-1.1l-0.3,0c-0.7,0-1.3,0.2-1.8,0.8v-0.7h-1.2V1410.3L762.6,1410.3z M771.2,1410.3l3.8-9.2h1.4
				l3.8,9.2h-1.4l-0.9-2.4h-4.3l-0.9,2.4H771.2L771.2,1410.3z M775.7,1402.2l-1.8,4.6h3.5L775.7,1402.2L775.7,1402.2z M782.7,1403.9
				h-1.2v3.8c0,0.9,0.2,1.6,0.6,2.1c0.4,0.5,1.1,0.8,2,0.8c0.9,0,1.5-0.3,2-0.9l0.1-0.2v0.8h1.1v-6.4h-1.2v3.6
				c0,0.7-0.1,1.2-0.3,1.5c-0.3,0.4-0.8,0.5-1.5,0.5c-0.6,0-1-0.2-1.2-0.5c-0.2-0.3-0.3-0.7-0.3-1.4V1403.9L782.7,1403.9z
				 M793,1405.6h1.2c0-0.7-0.3-1.2-0.8-1.5c-0.4-0.3-1-0.4-1.7-0.4c-0.7,0-1.3,0.1-1.7,0.4c-0.5,0.3-0.8,0.8-0.8,1.5
				c0,0.5,0.2,0.9,0.5,1.2c0.3,0.2,0.7,0.4,1.2,0.6l1.3,0.4c0.7,0.2,1,0.5,1,0.9c0,0.7-0.5,1.1-1.5,1.1c-0.4,0-0.8-0.1-1-0.3
				c-0.3-0.2-0.4-0.5-0.4-0.9h-1.2c0,1.4,0.9,2.1,2.7,2.1c0.8,0,1.4-0.2,1.8-0.5c0.6-0.4,0.8-0.9,0.8-1.6c0-0.5-0.2-0.9-0.6-1.2
				c-0.3-0.2-0.7-0.4-1.3-0.6l-1.3-0.4c-0.5-0.1-0.8-0.4-0.8-0.8c0-0.6,0.4-0.9,1.3-0.9C792.5,1404.6,793,1404.9,793,1405.6
				L793,1405.6z M799.3,1410.4v-0.9c-0.3,0.1-0.6,0.1-0.9,0.1c-0.5,0-0.7-0.2-0.7-0.6v-4.2h1.6v-0.9h-1.6v-1.6l-1.2,0.5v1.2h-1.3
				v0.9h1.3v4.5c0,0.4,0.2,0.7,0.5,0.9c0.3,0.2,0.7,0.3,1.1,0.3C798.6,1410.5,799,1410.4,799.3,1410.4L799.3,1410.4z M803,1410.5
				c-0.7,0-1.2-0.2-1.7-0.5c-0.5-0.4-0.7-0.9-0.7-1.5c0-0.8,0.4-1.4,1.1-1.7c0.6-0.3,1.3-0.4,2.1-0.4h1.1v-0.5
				c0-0.8-0.5-1.2-1.5-1.2c-0.8,0-1.2,0.3-1.2,1H801c0.1-1.2,0.9-1.9,2.6-1.9c0.7,0,1.3,0.2,1.8,0.5c0.5,0.4,0.8,0.9,0.8,1.6v2.2
				c0,1.3,0.1,2.1,0.2,2.3h-1.1c-0.1-0.1-0.1-0.4-0.2-1c-0.1,0.2-0.2,0.3-0.3,0.4C804.3,1410.2,803.7,1410.5,803,1410.5L803,1410.5z
				 M804.9,1407.6v-0.5h-1.1c-1.3,0-2,0.4-2,1.3c0,0.7,0.5,1.1,1.4,1.1C804.3,1409.6,804.9,1408.9,804.9,1407.6L804.9,1407.6z
				 M809.1,1403.9h-1.2v3.8c0,0.9,0.2,1.6,0.6,2.1c0.4,0.5,1.1,0.8,2,0.8c0.9,0,1.5-0.3,2-0.9l0.1-0.2v0.8h1.1v-6.4h-1.2v3.6
				c0,0.7-0.1,1.2-0.3,1.5c-0.3,0.4-0.8,0.5-1.5,0.5c-0.6,0-1-0.2-1.2-0.5c-0.2-0.3-0.3-0.7-0.3-1.4V1403.9L809.1,1403.9z
				 M819.3,1405.6h1.2c0-0.7-0.3-1.2-0.8-1.5c-0.4-0.3-1-0.4-1.7-0.4c-0.7,0-1.3,0.1-1.7,0.4c-0.5,0.3-0.8,0.8-0.8,1.5
				c0,0.5,0.2,0.9,0.5,1.2c0.2,0.2,0.6,0.4,1.2,0.6l1.3,0.4c0.7,0.2,1,0.5,1,0.9c0,0.7-0.5,1.1-1.5,1.1c-0.4,0-0.8-0.1-1-0.3
				c-0.3-0.2-0.4-0.5-0.4-0.9h-1.2c0,1.4,0.9,2.1,2.7,2.1c0.7,0,1.4-0.2,1.8-0.5c0.6-0.4,0.8-0.9,0.8-1.6c0-0.5-0.2-0.9-0.6-1.2
				c-0.3-0.2-0.7-0.4-1.3-0.6l-1.3-0.4c-0.5-0.1-0.8-0.4-0.8-0.8c0-0.6,0.4-0.9,1.3-0.9C818.9,1404.6,819.3,1404.9,819.3,1405.6
				L819.3,1405.6z M827.8,1408.1h-1.2c-0.1,1-0.6,1.5-1.6,1.5c-0.7,0-1.2-0.3-1.4-0.8c-0.2-0.4-0.3-1-0.3-1.7c0-1.7,0.6-2.5,1.7-2.5
				c0.4,0,0.8,0.1,1.1,0.3c0.3,0.2,0.4,0.6,0.4,1h1.2c0-0.7-0.3-1.3-0.8-1.7c-0.5-0.4-1.1-0.6-1.8-0.6c-1,0-1.8,0.3-2.3,0.9
				c-0.5,0.6-0.8,1.4-0.8,2.4c0,2.3,1,3.4,3.1,3.4C826.8,1410.5,827.7,1409.7,827.8,1408.1L827.8,1408.1z M829.5,1410.3h1.2v-3.6
				c0-0.7,0.1-1.2,0.4-1.5c0.3-0.4,0.8-0.5,1.4-0.5c0.6,0,1,0.2,1.2,0.5c0.2,0.3,0.3,0.7,0.3,1.4v3.8h1.2v-3.8c0-0.9-0.2-1.6-0.5-2
				c-0.4-0.5-1-0.7-1.9-0.7c-0.8,0-1.5,0.3-2,0.8l-0.1,0.2v-3.6h-1.2V1410.3L829.5,1410.3z M841.8,1410.3v-9.2h2.9
				c3.1,0,4.6,1.6,4.6,4.7c0,3-1.5,4.5-4.4,4.5H841.8L841.8,1410.3z M843.1,1409.2h1.9c1.1,0,2-0.3,2.5-1c0.4-0.6,0.7-1.5,0.7-2.6
				c0-2.3-1.1-3.5-3.4-3.5h-1.7V1409.2L843.1,1409.2z M851.2,1401.1h1.3v1.2h-1.3V1401.1L851.2,1401.1z M851.2,1410.3v-6.4h1.2v6.4
				H851.2L851.2,1410.3z M857.1,1410.5c-1,0-1.7-0.3-2.3-0.9c-0.5-0.6-0.8-1.4-0.8-2.4c0-1,0.2-1.8,0.7-2.5c0.5-0.7,1.3-1,2.3-1
				c0.9,0,1.6,0.3,2.1,0.8c0.5,0.6,0.8,1.4,0.7,2.4l0,0.4h-4.6c0.1,1.5,0.7,2.3,1.8,2.3c0.4,0,0.8-0.1,1.1-0.4
				c0.3-0.2,0.4-0.6,0.5-1h1.2C859.7,1409.7,858.7,1410.5,857.1,1410.5L857.1,1410.5z M858.7,1406.4c0-0.6-0.2-1-0.4-1.3
				c-0.3-0.3-0.7-0.5-1.3-0.5c-1,0-1.6,0.6-1.7,1.8H858.7L858.7,1406.4z M861.5,1410.3h1.2v-3.6c0-0.7,0.1-1.2,0.4-1.5
				c0.3-0.4,0.8-0.5,1.4-0.5c0.6,0,1,0.2,1.2,0.5c0.2,0.3,0.3,0.7,0.3,1.4v3.8h1.2v-3.8c0-0.9-0.2-1.6-0.5-2c-0.4-0.5-1-0.7-1.9-0.7
				c-1,0-1.7,0.4-2.2,1.1v-0.9h-1.1V1410.3L861.5,1410.3z M872.9,1405.6h1.2c0-0.7-0.3-1.2-0.8-1.5c-0.4-0.3-1-0.4-1.7-0.4
				c-0.7,0-1.3,0.1-1.7,0.4c-0.5,0.3-0.8,0.8-0.8,1.5c0,0.5,0.2,0.9,0.5,1.2c0.3,0.2,0.6,0.4,1.2,0.6l1.3,0.4c0.7,0.2,1,0.5,1,0.9
				c0,0.7-0.5,1.1-1.5,1.1c-0.4,0-0.8-0.1-1-0.3c-0.3-0.2-0.4-0.5-0.4-0.9h-1.2c0,1.4,0.9,2.1,2.7,2.1c0.8,0,1.4-0.2,1.8-0.5
				c0.6-0.4,0.8-0.9,0.8-1.6c0-0.5-0.2-0.9-0.6-1.2c-0.3-0.2-0.7-0.4-1.3-0.6l-1.3-0.4c-0.5-0.1-0.8-0.4-0.8-0.8
				c0-0.6,0.4-0.9,1.3-0.9C872.4,1404.6,872.9,1404.9,872.9,1405.6L872.9,1405.6z M879.3,1410.4v-0.9c-0.3,0.1-0.6,0.1-0.9,0.1
				c-0.5,0-0.7-0.2-0.7-0.6v-4.2h1.6v-0.9h-1.6v-1.6l-1.2,0.5v1.2h-1.3v0.9h1.3v4.5c0,0.4,0.2,0.7,0.5,0.9c0.3,0.2,0.7,0.3,1.1,0.3
				C878.5,1410.5,878.9,1410.4,879.3,1410.4L879.3,1410.4z M617.4,1426.7c1.4,0,2.6-0.2,3.5-0.5v-4.7h-3.3v1.1h2.1v2.8
				c-0.6,0.2-1.4,0.3-2.1,0.3c-1.1,0-1.9-0.4-2.4-1.1c-0.5-0.6-0.7-1.5-0.7-2.7c0-1.1,0.2-2,0.7-2.6c0.5-0.7,1.4-1.1,2.4-1.1
				c0.5,0,1,0.1,1.4,0.3c0.5,0.3,0.7,0.6,0.8,1.1h1.3c0-0.9-0.4-1.5-1.1-2c-0.6-0.4-1.4-0.6-2.3-0.6c-1.4,0-2.6,0.5-3.3,1.4
				c-0.7,0.9-1.1,2-1.1,3.5c0,1.4,0.4,2.5,1.1,3.4C614.9,1426.2,616,1426.7,617.4,1426.7L617.4,1426.7z M625.7,1426.7
				c-1,0-1.7-0.3-2.3-0.9c-0.5-0.6-0.8-1.4-0.8-2.4c0-1,0.2-1.9,0.7-2.5c0.5-0.7,1.3-1,2.3-1c0.9,0,1.6,0.3,2.1,0.8
				c0.5,0.6,0.7,1.4,0.7,2.4l0,0.4H624c0.1,1.5,0.7,2.3,1.8,2.3c0.4,0,0.8-0.1,1.1-0.4c0.3-0.2,0.4-0.6,0.5-1h1.2
				C628.3,1425.9,627.4,1426.7,625.7,1426.7L625.7,1426.7z M627.3,1422.6c0-0.6-0.2-1-0.4-1.3c-0.3-0.3-0.7-0.5-1.3-0.5
				c-1,0-1.6,0.6-1.7,1.8H627.3L627.3,1422.6z M630.2,1426.5h1.2v-3.3c0-0.8,0.1-1.3,0.4-1.7c0.3-0.4,0.8-0.6,1.4-0.5l0.2,0v-1.1
				l-0.3,0c-0.7,0-1.3,0.2-1.8,0.8v-0.7h-1.2V1426.5L630.2,1426.5z M634.9,1426.5h1.2v-3.6c0-0.7,0.1-1.1,0.3-1.5
				c0.3-0.4,0.7-0.6,1.3-0.6c0.9,0,1.4,0.6,1.4,1.7v4h1.2v-3.6c0-0.7,0.1-1.1,0.3-1.5c0.3-0.4,0.7-0.6,1.3-0.6
				c0.9,0,1.4,0.6,1.4,1.7v4h1.2v-4c0-1.8-0.8-2.6-2.3-2.6c-0.8,0-1.4,0.3-1.8,0.8l-0.2,0.3c-0.1-0.2-0.2-0.4-0.4-0.6
				c-0.4-0.4-1-0.6-1.6-0.6c-0.8,0-1.4,0.3-1.8,0.8l-0.1,0.1v-0.8h-1.2V1426.5L634.9,1426.5z M648.6,1426.7c-0.7,0-1.2-0.2-1.7-0.5
				c-0.5-0.4-0.7-0.9-0.7-1.5c0-0.8,0.4-1.4,1.1-1.7c0.6-0.3,1.3-0.4,2.1-0.4h1.1v-0.5c0-0.8-0.5-1.2-1.5-1.2c-0.8,0-1.2,0.3-1.2,1
				h-1.2c0.1-1.2,0.9-1.9,2.6-1.9c0.7,0,1.3,0.2,1.8,0.5c0.5,0.4,0.8,0.9,0.8,1.6v2.2c0,1.3,0.1,2.1,0.2,2.3h-1.1
				c-0.1-0.1-0.1-0.4-0.2-1c-0.1,0.2-0.2,0.3-0.3,0.4C649.9,1426.4,649.3,1426.7,648.6,1426.7L648.6,1426.7z M650.5,1423.8v-0.5
				h-1.1c-1.3,0-2,0.4-2,1.3c0,0.7,0.5,1.1,1.4,1.1C649.9,1425.8,650.5,1425.1,650.5,1423.8L650.5,1423.8z M653.6,1426.5h1.2v-3.6
				c0-0.7,0.1-1.2,0.4-1.5c0.3-0.4,0.8-0.5,1.4-0.5c0.6,0,1,0.2,1.2,0.5c0.2,0.3,0.3,0.7,0.3,1.4v3.8h1.2v-3.8c0-0.9-0.2-1.6-0.5-2
				c-0.4-0.5-1-0.7-1.9-0.7c-1,0-1.7,0.4-2.2,1.1v-0.9h-1.1V1426.5L653.6,1426.5z M665.2,1426.5l3.8-9.2h1.4l3.8,9.2h-1.4l-0.9-2.4
				h-4.3l-0.9,2.4H665.2L665.2,1426.5z M669.6,1418.4l-1.8,4.6h3.5L669.6,1418.4L669.6,1418.4z M681.1,1424.3h-1.2
				c-0.1,1-0.6,1.5-1.6,1.5c-0.7,0-1.2-0.3-1.4-0.8c-0.2-0.4-0.3-1-0.3-1.7c0-1.7,0.6-2.5,1.7-2.5c0.4,0,0.8,0.1,1.1,0.3
				c0.3,0.2,0.4,0.6,0.4,1h1.2c0-0.7-0.3-1.3-0.8-1.7c-0.5-0.4-1.1-0.5-1.8-0.5c-1,0-1.8,0.3-2.3,0.9c-0.5,0.6-0.8,1.4-0.8,2.4
				c0,2.3,1,3.4,3.1,3.4C680,1426.7,680.9,1425.9,681.1,1424.3L681.1,1424.3z M684.8,1426.7c-0.7,0-1.2-0.2-1.7-0.5
				c-0.5-0.4-0.7-0.9-0.7-1.5c0-0.8,0.4-1.4,1.1-1.7c0.6-0.3,1.3-0.4,2.1-0.4h1.1v-0.5c0-0.8-0.5-1.2-1.5-1.2c-0.8,0-1.2,0.3-1.2,1
				h-1.2c0.1-1.2,0.9-1.9,2.6-1.9c0.7,0,1.3,0.2,1.8,0.5c0.5,0.4,0.8,0.9,0.8,1.6v2.2c0,1.3,0.1,2.1,0.2,2.3H687
				c-0.1-0.1-0.1-0.4-0.2-1c-0.1,0.2-0.2,0.3-0.3,0.4C686.2,1426.4,685.6,1426.7,684.8,1426.7L684.8,1426.7z M686.8,1423.8v-0.5
				h-1.1c-1.3,0-2,0.4-2,1.3c0,0.7,0.5,1.1,1.4,1.1C686.2,1425.8,686.8,1425.1,686.8,1423.8L686.8,1423.8z M692.2,1426.7
				c-0.9,0-1.6-0.4-2.1-1.1c-0.4-0.6-0.6-1.4-0.6-2.4c0-1,0.2-1.7,0.6-2.3c0.5-0.7,1.2-1,2.1-1c0.9,0,1.5,0.3,2,0.9l0,0v-3.5h1.2
				v9.2h-1.2v-0.8l-0.1,0.1C693.7,1426.4,693,1426.7,692.2,1426.7L692.2,1426.7z M692.5,1420.7c-0.6,0-1.1,0.3-1.4,0.8
				c-0.2,0.4-0.4,1-0.4,1.7c0,0.7,0.1,1.3,0.4,1.7c0.3,0.6,0.8,0.8,1.4,0.8c0.6,0,1.1-0.3,1.4-0.8c0.2-0.4,0.4-1,0.4-1.7
				c0-0.7-0.1-1.3-0.4-1.7C693.6,1421,693.1,1420.7,692.5,1420.7L692.5,1420.7z M700.2,1426.7c-1,0-1.7-0.3-2.3-0.9
				c-0.5-0.6-0.8-1.4-0.8-2.4c0-1,0.2-1.9,0.7-2.5c0.5-0.7,1.3-1,2.3-1c0.9,0,1.6,0.3,2.1,0.8c0.5,0.6,0.7,1.4,0.7,2.4l0,0.4h-4.6
				c0.1,1.5,0.7,2.3,1.8,2.3c0.4,0,0.8-0.1,1.1-0.4c0.3-0.2,0.4-0.6,0.5-1h1.2C702.8,1425.9,701.9,1426.7,700.2,1426.7L700.2,1426.7
				z M701.8,1422.6c0-0.6-0.2-1-0.4-1.3c-0.3-0.3-0.7-0.5-1.3-0.5c-1,0-1.5,0.6-1.7,1.8H701.8L701.8,1422.6z M704.7,1426.5h1.2v-3.6
				c0-0.7,0.1-1.1,0.3-1.5c0.3-0.4,0.7-0.6,1.3-0.6c0.9,0,1.4,0.6,1.4,1.7v4h1.2v-3.6c0-0.7,0.1-1.1,0.3-1.5
				c0.3-0.4,0.7-0.6,1.3-0.6c0.9,0,1.4,0.6,1.4,1.7v4h1.2v-4c0-1.8-0.8-2.6-2.3-2.6c-0.8,0-1.4,0.3-1.8,0.8l-0.2,0.3
				c-0.1-0.2-0.2-0.4-0.4-0.6c-0.4-0.4-1-0.6-1.6-0.6c-0.8,0-1.4,0.3-1.8,0.8l-0.1,0.1v-0.8h-1.2V1426.5L704.7,1426.5z
				 M716.2,1417.3h1.3v1.2h-1.3V1417.3L716.2,1417.3z M716.3,1426.5v-6.4h1.2v6.4H716.3L716.3,1426.5z M725,1424.3h-1.2
				c-0.1,1-0.6,1.5-1.6,1.5c-0.7,0-1.2-0.3-1.4-0.8c-0.2-0.4-0.3-1-0.3-1.7c0-1.7,0.6-2.5,1.7-2.5c0.4,0,0.8,0.1,1.1,0.3
				c0.3,0.2,0.4,0.6,0.4,1h1.2c0-0.7-0.3-1.3-0.8-1.7c-0.5-0.4-1.1-0.5-1.8-0.5c-1,0-1.8,0.3-2.3,0.9c-0.5,0.6-0.8,1.4-0.8,2.4
				c0,2.3,1,3.4,3.1,3.4C723.9,1426.7,724.8,1425.9,725,1424.3L725,1424.3z M731.3,1426.5h5.7v-1h-4.5v-3.2h4.2v-1h-4.2v-2.9h4.4v-1
				h-5.6V1426.5L731.3,1426.5z M738.2,1426.5h1.4l1.8-2.6l1.8,2.6h1.5l-2.5-3.3l2.4-3.1h-1.4l-1.7,2.4l-1.7-2.4h-1.6l2.4,3.1
				L738.2,1426.5L738.2,1426.5z M751.6,1424.3h-1.2c-0.1,1-0.6,1.5-1.6,1.5c-0.7,0-1.2-0.3-1.4-0.8c-0.2-0.4-0.3-1-0.3-1.7
				c0-1.7,0.6-2.5,1.7-2.5c0.4,0,0.8,0.1,1.1,0.3c0.3,0.2,0.4,0.6,0.4,1h1.2c0-0.7-0.3-1.3-0.8-1.7c-0.5-0.4-1.1-0.5-1.8-0.5
				c-1,0-1.8,0.3-2.3,0.9c-0.5,0.6-0.8,1.4-0.8,2.4c0,2.3,1,3.4,3.1,3.4C750.6,1426.7,751.5,1425.9,751.6,1424.3L751.6,1424.3z
				 M753.2,1426.5h1.2v-3.6c0-0.7,0.1-1.2,0.4-1.5c0.3-0.4,0.8-0.5,1.4-0.5c0.6,0,1,0.2,1.2,0.5c0.2,0.3,0.3,0.8,0.3,1.4v3.8h1.2
				v-3.8c0-0.9-0.2-1.6-0.5-2c-0.4-0.5-1-0.7-1.9-0.7c-0.8,0-1.5,0.3-2,0.8l-0.1,0.2v-3.6h-1.2V1426.5L753.2,1426.5z M763,1426.7
				c-0.7,0-1.2-0.2-1.7-0.5c-0.5-0.4-0.7-0.9-0.7-1.5c0-0.8,0.4-1.4,1.1-1.7c0.6-0.3,1.3-0.4,2.1-0.4h1.1v-0.5
				c0-0.8-0.5-1.2-1.5-1.2c-0.8,0-1.2,0.3-1.2,1H761c0.1-1.2,0.9-1.9,2.6-1.9c0.7,0,1.3,0.2,1.8,0.5c0.5,0.4,0.8,0.9,0.8,1.6v2.2
				c0,1.3,0.1,2.1,0.2,2.3h-1.1c-0.1-0.1-0.1-0.4-0.2-1c-0.1,0.2-0.2,0.3-0.3,0.4C764.4,1426.4,763.8,1426.7,763,1426.7L763,1426.7z
				 M765,1423.8v-0.5h-1.1c-1.3,0-2,0.4-2,1.3c0,0.7,0.5,1.1,1.4,1.1C764.4,1425.8,765,1425.1,765,1423.8L765,1423.8z M768,1426.5
				h1.2v-3.6c0-0.7,0.1-1.2,0.4-1.5c0.3-0.4,0.8-0.5,1.4-0.5c0.6,0,1,0.2,1.2,0.5c0.2,0.3,0.3,0.7,0.3,1.4v3.8h1.2v-3.8
				c0-0.9-0.2-1.6-0.5-2c-0.4-0.5-1-0.7-1.9-0.7c-1,0-1.7,0.4-2.2,1.1v-0.9H768V1426.5L768,1426.5z M778.4,1428.2
				c0.7,0,1.2-0.2,1.4-0.5c0.2-0.3,0.3-0.8,0.3-1.5v-0.9l-0.2,0.3c-0.4,0.6-1,0.9-1.9,0.9c-0.9,0-1.6-0.3-2.1-1
				c-0.4-0.6-0.6-1.3-0.6-2.3c0-0.9,0.2-1.6,0.7-2.2c0.5-0.6,1.2-1,2.1-1c0.8,0,1.4,0.3,1.8,0.9l0.1,0.1v-0.8h1.2v6
				c0,1-0.2,1.8-0.7,2.2c-0.5,0.5-1.2,0.7-2.3,0.7c-1.7,0-2.6-0.7-2.6-2.1h1.2C777,1427.8,777.5,1428.2,778.4,1428.2L778.4,1428.2z
				 M778.4,1420.7c-0.6,0-1.1,0.2-1.4,0.7c-0.2,0.4-0.4,0.9-0.4,1.6c0,1.6,0.6,2.4,1.8,2.4c0.6,0,1.1-0.3,1.4-0.8
				c0.2-0.4,0.4-1,0.4-1.6s-0.1-1.2-0.4-1.6C779.5,1421,779,1420.7,778.4,1420.7L778.4,1420.7z M786.1,1426.7c-1,0-1.7-0.3-2.3-0.9
				c-0.5-0.6-0.8-1.4-0.8-2.4c0-1,0.2-1.9,0.7-2.5c0.5-0.7,1.3-1,2.3-1c0.9,0,1.6,0.3,2.1,0.8c0.5,0.6,0.7,1.4,0.7,2.4l0,0.4h-4.6
				c0.1,1.5,0.7,2.3,1.8,2.3c0.4,0,0.8-0.1,1.1-0.4c0.3-0.2,0.4-0.6,0.5-1h1.2C788.6,1425.9,787.7,1426.7,786.1,1426.7L786.1,1426.7
				z M787.7,1422.6c0-0.6-0.2-1-0.4-1.3c-0.3-0.3-0.7-0.5-1.3-0.5c-1,0-1.6,0.6-1.7,1.8H787.7L787.7,1422.6z M800.3,1419.6h1.3
				c-0.1-1.7-1.2-2.5-3.2-2.5c-1,0-1.8,0.2-2.4,0.6c-0.7,0.5-1.1,1.1-1.1,2.1c0,0.7,0.2,1.2,0.7,1.6c0.4,0.3,0.9,0.6,1.7,0.7
				l1.9,0.4c1,0.2,1.4,0.7,1.4,1.3c0,0.6-0.2,1.1-0.7,1.4c-0.4,0.3-0.9,0.4-1.6,0.4c-1.5,0-2.2-0.6-2.2-1.8h-1.3
				c0.2,1.9,1.3,2.9,3.5,2.9c1,0,1.8-0.2,2.4-0.7c0.7-0.5,1.1-1.3,1.1-2.2c0-0.7-0.2-1.3-0.7-1.7c-0.4-0.3-0.9-0.6-1.7-0.8l-1.9-0.4
				c-0.9-0.2-1.3-0.6-1.3-1.2c0-0.5,0.2-0.9,0.7-1.2c0.4-0.2,0.9-0.3,1.5-0.3c0.5,0,0.9,0.1,1.3,0.3
				C800.1,1418.7,800.3,1419.1,800.3,1419.6L800.3,1419.6z M806.3,1426.7c-1,0-1.7-0.3-2.3-0.9c-0.5-0.6-0.8-1.4-0.8-2.4
				c0-1,0.2-1.9,0.7-2.5c0.5-0.7,1.3-1,2.3-1c0.9,0,1.6,0.3,2.1,0.8c0.5,0.6,0.7,1.4,0.7,2.4l0,0.4h-4.6c0.1,1.5,0.6,2.3,1.8,2.3
				c0.4,0,0.8-0.1,1.1-0.4c0.3-0.2,0.4-0.6,0.5-1h1.2C808.8,1425.9,807.9,1426.7,806.3,1426.7L806.3,1426.7z M807.9,1422.6
				c0-0.6-0.2-1-0.4-1.3c-0.3-0.3-0.7-0.5-1.3-0.5c-1,0-1.6,0.6-1.7,1.8H807.9L807.9,1422.6z M810.7,1426.5h1.2v-3.3
				c0-0.8,0.1-1.3,0.4-1.7c0.3-0.4,0.8-0.6,1.4-0.5l0.2,0v-1.1l-0.3,0c-0.7,0-1.3,0.2-1.8,0.8v-0.7h-1.2V1426.5L810.7,1426.5z
				 M814.9,1420.1l2.6,6.4h1.3l2.6-6.4h-1.3l-2,5.5l-2-5.5H814.9L814.9,1420.1z M822.8,1417.3h1.3v1.2h-1.3V1417.3L822.8,1417.3z
				 M822.8,1426.5v-6.4h1.2v6.4H822.8L822.8,1426.5z M831.5,1424.3h-1.2c-0.1,1-0.6,1.5-1.6,1.5c-0.7,0-1.2-0.3-1.4-0.8
				c-0.2-0.4-0.3-1-0.3-1.7c0-1.7,0.6-2.5,1.7-2.5c0.4,0,0.8,0.1,1.1,0.3c0.3,0.2,0.4,0.6,0.4,1h1.2c0-0.7-0.3-1.3-0.8-1.7
				c-0.5-0.4-1.1-0.5-1.8-0.5c-1,0-1.8,0.3-2.3,0.9c-0.5,0.6-0.8,1.4-0.8,2.4c0,2.3,1,3.4,3.1,3.4
				C830.5,1426.7,831.4,1425.9,831.5,1424.3L831.5,1424.3z M835.9,1426.7c-1,0-1.7-0.3-2.3-0.9c-0.5-0.6-0.8-1.4-0.8-2.4
				c0-1,0.2-1.9,0.7-2.5c0.5-0.7,1.3-1,2.3-1c0.9,0,1.6,0.3,2.1,0.8c0.5,0.6,0.7,1.4,0.7,2.4l0,0.4h-4.6c0.1,1.5,0.6,2.3,1.8,2.3
				c0.4,0,0.8-0.1,1.1-0.4c0.3-0.2,0.4-0.6,0.5-1h1.2C838.4,1425.9,837.5,1426.7,835.9,1426.7L835.9,1426.7z M837.5,1422.6
				c0-0.6-0.2-1-0.4-1.3c-0.3-0.3-0.7-0.5-1.3-0.5c-1,0-1.6,0.6-1.7,1.8H837.5L837.5,1422.6z"/>
		</g>
		<g>
			<path fill="#231F20" d="M620.5,1450.6H619l-1.3-6.8l-1.2,6.8H615l-1.9-9.3h1.7l1.1,7l1.2-7h1.3l1.3,7l1.1-7h1.7L620.5,1450.6z"/>
			<path fill="#231F20" d="M629.9,1450.6h-1.5l-1.3-6.8l-1.2,6.8h-1.5l-1.9-9.3h1.7l1.1,7l1.2-7h1.3l1.3,7l1.1-7h1.7L629.9,1450.6z"
				/>
			<path fill="#231F20" d="M639.4,1450.6h-1.5l-1.3-6.8l-1.2,6.8H634l-1.9-9.3h1.7l1.1,7l1.2-7h1.3l1.3,7l1.1-7h1.7L639.4,1450.6z"
				/>
			<path fill="#231F20" d="M642,1450.6v-1.8h1.8v1.8H642z"/>
			<path fill="#231F20" d="M649.4,1450.6v-0.7c-0.1,0.2-0.4,0.5-0.6,0.6c-0.3,0.2-0.6,0.3-1,0.3c-0.6,0-1.1-0.2-1.5-0.7
				c-0.6-0.7-0.7-2-0.7-4.1s0.1-3.4,0.7-4.1c0.4-0.4,0.9-0.7,1.5-0.7c0.4,0,0.7,0.1,1,0.3c0.2,0.1,0.4,0.3,0.5,0.5v-4.1h1.5v12.8
				H649.4z M649.3,1443.7c0-0.5-0.1-0.8-0.4-1.1c-0.2-0.2-0.5-0.3-0.8-0.3c-0.3,0-0.6,0.1-0.8,0.4c-0.3,0.5-0.4,1.4-0.4,3.1
				s0,2.6,0.4,3.1c0.2,0.3,0.5,0.4,0.8,0.4c0.3,0,0.6-0.1,0.8-0.3c0.2-0.2,0.4-0.6,0.4-1.1V1443.7z"/>
			<path fill="#231F20" d="M655.8,1450.6v-0.8c-0.1,0.3-0.4,0.5-0.5,0.6c-0.3,0.2-0.6,0.3-1.1,0.3c-0.7,0-1.2-0.2-1.6-0.7
				c-0.4-0.4-0.6-1.1-0.6-2.1c0-0.9,0.3-1.6,0.8-2.1c0.5-0.4,1-0.6,2-0.6h1v-1.5c0-0.9-0.4-1.3-1.1-1.3c-0.3,0-0.5,0.1-0.7,0.3
				c-0.3,0.3-0.3,0.6-0.3,1.1h-1.5c0-0.7,0.2-1.4,0.7-2c0.4-0.4,1.1-0.7,1.8-0.7c0.8,0,1.4,0.2,1.8,0.6c0.4,0.5,0.7,1.1,0.7,2.1v6.8
				H655.8z M655.7,1446.2h-0.8c-0.4,0-0.8,0.1-1,0.3c-0.3,0.3-0.4,0.8-0.4,1.3c0,1,0.4,1.6,1.1,1.6c0.7,0,1.2-0.6,1.2-1.5V1446.2z"
				/>
			<path fill="#231F20" d="M662.1,1450.6v-0.8c-0.1,0.3-0.4,0.5-0.5,0.6c-0.3,0.2-0.6,0.3-1.1,0.3c-0.7,0-1.2-0.2-1.6-0.7
				c-0.4-0.4-0.6-1.1-0.6-2.1c0-0.9,0.3-1.6,0.8-2.1c0.5-0.4,1-0.6,2-0.6h1v-1.5c0-0.9-0.4-1.3-1.1-1.3c-0.3,0-0.5,0.1-0.7,0.3
				c-0.3,0.3-0.3,0.6-0.3,1.1h-1.5c0-0.7,0.2-1.4,0.7-2c0.4-0.4,1.1-0.7,1.8-0.7c0.8,0,1.4,0.2,1.8,0.6c0.4,0.5,0.7,1.1,0.7,2.1v6.8
				H662.1z M662,1446.2h-0.8c-0.4,0-0.8,0.1-1,0.3c-0.3,0.3-0.4,0.8-0.4,1.3c0,1,0.4,1.6,1.1,1.6c0.7,0,1.2-0.6,1.2-1.5V1446.2z"/>
			<path fill="#231F20" d="M668.4,1450.6v-0.7c-0.1,0.2-0.4,0.5-0.6,0.6c-0.3,0.2-0.6,0.3-1,0.3c-0.6,0-1.1-0.2-1.5-0.7
				c-0.6-0.7-0.7-2-0.7-4.1s0.1-3.4,0.7-4.1c0.4-0.4,0.9-0.7,1.5-0.7c0.4,0,0.7,0.1,1,0.3c0.2,0.1,0.4,0.3,0.5,0.5v-4.1h1.5v12.8
				H668.4z M668.4,1443.7c0-0.5-0.1-0.8-0.4-1.1c-0.2-0.2-0.5-0.3-0.8-0.3c-0.3,0-0.6,0.1-0.8,0.4c-0.3,0.5-0.4,1.4-0.4,3.1
				s0,2.6,0.4,3.1c0.2,0.3,0.5,0.4,0.8,0.4c0.3,0,0.6-0.1,0.8-0.3c0.2-0.2,0.4-0.6,0.4-1.1V1443.7z"/>
			<path fill="#231F20" d="M671.9,1450.6v-1.8h1.8v1.8H671.9z"/>
			<path fill="#231F20" d="M680.1,1449.8c-0.5,0.6-1.2,0.9-2,0.9c-0.8,0-1.5-0.2-2-0.9c-0.6-0.7-0.7-2.1-0.7-3.9
				c0-1.9,0.1-3.2,0.7-3.9c0.5-0.6,1.1-0.9,2-0.9c0.8,0,1.5,0.2,2,0.9c0.6,0.7,0.7,2.1,0.7,3.9
				C680.7,1447.8,680.7,1449.1,680.1,1449.8z M678.9,1442.8c-0.2-0.3-0.5-0.4-0.8-0.4c-0.3,0-0.6,0.1-0.8,0.4
				c-0.3,0.5-0.4,1.4-0.4,3.1s0,2.6,0.4,3.1c0.2,0.3,0.5,0.4,0.8,0.4c0.3,0,0.6-0.1,0.8-0.4c0.3-0.5,0.4-1.4,0.4-3.1
				S679.3,1443.2,678.9,1442.8z"/>
			<path fill="#231F20" d="M685.2,1442.5c-1,0-1.7,0.6-1.7,1.7v6.4h-1.5v-9.3h1.4v1c0.1-0.3,0.4-0.5,0.6-0.7
				c0.4-0.3,0.9-0.5,1.5-0.5v1.4H685.2z"/>
			<path fill="#231F20" d="M690.9,1453.4c-0.4,0.4-1.1,0.7-1.8,0.7c-0.7,0-1.4-0.2-1.9-0.7c-0.5-0.5-0.7-1.2-0.7-2h1.4
				c0,0.5,0.1,0.8,0.3,1.1c0.2,0.2,0.5,0.3,0.8,0.3c0.3,0,0.6-0.1,0.8-0.3c0.3-0.3,0.4-0.8,0.4-1.6v-1.4c-0.1,0.2-0.3,0.4-0.5,0.5
				c-0.3,0.2-0.6,0.3-1,0.3c-0.7,0-1.1-0.2-1.5-0.7c-0.6-0.7-0.7-1.7-0.7-3.9s0.2-3.3,0.7-3.9c0.4-0.4,0.8-0.7,1.5-0.7
				c0.4,0,0.7,0.1,1,0.3c0.2,0.1,0.4,0.3,0.5,0.5v-0.7h1.4v9.6C691.7,1452.2,691.5,1452.9,690.9,1453.4z M690.2,1443.7
				c0-0.5-0.1-0.8-0.4-1.1c-0.2-0.2-0.5-0.3-0.8-0.3c-0.4,0-0.6,0.2-0.8,0.4c-0.3,0.4-0.4,1.4-0.4,2.9c0,1.5,0,2.5,0.4,2.9
				c0.2,0.2,0.4,0.4,0.8,0.4c0.3,0,0.6-0.1,0.8-0.3c0.2-0.2,0.4-0.6,0.4-1.1V1443.7z"/>
		</g>
	</g>
	<g clip-path="url(#SVGID_2_)">
		<path fill="#231F20" d="M615.2,1272.6v-21.2h6.8v1.1h-5.6v9h4.9v1.1h-4.9v9h5.6v1.1H615.2z M619.3,1249.8h-1.2l1.9-3.7h1.4
			L619.3,1249.8z"/>
		<path fill="#231F20" d="M626.8,1271.6c-0.7-0.7-1-1.6-1-2.8v-10.2h-1.9v-0.9h1.9v-4.6h1.1v4.6h2.7v0.9H627v10.3
			c0,1.9,1,2.7,2.9,2.7v1C628.7,1272.6,627.7,1272.5,626.8,1271.6z"/>
		<path fill="#231F20" d="M638,1272.6v-1.2c-0.1,0.3-0.5,0.7-0.8,0.9c-0.5,0.4-1,0.6-1.8,0.6c-0.9,0-1.7-0.4-2.2-1
			c-0.6-0.6-0.9-1.4-0.9-2.8v-11.4h1.1v11.4c0,1.8,1,2.7,2.3,2.7s2.3-0.9,2.3-2.7v-11.4h1.1v14.9H638z"/>
		<path fill="#231F20" d="M648.4,1272.6v-1.2c-0.1,0.3-0.5,0.7-0.8,0.9c-0.5,0.4-1.1,0.6-1.8,0.6c-0.8,0-1.6-0.4-2.2-1
			c-0.9-1-1.1-2.8-1.1-6.7s0.2-5.7,1.1-6.7c0.5-0.6,1.2-1,2.2-1c0.7,0,1.3,0.1,1.8,0.5c0.3,0.2,0.6,0.6,0.8,0.9v-7.4h1.1v21.2H648.4
			z M648.4,1261.3c0-1.1-0.3-1.8-0.8-2.3c-0.4-0.4-1-0.6-1.6-0.6c-0.7,0-1.2,0.3-1.5,0.7c-0.8,0.9-0.9,2.4-0.9,6
			c0,3.6,0.1,5.1,0.9,6c0.4,0.4,0.9,0.7,1.5,0.7c0.6,0,1.2-0.2,1.6-0.6c0.5-0.5,0.8-1.2,0.8-2.3V1261.3z"/>
		<path fill="#231F20" d="M654,1265.1c0,3.6,0.1,5.1,0.9,6c0.4,0.4,0.9,0.7,1.6,0.7c0.6,0,1.2-0.2,1.6-0.6c0.5-0.5,0.8-1.3,0.8-2.4
			h1.1c0,1.5-0.3,2.3-1,3.1c-0.6,0.6-1.5,1-2.5,1c-1.1,0-1.9-0.4-2.5-1c-0.9-1-1.2-2.8-1.2-6.7s0.2-5.7,1.1-6.7c0.6-0.6,1.4-1,2.5-1
			c1.1,0,1.9,0.4,2.5,1c0.9,1,1.1,2.8,1.1,6.7H654z M658.1,1259.1c-0.4-0.4-0.9-0.7-1.6-0.7c-0.7,0-1.2,0.3-1.6,0.7
			c-0.7,0.8-0.8,2.1-0.9,5.1h4.9C658.9,1261.2,658.8,1259.9,658.1,1259.1z"/>
		<path fill="#231F20" d="M669.9,1265.1c0,3.6,0.1,5.1,0.9,6c0.4,0.4,0.9,0.7,1.6,0.7c0.6,0,1.2-0.2,1.6-0.6
			c0.5-0.5,0.8-1.3,0.8-2.4h1.1c0,1.5-0.3,2.3-1,3.1c-0.6,0.6-1.5,1-2.5,1c-1.1,0-1.9-0.4-2.5-1c-0.9-1-1.2-2.8-1.2-6.7
			s0.2-5.7,1.1-6.7c0.6-0.6,1.4-1,2.5-1c1.1,0,1.9,0.4,2.5,1c0.9,1,1.1,2.8,1.1,6.7H669.9z M674,1259.1c-0.4-0.4-0.9-0.7-1.6-0.7
			c-0.7,0-1.2,0.3-1.6,0.7c-0.7,0.8-0.8,2.1-0.9,5.1h4.9C674.8,1261.2,674.7,1259.9,674,1259.1z"/>
		<path fill="#231F20" d="M684.9,1272.6v-11.4c0-1.8-1-2.7-2.3-2.7c-1.3,0-2.3,0.9-2.3,2.7v11.4h-1.1v-14.9h1.1v1.2
			c0.1-0.3,0.5-0.7,0.8-0.9c0.5-0.4,1-0.6,1.8-0.6c0.9,0,1.7,0.4,2.2,1c0.6,0.6,0.9,1.4,0.9,2.8v11.4H684.9z"/>
		<path fill="#231F20" d="M702.7,1272.6l-1.3-6.4h-4.9l-1.2,6.4h-1.3l4.5-21.2h1.1l4.5,21.2H702.7z M698.9,1253.8l-2.2,11.3h4.5
			L698.9,1253.8z"/>
		<path fill="#231F20" d="M706.9,1271.6c-0.6-0.6-1-1.4-1-2.8v-17.4h1.1v17.5c0,1.8,0.8,2.7,2.6,2.7v1
			C708.6,1272.6,707.6,1272.4,706.9,1271.6z"/>
		<path fill="#231F20" d="M712.8,1271.6c-0.6-0.6-1-1.4-1-2.8v-17.4h1.1v17.5c0,1.8,0.8,2.7,2.6,2.7v1
			C714.5,1272.6,713.6,1272.4,712.8,1271.6z"/>
		<path fill="#231F20" d="M718.6,1265.1c0,3.6,0.1,5.1,0.9,6c0.4,0.4,0.9,0.7,1.6,0.7c0.6,0,1.2-0.2,1.6-0.6
			c0.5-0.5,0.8-1.3,0.8-2.4h1.1c0,1.5-0.3,2.3-1,3.1c-0.6,0.6-1.5,1-2.5,1c-1.1,0-1.9-0.4-2.5-1c-0.9-1-1.2-2.8-1.2-6.7
			s0.2-5.7,1.1-6.7c0.6-0.6,1.4-1,2.5-1c1.1,0,1.9,0.4,2.5,1c0.9,1,1.1,2.8,1.1,6.7H718.6z M722.6,1259.1c-0.4-0.4-0.9-0.7-1.6-0.7
			c-0.7,0-1.2,0.3-1.6,0.7c-0.7,0.8-0.8,2.1-0.9,5.1h4.9C723.5,1261.2,723.3,1259.9,722.6,1259.1z"/>
		<path fill="#231F20" d="M739.3,1272.6v-11.4c0-1.8-1-2.7-2.3-2.7c-1.3,0-2.3,0.9-2.3,2.7v11.4h-1.1v-11.4c0-1.8-1-2.7-2.3-2.7
			s-2.3,0.9-2.3,2.7v11.4h-1.1v-14.9h1.1v1.2c0.1-0.3,0.5-0.7,0.8-0.9c0.5-0.4,1-0.6,1.8-0.6c1.1,0,2.2,0.7,2.7,1.6
			c0.2-0.4,0.6-0.8,0.9-1c0.5-0.4,1.1-0.6,1.9-0.6c1.2,0,1.8,0.4,2.4,1c0.6,0.6,0.9,1.4,0.9,2.8v11.4H739.3z"/>
		<path fill="#231F20" d="M749.2,1272.6v-1.4c-0.2,0.4-0.6,0.8-0.8,1c-0.5,0.4-1,0.6-1.8,0.6c-0.8,0-1.6-0.3-2.2-0.9
			c-0.5-0.6-1-1.7-1-3.4c0-1.4,0.4-2.6,1.2-3.4c0.7-0.7,1.5-1,2.8-1h1.8v-2.9c0-1.8-0.7-2.9-2.3-2.9c-0.6,0-1.1,0.2-1.5,0.6
			c-0.6,0.6-0.7,1.2-0.7,2.3h-1.1c0-1.1,0.2-2.2,1-3c0.6-0.6,1.3-0.9,2.3-0.9c1.1,0,1.9,0.3,2.5,0.9c0.7,0.7,1,1.5,1,2.9v11.4H749.2
			z M749.2,1265.1h-1.9c-0.8,0-1.4,0.2-1.9,0.7c-0.6,0.5-0.9,1.5-0.9,2.7c0,2,0.7,3.3,2.3,3.3c1.5,0,2.4-1.3,2.4-3V1265.1z"/>
		<path fill="#231F20" d="M759.5,1277.8c-0.6,0.6-1.4,1-2.4,1c-1,0-1.9-0.3-2.5-0.9c-0.7-0.7-1-1.7-1-3.1h1.1c0,1,0.1,1.8,0.7,2.4
			c0.4,0.4,1,0.6,1.6,0.6c0.7,0,1.2-0.3,1.6-0.7c0.6-0.7,0.8-1.8,0.8-4.1v-1.6c-0.1,0.3-0.5,0.7-0.8,0.9c-0.5,0.4-1,0.5-1.8,0.5
			c-0.8,0-1.6-0.4-2.2-1c-0.9-1-1.1-2.8-1.1-6.7s0.2-5.7,1.1-6.7c0.5-0.6,1.2-1,2.2-1c0.7,0,1.3,0.2,1.8,0.6
			c0.2,0.2,0.6,0.6,0.8,0.9v-1.2h1.1v15.4C760.6,1275.8,760.4,1276.8,759.5,1277.8z M759.5,1261.3c0-1.1-0.3-1.8-0.8-2.3
			c-0.4-0.4-1-0.6-1.6-0.6c-0.7,0-1.2,0.3-1.5,0.7c-0.8,0.9-0.9,2.4-0.9,6c0,3.6,0.1,5.1,0.9,6c0.4,0.4,0.9,0.7,1.5,0.7
			c0.6,0,1.2-0.2,1.6-0.6c0.5-0.5,0.8-1.2,0.8-2.3V1261.3z"/>
		<path fill="#231F20" d="M770.2,1272.6v-11.4c0-1.8-1-2.7-2.3-2.7s-2.3,0.9-2.3,2.7v11.4h-1.1v-14.9h1.1v1.2
			c0.1-0.3,0.5-0.7,0.8-0.9c0.5-0.4,1-0.6,1.8-0.6c0.9,0,1.7,0.4,2.2,1c0.6,0.6,0.9,1.4,0.9,2.8v11.4H770.2z"/>
		<path fill="#231F20" d="M775.7,1265.1c0,3.6,0.1,5.1,0.9,6c0.4,0.4,0.9,0.7,1.6,0.7c0.6,0,1.2-0.2,1.6-0.6
			c0.5-0.5,0.8-1.3,0.8-2.4h1.1c0,1.5-0.3,2.3-1,3.1c-0.6,0.6-1.5,1-2.5,1c-1.1,0-1.9-0.4-2.5-1c-0.9-1-1.2-2.8-1.2-6.7
			s0.2-5.7,1.1-6.7c0.6-0.6,1.4-1,2.5-1c1.1,0,1.9,0.4,2.5,1c0.9,1,1.1,2.8,1.1,6.7H775.7z M779.8,1259.1c-0.4-0.4-0.9-0.7-1.6-0.7
			c-0.7,0-1.2,0.3-1.6,0.7c-0.7,0.8-0.8,2.1-0.9,5.1h4.9C780.7,1261.2,780.5,1259.9,779.8,1259.1z"/>
		<path fill="#231F20" d="M785,1272.6v-1.7h1.7v1.7H785z"/>
		<path fill="#231F20" d="M621.6,1307.4c-0.7,0.7-1.6,1-3,1c-1.3,0-2.3-0.3-3-1c-0.9-1-1.2-1.9-1.2-4.3h1.2c0,1.8,0.2,2.7,0.9,3.4
			c0.5,0.5,1.2,0.8,2.1,0.8c1,0,1.7-0.3,2.2-0.8c0.8-0.8,1-1.8,1-3.7c0-2.8-0.4-3.9-2.3-4.6l-2.2-0.9c-2.2-0.9-2.7-2.1-2.7-5.3
			c0-1.8,0.4-3.2,1.3-4.1c0.7-0.7,1.7-1.1,2.9-1.1c1.2,0,2.3,0.4,3,1.1c1,1,1.2,2.2,1.2,3.9h-1.2c0-1.5-0.2-2.3-0.9-3.1
			c-0.5-0.5-1.2-0.8-2.1-0.8c-0.9,0-1.5,0.3-2,0.7c-0.7,0.7-1,1.9-1,3.4c0,2.7,0.4,3.5,2.5,4.4l2.2,0.9c2.2,0.9,2.6,2.6,2.6,5.5
			C622.9,1305.1,622.5,1306.4,621.6,1307.4z"/>
		<path fill="#231F20" d="M627.7,1307.3c-0.7-0.7-1-1.6-1-2.8v-10.2h-1.9v-0.9h1.9v-4.6h1.1v4.6h2.7v0.9h-2.7v10.3
			c0,1.9,1,2.7,2.9,2.7v1C629.6,1308.2,628.5,1308.1,627.7,1307.3z"/>
		<path fill="#231F20" d="M638.8,1308.2v-1.2c-0.1,0.3-0.5,0.7-0.8,0.9c-0.5,0.4-1,0.6-1.8,0.6c-0.9,0-1.7-0.4-2.2-1
			c-0.6-0.6-0.9-1.4-0.9-2.8v-11.4h1.1v11.4c0,1.8,1,2.7,2.3,2.7c1.3,0,2.3-0.9,2.3-2.7v-11.4h1.1v14.9H638.8z"/>
		<path fill="#231F20" d="M649.2,1308.2v-1.2c-0.1,0.3-0.5,0.7-0.8,0.9c-0.5,0.4-1.1,0.6-1.8,0.6c-0.8,0-1.6-0.4-2.2-1
			c-0.9-1-1.1-2.8-1.1-6.7s0.2-5.7,1.1-6.7c0.5-0.6,1.2-1,2.2-1c0.7,0,1.3,0.1,1.8,0.5c0.3,0.2,0.6,0.6,0.8,0.9v-7.4h1.1v21.2H649.2
			z M649.2,1297c0-1.1-0.3-1.8-0.8-2.3c-0.4-0.4-1-0.6-1.6-0.6c-0.7,0-1.2,0.3-1.5,0.7c-0.8,0.9-0.9,2.4-0.9,6c0,3.6,0.1,5.1,0.9,6
			c0.4,0.4,0.9,0.7,1.5,0.7c0.6,0,1.2-0.2,1.6-0.6c0.5-0.5,0.8-1.2,0.8-2.3V1297z"/>
		<path fill="#231F20" d="M654,1289.3v-1.7h1.7v1.7H654z M654.3,1308.2v-14.9h1.1v14.9H654.3z"/>
		<path fill="#231F20" d="M659.9,1300.8c0,3.6,0.1,5.1,0.9,6c0.4,0.4,0.9,0.7,1.6,0.7c0.6,0,1.2-0.2,1.6-0.6
			c0.5-0.5,0.8-1.3,0.8-2.4h1.1c0,1.5-0.3,2.3-1,3.1c-0.6,0.6-1.5,1-2.5,1c-1.1,0-1.9-0.4-2.5-1c-0.9-1-1.2-2.8-1.2-6.7
			s0.2-5.7,1.1-6.7c0.6-0.6,1.4-1,2.5-1c1.1,0,1.9,0.4,2.5,1c0.9,1,1.1,2.8,1.1,6.7H659.9z M664,1294.8c-0.4-0.4-0.9-0.7-1.6-0.7
			c-0.7,0-1.2,0.3-1.6,0.7c-0.7,0.8-0.8,2.1-0.9,5.1h4.9C664.8,1296.9,664.7,1295.6,664,1294.8z"/>
		<path fill="#231F20" d="M680.2,1308.2v-1.4c-0.2,0.4-0.6,0.8-0.8,1c-0.5,0.4-1,0.6-1.8,0.6c-0.8,0-1.6-0.3-2.2-0.9
			c-0.5-0.6-1-1.7-1-3.4c0-1.4,0.4-2.6,1.2-3.4c0.7-0.7,1.5-1,2.8-1h1.8v-2.9c0-1.8-0.7-2.9-2.3-2.9c-0.6,0-1.1,0.2-1.5,0.6
			c-0.6,0.6-0.7,1.2-0.7,2.3h-1.1c0-1.1,0.2-2.2,1-3c0.6-0.6,1.3-0.9,2.3-0.9c1.1,0,1.9,0.3,2.5,0.9c0.7,0.7,1,1.5,1,2.9v11.4H680.2
			z M680.2,1300.8h-1.9c-0.8,0-1.4,0.2-1.9,0.7c-0.6,0.5-0.9,1.5-0.9,2.7c0,2,0.7,3.3,2.3,3.3c1.5,0,2.4-1.3,2.4-3V1300.8z"/>
		<path fill="#231F20" d="M690.7,1308.2v-1.2c-0.1,0.3-0.5,0.7-0.8,0.9c-0.5,0.4-1,0.6-1.8,0.6c-0.9,0-1.7-0.4-2.2-1
			c-0.6-0.6-0.9-1.4-0.9-2.8v-11.4h1.1v11.4c0,1.8,1,2.7,2.3,2.7c1.3,0,2.3-0.9,2.3-2.7v-11.4h1.1v14.9H690.7z"/>
		<path fill="#231F20" d="M701.2,1307.4c-0.7,0.7-1.6,1.1-2.7,1.1c-1.1,0-1.9-0.4-2.5-1c-0.9-0.9-1.1-2-1.1-3.2h1.1
			c0,1.1,0.2,1.9,0.9,2.5c0.4,0.4,1,0.7,1.6,0.7c0.8,0,1.4-0.3,1.9-0.7c0.5-0.5,0.8-1.2,0.8-2.1c0-0.7-0.1-1.3-0.4-1.8
			c-0.3-0.6-0.9-1-1.6-1.4l-1.8-1.1c-0.9-0.6-1.6-1.2-1.8-1.8c-0.3-0.5-0.4-1.1-0.4-1.8c0-1,0.4-2,1.1-2.6c0.6-0.6,1.5-1,2.5-1
			c1.1,0,1.8,0.3,2.5,1c0.7,0.7,1,1.8,1,3.2H701c0-1.3-0.2-1.9-0.7-2.5c-0.4-0.5-1-0.7-1.6-0.7c-0.7,0-1.3,0.2-1.7,0.6
			c-0.5,0.5-0.7,1.3-0.7,2c0,0.6,0.1,1,0.3,1.5c0.2,0.4,0.7,0.8,1.5,1.2l1.8,1.1c0.9,0.6,1.6,1.1,2,1.8c0.4,0.7,0.6,1.5,0.6,2.3
			C702.3,1305.7,701.8,1306.7,701.2,1307.4z"/>
		<path fill="#231F20" d="M713.5,1308.2h-1.3l-2.4-13.2l-2.3,13.2h-1.3l-2.7-14.9h1.4l2,13.2l2.3-13.2h1.3l2.4,13.2l2-13.2h1.4
			L713.5,1308.2z"/>
		<path fill="#231F20" d="M723.7,1308.2v-1.4c-0.2,0.4-0.6,0.8-0.8,1c-0.5,0.4-1,0.6-1.8,0.6c-0.8,0-1.6-0.3-2.2-0.9
			c-0.5-0.6-1-1.7-1-3.4c0-1.4,0.4-2.6,1.2-3.4c0.7-0.7,1.5-1,2.8-1h1.8v-2.9c0-1.8-0.7-2.9-2.3-2.9c-0.6,0-1.1,0.2-1.5,0.6
			c-0.6,0.6-0.7,1.2-0.7,2.3H718c0-1.1,0.2-2.2,1-3c0.6-0.6,1.3-0.9,2.3-0.9c1.1,0,1.9,0.3,2.5,0.9c0.7,0.7,1,1.5,1,2.9v11.4H723.7z
			 M718.9,1290.1v-1.5h1.5v1.5H718.9z M723.7,1300.8h-1.9c-0.8,0-1.4,0.2-1.9,0.7c-0.6,0.5-0.9,1.5-0.9,2.7c0,2,0.7,3.3,2.3,3.3
			c1.5,0,2.4-1.3,2.4-3V1300.8z M722.6,1290.1v-1.5h1.5v1.5H722.6z"/>
		<path fill="#231F20" d="M732.8,1294.1c-1.9,0-3,1.2-3,3v11.1h-1.1v-14.9h1.1v1.6c0.1-0.3,0.4-0.7,0.5-0.8c0.7-0.7,1.6-1,2.6-1v1
			H732.8z"/>
		<path fill="#231F20" d="M736.7,1307.3c-0.7-0.7-1-1.6-1-2.8v-10.2h-1.9v-0.9h1.9v-4.6h1.1v4.6h2.7v0.9h-2.7v10.3
			c0,1.9,1,2.7,2.9,2.7v1C738.6,1308.2,737.5,1308.1,736.7,1307.3z"/>
		<path fill="#231F20" d="M747.7,1307.4c-0.7,0.7-1.6,1.1-2.7,1.1c-1.1,0-1.9-0.4-2.5-1c-0.9-0.9-1.1-2-1.1-3.2h1.1
			c0,1.1,0.2,1.9,0.9,2.5c0.4,0.4,1,0.7,1.6,0.7c0.8,0,1.4-0.3,1.9-0.7c0.5-0.5,0.8-1.2,0.8-2.1c0-0.7-0.1-1.3-0.4-1.8
			c-0.3-0.6-0.9-1-1.6-1.4l-1.8-1.1c-0.9-0.6-1.6-1.2-1.8-1.8c-0.3-0.5-0.4-1.1-0.4-1.8c0-1,0.4-2,1.1-2.6c0.6-0.6,1.5-1,2.5-1
			c1.1,0,1.8,0.3,2.5,1c0.7,0.7,1,1.8,1,3.2h-1.1c0-1.3-0.2-1.9-0.7-2.5c-0.4-0.5-1-0.7-1.6-0.7c-0.7,0-1.3,0.2-1.7,0.6
			c-0.5,0.5-0.7,1.3-0.7,2c0,0.6,0.1,1,0.3,1.5c0.2,0.4,0.7,0.8,1.5,1.2l1.8,1.1c0.9,0.6,1.6,1.1,2,1.8c0.4,0.7,0.6,1.5,0.6,2.3
			C748.8,1305.7,748.4,1306.7,747.7,1307.4z"/>
		<path fill="#231F20" d="M757.5,1289.3v-1.7h1.7v1.7H757.5z M757.7,1308.2v-14.9h1.1v14.9H757.7z"/>
		<path fill="#231F20" d="M768.5,1308.2v-11.4c0-1.8-1-2.7-2.3-2.7c-1.3,0-2.3,0.9-2.3,2.7v11.4h-1.1v-14.9h1.1v1.2
			c0.1-0.3,0.5-0.7,0.8-0.9c0.5-0.4,1-0.6,1.8-0.6c0.9,0,1.7,0.4,2.2,1c0.6,0.6,0.9,1.4,0.9,2.8v11.4H768.5z"/>
		<path fill="#231F20" d="M786.3,1307.2c-0.7,0.7-1.6,1-2.8,1h-4v-21.2h4c1.2,0,2.1,0.4,2.8,1c1.2,1.3,1.5,2.3,1.5,9.6
			S787.5,1306,786.3,1307.2z M785.4,1288.8c-0.4-0.4-1.1-0.7-2-0.7h-2.7v19h2.7c0.9,0,1.5-0.2,2-0.7c1-1,1.2-1.9,1.2-8.8
			S786.4,1289.8,785.4,1288.8z"/>
		<path fill="#231F20" d="M792,1300.8c0,3.6,0.1,5.1,0.9,6c0.4,0.4,0.9,0.7,1.6,0.7c0.6,0,1.2-0.2,1.6-0.6c0.5-0.5,0.8-1.3,0.8-2.4
			h1.1c0,1.5-0.3,2.3-1,3.1c-0.6,0.6-1.5,1-2.5,1c-1.1,0-1.9-0.4-2.5-1c-0.9-1-1.2-2.8-1.2-6.7s0.2-5.7,1.1-6.7c0.6-0.6,1.4-1,2.5-1
			c1.1,0,1.9,0.4,2.5,1c0.9,1,1.1,2.8,1.1,6.7H792z M796.1,1294.8c-0.4-0.4-0.9-0.7-1.6-0.7c-0.7,0-1.2,0.3-1.6,0.7
			c-0.7,0.8-0.8,2.1-0.9,5.1h4.9C796.9,1296.9,796.8,1295.6,796.1,1294.8z"/>
		<path fill="#231F20" d="M806.9,1308.2v-1.2c-0.1,0.3-0.5,0.7-0.8,0.9c-0.5,0.4-1,0.6-1.8,0.6c-0.9,0-1.7-0.4-2.2-1
			c-0.6-0.6-0.9-1.4-0.9-2.8v-11.4h1.1v11.4c0,1.8,1,2.7,2.3,2.7c1.3,0,2.3-0.9,2.3-2.7v-11.4h1.1v14.9H806.9z"/>
		<path fill="#231F20" d="M813.3,1307.3c-0.7-0.7-1-1.6-1-2.8v-10.2h-1.9v-0.9h1.9v-4.6h1.1v4.6h2.7v0.9h-2.7v10.3
			c0,1.9,1,2.7,2.9,2.7v1C815.2,1308.2,814.2,1308.1,813.3,1307.3z"/>
		<path fill="#231F20" d="M824.3,1307.4c-0.7,0.7-1.6,1.1-2.7,1.1c-1.1,0-1.9-0.4-2.5-1c-0.9-0.9-1.1-2-1.1-3.2h1.1
			c0,1.1,0.2,1.9,0.9,2.5c0.4,0.4,1,0.7,1.6,0.7c0.8,0,1.4-0.3,1.9-0.7c0.5-0.5,0.8-1.2,0.8-2.1c0-0.7-0.1-1.3-0.4-1.8
			c-0.3-0.6-0.9-1-1.6-1.4l-1.8-1.1c-0.9-0.6-1.6-1.2-1.8-1.8c-0.3-0.5-0.4-1.1-0.4-1.8c0-1,0.4-2,1.1-2.6c0.6-0.6,1.5-1,2.5-1
			c1.1,0,1.8,0.3,2.5,1c0.7,0.7,1,1.8,1,3.2h-1.1c0-1.3-0.2-1.9-0.7-2.5c-0.4-0.5-1-0.7-1.6-0.7c-0.7,0-1.3,0.2-1.7,0.6
			c-0.5,0.5-0.7,1.3-0.7,2c0,0.6,0.1,1,0.3,1.5c0.2,0.4,0.7,0.8,1.5,1.2l1.8,1.1c0.9,0.6,1.6,1.1,2,1.8c0.4,0.7,0.6,1.5,0.6,2.3
			C825.4,1305.7,825,1306.7,824.3,1307.4z"/>
		<path fill="#231F20" d="M834,1307.6c-0.6,0.6-1.5,0.9-2.5,0.9c-1,0-1.9-0.4-2.5-1c-0.9-1-1.1-2.8-1.1-6.7s0.2-5.7,1.1-6.7
			c0.6-0.6,1.5-1,2.5-1c1.1,0,1.9,0.3,2.5,0.9c0.9,0.9,1,2,1,3.2h-1.1c0-0.9,0-1.7-0.7-2.4c-0.4-0.4-1-0.6-1.6-0.6
			c-0.7,0-1.3,0.3-1.6,0.7c-0.8,0.9-0.9,2.4-0.9,6c0,3.6,0.1,5.1,0.9,6c0.4,0.4,0.9,0.7,1.6,0.7c0.6,0,1.2-0.2,1.6-0.6
			c0.6-0.6,0.7-1.4,0.7-2.4h1.1C834.9,1305.9,834.7,1306.8,834,1307.6z"/>
		<path fill="#231F20" d="M843.8,1308.2v-11.4c0-1.8-1-2.7-2.3-2.7c-1.3,0-2.3,0.9-2.3,2.7v11.4h-1.1v-21.2h1.1v7.5
			c0.1-0.3,0.5-0.7,0.8-0.9c0.5-0.4,1-0.6,1.8-0.6c0.9,0,1.7,0.4,2.2,1c0.6,0.6,0.9,1.4,0.9,2.8v11.4H843.8z"/>
		<path fill="#231F20" d="M849.5,1307.3c-0.6-0.6-1-1.4-1-2.8v-17.4h1.1v17.5c0,1.8,0.8,2.7,2.6,2.7v1
			C851.2,1308.2,850.2,1308,849.5,1307.3z"/>
		<path fill="#231F20" d="M859.7,1308.2v-1.4c-0.2,0.4-0.6,0.8-0.8,1c-0.5,0.4-1,0.6-1.8,0.6c-0.8,0-1.6-0.3-2.2-0.9
			c-0.5-0.6-1-1.7-1-3.4c0-1.4,0.4-2.6,1.2-3.4c0.7-0.7,1.5-1,2.8-1h1.8v-2.9c0-1.8-0.7-2.9-2.3-2.9c-0.6,0-1.1,0.2-1.5,0.6
			c-0.6,0.6-0.7,1.2-0.7,2.3H854c0-1.1,0.2-2.2,1-3c0.6-0.6,1.3-0.9,2.3-0.9c1.1,0,1.9,0.3,2.5,0.9c0.7,0.7,1,1.5,1,2.9v11.4H859.7z
			 M859.7,1300.8h-1.9c-0.8,0-1.4,0.2-1.9,0.7c-0.6,0.5-0.9,1.5-0.9,2.7c0,2,0.7,3.3,2.3,3.3c1.5,0,2.4-1.3,2.4-3V1300.8z"/>
		<path fill="#231F20" d="M870.3,1308.2v-11.4c0-1.8-1-2.7-2.3-2.7s-2.3,0.9-2.3,2.7v11.4h-1.1v-14.9h1.1v1.2
			c0.1-0.3,0.5-0.7,0.8-0.9c0.5-0.4,1-0.6,1.8-0.6c0.9,0,1.7,0.4,2.2,1c0.6,0.6,0.9,1.4,0.9,2.8v11.4H870.3z"/>
		<path fill="#231F20" d="M880.6,1308.2v-1.2c-0.1,0.3-0.5,0.7-0.8,0.9c-0.5,0.4-1.1,0.6-1.8,0.6c-0.8,0-1.6-0.4-2.2-1
			c-0.9-1-1.1-2.8-1.1-6.7s0.2-5.7,1.1-6.7c0.5-0.6,1.2-1,2.2-1c0.7,0,1.3,0.1,1.8,0.5c0.3,0.2,0.6,0.6,0.8,0.9v-7.4h1.1v21.2H880.6
			z M880.6,1297c0-1.1-0.3-1.8-0.8-2.3c-0.4-0.4-1-0.6-1.6-0.6c-0.7,0-1.2,0.3-1.5,0.7c-0.8,0.9-0.9,2.4-0.9,6c0,3.6,0.1,5.1,0.9,6
			c0.4,0.4,0.9,0.7,1.5,0.7c0.6,0,1.2-0.2,1.6-0.6c0.5-0.5,0.8-1.2,0.8-2.3V1297z"/>
		<path fill="#231F20" d="M885.6,1308.2v-1.7h1.7v1.7H885.6z"/>
		<path fill="#231F20" d="M621.6,1343.1c-0.7,0.7-1.6,1-3,1c-1.3,0-2.3-0.3-3-1c-0.9-1-1.2-1.9-1.2-4.3h1.2c0,1.8,0.2,2.7,0.9,3.4
			c0.5,0.5,1.2,0.8,2.1,0.8c1,0,1.7-0.3,2.2-0.8c0.8-0.8,1-1.8,1-3.7c0-2.8-0.4-3.9-2.3-4.6l-2.2-0.9c-2.2-0.9-2.7-2.1-2.7-5.3
			c0-1.8,0.4-3.2,1.3-4.1c0.7-0.7,1.7-1.1,2.9-1.1c1.2,0,2.3,0.4,3,1.1c1,1,1.2,2.2,1.2,3.9h-1.2c0-1.5-0.2-2.3-0.9-3.1
			c-0.5-0.5-1.2-0.8-2.1-0.8c-0.9,0-1.5,0.3-2,0.7c-0.7,0.7-1,1.9-1,3.4c0,2.7,0.4,3.5,2.5,4.4l2.2,0.9c2.2,0.9,2.6,2.6,2.6,5.5
			C622.9,1340.8,622.5,1342.1,621.6,1343.1z"/>
		<path fill="#231F20" d="M627.7,1343c-0.7-0.7-1-1.6-1-2.8v-10.2h-1.9v-0.9h1.9v-4.6h1.1v4.6h2.7v0.9h-2.7v10.3
			c0,1.9,1,2.7,2.9,2.7v1C629.6,1343.9,628.5,1343.8,627.7,1343z"/>
		<path fill="#231F20" d="M638.8,1343.9v-1.2c-0.1,0.3-0.5,0.7-0.8,0.9c-0.5,0.4-1,0.6-1.8,0.6c-0.9,0-1.7-0.4-2.2-1
			c-0.6-0.6-0.9-1.4-0.9-2.8V1329h1.1v11.4c0,1.8,1,2.7,2.3,2.7c1.3,0,2.3-0.9,2.3-2.7V1329h1.1v14.9H638.8z"/>
		<path fill="#231F20" d="M649.2,1343.9v-1.2c-0.1,0.3-0.5,0.7-0.8,0.9c-0.5,0.4-1.1,0.6-1.8,0.6c-0.8,0-1.6-0.4-2.2-1
			c-0.9-1-1.1-2.8-1.1-6.7s0.2-5.7,1.1-6.7c0.5-0.6,1.2-1,2.2-1c0.7,0,1.3,0.1,1.8,0.5c0.3,0.2,0.6,0.6,0.8,0.9v-7.4h1.1v21.2H649.2
			z M649.2,1332.7c0-1.1-0.3-1.8-0.8-2.3c-0.4-0.4-1-0.6-1.6-0.6c-0.7,0-1.2,0.3-1.5,0.7c-0.8,0.9-0.9,2.4-0.9,6
			c0,3.6,0.1,5.1,0.9,6c0.4,0.4,0.9,0.7,1.5,0.7c0.6,0,1.2-0.2,1.6-0.6c0.5-0.5,0.8-1.2,0.8-2.3V1332.7z"/>
		<path fill="#231F20" d="M656.2,1347.2c-0.5,2.1-1.8,3-3.9,3v-1c1.7,0,2.5-0.8,2.8-2.1l0.8-3.2l-3.5-14.9h1.2l2.8,13.1l2.8-13.1
			h1.2L656.2,1347.2z"/>
		<path fill="#231F20" d="M675.5,1343.9l-1.3-6.4h-4.9l-1.2,6.4h-1.3l4.5-21.2h1.1l4.5,21.2H675.5z M671.8,1325.2l-2.2,11.3h4.5
			L671.8,1325.2z"/>
		<path fill="#231F20" d="M684.8,1343.1c-0.6,0.7-1.4,1-2.2,1c-0.7,0-1.3-0.2-1.8-0.6c-0.2-0.2-0.6-0.6-0.8-0.9v1.2h-1.1v-21.2h1.1
			v7.4c0.2-0.3,0.5-0.7,0.8-0.9c0.5-0.4,1-0.5,1.8-0.5c1,0,1.7,0.4,2.2,1c0.9,1,1.1,2.8,1.1,6.7S685.7,1342.2,684.8,1343.1z
			 M683.9,1330.5c-0.4-0.4-0.9-0.7-1.5-0.7c-0.6,0-1.2,0.2-1.6,0.6c-0.5,0.5-0.8,1.2-0.8,2.3v7.6c0,1.1,0.3,1.8,0.8,2.3
			c0.4,0.4,1,0.6,1.6,0.6c0.7,0,1.2-0.3,1.5-0.7c0.8-0.9,0.9-2.4,0.9-6C684.8,1332.9,684.7,1331.3,683.9,1330.5z"/>
		<path fill="#231F20" d="M693.5,1329.8c-1.9,0-3,1.2-3,3v11.1h-1.1V1329h1.1v1.6c0.1-0.3,0.4-0.7,0.5-0.8c0.7-0.7,1.6-1,2.6-1v1
			H693.5z"/>
		<path fill="#231F20" d="M701.4,1343.1c-0.6,0.6-1.4,1-2.5,1c-1.1,0-1.9-0.4-2.5-1c-0.9-1-1.1-2.8-1.1-6.7s0.2-5.7,1.1-6.7
			c0.6-0.6,1.4-1,2.5-1c1.1,0,1.9,0.4,2.5,1c0.9,1,1.1,2.8,1.1,6.7S702.3,1342.1,701.4,1343.1z M700.5,1330.5
			c-0.4-0.4-0.9-0.7-1.6-0.7c-0.7,0-1.2,0.3-1.6,0.7c-0.8,0.9-0.9,2.4-0.9,6c0,3.6,0.1,5.1,0.9,6c0.4,0.4,0.9,0.7,1.6,0.7
			c0.7,0,1.2-0.3,1.6-0.7c0.8-0.9,0.9-2.4,0.9-6C701.4,1332.9,701.3,1331.3,700.5,1330.5z"/>
		<path fill="#231F20" d="M710.9,1343.9v-1.4c-0.2,0.4-0.6,0.8-0.8,1c-0.5,0.4-1,0.6-1.8,0.6c-0.8,0-1.6-0.3-2.2-0.9
			c-0.5-0.6-1-1.7-1-3.4c0-1.4,0.4-2.6,1.2-3.4c0.7-0.7,1.5-1,2.8-1h1.8v-2.9c0-1.8-0.7-2.9-2.3-2.9c-0.6,0-1.1,0.2-1.5,0.6
			c-0.6,0.6-0.7,1.2-0.7,2.3h-1.1c0-1.1,0.2-2.2,1-3c0.6-0.6,1.3-0.9,2.3-0.9c1.1,0,1.9,0.3,2.5,0.9c0.7,0.7,1,1.5,1,2.9v11.4H710.9
			z M710.9,1336.5H709c-0.8,0-1.4,0.2-1.9,0.7c-0.6,0.5-0.9,1.5-0.9,2.7c0,2,0.7,3.3,2.3,3.3c1.5,0,2.4-1.3,2.4-3V1336.5z"/>
		<path fill="#231F20" d="M721.2,1343.9v-1.2c-0.1,0.3-0.5,0.7-0.8,0.9c-0.5,0.4-1.1,0.6-1.8,0.6c-0.8,0-1.6-0.4-2.2-1
			c-0.9-1-1.1-2.8-1.1-6.7s0.2-5.7,1.1-6.7c0.5-0.6,1.2-1,2.2-1c0.7,0,1.3,0.1,1.8,0.5c0.3,0.2,0.6,0.6,0.8,0.9v-7.4h1.1v21.2H721.2
			z M721.2,1332.7c0-1.1-0.3-1.8-0.8-2.3c-0.4-0.4-1-0.6-1.6-0.6c-0.7,0-1.2,0.3-1.5,0.7c-0.8,0.9-0.9,2.4-0.9,6
			c0,3.6,0.1,5.1,0.9,6c0.4,0.4,0.9,0.7,1.5,0.7c0.6,0,1.2-0.2,1.6-0.6c0.5-0.5,0.8-1.2,0.8-2.3V1332.7z"/>
		<path fill="#231F20" d="M731.9,1325v-1.7h1.7v1.7H731.9z M732.2,1343.9V1329h1.1v14.9H732.2z"/>
		<path fill="#231F20" d="M743,1343.9v-11.4c0-1.8-1-2.7-2.3-2.7c-1.3,0-2.3,0.9-2.3,2.7v11.4h-1.1V1329h1.1v1.2
			c0.1-0.3,0.5-0.7,0.8-0.9c0.5-0.4,1-0.6,1.8-0.6c0.9,0,1.7,0.4,2.2,1c0.6,0.6,0.9,1.4,0.9,2.8v11.4H743z"/>
		<path fill="#231F20" d="M757.9,1344.2c-1.2,0-2.2-0.4-2.8-1c-1.2-1.3-1.5-2.5-1.5-9.8s0.2-8.5,1.5-9.8c0.7-0.7,1.7-1,2.8-1
			c1.2,0,2.2,0.4,2.8,1.1c0.8,0.9,1.2,2.2,1.2,3.7h-1.2c0-1.9-0.6-3.7-2.8-3.7c-0.9,0-1.5,0.3-2,0.7c-1,1-1.1,2-1.1,9s0.2,8,1.1,9
			c0.4,0.5,1.1,0.7,2,0.7c1.5,0,2.8-1.1,2.8-3.3v-5.9h-2.8v-1.1h4v7C761.9,1342.7,759.9,1344.2,757.9,1344.2z"/>
		<path fill="#231F20" d="M766.2,1336.5c0,3.6,0.1,5.1,0.9,6c0.4,0.4,0.9,0.7,1.6,0.7c0.6,0,1.2-0.2,1.6-0.6
			c0.5-0.5,0.8-1.3,0.8-2.4h1.1c0,1.5-0.3,2.3-1,3.1c-0.6,0.6-1.5,1-2.5,1c-1.1,0-1.9-0.4-2.5-1c-0.9-1-1.2-2.8-1.2-6.7
			s0.2-5.7,1.1-6.7c0.6-0.6,1.4-1,2.5-1c1.1,0,1.9,0.4,2.5,1c0.9,1,1.1,2.8,1.1,6.7H766.2z M770.2,1330.5c-0.4-0.4-0.9-0.7-1.6-0.7
			c-0.7,0-1.2,0.3-1.6,0.7c-0.7,0.8-0.8,2.1-0.9,5.1h4.9C771.1,1332.6,771,1331.2,770.2,1330.5z"/>
		<path fill="#231F20" d="M779.6,1329.8c-1.9,0-3,1.2-3,3v11.1h-1.1V1329h1.1v1.6c0.1-0.3,0.4-0.7,0.5-0.8c0.7-0.7,1.6-1,2.6-1v1
			H779.6z"/>
		<path fill="#231F20" d="M793.6,1343.9v-11.4c0-1.8-1-2.7-2.3-2.7c-1.3,0-2.3,0.9-2.3,2.7v11.4h-1.1v-11.4c0-1.8-1-2.7-2.3-2.7
			s-2.3,0.9-2.3,2.7v11.4h-1.1V1329h1.1v1.2c0.1-0.3,0.5-0.7,0.8-0.9c0.5-0.4,1-0.6,1.8-0.6c1.1,0,2.2,0.7,2.7,1.6
			c0.2-0.4,0.6-0.8,0.9-1c0.5-0.4,1.1-0.6,1.9-0.6c1.2,0,1.8,0.4,2.4,1c0.6,0.6,0.9,1.4,0.9,2.8v11.4H793.6z"/>
		<path fill="#231F20" d="M803.5,1343.9v-1.4c-0.2,0.4-0.6,0.8-0.8,1c-0.5,0.4-1,0.6-1.8,0.6c-0.8,0-1.6-0.3-2.2-0.9
			c-0.5-0.6-1-1.7-1-3.4c0-1.4,0.4-2.6,1.2-3.4c0.7-0.7,1.5-1,2.8-1h1.8v-2.9c0-1.8-0.7-2.9-2.3-2.9c-0.6,0-1.1,0.2-1.5,0.6
			c-0.6,0.6-0.7,1.2-0.7,2.3h-1.1c0-1.1,0.2-2.2,1-3c0.6-0.6,1.3-0.9,2.3-0.9c1.1,0,1.9,0.3,2.5,0.9c0.7,0.7,1,1.5,1,2.9v11.4H803.5
			z M803.5,1336.5h-1.9c-0.8,0-1.4,0.2-1.9,0.7c-0.6,0.5-0.9,1.5-0.9,2.7c0,2,0.7,3.3,2.3,3.3c1.5,0,2.4-1.3,2.4-3V1336.5z"/>
		<path fill="#231F20" d="M814.2,1343.9v-11.4c0-1.8-1-2.7-2.3-2.7c-1.3,0-2.3,0.9-2.3,2.7v11.4h-1.1V1329h1.1v1.2
			c0.1-0.3,0.5-0.7,0.8-0.9c0.5-0.4,1-0.6,1.8-0.6c0.9,0,1.7,0.4,2.2,1c0.6,0.6,0.9,1.4,0.9,2.8v11.4H814.2z"/>
		<path fill="#231F20" d="M821,1347.2c-0.5,2.1-1.8,3-3.9,3v-1c1.7,0,2.5-0.8,2.8-2.1l0.8-3.2l-3.5-14.9h1.2l2.8,13.1l2.8-13.1h1.2
			L821,1347.2z"/>
		<path fill="#231F20" d="M826.5,1343.9v-1.7h1.7v1.7H826.5z"/>
	</g>
</g>
</svg>
