<?xml version="1.0" encoding="utf-8"?>
<!-- Generator: Adobe Illustrator 19.0.1, SVG Export Plug-In . SVG Version: 6.00 Build 0)  -->
<svg version="1.1" id="Layer_1" xmlns="http://www.w3.org/2000/svg" xmlns:xlink="http://www.w3.org/1999/xlink" x="0px" y="0px"
	 viewBox="0 0 800 450" enable-background="new 0 0 800 450" xml:space="preserve">
<symbol  id="New_Symbol" viewBox="-25.6 -28.4 51.2 56.8">
	<g>
		<path fill="#6D6E71" d="M5-7.7l0.4,2c-5.1-4.8-8.2-5.3-10.1-5.3c-3.3,0-6.3,2.3-6.3,8.5C-10.9,6.2-6.7,14,1.7,14
			c1.8,0,5.3-0.7,8.4-2L6.9-7.4c-0.4-2.2,0-3.2,3.3-3.2c7,0,13.4,4.4,13.4,16.3c0,13.2-9.5,21-22,21c-15.8,0-25.2-12-25.2-27
			c0-16.4,9.5-26.2,26-26.2c2.2,0,4.9,0.5,6.3,0.8l0.4-1.8c-2-0.6-4.9-0.9-6.7-0.9c-16.6,0-28,9.1-28,28.1
			c0,19.4,13.2,28.7,27.2,28.7c15.2,0,23.9-10.2,23.9-22.1c0-11-5.1-18.6-15.3-18.6C6.4-12.4,4.5-10.9,5-7.7z M-9-2
			c0-5.5,1.6-7,4.8-7c3.1,0,6.3,2,9.7,5.6l2.3,14.2c-1.9,0.8-4.2,1.4-6.1,1.4C-5.3,12.3-9,5.3-9-2z"/>
	</g>
</symbol>
<symbol  id="New_Symbol_1" viewBox="-428.9 -28.4 857.7 56.8">
	
		<use xlink:href="#New_Symbol"  width="51.2" height="56.8" x="-25.6" y="-28.4" transform="matrix(1 0 0 1 -329.9668 0)" overflow="visible"/>
	
		<use xlink:href="#New_Symbol"  width="51.2" height="56.8" x="-25.6" y="-28.4" transform="matrix(1 0 0 1 -403.2928 0)" overflow="visible"/>
	
		<use xlink:href="#New_Symbol"  width="51.2" height="56.8" x="-25.6" y="-28.4" transform="matrix(1 0 0 1 -256.6408 0)" overflow="visible"/>
	
		<use xlink:href="#New_Symbol"  width="51.2" height="56.8" x="-25.6" y="-28.4" transform="matrix(1 0 0 1 -183.3149 0)" overflow="visible"/>
	
		<use xlink:href="#New_Symbol"  width="51.2" height="56.8" x="-25.6" y="-28.4" transform="matrix(1 0 0 1 -109.9889 0)" overflow="visible"/>
	
		<use xlink:href="#New_Symbol"  width="51.2" height="56.8" x="-25.6" y="-28.4" transform="matrix(1 0 0 1 -36.663 0)" overflow="visible"/>
	
		<use xlink:href="#New_Symbol"  width="51.2" height="56.8" x="-25.6" y="-28.4" transform="matrix(1 0 0 1 36.663 0)" overflow="visible"/>
	
		<use xlink:href="#New_Symbol"  width="51.2" height="56.8" x="-25.6" y="-28.4" transform="matrix(1 0 0 1 109.9889 0)" overflow="visible"/>
	
		<use xlink:href="#New_Symbol"  width="51.2" height="56.8" x="-25.6" y="-28.4" transform="matrix(1 0 0 1 183.3149 0)" overflow="visible"/>
	
		<use xlink:href="#New_Symbol"  width="51.2" height="56.8" x="-25.6" y="-28.4" transform="matrix(1 0 0 1 256.6408 0)" overflow="visible"/>
	
		<use xlink:href="#New_Symbol"  width="51.2" height="56.8" x="-25.6" y="-28.4" transform="matrix(1 0 0 1 329.9668 0)" overflow="visible"/>
	
		<use xlink:href="#New_Symbol"  width="51.2" height="56.8" x="-25.6" y="-28.4" transform="matrix(1 0 0 1 403.2928 0)" overflow="visible"/>
</symbol>
<g>
	<defs>
		<rect id="SVGID_1_" width="800" height="450"/>
	</defs>
	<clipPath id="SVGID_2_">
		<use xlink:href="#SVGID_1_"  overflow="visible"/>
	</clipPath>
	<rect clip-path="url(#SVGID_2_)" width="800" height="450"/>
	<g clip-path="url(#SVGID_2_)">
		
			<use xlink:href="#New_Symbol_1"  width="857.7" height="56.8" x="-428.9" y="-28.4" transform="matrix(1 0 0 -1 400.9977 0)" overflow="visible"/>
	</g>
	<g clip-path="url(#SVGID_2_)">
		
			<use xlink:href="#New_Symbol_1"  width="857.7" height="56.8" x="-428.9" y="-28.4" transform="matrix(1 0 0 -1 359.1537 60.9929)" overflow="visible"/>
	</g>
	<g clip-path="url(#SVGID_2_)">
		
			<use xlink:href="#New_Symbol_1"  width="857.7" height="56.8" x="-428.9" y="-28.4" transform="matrix(1 0 0 -1 391.1581 121.3302)" overflow="visible"/>
	</g>
	<g clip-path="url(#SVGID_2_)">
		
			<use xlink:href="#New_Symbol_1"  width="857.7" height="56.8" x="-428.9" y="-28.4" transform="matrix(1 0 0 -1 349.3141 182.3231)" overflow="visible"/>
	</g>
	<g clip-path="url(#SVGID_2_)">
		
			<use xlink:href="#New_Symbol_1"  width="857.7" height="56.8" x="-428.9" y="-28.4" transform="matrix(1 0 0 -1 381.3185 245.5205)" overflow="visible"/>
	</g>
	<g clip-path="url(#SVGID_2_)">
		
			<use xlink:href="#New_Symbol_1"  width="857.7" height="56.8" x="-428.9" y="-28.4" transform="matrix(1 0 0 -1 339.4745 306.5134)" overflow="visible"/>
	</g>
	<g clip-path="url(#SVGID_2_)">
		
			<use xlink:href="#New_Symbol_1"  width="857.7" height="56.8" x="-428.9" y="-28.4" transform="matrix(1 0 0 -1 371.4789 368.2155)" overflow="visible"/>
	</g>
	<g clip-path="url(#SVGID_2_)">
		
			<use xlink:href="#New_Symbol_1"  width="857.7" height="56.8" x="-428.9" y="-28.4" transform="matrix(1 0 0 -1 329.635 429.2085)" overflow="visible"/>
	</g>
	<g clip-path="url(#SVGID_2_)">
		
			<use xlink:href="#New_Symbol"  width="51.2" height="56.8" x="-25.6" y="-28.4" transform="matrix(1 0 0 -1 813.6076 306.5134)" overflow="visible"/>
	</g>
	<g clip-path="url(#SVGID_2_)">
		
			<use xlink:href="#New_Symbol"  width="51.2" height="56.8" x="-25.6" y="-28.4" transform="matrix(1 0 0 -1 813.6076 429.2085)" overflow="visible"/>
	</g>
</g>
<g>
	<path fill="#FFFFFF" d="M460.8,255.6c18.8,0.7,37.6-19.2,37.6-62.6c0-49-32.8-80.7-88-80.7c-70.3,0-107.9,63.7-107.9,117.1
		c0,81.4,50.1,110.5,109.4,110.5c17.7,0,36.1-3.3,54.5-8.1l7.7,46.4c-19.5,5.9-49.7,10.3-70.7,10.3c-94.3,0-162-60.8-162-159.1
		c0-95.4,70.7-167.9,168.7-167.9c99.4,0,148.8,67.8,148.8,131.1c0,72.9-52.3,110.1-101.6,110.1c-18.8,0-37.6-4.8-43.1-20.6H411
		c-9.9,7.7-23.6,12.9-35.7,12.9c-22.5,0-47.9-17.3-47.9-61.1c0-57.1,41.6-86.9,84-86.9c18,0,41.2,4.8,62.2,13.3L460.8,255.6z
		 M412.2,194.8c-2.2-0.7-5.2-0.7-7.4-0.7c-15.5,0-23.9,17.7-23.9,34.6c0,23.9,13.6,24.3,24.3,15.1L412.2,194.8z"/>
</g>
</svg>
