<svg xmlns="http://www.w3.org/2000/svg" xmlns:xlink="http://www.w3.org/1999/xlink" width="100%" height="100%" viewBox="0 0 1050 296" fill-rule="evenodd" stroke-linejoin="round" stroke-miterlimit="1.41421"><g transform="scale(1.3125 .656106)"><path d="M0 0h800v450H0z" fill="#fff"/><g transform="matrix(.761905 0 0 1.52414 -13.4508 45.5408)"><circle cx="123.483" cy="157.213" r="44.737" fill="#fff" fill-opacity=".847"/><path d="M123.772 112.476l.29.003.288.005.288.006.287.008.287.01.287.012.286.014.285.015.285.017.285.02.284.02.284.022.283.025.282.026.282.028.282.03.28.03.28.033.28.035.28.037.28.038.278.04.278.04.277.044.277.045.276.046.276.05.275.05.274.05.274.054.273.055.273.057.272.058.27.06.27.062.27.063.27.065.27.067.268.068.268.07.267.07.266.073.266.075.264.076.265.078.263.08.263.08.263.083.26.084.26.085.52.176.258.09.258.092.258.093.256.095.256.096.255.098.254.1.254.1.253.102.252.104.25.105.25.107.25.11.25.1.248.11.247.113.247.114.245.116.245.117.244.118.243.12.243.122.24.123.24.124.24.126.24.127.238.128.237.13.237.13.235.133.235.134.234.136.233.136.23.138.232.14.23.14.23.142.456.288.452.294.224.15.224.15.444.304.22.154.22.156.218.156.218.158.217.16.216.16.215.162.214.163.212.164.212.165.21.167.2.168.208.17.208.17.207.17.205.173.205.174.203.175.203.177.2.177.2.18.2.18.198.18.197.183.196.183.195.185.193.186.193.187.19.188.19.19.19.2.188.192.187.192.186.194.185.195.183.196.182.197.182.198.18.2.178.2.178.202.176.202.176.204.174.204.344.412.17.208.17.21.168.2.166.2.166.212.164.213.163.214.162.215.16.216.16.216.158.218.157.22.155.22.154.22.153.22.15.223.15.224.148.224.148.226.146.226.145.227.144.23.142.23.14.23.14.23.138.232.137.233.27.468.132.236.13.236.13.238.13.238.127.24.126.24.124.24.123.242.12.242.12.243.12.244.117.245.116.246.114.246.113.248.11.248.1.25.108.25.107.25.106.25.104.252.102.253.1.253.1.255.098.255.097.256.095.256.093.257.092.258.1.26.09.26.087.26.086.26.084.26.083.262.16.527.078.264.076.265.075.266.073.266.07.267.07.268.068.268.067.27.065.27.063.27.062.27.06.272.058.272.057.272.055.274.053.273.052.275.05.275.048.275.047.276.045.277.043.277.042.278.04.28.038.28.037.28.034.28.033.28.032.28.03.28.028.282.026.283.024.283.023.284v.284l.02.284.018.285.015.286.014.286.01.286.01.287.01.288.006.288.005.288.002.29v.29.29l-.002.288-.005.29-.006.288-.01.287-.01.287-.01.286-.014.286-.015.286-.018.285-.02.285v.284l-.023.283-.024.283-.026.283-.028.282-.03.282-.032.28-.033.28-.034.28-.037.28-.038.28-.04.278-.042.278-.043.277-.045.277-.047.276-.048.276-.05.275-.052.274-.053.274-.055.273-.057.273-.058.272-.06.27-.062.27-.063.27-.065.27-.067.268-.068.27-.07.267-.07.267-.073.267-.075.265-.076.265-.078.264-.08.264-.08.263-.083.262-.084.262-.086.26-.087.26-.09.26-.1.26-.092.258-.093.257-.095.257-.097.256-.098.255-.1.254-.1.253-.102.253-.104.252-.106.25-.107.25-.108.25-.1.248-.11.25-.113.247-.114.246-.116.246-.117.245-.12.244-.12.243-.12.243-.123.24-.124.24-.126.24-.127.24-.13.238-.13.237-.13.236-.132.236-.135.235-.135.233-.137.233-.138.232-.14.23-.14.23-.142.23-.144.228-.145.227-.146.227-.296.45-.302.446-.153.222-.154.22-.155.22-.157.22-.158.218-.16.217-.16.216-.162.214-.163.214-.164.213-.166.212-.166.21-.168.21-.17.21-.17.208-.344.412-.174.205-.352.406-.178.2-.178.2-.18.2-.182.2-.182.197-.183.195-.185.195-.186.194-.187.193-.188.19-.19.2-.19.2-.19.188-.193.187-.193.186-.195.184-.196.184-.197.182-.198.18-.2.18-.2.18-.2.178-.203.176-.203.175-.205.174-.205.173-.207.172-.208.17-.208.17-.2.168-.21.167-.424.33-.214.163-.215.16-.216.16-.217.16-.218.158-.218.157-.22.155-.22.154-.222.153-.222.15-.224.15-.224.15-.226.148-.226.146-.228.145-.228.143-.23.142-.23.14-.232.14-.23.138-.233.137-.234.135-.235.134-.235.133-.237.13-.237.13-.238.13-.24.127-.24.125-.24.125-.24.122-.243.122-.243.12-.244.12-.245.117-.245.115-.247.115-.247.112-.248.112-.25.1-.25.108-.25.107-.25.105-.252.104-.253.103-.254.1-.254.1-.255.098-.256.097-.256.094-.258.094-.258.092-.258.1-.26.09-.26.087-.26.086-.26.084-.263.082-.263.08-.263.08-.265.077-.264.077-.266.074-.266.073-.267.072-.536.138-.27.066-.27.065-.27.063-.27.062-.27.06-.272.06-.273.056-.273.055-.274.054-.274.052-.275.05-.276.048-.276.047-.277.045-.277.043-.278.042-.278.04-.28.038-.28.036-.28.035-.28.033-.28.03-.282.03-.282.028-.282.026-.283.024-.284.022-.284.02-.285.02-.285.017-.285.016-.286.013-.287.012-.287.01-.287.008-.288.007-.288.004-.29.003h-.29-.29l-.29-.003-.288-.004-.288-.007-.287-.008-.287-.01-.287-.012-.286-.013-.285-.016-.285-.017-.285-.02-.284-.02-.284-.022-.283-.024-.282-.026-.282-.028-.282-.03-.28-.03-.28-.033-.28-.035-.28-.036-.28-.038-.278-.04-.278-.042-.278-.043-.276-.045-.276-.047-.276-.048-.275-.05-.274-.052-.274-.054-.273-.055-.273-.056-.272-.06-.27-.06-.27-.062-.27-.063-.27-.065-.27-.066-.536-.138-.267-.072-.266-.073-.266-.074-.265-.077-.264-.077-.263-.08-.263-.08-.263-.082-.26-.084-.26-.086-.26-.087-.26-.09-.258-.1-.258-.092-.258-.094-.256-.094-.256-.097-.255-.098-.254-.1-.254-.1-.253-.103-.252-.104-.25-.105-.25-.107-.25-.108-.25-.1-.495-.224-.247-.115-.245-.115-.245-.117-.244-.12-.244-.12-.242-.122-.24-.122-.24-.125-.24-.125-.24-.127-.238-.13-.237-.13-.237-.13-.235-.133-.235-.134-.234-.135-.233-.137-.232-.138-.23-.14-.23-.14-.23-.142-.228-.143-.228-.145-.226-.146-.226-.148-.224-.15-.224-.15-.222-.15-.222-.153-.22-.154-.22-.155-.218-.157-.218-.158-.217-.16-.216-.16-.215-.16-.214-.163-.424-.33-.21-.167-.2-.168-.21-.17-.207-.17-.207-.172-.205-.173-.205-.174-.204-.175-.202-.176-.2-.178-.2-.18-.2-.18-.198-.18-.197-.182-.196-.184-.195-.184-.193-.186-.193-.187-.19-.188-.19-.2-.19-.2-.188-.19-.187-.193-.186-.194-.185-.195-.183-.195-.182-.197-.182-.2-.18-.2-.178-.2-.178-.2-.352-.406-.174-.205-.173-.206-.17-.206-.17-.208-.17-.21-.168-.21-.166-.21-.166-.212-.164-.213-.163-.214-.162-.214-.16-.216-.16-.217-.158-.218-.157-.22-.155-.22-.154-.22-.153-.222-.302-.446-.296-.45-.146-.227-.145-.227-.144-.228-.142-.23-.14-.23-.14-.23-.138-.232-.137-.233-.136-.233-.134-.235-.264-.472-.13-.237-.13-.238-.127-.24-.126-.24-.124-.24-.123-.24-.12-.243-.12-.243-.12-.244-.117-.245-.116-.246-.114-.246-.113-.247-.11-.25-.1-.248-.108-.25-.107-.25-.106-.25-.104-.252-.102-.253-.1-.253-.1-.254-.194-.51-.095-.257-.093-.257-.092-.258-.1-.26-.09-.26-.087-.26-.086-.26-.084-.262-.083-.262-.08-.263-.08-.264-.078-.264-.076-.265-.075-.265-.073-.267-.07-.267-.07-.267-.068-.27-.067-.268-.065-.27-.063-.27-.062-.27-.06-.27-.058-.272-.057-.273-.055-.273-.053-.274-.052-.274-.05-.275-.048-.276-.047-.276-.045-.277-.043-.277-.042-.278-.04-.278-.038-.28-.037-.28-.034-.28-.033-.28-.032-.28-.03-.282-.028-.282-.026-.283-.024-.283-.023-.283-.02-.284-.02-.285-.018-.285-.015-.286-.014-.286-.01-.286-.01-.287-.01-.287-.006-.288-.005-.29-.002-.288-.001-.29.001-.29.002-.29.005-.288.006-.288.01-.288.01-.287.01-.286.014-.286.015-.286.018-.285.02-.284.02-.284.023-.284.024-.283.026-.283.028-.282.03-.28.032-.28.033-.28.034-.28.037-.28.038-.28.04-.28.042-.278.043-.277.045-.277.047-.276.048-.275.05-.275.052-.275.053-.273.055-.274.057-.272.058-.272.06-.272.062-.27.063-.27.065-.27.067-.27.068-.268.07-.268.07-.267.073-.266.075-.266.076-.265.078-.264.08-.264.08-.263.083-.262.084-.26.086-.26.087-.26.09-.26.1-.26.092-.258.093-.257.095-.256.097-.256.097-.255.1-.255.1-.253.102-.253.104-.252.106-.25.107-.25.108-.25.1-.25.11-.248.113-.248.114-.246.116-.246.117-.245.12-.244.12-.243.12-.242.123-.242.124-.24.126-.24.127-.24.258-.476.264-.472.134-.234.136-.234.137-.233.138-.232.14-.23.14-.23.142-.23.144-.23.145-.227.146-.226.148-.226.148-.224.15-.224.15-.223.153-.22.154-.22.155-.22.157-.22.158-.218.16-.216.16-.216.162-.215.163-.214.164-.213.166-.212.166-.2.168-.2.17-.21.17-.208.17-.206.173-.206.174-.204.176-.204.176-.202.178-.202.178-.2.18-.2.182-.198.182-.197.183-.196.185-.195.186-.194.187-.192.188-.192.19-.2.19-.19.19-.188.193-.187.193-.186.195-.185.196-.183.197-.183.198-.18.2-.18.2-.18.2-.177.202-.177.204-.175.205-.174.205-.173.414-.342.21-.17.2-.168.21-.167.212-.165.212-.164.214-.163.215-.162.216-.16.217-.16.218-.158.218-.156.22-.156.22-.154.444-.304.224-.15.224-.15.452-.294.456-.288.23-.142.23-.14.23-.14.232-.138.233-.136.234-.136.235-.134.235-.133.237-.13.237-.13.238-.128.24-.127.24-.126.24-.124.24-.123.242-.122.244-.12.244-.118.245-.117.245-.116.247-.114.247-.113.248-.11.25-.1.25-.11.25-.107.25-.105.252-.104.253-.102.254-.1.254-.1.255-.098.256-.096.256-.095.258-.093.258-.092.258-.09.52-.176.26-.085.26-.084.263-.083.263-.08.263-.08.264-.078.265-.076.266-.075.266-.073.267-.07.268-.07.268-.068.27-.067.27-.065.27-.063.27-.062.27-.06.272-.058.273-.057.273-.055.274-.054.274-.05.275-.05.276-.05.276-.046.276-.045.278-.044.278-.04.278-.04.28-.038.28-.037.28-.035.28-.033.28-.03.282-.03.282-.028.282-.026.283-.025.284-.022.284-.02.285-.02.285-.017.285-.015.286-.014.287-.012.287-.01.287-.008.288-.006.288-.005.29-.003.29-.001.29.001zm-.553 4l-.263.003-.263.004-.263.006-.262.007-.26.01-.26.01-.26.013-.26.014-.26.015-.26.017-.26.02-.26.02-.257.022-.258.024-.257.025-.256.027-.256.028-.256.03-.255.032-.254.033-.254.035-.253.036-.253.038-.253.04-.252.04-.25.042-.25.044-.25.046-.25.047-.25.048-.25.05-.248.05-.247.053-.247.055-.247.056-.245.058-.246.06-.244.06-.244.062-.244.064-.243.065-.242.066-.242.068-.24.07-.24.07-.48.146-.24.075-.238.077-.237.078-.237.08-.236.08-.235.082-.235.084-.234.085-.234.086-.232.088-.232.09-.232.1-.23.092-.23.093-.23.095-.23.096-.228.097-.227.1-.226.1-.226.1-.225.103-.225.104-.223.105-.223.107-.222.108-.222.11-.44.222-.438.228-.217.116-.217.117-.216.118-.43.24-.213.122-.213.124-.212.124-.21.126-.21.127-.21.128-.21.13-.208.13-.207.13-.412.268-.204.135-.204.137-.203.138-.202.14-.2.14-.2.14-.2.143-.2.144-.197.145-.197.146-.196.147-.388.298-.193.15-.192.152-.19.153-.19.154-.19.155-.376.314-.186.16-.185.16-.185.16-.183.162-.183.163-.18.164-.18.165-.18.166-.18.168-.177.168-.177.17-.175.17-.175.172-.173.172-.173.174-.17.174-.17.176-.17.176-.168.178-.167.178-.332.36-.164.182-.163.182-.322.368-.16.186-.158.186-.158.187-.312.378-.154.2-.153.19-.152.192-.15.193-.15.194-.148.195-.148.196-.146.196-.145.198-.144.198-.284.4-.14.2-.14.202-.138.203-.137.203-.136.205-.134.205-.133.207-.132.207-.13.207-.13.21-.13.2-.127.2-.125.21-.125.212-.123.213-.122.214-.12.215-.12.215-.118.216-.117.217-.116.217-.114.218-.113.22-.112.22-.11.22-.11.222-.108.222-.212.446-.104.224-.102.226-.102.225-.1.227-.196.455-.096.23-.094.23-.093.23-.092.23-.09.23-.09.232-.088.233-.086.233-.085.234-.084.235-.082.236-.16.472-.078.238-.076.238-.075.238-.074.24-.072.24-.07.24-.07.24-.068.242-.067.242-.065.243-.063.243-.062.244-.06.245-.06.245-.058.246-.056.246-.054.247-.053.248-.052.248-.05.25-.05.25-.047.25-.045.25-.044.25-.043.25-.04.252-.04.252-.038.253-.037.254-.068.508-.03.255-.03.255-.03.256-.027.257-.025.257-.024.257-.022.258-.02.26-.02.258-.017.26-.016.26-.014.26-.013.26-.01.262-.01.26-.008.262-.006.263-.004.263-.002.263-.001.264.001.263.002.264.004.263.006.262.008.262.01.262.01.26.013.26.014.26.016.26.017.26.02.26.02.258.022.258.024.257.025.257.027.257.03.256.03.255.03.255.068.51.037.253.038.253.04.252.04.252.043.252.044.25.045.25.047.25.05.25.05.248.052.248.053.248.054.247.056.246.058.246.06.245.06.245.062.244.063.244.065.242.067.243.068.24.07.24.07.24.072.24.074.24.075.24.076.238.078.237.16.473.082.235.084.235.085.234.086.233.088.233.09.232.09.232.092.23.093.23.094.23.096.228.098.228.098.227.1.227.102.226.102.225.104.224.106.224.106.223.108.222.11.22.11.22.112.22.113.22.114.218.116.218.117.217.118.216.12.215.12.214.122.214.123.213.125.212.125.21.127.2.13.2.13.21.13.208.132.207.133.206.134.205.136.205.137.204.138.202.14.202.14.2.142.2.142.2.144.198.145.198.146.197.296.4.15.194.15.193.15.192.153.19.154.2.156.2.156.188.316.374.16.185.322.368.163.182.164.182.165.18.167.18.167.18.168.177.17.177.342.35.173.173.173.172.175.172.175.17.177.17.177.168.18.167.18.166.18.165.18.164.183.163.183.162.185.16.185.16.187.16.187.158.188.156.19.155.2.154.192.153.192.152.193.15.194.15.194.148.196.147.394.292.398.286.2.142.2.14.202.14.203.138.204.137.204.135.206.135.206.133.207.132.208.13.21.13.21.128.21.127.21.126.212.125.213.123.213.122.215.12.215.12.216.12.217.117.217.115.22.115.22.113.22.112.22.1.222.11.222.108.223.107.224.105.224.104.225.103.226.1.226.1.227.1.228.097.23.096.23.095.23.093.23.092.23.1.233.1.232.087.234.087.234.085.235.083.235.082.236.08.237.08.237.078.238.077.24.075.24.074.24.072.24.07.24.07.242.068.242.066.243.065.244.064.244.062.244.06.246.06.245.057.247.056.247.055.247.053.248.052.25.05.5.096.25.045.25.044.25.043.252.04.253.04.253.038.253.036.254.035.254.033.255.032.256.03.256.028.256.027.257.026.258.023.258.022.258.02.26.02.26.017.26.016.26.014.26.012.26.01.26.01.262.008.526.01.263.002h.264.264l.263-.002.525-.01.263-.008.26-.01.26-.01.26-.012.26-.014.26-.016.26-.017.26-.02.258-.02.258-.022.258-.023.257-.026.256-.027.256-.028.256-.03.255-.032.254-.033.254-.035.253-.036.253-.038.253-.04.252-.04.25-.043.25-.044.25-.045.5-.096.25-.05.248-.052.247-.053.247-.055.247-.056.245-.057.246-.06.244-.06.244-.062.244-.064.243-.065.242-.066.242-.068.24-.07.24-.07.24-.072.24-.074.24-.075.238-.077.237-.078.237-.08.236-.08.235-.082.235-.083.234-.085.234-.087.232-.087.233-.1.23-.1.23-.092.23-.093.23-.095.23-.096.228-.097.227-.1.226-.1.226-.1.225-.103.224-.104.224-.105.223-.107.222-.108.222-.11.22-.1.22-.112.22-.113.436-.23.217-.117.216-.12.215-.12.215-.12.213-.122.213-.123.212-.125.21-.126.21-.127.21-.128.21-.13.208-.13.207-.132.206-.133.206-.135.204-.135.204-.137.203-.138.202-.14.2-.14.2-.142.398-.286.394-.292.196-.147.194-.148.194-.15.193-.15.192-.152.19-.153.19-.154.19-.155.188-.156.187-.158.187-.16.185-.16.185-.16.183-.162.183-.163.18-.164.18-.165.18-.166.18-.167.177-.168.177-.17.175-.17.175-.172.173-.172.173-.173.342-.35.17-.177.168-.177.167-.18.332-.36.164-.182.163-.182.322-.368.16-.185.316-.374.156-.188.3-.38.153-.19.15-.192.15-.193.15-.194.296-.4.146-.197.145-.198.144-.198.142-.2.142-.2.14-.2.14-.202.138-.202.137-.204.136-.205.134-.205.133-.206.132-.207.13-.208.13-.21.13-.2.127-.2.125-.21.125-.212.123-.213.122-.214.12-.214.12-.215.118-.216.117-.217.116-.218.114-.218.113-.22.112-.22.11-.22.11-.22.108-.222.106-.223.106-.224.104-.224.102-.225.102-.226.1-.227.098-.227.098-.228.096-.228.094-.23.093-.23.092-.23.09-.232.09-.232.088-.233.086-.233.085-.234.166-.47.08-.236.08-.237.078-.237.076-.238.075-.24.074-.24.072-.24.07-.24.07-.24.068-.24.067-.243.065-.242.063-.244.062-.244.06-.245.06-.245.058-.246.056-.246.054-.247.053-.248.052-.248.05-.248.05-.25.047-.25.045-.25.044-.25.043-.252.04-.252.04-.252.038-.253.037-.253.068-.51.03-.255.03-.255.03-.256.027-.257.025-.256.024-.258.022-.258.02-.258.02-.26.017-.26.016-.26.014-.26.013-.26.01-.26v-.262l.008-.262.006-.262.004-.263.002-.264v-.263-.264l-.002-.263-.004-.263-.006-.263-.008-.262v-.26l-.01-.262-.013-.26-.014-.26-.016-.26-.017-.26-.02-.258-.02-.26-.022-.258-.024-.257-.025-.257-.027-.256-.03-.256-.03-.256-.03-.255-.068-.508-.037-.254-.038-.253-.04-.252-.04-.252-.043-.25-.044-.25-.045-.25-.047-.25-.05-.25-.05-.25-.052-.248-.053-.248-.054-.247-.056-.246-.058-.246-.06-.245-.06-.245-.062-.244-.063-.243-.065-.243-.067-.243-.068-.24-.07-.24-.07-.24-.072-.24-.074-.24-.075-.238-.076-.238-.078-.238-.16-.472-.083-.236-.083-.235-.085-.234-.086-.233-.088-.233-.09-.232-.09-.23-.092-.23-.093-.23-.094-.23-.096-.23-.098-.228-.098-.227-.1-.227-.204-.45-.104-.224-.212-.446-.108-.222-.11-.222-.11-.22-.225-.44-.114-.218-.116-.217-.117-.217-.118-.216-.12-.215-.12-.215-.122-.214-.123-.213-.125-.212-.125-.21-.127-.2-.13-.2-.13-.21-.13-.207-.132-.207-.133-.207-.134-.205-.136-.205-.137-.203-.138-.203-.14-.202-.14-.2-.284-.4-.144-.198-.145-.198-.146-.196-.148-.196-.148-.195-.15-.194-.15-.193-.152-.192-.153-.19-.155-.2-.155-.19-.156-.19-.158-.187-.158-.186-.16-.186-.322-.368-.163-.182-.164-.182-.332-.36-.167-.178-.168-.178-.17-.176-.17-.176-.17-.174-.173-.174-.173-.172-.175-.172-.175-.17-.177-.17-.177-.168-.18-.168-.18-.166-.18-.165-.18-.164-.183-.163-.183-.162-.185-.16-.185-.16-.186-.16-.376-.314-.19-.155-.19-.154-.19-.153-.192-.152-.193-.15-.388-.298-.196-.147-.197-.146-.197-.145-.2-.144-.2-.143-.2-.14-.2-.14-.202-.14-.203-.138-.204-.137-.204-.135-.412-.268-.207-.13-.208-.13-.21-.13-.21-.128-.21-.127-.21-.126-.212-.124-.213-.124-.213-.122-.215-.12-.215-.12-.216-.118-.217-.117-.218-.116-.218-.114-.22-.114-.44-.222-.222-.11-.222-.108-.223-.107-.223-.105-.225-.104-.225-.103-.226-.1-.226-.1-.227-.1-.228-.097-.23-.096-.23-.095-.23-.093-.23-.092-.232-.1-.232-.09-.232-.088-.234-.086-.234-.085-.235-.084-.235-.082-.236-.08-.237-.08-.237-.078-.238-.077-.24-.075-.24-.073-.24-.073-.48-.14-.242-.068-.242-.066-.243-.065-.244-.064-.244-.062-.244-.06-.246-.06-.245-.058-.247-.056-.247-.055-.247-.053-.497-.102-.25-.048-.25-.047-.25-.046-.25-.044-.25-.042-.252-.04-.253-.04-.253-.038-.253-.036-.254-.035-.254-.033-.255-.032-.256-.03-.256-.028-.256-.027-.257-.025-.258-.024-.258-.022-.258-.02-.26-.02-.26-.017-.26-.015-.26-.014-.26-.013-.26-.01-.26-.01-.263-.007-.262-.006-.263-.004-.263-.003-.264-.001-.264.001z" fill="#2ca435"/></g><g transform="matrix(.761905 0 0 1.52414 209.069 45.5408)"><circle cx="123.483" cy="157.213" r="44.737" fill="#fff" fill-opacity=".847"/><path d="M123.772 112.476l.29.003.288.005.288.006.287.008.287.01.287.012.286.014.285.015.285.017.285.02.284.02.284.022.283.025.282.026.282.028.282.03.28.03.28.033.28.035.28.037.28.038.278.04.278.04.277.044.277.045.276.046.276.05.275.05.274.05.274.054.273.055.273.057.272.058.27.06.27.062.27.063.27.065.27.067.268.068.268.07.267.07.266.073.266.075.264.076.265.078.263.08.263.08.263.083.26.084.26.085.52.176.258.09.258.092.258.093.256.095.256.096.255.098.254.1.254.1.253.102.252.104.25.105.25.107.25.11.25.1.248.11.247.113.247.114.245.116.245.117.244.118.243.12.243.122.24.123.24.124.24.126.24.127.238.128.237.13.237.13.235.133.235.134.234.136.233.136.23.138.232.14.23.14.23.142.456.288.452.294.224.15.224.15.444.304.22.154.22.156.218.156.218.158.217.16.216.16.215.162.214.163.212.164.212.165.21.167.2.168.208.17.208.17.207.17.205.173.205.174.203.175.203.177.2.177.2.18.2.18.198.18.197.183.196.183.195.185.193.186.193.187.19.188.19.19.19.2.188.192.187.192.186.194.185.195.183.196.182.197.182.198.18.2.178.2.178.202.176.202.176.204.174.204.344.412.17.208.17.21.168.2.166.2.166.212.164.213.163.214.162.215.16.216.16.216.158.218.157.22.155.22.154.22.153.22.15.223.15.224.148.224.148.226.146.226.145.227.144.23.142.23.14.23.14.23.138.232.137.233.27.468.132.236.13.236.13.238.13.238.127.24.126.24.124.24.123.242.12.242.12.243.12.244.117.245.116.246.114.246.113.248.11.248.1.25.108.25.107.25.106.25.104.252.102.253.1.253.1.255.098.255.097.256.095.256.093.257.092.258.1.26.09.26.087.26.086.26.084.26.083.262.16.527.078.264.076.265.075.266.073.266.07.267.07.268.068.268.067.27.065.27.063.27.062.27.06.272.058.272.057.272.055.274.053.273.052.275.05.275.048.275.047.276.045.277.043.277.042.278.04.28.038.28.037.28.034.28.033.28.032.28.03.28.028.282.026.283.024.283.023.284v.284l.02.284.018.285.015.286.014.286.01.286.01.287.01.288.006.288.005.288.002.29v.29.29l-.002.288-.005.29-.006.288-.01.287-.01.287-.01.286-.014.286-.015.286-.018.285-.02.285v.284l-.023.283-.024.283-.026.283-.028.282-.03.282-.032.28-.033.28-.034.28-.037.28-.038.28-.04.278-.042.278-.043.277-.045.277-.047.276-.048.276-.05.275-.052.274-.053.274-.055.273-.057.273-.058.272-.06.27-.062.27-.063.27-.065.27-.067.268-.068.27-.07.267-.07.267-.073.267-.075.265-.076.265-.078.264-.08.264-.08.263-.083.262-.084.262-.086.26-.087.26-.09.26-.1.26-.092.258-.093.257-.095.257-.097.256-.098.255-.1.254-.1.253-.102.253-.104.252-.106.25-.107.25-.108.25-.1.248-.11.25-.113.247-.114.246-.116.246-.117.245-.12.244-.12.243-.12.243-.123.24-.124.24-.126.24-.127.24-.13.238-.13.237-.13.236-.132.236-.135.235-.135.233-.137.233-.138.232-.14.23-.14.23-.142.23-.144.228-.145.227-.146.227-.296.45-.302.446-.153.222-.154.22-.155.22-.157.22-.158.218-.16.217-.16.216-.162.214-.163.214-.164.213-.166.212-.166.21-.168.21-.17.21-.17.208-.344.412-.174.205-.352.406-.178.2-.178.2-.18.2-.182.2-.182.197-.183.195-.185.195-.186.194-.187.193-.188.19-.19.2-.19.2-.19.188-.193.187-.193.186-.195.184-.196.184-.197.182-.198.18-.2.18-.2.18-.2.178-.203.176-.203.175-.205.174-.205.173-.207.172-.208.17-.208.17-.2.168-.21.167-.424.33-.214.163-.215.16-.216.16-.217.16-.218.158-.218.157-.22.155-.22.154-.222.153-.222.15-.224.15-.224.15-.226.148-.226.146-.228.145-.228.143-.23.142-.23.14-.232.14-.23.138-.233.137-.234.135-.235.134-.235.133-.237.13-.237.13-.238.13-.24.127-.24.125-.24.125-.24.122-.243.122-.243.12-.244.12-.245.117-.245.115-.247.115-.247.112-.248.112-.25.1-.25.108-.25.107-.25.105-.252.104-.253.103-.254.1-.254.1-.255.098-.256.097-.256.094-.258.094-.258.092-.258.1-.26.09-.26.087-.26.086-.26.084-.263.082-.263.08-.263.08-.265.077-.264.077-.266.074-.266.073-.267.072-.536.138-.27.066-.27.065-.27.063-.27.062-.27.06-.272.06-.273.056-.273.055-.274.054-.274.052-.275.05-.276.048-.276.047-.277.045-.277.043-.278.042-.278.04-.28.038-.28.036-.28.035-.28.033-.28.03-.282.03-.282.028-.282.026-.283.024-.284.022-.284.02-.285.02-.285.017-.285.016-.286.013-.287.012-.287.01-.287.008-.288.007-.288.004-.29.003h-.29-.29l-.29-.003-.288-.004-.288-.007-.287-.008-.287-.01-.287-.012-.286-.013-.285-.016-.285-.017-.285-.02-.284-.02-.284-.022-.283-.024-.282-.026-.282-.028-.282-.03-.28-.03-.28-.033-.28-.035-.28-.036-.28-.038-.278-.04-.278-.042-.278-.043-.276-.045-.276-.047-.276-.048-.275-.05-.274-.052-.274-.054-.273-.055-.273-.056-.272-.06-.27-.06-.27-.062-.27-.063-.27-.065-.27-.066-.536-.138-.267-.072-.266-.073-.266-.074-.265-.077-.264-.077-.263-.08-.263-.08-.263-.082-.26-.084-.26-.086-.26-.087-.26-.09-.258-.1-.258-.092-.258-.094-.256-.094-.256-.097-.255-.098-.254-.1-.254-.1-.253-.103-.252-.104-.25-.105-.25-.107-.25-.108-.25-.1-.495-.224-.247-.115-.245-.115-.245-.117-.244-.12-.244-.12-.242-.122-.24-.122-.24-.125-.24-.125-.24-.127-.238-.13-.237-.13-.237-.13-.235-.133-.235-.134-.234-.135-.233-.137-.232-.138-.23-.14-.23-.14-.23-.142-.228-.143-.228-.145-.226-.146-.226-.148-.224-.15-.224-.15-.222-.15-.222-.153-.22-.154-.22-.155-.218-.157-.218-.158-.217-.16-.216-.16-.215-.16-.214-.163-.424-.33-.21-.167-.2-.168-.21-.17-.207-.17-.207-.172-.205-.173-.205-.174-.204-.175-.202-.176-.2-.178-.2-.18-.2-.18-.198-.18-.197-.182-.196-.184-.195-.184-.193-.186-.193-.187-.19-.188-.19-.2-.19-.2-.188-.19-.187-.193-.186-.194-.185-.195-.183-.195-.182-.197-.182-.2-.18-.2-.178-.2-.178-.2-.352-.406-.174-.205-.173-.206-.17-.206-.17-.208-.17-.21-.168-.21-.166-.21-.166-.212-.164-.213-.163-.214-.162-.214-.16-.216-.16-.217-.158-.218-.157-.22-.155-.22-.154-.22-.153-.222-.302-.446-.296-.45-.146-.227-.145-.227-.144-.228-.142-.23-.14-.23-.14-.23-.138-.232-.137-.233-.136-.233-.134-.235-.264-.472-.13-.237-.13-.238-.127-.24-.126-.24-.124-.24-.123-.24-.12-.243-.12-.243-.12-.244-.117-.245-.116-.246-.114-.246-.113-.247-.11-.25-.1-.248-.108-.25-.107-.25-.106-.25-.104-.252-.102-.253-.1-.253-.1-.254-.194-.51-.095-.257-.093-.257-.092-.258-.1-.26-.09-.26-.087-.26-.086-.26-.084-.262-.083-.262-.08-.263-.08-.264-.078-.264-.076-.265-.075-.265-.073-.267-.07-.267-.07-.267-.068-.27-.067-.268-.065-.27-.063-.27-.062-.27-.06-.27-.058-.272-.057-.273-.055-.273-.053-.274-.052-.274-.05-.275-.048-.276-.047-.276-.045-.277-.043-.277-.042-.278-.04-.278-.038-.28-.037-.28-.034-.28-.033-.28-.032-.28-.03-.282-.028-.282-.026-.283-.024-.283-.023-.283-.02-.284-.02-.285-.018-.285-.015-.286-.014-.286-.01-.286-.01-.287-.01-.287-.006-.288-.005-.29-.002-.288-.001-.29.001-.29.002-.29.005-.288.006-.288.01-.288.01-.287.01-.286.014-.286.015-.286.018-.285.02-.284.02-.284.023-.284.024-.283.026-.283.028-.282.03-.28.032-.28.033-.28.034-.28.037-.28.038-.28.04-.28.042-.278.043-.277.045-.277.047-.276.048-.275.05-.275.052-.275.053-.273.055-.274.057-.272.058-.272.06-.272.062-.27.063-.27.065-.27.067-.27.068-.268.07-.268.07-.267.073-.266.075-.266.076-.265.078-.264.08-.264.08-.263.083-.262.084-.26.086-.26.087-.26.09-.26.1-.26.092-.258.093-.257.095-.256.097-.256.097-.255.1-.255.1-.253.102-.253.104-.252.106-.25.107-.25.108-.25.1-.25.11-.248.113-.248.114-.246.116-.246.117-.245.12-.244.12-.243.12-.242.123-.242.124-.24.126-.24.127-.24.258-.476.264-.472.134-.234.136-.234.137-.233.138-.232.14-.23.14-.23.142-.23.144-.23.145-.227.146-.226.148-.226.148-.224.15-.224.15-.223.153-.22.154-.22.155-.22.157-.22.158-.218.16-.216.16-.216.162-.215.163-.214.164-.213.166-.212.166-.2.168-.2.17-.21.17-.208.17-.206.173-.206.174-.204.176-.204.176-.202.178-.202.178-.2.18-.2.182-.198.182-.197.183-.196.185-.195.186-.194.187-.192.188-.192.19-.2.19-.19.19-.188.193-.187.193-.186.195-.185.196-.183.197-.183.198-.18.2-.18.2-.18.2-.177.202-.177.204-.175.205-.174.205-.173.414-.342.21-.17.2-.168.21-.167.212-.165.212-.164.214-.163.215-.162.216-.16.217-.16.218-.158.218-.156.22-.156.22-.154.444-.304.224-.15.224-.15.452-.294.456-.288.23-.142.23-.14.23-.14.232-.138.233-.136.234-.136.235-.134.235-.133.237-.13.237-.13.238-.128.24-.127.24-.126.24-.124.24-.123.242-.122.244-.12.244-.118.245-.117.245-.116.247-.114.247-.113.248-.11.25-.1.25-.11.25-.107.25-.105.252-.104.253-.102.254-.1.254-.1.255-.098.256-.096.256-.095.258-.093.258-.092.258-.09.52-.176.26-.085.26-.084.263-.083.263-.08.263-.08.264-.078.265-.076.266-.075.266-.073.267-.07.268-.07.268-.068.27-.067.27-.065.27-.063.27-.062.27-.06.272-.058.273-.057.273-.055.274-.054.274-.05.275-.05.276-.05.276-.046.276-.045.278-.044.278-.04.278-.04.28-.038.28-.037.28-.035.28-.033.28-.03.282-.03.282-.028.282-.026.283-.025.284-.022.284-.02.285-.02.285-.017.285-.015.286-.014.287-.012.287-.01.287-.008.288-.006.288-.005.29-.003.29-.001.29.001zm-.553 4l-.263.003-.263.004-.263.006-.262.007-.26.01-.26.01-.26.013-.26.014-.26.015-.26.017-.26.02-.26.02-.257.022-.258.024-.257.025-.256.027-.256.028-.256.03-.255.032-.254.033-.254.035-.253.036-.253.038-.253.04-.252.04-.25.042-.25.044-.25.046-.25.047-.25.048-.25.05-.248.05-.247.053-.247.055-.247.056-.245.058-.246.06-.244.06-.244.062-.244.064-.243.065-.242.066-.242.068-.24.07-.24.07-.48.146-.24.075-.238.077-.237.078-.237.08-.236.08-.235.082-.235.084-.234.085-.234.086-.232.088-.232.09-.232.1-.23.092-.23.093-.23.095-.23.096-.228.097-.227.1-.226.1-.226.1-.225.103-.225.104-.223.105-.223.107-.222.108-.222.11-.44.222-.438.228-.217.116-.217.117-.216.118-.215.12-.215.12-.213.122-.213.124-.212.124-.21.126-.21.127-.21.128-.21.13-.208.13-.207.13-.412.268-.204.135-.204.137-.203.138-.202.14-.2.14-.2.14-.2.143-.2.144-.197.145-.197.146-.196.147-.388.298-.193.15-.192.152-.19.153-.19.154-.19.155-.376.314-.186.16-.185.16-.185.16-.183.162-.183.163-.18.164-.18.165-.18.166-.18.168-.177.168-.177.17-.175.17-.175.172-.173.172-.173.174-.17.174-.17.176-.17.176-.168.178-.167.178-.332.36-.164.182-.163.182-.322.368-.16.186-.158.186-.158.187-.312.378-.154.2-.153.19-.152.192-.15.193-.15.194-.148.195-.148.196-.146.196-.145.198-.144.198-.284.4-.14.2-.14.202-.138.203-.137.203-.136.205-.134.205-.133.207-.132.206-.13.208-.13.21-.13.2-.127.2-.125.21-.125.212-.123.213-.122.214-.12.215-.12.215-.118.216-.117.217-.116.217-.114.22-.113.218-.112.22-.11.22-.11.22-.108.223-.212.446-.104.224-.102.226-.102.225-.1.227-.196.455-.096.228-.094.23-.093.23-.092.23-.09.23-.09.232-.088.233-.086.233-.085.234-.084.235-.082.236-.08.236-.08.237-.078.237-.076.238-.075.238-.074.24-.072.24-.07.24-.07.24-.068.24-.067.243-.065.243-.063.243-.062.244-.06.245-.06.245-.058.246-.056.246-.054.247-.053.248-.052.248-.05.25-.05.25-.047.25-.045.25-.044.25-.043.25-.04.252-.04.252-.038.253-.037.254-.068.508-.03.255-.03.255-.03.257-.027.256-.025.257-.024.257-.022.258-.02.258-.02.26-.017.26-.016.26-.014.26-.013.26-.01.262-.01.26-.008.262-.006.263-.004.263-.002.263-.001.264.001.263.002.264.004.263.006.262.008.262.01.262.01.26.013.26.014.26.016.26.017.26.02.26.02.258.022.258.024.257.025.257.027.257.03.256.03.255.03.255.068.51.037.253.038.253.04.252.04.252.043.252.044.25.045.25.047.25.05.25.05.25.052.248.053.248.054.247.056.246.058.246.06.245.06.245.062.244.063.244.065.243.067.242.068.24.07.24.07.24.072.24.074.24.075.24.076.238.078.237.16.473.082.235.084.235.085.234.086.233.088.233.09.232.09.232.092.23.093.23.094.23.096.228.098.228.098.227.1.227.102.226.102.225.104.224.106.224.106.223.108.222.11.22.11.22.112.22.113.22.114.218.116.218.117.217.118.216.12.215.12.214.122.214.123.213.125.212.125.21.127.21.258.418.13.208.132.207.133.206.134.205.136.205.137.204.138.202.14.202.14.202.142.2.142.2.144.2.145.197.146.196.148.196.148.195.15.194.15.193.152.192.153.19.154.2.312.378.316.374.16.185.322.368.163.182.164.182.165.18.167.18.167.18.168.177.17.177.342.35.173.173.173.172.174.172.176.17.177.17.177.168.18.167.18.166.18.165.18.164.183.163.183.162.185.16.185.16.187.158.187.157.188.157.19.155.2.154.192.153.192.152.193.15.194.15.194.148.196.147.197.146.197.145.2.144.2.143.2.142.2.14.202.14.203.138.204.137.204.135.206.135.206.133.207.132.208.13.21.13.21.128.21.127.21.126.212.125.213.123.213.122.215.12.215.12.216.12.217.117.217.115.22.115.22.113.22.112.22.1.222.11.222.108.223.107.224.105.224.104.225.103.226.1.226.1.227.1.228.097.23.096.23.095.23.093.23.092.23.1.233.1.232.087.234.087.234.085.235.083.235.082.236.08.237.08.237.078.238.077.24.075.24.074.24.072.24.07.24.07.242.068.242.066.243.065.244.064.244.062.244.06.246.06.245.057.247.056.247.055.247.053.248.052.25.05.5.096.25.045.25.044.25.043.252.04.253.04.253.038.253.036.254.035.254.033.255.032.256.03.256.028.256.027.257.026.257.023.26.022.258.02.26.02.26.017.26.016.26.014.26.012.26.01.26.01.262.008.526.01.263.002h.264.264l.263-.002.525-.01.263-.008.26-.01.26-.01.26-.012.26-.014.26-.016.26-.017.26-.02.258-.02.258-.022.258-.023.257-.026.256-.027.256-.028.256-.03.255-.032.254-.033.254-.035.253-.036.253-.038.253-.04.252-.04.25-.043.25-.044.25-.045.5-.096.25-.05.248-.052.247-.053.247-.055.247-.056.245-.057.246-.06.244-.06.244-.062.244-.064.243-.065.242-.066.242-.068.24-.07.24-.07.24-.072.24-.074.24-.075.238-.077.237-.078.237-.08.236-.08.235-.082.235-.083.234-.085.234-.087.232-.087.233-.1.23-.1.23-.092.23-.093.23-.095.23-.096.228-.097.227-.1.226-.1.226-.1.225-.103.224-.104.224-.105.223-.107.222-.108.222-.11.22-.1.22-.112.22-.113.436-.23.217-.117.216-.12.215-.12.215-.12.213-.122.213-.123.212-.125.21-.126.21-.127.21-.128.21-.13.208-.13.207-.132.206-.133.206-.135.204-.135.204-.137.203-.138.202-.14.2-.14.2-.142.2-.143.2-.144.197-.145.197-.146.196-.147.194-.148.194-.15.193-.15.192-.152.192-.153.2-.154.19-.155.188-.157.187-.157.187-.158.185-.16.185-.16.183-.162.183-.163.18-.164.18-.165.18-.166.18-.167.177-.168.177-.17.175-.17.175-.172.173-.172.173-.173.342-.35.17-.177.168-.177.167-.18.167-.18.165-.18.163-.18.164-.183.322-.368.16-.186.158-.186.158-.187.312-.378.154-.2.153-.19.15-.192.15-.193.15-.194.148-.195.148-.196.146-.196.145-.197.144-.2.143-.2.14-.2.14-.202.14-.202.138-.202.137-.204.136-.205.134-.205.133-.206.132-.207.13-.208.258-.418.127-.21.126-.21.124-.212.123-.213.122-.214.12-.214.12-.216.118-.215.117-.217.116-.218.114-.218.113-.22.112-.22.11-.22.11-.22.108-.222.106-.223.106-.224.104-.224.102-.225.102-.226.1-.227.098-.227.098-.228.096-.228.094-.23.093-.23.092-.23.09-.232.09-.232.088-.233.086-.233.085-.234.083-.235.083-.236.08-.235.08-.237.078-.237.076-.238.075-.24.074-.24.072-.24.07-.24.07-.24.068-.24.067-.243.065-.242.063-.244.062-.244.06-.245.06-.245.058-.246.056-.246.054-.247.053-.248.052-.248.05-.248.05-.25.047-.25.045-.25.044-.25.043-.252.04-.252.04-.252.038-.253.037-.253.068-.51.03-.255.03-.255.03-.256.027-.257.025-.257.024-.257.022-.258.02-.258.02-.26.017-.26.016-.26.014-.26.013-.26.01-.26v-.262l.008-.262.006-.262.004-.263.002-.264v-.263-.264l-.002-.264-.004-.263-.006-.262-.008-.262v-.262l-.01-.26-.013-.26-.014-.26-.016-.26-.017-.26-.02-.26-.02-.258-.022-.258-.024-.257-.025-.257-.027-.257-.03-.256-.03-.255-.03-.255-.068-.508-.037-.254-.038-.253-.04-.252-.04-.252-.043-.25-.044-.25-.045-.25-.047-.25-.05-.25-.05-.25-.052-.248-.053-.248-.054-.246-.056-.247-.058-.246-.06-.245-.06-.245-.062-.244-.063-.243-.065-.243-.067-.243-.068-.24-.07-.24-.07-.24-.072-.24-.074-.24-.075-.238-.076-.238-.078-.238-.16-.472-.083-.236-.083-.235-.085-.234-.086-.233-.088-.233-.09-.232-.09-.23-.092-.23-.093-.23-.094-.23-.096-.23-.098-.228-.098-.227-.1-.227-.204-.45-.104-.225-.212-.446-.108-.223-.11-.22-.11-.22-.112-.22-.113-.22-.114-.218-.116-.217-.117-.217-.118-.216-.12-.215-.12-.215-.122-.214-.123-.213-.124-.21-.126-.212-.127-.2-.13-.2-.13-.21-.13-.207-.132-.207-.133-.207-.134-.205-.136-.205-.137-.203-.138-.203-.14-.202-.14-.2-.14-.2-.143-.2-.144-.198-.145-.198-.146-.196-.148-.196-.148-.195-.15-.194-.15-.193-.152-.192-.153-.19-.154-.2-.312-.378-.158-.187-.158-.186-.16-.186-.322-.368-.164-.182-.163-.182-.165-.18-.167-.18-.167-.178-.168-.178-.17-.176-.17-.176-.17-.174-.173-.174-.173-.172-.175-.172-.175-.17-.177-.17-.177-.168-.18-.168-.18-.166-.18-.165-.18-.164-.183-.163-.183-.162-.185-.16-.185-.16-.186-.16-.376-.314-.19-.155-.19-.154-.19-.153-.192-.152-.193-.15-.388-.298-.196-.147-.197-.146-.197-.145-.2-.144-.2-.143-.2-.14-.2-.14-.202-.14-.203-.138-.204-.137-.204-.135-.412-.268-.207-.13-.208-.13-.21-.13-.21-.128-.21-.127-.21-.126-.212-.124-.213-.124-.213-.122-.215-.12-.215-.12-.216-.118-.217-.117-.218-.116-.218-.114-.22-.114-.44-.222-.222-.11-.222-.108-.223-.107-.223-.105-.225-.104-.225-.103-.226-.1-.226-.1-.227-.1-.228-.097-.23-.096-.23-.095-.23-.093-.23-.092-.232-.1-.232-.09-.232-.088-.234-.086-.234-.085-.235-.084-.235-.082-.236-.08-.237-.08-.237-.078-.238-.077-.24-.075-.24-.073-.24-.073-.48-.14-.242-.068-.242-.066-.243-.065-.244-.064-.244-.062-.244-.06-.246-.06-.245-.058-.247-.056-.247-.055-.247-.053-.497-.102-.25-.048-.25-.047-.25-.046-.25-.044-.25-.042-.252-.04-.253-.04-.253-.038-.253-.036-.254-.035-.254-.033-.255-.032-.256-.03-.256-.028-.256-.027-.257-.025-.258-.024-.257-.022-.26-.02-.26-.02-.26-.017-.26-.015-.26-.014-.26-.013-.26-.01-.26-.01-.263-.007-.262-.006-.263-.004-.263-.003-.264-.001-.264.001z" fill="#727272"/></g><circle cx="123.483" cy="157.213" r="44.737" fill="#2ca435" transform="matrix(.620711 0 0 1.24169 3.98419 89.9454)"/><use xlink:href="#B" fill="#fff" fill-opacity=".847"/><g fill-rule="nonzero"><path d="M156.995 246.4h-5.377l-10.478 36.763-10.587-36.763h-5.377l13.496 45.54v33.8h4.936v-33.8l13.387-45.54zm4.882 53.334h20.243v-3.732c0-17.23-4.4-28.094-12.3-28.094-8.174 0-12.892 12.074-12.892 30.07 0 18.106 5.377 28.857 13.276 28.857 5.43 0 10.37-5.705 11.74-17.556h-4.6c-1.095 6.473-3.62 9.765-7.24 9.765-5.54 0-8.23-8.446-8.23-19.3zm0-6.805c0-8.56 2.522-17.447 7.9-17.447 5.156 0 7.626 7.574 7.626 17.447h-15.526zm36.918 33.908c5.98 0 10.862-5.814 10.862-16.788 0-5.596-1.427-12.62-6.583-15.252l-5.76-2.964c-3.127-1.537-4.772-3.514-4.772-7.574 0-6.914 3.402-8.778 6.2-8.778 3.3 0 5.595 3.3 5.98 8.67h4.388c-.1-10.206-4.222-16.243-10.312-16.243-6.363 0-10.806 6.037-10.75 16.902 0 8.45 2.906 12.5 7.46 14.815l5.65 2.96c2.58 1.2 4.06 3.732 4.06 8.015 0 5.596-2.577 8.67-6.417 8.67-3.402 0-6.417-2.855-7.186-9.987h-4.554c.768 11.742 5.76 17.556 11.74 17.556zM374.6 246.4v62.1l-21.12-62.1h-4.66v79.34h4.88v-62.988l21.45 62.988h4.388V246.4H374.6zm25.4 80.437c8.12 0 12.946-12.07 12.946-29.2 0-17.338-4.772-29.74-12.892-29.74-8.008 0-12.946 12.292-12.946 29.85 0 17.12 4.718 29.08 12.892 29.08zm.1-7.792c-5.595 0-8.117-9.546-8.117-21.725s2.522-21.62 8.063-21.62 8 9.328 8 21.62c0 12.178-2.416 21.725-7.956 21.725z" fill-opacity=".8"/><path d="M667.2 289v36.762h4.937v-79.34H667.2v33.9h-18.706v-33.9h-4.882v79.34h4.882V289H667.2zm17.446 10.753h20.242v-3.73c0-17.23-4.4-28.093-12.288-28.093-8.174 0-12.9 12.07-12.9 30.068 0 18.107 5.376 28.86 13.275 28.86 5.43 0 10.368-5.706 11.74-17.558h-4.608c-1.097 6.475-3.62 9.767-7.24 9.767-5.54 0-8.23-8.45-8.23-19.314zm0-6.804c0-8.56 2.523-17.448 7.9-17.448 5.157 0 7.625 7.572 7.625 17.448h-15.525zm34.45 33.46c.658 0 1.646-.33 2.523-.878v-6.365h-1.6c-1.975-.22-3.182-2.963-3.182-8.9v-66.062H712v67.05c0 7.9 1.097 15.144 7.077 15.144zm9.216 17.02h4.882v-25.46c2.25 6.475 4.937 8.9 8 8.9 7.24 0 12.617-10.864 12.617-30.178 0-19.424-5.266-28.75-11.85-28.75-4.882 0-7.515 5.597-8.832 8.9v-7.8h-4.827v74.402zm12.123-24.142c-2.962 0-5.486-3.62-7.24-8.9V288.77c0-5.926 3.182-13.17 7.515-13.17 4.4 0 8.393 6.804 8.393 21.3 0 14.266-3.73 22.387-8.667 22.387zM46.546 178.193h16.73c11.52 0 15.965-6.803 15.965-21.616 0-5.928-.385-15.034-7.35-19.205 4.882-4.83 6.418-10.204 6.418-17.557 0-13.498-4.828-20.962-15.9-20.962H46.546v79.34zM57.243 129.8v-14.922h6.308c2.524 0 4.5 2.96 4.5 7.68 0 4.168-1.592 7.24-4.115 7.24h-6.693zm0 32.374V146.26h6.693c2.687 0 4.443 3.293 4.443 7.68 0 4.17-1.592 8.23-4.718 8.23h-6.418zm36.6-7.463h17.884v-4.94c0-16.787-4.664-29.4-13.934-29.4-9.107 0-14.427 13.94-14.427 30.18 0 17.228 6.034 28.752 14.866 28.752 6.308 0 12.727-7.794 13.605-20.413h-9.436c-.878 4.392-2.468 5.487-4.443 5.487-2.304 0-4.17-2.852-4.115-9.655zm-.054-11.96c0-4.28 1.8-8.014 4.004-8.014 2.687 0 4.115 3.734 4.115 8.014h-8.12zm61.054-43.898v44.227l-15.47-44.227H128.61v79.34h10.697v-47.296l16.566 47.296h9.655v-79.34h-10.697zm27.924-2.194H172.06v17.998h10.697V96.658zm0 24.8H172.06v56.734h10.697V121.46zm18.213-1.098c-8.23 0-14.32 12.182-14.32 29.742 0 17.336 6.2 29.2 14.32 29.2 7.734 0 12.288-10.974 12.288-23.044h-8.393c-.164 2.303-.932 8.34-3.62 8.34-2.743 0-4.774-5.38-4.774-14.705 0-9.1 1.8-13.718 4.554-13.718s3.5 5.267 3.73 8.45h8.666c-.164-12.73-4.443-24.255-12.452-24.255zm25.507 34.35h17.884v-4.94c0-16.787-4.662-29.4-13.934-29.4-9.105 0-14.427 13.94-14.427 30.18 0 17.228 6.034 28.752 14.866 28.752 6.308 0 12.727-7.794 13.605-20.413h-9.436c-.876 4.392-2.468 5.487-4.443 5.487-2.304 0-4.17-2.852-4.115-9.655zm-.054-11.96c0-4.28 1.8-8.014 4.004-8.014 2.7 0 4.115 3.734 4.115 8.014h-8.12z"/></g><g fill="#fff"><path d="M61.242 285.906l6.004-12.01 8.816 17.974 18.456-36.994 5.504 11.512-24.268 49.05-14.51-29.53z"/><use xlink:href="#B" fill-opacity=".847"/></g><path d="M620.575 216.97l.22.006.1.005.11.006.1.008.11.01.11.01.11.012.108.012.217.03.107.018.108.018.107.02.215.043.107.024.107.024.213.055.106.03.106.03.106.032.106.034.105.034.105.035.2.076.21.08.104.043.104.043.104.044.103.046.104.047.206.098.204.104.102.053.1.053.102.056.1.056.1.058.1.06.1.06.1.06.1.064.1.064.1.066.1.066.098.07.1.07.098.07.098.07.098.073.098.073.097.075.194.152.096.078.096.08.096.08.095.08.2.168.094.084.094.087.094.087.093.088.094.088.093.09.092.09.093.09.09.094.092.094.09.096.09.096.09.098.09.1.18.2.09.102.09.104.088.104.088.107.088.105.175.216.174.22.086.11.085.113.086.113.085.114.085.116.085.117.168.235.083.12.083.12.083.122.082.122.082.123.082.125.162.25.08.128.08.128.08.128.158.26.078.133.155.265.077.136.077.134.152.274.075.137.075.14.075.14.075.142.073.142.074.142.146.288.072.145.143.293.07.148.07.148.07.15.07.15.137.302.136.306.067.154.067.155.066.155.066.157.13.315.065.16.064.16.063.16.063.162.062.162.062.163.062.165.122.33.06.166.06.166.06.168.06.17.058.168.058.17.057.17.056.17.056.172.056.172.056.174.055.174.054.174.053.175.053.177.053.177.052.177.052.178.05.178.1.36.05.18.05.18.05.183.048.183.047.183.093.37.046.184.1.373.044.187.043.187.085.378.042.19.04.19.04.19.04.192.04.192.04.192.04.194.037.194.075.4.036.195.036.197.035.195.034.198.067.396.033.198.032.2.03.2.03.2.03.2.03.2.03.203.056.405.027.203.027.204.026.204.025.206.024.204.024.207.024.206.023.207.044.415.02.21.02.207.02.2.02.21.018.2.035.42.032.424.015.212.014.213.027.425.024.428.01.215.01.215.01.215.01.216.008.216.015.433.007.218.01.434.005.22.004.218.003.22.005.44.001.22-.05 71.028-.008.216-.01.215-.01.216-.01.215-.01.213-.012.215-.012.213-.027.427-.014.212-.015.213-.032.422-.018.212-.018.2-.018.21-.02.2-.02.21-.04.418-.044.415-.023.207-.024.206-.05.412-.025.204-.026.204-.027.204-.027.204-.056.405-.03.2-.03.2-.06.402-.03.2-.032.198-.033.2-.067.396-.034.197-.035.197-.036.197-.036.195-.112.584-.078.386-.04.192-.04.19-.04.192-.04.19-.042.19-.085.378-.043.187-.044.187-.1.372-.046.186-.093.37-.047.183-.048.183-.098.363-.05.18-.1.36-.05.178-.104.357-.053.177-.107.35-.054.175-.055.174-.056.174-.056.172-.056.172-.056.17-.057.17-.116.338-.06.168-.12.335-.06.166-.122.33-.123.326-.062.163-.063.162-.063.16-.064.16-.13.317-.13.314-.066.155-.067.155-.067.154-.068.154-.137.305-.07.15-.07.15-.14.3-.07.148-.143.293-.072.145-.073.143-.072.143-.147.285-.15.28-.075.14-.075.14-.076.137-.076.136-.077.136-.077.134-.078.134-.078.133-.157.262-.158.26-.08.128-.162.253-.08.125-.163.247-.082.122-.083.122-.083.12-.083.12-.084.12-.084.117-.17.232-.085.114-.086.114-.085.11-.086.113-.174.22-.088.108-.088.107-.088.107-.088.105-.088.104-.09.104-.09.102-.1.102-.1.1-.09.1-.18.195-.09.096-.092.094-.09.093-.093.093-.092.09-.093.1-.094.1-.093.088-.094.087-.094.085-.094.085-.095.084-.2.165-.192.16-.096.078-.097.078-.097.076-.097.075-.098.073-.098.072-.098.072-.098.07-.1.07-.098.067-.1.067-.1.066-.1.064-.1.062-.1.062-.2.12-.1.058-.1.058-.102.055-.1.055-.102.053-.102.052-.102.05-.103.05-.103.047-.104.047-.103.046-.104.044-.104.044-.104.04-.104.04-.104.04-.105.038-.105.037-.2.07-.106.034-.212.06-.106.03-.107.03-.213.052-.215.046-.107.02-.107.02-.108.018-.216.034-.217.027-.218.02-.11.01-.1.008-.11.006-.22.01-.22.003H586.38l-.22-.003-.22-.01-.11-.006-.1-.008-.11-.01-.218-.02-.108-.014-.11-.014-.108-.017-.107-.017-.108-.018-.107-.02-.107-.02-.215-.046-.213-.052-.213-.058-.212-.06-.106-.034-.2-.07-.105-.037-.105-.038-.104-.04-.104-.04-.104-.04-.104-.044-.104-.044-.103-.046-.104-.047-.103-.047-.102-.05-.103-.05-.102-.052-.102-.053-.1-.055-.102-.055-.1-.058-.1-.058-.2-.12-.2-.125-.1-.064-.1-.066-.1-.067-.098-.067-.1-.07-.098-.07-.098-.072-.098-.072-.097-.073-.098-.075-.097-.076-.097-.078-.096-.078-.192-.16-.2-.165-.094-.084-.095-.085-.094-.085-.094-.087-.094-.088-.094-.1-.093-.1-.092-.09-.093-.093-.09-.093-.092-.094-.09-.096-.18-.195-.09-.1-.1-.1-.1-.102-.09-.102-.09-.104-.088-.104-.088-.105-.088-.107-.088-.107-.088-.108-.087-.1-.086-.1-.087-.113-.085-.11-.086-.114-.085-.114-.085-.116-.085-.116-.084-.117-.084-.12-.083-.12-.083-.12-.083-.122-.082-.122-.163-.247-.08-.125-.162-.253-.08-.128-.08-.13-.08-.13-.157-.262-.078-.133-.078-.134-.077-.134-.077-.136-.076-.136-.075-.137-.076-.14-.075-.14-.075-.14-.074-.14-.074-.142-.074-.143-.145-.287-.072-.145-.143-.293-.07-.148-.14-.3-.07-.15-.07-.15-.137-.305-.068-.154-.067-.154-.133-.31-.066-.157-.066-.157-.065-.16-.064-.16-.128-.32-.126-.325-.123-.326-.122-.33-.06-.166-.12-.335-.06-.168-.116-.338-.057-.17-.056-.17-.056-.172-.056-.172-.056-.174-.054-.174-.108-.35-.053-.175-.053-.177-.104-.357-.05-.178-.1-.36-.05-.18-.098-.363-.047-.183-.048-.183-.093-.37-.046-.186-.1-.372-.043-.187-.044-.187-.085-.378-.042-.19-.04-.19-.04-.192-.04-.19-.04-.192-.04-.194-.04-.192-.037-.195-.037-.194-.073-.4-.036-.197-.035-.197-.034-.197-.067-.396-.033-.2-.032-.198-.03-.2-.06-.402-.03-.2-.03-.2-.056-.405-.027-.204-.026-.204-.027-.204-.025-.204-.05-.412-.024-.206-.023-.207-.022-.207-.043-.416-.02-.21-.02-.21-.02-.2-.018-.21-.035-.422-.016-.2-.016-.212-.015-.213-.014-.212-.027-.427-.024-.428-.01-.213-.01-.215-.01-.216-.01-.215-.008-.216-.015-.433-.012-.436-.005-.218-.005-.218-.004-.218-.003-.22-.002-.22-.003-.44.017-69.94.005-.218.012-.434.015-.433.008-.216.01-.216.01-.215.01-.215.01-.215.024-.428.014-.213.014-.212.014-.213.015-.212.032-.424.035-.42.018-.2.02-.21.02-.2.02-.207.043-.416.022-.207.023-.207.024-.206.024-.207.024-.204.025-.206.027-.204.026-.204.027-.203.056-.405.03-.203.03-.2.06-.4.03-.2.032-.2.033-.198.067-.396.034-.198.035-.195.036-.197.073-.4.037-.195.037-.194.04-.194.04-.192.04-.192.04-.192.04-.19.04-.19.042-.19.085-.378.044-.187.043-.187.045-.186.045-.187.046-.184.093-.37.048-.183.047-.183.05-.183.05-.18.05-.18.1-.36.05-.178.052-.178.052-.177.053-.177.053-.177.054-.175.108-.348.056-.174.056-.172.056-.172.056-.17.057-.17.058-.17.117-.337.06-.168.06-.166.06-.166.122-.33.062-.165.062-.163.063-.162.062-.162.192-.48.065-.157.066-.16.066-.157.133-.31.067-.154.136-.306.137-.302.07-.15.07-.15.07-.148.07-.148.143-.293.145-.3.072-.143.222-.425.075-.14.075-.14.076-.137.075-.137.076-.137.077-.134.077-.136.155-.265.078-.133.078-.13.08-.13.08-.128.08-.128.08-.128.162-.25.082-.125.082-.123.082-.122.083-.122.083-.12.083-.12.168-.235.085-.117.085-.116.085-.114.086-.113.085-.113.087-.11.086-.1.087-.1.175-.216.088-.105.088-.107.088-.104.09-.104.09-.102.18-.2.09-.1.09-.098.09-.096.09-.096.092-.094.09-.094.093-.09.092-.09.093-.09.187-.177.187-.174.095-.084.094-.084.095-.084.095-.08.096-.08.096-.08.096-.078.194-.152.098-.075.097-.073.098-.073.098-.07.098-.07.1-.07.098-.07.1-.066.1-.066.2-.128.1-.06.1-.06.1-.06.1-.058.1-.056.102-.056.1-.053.102-.053.102-.052.103-.052.102-.05.103-.05.104-.047.103-.046.104-.044.104-.043.104-.043.21-.08.2-.076.105-.035.105-.034.106-.034.106-.032.106-.03.106-.03.213-.055.107-.024.107-.024.215-.043.107-.02.108-.018.107-.018.108-.015.11-.015.217-.024.11-.01.11-.01.1-.008.11-.006.1-.005.22-.006h34.306zm-34.2 6.097h-.096l-.09.003h-.09l-.18.01-.09.008-.09.006-.18.018-.09.01-.09.012-.09.014-.088.014-.09.015-.177.034-.088.018-.088.02-.175.043-.088.023-.174.05-.087.026-.087.027-.086.027-.087.03-.086.03-.086.032-.085.032-.086.034-.085.034-.17.073-.085.037-.17.08-.084.04-.085.04-.084.043-.166.088-.084.046-.082.047-.083.047-.083.05-.082.05-.082.052-.082.05-.163.107-.08.055-.082.055-.08.056-.08.058-.08.058-.16.12-.08.062-.08.06-.08.064-.078.064-.08.064-.078.067-.078.066-.078.07-.078.07-.078.07-.077.07-.154.143-.076.073-.076.075-.077.075-.15.152-.075.08-.075.078-.075.08-.075.08-.074.08-.074.082-.148.168-.072.084-.073.085-.145.174-.072.088-.072.1-.07.088-.072.09-.07.09-.07.093-.14.186-.208.288-.137.195-.136.198-.07.1-.134.204-.066.102-.066.104-.066.105-.066.105-.13.213-.13.215-.127.218-.064.11-.063.11-.125.226-.124.227-.183.348-.12.235-.12.238-.117.24-.06.122-.115.245-.057.123-.114.248-.056.125-.056.127-.056.128-.055.128-.054.127-.054.128-.107.26-.053.13-.053.13-.104.265-.05.133-.052.136-.05.133-.05.136-.05.136-.1.274-.048.137-.05.14-.094.277-.048.142-.046.14-.046.14-.046.142-.046.143-.045.143-.088.287-.087.3-.085.293-.042.146-.082.296-.04.148-.04.15-.08.3-.04.15-.038.152-.038.15-.037.15-.037.154-.037.154-.037.152-.07.308-.035.155-.034.155-.034.157-.034.157-.066.314-.03.157-.032.16-.03.16-.03.16-.06.32-.058.323-.056.323-.053.325-.027.165-.025.163-.026.165-.05.33-.024.166-.024.165-.023.166-.044.335-.02.168-.02.168-.02.17-.02.168-.038.338-.018.17-.018.17-.034.34-.032.343-.015.172-.014.174-.027.346-.026.348-.034.526-.01.174-.01.177-.018.354-.015.352-.014.357-.006.178-.005.18-.01.358-.004.18-.003.18v.18l-.002.18-.002.18v.18l.018 69.812.005.18.005.18.006.177.014.357.015.354.018.354.01.177.01.174.034.526.026.346.027.348.014.172.015.172.032.344.034.34.018.17.018.17.02.17.02.168.02.17.04.337.02.168.022.168.022.166.023.166.024.166.024.165.05.33.026.165.025.163.08.49.056.323.058.322.03.162.03.16.03.16.03.16.032.157.03.157.033.16.033.157.034.157.034.155.034.157.105.462.073.308.075.305.076.302.04.15.04.15.04.15.04.148.04.15.04.148.04.146.042.146.043.148.043.146.087.3.088.287.045.143.046.142.046.143.046.14.046.14.048.14.047.14.047.137.097.276.1.274.05.136.05.136.05.134.052.134.05.134.052.133.052.13.053.13.107.262.054.13.108.256.055.128.056.128.11.25.057.125.056.125.057.123.058.123.057.12.06.122.117.24.06.12.12.236.12.233.06.116.06.114.062.114.062.114.062.11.062.113.063.11.064.11.063.1.13.218.13.213.066.107.066.105.2.31.067.1.067.102.07.102.068.1.068.098.07.1.07.098.14.192.07.094.07.094.07.093.07.09.07.093.072.1.07.1.072.088.072.088.145.174.073.087.072.084.148.168.074.08.074.082.075.08.075.08.075.078.15.155.076.075.076.076.075.073.154.146.077.072.077.07.078.07.078.07.078.067.078.067.078.066.08.066.078.064.08.062.08.062.08.06.08.06.08.06.08.058.08.056.08.058.082.055.08.055.082.053.082.052.082.052.082.05.082.05.083.05.083.047.082.046.084.046.083.046.083.043.084.043.085.04.084.04.085.04.17.076.085.037.085.035.085.035.086.034.085.032.172.06.087.03.086.03.087.027.087.026.174.05.088.023.088.02.088.02.175.037.088.018.088.017.09.015.088.014.178.024.18.02.18.015.18.012.18.006.09.002.096.002 34.533-.015.1-.006.18-.015.1-.01.09-.01.178-.024.088-.014.09-.015.088-.017.088-.018.088-.018.088-.018.175-.043.088-.023.174-.05.087-.026.087-.027.087-.03.086-.03.172-.06.086-.032.085-.034.085-.035.085-.035.085-.037.17-.076.085-.04.084-.04.085-.04.084-.043.083-.043.084-.046.166-.09.082-.047.083-.05.082-.05.082-.05.082-.052.082-.052.082-.053.08-.055.082-.056.162-.113.08-.058.08-.06.16-.122.158-.125.078-.064.08-.066.078-.066.078-.067.078-.067.078-.07.078-.07.077-.07.077-.072.154-.146.076-.073.076-.076.075-.075.15-.155.075-.078.075-.08.075-.08.074-.082.074-.08.148-.168.072-.084.073-.087.145-.174.072-.088.072-.088.07-.1.072-.1.07-.093.07-.09.07-.093.07-.094.07-.094.14-.192.07-.098.07-.1.07-.098.136-.2.067-.1.067-.102.067-.104.066-.102.066-.105.066-.107.13-.212.064-.107.065-.108.128-.22.126-.223.063-.113.062-.11.062-.114.062-.114.06-.114.122-.232.06-.117.12-.236.12-.24.058-.12.06-.122.057-.12.058-.123.057-.123.057-.125.056-.125.11-.25.056-.128.055-.128.108-.256.054-.13.053-.13.053-.13.053-.133.052-.13.052-.133.052-.134.05-.134.05-.134.05-.136.05-.136.1-.274.05-.137.048-.137.047-.14.048-.14.046-.14.047-.142.137-.425.09-.287.044-.145.043-.143.043-.145.043-.146.043-.148.042-.146.04-.146.04-.148.04-.15.04-.148.04-.15.04-.15.078-.302.037-.15.075-.305.073-.308.035-.154.036-.154.034-.154.034-.157.034-.155.034-.157.033-.157.033-.16.032-.157.03-.157.03-.16.03-.16.03-.16.03-.162.03-.16.085-.485.027-.162.027-.165.027-.163.026-.163.025-.165.025-.166.024-.165.024-.165.046-.332.044-.334.02-.168.02-.17.02-.168.02-.17.02-.168.02-.17.018-.17.018-.17.05-.514.03-.344.03-.346.04-.52.034-.526.02-.35.018-.352.023-.533.012-.357.005-.178.01-.358.004-.18.003-.18.005-.363.002-.18v-.18l-.048-70.703-.015-.355-.018-.352-.02-.35-.01-.177-.023-.35-.04-.52-.014-.172-.014-.174-.03-.344-.05-.512-.018-.17-.018-.17-.038-.338-.02-.168-.04-.337-.02-.168-.044-.335-.046-.33-.024-.166-.024-.165-.05-.33-.026-.163-.027-.165-.027-.163-.027-.162-.085-.485-.03-.162-.06-.32-.03-.16-.062-.32-.032-.157-.066-.314-.034-.157-.034-.157-.07-.31-.036-.154-.035-.154-.037-.152-.037-.154-.037-.154-.075-.302-.04-.152-.04-.15-.08-.3-.04-.15-.04-.148-.082-.296-.042-.146-.085-.293-.043-.145-.043-.143-.044-.145-.09-.287-.046-.143-.046-.142-.046-.14-.047-.142-.046-.14-.047-.14-.048-.14-.05-.14-.048-.137-.1-.274-.05-.134-.05-.137-.1-.267-.052-.134-.104-.265-.053-.13-.053-.13-.053-.13-.054-.13-.054-.128-.11-.255-.056-.128-.056-.127-.056-.125-.17-.373-.058-.122-.057-.122-.06-.122-.117-.24-.06-.12-.12-.236-.06-.117-.183-.348-.124-.227-.125-.226-.063-.11-.063-.1-.128-.22-.065-.108-.064-.107-.13-.213-.066-.105-.066-.105-.066-.102-.067-.104-.134-.204-.068-.1-.068-.1-.07-.1-.137-.195-.07-.098-.07-.094-.14-.19-.07-.093-.07-.093-.07-.09-.072-.09-.07-.088-.072-.1-.072-.088-.145-.174-.073-.085-.072-.084-.148-.168-.074-.082-.074-.08-.075-.08-.075-.08-.075-.078-.075-.08-.15-.152-.152-.15-.077-.073-.154-.143-.077-.07-.078-.07-.078-.07-.078-.067-.157-.134-.08-.064-.078-.064-.08-.064-.08-.06-.08-.062-.16-.12-.08-.058-.08-.058-.08-.056-.082-.055-.08-.055-.163-.107-.082-.05-.082-.052-.082-.05-.083-.05-.082-.047-.083-.047-.083-.046-.084-.044-.083-.044-.084-.043-.084-.04-.254-.12-.085-.037-.085-.037-.085-.037-.085-.034-.086-.034-.085-.032-.086-.032-.086-.03-.086-.03-.174-.055-.087-.026-.174-.05-.088-.023-.175-.043-.088-.02-.088-.018-.177-.034-.09-.015-.178-.027-.09-.012-.09-.01-.18-.018-.1-.006-.1-.008-.18-.01h-.09l-.09-.003h-34.17z" fill="#727272"/><path d="M631.19 252.936c0-12.878-5.226-23.33-11.663-23.33h-32.212c-6.437 0-11.663 10.454-11.663 23.33v64.438c0 12.876 5.226 23.33 11.663 23.33h32.212c6.437 0 11.663-10.455 11.663-23.33v-64.438z" fill="#2ca435"/><path d="M637.08 402.11l-5.265 15.668-3.227 9.645c-.714 2.175-1.693 3.082-2.962 2.6-1.173-.454-1.8-2.026-2.1-4.26L608.5 317.694c-.324-2.318-.178-4.353.71-6 .995-1.86 2.116-1.652 3.313-.74l52.07 39.588c1.226.9 2.03 2.504 2.076 5.19.042 2.507-.648 4.137-1.736 5.306l-12.004 13.05-1.368 1.556.79 1.823 9.905 21.737c1.56 3.423 1.496 6.2-.2 9.314l-9.485 17.284c-1.678 3.05-3.08 2.923-4.606-.415l-9.903-21.742c-.245-.544-.405-1.244-.603-1.875l-.37.346z"/><path d="M584.41 285.906l6.004-12.01 8.816 17.974 18.456-36.994 5.504 11.512-24.268 49.05-14.51-29.53z" fill="#fff"/></g><defs ><path id="B" d="M637.508 251.062c0-18.817-7.637-34.093-17.042-34.093H586.38c-9.406 0-17.042 15.276-17.042 34.093v68.185c0 18.816 7.637 34.093 17.042 34.093h34.086c9.406 0 17.042-15.278 17.042-34.093v-68.185z"/></defs></svg>