<svg xmlns="http://www.w3.org/2000/svg" xmlns:xlink="http://www.w3.org/1999/xlink" width="100%" height="100%" viewBox="0 0 1050 590" fill-rule="evenodd" stroke-linejoin="round" stroke-miterlimit="1.41421"><g transform="scale(1.3125 1.31111)"><path d="M0 0h800v450H0z" fill="#fff"/><g transform="matrix(.761905 0 0 .762712 -13.4508 135.195)"><circle cx="123.483" cy="157.213" r="44.737" fill="#fff" fill-opacity=".847"/><path d="M123.772 112.476l.29.003.288.005.288.006.287.008.287.01.287.012.286.014.285.015.285.017.285.02.284.02.284.022.283.025.282.026.282.028.282.03.28.03.28.033.28.035.28.037.28.038.278.04.278.04.277.044.277.045.276.046.276.05.275.05.274.05.274.054.273.055.273.057.272.058.27.06.27.062.27.063.27.065.27.067.268.068.268.07.267.07.266.073.266.075.264.076.265.078.263.08.263.08.263.083.26.084.26.085.52.176.258.09.258.092.258.093.256.095.256.096.255.098.254.1.254.1.253.102.252.104.25.105.25.107.25.11.25.1.248.11.247.113.247.114.245.116.245.117.244.118.243.12.243.122.24.123.24.124.24.126.24.127.238.128.237.13.237.13.235.133.235.134.234.136.233.136.23.138.232.14.23.14.23.142.456.288.452.294.224.15.224.15.444.304.22.154.22.156.218.156.218.158.217.16.216.16.215.162.214.163.212.164.212.165.21.167.2.168.208.17.208.17.207.17.205.173.205.174.203.175.203.177.2.177.2.18.2.18.198.18.197.183.196.183.195.185.193.186.193.187.19.188.19.19.19.2.188.192.187.192.186.194.185.195.183.196.182.197.182.198.18.2.178.2.178.202.176.202.176.204.174.204.344.412.17.208.17.21.168.2.166.2.166.212.164.213.163.214.162.215.16.216.16.216.158.218.157.22.155.22.154.22.153.22.15.223.15.224.148.224.148.226.146.226.145.227.144.23.142.23.14.23.14.23.138.232.137.233.27.468.132.236.13.236.13.238.13.238.127.24.126.24.124.24.123.242.12.242.12.243.12.244.117.245.116.246.114.246.113.248.11.248.1.25.108.25.107.25.106.25.104.252.102.253.1.253.1.255.098.255.097.256.095.256.093.257.092.258.1.26.09.26.087.26.086.26.084.26.083.262.16.527.078.264.076.265.075.266.073.266.07.267.07.268.068.268.067.27.065.27.063.27.062.27.06.272.058.272.057.272.055.274.053.273.052.275.05.275.048.275.047.276.045.277.043.277.042.278.04.28.038.28.037.28.034.28.033.28.032.28.03.28.028.282.026.283.024.283.023.284v.284l.02.284.018.285.015.286.014.286.01.286.01.287.01.288.006.288.005.288.002.29v.29.29l-.002.288-.005.29-.006.288-.01.287-.01.287-.01.286-.014.286-.015.286-.018.285-.02.285v.284l-.023.283-.024.283-.026.283-.028.282-.03.282-.032.28-.033.28-.034.28-.037.28-.038.28-.04.278-.042.278-.043.277-.045.277-.047.276-.048.276-.05.275-.052.274-.053.274-.055.273-.057.273-.058.272-.06.27-.062.27-.063.27-.065.27-.067.268-.068.27-.07.267-.07.267-.073.267-.075.265-.076.265-.078.264-.08.264-.08.263-.083.262-.084.262-.086.26-.087.26-.09.26-.1.26-.092.258-.093.257-.095.257-.097.256-.098.255-.1.254-.1.253-.102.253-.104.252-.106.25-.107.25-.108.25-.1.248-.11.25-.113.247-.114.246-.116.246-.117.245-.12.244-.12.243-.12.243-.123.24-.124.24-.126.24-.127.24-.13.238-.13.237-.13.236-.132.236-.135.235-.135.233-.137.233-.138.232-.14.23-.14.23-.142.23-.144.228-.145.227-.146.227-.296.45-.302.446-.153.222-.154.22-.155.22-.157.22-.158.218-.16.217-.16.216-.162.214-.163.214-.164.213-.166.212-.166.21-.168.21-.17.21-.17.208-.344.412-.174.205-.352.406-.178.2-.178.2-.18.2-.182.2-.182.197-.183.195-.185.195-.186.194-.187.193-.188.19-.19.2-.19.2-.19.188-.193.187-.193.186-.195.184-.196.184-.197.182-.198.18-.2.18-.2.18-.2.178-.203.176-.203.175-.205.174-.205.173-.207.172-.208.17-.208.17-.2.168-.21.167-.424.33-.214.163-.215.16-.216.16-.217.16-.218.158-.218.157-.22.155-.22.154-.222.153-.222.15-.224.15-.224.15-.226.148-.226.146-.228.145-.228.143-.23.142-.23.14-.232.14-.23.138-.233.137-.234.135-.235.134-.235.133-.237.13-.237.13-.238.13-.24.127-.24.125-.24.125-.24.122-.243.122-.243.12-.244.12-.245.117-.245.115-.247.115-.247.112-.248.112-.25.1-.25.108-.25.107-.25.105-.252.104-.253.103-.254.1-.254.1-.255.098-.256.097-.256.094-.258.094-.258.092-.258.1-.26.09-.26.087-.26.086-.26.084-.263.082-.263.08-.263.08-.265.077-.264.077-.266.074-.266.073-.267.072-.536.138-.27.066-.27.065-.27.063-.27.062-.27.06-.272.06-.273.056-.273.055-.274.054-.274.052-.275.05-.276.048-.276.047-.277.045-.277.043-.278.042-.278.04-.28.038-.28.036-.28.035-.28.033-.28.03-.282.03-.282.028-.282.026-.283.024-.284.022-.284.02-.285.02-.285.017-.285.016-.286.013-.287.012-.287.01-.287.008-.288.007-.288.004-.29.003h-.29-.29l-.29-.003-.288-.004-.288-.007-.287-.008-.287-.01-.287-.012-.286-.013-.285-.016-.285-.017-.285-.02-.284-.02-.284-.022-.283-.024-.282-.026-.282-.028-.282-.03-.28-.03-.28-.033-.28-.035-.28-.036-.28-.038-.278-.04-.278-.042-.278-.043-.276-.045-.276-.047-.276-.048-.275-.05-.274-.052-.274-.054-.273-.055-.273-.056-.272-.06-.27-.06-.27-.062-.27-.063-.27-.065-.27-.066-.536-.138-.267-.072-.266-.073-.266-.074-.265-.077-.264-.077-.263-.08-.263-.08-.263-.082-.26-.084-.26-.086-.26-.087-.26-.09-.258-.1-.258-.092-.258-.094-.256-.094-.256-.097-.255-.098-.254-.1-.254-.1-.253-.103-.252-.104-.25-.105-.25-.107-.25-.108-.25-.1-.495-.224-.247-.115-.245-.115-.245-.117-.244-.12-.244-.12-.242-.122-.24-.122-.24-.125-.24-.125-.24-.127-.238-.13-.237-.13-.237-.13-.235-.133-.235-.134-.234-.135-.233-.137-.232-.138-.23-.14-.23-.14-.23-.142-.228-.143-.228-.145-.226-.146-.226-.148-.224-.15-.224-.15-.222-.15-.222-.153-.22-.154-.22-.155-.218-.157-.218-.158-.217-.16-.216-.16-.215-.16-.214-.163-.424-.33-.21-.167-.2-.168-.21-.17-.207-.17-.207-.172-.205-.173-.205-.174-.204-.175-.202-.176-.2-.178-.2-.18-.2-.18-.198-.18-.197-.182-.196-.184-.195-.184-.193-.186-.193-.187-.19-.188-.19-.2-.19-.2-.188-.19-.187-.193-.186-.194-.185-.195-.183-.195-.182-.197-.182-.2-.18-.2-.178-.2-.178-.2-.352-.406-.174-.205-.173-.206-.17-.206-.17-.208-.17-.21-.168-.21-.166-.21-.166-.212-.164-.213-.163-.214-.162-.214-.16-.216-.16-.217-.158-.218-.157-.22-.155-.22-.154-.22-.153-.222-.302-.446-.296-.45-.146-.227-.145-.227-.144-.228-.142-.23-.14-.23-.14-.23-.138-.232-.137-.233-.136-.233-.134-.235-.264-.472-.13-.237-.13-.238-.127-.24-.126-.24-.124-.24-.123-.24-.12-.243-.12-.243-.12-.244-.117-.245-.116-.246-.114-.246-.113-.247-.11-.25-.1-.248-.108-.25-.107-.25-.106-.25-.104-.252-.102-.253-.1-.253-.1-.254-.194-.51-.095-.257-.093-.257-.092-.258-.1-.26-.09-.26-.087-.26-.086-.26-.084-.262-.083-.262-.08-.263-.08-.264-.078-.264-.076-.265-.075-.265-.073-.267-.07-.267-.07-.267-.068-.27-.067-.268-.065-.27-.063-.27-.062-.27-.06-.27-.058-.272-.057-.273-.055-.273-.053-.274-.052-.274-.05-.275-.048-.276-.047-.276-.045-.277-.043-.277-.042-.278-.04-.278-.038-.28-.037-.28-.034-.28-.033-.28-.032-.28-.03-.282-.028-.282-.026-.283-.024-.283-.023-.283-.02-.284-.02-.285-.018-.285-.015-.286-.014-.286-.01-.286-.01-.287-.01-.287-.006-.288-.005-.29-.002-.288-.001-.29.001-.29.002-.29.005-.288.006-.288.01-.288.01-.287.01-.286.014-.286.015-.286.018-.285.02-.284.02-.284.023-.284.024-.283.026-.283.028-.282.03-.28.032-.28.033-.28.034-.28.037-.28.038-.28.04-.28.042-.278.043-.277.045-.277.047-.276.048-.275.05-.275.052-.275.053-.273.055-.274.057-.272.058-.272.06-.272.062-.27.063-.27.065-.27.067-.27.068-.268.07-.268.07-.267.073-.266.075-.266.076-.265.078-.264.08-.264.08-.263.083-.262.084-.26.086-.26.087-.26.09-.26.1-.26.092-.258.093-.257.095-.256.097-.256.097-.255.1-.255.1-.253.102-.253.104-.252.106-.25.107-.25.108-.25.1-.25.11-.248.113-.248.114-.246.116-.246.117-.245.12-.244.12-.243.12-.242.123-.242.124-.24.126-.24.127-.24.258-.476.264-.472.134-.234.136-.234.137-.233.138-.232.14-.23.14-.23.142-.23.144-.23.145-.227.146-.226.148-.226.148-.224.15-.224.15-.223.153-.22.154-.22.155-.22.157-.22.158-.218.16-.216.16-.216.162-.215.163-.214.164-.213.166-.212.166-.2.168-.2.17-.21.17-.208.17-.206.173-.206.174-.204.176-.204.176-.202.178-.202.178-.2.18-.2.182-.198.182-.197.183-.196.185-.195.186-.194.187-.192.188-.192.19-.2.19-.19.19-.188.193-.187.193-.186.195-.185.196-.183.197-.183.198-.18.2-.18.2-.18.2-.177.202-.177.204-.175.205-.174.205-.173.414-.342.21-.17.2-.168.21-.167.212-.165.212-.164.214-.163.215-.162.216-.16.217-.16.218-.158.218-.156.22-.156.22-.154.444-.304.224-.15.224-.15.452-.294.456-.288.23-.142.23-.14.23-.14.232-.138.233-.136.234-.136.235-.134.235-.133.237-.13.237-.13.238-.128.24-.127.24-.126.24-.124.24-.123.242-.122.244-.12.244-.118.245-.117.245-.116.247-.114.247-.113.248-.11.25-.1.25-.11.25-.107.25-.105.252-.104.253-.102.254-.1.254-.1.255-.098.256-.096.256-.095.258-.093.258-.092.258-.09.52-.176.26-.085.26-.084.263-.083.263-.08.263-.08.264-.078.265-.076.266-.075.266-.073.267-.07.268-.07.268-.068.27-.067.27-.065.27-.063.27-.062.27-.06.272-.058.273-.057.273-.055.274-.054.274-.05.275-.05.276-.05.276-.046.276-.045.278-.044.278-.04.278-.04.28-.038.28-.037.28-.035.28-.033.28-.03.282-.03.282-.028.282-.026.283-.025.284-.022.284-.02.285-.02.285-.017.285-.015.286-.014.287-.012.287-.01.287-.008.288-.006.288-.005.29-.003.29-.001.29.001zm-.553 4l-.263.003-.263.004-.263.006-.262.007-.26.01-.26.01-.26.013-.26.014-.26.015-.518.036-.258.02-.258.022-.258.024-.257.025-.256.027-.256.028-.256.03-.255.032-.254.033-.254.035-.253.036-.253.038-.253.04-.252.04-.25.042-.25.044-.25.046-.25.047-.25.048-.25.05-.248.05-.247.053-.247.055-.247.056-.245.058-.246.06-.244.06-.244.062-.244.064-.243.065-.242.066-.242.068-.24.07-.24.07-.48.146-.24.075-.238.077-.237.078-.237.08-.236.08-.235.082-.235.084-.234.085-.234.086-.232.088-.233.09-.23.1-.23.092-.23.093-.23.095-.23.096-.227.097-.228.1-.227.1-.225.1-.225.103-.225.104-.223.105-.223.107-.222.108-.22.11-.22.11-.22.11-.438.228-.217.116-.217.117-.216.118-.43.24-.213.122-.213.124-.212.124-.21.126-.21.127-.21.128-.21.13-.208.13-.207.13-.412.268-.204.135-.204.137-.203.138-.202.14-.2.14-.2.14-.2.143-.2.144-.197.145-.197.146-.196.147-.388.298-.193.15-.192.152-.192.153-.2.154-.19.155-.376.314-.186.16-.185.16-.185.16-.183.162-.183.163-.18.164-.18.165-.18.166-.18.168-.177.168-.177.17-.175.17-.175.172-.173.172-.173.174-.17.174-.17.176-.17.176-.168.178-.167.178-.332.36-.164.182-.162.182-.162.184-.16.184-.16.186-.158.186-.158.187-.312.378-.154.2-.153.19-.152.192-.15.193-.15.194-.148.195-.148.196-.146.196-.145.198-.144.198-.284.4-.14.2-.14.202-.138.203-.137.203-.136.205-.134.205-.133.206-.263.415-.13.21-.13.2-.127.2-.25.424-.123.212-.122.214-.12.214-.12.216-.118.216-.117.217-.116.217-.114.218-.113.22-.112.22-.11.22-.11.222-.108.222-.212.446-.104.224-.102.226-.102.225-.1.227-.196.455-.096.23-.094.23-.093.23-.092.23-.09.23-.09.232-.088.233-.086.233-.085.234-.084.235-.082.236-.16.472-.078.238-.076.238-.075.238-.074.24-.072.24-.07.24-.07.24-.068.242-.067.242-.065.243-.063.243-.062.244-.06.245-.06.245-.058.246-.056.246-.054.247-.053.248-.052.248-.05.25-.05.25-.047.25-.045.25-.044.25-.043.25-.04.252-.04.252-.038.253-.037.254-.068.508-.03.255-.03.255-.03.256-.027.257-.025.257-.024.257-.022.258-.02.26-.02.258-.017.26-.016.26-.014.26-.013.26-.01.262-.01.26-.008.262-.006.263-.004.263-.002.263-.001.264.001.263.002.264.004.263.006.262.008.262.01.262.01.26.013.26.014.26.016.26.017.26.02.26.02.258.022.258.024.257.025.257.027.257.03.256.03.255.03.255.068.51.037.253.038.253.04.252.04.252.043.252.044.25.045.25.047.25.05.25.05.248.052.248.053.248.054.247.056.246.058.246.06.245.06.245.062.244.063.244.065.242.067.243.068.24.07.24.07.24.072.24.074.24.075.24.076.238.078.237.16.473.082.235.084.235.085.234.086.233.088.233.09.232.09.232.092.23.093.23.094.23.096.228.098.228.098.227.1.227.102.226.102.225.104.224.106.224.106.223.108.222.11.22.11.22.112.22.113.22.114.218.116.218.117.217.118.216.12.215.12.214.122.214.123.213.125.212.125.21.127.2.13.2.13.21.13.208.132.207.133.206.134.205.136.205.137.204.138.202.14.202.14.202.142.2.142.2.144.198.145.198.146.197.296.4.15.194.15.193.152.192.153.19.154.2.156.2.156.188.316.374.16.185.16.184.162.184.162.182.164.182.166.18.166.18.167.18.168.177.17.177.342.35.173.173.173.172.175.172.175.17.354.338.18.167.18.166.18.165.18.164.183.163.183.162.185.16.185.16.186.16.188.158.188.156.19.155.19.154.19.153.192.152.193.15.193.15.195.15.196.147.197.146.197.145.2.144.2.143.2.14.2.14.202.14.203.138.204.137.204.135.206.135.206.133.207.132.208.13.21.13.21.128.21.127.21.126.212.125.213.123.213.122.215.12.215.12.216.12.217.117.217.115.22.115.22.113.22.112.22.1.222.11.222.108.223.107.223.105.225.104.225.103.226.1.226.1.228.1.227.097.23.096.23.095.23.093.23.092.464.18.232.087.234.087.234.085.235.083.235.082.236.08.237.08.237.078.238.077.238.075.24.074.24.072.24.07.24.07.242.068.242.066.243.065.244.064.244.062.244.06.246.06.246.057.246.056.247.055.247.053.248.052.25.05.5.096.25.045.25.044.25.043.252.04.253.04.253.038.253.036.254.035.254.033.255.032.256.03.256.028.256.027.257.026.258.023.258.022.258.02.26.02.26.017.26.016.26.014.26.012.26.01.26.01.262.008.526.01.263.002h.264.264l.263-.002.526-.01.262-.008.26-.01.26-.01.26-.012.26-.014.26-.016.26-.017.26-.02.258-.02.258-.022.258-.023.257-.026.256-.027.256-.028.256-.03.255-.032.254-.033.254-.035.253-.036.253-.038.253-.04.252-.04.25-.043.25-.044.25-.045.5-.096.25-.05.248-.052.247-.053.247-.055.246-.056.246-.057.246-.06.244-.06.244-.062.244-.064.243-.065.242-.066.242-.068.24-.07.24-.07.24-.072.24-.074.238-.075.238-.077.237-.078.237-.08.236-.08.235-.082.235-.083.234-.085.234-.087.232-.087.464-.18.23-.092.23-.093.23-.095.23-.096.227-.097.228-.1.226-.1.226-.1.225-.103.225-.104.223-.105.223-.107.222-.108.222-.11.22-.1.22-.112.22-.113.436-.23.217-.117.216-.12.215-.12.215-.12.213-.122.213-.123.212-.125.21-.126.21-.127.21-.128.21-.13.208-.13.207-.132.206-.133.206-.135.204-.135.204-.137.203-.138.202-.14.2-.14.2-.14.2-.143.2-.144.197-.145.197-.146.196-.147.388-.298.193-.15.192-.152.19-.153.19-.154.19-.155.188-.156.188-.158.186-.16.185-.16.185-.16.183-.162.183-.163.18-.164.18-.165.18-.166.18-.167.354-.338.175-.17.175-.17.346-.346.342-.35.17-.177.168-.177.167-.18.166-.18.166-.18.164-.182.162-.182.162-.184.16-.184.16-.185.316-.374.312-.378.154-.2.153-.19.152-.192.15-.193.15-.194.296-.4.146-.197.145-.198.144-.198.142-.2.142-.2.14-.2.14-.202.138-.202.137-.204.136-.205.134-.205.133-.206.132-.207.13-.208.13-.21.13-.2.127-.2.125-.21.125-.212.123-.213.122-.214.12-.214.12-.215.118-.216.117-.217.116-.218.114-.218.113-.22.112-.22.11-.22.11-.22.108-.222.106-.223.106-.224.104-.224.102-.225.102-.226.1-.226.196-.456.096-.228.094-.23.093-.23.092-.23.09-.232.09-.232.088-.233.086-.233.085-.234.166-.47.08-.236.08-.237.078-.237.076-.238.075-.24.074-.24.072-.24.07-.24.07-.24.068-.24.067-.243.065-.242.063-.244.062-.244.06-.245.06-.245.058-.246.056-.246.054-.247.053-.248.052-.248.05-.248.05-.25.047-.25.045-.25.044-.25.043-.252.04-.252.04-.252.038-.253.037-.253.068-.51.03-.255.03-.255.03-.256.027-.257.025-.257.024-.257.022-.258.02-.258.02-.26.017-.26.016-.26.014-.26.013-.26.01-.26v-.262l.008-.262.006-.262.004-.263.002-.264v-.263-.264l-.002-.263-.004-.263-.006-.263-.008-.262v-.26l-.01-.262-.013-.26-.014-.26-.016-.26-.017-.26-.02-.258-.02-.26-.022-.258-.024-.257-.025-.257-.027-.256-.03-.256-.03-.256-.03-.255-.068-.508-.037-.254-.038-.253-.04-.252-.04-.252-.043-.25-.044-.25-.045-.25-.047-.25-.05-.25-.05-.25-.052-.248-.053-.248-.054-.247-.056-.246-.058-.246-.06-.245-.06-.245-.062-.244-.063-.243-.065-.243-.067-.243-.068-.24-.07-.24-.07-.24-.072-.24-.074-.24-.075-.238-.076-.238-.078-.238-.16-.472-.083-.236-.083-.235-.085-.234-.086-.233-.088-.233-.09-.232-.09-.23-.092-.23-.093-.23-.094-.23-.096-.23-.098-.228-.098-.227-.1-.227-.204-.45-.104-.224-.212-.446-.108-.222-.11-.222-.11-.22-.225-.44-.114-.218-.116-.217-.117-.217-.118-.216-.12-.216-.12-.214-.122-.214-.123-.212-.125-.213-.125-.21-.127-.2-.13-.2-.13-.21-.13-.207-.132-.208-.133-.206-.134-.205-.136-.205-.137-.203-.138-.203-.14-.202-.14-.2-.284-.4-.144-.198-.145-.198-.146-.196-.148-.196-.148-.195-.15-.194-.15-.193-.152-.192-.153-.19-.154-.2-.312-.378-.158-.187-.158-.186-.16-.186-.16-.184-.162-.184-.162-.182-.164-.182-.332-.36-.167-.178-.168-.178-.17-.176-.17-.176-.17-.174-.173-.174-.173-.172-.175-.172-.175-.17-.177-.17-.177-.168-.18-.168-.18-.166-.18-.165-.18-.164-.183-.163-.183-.162-.185-.16-.185-.16-.186-.16-.376-.314-.19-.155-.19-.154-.19-.153-.192-.152-.193-.15-.388-.298-.196-.147-.197-.146-.197-.145-.2-.144-.2-.143-.2-.14-.2-.14-.202-.14-.203-.138-.204-.137-.204-.135-.412-.268-.207-.13-.208-.13-.21-.13-.21-.128-.21-.127-.21-.126-.212-.124-.213-.124-.213-.122-.43-.24-.216-.118-.217-.117-.218-.116-.218-.114-.22-.114-.22-.11-.22-.11-.22-.11-.222-.108-.223-.107-.223-.105-.225-.104-.225-.103-.226-.1-.226-.1-.228-.1-.227-.097-.23-.096-.23-.095-.23-.093-.23-.092-.23-.1-.233-.09-.232-.088-.234-.086-.234-.085-.235-.084-.235-.082-.236-.08-.237-.08-.237-.078-.238-.077-.24-.075-.24-.073-.24-.073-.48-.14-.242-.068-.242-.066-.243-.065-.244-.064-.244-.062-.244-.06-.246-.06-.245-.058-.247-.056-.247-.055-.247-.053-.497-.102-.25-.048-.25-.047-.25-.046-.25-.044-.25-.042-.252-.04-.253-.04-.253-.038-.253-.036-.254-.035-.254-.033-.255-.032-.256-.03-.256-.028-.256-.027-.257-.025-.258-.024-.258-.022-.258-.02-.518-.036-.26-.015-.26-.014-.26-.013-.26-.01-.26-.01-.263-.007-.262-.006-.263-.004-.263-.003-.264-.001-.264.001z" fill="#2ca435"/></g><g transform="matrix(.761905 0 0 .762712 209.069 135.195)"><circle cx="123.483" cy="157.213" r="44.737" fill="#fff" fill-opacity=".847"/><path d="M123.772 112.476l.29.003.288.005.288.006.287.008.287.01.287.012.286.014.285.015.285.017.285.02.284.02.284.022.283.025.282.026.282.028.282.03.28.03.28.033.28.035.28.037.28.038.278.04.278.04.277.044.277.045.276.046.276.05.275.05.274.05.274.054.273.055.273.057.272.058.27.06.27.062.27.063.27.065.27.067.268.068.268.07.267.07.266.073.266.075.264.076.265.078.263.08.263.08.263.083.26.084.26.085.52.176.258.09.258.092.258.093.256.095.256.096.255.098.254.1.254.1.253.102.252.104.25.105.25.107.25.11.25.1.248.11.247.113.247.114.245.116.245.117.244.118.243.12.243.122.24.123.24.124.24.126.24.127.238.128.237.13.237.13.235.133.235.134.234.136.233.136.23.138.232.14.23.14.23.142.456.288.452.294.224.15.224.15.444.304.22.154.22.156.218.156.218.158.217.16.216.16.215.162.214.163.212.164.212.165.21.167.2.168.208.17.208.17.207.17.205.173.205.174.203.175.203.177.2.177.2.18.2.18.198.18.197.183.196.183.195.185.193.186.193.187.19.188.19.19.19.2.188.192.187.192.186.194.185.195.183.196.182.197.182.198.18.2.178.2.178.202.176.202.176.204.174.204.344.412.17.208.17.21.168.2.166.2.166.212.164.213.163.214.162.215.16.216.16.216.158.218.157.22.155.22.154.22.153.22.15.223.15.224.148.224.148.226.146.226.145.227.144.23.142.23.14.23.14.23.138.232.137.233.27.468.132.236.13.236.13.238.13.238.127.24.126.24.124.24.123.242.12.242.12.243.12.244.117.245.116.246.114.246.113.248.11.248.1.25.108.25.107.25.106.25.104.252.102.253.1.253.1.255.098.255.097.256.095.256.093.257.092.258.1.26.09.26.087.26.086.26.084.26.083.262.16.527.078.264.076.265.075.266.073.266.07.267.07.268.068.268.067.27.065.27.063.27.062.27.06.272.058.272.057.272.055.274.053.273.052.275.05.275.048.275.047.276.045.277.043.277.042.278.04.28.038.28.037.28.034.28.033.28.032.28.03.28.028.282.026.283.024.283.023.284v.284l.02.284.018.285.015.286.014.286.01.286.01.287.01.288.006.288.005.288.002.29v.29.29l-.002.288-.005.29-.006.288-.01.287-.01.287-.01.286-.014.286-.015.286-.018.285-.02.285v.284l-.023.283-.024.283-.026.283-.028.282-.03.282-.032.28-.033.28-.034.28-.037.28-.038.28-.04.278-.042.278-.043.277-.045.277-.047.276-.048.276-.05.275-.052.274-.053.274-.055.273-.057.273-.058.272-.06.27-.062.27-.063.27-.065.27-.067.268-.068.27-.07.267-.07.267-.073.267-.075.265-.076.265-.078.264-.08.264-.08.263-.083.262-.084.262-.086.26-.087.26-.09.26-.1.26-.092.258-.093.257-.095.257-.097.256-.098.255-.1.254-.1.253-.102.253-.104.252-.106.25-.107.25-.108.25-.1.248-.11.25-.113.247-.114.246-.116.246-.117.245-.12.244-.12.243-.12.243-.123.24-.124.24-.126.24-.127.24-.13.238-.13.237-.13.236-.132.236-.135.235-.135.233-.137.233-.138.232-.14.23-.14.23-.142.23-.144.228-.145.227-.146.227-.296.45-.302.446-.153.222-.154.22-.155.22-.157.22-.158.218-.16.217-.16.216-.162.214-.163.214-.164.213-.166.212-.166.21-.168.21-.17.21-.17.208-.344.412-.174.205-.352.406-.178.2-.178.2-.18.2-.182.2-.182.197-.183.195-.185.195-.186.194-.187.193-.188.19-.19.2-.19.2-.19.188-.193.187-.193.186-.195.184-.196.184-.197.182-.198.18-.2.18-.2.18-.2.178-.203.176-.203.175-.205.174-.205.173-.207.172-.208.17-.208.17-.2.168-.21.167-.424.33-.214.163-.215.16-.216.16-.217.16-.218.158-.218.157-.22.155-.22.154-.222.153-.222.15-.224.15-.224.15-.226.148-.226.146-.228.145-.228.143-.23.142-.23.14-.232.14-.23.138-.233.137-.234.135-.235.134-.235.133-.237.13-.237.13-.238.13-.24.127-.24.125-.24.125-.24.122-.243.122-.243.12-.244.12-.245.117-.245.115-.247.115-.247.112-.248.112-.25.1-.25.108-.25.107-.25.105-.252.104-.253.103-.254.1-.254.1-.255.098-.256.097-.256.094-.258.094-.258.092-.258.1-.26.09-.26.087-.26.086-.26.084-.263.082-.263.08-.263.08-.265.077-.264.077-.266.074-.266.073-.267.072-.536.138-.27.066-.27.065-.27.063-.27.062-.27.06-.272.06-.273.056-.273.055-.274.054-.274.052-.275.05-.276.048-.276.047-.277.045-.277.043-.278.042-.278.04-.28.038-.28.036-.28.035-.28.033-.28.03-.282.03-.282.028-.282.026-.283.024-.284.022-.284.02-.285.02-.285.017-.285.016-.286.013-.287.012-.287.01-.287.008-.288.007-.288.004-.29.003h-.29-.29l-.29-.003-.288-.004-.288-.007-.287-.008-.287-.01-.287-.012-.286-.013-.285-.016-.285-.017-.285-.02-.284-.02-.284-.022-.283-.024-.282-.026-.282-.028-.282-.03-.28-.03-.28-.033-.28-.035-.28-.036-.28-.038-.278-.04-.278-.042-.278-.043-.276-.045-.276-.047-.276-.048-.275-.05-.274-.052-.274-.054-.273-.055-.273-.056-.272-.06-.27-.06-.27-.062-.27-.063-.27-.065-.27-.066-.536-.138-.267-.072-.266-.073-.266-.074-.265-.077-.264-.077-.263-.08-.263-.08-.263-.082-.26-.084-.26-.086-.26-.087-.26-.09-.258-.1-.258-.092-.258-.094-.256-.094-.256-.097-.255-.098-.254-.1-.254-.1-.253-.103-.252-.104-.25-.105-.25-.107-.25-.108-.25-.1-.495-.224-.247-.115-.245-.115-.245-.117-.244-.12-.244-.12-.242-.122-.24-.122-.24-.125-.24-.125-.24-.127-.238-.13-.237-.13-.237-.13-.235-.133-.235-.134-.234-.135-.233-.137-.232-.138-.23-.14-.23-.14-.23-.142-.228-.143-.228-.145-.226-.146-.226-.148-.224-.15-.224-.15-.222-.15-.222-.153-.22-.154-.22-.155-.218-.157-.218-.158-.217-.16-.216-.16-.215-.16-.214-.163-.424-.33-.21-.167-.2-.168-.21-.17-.207-.17-.207-.172-.205-.173-.205-.174-.204-.175-.202-.176-.2-.178-.2-.18-.2-.18-.198-.18-.197-.182-.196-.184-.195-.184-.193-.186-.193-.187-.19-.188-.19-.2-.19-.2-.188-.19-.187-.193-.186-.194-.185-.195-.183-.195-.182-.197-.182-.2-.18-.2-.178-.2-.178-.2-.352-.406-.174-.205-.173-.206-.17-.206-.17-.208-.17-.21-.168-.21-.166-.21-.166-.212-.164-.213-.163-.214-.162-.214-.16-.216-.16-.217-.158-.218-.157-.22-.155-.22-.154-.22-.153-.222-.302-.446-.296-.45-.146-.227-.145-.227-.144-.228-.142-.23-.14-.23-.14-.23-.138-.232-.137-.233-.136-.233-.134-.235-.264-.472-.13-.237-.13-.238-.127-.24-.126-.24-.124-.24-.123-.24-.12-.243-.12-.243-.12-.244-.117-.245-.116-.246-.114-.246-.113-.247-.11-.25-.1-.248-.108-.25-.107-.25-.106-.25-.104-.252-.102-.253-.1-.253-.1-.254-.194-.51-.095-.257-.093-.257-.092-.258-.1-.26-.09-.26-.087-.26-.086-.26-.084-.262-.083-.262-.08-.263-.08-.264-.078-.264-.076-.265-.075-.265-.073-.267-.07-.267-.07-.267-.068-.27-.067-.268-.065-.27-.063-.27-.062-.27-.06-.27-.058-.272-.057-.273-.055-.273-.053-.274-.052-.274-.05-.275-.048-.276-.047-.276-.045-.277-.043-.277-.042-.278-.04-.278-.038-.28-.037-.28-.034-.28-.033-.28-.032-.28-.03-.282-.028-.282-.026-.283-.024-.283-.023-.283-.02-.284-.02-.285-.018-.285-.015-.286-.014-.286-.01-.286-.01-.287-.01-.287-.006-.288-.005-.29-.002-.288-.001-.29.001-.29.002-.29.005-.288.006-.288.01-.288.01-.287.01-.286.014-.286.015-.286.018-.285.02-.284.02-.284.023-.284.024-.283.026-.283.028-.282.03-.28.032-.28.033-.28.034-.28.037-.28.038-.28.04-.28.042-.278.043-.277.045-.277.047-.276.048-.275.05-.275.052-.275.053-.273.055-.274.057-.272.058-.272.06-.272.062-.27.063-.27.065-.27.067-.27.068-.268.07-.268.07-.267.073-.266.075-.266.076-.265.078-.264.08-.264.08-.263.083-.262.084-.26.086-.26.087-.26.09-.26.1-.26.092-.258.093-.257.095-.256.097-.256.097-.255.1-.255.1-.253.102-.253.104-.252.106-.25.107-.25.108-.25.1-.25.11-.248.113-.248.114-.246.116-.246.117-.245.12-.244.12-.243.12-.242.123-.242.124-.24.126-.24.127-.24.258-.476.264-.472.134-.234.136-.234.137-.233.138-.232.14-.23.14-.23.142-.23.144-.23.145-.227.146-.226.148-.226.148-.224.15-.224.15-.223.153-.22.154-.22.155-.22.157-.22.158-.218.16-.216.16-.216.162-.215.163-.214.164-.213.166-.212.166-.2.168-.2.17-.21.17-.208.17-.206.173-.206.174-.204.176-.204.176-.202.178-.202.178-.2.18-.2.182-.198.182-.197.183-.196.185-.195.186-.194.187-.192.188-.192.19-.2.19-.19.19-.188.193-.187.193-.186.195-.185.196-.183.197-.183.198-.18.2-.18.2-.18.2-.177.202-.177.204-.175.205-.174.205-.173.414-.342.21-.17.2-.168.21-.167.212-.165.212-.164.214-.163.215-.162.216-.16.217-.16.218-.158.218-.156.22-.156.22-.154.444-.304.224-.15.224-.15.452-.294.456-.288.23-.142.23-.14.23-.14.232-.138.233-.136.234-.136.235-.134.235-.133.237-.13.237-.13.238-.128.24-.127.24-.126.24-.124.24-.123.242-.122.244-.12.244-.118.245-.117.245-.116.247-.114.247-.113.248-.11.25-.1.25-.11.25-.107.25-.105.252-.104.253-.102.254-.1.254-.1.255-.098.256-.096.256-.095.258-.093.258-.092.258-.09.52-.176.26-.085.26-.084.263-.083.263-.08.263-.08.264-.078.265-.076.266-.075.266-.073.267-.07.268-.07.268-.068.27-.067.27-.065.27-.063.27-.062.27-.06.272-.058.273-.057.273-.055.274-.054.274-.05.275-.05.276-.05.276-.046.276-.045.278-.044.278-.04.278-.04.28-.038.28-.037.28-.035.28-.033.28-.03.282-.03.282-.028.282-.026.283-.025.284-.022.284-.02.285-.02.285-.017.285-.015.286-.014.287-.012.287-.01.287-.008.288-.006.288-.005.29-.003.29-.001.29.001zm-.553 4l-.263.003-.263.004-.263.006-.262.007-.26.01-.26.01-.26.013-.26.014-.26.015-.518.036-.258.02-.258.022-.258.024-.257.025-.256.027-.256.028-.256.03-.255.032-.254.033-.254.035-.253.036-.253.038-.253.04-.252.04-.25.042-.25.044-.25.046-.25.047-.25.048-.25.05-.248.05-.247.053-.247.055-.247.056-.245.058-.246.06-.244.06-.244.062-.244.064-.243.065-.242.066-.242.068-.24.07-.24.07-.48.146-.24.075-.238.077-.237.078-.237.08-.236.08-.235.082-.235.084-.234.085-.234.086-.232.088-.233.09-.23.1-.23.092-.23.093-.23.095-.23.096-.227.097-.228.1-.226.1-.226.1-.225.103-.225.104-.223.105-.223.107-.222.108-.222.11-.44.222-.438.228-.217.116-.217.117-.216.118-.215.12-.215.12-.213.122-.213.124-.212.124-.21.126-.21.127-.2.128-.208.13-.208.13-.207.13-.412.268-.204.135-.204.137-.203.138-.202.14-.2.14-.2.14-.2.143-.2.144-.197.145-.197.146-.196.147-.388.298-.193.15-.192.152-.192.153-.2.154-.19.155-.376.314-.186.16-.185.16-.185.16-.183.162-.183.163-.18.164-.18.165-.18.166-.18.168-.177.168-.177.17-.175.17-.175.172-.173.172-.173.174-.17.174-.17.176-.17.176-.168.178-.167.178-.332.36-.164.182-.162.182-.162.184-.16.184-.16.186-.158.186-.158.187-.312.378-.154.2-.153.19-.152.192-.15.193-.15.194-.148.195-.148.196-.146.196-.145.198-.144.198-.284.4-.14.2-.14.202-.138.203-.137.203-.136.205-.134.205-.133.206-.132.207-.13.208-.13.21-.13.2-.127.2-.125.21-.125.213-.123.212-.122.214-.12.214-.12.216-.118.216-.117.217-.116.217-.114.22-.113.218-.112.22-.11.22-.11.22-.108.223-.212.446-.104.224-.102.226-.102.225-.1.227-.196.455-.096.228-.094.23-.093.23-.092.23-.09.23-.09.232-.088.233-.086.233-.085.234-.084.235-.082.236-.08.236-.08.237-.078.237-.076.238-.075.238-.074.24-.072.24-.07.24-.07.24-.068.24-.067.243-.065.243-.063.243-.062.244-.06.245-.06.245-.058.246-.056.246-.054.247-.053.248-.052.248-.05.25-.05.25-.047.25-.045.25-.044.25-.043.25-.04.252-.04.252-.038.253-.037.254-.068.508-.03.255-.03.255-.03.257-.027.256-.025.257-.024.257-.022.258-.02.258-.02.26-.017.26-.016.26-.014.26-.013.26-.01.262-.01.26-.008.262-.006.263-.004.263-.002.263-.001.264.001.263.002.264.004.263.006.262.008.262.01.262.01.26.013.26.014.26.016.26.017.26.02.26.02.258.022.258.024.257.025.257.027.257.03.256.03.255.03.255.068.51.037.253.038.253.04.252.04.252.043.252.044.25.045.25.047.25.05.25.05.25.052.248.053.248.054.247.056.246.058.246.06.245.06.245.062.244.063.244.065.243.067.242.068.24.07.24.07.24.072.24.074.24.075.24.076.238.078.237.16.473.082.235.084.235.085.234.086.233.088.233.09.232.09.232.092.23.093.23.094.23.096.228.098.228.098.227.1.227.102.226.102.225.104.224.106.224.106.223.108.222.11.22.11.22.112.22.113.22.114.218.116.218.117.217.118.216.12.215.12.214.122.214.123.213.125.212.125.21.127.21.258.418.13.208.132.207.133.206.134.205.136.205.137.204.138.202.14.202.14.202.142.2.142.2.144.2.145.197.146.196.148.196.148.195.15.194.15.193.152.192.153.19.154.2.312.378.316.374.16.185.16.184.162.184.162.182.164.182.166.18.166.18.167.18.168.177.17.177.342.35.346.346.175.17.175.17.177.17.177.168.18.167.18.166.18.165.18.164.183.163.183.162.185.16.185.16.186.158.376.314.19.155.19.154.19.153.192.152.193.15.388.298.196.147.197.146.197.145.2.144.2.143.2.14.2.14.202.14.203.138.204.137.204.135.206.135.206.133.207.132.208.13.21.13.21.128.21.127.21.126.212.125.213.123.213.122.215.12.215.12.216.12.217.117.217.115.22.115.22.113.22.112.22.1.222.11.222.108.223.107.223.105.225.104.225.103.226.1.226.1.228.1.227.097.23.096.23.095.23.093.23.092.464.18.232.087.234.087.234.085.235.083.235.082.236.08.237.08.237.078.238.077.238.075.24.074.24.072.24.07.24.07.242.068.242.066.243.065.244.064.244.062.244.06.246.06.246.057.246.056.247.055.247.053.248.052.25.05.5.096.25.045.25.044.25.043.252.04.253.04.253.038.253.036.254.035.254.033.255.032.256.03.256.028.256.027.257.026.257.023.26.022.258.02.26.02.26.017.26.016.26.014.26.012.26.01.26.01.262.008.526.01.263.002h.264.264l.263-.002.526-.01.262-.008.26-.01.26-.01.26-.012.26-.014.26-.016.26-.017.26-.02.258-.02.258-.022.258-.023.257-.026.256-.027.256-.028.256-.03.255-.032.254-.033.254-.035.253-.036.253-.038.253-.04.252-.04.25-.043.25-.044.25-.045.5-.096.25-.05.248-.052.247-.053.247-.055.246-.056.246-.057.246-.06.244-.06.244-.062.244-.064.243-.065.242-.066.242-.068.24-.07.24-.07.24-.072.24-.074.238-.075.238-.077.237-.078.237-.08.236-.08.235-.082.235-.083.234-.085.234-.087.232-.087.464-.18.23-.092.23-.093.23-.095.23-.096.227-.097.228-.1.226-.1.226-.1.225-.103.225-.104.223-.105.223-.107.222-.108.222-.11.22-.1.22-.112.22-.113.436-.23.217-.117.216-.12.215-.12.215-.12.213-.122.213-.123.212-.125.21-.126.21-.127.21-.128.21-.13.208-.13.207-.132.206-.133.206-.135.204-.135.204-.137.203-.138.202-.14.2-.14.2-.14.2-.143.2-.144.197-.145.197-.146.196-.147.388-.298.193-.15.192-.152.19-.153.2-.154.2-.155.376-.314.186-.158.185-.16.185-.16.183-.162.183-.163.18-.164.18-.165.18-.166.18-.167.354-.338.175-.17.175-.17.346-.346.342-.35.17-.177.168-.177.167-.18.167-.18.165-.18.163-.18.163-.183.162-.184.16-.184.16-.186.158-.186.158-.187.312-.378.154-.2.153-.19.152-.192.15-.193.15-.194.148-.195.148-.196.146-.196.145-.197.144-.2.143-.2.14-.2.14-.202.14-.202.138-.202.137-.204.136-.205.134-.205.133-.206.132-.207.13-.208.258-.418.127-.21.126-.21.124-.212.123-.213.122-.214.12-.214.12-.216.118-.215.117-.217.116-.218.114-.218.113-.22.112-.22.11-.22.11-.22.108-.222.106-.223.106-.224.104-.224.102-.225.102-.226.1-.227.098-.227.098-.228.096-.228.094-.23.093-.23.092-.23.09-.232.09-.232.088-.233.086-.233.085-.234.166-.47.08-.236.08-.237.078-.237.076-.238.075-.24.074-.24.072-.24.07-.24.07-.24.068-.24.067-.243.065-.242.063-.244.062-.244.06-.245.06-.245.058-.246.056-.246.054-.247.053-.248.052-.248.05-.248.05-.25.047-.25.045-.25.044-.25.043-.252.04-.252.04-.252.038-.253.037-.253.068-.51.03-.255.03-.255.03-.256.027-.257.025-.257.024-.257.022-.258.02-.258.02-.26.017-.26.016-.26.014-.26.013-.26.01-.26v-.262l.008-.262.006-.262.004-.263.002-.264v-.263-.264l-.002-.264-.004-.263-.006-.262-.008-.262v-.262l-.01-.26-.013-.26-.014-.26-.016-.26-.017-.26-.02-.26-.02-.258-.022-.258-.024-.257-.025-.257-.027-.257-.03-.256-.03-.255-.03-.255-.068-.508-.037-.254-.038-.253-.04-.252-.04-.252-.043-.25-.044-.25-.045-.25-.047-.25-.05-.25-.05-.25-.052-.248-.053-.248-.054-.246-.056-.247-.058-.246-.06-.245-.06-.245-.062-.244-.063-.243-.065-.243-.067-.243-.068-.24-.07-.24-.07-.24-.072-.24-.074-.24-.075-.238-.076-.238-.078-.238-.16-.472-.083-.236-.083-.235-.085-.234-.086-.233-.088-.233-.09-.232-.09-.23-.092-.23-.093-.23-.094-.23-.096-.23-.098-.228-.098-.227-.1-.227-.204-.45-.104-.225-.212-.446-.108-.223-.11-.22-.11-.22-.112-.22-.113-.22-.114-.218-.116-.217-.117-.217-.118-.216-.12-.216-.12-.214-.122-.214-.123-.212-.124-.212-.126-.212-.127-.2-.13-.2-.13-.21-.13-.207-.132-.208-.133-.206-.134-.205-.136-.205-.137-.203-.138-.203-.14-.202-.14-.2-.14-.2-.143-.2-.144-.198-.145-.198-.146-.196-.148-.196-.148-.195-.15-.194-.15-.193-.152-.192-.153-.19-.154-.2-.312-.378-.158-.187-.158-.186-.16-.186-.16-.184-.162-.184-.326-.364-.165-.18-.167-.18-.167-.178-.168-.178-.17-.176-.17-.176-.17-.174-.173-.174-.173-.172-.175-.172-.175-.17-.177-.17-.177-.168-.18-.168-.18-.166-.18-.165-.18-.164-.183-.163-.183-.162-.185-.16-.185-.16-.186-.16-.376-.314-.19-.155-.2-.154-.192-.153-.192-.152-.193-.15-.388-.298-.196-.147-.197-.146-.197-.145-.2-.144-.2-.143-.2-.14-.2-.14-.202-.14-.203-.138-.204-.137-.204-.135-.412-.268-.207-.13-.208-.13-.208-.13-.2-.128-.21-.127-.21-.126-.212-.124-.213-.124-.213-.122-.215-.12-.215-.12-.216-.118-.217-.117-.218-.116-.218-.114-.22-.114-.22-.11-.22-.11-.22-.11-.222-.108-.223-.107-.223-.105-.225-.104-.225-.103-.225-.1-.227-.1-.228-.1-.227-.097-.23-.096-.23-.095-.23-.093-.23-.092-.23-.1-.233-.09-.232-.088-.234-.086-.234-.085-.235-.084-.235-.082-.236-.08-.237-.08-.237-.078-.238-.077-.24-.075-.24-.073-.24-.073-.48-.14-.242-.068-.242-.066-.243-.065-.244-.064-.244-.062-.244-.06-.246-.06-.245-.058-.247-.056-.247-.055-.247-.053-.497-.102-.25-.048-.25-.047-.25-.046-.25-.044-.25-.042-.252-.04-.253-.04-.253-.038-.253-.036-.254-.035-.254-.033-.255-.032-.256-.03-.256-.028-.256-.027-.257-.025-.258-.024-.258-.022-.258-.02-.518-.036-.26-.015-.26-.014-.26-.013-.26-.01-.26-.01-.263-.007-.262-.006-.263-.004-.263-.003-.264-.001-.264.001z" fill="#727272"/></g><circle cx="123.483" cy="157.213" r="44.737" fill="#2ca435" transform="matrix(.620711 0 0 .621369 3.98419 157.416)"/><use xlink:href="#B" fill="#fff" fill-opacity=".847"/><g fill-rule="nonzero"><path d="M156.995 235.705h-5.377l-10.478 18.397-10.587-18.397h-5.377l13.496 22.8v16.914h4.936v-16.914l13.387-22.8zm4.882 26.69h20.243v-1.868c0-8.622-4.4-14.06-12.3-14.06-8.174 0-12.892 6.042-12.892 15.048 0 9.06 5.377 14.44 13.276 14.44 5.43 0 10.37-2.855 11.74-8.786h-4.6c-1.095 3.24-3.62 4.886-7.24 4.886-5.54 0-8.23-4.227-8.23-9.664zm0-3.406c0-4.284 2.522-8.73 7.9-8.73 5.156 0 7.626 3.8 7.626 8.73h-15.526zm36.918 16.97c5.98 0 10.862-2.9 10.862-8.4 0-2.8-1.427-6.315-6.583-7.632l-5.76-1.483c-3.127-.77-4.772-1.76-4.772-3.8 0-3.46 3.402-4.393 6.2-4.393 3.3 0 5.595 1.647 5.98 4.338h4.388c-.1-5.107-4.222-8.128-10.312-8.128-6.363 0-10.806 3.02-10.75 8.458 0 4.23 2.906 6.26 7.46 7.414l5.65 1.48c2.58.605 4.06 1.868 4.06 4 0 2.8-2.577 4.338-6.417 4.338-3.402 0-6.417-1.43-7.186-4.998h-4.554c.768 5.876 5.76 8.786 11.74 8.786zM374.6 235.705v31.082l-21.12-31.082h-4.66v39.703h4.88v-31.52l21.45 31.52h4.388v-39.703H374.6zm25.4 40.252c8.12 0 12.946-6.04 12.946-14.607 0-8.676-4.772-14.882-12.892-14.882-8.008 0-12.946 6.15-12.946 14.937 0 8.567 4.718 14.552 12.892 14.552zm.1-3.9c-5.595 0-8.117-4.777-8.117-10.872s2.522-10.82 8.063-10.82 8 4.668 8 10.82c0 6.094-2.416 10.872-7.956 10.872z" fill-opacity=".8"/><path d="M667.2 257.02v18.397h4.937v-39.704H667.2v16.97h-18.706v-16.97h-4.882v39.704h4.882V257.02H667.2zm17.446 5.383h20.242v-1.867c0-8.622-4.4-14.058-12.288-14.058-8.174 0-12.9 6.04-12.9 15.047 0 9.06 5.376 14.443 13.275 14.443 5.43 0 10.368-2.856 11.74-8.786h-4.608c-1.097 3.24-3.62 4.887-7.24 4.887-5.54 0-8.23-4.228-8.23-9.665zm0-3.405c0-4.283 2.523-8.732 7.9-8.732 5.157 0 7.625 3.8 7.625 8.732h-15.525zm34.45 16.75c.658 0 1.646-.165 2.523-.44v-3.185h-1.6c-1.975-.1-3.182-1.483-3.182-4.448v-33.06H712v33.553c0 3.954 1.097 7.578 7.077 7.578zm9.216 8.513h4.882v-12.74c2.25 3.24 4.937 4.448 8 4.448 7.24 0 12.617-5.437 12.617-15.102 0-9.72-5.266-14.388-11.85-14.388-4.882 0-7.515 2.8-8.832 4.448v-3.9h-4.827v37.233zm12.123-12.08c-2.962 0-5.486-1.812-7.24-4.448v-10.818c0-2.965 3.182-6.6 7.515-6.6 4.4 0 8.393 3.405 8.393 10.654 0 7.14-3.73 11.203-8.667 11.203zm-693.88-70.603h16.73c11.52 0 15.965-3.404 15.965-10.817 0-2.967-.385-7.523-7.35-9.6 4.882-2.417 6.418-5.107 6.418-8.786 0-6.754-4.828-10.5-15.9-10.5H46.546v39.704zm10.697-24.218v-7.467h6.308c2.524 0 4.5 1.48 4.5 3.844 0 2.086-1.592 3.623-4.115 3.623h-6.693zm0 16.2v-7.963h6.693c2.687 0 4.443 1.648 4.443 3.844 0 2.088-1.592 4.12-4.718 4.12h-6.418zm36.6-3.733h17.884v-2.473c0-8.4-4.664-14.717-13.934-14.717-9.107 0-14.427 6.975-14.427 15.103 0 8.62 6.034 14.388 14.866 14.388 6.308 0 12.727-3.9 13.605-10.215h-9.436c-.878 2.198-2.468 2.746-4.443 2.746-2.304 0-4.17-1.427-4.115-4.832zm-.054-5.986c0-2.142 1.8-4 4.004-4 2.687 0 4.115 1.87 4.115 4h-8.12zm61.054-21.967v22.132l-15.47-22.132H128.61v39.704h10.697V177.9l16.566 23.668h9.655v-39.704h-10.697zm27.924-1.098H172.06v9.007h10.697v-9.007zm0 12.4H172.06v28.4h10.697v-28.4zm18.213-.55c-8.23 0-14.32 6.096-14.32 14.884 0 8.675 6.2 14.607 14.32 14.607 7.734 0 12.288-5.492 12.288-11.532h-8.393c-.164 1.152-.932 4.173-3.62 4.173-2.743 0-4.774-2.692-4.774-7.36 0-4.558 1.8-6.865 4.554-6.865s3.5 2.636 3.73 4.23h8.666c-.164-6.37-4.443-12.138-12.452-12.138zm25.507 17.2h17.884v-2.473c0-8.4-4.662-14.717-13.934-14.717-9.105 0-14.427 6.975-14.427 15.103 0 8.62 6.034 14.388 14.866 14.388 6.308 0 12.727-3.9 13.605-10.215h-9.436c-.876 2.198-2.468 2.746-4.443 2.746-2.304 0-4.17-1.427-4.115-4.832zm-.054-5.986c0-2.142 1.8-4 4.004-4 2.7 0 4.115 1.87 4.115 4h-8.12z"/></g><g fill="#fff"><path d="M61.242 255.48l6.004-6.01 8.816 8.994 18.456-18.513 5.504 5.76-24.268 24.546-14.51-14.778z"/><use xlink:href="#B" fill-opacity=".847"/></g><path d="M620.575 220.98l.22.003.1.002.11.003.1.004.11.005.11.005.217.012.217.015.216.018.107.01.215.02.107.012.107.012.213.027.106.014.106.015.106.016.106.017.105.017.105.018.2.038.21.04.208.043.104.022.103.023.104.024.206.05.204.052.102.027.1.027.102.028.1.028.1.03.1.03.1.03.1.03.1.032.1.032.1.033.1.033.098.034.1.034.098.035.098.035.098.037.098.037.097.037.194.076.096.04.096.04.096.04.095.04.2.084.094.042.094.043.094.043.093.044.094.044.093.046.092.046.093.046.09.047.092.047.09.048.09.048.09.05.09.05.18.1.09.05.09.052.088.052.088.053.088.053.175.108.174.1.086.056.085.056.086.056.085.057.085.058.085.06.168.117.083.06.083.06.083.06.082.06.082.062.082.063.162.125.08.064.08.064.08.064.158.13.078.066.155.133.077.068.077.067.152.137.075.07.075.07.075.07.075.07.073.07.074.07.146.144.072.072.143.146.07.074.07.074.07.075.07.076.137.15.07.077.068.076.067.077.067.078.066.078.066.08.066.08.065.08.065.08.064.08.063.08.063.08.062.08.062.082.062.082.122.165.06.083.06.083.06.084.06.085.058.084.058.085.057.085.056.085.056.086.056.086.056.087.055.087.054.087.053.088.053.088.053.088.052.088.052.09.05.09.1.18.05.09.05.09.05.092.048.092.047.092.093.185.046.092.045.094.045.093.044.094.043.094.085.19.042.095.04.095.04.095.04.096.04.096.04.096.04.097.037.097.075.195.036.098.036.098.035.098.034.1.067.198.033.1.032.1.03.1.03.1.03.1.03.1.03.1.056.203.027.1.027.102.026.102.025.103.024.102.024.104.024.103.023.104.044.207.04.208.02.105.02.104.018.105.035.21.032.212.015.106.014.107.014.106.014.107.024.214.01.108.01.108.01.108.01.108.008.108.015.217.007.11.01.217.005.1.004.11.003.1.005.22.001.1-.022 35.11-.005.11-.007.11-.015.217-.008.108-.01.108-.01.108-.01.108-.01.107-.024.214-.027.214-.014.106-.015.107-.032.21-.035.21-.018.104-.02.105-.02.104-.04.21-.044.207-.023.104-.024.103-.05.206-.025.102-.026.102-.027.102-.027.102-.056.203-.03.1-.03.1-.06.2-.03.1-.032.1-.033.1-.067.198-.034.098-.035.098-.036.098-.036.098-.037.098-.037.097-.037.098-.04.096-.04.097-.04.096-.04.095-.04.096-.04.095-.042.095-.085.19-.043.094-.044.094-.1.186-.046.093-.093.185-.047.092-.048.092-.098.182-.05.09-.1.18-.05.09-.104.178-.053.088-.107.175-.054.088-.055.087-.056.087-.056.086-.056.086-.056.085-.057.085-.116.17-.06.084-.12.168-.06.083-.122.165-.123.163-.062.082-.063.08-.063.08-.064.08-.13.16-.13.157-.066.078-.067.078-.067.077-.068.077-.137.153-.07.076-.07.075-.14.15-.07.074-.143.146-.072.072-.073.072-.072.072-.147.143-.15.14-.075.07-.075.07-.076.07-.076.068-.077.068-.077.067-.078.067-.078.066-.157.13-.158.13-.08.064-.162.127-.08.063-.163.124-.082.06-.083.06-.083.06-.083.06-.084.06-.084.06-.17.116-.085.057-.086.057-.085.056-.086.056-.174.1-.088.054-.088.053-.088.053-.088.053-.088.052-.09.052-.09.05-.1.05-.1.05-.09.05-.18.098-.09.048-.092.047-.09.047-.093.047-.092.046-.093.045-.094.045-.093.044-.094.043-.094.043-.094.043-.095.042-.2.082-.192.08-.096.04-.097.04-.097.038-.097.037-.098.037-.098.036-.098.036-.098.035-.1.034-.098.034-.1.034-.1.033-.1.032-.1.03-.1.03-.2.06-.1.03-.1.03-.102.027-.1.027-.102.027-.102.026-.102.025-.103.025-.206.047-.103.023-.104.022-.104.022-.104.02-.104.02-.104.02-.105.02-.105.018-.2.035-.106.017-.212.03-.213.03-.213.026-.215.023-.107.01-.107.01-.108.01-.216.017-.11.007-.108.007-.218.01-.11.005-.1.004-.11.003-.22.005-.22.002H586.38l-.22-.002-.22-.005-.11-.003-.1-.004-.11-.005-.218-.01-.217-.014-.216-.017-.108-.01-.107-.01-.107-.01-.215-.023-.213-.026-.107-.014-.106-.014-.212-.03-.106-.017-.2-.035-.105-.018-.105-.02-.104-.02-.104-.02-.104-.02-.104-.022-.104-.022-.103-.023-.104-.024-.103-.024-.102-.025-.103-.025-.102-.026-.102-.027-.1-.027-.102-.027-.1-.03-.1-.03-.2-.06-.2-.063-.1-.032-.1-.033-.1-.034-.098-.034-.1-.034-.098-.035-.098-.036-.098-.036-.097-.037-.098-.037-.097-.038-.097-.04-.096-.04-.192-.08-.2-.082-.094-.042-.095-.043-.094-.043-.094-.043-.094-.044-.094-.045-.093-.045-.092-.046-.093-.047-.09-.047-.092-.047-.09-.048-.18-.098-.09-.05-.1-.05-.1-.05-.09-.05-.09-.052-.088-.052-.088-.053-.088-.053-.088-.053-.088-.054-.087-.055-.086-.055-.087-.056-.085-.056-.086-.057-.085-.057-.085-.058-.085-.058-.084-.06-.084-.06-.083-.06-.083-.06-.083-.06-.082-.06-.163-.124-.08-.063-.162-.127-.08-.064-.08-.065-.08-.065-.157-.13-.078-.066-.078-.067-.077-.067-.077-.068-.076-.068-.152-.138-.075-.07-.075-.07-.074-.07-.074-.07-.074-.072-.145-.143-.072-.072-.143-.146-.07-.074-.14-.15-.07-.075-.07-.076-.137-.153-.068-.077-.067-.077-.133-.156-.066-.08-.066-.08-.065-.08-.064-.08-.128-.16-.126-.162-.123-.163-.122-.165-.06-.083-.12-.168-.06-.084-.116-.17-.057-.085-.056-.085-.056-.086-.056-.086-.056-.087-.054-.087-.108-.175-.053-.088-.053-.088-.104-.178-.05-.09-.1-.18-.05-.09-.098-.182-.047-.092-.048-.092-.093-.185-.046-.093-.1-.186-.043-.094-.044-.094-.085-.19-.042-.095-.04-.095-.04-.096-.04-.095-.04-.096-.04-.097-.04-.096-.037-.098-.037-.097-.073-.195-.036-.098-.035-.098-.034-.098-.067-.198-.033-.1-.032-.1-.03-.1-.06-.2-.03-.1-.03-.1-.056-.203-.027-.102-.026-.102-.027-.102-.025-.102-.05-.206-.024-.103-.023-.104-.022-.104-.02-.104-.02-.104-.02-.104-.02-.104-.02-.105-.018-.104-.018-.105-.018-.106-.016-.105-.016-.106-.015-.107-.014-.106-.027-.214-.024-.214-.01-.107-.01-.108-.01-.108-.01-.108-.008-.108-.015-.217-.012-.218-.005-.11-.005-.11-.004-.11-.003-.1-.002-.1-.003-.22.008-34.78.004-.11.005-.1.005-.11.012-.217.015-.217.008-.108.01-.108.01-.108.01-.108.01-.108.012-.107.012-.108.027-.213.014-.107.015-.106.032-.212.035-.21.018-.105.02-.104.02-.105.02-.104.043-.208.022-.104.023-.104.024-.103.024-.104.024-.102.025-.103.027-.102.026-.102.027-.1.056-.203.03-.1.03-.1.03-.1.03-.1.03-.1.032-.1.033-.1.067-.198.034-.1.035-.098.036-.098.073-.195.037-.098.037-.097.04-.097.04-.096.04-.096.04-.096.04-.095.04-.095.042-.095.085-.19.044-.094.043-.094.045-.093.045-.094.046-.092.093-.185.048-.092.047-.092.05-.092.05-.09.05-.09.1-.18.05-.09.052-.09.052-.088.053-.088.053-.088.054-.088.108-.174.056-.087.056-.086.056-.086.056-.085.057-.085.058-.085.058-.084.06-.085.06-.084.06-.083.06-.083.122-.165.062-.082.062-.082.063-.08.062-.08.192-.24.13-.158.066-.08.133-.156.067-.077.136-.153.137-.15.07-.076.07-.075.07-.074.07-.074.143-.146.145-.145.072-.072.222-.213.075-.07.075-.07.076-.07.075-.07.076-.07.077-.067.077-.068.155-.133.078-.066.078-.065.08-.066.08-.064.08-.064.08-.064.162-.125.082-.063.082-.062.082-.06.083-.06.083-.06.083-.06.168-.117.085-.06.085-.058.085-.057.086-.056.085-.056.087-.056.086-.055.087-.055.175-.108.088-.053.088-.053.088-.052.09-.052.09-.05.18-.1.09-.05.09-.05.09-.048.09-.048.092-.047.09-.047.093-.046.092-.046.093-.046.187-.088.187-.087.095-.042.094-.042.095-.042.095-.04.096-.04.096-.04.096-.04.194-.076.098-.037.097-.037.098-.037.098-.035.098-.035.1-.034.098-.034.1-.033.1-.033.2-.064.1-.03.1-.03.1-.03.1-.03.1-.028.102-.028.1-.027.102-.027.102-.026.103-.026.102-.024.103-.024.104-.024.103-.023.104-.022.104-.02.104-.02.21-.04.2-.038.105-.018.21-.034.106-.016.106-.015.106-.014.213-.027.214-.024.215-.02.107-.01.108-.01.107-.01.217-.015.217-.012.11-.005.11-.005.1-.004.11-.003.1-.002.22-.003h34.306zm-34.2 3.05h-.096l-.09.002-.09.001-.18.005-.09.004-.09.003-.18.01-.09.005-.09.006-.09.007-.088.007-.09.008-.177.017-.088.01-.088.01-.176.02-.088.01-.174.024-.087.013-.087.014-.086.014-.087.014-.086.015-.086.016-.085.016-.086.017-.085.017-.255.055-.085.02-.085.02-.084.02-.085.02-.084.02-.166.044-.084.023-.082.024-.083.024-.083.024-.082.024-.082.026-.082.025-.163.053-.08.027-.082.027-.08.028-.08.03-.08.03-.16.06-.08.03-.08.03-.08.032-.078.032-.08.032-.078.034-.078.033-.078.034-.078.034-.078.035-.077.035-.154.072-.077.037-.075.037-.076.037-.076.038-.075.038-.075.04-.075.04-.075.04-.075.04-.074.04-.074.04-.148.084-.072.042-.073.043-.145.087-.072.044-.072.045-.07.044-.072.046-.07.046-.07.047-.07.047-.07.047-.07.048-.14.096-.137.098-.204.15-.134.102-.066.05-.066.052-.066.053-.066.053-.13.107-.13.108-.064.055-.063.054-.064.056-.063.056-.125.113-.062.056-.062.058-.06.057-.06.058-.12.117-.06.06-.12.12-.117.12-.116.122-.058.062-.057.062-.056.062-.057.063-.056.062-.056.063-.056.064-.055.064-.054.063-.054.064-.053.066-.054.065-.053.066-.053.066-.052.066-.052.066-.05.066-.052.068-.05.066-.05.068-.05.068-.1.137-.048.07-.05.07-.094.14-.048.07-.046.07-.046.07-.046.07-.046.072-.045.072-.088.143-.087.145-.085.146-.042.073-.082.148-.04.074-.04.075-.08.15-.04.076-.038.076-.038.076-.037.076-.037.077-.037.077-.037.076-.07.154-.035.078-.034.078-.034.08-.034.08-.066.157-.03.08-.032.08-.03.08-.03.08-.06.16-.058.162-.028.08-.028.082-.027.08-.027.082-.027.082-.025.082-.026.082-.05.165-.047.166-.023.082-.044.168-.02.084-.02.084-.02.085-.02.084-.038.17-.018.085-.018.085-.034.17-.016.085-.016.086-.015.086-.014.087-.014.086-.014.088-.013.086-.013.087-.034.263-.01.087-.01.088-.018.177-.015.176-.014.178-.006.09-.005.1-.01.18-.004.1-.003.1-.005.18-.002.1v.09l.01 34.756.004.1.01.18.005.1.006.088.007.088.007.1.015.177.018.177.01.088.01.087.01.087.023.176.013.087.013.086.027.174.014.086.015.086.032.172.034.17.018.085.018.085.02.085.02.085.02.084.02.084.02.085.02.084.022.084.022.083.023.083.024.083.024.082.024.082.024.083.026.082.025.082.027.082.027.082.027.08.056.162.03.08.03.08.03.08.03.08.03.08.03.08.032.08.03.08.033.08.033.08.034.08.034.078.034.08.105.23.073.154.037.077.037.076.076.15.04.076.04.076.04.075.04.074.04.075.04.074.04.073.042.073.043.074.043.073.043.072.043.072.044.072.044.072.045.072.046.07.046.072.046.07.047.07.046.07.048.07.047.07.05.07.048.07.1.137.05.068.05.068.05.067.052.067.05.066.052.067.053.066.052.066.107.13.054.065.108.128.055.064.056.064.11.125.057.063.056.063.057.06.058.063.058.06.116.12.12.12.06.06.06.06.12.117.06.058.06.057.062.057.062.057.062.056.063.056.063.056.127.11.064.054.065.055.13.107.066.053.066.053.2.156.067.05.067.05.07.05.068.05.068.05.07.05.07.05.14.096.07.047.07.047.07.046.142.093.072.045.07.045.072.044.072.044.145.087.073.043.072.042.148.084.074.04.074.04.224.12.15.078.152.076.075.037.154.073.077.036.077.035.078.034.078.035.078.034.078.034.157.066.08.032.08.03.08.03.08.03.08.03.08.03.08.03.08.028.08.03.08.027.082.027.082.027.082.026.082.026.082.025.082.024.083.025.083.024.082.023.084.023.083.023.083.02.084.02.085.02.084.02.085.02.17.038.085.018.085.018.085.018.086.017.085.016.172.03.087.014.086.014.087.014.087.013.174.024.088.01.176.02.264.027.09.008.088.008.088.007.178.012.18.01.1.004.09.004.18.006.18.003.187.002 34.712-.014.1-.004.1-.005.09-.005.178-.012.088-.007.09-.008.088-.008.264-.027.175-.02.088-.01.174-.024.087-.013.087-.014.087-.014.086-.014.172-.03.086-.016.085-.017.085-.018.085-.018.085-.018.17-.038.085-.02.084-.02.085-.02.168-.043.082-.023.084-.023.083-.023.082-.024.083-.024.082-.025.082-.025.082-.026.082-.026.082-.027.082-.027.162-.056.08-.028.08-.03.08-.03.16-.06.158-.063.08-.032.078-.033.08-.033.078-.034.078-.034.078-.035.078-.034.077-.035.077-.036.154-.073.075-.037.152-.076.15-.078.075-.04.075-.04.074-.04.074-.04.074-.04.148-.084.072-.042.073-.043.145-.087.072-.044.072-.044.07-.045.072-.045.07-.047.07-.046.07-.047.07-.047.07-.047.14-.096.07-.05.07-.05.068-.05.136-.1.067-.05.067-.05.067-.052.066-.05.066-.053.132-.106.065-.053.064-.053.065-.054.128-.1.126-.11.063-.056.062-.056.062-.057.062-.057.06-.057.122-.116.06-.06.12-.118.12-.12.058-.06.06-.06.115-.123.057-.062.057-.063.056-.063.11-.125.056-.064.055-.064.108-.128.054-.065.053-.066.053-.065.053-.066.052-.066.104-.134.05-.066.05-.068.05-.068.05-.068.1-.137.096-.137.05-.07.047-.07.046-.07.047-.07.137-.213.044-.07.045-.072.044-.072.043-.072.043-.072.043-.073.043-.074.042-.073.04-.073.04-.074.04-.075.04-.074.04-.075.04-.076.078-.15.075-.15.037-.077.073-.154.035-.077.036-.077.034-.077.034-.08.034-.078.034-.08.033-.08.033-.08.032-.08.03-.08.03-.08.03-.08.03-.08.03-.08.03-.08.085-.243.027-.08.027-.082.027-.082.026-.082.025-.082.025-.083.024-.082.024-.082.046-.166.022-.083.022-.084.02-.084.02-.085.02-.084.02-.084.02-.085.02-.085.018-.085.018-.085.034-.17.017-.086.03-.172.014-.086.014-.087.013-.087.026-.173.034-.263.02-.175.01-.088.01-.088.015-.178.008-.088.012-.178.005-.09.01-.18.004-.1.003-.1.002-.1.002-.092.002-.1v-.09l-.023-35.024-.005-.09-.006-.1-.006-.09-.015-.177-.008-.09-.01-.088-.01-.088-.02-.175-.01-.088-.023-.175-.04-.26-.014-.086-.014-.087-.03-.172-.05-.256-.018-.085-.018-.085-.038-.17-.02-.084-.02-.085-.02-.084-.02-.084-.044-.168-.023-.082-.023-.083-.024-.083-.024-.082-.05-.165-.026-.082-.027-.082-.027-.082-.027-.08-.028-.082-.028-.08-.028-.08-.03-.08-.06-.16-.03-.08-.03-.08-.03-.08-.032-.08-.066-.157-.034-.08-.034-.08-.07-.156-.036-.077-.035-.077-.037-.076-.037-.077-.037-.077-.075-.15-.04-.076-.04-.076-.08-.15-.04-.075-.04-.074-.082-.148-.042-.073-.085-.146-.043-.072-.043-.072-.044-.072-.045-.072-.044-.07-.046-.072-.046-.07-.046-.07-.047-.07-.046-.07-.047-.07-.048-.07-.05-.07-.048-.07-.1-.137-.05-.067-.05-.07-.05-.067-.05-.066-.052-.067-.052-.066-.052-.066-.053-.066-.053-.066-.053-.065-.054-.066-.054-.064-.11-.127-.056-.064-.056-.063-.112-.124-.114-.125-.058-.06-.057-.06-.06-.06-.117-.12-.06-.06-.12-.118-.06-.06-.122-.116-.06-.057-.062-.058-.062-.056-.125-.113-.063-.056-.063-.055-.128-.1-.065-.054-.064-.053-.13-.107-.066-.053-.066-.053-.066-.05-.067-.052-.134-.102-.068-.05-.068-.05-.07-.05-.137-.098-.07-.05-.07-.047-.14-.095-.07-.047-.07-.047-.07-.046-.072-.046-.07-.044-.072-.045-.072-.044-.145-.087-.073-.043-.072-.042-.148-.084-.074-.04-.074-.04-.075-.04-.075-.04-.075-.04-.075-.04-.15-.076-.152-.075-.077-.037-.154-.072-.077-.035-.078-.035-.078-.034-.078-.034-.157-.067-.08-.032-.078-.032-.08-.032-.08-.03-.08-.03-.16-.06-.08-.03-.08-.03-.08-.028-.082-.027-.08-.027-.163-.053-.082-.025-.082-.026-.082-.024-.083-.024-.082-.024-.083-.024-.083-.023-.084-.022-.083-.022-.084-.02-.085-.02-.084-.02-.085-.02-.085-.02-.085-.018-.17-.037-.085-.017-.085-.017-.172-.032-.086-.015-.086-.014-.086-.014-.088-.014-.087-.013-.174-.024-.088-.01-.175-.02-.088-.01-.088-.01-.177-.017-.09-.008-.178-.014-.09-.006-.09-.005-.18-.01-.09-.003-.1-.004-.18-.005-.09-.001-.09-.002h-34.17z" fill="#727272"/><path d="M631.19 238.98c0-6.444-5.226-11.676-11.663-11.676h-32.212c-6.437 0-11.663 5.23-11.663 11.676v32.246c0 6.444 5.226 11.676 11.663 11.676h32.212c6.437 0 11.663-5.232 11.663-11.676V238.98z" fill="#2ca435"/><path d="M637.08 313.628l-5.265 7.84-3.227 4.826c-.714 1.088-1.693 1.542-2.962 1.296-1.173-.227-1.8-1.014-2.1-2.133L608.5 271.386c-.324-1.16-.178-2.178.71-3.007.995-.93 2.116-.827 3.313-.37l52.07 19.81c1.226.45 2.03 1.253 2.076 2.598.042 1.255-.648 2.07-1.736 2.655l-12.004 6.53-1.368.78.79.912 9.905 10.878c1.56 1.713 1.496 3.103-.2 4.66l-9.485 8.65c-1.678 1.526-3.08 1.463-4.606-.207l-9.903-10.88c-.245-.272-.405-.622-.603-.938l-.37.173z"/><path d="M584.41 255.48l6.004-6.01 8.816 8.994 18.456-18.513 5.504 5.76-24.268 24.546-14.51-14.778z" fill="#fff"/></g><defs ><path id="B" d="M637.508 238.042c0-9.416-7.637-17.06-17.042-17.06H586.38c-9.406 0-17.042 7.645-17.042 17.06v34.12c0 9.416 7.637 17.06 17.042 17.06h34.086c9.406 0 17.042-7.645 17.042-17.06v-34.12z"/></defs></svg>