<?xml version="1.0" encoding="UTF-8"?>
<svg width="600px" height="200px" viewBox="0 0 600 200" version="1.1" xmlns="http://www.w3.org/2000/svg" xmlns:xlink="http://www.w3.org/1999/xlink">
    <!-- Generator: Sketch 47.1 (45422) - http://www.bohemiancoding.com/sketch -->
    <title>assets/St-James-Technologies-Logo</title>
    <desc>Created with Sketch.</desc>
    <defs>
        <linearGradient x1="50.0011523%" y1="90.6817547%" x2="50.0011523%" y2="0.777352014%" id="linearGradient-1">
            <stop stop-color="#FFFFFF" offset="0%"></stop>
            <stop stop-color="#F6A800" offset="100%"></stop>
        </linearGradient>
        <polygon id="path-2" points="0.0731137295 0.0794100937 0.0731137295 63.387242 55.0291969 95.0411579 55.0291969 29.6839646 0.0731137295 0.0794100937"></polygon>
        <linearGradient x1="85.3196904%" y1="14.6815324%" x2="28.7470046%" y2="71.2536183%" id="linearGradient-4">
            <stop stop-color="#FFFFFF" offset="0%"></stop>
            <stop stop-color="#F6A800" offset="100%"></stop>
        </linearGradient>
        <polygon id="path-5" points="55.2739607 0.0794100937 55.2739607 63.387242 0.320410404 95.0411579 0.320410404 29.6839646"></polygon>
        <linearGradient x1="14.0580432%" y1="14.0582123%" x2="70.6305867%" y2="70.6301559%" id="linearGradient-7">
            <stop stop-color="#FFFFFF" offset="0%"></stop>
            <stop stop-color="#F6A800" offset="100%"></stop>
        </linearGradient>
        <polygon id="path-8" points="98.591421 84.9095163 49.7117374 113.066125 0.83078745 84.9095163 0.83078745 28.3713999 49.7117374 0.442217322 98.591421 28.3726634 98.591421 84.9095163"></polygon>
        <linearGradient x1="15.8371041%" y1="70.9848889%" x2="48.0773095%" y2="51.1811556%" id="linearGradient-10">
            <stop stop-color="#7B7979" offset="0%"></stop>
            <stop stop-color="#231F20" offset="100%"></stop>
        </linearGradient>
        <polygon id="path-11" points="0.83078745 28.3713999 49.7117374 0.442217322 49.7117374 56.7541712 0.83078745 84.9095163 0.83078745 28.3713999"></polygon>
        <linearGradient x1="71.1474096%" y1="60.6564178%" x2="21.4498016%" y2="35.6137518%" id="linearGradient-13">
            <stop stop-color="#231F20" offset="0%"></stop>
            <stop stop-color="#7B7979" offset="100%"></stop>
        </linearGradient>
        <polygon id="path-14" points="49.2000939 28.3713999 49.2000939 84.9095163 0.320410404 56.7541712 0.320410404 0.442217322"></polygon>
        <linearGradient x1="25.7266599%" y1="62.3909484%" x2="74.0727756%" y2="37.7126646%" id="linearGradient-16">
            <stop stop-color="#160000" offset="0%"></stop>
            <stop stop-color="#AC1E2C" offset="100%"></stop>
        </linearGradient>
        <polygon id="path-17" points="0.320410404 0.146374431 0.320410404 56.4583283 49.2000939 28.3017196 0.320410404 0.146374431"></polygon>
        <linearGradient x1="18.5208683%" y1="30.3592942%" x2="80.8829178%" y2="69.270073%" id="linearGradient-19">
            <stop stop-color="#160000" offset="0%"></stop>
            <stop stop-color="#AC1E2C" offset="100%"></stop>
        </linearGradient>
        <polygon id="path-20" points="46.6706647 41.1173666 23.3680899 54.5405576 0.0629821752 41.1173666 0.0629821752 14.2709847 23.3680899 0.847793781 46.6706647 14.2709847"></polygon>
        <linearGradient x1="26.9806044%" y1="35.8923465%" x2="84.1271989%" y2="70.9161761%" id="linearGradient-22">
            <stop stop-color="#FFFFFF" offset="0%"></stop>
            <stop stop-color="#F6A800" offset="100%"></stop>
        </linearGradient>
        <linearGradient x1="50.0027172%" y1="-81.8078849%" x2="50.0027172%" y2="97.096884%" id="linearGradient-23">
            <stop stop-color="#FFFFFF" offset="0%"></stop>
            <stop stop-color="#F6A800" offset="100%"></stop>
        </linearGradient>
        <linearGradient x1="50%" y1="120.560366%" x2="50%" y2="-0.354856928%" id="linearGradient-24">
            <stop stop-color="#FFFFFF" offset="0%"></stop>
            <stop stop-color="#F6A800" offset="100%"></stop>
        </linearGradient>
    </defs>
    <g id="Symbols" stroke="none" stroke-width="1" fill="none" fill-rule="evenodd">
        <g id="assets/St-James-Technologies-Logo">
            <g id="St-James-Technologies-Logo" transform="translate(60.000000, 36.000000)">
                <g id="Clipped">
                    <g id="Group">
                        <g id="Clipped">
                            <g id="Artboard1">
                                <g id="Layer-1">
                                    <g id="Group" transform="translate(139.560553, 29.308712)" fill-rule="nonzero">
                                        <path d="M13.2913327,46.3077345 C13.7244567,54.9625593 19.537436,56.6088712 22.3134818,56.6088712 C27.2602132,56.6088712 31.0772763,52.6263883 31.0772763,48.1258795 C31.0772763,42.6714447 26.4788171,41.2879362 17.5427862,37.7375628 C12.6834395,36.0065979 1.49060492,32.026642 1.49060492,19.9073604 C1.49060492,7.61624577 12.3364338,0.951398982 22.7478722,0.951398982 C31.2507791,0.951398982 42.5297319,5.45317132 43.0502405,19.6483474 L30.2958801,19.6483474 C29.7753715,16.70318 28.6482361,11.7718251 22.3134818,11.7718251 C18.0632948,11.7718251 14.4159353,14.7132021 14.4159353,19.0418779 C14.33235,23.8039267 17.8024073,25.0143387 28.6482361,29.5161111 C38.4517813,33.7576069 43.9177548,38.4312123 43.9177548,47.5206735 C43.9177548,57.8218101 37.584267,67.4280338 22.4882511,67.4280338 C7.91147744,67.4280338 0.362203065,58.6860291 0.44958772,46.3077345 L13.2913327,46.3077345 L13.2913327,46.3077345 Z" id="Shape" fill="#F6A800"></path>
                                        <path d="M90.3304049,42.5867916 C90.3304049,49.4247349 89.7225117,53.4931343 88.3332223,56.6960512 C87.032584,59.3796786 84.5136263,62.1492225 81.9136162,63.7930074 C78.1826714,66.3035384 73.757715,67.4292973 69.6810309,67.4292973 C66.904985,67.4292973 52.5878324,66.4766349 49.8979047,51.9352658 C49.6370172,50.6364104 49.550899,49.1644584 49.4647808,47.69377 L63.2601584,47.69377 C63.2601584,48.2989759 63.3462766,48.8182654 63.4323948,49.4247349 C64.3885602,53.5790508 66.9911032,56.0895817 70.2863913,56.0895817 C73.8450997,56.0024017 75.7548977,54.0983403 76.5350274,51.9352658 C77.3164235,49.9440244 77.4025417,47.69377 77.4025417,45.703792 L77.4025417,2.16307445 L90.3304049,2.16307445 L90.3304049,42.5867916 L90.3304049,42.5867916 Z" id="Shape" fill="#F6A800"></path>
                                        <polygon id="Shape" fill="#656565" points="112.01573 13.5027901 98.1342346 13.5027901 98.1342346 2.16307445 138.738971 2.16307445 138.738971 13.5027901 124.943594 13.5027901 124.943594 66.2163584 112.01573 66.2163584 112.01573 13.5027901"></polygon>
                                        <path d="M172.745533,37.5657298 C172.312409,33.0639575 167.539181,26.7465671 159.209777,26.8324836 C150.792988,26.8324836 146.195795,32.8921244 145.761405,37.5657298 L172.745533,37.5657298 L172.745533,37.5657298 Z M145.589168,46.2230815 C146.10841,53.8405907 152.876289,58.0808231 159.384546,57.9936431 C164.936638,57.9936431 168.667582,55.4831122 170.835735,51.5890728 L182.549078,51.5890728 C180.293541,56.8691477 176.908335,60.850367 172.91777,63.532731 C168.92847,66.3035384 164.24136,67.6895738 159.297161,67.6895738 C144.633003,67.6895738 134.135446,55.8305687 134.135446,42.5867916 C134.135446,29.0840016 144.721654,17.2249964 159.123658,17.2249964 C166.238542,17.2249964 172.484646,19.9086239 176.908335,24.4950492 C182.722581,30.4687735 184.889467,37.9131863 183.938368,46.2230815 L145.589168,46.2230815 L145.589168,46.2230815 Z" id="Shape" fill="#656565"></path>
                                        <path d="M241.717355,48.9054454 C239.027428,59.4655951 229.569622,67.6883103 217.249652,67.6883103 C202.153636,67.6883103 191.740931,56.0024017 191.740931,42.4124316 C191.740931,28.3903521 202.588026,17.2249964 216.816528,17.2249964 C228.788225,17.2249964 238.940043,24.7553257 241.717355,36.3540543 L230.087597,36.3540543 C228.094214,31.3329925 223.495755,27.7838826 217.249652,27.7838826 C213.085583,27.6979661 209.875147,29.1699181 207.097834,31.8535455 C204.668794,34.4499929 203.193387,38.2593793 203.193387,42.4124316 C203.193387,50.9838668 209.181135,57.0422442 217.249652,57.0422442 C224.363269,57.0422442 228.355102,52.8007483 230.087597,48.9054454 L241.717355,48.9054454 L241.717355,48.9054454 Z" id="Shape" fill="#656565"></path>
                                        <path d="M250.99406,2.16307445 L262.360397,2.16307445 L262.360397,24.3219527 C265.050325,19.3021544 270.775919,17.1390799 276.415396,17.223733 C283.789901,17.223733 288.38836,19.7342639 291.165672,23.8898432 C294.027836,28.0441591 294.896617,33.6704269 294.896617,40.0762607 L294.896617,66.2163584 L283.53028,66.2163584 L283.53028,40.5955502 C283.53028,36.9592603 282.922386,33.8435234 281.360861,31.593269 C279.71195,29.3430146 277.109407,27.8710626 273.118841,27.8710626 C268.6065,27.8710626 265.916573,29.6892075 264.355047,32.026642 C262.793521,34.3628129 262.360397,37.2195368 262.360397,39.6428877 L262.360397,66.2163584 L250.99406,66.2163584 L250.99406,2.16307445 L250.99406,2.16307445 Z" id="Shape" fill="#656565"></path>
                                        <path d="M326.646375,31.506089 C326.558991,28.9968216 325.258352,26.3991107 320.83213,26.3991107 C317.015066,26.3991107 315.19392,28.8237251 315.19392,31.159896 C315.280038,34.1897164 318.750095,35.8347648 323.262436,37.1323568 C330.896562,39.2107782 339.138582,41.4610327 339.2247,51.6737259 C339.398203,61.4568365 331.156183,67.6883103 321.179135,67.6883103 C313.80463,67.6883103 303.827582,63.878924 302.958801,52.3673753 L314.325139,52.3673753 C314.759529,57.4743536 319.184486,58.5129326 321.352638,58.5129326 C324.91008,58.5129326 327.94828,56.1754982 327.860895,52.9725813 C327.860895,48.9054454 324.302187,47.7796865 315.539659,44.7498661 C309.120053,42.7598881 303.9137,39.2107782 303.827582,32.372835 C303.827582,23.0243608 311.721329,17.223733 320.918248,17.223733 C327.340387,17.223733 336.883044,20.0804569 337.834144,31.506089 L326.646375,31.506089 L326.646375,31.506089 Z" id="Shape" fill="#656565"></path>
                                    </g>
                                    <g id="Group">
                                        <polygon id="Shape" fill="url(#linearGradient-1)" fill-rule="nonzero" points="109.982747 94.9741936 55.0291969 126.628109 0.0731137295 94.9741936 0.0731137295 31.6663617 55.0291969 0.0124457564 109.982747 31.6663617"></polygon>
                                        <g id="Clipped" transform="translate(0.000000, 31.586952)">
                                            <mask id="mask-3" fill="white">
                                                <use xlink:href="#path-2"></use>
                                            </mask>
                                            <g id="Shape"></g>
                                            <polygon id="Shape" fill="url(#linearGradient-4)" fill-rule="nonzero" mask="url(#mask-3)" points="87.7832454 62.3625613 43.4159029 106.627252 -31.6551149 31.733326 12.7147606 -12.5326279"></polygon>
                                        </g>
                                        <g id="Clipped" transform="translate(54.708787, 31.586952)">
                                            <mask id="mask-6" fill="white">
                                                <use xlink:href="#path-5"></use>
                                            </mask>
                                            <g id="Shape"></g>
                                            <polygon id="Shape" fill="url(#linearGradient-7)" fill-rule="nonzero" mask="url(#mask-6)" points="-32.4349045 62.3625613 11.9337045 106.627252 87.0021894 31.733326 42.6335803 -12.5313645"></polygon>
                                        </g>
                                        <g id="Clipped" transform="translate(5.317460, 6.566106)">
                                            <mask id="mask-9" fill="white">
                                                <use xlink:href="#path-8"></use>
                                            </mask>
                                            <g id="Shape"></g>
                                            <polygon id="Shape" fill="url(#linearGradient-10)" fill-rule="nonzero" mask="url(#mask-9)" points="-24.0383789 43.0921828 73.1358909 -14.430183 123.460587 70.1874699 26.2863175 127.711099"></polygon>
                                        </g>
                                        <g id="Clipped" transform="translate(5.317460, 6.566106)">
                                            <mask id="mask-12" fill="white">
                                                <use xlink:href="#path-11"></use>
                                            </mask>
                                            <g id="Shape"></g>
                                            <polygon id="Shape" fill="url(#linearGradient-13)" fill-rule="nonzero" mask="url(#mask-12)" points="25.1287875 98.9859254 -23.7787579 70.6499029 25.3162212 -13.6923118 74.2225001 14.6437108 25.1287875 98.9859254"></polygon>
                                        </g>
                                        <g id="Clipped" transform="translate(54.708787, 6.566106)">
                                            <mask id="mask-15" fill="white">
                                                <use xlink:href="#path-14"></use>
                                            </mask>
                                            <g id="Shape"></g>
                                            <polygon id="Shape" fill="url(#linearGradient-16)" fill-rule="nonzero" mask="url(#mask-15)" points="-24.3157302 14.8635559 24.4626378 -13.6910483 73.9362837 70.4287942 25.1566492 98.9833985 -24.3157302 14.8635559"></polygon>
                                        </g>
                                        <g id="Clipped" transform="translate(54.708787, 63.173903)">
                                            <mask id="mask-18" fill="white">
                                                <use xlink:href="#path-17"></use>
                                            </mask>
                                            <g id="Shape"></g>
                                            <polygon id="Shape" fill="url(#linearGradient-19)" fill-rule="nonzero" mask="url(#mask-18)" points="0.895376108 -0.802497595 49.2000939 28.3017196 23.6483141 70.5132582 -24.6564037 41.409041"></polygon>
                                        </g>
                                        <g id="Clipped" transform="translate(31.661107, 35.626102)">
                                            <mask id="mask-21" fill="white">
                                                <use xlink:href="#path-20"></use>
                                            </mask>
                                            <g id="Shape"></g>
                                            <polygon id="Shape" fill="url(#linearGradient-22)" fill-rule="nonzero" mask="url(#mask-21)" points="12.14866 -6.10765296 58.4637938 21.2314854 34.5875198 61.4947408 -11.7288805 34.1556025 12.14866 -6.10765296"></polygon>
                                        </g>
                                        <polygon id="Shape" fill="url(#linearGradient-23)" fill-rule="nonzero" points="55.0291969 36.4738957 31.7240892 49.8970867 55.0291969 62.464903 78.3317718 49.8970867"></polygon>
                                        <polygon id="Shape" fill="url(#linearGradient-24)" fill-rule="nonzero" points="55.0291969 90.1666595 31.7240892 76.7434686 31.7240892 49.8970867 55.0291969 62.464903"></polygon>
                                    </g>
                                </g>
                            </g>
                        </g>
                    </g>
                </g>
            </g>
        </g>
    </g>
</svg>