<?xml version="1.0" encoding="UTF-8"?>
<svg width="160px" height="90px" viewBox="0 0 160 90" version="1.1" xmlns="http://www.w3.org/2000/svg" xmlns:xlink="http://www.w3.org/1999/xlink">
    <!-- Generator: Sketch 49.3 (51167) - http://www.bohemiancoding.com/sketch -->
    <title>Admin &amp; Root logo designed by Isral Duke</title>
    <desc>Created with Sketch.</desc>
    <defs></defs>
    <g id="Admin-&amp;-Root-logo-designed-by-Isral-Duke" stroke="none" stroke-width="1" fill="none" fill-rule="evenodd">
        <g id="Page-1" transform="translate(8.000000, 23.000000)">
            <path d="M86.0932246,20.2873953 L76.1813889,2.5144186 L76.1813889,20.2873953 L74.2886836,20.2873953 L74.2886836,0.370116279 L77.1203865,0.370116279 L86.4690338,17.1356512 L86.4690338,0.370116279 L88.4055193,0.370116279 L88.4055193,20.2873953 L86.0932246,20.2873953 Z M69.9246739,20.2873953 L62.4981522,20.2873953 L62.4981522,18.5749535 L65.2289855,18.5749535 L65.2289855,2.06825581 L62.4981522,2.06825581 L62.4981522,0.370116279 L69.9246739,0.370116279 L69.9246739,2.06825581 L67.1794807,2.06825581 L67.1794807,18.5749535 L69.9246739,18.5749535 L69.9246739,20.2873953 Z M55.9749034,20.2873953 L55.9749034,2.74465116 L50.1087077,14.6603023 L48.8082609,14.6603023 L43.014215,2.74465116 L43.014215,20.2873953 L41.1215097,20.2873953 L41.1215097,0.370116279 L43.8667029,0.370116279 L49.516099,11.9693721 L55.1367754,0.370116279 L57.8676087,0.370116279 L57.8676087,20.2873953 L55.9749034,20.2873953 Z M35.369843,10.2998372 C35.369843,8.79383721 35.2420048,7.52023256 34.9867138,6.47930233 C34.7317379,5.43837209 34.3170519,4.59418605 33.7440568,3.94639535 C33.1707114,3.29895349 32.4218949,2.83360465 31.4972572,2.55034884 C30.5726196,2.2677907 29.4406389,2.12581395 28.1016655,2.12581395 L25.5585616,2.12581395 L25.5585616,18.5173953 L28.1016655,18.5173953 C29.4115688,18.5173953 30.5288394,18.3806512 31.4538273,18.1071628 C32.378465,17.8336744 33.1297331,17.3756512 33.7079819,16.733093 C34.2855302,16.090186 34.7068708,15.2432093 34.9723539,14.1928605 C35.2371014,13.1425116 35.369843,11.8448372 35.369843,10.2998372 Z M37.4786473,10.3287907 C37.4786473,12.2763488 37.2790097,13.8904186 36.8793841,15.1713488 C36.4794082,16.4522791 35.8917029,17.4719302 35.1166184,18.2296047 C34.3408684,18.9872791 33.3826075,19.5199535 32.2411703,19.8269302 C31.0997331,20.1342558 29.7870278,20.2873953 28.3037548,20.2873953 L23.5937065,20.2873953 L23.5937065,0.370116279 L28.275035,0.370116279 C29.8448176,0.370116279 31.2058563,0.538255814 32.35675,0.873837209 C33.5076437,1.21011628 34.4641534,1.76616279 35.224843,2.54337209 C35.9862681,3.32023256 36.5519082,4.34476744 36.9224638,5.6155814 C37.2933696,6.88709302 37.4786473,8.45790698 37.4786473,10.3287907 Z M8.44365821,12.775186 L15.5668708,12.775186 L11.9979094,2.2555814 L8.44365821,12.775186 Z M3.84883937,20.2873953 L10.7843225,0.370116279 L13.2983563,0.370116279 L20.2772693,20.2873953 L18.1534046,20.2873953 L16.2029094,14.5455349 L7.85104952,14.5455349 L5.90055435,20.2873953 L3.84883937,20.2873953 Z" id="Fill-1" fill="#FF4612"></path>
            <path d="M9.0852657,29.2520581 C9.0852657,28.883686 8.93221014,28.5784535 8.62574879,28.3363605 C8.3189372,28.0939186 7.91791063,27.9728721 7.42231884,27.9728721 C6.79153382,27.9728721 6.3159058,28.1256628 5.99613527,28.4305465 C5.67601449,28.7361279 5.51630435,29.1533372 5.51630435,29.6828721 C5.51630435,30.0508953 5.62207729,30.4147326 5.83397343,30.7733372 C6.04551932,31.1329884 6.36318841,31.5501977 6.78698068,32.0256628 C7.37258454,31.6401977 7.83910628,31.2920581 8.18619565,30.9822907 C8.53328502,30.6725233 8.76969807,30.398686 8.89613527,30.1607791 C9.02222222,29.9232209 9.0852657,29.6204302 9.0852657,29.2520581 Z M5.86759662,36.2001977 C5.02036232,36.7300814 4.42985507,37.2435698 4.09642512,37.7420581 C3.76299517,38.2401977 3.59628019,38.8081047 3.59628019,39.4454302 C3.59628019,40.2533372 3.89818841,40.8840349 4.50235507,41.3375233 C5.10582126,41.7906628 5.9306401,42.017407 6.97646135,42.017407 C8.13891304,42.017407 9.15741546,41.6762442 10.0316184,40.9939186 L5.86759662,36.2001977 Z M12.9382729,44.4411279 L11.9649517,43.2833372 C11.3163043,43.7228721 10.603913,44.0908953 9.8288285,44.387407 C9.05374396,44.6835698 8.08497585,44.8314767 6.92217391,44.8314767 C4.78605072,44.8314767 3.09823671,44.342407 1.85908213,43.3639186 C0.619577295,42.3854302 0,41.070314 0,39.4185698 C0,38.2422907 0.259178744,37.2683372 0.777536232,36.4967093 C1.29554348,35.7247326 2.33891304,34.853686 3.90729469,33.8839186 C3.37527778,33.2378721 2.92031401,32.5733372 2.5417029,31.8910116 C2.16309179,31.2090349 1.97396135,30.5225233 1.97396135,29.8307791 C1.97396135,28.3946163 2.45169082,27.2992674 3.40714976,26.5454302 C4.36225845,25.7912442 5.72785024,25.4141512 7.50357488,25.4141512 C8.99070048,25.4141512 10.2119928,25.7462442 11.1674517,26.4104302 C12.1225604,27.075314 12.6006401,28.0129884 12.6006401,29.2251977 C12.6006401,29.8712442 12.4605435,30.4817093 12.181401,31.0562442 C11.9019082,31.6307791 11.518744,32.1693837 11.0322585,32.672407 C10.5454227,33.1750814 9.8018599,33.7541512 8.80121981,34.4092674 L12.3572222,38.5701977 C12.9337198,37.7891512 13.393587,36.7569419 13.7361232,35.4728721 L16.8052899,36.1733372 C16.3454227,38.0675233 15.5521256,39.6655465 14.4257488,40.9670581 L17.359372,44.4411279 L12.9382729,44.4411279 Z" id="Fill-2" fill="#768692"></path>
            <path d="M31.5414227,31.5007674 C31.5414227,30.5491395 31.3004565,29.911814 30.8181739,29.5887907 C30.3358913,29.2654186 29.5404928,29.103907 28.4319783,29.103907 L25.4710362,29.103907 L25.4710362,34.0727442 L28.2694662,34.0727442 C29.1258068,34.0727442 29.7839106,33.991814 30.2434275,33.8303023 C30.7029444,33.6687907 31.0346232,33.4172791 31.237413,33.0764651 C31.4402029,32.7349535 31.5414227,32.2099535 31.5414227,31.5007674 Z M32.1767609,44.4412326 L27.4043696,37.3849535 L25.4710362,37.3849535 L25.4710362,44.4412326 L21.6583068,44.4412326 L21.6583068,25.8049535 L28.4589469,25.8049535 C30.8654565,25.8049535 32.62507,26.2354186 33.7381377,27.0973953 C34.8512053,27.9593721 35.4080193,29.3728605 35.4080193,31.338907 C35.4080193,32.9282093 35.0721377,34.1937907 34.4007947,35.1363488 C33.7293816,36.078907 32.7760242,36.6806512 31.5414227,36.9408837 L36.5435024,44.4412326 L32.1767609,44.4412326 Z" id="Fill-3" fill="#768692"></path>
            <path d="M49.2817874,35.1230233 C49.2817874,32.9145349 48.9683213,31.3056977 48.3420894,30.2954651 C47.7155072,29.2855814 46.6542754,28.7804651 45.1583937,28.7804651 C43.6618116,28.7804651 42.6005797,29.2855814 41.9743478,30.2954651 C41.3477657,31.3056977 41.0346498,32.9145349 41.0346498,35.1230233 C41.0346498,37.3311628 41.3523188,38.9403488 41.9880072,39.9502326 C42.6229952,40.9601163 43.6800242,41.4652326 45.1583937,41.4652326 C46.6542754,41.4652326 47.7155072,40.9601163 48.3420894,39.9502326 C48.9683213,38.9403488 49.2817874,37.3311628 49.2817874,35.1230233 M53.2157005,35.1230233 C53.2157005,38.3637209 52.5288768,40.7919767 51.154529,42.4077907 C49.7798309,44.0239535 47.7810024,44.8315116 45.1583937,44.8315116 C42.3911353,44.8315116 40.3565821,43.9813953 39.0540338,42.2801163 C37.7514855,40.5788372 37.1003865,38.1931395 37.1003865,35.1230233 C37.1003865,32.0347674 37.7514855,29.6448837 39.0540338,27.9523256 C40.3565821,26.2604651 42.3911353,25.414186 45.1583937,25.414186 C47.9435145,25.414186 49.9826208,26.2604651 51.2757126,27.9523256 C52.5691546,29.6448837 53.2157005,32.0347674 53.2157005,35.1230233" id="Fill-4" fill="#768692"></path>
            <path d="M67.2243116,35.1230233 C67.2243116,32.9145349 66.9108454,31.3056977 66.2846135,30.2954651 C65.6580314,29.2855814 64.5967995,28.7804651 63.1009179,28.7804651 C61.6043357,28.7804651 60.5431039,29.2855814 59.916872,30.2954651 C59.2902899,31.3056977 58.9771739,32.9145349 58.9771739,35.1230233 C58.9771739,37.3311628 59.294843,38.9403488 59.9305314,39.9502326 C60.5655193,40.9601163 61.6225483,41.4652326 63.1009179,41.4652326 C64.5967995,41.4652326 65.6580314,40.9601163 66.2846135,39.9502326 C66.9108454,38.9403488 67.2243116,37.3311628 67.2243116,35.1230233 M71.1582246,35.1230233 C71.1582246,38.3637209 70.471401,40.7919767 69.0970531,42.4077907 C67.7223551,44.0239535 65.7235266,44.8315116 63.1009179,44.8315116 C60.3336594,44.8315116 58.2991063,43.9813953 56.996558,42.2801163 C55.6940097,40.5788372 55.0429106,38.1931395 55.0429106,35.1230233 C55.0429106,32.0347674 55.6940097,29.6448837 56.996558,27.9523256 C58.2991063,26.2604651 60.3336594,25.414186 63.1009179,25.414186 C65.8860386,25.414186 67.9251449,26.2604651 69.2182367,27.9523256 C70.5116787,29.6448837 71.1582246,32.0347674 71.1582246,35.1230233" id="Fill-5" fill="#768692"></path>
            <polygon id="Fill-6" fill="#768692" points="81.9789372 29.2789884 81.9789372 44.4411977 78.1662077 44.4411977 78.1662077 29.2789884 72.4068357 29.2789884 72.4068357 25.8049186 87.7383092 25.8049186 87.7383092 29.2789884"></polygon>
            <path d="M130.156063,32.3423721 L132.8193,29.689814 L129.566256,26.4501628 L126.90337,29.1023721 C126.578696,29.4257442 126.578696,29.9549302 126.90337,30.2783023 L128.975749,32.3423721 C129.300423,32.6657442 129.831389,32.6657442 130.156063,32.3423721" id="Fill-9" fill="#768692"></path>
            <path d="M133.836751,36.0082326 L136.499988,33.3556744 L133.246594,30.1160233 L130.584058,32.7682326 C130.259384,33.0916047 130.259384,33.6207907 130.584058,33.9441628 L132.656437,36.0082326 C132.981111,36.3316047 133.512077,36.3316047 133.836751,36.0082326" id="Fill-10" fill="#768692"></path>
            <path d="M110.617488,8.75302326 L107.954601,11.405686 L114.952428,18.3751047 L117.615314,15.7228953 C117.939988,15.3995233 117.939988,14.8703372 117.615314,14.5469651 L111.798152,8.75302326 C111.473478,8.42965116 110.942162,8.42965116 110.617488,8.75302326" id="Fill-12" fill="#FF4612"></path>
            <path d="M105.077367,14.2711395 C98.0953019,21.2252093 98.0946014,32.4989302 105.075966,39.4523023 C106.195338,40.567186 107.427488,41.5013721 108.734239,42.2583488 C108.734239,42.2583488 102.263527,31.0066047 111.289601,22.0167209 L114.515676,18.8098605 L107.51785,11.840093 L105.077367,14.2711395 Z" id="Fill-13" fill="#FF4612"></path>
            <path d="M139.441316,30.554093 C146.423382,23.6003721 146.423732,12.3263023 139.442367,5.3727907 C138.322995,4.25790698 137.090845,3.32406977 135.784094,2.56674419 C135.784094,2.56674419 142.254807,13.8186279 133.229082,22.8085116 L130.003007,26.0153721 L137.000483,32.9851395 L139.441316,30.554093 Z" id="Fill-14" fill="#768692"></path>
            <path d="M107.628527,37.0954535 C108.355278,40.2765 109.62,42.7821977 109.62,42.7821977 C112.241908,44.1608023 114.979396,44.8469651 117.809348,44.8246395 C123.30849,44.7810349 127.959348,41.4601047 129.626498,40.1080116 C129.987947,39.8149884 130.013164,39.2746395 129.683937,38.9463837 L126.847331,36.1204535 C122.981365,39.080686 115.316329,43.1659186 107.628527,37.0954535" id="Fill-15" fill="#FF4612"></path>
            <path d="M107.478273,36.3872093 C115.034734,42.7475581 122.666848,38.7261628 126.518104,35.792093 L123.803382,33.0875581 C123.535447,32.8203488 123.115507,32.7798837 122.803092,32.9937209 C120.954167,34.2593023 114.41936,37.812907 107.341679,30.7636047 C106.976377,32.5974419 107.124529,34.5753488 107.478273,36.3872093" id="Fill-16" fill="#FF4612"></path>
            <path d="M117.959952,8.99302326 L120.714601,11.7377791 C120.982886,12.0049884 121.402476,12.0454535 121.715242,11.8312674 C123.564167,10.5660349 130.098623,7.01197674 137.176655,14.0617326 C137.526196,12.3060349 137.404662,10.4191744 137.084191,8.67174419 C129.597077,2.14255814 121.831522,6.13046512 117.959952,8.99302326" id="Fill-17" fill="#768692"></path>
            <path d="M114.834746,5.87895349 L117.629674,8.66372093 C121.513152,5.77674419 129.314432,1.71906977 136.940592,7.95593023 C136.223998,4.6677907 134.898684,2.0427907 134.898684,2.0427907 C132.276775,0.664186047 129.538587,-0.0219767442 126.708635,0.000697674419 C121.209843,0.0443023256 116.559336,3.36523256 114.891836,4.71732558 C114.530386,5.01034884 114.505169,5.55069767 114.834746,5.87895349" id="Fill-18" fill="#768692"></path>
        </g>
    </g>
</svg>