<?xml version="1.0" encoding="UTF-8"?>
<svg width="160px" height="90px" viewBox="0 0 160 90" version="1.1" xmlns="http://www.w3.org/2000/svg" xmlns:xlink="http://www.w3.org/1999/xlink">
    <!-- Generator: Sketch 49.3 (51167) - http://www.bohemiancoding.com/sketch -->
    <title>Bits logo designed by Isral Duke</title>
    <desc>Created with Sketch.</desc>
    <defs></defs>
    <g id="Bits-logo-designed-by-Isral-Duke" stroke="none" stroke-width="1" fill="none" fill-rule="evenodd">
        <g id="Page-1" transform="translate(15.000000, 21.000000)">
            <path d="M23.6209713,0 C10.5756192,0 0,10.7316556 0,23.9694834 C0,37.2073113 10.5756192,47.9392212 23.6209713,47.9392212 C36.6668247,47.9392212 47.2419427,37.2073113 47.2419427,23.9694834 C47.2419427,10.7316556 36.6668247,0 23.6209713,0" id="Fill-1" fill="#005CB9"></path>
            <polygon id="Fill-2" fill="#005CB9" points="83.144541 4.6890596 84.981491 4.68410066 83.955255 9.11453245 87.4230306 9.12 83.7886013 16.1253934 82.3363332 16.1204344 82.932778 11.6850437 79.8409131 11.6855523"></polygon>
            <path d="M69.908101,31.8770861 L64.1961389,37.5791682 L63.3672559,37.5791682 L58.9454191,33.1388821 L58.9454191,28.3252132 L63.3208936,23.9778755 L64.1504031,23.9778755 L69.908101,29.7734146 L69.908101,31.8770861 Z M66.5449539,17.1539285 L61.8931224,17.1539285 L58.8533837,20.2272 L58.8533837,12.7581457 L52.1286557,16.9074437 L52.1286557,35.5224795 L60.925967,44.403395 L66.6376785,44.403395 L76.6318893,34.1674808 L76.6318893,27.3903258 L66.5449539,17.1539285 Z" id="Fill-3" fill="#FFB81C"></path>
            <polygon id="Fill-4" fill="#FFB81C" points="58.853321 8.93454834 58.853321 5.4941245 52.1286557 5.4941245 52.1286557 13.0837828"></polygon>
            <polygon id="Fill-5" fill="#FFB81C" points="80.2074259 25.7088636 80.2074259 44.4033568 86.9324672 44.4033568 86.9324672 21.5595656"></polygon>
            <polygon id="Fill-6" fill="#FFB81C" points="93.303526 40.9933987 93.303526 44.4033759 100.028567 44.4033759 100.028567 36.8436556"></polygon>
            <polygon id="Fill-7" fill="#FFB81C" points="100.028567 17.1539921 100.028567 10.3301086 93.303526 10.3301086 93.303526 17.1539921 90.6320544 17.1539921 90.6320544 23.9778755 93.303526 23.9778755 93.303526 37.169547 100.028567 33.020249 100.028567 23.9778755 102.562831 23.9778755 109.320452 17.1539921"></polygon>
            <polygon id="Fill-8" fill="#FFB81C" points="119.915493 27.6282914 117.323589 23.9778119 121.926615 23.9778119 128.95677 17.1539921 114.912749 17.1539921 108.586173 23.6042384 113.999913 31.2870358"></polygon>
            <polygon id="Fill-9" fill="#FFB81C" points="115.861297 33.959396 118.431272 37.5794861 113.828247 37.5794861 106.798091 44.4033568 120.842113 44.4033568 127.168689 37.9530596 121.776877 30.3007788"></polygon>
            <polygon id="Fill-10" fill="#FFFFFF" points="23.6960282 4.6890596 25.5327902 4.68410066 24.5069301 9.11453245 27.9747683 9.12 24.3402763 16.1253934 22.8880709 16.1204344 23.4840146 11.6850437 20.3924002 11.6855523"></polygon>
            <polygon id="Fill-11" fill="#FFFFFF" points="26.9416406 43.0088392 25.4840471 44.4785293 21.8475503 44.4785293 20.3924002 43.0097928 20.3924002 42.4579518 26.9416406 38.5738808"></polygon>
            <polygon id="Fill-12" fill="#FFFFFF" points="26.8641404 34.1056848 26.8641404 36.6980026 20.3924002 40.6914755 20.3924002 38.0989669"></polygon>
            <polygon id="Fill-13" fill="#FFFFFF" points="20.3924002 36.295947 20.3924002 33.7041377 26.8641404 29.7109192 26.8641404 32.3027285"></polygon>
            <path d="M33.2954701,25.8249536 L30.9699616,28.1897325 L16.3100107,28.1897325 L13.9898276,25.8205033 L13.9898276,23.6342464 L20.1526319,23.6342464 C20.4995974,25.2671364 21.93,26.4905325 23.6424609,26.4905325 C25.355423,26.4905325 26.7857003,25.2671364 27.1326659,23.6342464 L33.2954701,23.6342464 L33.2954701,25.8249536 Z" id="Fill-14" fill="#FFFFFF"></path>
            <path d="M21.3734017,22.8855099 C21.3734017,21.625494 22.3797144,20.6042702 23.6209713,20.6042702 C24.8626668,20.6042702 25.8690423,21.625494 25.8690423,22.8855099 C25.8690423,24.1450808 24.8626668,25.1662411 23.6209713,25.1662411 C22.3797144,25.1662411 21.3734017,24.1450808 21.3734017,22.8855099" id="Fill-15" fill="#FFFFFF"></path>
            <path d="M33.2954701,22.1002172 L27.1326659,22.1002172 C26.7857003,20.4673272 25.355423,19.2433589 23.6424609,19.2433589 C21.93,19.2433589 20.4995974,20.4673272 20.1526319,22.1002172 L13.9898276,22.1002172 L13.9898276,19.9094464 L16.3090709,17.5441589 L30.9558023,17.5441589 L33.2954701,19.9138967 L33.2954701,22.1002172 Z" id="Fill-16" fill="#FFFFFF"></path>
        </g>
    </g>
</svg>