<?xml version="1.0" encoding="UTF-8"?>
<svg width="160px" height="90px" viewBox="0 0 160 90" version="1.1" xmlns="http://www.w3.org/2000/svg" xmlns:xlink="http://www.w3.org/1999/xlink">
    <!-- Generator: Sketch 49.3 (51167) - http://www.bohemiancoding.com/sketch -->
    <title>Choice Title logo designed by Isral Duke</title>
    <desc>Created with Sketch.</desc>
    <defs></defs>
    <g id="Choice-Title-logo-designed-by-Isral-Duke" stroke="none" stroke-width="1" fill="none" fill-rule="evenodd">
        <g id="Page-1" transform="translate(13.000000, 26.000000)">
            <path d="M82.8836427,16.4689875 C83.188795,16.4067375 83.324169,15.8026125 83.324169,15.8026125 C83.324169,15.8026125 82.9644183,15.2993625 82.6592659,15.3608625 C80.6305263,15.7737375 78.4854848,15.7737375 76.4563712,15.3608625 C76.1515928,15.2997375 75.7918421,15.8026125 75.7918421,15.8026125 C75.7918421,15.8026125 75.9272161,16.4067375 76.2323684,16.4689875 C77.3198476,16.6902375 78.4391136,16.8008625 79.5580055,16.8008625 C80.6768975,16.8008625 81.7957895,16.6902375 82.8836427,16.4689875 M78.0187812,17.0712375 C77.962313,17.3468625 77.7274654,18.1486125 76.8191136,18.9788625 C75.696482,20.0048625 76.1085873,22.0422375 76.1085873,22.0422375 C76.1085873,22.0422375 78.2050139,20.7244875 78.6481579,17.3487375 C78.3628255,17.1424875 78.1047922,17.0851125 78.0187812,17.0712375 M79.6137258,19.6096125 C79.5595014,18.4249875 79.1645983,17.7912375 78.7779224,17.4522375 C78.6051524,18.1077375 78.2910249,19.4716125 78.2910249,20.7316125 C78.2910249,22.4697375 79.6137258,23.8234875 79.6137258,23.8234875 C79.6137258,23.8234875 80.9368006,22.4697375 80.9368006,20.7316125 C80.9368006,19.4716125 80.6226731,18.1077375 80.449903,17.4522375 C80.0628532,17.7912375 79.6683241,18.4249875 79.6137258,19.6096125 M77.5595568,15.2003625 C77.5640443,15.2011125 77.5685319,15.2014875 77.5730194,15.2018625 C77.8493767,15.1321125 78.088338,14.9393625 78.2947645,14.6573625 C77.9065928,13.6088625 76.9541136,11.7612375 74.8775069,10.9058625 C71.8884349,9.6747375 68.8286842,11.2058625 68.8286842,11.2058625 C68.8286842,11.2058625 70.672313,13.3396125 73.5465789,13.3396125 C76.0812881,13.3396125 77.3052632,14.8444875 77.5595568,15.2003625 M84.2328947,10.9058625 C82.2262188,11.7323625 81.269626,13.4847375 80.8571468,14.5478625 C81.0594598,14.8572375 81.2946814,15.0784875 81.5680471,15.1759875 C81.8567452,14.7814875 83.0818421,13.3396125 85.5634488,13.3396125 C88.4377147,13.3396125 90.2813435,11.2058625 90.2813435,11.2058625 C90.2813435,11.2058625 87.2215928,9.6747375 84.2328947,10.9058625 M82.4087119,18.9788625 C81.4981163,18.1467375 81.2651385,17.3449875 81.2094183,17.0712375 C81.1234072,17.0851125 80.865,17.1424875 80.5796676,17.3491125 C81.0224377,20.7244875 83.1192382,22.0422375 83.1192382,22.0422375 C83.1192382,22.0422375 83.5313435,20.0048625 82.4087119,18.9788625 M82.0871053,12.0064875 C85.0761773,7.5661125 89.6654294,7.1671125 89.6654294,7.1671125 C89.6654294,7.1671125 86.9773961,5.5471125 84.7463435,6.8157375 C82.5152909,8.0843625 82.0616759,12.0439875 82.0871053,12.0064875 M77.0232964,12.0064875 C77.0483518,12.0439875 76.5951108,8.0843625 74.3636842,6.8157375 C72.1326316,5.5471125 69.4445983,7.1671125 69.4445983,7.1671125 C69.4445983,7.1671125 74.0342244,7.5661125 77.0232964,12.0064875 M81.2071745,17.0614875 L81.2071745,17.0607375 C81.2060526,17.0607375 81.2053047,17.0607375 81.2041828,17.0607375 C81.2053047,17.0611125 81.2060526,17.0611125 81.2071745,17.0614875 M78.4110665,14.4837375 C77.769723,12.8727375 76.5917452,9.5603625 76.5917452,6.9676125 C76.5917452,3.4054875 79.5550139,0 79.5550139,0 C79.5550139,0 82.5186565,3.4054875 82.5186565,6.9676125 C82.5186565,9.4981125 81.3967729,12.7129875 80.7464543,14.3641125 C79.6290582,12.3612375 79.6140997,7.5694875 79.6137258,7.3846125 C79.6137258,7.5732375 79.5980194,12.5596125 78.4110665,14.4837375" id="Fill-1" fill="#C23B33"></path>
            <path d="M81.7183795,34.93575 C81.6824792,33.813 80.7692659,32.91375 79.6443906,32.905125 C79.7060942,33.344625 80.0437812,34.839 81.7183795,34.93575 M79.7722853,31.76925 C81.4360388,31.569375 81.6821053,30.0585 81.7176316,29.614875 C80.5931302,29.69325 79.7378809,30.64725 79.7722853,31.76925 M71.6203047,25.905 C71.3428255,25.870875 71.077687,25.935375 70.8402216,26.07075 C70.8147922,26.50725 70.8017036,26.950125 70.7998338,27.400875 C71.357036,26.98575 71.5642105,26.201625 71.6203047,25.905 M79.6155956,32.905125 C78.4895983,32.9145 77.5756371,33.81375 77.5412327,34.93575 C79.2154571,34.839 79.553518,33.344625 79.6155956,32.905125 M81.6869668,28.8855 L81.6963158,28.8855 C81.7112742,28.788 81.7206233,28.689 81.7206233,28.586625 C81.7206233,28.5675 81.7191274,28.550625 81.7183795,28.5315 C79.7547091,28.618875 79.6290582,29.4465 79.6290582,29.4465 C79.6290582,29.4465 79.5037812,28.618875 77.5408587,28.5315 C77.5401108,28.550625 77.537867,28.5675 77.537867,28.586625 C77.537867,28.68975 77.547964,28.79025 77.5629224,28.888125 C78.5737396,28.9635 79.3811219,29.767875 79.6126039,30.736125 C79.8470776,29.75925 80.6649307,28.94925 81.6869668,28.8855 M88.0147645,25.221 C88.0353324,25.06125 88.0413158,24.897 88.0244875,24.72975 C88.0237396,24.711375 88.0192521,24.694875 88.0170083,24.67575 C86.2515374,24.954375 86.2156371,25.760625 86.2156371,25.760625 C86.2156371,25.760625 86.0249169,24.979125 84.2433657,25.090875 C84.2448615,25.11 84.2441136,25.12725 84.2452355,25.144125 C84.2613158,25.294125 84.2901108,25.43775 84.3346122,25.57425 C85.1348892,25.732125 85.8095152,26.401875 86.0619391,27.246 C86.1640305,26.217 86.7769529,25.306875 87.5880748,25.198875 C87.7335457,25.17975 87.8760249,25.189875 88.0147645,25.221 M86.2332133,28.085625 C87.4822438,27.823875 87.6206094,26.34 87.634446,25.907625 C86.7877978,26.02875 86.1718837,26.994 86.2332133,28.085625 M88.0158864,31.08225 C87.8801385,30.007875 86.9721607,29.234625 85.9534903,29.338875 C86.0507202,29.75475 86.4942382,31.1535 88.0158864,31.08225 M86.0088366,28.14375 C86.0073407,28.125375 86.0032271,28.10775 86.0006094,28.089 C84.1704432,28.377 84.1322992,29.214375 84.1322992,29.214375 C84.1322992,29.214375 83.9348476,28.40325 82.0886011,28.519125 C82.0889751,28.537875 82.0889751,28.5555 82.090097,28.573875 C82.1016898,28.6905 82.1248753,28.803 82.1532964,28.91325 C83.0463158,29.061 83.7890028,29.780625 84.0365651,30.6705 C84.1577285,29.6505 84.8963019,28.74825 85.8723407,28.641375 C85.9153463,28.63725 85.9579778,28.63725 86.0006094,28.634625 C86.0208033,28.476 86.0256648,28.31175 86.0088366,28.14375 M85.927313,29.342625 C84.9105125,29.461875 84.1696953,30.41625 84.2429917,31.49625 C85.7459418,31.236 85.9123546,29.76975 85.927313,29.342625 M85.9994875,34.494375 C85.8585042,33.381 84.9168698,32.578875 83.8611773,32.686875 C83.9613989,33.117 84.4221191,34.569 85.9994875,34.494375 M84.2429917,18.658125 C84.6999723,18.578625 85.030928,18.386625 85.2740028,18.14775 C85.0238227,17.934375 84.7549446,17.73825 84.4688643,17.560875 C84.3035734,17.887875 84.2160665,18.262125 84.2429917,18.658125 M71.6872438,25.198875 C72.4983657,25.306875 73.1112881,26.217 73.2133795,27.246 C73.459446,26.421 74.1112604,25.759875 74.8883518,25.585125 C74.9324792,25.444125 74.9642659,25.297875 74.9792244,25.144125 C74.9810942,25.12725 74.9807202,25.11 74.9810942,25.090875 C73.2006648,24.979125 73.0091967,25.760625 73.0091967,25.760625 C73.0091967,25.760625 72.9740443,24.954375 71.2081994,24.67575 C71.2059557,24.694875 71.2018421,24.711375 71.2003463,24.72975 C71.183518,24.901875 71.1898753,25.06875 71.2130609,25.2315 C71.366385,25.191375 71.5245706,25.1775 71.6872438,25.198875 M86.2156371,19.338375 C86.2156371,19.338375 86.0249169,18.5565 84.2433657,18.667875 C84.2448615,18.685875 84.2441136,18.7035 84.2452355,18.721125 C84.2613158,18.87075 84.2901108,19.014375 84.3346122,19.151625 C85.1348892,19.3095 85.8095152,19.978875 86.0619391,20.823 C86.1098061,20.338875 86.2758449,19.887375 86.5174238,19.52775 C86.4351524,19.409625 86.351385,19.29375 86.2638781,19.18125 C86.2234903,19.274625 86.2156371,19.338375 86.2156371,19.338375 M87.2743213,20.881125 C87.1303463,20.557125 86.9684211,20.2485 86.7919114,19.954875 C86.4179501,20.362125 86.1950693,20.988 86.2332133,21.663375 C86.7447922,21.555375 87.0682687,21.241875 87.2743213,20.881125 M73.3517452,28.641375 C74.3296537,28.74825 75.0674792,29.65125 75.1886427,30.67125 C75.4403186,29.763375 76.2080609,29.03025 77.1253878,28.902375 C77.1519391,28.796625 77.1747507,28.687125 77.1848476,28.573875 C77.1867175,28.5555 77.1863435,28.537875 77.1870914,28.519125 C75.340097,28.40325 75.1426454,29.214375 75.1426454,29.214375 C75.1426454,29.214375 75.1052493,28.377 73.2747091,28.089 C73.2728393,28.10775 73.2676039,28.125375 73.2676039,28.14375 C73.2504017,28.3125 73.2541413,28.477125 73.2747091,28.638 C73.3012604,28.63875 73.3263158,28.638 73.3517452,28.641375 M74.98259,31.49625 C75.0543906,30.41625 74.3146953,29.461875 73.2975208,29.342625 C73.3128532,29.76975 73.478892,31.236 74.98259,31.49625 M73.2765789,34.494375 C74.8535734,34.569 75.3139197,33.117 75.4137673,32.686875 C74.3588227,32.578875 73.4164404,33.381 73.2765789,34.494375 M73.0424792,28.085625 C73.1038089,26.994 72.4871468,26.02875 71.6416205,25.907625 C71.6547091,26.34 71.7934488,27.823875 73.0424792,28.085625 M77.5083241,29.614875 C77.5434765,30.0585 77.789169,31.569375 79.4532964,31.76925 C79.4877008,30.64725 78.6320776,29.69325 77.5083241,29.614875 M71.2096953,31.08225 C72.7309695,31.1535 73.1748615,29.75475 73.2713435,29.338875 C72.2530471,29.234625 71.3458172,30.007875 71.2096953,31.08225 M71.6416205,32.323125 C71.6446122,32.417625 71.6535873,32.563875 71.6797645,32.7345 C71.8562742,33.211125 72.0574654,33.66375 72.2840859,34.095375 C72.475928,34.285125 72.7219945,34.43475 73.0424792,34.5015 C73.1038089,33.408 72.4871468,32.444625 71.6416205,32.323125 M86.0006094,34.504125 C84.1704432,34.792125 84.1322992,35.629875 84.1322992,35.629875 C84.1322992,35.629875 83.9348476,34.817625 82.0886011,34.9335 C82.0889751,34.953 82.0889751,34.970625 82.090097,34.989 C82.1020637,35.109375 82.1252493,35.22375 82.1559141,35.335875 C83.0481856,35.4855 83.7890028,36.20475 84.0365651,37.09425 C84.1577285,36.073125 84.8963019,35.17125 85.8723407,35.065125 C85.9153463,35.06025 85.9572299,35.06025 85.9994875,35.05875 C86.0208033,34.896 86.0260388,34.7295 86.0088366,34.558875 C86.0073407,34.53975 86.0032271,34.5225 86.0006094,34.504125 M72.9497368,28.644375 C72.9949861,28.48875 73.0263989,28.32375 73.0402355,28.150125 C73.0421053,28.13325 73.0421053,28.115625 73.0421053,28.096875 C71.5608449,27.9825 71.4019114,28.77525 71.4019114,28.77525 C71.4019114,28.77525 71.3828393,28.342875 70.8058172,27.998625 C70.8304986,28.88625 70.9239889,29.74725 71.0810526,30.569625 C71.2504571,29.574375 72.0286704,28.754625 72.9497368,28.644375 M81.7456787,36.036375 C81.8227147,36.408375 82.1499307,37.533 83.2908864,37.84875 C83.4860942,37.74975 83.6756925,37.641 83.8604294,37.524375 C83.5885596,36.61875 82.7280748,35.982375 81.7456787,36.036375 M86.2332133,34.512 C86.2343352,34.529625 86.2339612,34.547625 86.2350831,34.566 C86.2500416,34.74525 86.2836981,34.914375 86.3308172,35.07525 C86.3405402,35.076 86.3498892,35.080875 86.3592382,35.082375 C86.4848892,34.8975 86.6041828,34.7055 86.717867,34.509375 C86.5750139,34.49925 86.4149584,34.49775 86.2332133,34.512 M87.8730332,28.77525 C87.8730332,28.77525 87.7148476,27.9825 86.2332133,28.096875 C86.2343352,28.115625 86.2339612,28.13325 86.2350831,28.150125 C86.2500416,28.326 86.2825762,28.492875 86.3278255,28.65225 C87.2320637,28.7865 87.9878393,29.604375 88.1467729,30.5895 C88.3049584,29.7705 88.3995706,28.914375 88.424626,28.029375 C87.8954709,28.36725 87.8730332,28.77525 87.8730332,28.77525 M79.6290582,35.86275 C79.6290582,35.86275 79.5037812,35.034 77.5408587,34.94775 C77.5401108,34.96575 77.537867,34.984125 77.537867,35.00325 C77.537867,35.107125 77.547964,35.21175 77.5644183,35.312625 C78.5737396,35.38725 79.3811219,36.192 79.6126039,37.16025 C79.8470776,36.18225 80.6649307,35.37225 81.6869668,35.309625 C81.6907064,35.308875 81.6929501,35.309625 81.6951939,35.308875 C81.7105263,35.21025 81.7206233,35.107125 81.7206233,35.00325 C81.7206233,34.984125 81.7191274,34.96575 81.7183795,34.94775 C79.7547091,35.034 79.6290582,35.86275 79.6290582,35.86275 M87.6553878,25.905 C87.711108,26.1945 87.9070637,26.94675 88.4321053,27.369375 C88.4294875,26.920875 88.4160249,26.478 88.3905956,26.0445 C88.164723,25.925625 87.9145429,25.872375 87.6553878,25.905 M87.6722161,32.402625 C87.682313,32.374125 87.6901662,32.347875 87.6991413,32.319375 C87.6845568,32.320875 87.6692244,32.318625 87.6553878,32.320125 C87.6602493,32.344875 87.6654848,32.371875 87.6722161,32.402625 M86.2332133,34.5015 C86.5118144,34.44225 86.7320776,34.323 86.9115789,34.167375 C87.1823269,33.660375 87.4186704,33.1185 87.6191136,32.551125 C87.6273407,32.459625 87.6329501,32.38125 87.634446,32.323125 C86.7877978,32.444625 86.1718837,33.408 86.2332133,34.5015 M88.0170083,31.092375 C86.2515374,31.36875 86.2156371,32.17725 86.2156371,32.17725 C86.2156371,32.17725 86.0249169,31.395 84.2433657,31.50675 C84.2448615,31.523625 84.2441136,31.541625 84.2452355,31.56 C84.2613158,31.70925 84.2901108,31.852125 84.3346122,31.990125 C85.1348892,32.14725 85.8095152,32.8185 86.0619391,33.6615 C86.1640305,32.631375 86.7769529,31.7235 87.5880748,31.614 C87.6968975,31.59975 87.8034765,31.60575 87.9085596,31.621125 C87.9493213,31.4685 87.9885873,31.31475 88.0248615,31.159125 C88.0244875,31.155 88.0248615,31.1505 88.0244875,31.144875 C88.0237396,31.12725 88.0192521,31.1085 88.0170083,31.092375 M84.3162881,37.21725 C84.8753601,36.81075 85.3820776,36.3315 85.8338227,35.78625 C85.0922576,35.913375 84.5144875,36.484875 84.3162881,37.21725 M88.0158864,24.666375 C87.8801385,23.592375 86.9721607,22.819875 85.9534903,22.92525 C86.0507202,23.33925 86.4942382,24.739125 88.0158864,24.666375 M73.3999861,35.787 C73.8476177,36.3285 74.3509695,36.80475 74.9044321,37.209375 C74.7058587,36.483375 74.134446,35.91675 73.3999861,35.787 M74.8883518,31.9995 C74.9324792,31.86075 74.9642659,31.71225 74.9792244,31.56 C74.9810942,31.541625 74.9807202,31.523625 74.9810942,31.50675 C73.2006648,31.395 73.0091967,32.17725 73.0091967,32.17725 C73.0091967,32.17725 72.9740443,31.36875 71.2081994,31.092375 C71.2063296,31.107 71.202964,31.122 71.2018421,31.13625 C71.2399861,31.3035 71.2811219,31.4655 71.3256233,31.6275 C71.444169,31.607625 71.5645845,31.597875 71.6872438,31.614 C72.4983657,31.7235 73.1112881,32.631375 73.2133795,33.6615 C73.459446,32.836125 74.1112604,32.17575 74.8883518,31.9995 M71.5859003,32.47425 C71.6001108,32.416125 71.6120776,32.362875 71.6203047,32.320125 C71.5903878,32.31675 71.560097,32.31525 71.530928,32.31375 C71.5485042,32.3685 71.5672022,32.42175 71.5859003,32.47425 M72.5148199,34.51125 C72.6292521,34.70775 72.7477978,34.89825 72.8730748,35.082375 C72.8981302,35.077125 72.9216898,35.07 72.9474931,35.066625 C72.9934903,34.90875 73.0263989,34.74225 73.0402355,34.566 C73.0421053,34.547625 73.0421053,34.529625 73.0421053,34.512 C72.8439058,34.497 72.668892,34.49775 72.5148199,34.51125 M79.7730332,38.20425 C79.7730332,38.223375 79.7715374,38.24025 79.7730332,38.259 C79.7801385,38.3805 79.8007064,38.496375 79.8280055,38.61075 C79.9536565,38.6235 80.0751939,38.647125 80.1941136,38.6805 C80.6282825,38.6535 81.0445014,38.593875 81.4476316,38.505 C81.1364958,38.335125 80.6249169,38.1885 79.7730332,38.20425 M77.5083241,36.039375 C77.5434765,36.48 77.789169,37.992375 79.4532964,38.192625 C79.4877008,37.070625 78.6320776,36.115125 77.5083241,36.039375 M79.7722853,38.192625 C81.4360388,37.992375 81.6821053,36.48 81.7176316,36.039375 C80.5931302,36.115125 79.7378809,37.070625 79.7722853,38.192625 M77.1227701,35.325375 C77.1504432,35.217375 77.1736288,35.105625 77.1848476,34.989 C77.1867175,34.970625 77.1863435,34.953 77.1870914,34.9335 C75.340097,34.817625 75.1426454,35.629875 75.1426454,35.629875 C75.1426454,35.629875 75.1052493,34.792125 73.2747091,34.504125 C73.2728393,34.5225 73.2676039,34.53975 73.2676039,34.558875 C73.2504017,34.73025 73.2545152,34.89825 73.2765789,35.06025 C73.3023823,35.06175 73.3266898,35.061 73.3517452,35.065125 C74.3296537,35.17125 75.0674792,36.074625 75.1886427,37.09425 C75.4403186,36.187875 76.2065651,35.4555 77.1227701,35.325375 M75.3670222,37.522875 C75.552133,37.63875 75.7424792,37.7475 75.9391828,37.84875 C77.0767729,37.53075 77.403241,36.408375 77.479903,36.036375 C76.4982548,35.982375 75.6400139,36.61725 75.3670222,37.522875 M77.7809418,38.50425 C78.1904294,38.59425 78.6145014,38.65575 79.0550277,38.683125 C79.1668421,38.6505 79.2801524,38.62575 79.3972022,38.613 C79.4252493,38.498625 79.4458172,38.382 79.4529224,38.259 C79.4540443,38.24025 79.4529224,38.223375 79.4532964,38.20425 C78.6021607,38.1885 78.0902078,38.334375 77.7809418,38.50425 M76.7600277,22.117125 C76.8576316,22.14825 77.075651,22.093125 77.1867175,22.112625 C77.1956925,21.979875 77.1941967,21.82275 77.1803601,21.694875 C77.0734072,21.813375 76.8546399,22.02675 76.7600277,22.117125 M83.3514681,19.975125 C83.4692659,20.3325 83.5227424,20.6985 83.5406925,21.03 C83.7789058,20.562 83.8260249,20.073 83.8338781,19.85175 C83.6648476,19.871625 83.5032964,19.914 83.3514681,19.975125 M75.4410665,26.27475 C75.4575208,26.718375 75.6295429,28.23825 77.1885873,28.507875 C77.2637535,27.388125 76.4956371,26.39925 75.4410665,26.27475 M75.2851247,25.0972661 C76.9619668,25.102875 77.3901524,23.632875 77.479903,23.19825 C76.3550277,23.137125 75.388338,23.97825 75.2851247,25.0972661 M79.3972022,25.774875 C79.4252493,25.659 79.4458172,25.541625 79.4529224,25.421625 C79.4540443,25.4025 79.4529224,25.38375 79.4532964,25.365375 C77.4888781,25.32975 77.3119945,26.15025 77.3119945,26.15025 C77.3119945,26.15025 77.2383241,25.31475 75.2836288,25.108125 C75.2828809,25.12725 75.2787673,25.144125 75.2776454,25.164375 C75.2701662,25.29 75.2768975,25.41525 75.291482,25.53825 C75.3606648,25.5375 75.4279778,25.540125 75.4979086,25.54725 C76.5113435,25.659 77.2768421,26.594625 77.4021191,27.6525 C77.6216343,26.6865 78.4181717,25.885125 79.3972022,25.774875 M81.9663158,17.425875 C82.2370637,17.998125 82.7983795,18.678 83.9400831,18.6735 C83.8712742,17.92425 83.4116759,17.3025 82.7778116,16.991625 C82.7119945,17.004 82.6465512,17.01675 82.5803601,17.02875 C82.5766205,17.0745 82.5732548,17.115375 82.5732548,17.115375 C82.5732548,17.115375 82.4161911,17.355 81.9663158,17.425875 M75.4410665,19.85175 C75.4489197,20.0565 75.4896814,20.49075 75.6848892,20.925375 C75.7084488,20.616375 75.764169,20.282625 75.8741136,19.956375 C75.7368698,19.905375 75.5921468,19.869375 75.4410665,19.85175 M86.0088366,21.720375 C86.0073407,21.701625 86.0032271,21.684 86.0006094,21.665625 C84.1704432,21.95325 84.1322992,22.791 84.1322992,22.791 C84.1322992,22.791 84.04741,22.442625 83.4700139,22.23525 C83.468892,22.242 83.4677701,22.246875 83.4673961,22.249875 L83.3641828,22.76025 L82.9240305,22.4835 C82.8978532,22.467 82.7007756,22.339125 82.4236704,22.084875 C82.3182133,22.08525 82.2067729,22.088625 82.0886011,22.0965 C82.0889751,22.114125 82.0889751,22.13175 82.090097,22.1505 C82.1020637,22.27125 82.1252493,22.384875 82.1559141,22.497375 C83.0481856,22.646625 83.7890028,23.36625 84.0365651,24.254625 C84.1577285,23.235375 84.8963019,22.333125 85.8723407,22.225125 C85.9153463,22.219875 85.9572299,22.219875 85.9994875,22.219125 C86.0208033,22.057875 86.0260388,21.891375 86.0088366,21.720375 M81.7202493,22.1505 C81.7056648,21.697875 81.5471053,21.229875 81.2913158,20.8935 C81.2886981,21.28275 81.173144,21.8295 81.0762881,22.171125 C81.2516759,22.225875 81.501856,22.13775 81.7202493,22.1505 M75.1886427,17.833125 C75.2552078,17.593875 75.3602909,17.371125 75.4908033,17.164875 C75.3520637,17.23125 75.2159418,17.301 75.0839335,17.371875 C75.1306787,17.521875 75.1695706,17.675625 75.1886427,17.833125 M73.2765789,21.65625 C74.8535734,21.731625 75.3139197,20.279625 75.4137673,19.849125 C74.3588227,19.74 73.4164404,20.542125 73.2765789,21.65625 M79.3972022,32.19 C79.4252493,32.074875 79.4458172,31.95675 79.4529224,31.836 C79.4540443,31.816125 79.4529224,31.798875 79.4532964,31.7805 C77.4888781,31.745625 77.3119945,32.565375 77.3119945,32.565375 C77.3119945,32.565375 77.2383241,31.729125 75.2836288,31.52175 C75.2828809,31.540875 75.2787673,31.55925 75.2776454,31.578 C75.2701662,31.706625 75.2768975,31.829625 75.291482,31.952625 C75.3606648,31.952625 75.4279778,31.95525 75.4979086,31.962375 C76.5113435,32.074125 77.2768421,33.00975 77.4021191,34.067625 C77.6216343,33.101625 78.4181717,32.30025 79.3972022,32.19 M78.1440582,22.174875 C78.0498199,21.845625 77.9365097,21.320625 77.9290305,20.946375 C77.6964266,21.273 77.4604571,21.903 77.5644183,22.473 C77.7671053,22.461375 77.9787673,22.22325 78.1440582,22.174875 M82.0874792,34.92375 C83.6457756,34.653375 83.8181717,33.1335 83.8338781,32.689875 C82.7796814,32.814375 82.0111911,33.804 82.0874792,34.92375 M88.3393629,25.3425 C88.2354017,24.18225 88.0383241,23.08875 87.7271884,22.087125 C87.5420776,21.868875 87.1314681,21.6045 86.2332133,21.673875 C86.2343352,21.692625 86.2339612,21.7095 86.2350831,21.727125 C86.2500416,21.906375 86.2836981,22.07625 86.3308172,22.236375 C87.2799307,22.38 88.0656233,23.274375 88.1680886,24.326625 C88.1987535,24.643875 88.1606094,24.9495 88.0727285,25.23375 C88.1654709,25.25925 88.2540997,25.297125 88.3393629,25.3425 M83.9483102,31.578 C83.9471884,31.55925 83.9430748,31.540875 83.941205,31.52175 C81.9865097,31.729125 81.9128393,32.565375 81.9128393,32.565375 C81.9128393,32.565375 81.7359557,31.745625 79.7730332,31.7805 C79.7730332,31.798875 79.7715374,31.816125 79.7730332,31.836 C79.7801385,31.95675 79.8007064,32.073375 79.8280055,32.18775 C80.8365789,32.2845 81.6581717,33.114375 81.86759,34.110375 C81.9767867,33.03525 82.7505125,32.076375 83.7777839,31.962375 C83.8297645,31.95675 83.8813712,31.956 83.9333518,31.95525 C83.9483102,31.831875 83.9557895,31.707375 83.9483102,31.578 M75.4410665,32.689875 C75.4575208,33.1335 75.6295429,34.653375 77.1885873,34.92375 C77.2637535,33.804 76.4956371,32.814375 75.4410665,32.689875 M81.7456787,29.614125 C81.8354294,30.048375 82.263615,31.518 83.9400831,31.5131371 C83.8372438,30.394125 82.8701801,29.5515 81.7456787,29.614125 M83.9483102,25.164375 C83.9471884,25.144125 83.9430748,25.12725 83.941205,25.108125 C81.9865097,25.31475 81.9128393,26.15025 81.9128393,26.15025 C81.9128393,26.15025 81.7359557,25.32975 79.7730332,25.365375 C79.7730332,25.38375 79.7715374,25.4025 79.7730332,25.421625 C79.7801385,25.541625 79.8007064,25.65825 79.8280055,25.772625 C80.8365789,25.869375 81.6581717,26.6985 81.86759,27.69525 C81.9767867,26.620125 82.7505125,25.6605 83.7777839,25.54725 C83.8297645,25.541625 83.8813712,25.540875 83.9333518,25.540125 C83.9483102,25.416375 83.9557895,25.29075 83.9483102,25.164375 M75.2851247,31.5131371 C76.9619668,31.518 77.3901524,30.048375 77.479903,29.614125 C76.3550277,29.5515 75.388338,30.394125 75.2851247,31.5131371 M83.8338781,26.27475 C82.7796814,26.39925 82.0111911,27.388125 82.0874792,28.507875 C83.6457756,28.23825 83.8181717,26.718375 83.8338781,26.27475 M72.9474931,22.2285 C72.9934903,22.069875 73.0263989,21.90375 73.0402355,21.727125 C73.0421053,21.7095 73.0421053,21.692625 73.0421053,21.673875 C71.9830471,21.592875 71.6016066,21.97275 71.4692244,22.198125 C71.1752909,23.175 70.9894321,24.2415 70.8899584,25.368375 C70.9759695,25.3185 71.0634765,25.275 71.1558449,25.2465 C71.0657202,24.9585 71.0264543,24.64725 71.0574931,24.326625 C71.1610803,23.25525 71.974446,22.345875 72.9474931,22.2285 M76.1684211,19.332375 C76.2533102,19.1985 76.35241,19.070625 76.4668421,18.951375 C76.1803878,18.837 75.7974515,18.739125 75.2836288,18.685125 C75.2828809,18.7035 75.2787673,18.721125 75.2776454,18.739125 C75.2701662,18.8685 75.2768975,18.9915 75.291482,19.1145 C75.3606648,19.11375 75.4279778,19.11675 75.4979086,19.124625 C75.7368698,19.150875 75.9619945,19.22325 76.1684211,19.332375 M73.3517452,22.225125 C74.3296537,22.333125 75.0674792,23.236125 75.1886427,24.255375 C75.4403186,23.349 76.2065651,22.617375 77.1227701,22.488 C77.1504432,22.37925 77.1736288,22.2675 77.1848476,22.1505 C77.1867175,22.13175 77.1863435,22.114125 77.1870914,22.0965 C77.046482,22.0875 76.9167175,22.0845 76.7948061,22.085625 C76.5180748,22.3395 76.3213712,22.467 76.2951939,22.4835 L75.8550416,22.76025 L75.7529501,22.255125 C75.2230471,22.464375 75.1426454,22.791 75.1426454,22.791 C75.1426454,22.791 75.1052493,21.95325 73.2747091,21.665625 C73.2728393,21.684 73.2676039,21.701625 73.2676039,21.720375 C73.2504017,21.891375 73.2545152,22.058625 73.2765789,22.222125 C73.3023823,22.223625 73.3266898,22.222875 73.3517452,22.225125 M71.2096953,24.666375 C72.7309695,24.739125 73.1748615,23.33925 73.2713435,22.92525 C72.2530471,22.819875 71.3458172,23.592375 71.2096953,24.666375 M71.9763158,20.8365 C72.1816205,21.216 72.5095845,21.550125 73.0424792,21.663375 C73.0809972,20.9715 72.8468975,20.334 72.456108,19.927125 C72.2814681,20.216625 72.1202909,20.51925 71.9763158,20.8365 M74.98259,25.080375 C75.0543906,24.000375 74.3146953,23.046375 73.2975208,22.9275 C73.3128532,23.354625 73.478892,24.820125 74.98259,25.080375 M77.537867,22.164 C77.537867,22.269 77.547964,22.372125 77.5644183,22.473 C77.8433934,22.494 78.1062881,22.572375 78.3467452,22.69275 C78.271205,22.526625 78.2012742,22.35075 78.1406925,22.16475 C77.962687,22.138125 77.7641136,22.11825 77.5408587,22.1085 C77.5401108,22.126875 77.537867,22.146 77.537867,22.164 M85.9994875,28.0785 C85.8585042,26.965875 84.9168698,26.16375 83.8611773,26.271 C83.9613989,26.702625 84.4221191,28.153125 85.9994875,28.0785 M73.0091967,19.338375 C73.0091967,19.338375 73.0017175,19.27725 72.9646953,19.18575 C72.8861634,19.287375 72.8095014,19.392375 72.7369529,19.497 C72.9901247,19.86225 73.1643906,20.325375 73.2133795,20.823 C73.459446,19.998375 74.1112604,19.338375 74.8883518,19.161375 C74.9324792,19.021875 74.9642659,18.874125 74.9792244,18.721125 C74.9810942,18.7035 74.9807202,18.685875 74.9810942,18.667875 C73.2006648,18.5565 73.0091967,19.338375 73.0091967,19.338375 M79.6155956,26.49075 C78.4895983,26.497875 77.5756371,27.398625 77.5412327,28.521375 C79.2154571,28.423125 79.553518,26.9295 79.6155956,26.49075 M81.7183795,28.521375 C81.6824792,27.398625 80.7692659,26.497875 79.6443906,26.49075 C79.7060942,26.9295 80.0437812,28.424625 81.7183795,28.521375 M73.2765789,28.0785 C74.8535734,28.153125 75.3139197,26.702625 75.4137673,26.271 C74.3588227,26.16375 73.4164404,26.965875 73.2765789,28.0785 M85.927313,22.9275 C84.9105125,23.046375 84.1696953,24.000375 84.2429917,25.080375 C85.7459418,24.820125 85.9123546,23.354625 85.927313,22.9275 M83.9400831,25.0972661 C83.8372438,23.97825 82.8701801,23.137125 81.7456787,23.19825 C81.8354294,23.632875 82.263615,25.102875 83.9400831,25.0972661 M79.7722853,25.354875 C81.4360388,25.1535 81.6821053,23.642625 81.7176316,23.19975 C80.5931302,23.277375 79.7378809,24.231375 79.7722853,25.354875 M81.7183795,22.1085 C81.4775485,22.119 81.2651385,22.14075 81.0762881,22.171125 C81.0160803,22.355625 80.9461496,22.53075 80.8709834,22.69575 C81.1207895,22.569375 81.394903,22.48875 81.6869668,22.470375 L81.6951939,22.470375 C81.7105263,22.369875 81.7206233,22.269 81.7206233,22.164 C81.7206233,22.146 81.7191274,22.126875 81.7183795,22.1085 M74.7585873,17.563875 C74.471385,17.741625 74.2040028,17.93775 73.9534488,18.151125 C74.1961496,18.3885 74.5267313,18.578625 74.98259,18.658125 C75.0091413,18.262875 74.9216343,17.889375 74.7585873,17.563875 M82.090097,21.7515 C82.0811219,21.861 82.0818698,22.024125 82.089723,22.137 C82.1843352,22.1205 82.3559834,22.12575 82.4408726,22.100625 C82.3574792,22.0215 82.1835873,21.85275 82.090097,21.7515 M79.4532964,25.354875 C79.4877008,24.231375 78.6320776,23.277375 77.5083241,23.19975 C77.5434765,23.642625 77.789169,25.1535 79.4532964,25.354875 M84.0365651,17.83275 C84.0556371,17.674125 84.0941551,17.520375 84.1416482,17.368875 C84.0092659,17.2965 83.873144,17.2275 83.7329086,17.1615 C83.8645429,17.36775 83.970374,17.592375 84.0365651,17.83275 M83.9483102,18.739125 C83.9471884,18.721125 83.9430748,18.7035 83.941205,18.685125 C83.4247645,18.7395 83.0407064,18.83775 82.7538781,18.95325 C82.8742936,19.078125 82.976385,19.2135 83.0646399,19.354875 C83.2822853,19.233 83.5219945,19.15275 83.7777839,19.124625 C83.8297645,19.119375 83.8813712,19.11825 83.9333518,19.11675 C83.9483102,18.993 83.9557895,18.8685 83.9483102,18.739125 M85.9994875,21.65625 C85.8585042,20.542125 84.9168698,19.74 83.8611773,19.849125 C83.9613989,20.279625 84.4221191,21.731625 85.9994875,21.65625 M76.4148615,17.00775 C76.4627285,17.01675 76.5102216,17.02575 76.5580886,17.034375 C76.7245014,17.147625 76.960097,17.289 77.258892,17.427375 C76.9877701,17.998875 76.4268283,18.678 75.2851247,18.6735 C75.3539335,17.937 75.7989474,17.325375 76.4148615,17.00775" id="Fill-3" fill="#9F902A"></path>
            <path d="M64.2244737,33.9089625 L64.2244737,32.5608375 L59.506205,32.5608375 L59.506205,27.9895875 L63.6171607,27.9895875 L63.6171607,26.6583375 L59.506205,26.6583375 L59.506205,23.1142125 L64.048338,23.1142125 L64.048338,21.7657125 L58.0657064,21.7657125 L58.0657064,33.9089625 L64.2244737,33.9089625 Z M53.8676177,33.9029625 C54.5568283,33.7679625 55.1274931,33.5710875 55.5631579,33.3183375 L55.8238089,33.1668375 L55.3298061,32.0422125 L55.0250277,32.1697125 C54.154446,32.5353375 53.0998753,32.7209625 51.8916066,32.7209625 C50.5315097,32.7209625 49.3976593,32.2522125 48.4249861,31.2869625 C47.4538089,30.3228375 46.9814958,29.1869625 46.9814958,27.8133375 C46.9814958,26.4502125 47.3999584,25.2839625 48.2252909,24.3475875 C49.0502493,23.4093375 50.0876177,22.9537125 51.3957341,22.9537125 C52.5310803,22.9537125 53.7367313,23.1430875 54.9786565,23.5165875 L55.2939058,23.6114625 L55.7060111,22.3353375 L55.3862742,22.2310875 C54.0467452,21.7945875 52.7045983,21.5733375 51.3957341,21.5733375 C49.6747645,21.5733375 48.2402493,22.1845875 47.1333241,23.3902125 C46.034626,24.5887125 45.4770499,26.0845875 45.4770499,27.8377125 C45.4770499,29.5983375 46.1146537,31.0998375 47.3730332,32.3002125 C48.6265512,33.4953375 50.1467036,34.1013375 51.8916066,34.1013375 C52.5303324,34.1013375 53.1948615,34.0345875 53.8676177,33.9029625 Z M41.078518,33.9089625 L42.5193906,33.9089625 L42.5193906,21.7657125 L41.078518,21.7657125 L41.078518,33.9089625 Z M35.4458019,24.3404625 C36.2753601,25.2727125 36.6960665,26.4468375 36.6960665,27.8290875 C36.6960665,29.2120875 36.2753601,30.3892125 35.445054,31.3270875 C34.6137382,32.2645875 33.5655249,32.7209625 32.2413283,32.7209625 C30.9167576,32.7209625 29.8692922,32.2645875 29.0379765,31.3270875 C28.2077825,30.3899625 27.7870762,29.2124625 27.7870762,27.8290875 C27.7870762,26.4457125 28.2051648,25.2715875 29.0301233,24.3397125 C29.8554557,23.4070875 30.9029211,22.9537125 32.2331011,22.9537125 C33.5636551,22.9537125 34.6144861,23.4070875 35.4458019,24.3404625 Z M36.5094598,32.2784625 C37.6313435,31.0747125 38.1997645,29.5780875 38.1997645,27.8290875 C38.1997645,26.0808375 37.6313435,24.5864625 36.5090859,23.3875875 C35.3814806,22.1838375 33.9424778,21.5733375 32.2331011,21.5733375 C30.5233504,21.5733375 29.0873393,22.1838375 27.9650817,23.3883375 C26.8484335,24.5864625 26.2826302,26.0808375 26.2826302,27.8290875 C26.2826302,29.5773375 26.8484335,31.0739625 27.9643338,32.2777125 C29.0865914,33.4874625 30.5226025,34.1013375 32.2331011,34.1013375 C33.9439737,34.1013375 35.3826025,33.4882125 36.5094598,32.2784625 Z M23.4042507,33.9089625 L23.4042507,21.7657125 L21.964126,21.7657125 L21.964126,26.8023375 L14.7833227,26.8023375 L14.7833227,21.7657125 L13.3424501,21.7657125 L13.3424501,33.9089625 L14.7833227,33.9089625 L14.7833227,28.1662125 L21.964126,28.1662125 L21.964126,33.9089625 L23.4042507,33.9089625 Z M6.60815651,34.1013375 C4.86325346,34.1013375 3.34310111,33.4953375 2.0895831,32.3002125 C0.831577562,31.1005875 0.193599723,29.5990875 0.193599723,27.8377125 C0.193599723,26.0842125 0.750801939,24.5879625 1.84987396,23.3902125 C2.95605125,22.1845875 4.39056648,21.5733375 6.11228393,21.5733375 C7.42077424,21.5733375 8.76366898,21.7945875 10.1024501,22.2310875 L10.421813,22.3353375 L10.0093338,23.6114625 L9.69408449,23.5165875 C8.45328116,23.1430875 7.24800416,22.9537125 6.11228393,22.9537125 C4.80416759,22.9537125 3.76679917,23.4093375 2.9410928,24.3475875 C2.11613435,25.2839625 1.69767175,26.4502125 1.69767175,27.8133375 C1.69767175,29.1869625 2.16998476,30.3228375 3.14153601,31.2869625 C4.11383518,32.2522125 5.2476856,32.7209625 6.60815651,32.7209625 C7.81642521,32.7209625 8.87062188,32.5353375 9.74082964,32.1697125 L10.0452341,32.0422125 L10.5407327,33.1675875 L10.2793338,33.3183375 C9.84329501,33.5710875 9.27263019,33.7679625 8.58379363,33.9029625 C7.91178532,34.0345875 7.24688227,34.1013375 6.60815651,34.1013375 Z" id="Fill-4" fill="#C23B33"></path>
            <path d="M134.819751,33.9089625 L134.819751,32.5608375 L130.101482,32.5608375 L130.101482,27.9895875 L134.212438,27.9895875 L134.212438,26.6583375 L130.101482,26.6583375 L130.101482,23.1142125 L134.643615,23.1142125 L134.643615,21.7657125 L128.660983,21.7657125 L128.660983,33.9089625 L134.819751,33.9089625 Z M126.870083,33.9089625 L126.870083,32.5285875 L121.608075,32.5285875 L121.608075,21.7657125 L120.167576,21.7657125 L120.167576,33.9089625 L126.870083,33.9089625 Z M114.505429,33.9089625 L114.505429,23.1142125 L118.376676,23.1142125 L118.376676,21.7657125 L109.194432,21.7657125 L109.194432,23.1142125 L113.065679,23.1142125 L113.065679,33.9089625 L114.505429,33.9089625 Z M105.963407,33.9089625 L107.40428,33.9089625 L107.40428,21.7657125 L105.963407,21.7657125 L105.963407,33.9089625 Z M98.8618837,33.9089625 L98.8618837,23.1142125 L94.9906371,23.1142125 L94.9906371,21.7657125 L104.172881,21.7657125 L104.172881,23.1142125 L100.301634,23.1142125 L100.301634,33.9089625 L98.8618837,33.9089625 Z" id="Fill-5" fill="#C23B33"></path>
        </g>
    </g>
</svg>