<?xml version="1.0" encoding="UTF-8"?>
<svg width="160px" height="90px" viewBox="0 0 160 90" version="1.1" xmlns="http://www.w3.org/2000/svg" xmlns:xlink="http://www.w3.org/1999/xlink">
    <!-- Generator: Sketch 49.3 (51167) - http://www.bohemiancoding.com/sketch -->
    <title>Crossroads Community Church logo designed by Isral Duke</title>
    <desc>Created with Sketch.</desc>
    <defs></defs>
    <g id="Crossroads-Community-Church-logo-designed-by-Isral-Duke" stroke="none" stroke-width="1" fill="none" fill-rule="evenodd">
        <path d="M132.342955,34.4546113 L127.536336,38.7933812 L118.657031,34.4546113 L118.657031,34 L127.536336,38.3387699 L132.342955,34 L132.342955,34.4546113 Z M143,45.8944705 L143,46.3491195 L137.536072,43.6794926 L137.536072,43.2248436 L143,45.8944705 Z M127.138195,61 L139.331465,60.9999961 C141.772147,61.0029716 142.995117,59.319855 143,56.8606224 L127.138195,60.5454224 L127.138195,61 Z M116,48.7517046 L121.577361,43.7170065 L121.577361,44.1716178 L116,49.2063159 L116,48.7517046 Z" id="Fill-1" fill="#5090CC"></path>
        <path d="M116.00008,57.0986897 L142,29 L119.828786,60.9999883 C117.264454,61.0045078 115.988345,59.7038174 116.00008,57.0986897 Z" id="Fill-2" fill="#5090CC"></path>
        <path d="M132.342955,34 L127.536336,38.4130684 L118.657031,34 L132.342955,34 Z M116,40.1355039 L121.577361,43.8834036 L116,49.0043175 L116,40.1355039 Z M127.138195,61 L139.331465,60.9999947 C141.772147,61.0029828 142.995117,59.7534403 143,57.252095 L133.039327,51.0020838 L127.138195,61 Z M142.837363,34.4002965 C142.939903,34.5514276 143,34.7347388 143,34.9322628 L143,46.0981552 L137.536072,43.3828128 L142.837363,34.4002965 Z" id="Fill-3" fill="#5090CC"></path>
        <path d="M32,34.2512842 C31.5094458,34.0695442 31.0412447,34.0241092 30.6398822,34.001373 C29.2121893,33.9559755 27.2716259,35.0470906 26,35.683143 L26,46 L28.7885472,46 L28.7885472,37.0695668 C29.2567851,36.8651281 29.8364942,36.6372028 30.3500276,36.6372028 C30.5730068,36.6372028 30.8851409,36.7515219 30.8851409,36.7515219 L32,34.2512842 Z" id="Fill-4" fill="#A19589"></path>
        <path d="M106,42.0672418 C106,40.4805917 105.158813,39.1843553 103.305211,38.6929174 L102.140435,38.4025406 C101.342322,38.1784588 101.235171,37.9327582 101.235171,37.4636768 C101.235171,36.8382471 101.62248,36.4138419 102.313087,36.4138419 C102.916478,36.4138419 103.477506,36.6364849 104.770792,37.1956197 L105.698127,35.0728924 C104.598496,34.5807903 103.477506,34 102.248298,34 C100.070752,34 98.5396698,35.5196542 98.5396698,37.6870577 C98.5396698,39.4523755 99.4449339,40.6592965 101.083878,41.0390256 L102.183509,41.2847261 C103.068126,41.4857874 103.305211,41.8431599 103.305211,42.4246512 C103.305211,43.1394332 102.851689,43.6085147 102.119076,43.6085147 C101.062163,43.6085147 99.9628888,43.0054047 99.0138388,42.5809994 L98,44.6590505 C99.2078494,45.239804 100.631068,46 101.989499,46 C104.317982,46 106,44.41335 106,42.0672418 Z" id="Fill-5" fill="#A19589"></path>
        <path d="M67,34.2512842 C66.5088064,34.0695442 66.0408101,34.0241092 65.6387235,34.001373 C64.2119055,33.9559755 62.271433,35.0470906 61,35.683143 L61,46 L63.7880945,46 L63.7880945,37.0695668 C64.256459,36.8651281 64.8360233,36.6372028 65.3489414,36.6372028 C65.5724455,36.6372028 65.8846886,36.7515219 65.8846886,36.7515219 L67,34.2512842 Z" id="Fill-6" fill="#A19589"></path>
        <path d="M25,44.3685702 L23.6169829,42.3200517 C21.6951607,42.9483547 20.5706541,43.2974035 19.9607692,43.2974035 C19.069777,43.2974035 18.9299779,42.9483547 18.9299779,41.5979336 L18.9299779,33.380646 C18.9299779,32.0536691 19.069777,31.6813684 19.9607692,31.6813684 C20.5706541,31.6813684 21.6717513,32.0306093 23.6169829,32.6588739 L25,30.6105475 C23.0071368,29.7489945 21.1329074,28.9345603 19.6562137,29.0041625 C17.9920894,29.0507049 16,29.5630171 16,33.4504404 L16,41.5281393 C16,45.997477 18.8362626,46.6265103 22.1168798,45.5320531 C22.9376048,45.2528372 23.7341465,44.9037885 25,44.3685702 Z" id="Fill-7" fill="#A19589"></path>
        <path d="M92.7142296,43.7227393 C92.2146226,43.9126458 91.6194969,44.1737478 91.0715409,44.1737478 C90.1662736,44.1737478 89.9996069,43.8176926 89.9996069,42.4639221 C90.023978,39.4010707 90.023978,37.809917 90.023978,37.2877131 C90.6191038,37.0258271 91.1666667,36.8359205 91.6670597,36.8359205 C92.5715409,36.8359205 92.7142296,37.2164785 92.7142296,38.5695041 L92.7142296,43.7227393 Z M97,46.5244887 L96.4524371,44.2687011 C95.952044,44.411131 95.8573113,44.4586077 95.8337264,44.4356338 C95.7386006,44.3399357 95.6902516,44.1975057 95.6902516,43.4141607 L95.6902516,32.8708952 C95.6902516,31.5410395 95.6902516,30.3296597 95.3805031,29 L92.4048742,29.6887838 C92.6666667,31.0421623 92.7142296,31.7783835 92.7142296,33.3454265 L92.7142296,34.1528823 C90.6666667,33.8680224 88.7621855,34.960691 87,35.862708 C87,35.862708 87.023978,36.9783504 87,42.3689688 C87,47.261102 90.3337264,47.5459618 93.4996069,46.3108633 C93.952044,46.7863747 94.5,47 95.2378145,47 C95.7621855,47 96.1666667,46.9043018 97,46.5244887 Z" id="Fill-8" fill="#A19589"></path>
        <path d="M82.7007843,43.0605508 L82.7007843,43.8002173 C82.0827451,44.0385845 81.5364706,44.2530953 81.0619608,44.2530953 C80.134902,44.2530953 79.992549,43.8717078 79.992549,42.512326 L79.992549,41.7734468 C80.4909804,41.5588967 81.0854902,41.3205689 81.6552941,41.3205689 C82.5584314,41.3205689 82.7007843,41.701917 82.7007843,43.0605508 Z M87,46.4943766 L86.4301961,44.2292389 C85.9309804,44.3961156 85.8356863,44.4199326 85.8121569,44.3961156 C85.7415686,44.3007687 85.6933333,44.1577484 85.6933333,43.4426862 C85.6698039,43.2519925 85.6698039,38.6256223 85.6698039,38.4587456 C85.6698039,37.3146619 85.5984314,36.7664371 85.4086275,36.1936079 C84.9337255,34.7158101 83.6505882,34 82.0113725,34 C79.9458824,34 78.7101961,34.8588304 77,35.8360768 L78.3772549,38.2680912 C79.2803922,37.7198664 80.6337255,36.7664371 81.7266667,36.7664371 C82.6298039,36.7664371 82.7721569,37.1478245 82.7721569,38.5310234 L82.7721569,38.6494393 C82.5109804,38.6017659 82.225098,38.5779488 81.9411765,38.5540924 C80.4435294,38.506419 77.9980392,39.7943103 77.0239216,40.3425352 L77.0239216,42.4408355 C77.0239216,46.4228861 79.0419608,46.9480419 80.7529412,46.9957153 C81.5843137,47.0433887 82.6772549,46.6850703 83.5556863,46.3275392 C84.0066667,46.7804172 84.5537255,46.9711109 85.2184314,46.9711109 C85.7647059,46.9711109 86.145098,46.875764 87,46.4943766 Z" id="Fill-9" fill="#A19589"></path>
        <path d="M73.2991602,38.2413334 L73.0589758,43.0106694 C72.5789602,43.1855496 72.0731601,43.4482384 71.560649,43.4201972 C70.7486138,43.3762744 70.6369987,43.0344363 70.7002237,41.7641782 C70.8203159,38.9545248 70.8934309,37.5058122 70.9238071,36.9041595 C71.4917726,36.6896678 71.9919213,36.5385545 72.4401478,36.5630215 C73.2521829,36.6069073 73.3627384,36.9703383 73.2991602,38.2413334 Z M75.679105,44.5846281 C75.679105,44.5846281 75.7045363,43.6468855 75.986753,38.4550513 C76.1739555,34.7328593 74.340077,34.141266 72.8251492,34.0138828 C71.4825891,33.872829 69.5491047,34.8400867 68.3209853,35.3985537 L68.0133374,41.5281305 C67.826488,45.2503225 69.639527,45.8412156 71.153042,45.9908919 C71.8778337,46.0527964 72.7905344,45.7893706 73.5771383,45.4972035 C74.3414898,45.2042626 75.043676,44.8624245 75.679105,44.5846281 Z" id="Fill-10" fill="#A19589"></path>
        <path d="M59,42.0672418 C59,40.4805917 58.1587903,39.1843553 56.3044268,38.6929174 L55.1399761,38.4025406 C54.3421975,38.1784588 54.2346879,37.9327582 54.2346879,37.4636768 C54.2346879,36.8382471 54.6223634,36.4138419 55.3129884,36.4138419 C55.9163952,36.4138419 56.476727,36.6364849 57.7707588,37.1956197 L58.6984746,35.0728924 C57.5984586,34.5807903 56.476727,34 55.2481978,34 C53.0706289,34 51.5395774,35.5196542 51.5395774,37.6870577 C51.5395774,39.4523755 52.4448301,40.6592965 54.0837472,41.0390256 L55.1837632,41.2847261 C56.0673359,41.4857874 56.3044268,41.8431599 56.3044268,42.4246512 C56.3044268,43.1394332 55.8519606,43.6085147 55.1189726,43.6085147 C54.0620316,43.6085147 52.962158,43.0054047 52.0137591,42.5809994 L51,44.6590505 C52.2077393,45.239804 53.630925,46 54.9890354,46 C57.3182927,46 59,44.41335 59,42.0672418 Z" id="Fill-11" fill="#A19589"></path>
        <path d="M50,42.0672418 C50,40.4805917 49.1586948,39.1843553 47.304356,38.6929174 L46.1404549,38.4025406 C45.3429361,38.1784588 45.2351787,37.9327582 45.2351787,37.4636768 C45.2351787,36.8382471 45.6231694,36.4138419 46.3128952,36.4138419 C46.9164008,36.4138419 47.4767963,36.6364849 48.7707396,37.1956197 L49.6982294,35.0728924 C48.5982993,34.5807903 47.4767963,34 46.2482123,34 C44.0705656,34 42.5395346,35.5196542 42.5395346,37.6870577 C42.5395346,39.4523755 43.4455228,40.6592965 45.0843112,41.0390256 L46.1835649,41.2847261 C47.0672683,41.4857874 47.304356,41.8431599 47.304356,42.4246512 C47.304356,43.1394332 46.8517179,43.6085147 46.118882,43.6085147 C45.062062,43.6085147 43.9628082,43.0054047 43.0137456,42.5809994 L42,44.6590505 C43.2077231,45.239804 44.6309611,46 45.9895874,46 C48.3181015,46 50,44.41335 50,42.0672418 Z" id="Fill-12" fill="#A19589"></path>
        <path d="M37.298398,38.2413334 L37.0590276,43.0106694 C36.578874,43.1855496 36.0731832,43.4482384 35.5606402,43.4201972 C34.7486458,43.3762744 34.6368901,43.0344363 34.7010684,41.7641782 C34.8210892,38.9545248 34.8935325,37.5058122 34.9238733,36.9041595 C35.4916583,36.6896678 35.9918037,36.5385545 36.4402037,36.5630215 C37.2521629,36.6069073 37.362541,36.9703383 37.298398,38.2413334 Z M39.679104,44.5846281 C39.679104,44.5846281 39.7053122,43.6468855 39.9867852,38.4550513 C40.1737393,34.7328593 38.3400849,34.141266 36.8258384,34.0138828 C35.4826868,33.872829 33.5490034,34.8400867 32.3210335,35.3985537 L32.0133523,41.5281305 C31.8263983,45.2503225 33.6393545,45.8412156 35.1529299,45.9908919 C35.8779641,46.0527964 36.7913298,45.7893706 37.5770807,45.4972035 C38.3414625,45.2042626 39.044421,44.8624245 39.679104,44.5846281 Z" id="Fill-13" fill="#A19589"></path>
        <path d="M104.217154,56.9034401 L104.217154,53.6982674 L101.054336,53.6982674 L101.054336,56.9034401 L100.27149,56.9034401 L100.27149,50.2893798 L101.054336,50.021274 L101.054336,53.1407438 L104.217154,53.1407438 L104.217154,50.14998 L105,50.14998 L105,56.9034401 L104.217154,56.9034401 Z M96.9286766,56.9677172 L96.9178246,56.9677172 C95.1938417,56.9677172 94.2418529,54.9523731 94.2837643,53.4195815 C94.32605,51.8221714 95.2043196,49.9677666 97.013248,50.0105422 C97.7747642,50.021274 98.4307533,50.1929072 98.9490334,50.5787976 L98.6739895,51.0504287 C98.1875172,50.7287776 97.6793408,50.6108413 97.1296271,50.6108413 C95.7121218,50.6215732 95.2888909,52.251027 95.2675609,53.4301616 C95.2466052,54.5237451 95.7544074,56.3461061 97.0869672,56.3353743 C97.8488576,56.3353743 98.219325,56.0994639 99.0231269,55.6386026 L99.3191265,56.1102337 C98.5471325,56.7212646 97.7960941,56.9677172 96.9286766,56.9677172 Z M91.6291226,50.6967717 C91.1108425,50.6967717 90.391612,50.6967717 90.391612,50.6967717 L90.391612,53.2051727 L91.6186447,53.1944409 C92.3483531,53.183709 92.8351996,52.6369173 92.8351996,51.9401456 C92.8351996,51.3078027 92.2955896,50.6967717 91.6291226,50.6967717 Z M92.7188205,56.9034401 L90.9521777,53.741043 L90.391612,53.741043 L90.391612,56.9034401 L89.6192437,56.9034401 L89.6192437,50.1392102 C89.6192437,50.1392102 90.8780842,50.1392102 91.7241718,50.1392102 C92.7820619,50.1392102 93.6180457,50.9432243 93.6180457,51.9616092 C93.6285236,52.9907639 92.8565295,53.741043 91.8409251,53.741043 L93.6498535,56.9034401 L92.7188205,56.9034401 Z M85.9695791,56.9999127 C84.6265414,56.9999127 83.589607,56.0352247 83.589607,54.6202177 L83.589607,50.278648 L84.3724532,50.0105422 L84.382931,54.4915117 C84.382931,55.6491448 84.9120632,56.3674181 86.0331947,56.3566863 C87.1438483,56.3566863 87.7998374,55.5956374 87.7998374,54.4700481 L87.7998374,50.14998 L88.4026888,50.14998 L88.4026888,54.6094479 C88.4026888,56.0244929 87.3556508,57.0106824 85.9695791,56.9999127 Z M81.5905802,56.9034401 L81.5905802,53.6982674 L78.427762,53.6982674 L78.427762,56.9034401 L77.6449159,56.9034401 L77.6449159,50.2893798 L78.427762,50.021274 L78.427762,53.1407438 L81.5905802,53.1407438 L81.5905802,50.14998 L82.3734264,50.14998 L82.3734264,56.9034401 L81.5905802,56.9034401 Z M74.302103,56.9677172 L74.2916251,56.9677172 C72.567268,56.9677172 71.6152792,54.9523731 71.6575649,53.4195815 C71.6998506,51.8221714 72.5781201,49.9677666 74.3866743,50.0105422 C75.1485647,50.021274 75.8041797,50.1929072 76.322834,50.5787976 L76.04779,51.0504287 C75.5609435,50.7287776 75.0535155,50.6108413 74.5030535,50.6108413 C73.0855481,50.6215732 72.6626915,52.251027 72.6413615,53.4301616 C72.6204058,54.5237451 73.128208,56.3461061 74.461142,56.3353743 C75.2226582,56.3353743 75.5927513,56.0994639 76.3965532,55.6386026 L76.6929271,56.1102337 C75.9205588,56.7212646 75.1695205,56.9677172 74.302103,56.9677172 Z M66.1256268,53.8589792 L66.1256268,56.9034401 L65.3532585,56.9034401 L65.3532585,53.7625066 L63.406621,50.2893798 L64.1471815,50.0105422 L65.8928685,53.1407438 C66.4216265,52.1438226 67.6063735,50.0105422 67.6063735,50.0105422 L68.1036979,50.2142192 L66.1256268,53.8589792 Z M60.9851117,50.6752702 L60.9851117,56.9034401 L60.2026398,56.9034401 L60.2026398,50.6752702 L58.2137166,50.6752702 L58.4569528,50.14998 L62.9422271,50.1392102 L62.9422271,50.6752702 L60.9851117,50.6752702 Z M56.584783,56.9034401 L56.584783,50.2893798 L57.3676291,50.021274 L57.3676291,56.9034401 L56.584783,56.9034401 Z M54.4480471,56.9034401 L50.7138485,51.3720419 L50.7138485,56.9034401 L50.174463,56.9034401 L50.174463,50.224951 L50.7878297,50.0105422 L54.6808053,55.7778507 L54.6808053,50.14998 L55.2095633,50.14998 L55.2095633,56.9034401 L54.4480471,56.9034401 Z M46.5249855,56.9999127 C45.1816485,56.9999127 44.1449012,56.0352247 44.1449012,54.6202177 L44.1449012,50.278648 L44.9276725,50.0105422 L44.9382626,54.4915117 C44.9382626,55.6491448 45.4672451,56.3674181 46.5885637,56.3566863 C47.6991424,56.3566863 48.3550942,55.5956374 48.3550942,54.4700481 L48.3550942,50.14998 L48.9580953,50.14998 L48.9580953,54.6094479 C48.9580953,56.0244929 47.9107205,57.0106824 46.5249855,56.9999127 Z M42.1561652,56.9034401 L42.1561652,51.3290767 L40.0512371,56.7640402 L39.3952853,56.9999127 L37.2161515,51.5220219 L37.2161515,56.9034401 L36.676766,56.9034401 L36.676766,50.278648 L37.4489472,50.021274 L39.8396591,55.7885826 L42.0293456,50.14998 L42.9285334,50.14998 L42.9285334,56.9034401 L42.1561652,56.9034401 Z M34.6348922,56.9034401 L34.6348922,51.3290767 L32.5299642,56.7640402 L31.8740124,56.9999127 L29.6948786,51.5220219 L29.6948786,56.9034401 L29.1554931,56.9034401 L29.1554931,50.278648 L29.9276743,50.021274 L32.3183861,55.7885826 L34.5080727,50.14998 L35.4072605,50.14998 L35.4072605,56.9034401 L34.6348922,56.9034401 Z M25.3262454,50.6002991 C23.9827212,50.6002991 23.3269192,52.1117788 23.3269192,53.4195815 C23.3163291,54.8559005 24.0251192,56.3888817 25.3156553,56.3888817 C26.6061913,56.3888817 27.3043539,54.8559005 27.3043539,53.4195815 C27.3043539,52.1117788 26.6591794,50.6002991 25.3262454,50.6002991 Z M28.1929142,53.4195815 C28.1929142,55.081079 27.1985649,56.9999127 25.3262454,56.9999127 C23.4539259,56.9999127 22.4595766,55.081079 22.4595766,53.4195815 C22.4595766,51.714967 23.5067268,50 25.3262454,50 C27.1563541,50 28.2035417,51.714967 28.2035417,53.4195815 L28.1929142,53.4195815 Z M19.6458584,56.9677172 L19.6352683,56.9677172 C17.9111357,56.9677172 16.9589598,54.9523731 17.0013577,53.4195815 C17.0435685,51.8221714 17.9217258,49.9677666 19.7304671,50.0105422 C20.4922079,50.021274 21.1480099,50.1929072 21.6663648,50.5787976 L21.3913957,51.0504287 C20.9048112,50.7287776 20.397009,50.6108413 19.8468463,50.6108413 C18.4293035,50.6215732 18.0063346,52.251027 17.9851169,53.4301616 C17.9639366,54.5237451 18.4717014,56.3461061 19.8046354,56.3353743 C20.5662265,56.3353743 20.9363945,56.0994639 21.7403834,55.6386026 L22.0365702,56.1102337 C21.264389,56.7212646 20.5132384,56.9677172 19.6458584,56.9677172 Z" id="Fill-14" fill="#A19589"></path>
    </g>
</svg>