<?xml version="1.0" encoding="UTF-8"?>
<svg width="160px" height="90px" viewBox="0 0 160 90" version="1.1" xmlns="http://www.w3.org/2000/svg" xmlns:xlink="http://www.w3.org/1999/xlink">
    <!-- Generator: Sketch 49.3 (51167) - http://www.bohemiancoding.com/sketch -->
    <title>Crump Power Engineering logo designed by Isral Duke</title>
    <desc>Created with Sketch.</desc>
    <defs></defs>
    <g id="Crump-Power-Engineering-logo-designed-by-Isral-Duke" stroke="none" stroke-width="1" fill="none" fill-rule="evenodd">
        <g id="Page-1" transform="translate(17.000000, 29.000000)">
            <path d="M110.2695,30.8805587 C110.174,31.0364952 110.077,31.1543365 109.978,31.2340825 C109.8785,31.3143365 109.7635,31.374781 109.632,31.4159238 C109.5005,31.4570667 109.3455,31.4778921 109.168,31.4778921 C108.718,31.4778921 108.3865,31.3458286 108.1735,31.0822095 C107.96,30.8185905 107.8535,30.4208762 107.8535,29.8890667 C107.8535,29.358781 107.959,28.9615746 108.171,28.6969397 C108.383,28.4328127 108.7095,28.3002413 109.15,28.3002413 C109.3255,28.3002413 109.4815,28.3225905 109.6185,28.366781 C109.7565,28.4104635 109.8725,28.4709079 109.967,28.5481143 C110.062,28.6253206 110.1485,28.7335111 110.226,28.8731937 L109.8965,29.0936381 C109.8325,28.9849397 109.7685,28.902654 109.7035,28.8457651 C109.6385,28.7893841 109.5605,28.7441778 109.469,28.7111619 C109.3785,28.678146 109.272,28.6618921 109.15,28.6618921 C108.8495,28.6618921 108.629,28.7634794 108.4875,28.9671619 C108.347,29.1703365 108.276,29.478146 108.276,29.8890667 C108.276,30.2944 108.3455,30.6001778 108.4845,30.8069079 C108.6235,31.0131302 108.847,31.1162413 109.1545,31.1162413 C109.3255,31.1162413 109.4735,31.0822095 109.599,31.0136381 C109.725,30.9455746 109.838,30.8277333 109.938,30.6601143 L110.2695,30.8805587 Z M106.251,31.4138921 L104.895,28.7959873 L104.895,31.4138921 L104.509,31.4138921 L104.509,28.3642413 L105.097,28.3642413 L106.34,30.7596698 L106.34,28.3642413 L106.726,28.3642413 L106.726,31.4138921 L106.251,31.4138921 Z M103.3515,31.4138921 L102.1235,31.4138921 L102.1235,31.0613841 L102.538,31.0613841 L102.538,28.710146 L102.1235,28.710146 L102.1235,28.3642413 L103.3515,28.3642413 L103.3515,28.710146 L102.937,28.710146 L102.937,31.0613841 L103.3515,31.0613841 L103.3515,31.4138921 Z M98.756,29.0982095 C98.685,28.966146 98.591,28.8599873 98.474,28.7807492 C98.357,28.7015111 98.1995,28.6618921 98.001,28.6618921 C97.699,28.6618921 97.4775,28.7629714 97.3375,28.966146 C97.197,29.1683048 97.127,29.4791619 97.127,29.8977016 C97.127,30.3253841 97.203,30.6352254 97.355,30.8277333 C97.5065,31.0202413 97.732,31.1162413 98.0315,31.1162413 C98.147,31.1162413 98.2545,31.1030349 98.3535,31.0756063 C98.453,31.0486857 98.56,31.0090667 98.6755,30.9577651 L98.6755,30.2349714 L97.9465,30.2349714 L97.9465,29.8672254 L99.077,29.8672254 L99.077,31.1802413 C98.9135,31.2726857 98.7515,31.3458286 98.59,31.398654 C98.429,31.4514794 98.243,31.4778921 98.0315,31.4778921 C97.5805,31.4778921 97.2465,31.3463365 97.0295,31.0832254 C96.8125,30.8206222 96.7045,30.4239238 96.7045,29.8936381 C96.7045,29.3557333 96.8125,28.9559873 97.0305,28.6938921 C97.248,28.4312889 97.573,28.3002413 98.0055,28.3002413 C98.251,28.3002413 98.4635,28.3444317 98.642,28.4328127 C98.821,28.5206857 98.967,28.6674794 99.081,28.8731937 L98.756,29.0982095 Z M95.1015,31.4138921 L93.7455,28.7959873 L93.7455,31.4138921 L93.3595,31.4138921 L93.3595,28.3642413 L93.947,28.3642413 L95.19,30.7596698 L95.19,28.3642413 L95.576,28.3642413 L95.576,31.4138921 L95.1015,31.4138921 Z M92.291,31.4138921 L91.063,31.4138921 L91.063,31.0613841 L91.4775,31.0613841 L91.4775,28.710146 L91.063,28.710146 L91.063,28.3642413 L92.291,28.3642413 L92.291,28.710146 L91.8765,28.710146 L91.8765,31.0613841 L92.291,31.0613841 L92.291,31.4138921 Z M89.7535,29.2521143 C89.7535,29.0509714 89.703,28.9128127 89.6025,28.8371302 C89.502,28.7614476 89.3405,28.7233524 89.1175,28.7233524 L88.5905,28.7233524 L88.5905,29.8072889 L89.092,29.8072889 C89.2595,29.8072889 89.3915,29.7895111 89.4875,29.7534476 C89.584,29.7178921 89.652,29.6604952 89.693,29.5817651 C89.733,29.5030349 89.7535,29.3933206 89.7535,29.2521143 Z M89.879,31.4138921 L89.1135,30.1689397 L88.5905,30.1689397 L88.5905,31.4138921 L88.1895,31.4138921 L88.1895,28.3642413 L89.122,28.3642413 C89.4955,28.3642413 89.7625,28.4343365 89.925,28.5735111 C90.0865,28.7131937 90.1675,28.9290667 90.1675,29.2216381 C90.1675,29.4710349 90.118,29.6686222 90.019,29.8144 C89.92,29.9596698 89.759,30.0566857 89.5365,30.1049397 L90.35,31.4138921 L89.879,31.4138921 Z M85.2355,31.4138921 L85.2355,28.3642413 L87.0705,28.3642413 L87.0705,28.7319873 L85.6365,28.7319873 L85.6365,29.6224 L86.8625,29.6224 L86.8625,29.9926857 L85.6365,29.9926857 L85.6365,31.0436063 L87.0705,31.0436063 L87.0705,31.4138921 L85.2355,31.4138921 Z M82.1925,31.4138921 L82.1925,28.3642413 L84.028,28.3642413 L84.028,28.7319873 L82.594,28.7319873 L82.594,29.6224 L83.8195,29.6224 L83.8195,29.9926857 L82.594,29.9926857 L82.594,31.0436063 L84.028,31.0436063 L84.028,31.4138921 L82.1925,31.4138921 Z M80.386,31.4138921 L79.03,28.7959873 L79.03,31.4138921 L78.644,31.4138921 L78.644,28.3642413 L79.232,28.3642413 L80.475,30.7596698 L80.475,28.3642413 L80.861,28.3642413 L80.861,31.4138921 L80.386,31.4138921 Z M77.398,31.4138921 L76.17,31.4138921 L76.17,31.0613841 L76.5845,31.0613841 L76.5845,28.710146 L76.17,28.710146 L76.17,28.3642413 L77.398,28.3642413 L77.398,28.710146 L76.9835,28.710146 L76.9835,31.0613841 L77.398,31.0613841 L77.398,31.4138921 Z M74.6325,29.0982095 C74.5615,28.966146 74.468,28.8599873 74.3505,28.7807492 C74.234,28.7015111 74.076,28.6618921 73.8775,28.6618921 C73.5755,28.6618921 73.3545,28.7629714 73.214,28.966146 C73.074,29.1683048 73.0035,29.4791619 73.0035,29.8977016 C73.0035,30.3253841 73.08,30.6352254 73.232,30.8277333 C73.383,31.0202413 73.609,31.1162413 73.9085,31.1162413 C74.0235,31.1162413 74.131,31.1030349 74.2305,31.0756063 C74.3295,31.0486857 74.4365,31.0090667 74.5525,30.9577651 L74.5525,30.2349714 L73.8235,30.2349714 L73.8235,29.8672254 L74.9535,29.8672254 L74.9535,31.1802413 C74.7905,31.2726857 74.628,31.3458286 74.467,31.398654 C74.3055,31.4514794 74.1195,31.4778921 73.9085,31.4778921 C73.457,31.4778921 73.1235,31.3463365 72.9065,31.0832254 C72.6895,30.8206222 72.581,30.4239238 72.581,29.8936381 C72.581,29.3557333 72.6895,28.9559873 72.9075,28.6938921 C73.125,28.4312889 73.4495,28.3002413 73.882,28.3002413 C74.128,28.3002413 74.3405,28.3444317 74.5185,28.4328127 C74.6975,28.5206857 74.8435,28.6674794 74.958,28.8731937 L74.6325,29.0982095 Z M70.978,31.4138921 L69.622,28.7959873 L69.622,31.4138921 L69.236,31.4138921 L69.236,28.3642413 L69.824,28.3642413 L71.067,30.7596698 L71.067,28.3642413 L71.453,28.3642413 L71.453,31.4138921 L70.978,31.4138921 Z M66.1935,31.4138921 L66.1935,28.3642413 L68.0285,28.3642413 L68.0285,28.7319873 L66.5945,28.7319873 L66.5945,29.6224 L67.8205,29.6224 L67.8205,29.9926857 L66.5945,29.9926857 L66.5945,31.0436063 L68.0285,31.0436063 L68.0285,31.4138921 L66.1935,31.4138921 Z M62.6135,29.2521143 C62.6135,29.0509714 62.563,28.9128127 62.4625,28.8371302 C62.362,28.7614476 62.2005,28.7233524 61.9775,28.7233524 L61.451,28.7233524 L61.451,29.8072889 L61.952,29.8072889 C62.1195,29.8072889 62.2515,29.7895111 62.3475,29.7534476 C62.444,29.7178921 62.512,29.6604952 62.5525,29.5817651 C62.593,29.5030349 62.6135,29.3933206 62.6135,29.2521143 Z M62.739,31.4138921 L61.9735,30.1689397 L61.451,30.1689397 L61.451,31.4138921 L61.0495,31.4138921 L61.0495,28.3642413 L61.982,28.3642413 C62.355,28.3642413 62.6225,28.4343365 62.7845,28.5735111 C62.9465,28.7131937 63.0275,28.9290667 63.0275,29.2216381 C63.0275,29.4710349 62.978,29.6686222 62.879,29.8144 C62.78,29.9596698 62.619,30.0566857 62.3965,30.1049397 L63.2095,31.4138921 L62.739,31.4138921 Z M58.0065,31.4138921 L58.0065,28.3642413 L59.8415,28.3642413 L59.8415,28.7319873 L58.408,28.7319873 L58.408,29.6224 L59.6335,29.6224 L59.6335,29.9926857 L58.408,29.9926857 L58.408,31.0436063 L59.8415,31.0436063 L59.8415,31.4138921 L58.0065,31.4138921 Z M56.2005,31.4138921 L55.721,31.4138921 L55.155,28.9722413 L54.5865,31.4138921 L54.116,31.4138921 L53.4065,28.3642413 L53.8055,28.3642413 L54.3655,30.8277333 L54.9335,28.3642413 L55.387,28.3642413 L55.964,30.8455111 L56.532,28.3642413 L56.9245,28.3642413 L56.2005,31.4138921 Z M52.216,29.8890667 C52.216,29.4674794 52.1535,29.1576381 52.0285,28.9590349 C51.9035,28.7609397 51.699,28.6618921 51.4155,28.6618921 C51.132,28.6618921 50.928,28.7609397 50.803,28.9590349 C50.678,29.1576381 50.615,29.4674794 50.615,29.8890667 C50.615,30.3137016 50.6785,30.6240508 50.805,30.8211302 C50.9315,31.0182095 51.135,31.1162413 51.4155,31.1162413 C51.6945,31.1162413 51.8975,31.0187175 52.025,30.8231619 C52.1525,30.6281143 52.216,30.3162413 52.216,29.8890667 Z M52.6365,29.8890667 C52.6365,30.4371302 52.535,30.8389079 52.332,31.0944 C52.129,31.3498921 51.8235,31.4778921 51.4155,31.4778921 C51.002,31.4778921 50.695,31.3478603 50.495,31.0877968 C50.2945,30.8277333 50.1945,30.4279873 50.1945,29.8890667 C50.1945,29.3542095 50.2935,28.9559873 50.4915,28.6938921 C50.6895,28.4312889 50.998,28.3002413 51.4155,28.3002413 C51.8275,28.3002413 52.134,28.4287492 52.335,28.686273 C52.5365,28.9432889 52.6365,29.3440508 52.6365,29.8890667 Z M48.8918,29.3470984 C48.8918,29.1337651 48.8398,28.9783365 48.7358,28.8797968 C48.6318,28.7817651 48.4538,28.7319873 48.2023,28.7319873 L47.7598,28.7319873 L47.7598,30.0104635 L48.1458,30.0104635 C48.3568,30.0104635 48.5113,29.9896381 48.6088,29.9474794 C48.7063,29.9053206 48.7778,29.838273 48.8238,29.7448127 C48.8693,29.6513524 48.8918,29.518781 48.8918,29.3470984 Z M49.3128,29.3384635 C49.3128,29.7057016 49.2278,29.9708444 49.0578,30.1349079 C48.8878,30.2984635 48.6123,30.3807492 48.2303,30.3807492 L47.7598,30.3807492 L47.7598,31.4138921 L47.3583,31.4138921 L47.3583,28.3642413 L48.2478,28.3642413 C48.6223,28.3642413 48.8933,28.4429714 49.0613,28.5999238 C49.2288,28.7573841 49.3128,29.0032254 49.3128,29.3384635 Z" id="Fill-1" fill="#6D6E70"></path>
            <path d="M116.0585,19.0364444 C116.0585,19.928381 116.153,20.6674286 116.342,21.2530794 C116.5305,21.8392381 116.784,22.3070476 117.1015,22.6570159 C117.419,23.0069841 117.788,23.2518095 118.209,23.3914921 C118.63,23.5316825 119.072,23.6012698 119.5355,23.6012698 C120.016,23.6012698 120.4625,23.5139048 120.875,23.3391746 C121.2865,23.1639365 121.6475,22.8845714 121.9565,22.5000635 C122.2655,22.1150476 122.5055,21.6167619 122.6775,21.0041905 C122.849,20.3926349 122.935,19.6490159 122.935,18.7743492 C122.935,17.8824127 122.845,17.1347302 122.6645,16.5313016 C122.484,15.927873 122.244,15.4382222 121.9435,15.0623492 C121.643,14.6859683 121.2955,14.4193016 120.9005,14.2618413 C120.5055,14.1048889 120.093,14.0256508 119.664,14.0256508 C118.6165,14.0256508 117.754,14.375619 117.076,15.0750476 C116.3975,15.7749841 116.0585,16.8766984 116.0585,18.3806984 L116.0585,19.0364444 Z M113.1485,11.9847619 L116.007,11.9847619 L116.007,13.8686984 C116.5565,13.1189841 117.1875,12.5475556 117.9,12.1549206 C118.6125,11.7622857 119.4325,11.5662222 120.36,11.5662222 C121.304,11.5662222 122.128,11.736381 122.832,12.0761905 C123.536,12.4165079 124.124,12.9005714 124.5965,13.528381 C125.0685,14.1566984 125.4205,14.9109841 125.652,15.791746 C125.884,16.6725079 126,17.6538413 126,18.7352381 C126,19.8339048 125.862,20.8325079 125.5875,21.7305397 C125.313,22.6295873 124.922,23.3965714 124.416,24.0330159 C123.9095,24.6704762 123.2955,25.1580952 122.5745,25.4984127 C121.8535,25.8387302 121.0375,26.008381 120.128,26.008381 C119.4065,26.008381 118.7025,25.8702222 118.016,25.5944127 C117.3295,25.3186032 116.6855,24.8096508 116.0845,24.0675556 L116.0845,31.543873 L113.1485,31.543873 L113.1485,11.9847619 Z M90.82,11.9847619 L93.6525,11.9847619 L93.6525,13.9469206 C94.2015,13.1448889 94.8245,12.5475556 95.52,12.1549206 C96.215,11.7622857 96.94,11.5662222 97.696,11.5662222 C98.6915,11.5662222 99.4945,11.7800635 100.104,12.2072381 C100.7135,12.6349206 101.1555,13.2408889 101.4305,14.0256508 C102.0485,13.1885714 102.718,12.5693968 103.439,12.168127 C104.1605,11.7668571 104.95,11.5662222 105.8085,11.5662222 C107.148,11.5662222 108.174,11.9415873 108.886,12.6913016 C109.5985,13.4415238 109.955,14.6534603 109.955,16.328127 L109.955,25.5898413 L107.0195,25.5898413 L107.0195,16.8513016 C107.0195,15.7526349 106.839,15.015619 106.4785,14.640254 C106.118,14.2659048 105.6285,14.0779683 105.0105,14.0779683 C104.6325,14.0779683 104.2635,14.1434921 103.903,14.2740317 C103.542,14.4050794 103.1905,14.6366984 102.847,14.9673651 C102.555,15.2289524 102.3145,15.5428571 102.126,15.9095873 C101.937,16.2758095 101.8425,16.6857143 101.8425,17.1393016 L101.8425,25.5898413 L98.9065,25.5898413 L98.9065,16.8513016 C98.9065,15.7876825 98.7265,15.0593016 98.366,14.6666667 C98.005,14.2740317 97.5245,14.0779683 96.9235,14.0779683 C96.1165,14.0779683 95.3955,14.4010159 94.76,15.0460952 C94.485,15.3076825 94.249,15.6347937 94.0515,16.0274286 C93.8545,16.4195556 93.7555,16.8949841 93.7555,17.4532063 L93.7555,25.5898413 L90.82,25.5898413 L90.82,11.9847619 Z M75.934,11.9847619 L78.87,11.9847619 L78.87,20.5404444 C78.87,21.6568889 79.054,22.4284444 79.424,22.856127 C79.7925,23.2833016 80.3545,23.4971429 81.1105,23.4971429 C81.608,23.4971429 82.0415,23.4143492 82.411,23.248254 C82.7805,23.0826667 83.1365,22.8429206 83.48,22.5290159 C83.8235,22.2151111 84.0935,21.8661587 84.291,21.4821587 C84.4885,21.0991746 84.5875,20.6364444 84.5875,20.0954921 L84.5875,11.9847619 L87.5235,11.9847619 L87.5235,25.5898413 L84.665,25.5898413 L84.665,23.6012698 C84.0635,24.4388571 83.3985,25.0493968 82.6685,25.4328889 C81.9385,25.816381 81.162,26.008381 80.338,26.008381 C78.8095,26.008381 77.694,25.5984762 76.99,24.7791746 C76.2855,23.9593651 75.934,22.7032381 75.934,21.0113016 L75.934,11.9847619 Z M65.9155,11.9847619 L68.7745,11.9847619 L68.7745,14.0210794 C69.254,13.2815238 69.821,12.7222857 70.4735,12.343873 C71.1265,11.9654603 71.8135,11.7754921 72.5345,11.7754921 C73.118,11.7754921 73.5555,11.8105397 73.8475,11.880127 L73.5125,14.6275556 C73.324,14.5752381 73.1265,14.5406984 72.9205,14.5229206 C72.7145,14.5056508 72.474,14.4965079 72.1995,14.4965079 C71.8045,14.4965079 71.41,14.5574603 71.015,14.6793651 C70.6195,14.8012698 70.251,15.0100317 69.907,15.3056508 C69.2035,15.9324444 68.8515,16.7065397 68.8515,17.6289524 L68.8515,25.5898413 L65.9155,25.5898413 L65.9155,11.9847619 Z M48.3819,10.8825397 C48.7159,10.1932698 49.1174,9.5791746 49.5869,9.04126984 C50.325,8.19555556 51.2095,7.54996825 52.24,7.10552381 C53.27,6.66057143 54.4035,6.43809524 55.6395,6.43809524 C56.7895,6.43809524 57.7855,6.5864127 58.627,6.88304762 C59.468,7.17968254 60.185,7.60279365 60.7775,8.15187302 C61.37,8.70146032 61.842,9.36025397 62.194,10.1272381 C62.5455,10.8947302 62.8075,11.7495873 62.9795,12.6913016 L59.9145,13.136254 C59.777,12.5084444 59.6055,11.9502222 59.3995,11.4615873 C59.1935,10.9734603 58.923,10.5589841 58.5885,10.2191746 C58.2535,9.87885714 57.8455,9.61726984 57.365,9.43390476 C56.884,9.25104762 56.309,9.15911111 55.6395,9.15911111 C54.815,9.15911111 54.085,9.32520635 53.4505,9.65638095 C52.815,9.98806349 52.2785,10.4634921 51.8405,11.0821587 C51.4025,11.7018413 51.072,12.4469841 50.849,13.3191111 C50.6255,14.191746 50.514,15.1685079 50.514,16.2493968 C50.514,17.3485714 50.6305,18.3339683 50.862,19.2060952 C51.0935,20.0787302 51.4325,20.824381 51.8795,21.4430476 C52.3255,22.0622222 52.862,22.5330794 53.489,22.856127 C54.1155,23.1786667 54.832,23.3396825 55.6395,23.3396825 C56.3605,23.3396825 56.974,23.2441905 57.481,23.0521905 C57.987,22.8601905 58.412,22.5899683 58.7555,22.2410159 C59.099,21.8925714 59.3695,21.4689524 59.567,20.9721905 C59.764,20.4749206 59.906,19.9126349 59.992,19.2848254 L63.2885,19.2848254 C63.1855,20.2615873 62.954,21.159619 62.593,21.9794286 C62.2325,22.7992381 61.7345,23.5144127 61.0995,24.1249524 C60.464,24.7354921 59.6915,25.2104127 58.7815,25.5507302 C57.871,25.8905397 56.8155,26.0612063 55.6135,26.0612063 C54.2915,26.0612063 53.111,25.8341587 52.0725,25.3805714 C51.0335,24.9274921 50.158,24.2778413 49.4454,23.431619 C48.7324,22.5859048 48.1919,21.5568254 47.8229,20.344381 C47.4534,19.1319365 47.2689,17.776254 47.2689,16.2758095 C47.2689,14.7408254 47.4709,13.3627937 47.8744,12.1417143 C48.0214,11.6972698 48.1904,11.2777143 48.3819,10.8825397 Z" id="Fill-2" fill="#231F20"></path>
            <path d="M30.3026,11.412673 L27.18925,13.2387556 L30.2826,15.0648889 L33.39545,13.2387556 L30.3026,11.412673 Z M26.41125,13.6951365 L23.2979,15.5212698 L26.39075,17.3473524 L29.5041,15.5212698 L26.41125,13.6951365 Z M18.6281,18.2601651 L15.51525,20.0862984 L18.6081,21.912381 L21.72095,20.0862984 L18.6281,18.2601651 Z M10.8455,22.8251937 L7.7321,24.6512762 L10.82495,26.4769016 L13.9383,24.6512762 L10.8455,22.8251937 Z M22.54495,11.412673 L19.4316,13.2387556 L22.52495,15.0648889 L25.6378,13.2387556 L22.54495,11.412673 Z M14.7618,15.9776508 L11.64895,17.8037841 L14.7418,19.6293587 L17.85515,17.8037841 L14.7618,15.9776508 Z M6.97915,20.5426794 L3.8658,22.3687619 L6.95915,24.1943873 L10.072,22.3687619 L6.97915,20.5426794 Z M18.67865,9.13015873 L15.5658,10.9562413 L18.65865,12.7818667 L21.7715,10.9562413 L18.67865,9.13015873 Z M14.78735,11.412673 L11.67395,13.2387556 L14.7673,15.064381 L17.8802,13.2387556 L14.78735,11.412673 Z M10.896,13.6951365 L7.78265,15.5212698 L10.8755,17.3468444 L13.98885,15.5212698 L10.896,13.6951365 Z M3.11285,18.2601651 L6.2057,20.0862984 L3.09285,21.911873 L0,20.0862984 L3.11285,18.2601651 Z" id="Fill-3" fill="#FF5100"></path>
            <path d="M18.7294,-7.10542736e-15 L15.61605,1.82613333 L18.70935,3.65221587 L21.82225,1.82613333 L18.7294,-7.10542736e-15 Z M26.4365,9.13005714 L23.32315,10.9561397 L26.41595,12.782273 L29.52935,10.9561397 L26.4365,9.13005714 Z M22.5702,6.84754286 L19.4573,8.6736254 L22.55015,10.4997587 L25.663,8.6736254 L22.5702,6.84754286 Z M14.81255,6.84754286 L11.6997,8.6736254 L14.79255,10.4997587 L17.9054,8.6736254 L14.81255,6.84754286 Z M10.9212,9.13005714 L7.80785,10.9561397 L10.9007,12.782273 L14.01405,10.9561397 L10.9212,9.13005714 Z M7.0299,11.4125714 L3.91655,13.238654 L7.0094,15.0647873 L10.12275,13.238654 L7.0299,11.4125714 Z M30.25175,20.5425778 L27.1389,22.3686603 L30.23175,24.1947937 L33.3451,22.3686603 L30.25175,20.5425778 Z M18.5778,27.3900698 L15.46445,29.2162032 L18.5573,31.0422857 L21.67065,29.2162032 L18.5778,27.3900698 Z M30.2773,15.9775492 L27.1639,17.8036825 L30.25725,19.6297651 L33.37015,17.8036825 L30.2773,15.9775492 Z M26.38595,18.2600635 L23.2726,20.0861968 L26.36545,21.9122794 L29.4788,20.0861968 L26.38595,18.2600635 Z M22.49415,20.5425778 L19.38125,22.3686603 L22.4741,24.1947937 L25.5875,22.3686603 L22.49415,20.5425778 Z M14.737,20.5425778 L11.62365,22.3686603 L14.7165,24.1947937 L17.82985,22.3686603 L14.737,20.5425778 Z M10.8707,18.2600635 L7.75735,20.0861968 L10.8502,21.9122794 L13.96355,20.0861968 L10.8707,18.2600635 Z M7.0044,15.9775492 L10.09725,17.8036825 L6.98435,19.6297651 L3.891,17.8036825 L7.0044,15.9775492 Z" id="Fill-4" fill="#FFD700"></path>
            <path d="M34.19405,9.13015873 L31.0807,10.9562413 L34.17405,12.7823746 L37.2869,10.9562413 L34.19405,9.13015873 Z M30.32775,6.84764444 L27.2149,8.67372698 L30.30775,10.4998603 L33.4206,8.67372698 L30.32775,6.84764444 Z M26.46195,4.56513016 L23.3486,6.39126349 L26.44145,8.21734603 L29.5548,6.39126349 L26.46195,4.56513016 Z M22.59565,2.28261587 L19.4823,4.10874921 L22.57515,5.93432381 L25.6885,4.10874921 L22.59565,2.28261587 Z M14.838,2.28261587 L11.72465,4.10874921 L14.8175,5.93432381 L17.93085,4.10874921 L14.838,2.28261587 Z M10.9467,4.56513016 L7.83335,6.39126349 L10.92615,8.2168381 L14.03955,6.39126349 L10.9467,4.56513016 Z M7.05485,6.84764444 L3.942,8.67372698 L7.03485,10.4993524 L10.1482,8.67372698 L7.05485,6.84764444 Z M3.16355,9.13015873 L0.0502,10.9557333 L3.14355,12.7818667 L6.2564,10.9562413 L3.16355,9.13015873 Z M34.16855,13.6951365 L31.0557,15.5212698 L34.14855,17.3473524 L37.2619,15.5212698 L34.16855,13.6951365 Z M18.7043,4.56513016 L15.59095,6.39126349 L18.6838,8.2168381 L21.79715,6.39126349 L18.7043,4.56513016 Z M3.1385,13.6951365 L0.02515,15.5207619 L3.118,17.3468444 L6.23135,15.5212698 L3.1385,13.6951365 Z M34.14355,18.2601651 L31.0302,20.0862984 L34.12305,21.912381 L37.2364,20.0862984 L34.14355,18.2601651 Z M26.3604,22.8251937 L23.24755,24.6512762 L26.3404,26.4774095 L29.45375,24.6512762 L26.3604,22.8251937 Z M22.46905,25.1077079 L19.3557,26.9337905 L22.44905,28.7599238 L25.5619,26.9337905 L22.46905,25.1077079 Z M18.60275,22.8251937 L15.4899,24.6512762 L18.58275,26.4774095 L21.6961,24.6512762 L18.60275,22.8251937 Z M14.71145,25.1077079 L17.8043,26.9337905 L14.6914,28.7594159 L11.5981,26.9337905 L14.71145,25.1077079 Z" id="Fill-5" fill="#B1B1B1"></path>
        </g>
    </g>
</svg>