<?xml version="1.0" encoding="UTF-8"?>
<svg width="160px" height="90px" viewBox="0 0 160 90" version="1.1" xmlns="http://www.w3.org/2000/svg" xmlns:xlink="http://www.w3.org/1999/xlink">
    <!-- Generator: Sketch 49.3 (51167) - http://www.bohemiancoding.com/sketch -->
    <title>Dazifarm Designs logo designed by Isral Duke</title>
    <desc>Created with Sketch.</desc>
    <defs></defs>
    <g id="Dazifarm-Designs-logo-designed-by-Isral-Duke" stroke="none" stroke-width="1" fill="none" fill-rule="evenodd">
        <g id="Group" transform="translate(18.000000, 11.000000)" fill="#005288">
            <path d="M20.7707775,29.436319 L20.7707775,27.7703965 C20.7707775,27.7703965 5.96367086,18.1004696 0.770423411,23.7683943 C-4.42282404,29.436319 18.3392916,50.1083697 18.3392916,50.1083697 C18.3392916,50.1083697 20.7707775,52.773966 20.9913598,49.4397157 C21.2128387,46.1066681 20.9913598,43.6626537 20.9913598,43.6626537 C20.9913598,43.6626537 27.4004996,44.7720661 26.9587374,52.2189591 C26.5154806,59.6649502 18.6713605,64.9474368 18.6713605,64.9474368 L18.6713605,67 C18.6713605,67 29.9426951,60.220859 29.8319856,52.2189591 C29.7204989,44.2176606 23.6443246,31.9930786 26.2954961,21.6572036 C28.9469665,11.3216292 34.6938814,0.875714957 34.6938814,0.875714957 C34.6938814,0.875714957 35.3571226,-0.346743238 33.367399,0.0970217142 C31.378572,0.541688627 20.1075363,6.43149582 21.5443099,17.4327176 C22.9807845,28.4372466 24.5272514,36.4391464 26.2954961,43.105843 C26.2954961,43.105843 23.6443246,38.8831609 20.2178274,36.9941533 L16.6825336,41.4396198 C16.6825336,41.4396198 18.4492838,42.3280517 19.3346018,43.2170848 L19.7757663,47.3291263 C19.7757663,47.3291263 19.5560807,48.9965521 18.1193071,47.3291263 C16.6825336,45.6629032 5.6321997,33.7699424 8.50485012,28.769469 C11.3783972,23.7683943 20.7707775,29.436319 20.7707775,29.436319" id="Page-1"></path>
            <g id="Page-1" transform="translate(40.800000, 20.339286)">
                <path d="M0,10.0149712 L2.7186,10.0149712 C5.8761,10.0149712 7.78758,8.0091029 7.78758,5.1085373 C7.78758,2.20791056 5.86194,0.202042222 2.7186,0.202042222 L0,0.202042222 L0,10.0149712 Z M1.51506,8.64403159 L1.51506,1.57298187 L2.63364,1.57298187 C5.12562,1.57298187 6.21588,3.03051103 6.21588,5.1085373 C6.21588,7.18656357 5.12562,8.64403159 2.63364,8.64403159 L1.51506,8.64403159 Z" id="Fill-1"></path>
                <path d="M13.08018,8.64403159 C13.09434,8.64403159 17.38458,8.64403159 17.38458,8.64403159 L17.93682,10.0149712 L19.53678,10.0149712 L15.30318,0 L15.21822,0 L10.99878,10.0149712 L12.528,10.0149712 L13.08018,8.64403159 Z M16.81824,7.2731531 L13.64658,7.2731531 L15.24654,3.39123956 C15.24654,3.39123956 16.8324,7.2731531 16.81824,7.2731531 Z" id="Fill-2"></path>
                <polygon id="Fill-3" points="23.29812 10.0149712 30.6609 10.0149712 30.6609 8.64403159 25.73352 8.64403159 30.81666 0.288631746 30.81666 0.202042222 24.07686 0.202042222 24.07686 1.57298187 28.38126 1.57298187 23.29812 9.92838171"></polygon>
                <polygon id="Fill-4" points="35.46828 10.0149712 36.98334 10.0149712 36.98334 0.202042222 35.46828 0.202042222"></polygon>
                <polygon id="Fill-5" points="42.17472 10.0149712 43.68978 10.0149712 43.68978 7.01338452 47.78178 7.01338452 47.78178 5.64244488 43.68978 5.64244488 43.68978 1.57298187 48.17826 1.57298187 48.17826 0.202042222 42.17472 0.202042222"></polygon>
                <path d="M53.27502,8.64403159 C53.28918,8.64403159 57.57942,8.64403159 57.57942,8.64403159 L58.13166,10.0149712 L59.73162,10.0149712 L55.49802,0 L55.41306,0 L51.19362,10.0149712 L52.72284,10.0149712 L53.27502,8.64403159 Z M57.01308,7.2731531 L53.84142,7.2731531 L55.44138,3.39123956 C55.44138,3.39123956 57.02724,7.2731531 57.01308,7.2731531 Z" id="Fill-6"></path>
                <path d="M68.7744,7.22985833 C70.0344,6.63816325 70.6998,5.46926583 70.6998,3.95407147 C70.6998,1.68843456 69.2418,0.202042222 66.594,0.202042222 L64.1304,0.202042222 L64.1304,10.0149712 L65.6454,10.0149712 L65.6454,7.67717639 L66.594,7.67717639 C66.8346,7.67717639 67.0752,7.6627448 67.2876,7.63388163 L68.9298,10.0149712 L70.728,10.0149712 L68.7744,7.22985833 Z M65.6454,6.34959266 L65.6454,1.57298187 L66.537,1.57298187 C68.3778,1.57298187 69.1422,2.46767913 69.1422,3.95407147 C69.1422,5.45483425 68.3922,6.34959266 66.537,6.34959266 L65.6454,6.34959266 Z" id="Fill-7"></path>
                <polygon id="Fill-8" points="75.4806 10.0149712 76.911 10.0149712 76.911 3.65100813 80.1816 7.64831321 80.2524 7.64831321 83.5374 3.65100813 83.5374 10.0149712 84.9672 10.0149712 84.9672 0 84.8964 0 80.2524 5.52699218 75.5514 0 75.4806 0"></polygon>
                <path d="M0.354,26.8457488 L2.5062,26.8457488 C5.74866,26.8457488 7.6035,24.8398804 7.6035,21.9393148 C7.6035,19.0386881 5.7345,17.0328198 2.5062,17.0328198 L0.354,17.0328198 L0.354,26.8457488 Z M0.80706,26.4272939 L0.80706,17.4513358 L2.4354,17.4513358 C5.56458,17.4513358 7.13622,19.2984567 7.13622,21.9393148 C7.13622,24.5801119 5.56458,26.4272939 2.4354,26.4272939 L0.80706,26.4272939 Z" id="Fill-9"></path>
                <polygon id="Fill-10" points="14.88558 26.8457488 20.63424 26.8457488 20.63424 26.4417255 15.3387 26.4417255 15.3387 23.425646 19.91214 23.425646 19.91214 23.0216227 15.3387 23.0216227 15.3387 17.4369042 20.436 17.4369042 20.436 17.0328198 14.88558 17.0328198"></polygon>
                <path d="M27.25062,25.0419227 C27.84528,26.1819569 28.90722,26.9612015 30.42228,26.9612015 C32.22048,26.9612015 33.28242,25.9654831 33.28242,24.5079539 C33.28242,23.1803702 32.6028,22.4154961 30.98862,21.6073883 L30.12492,21.1744407 C28.85058,20.539512 28.27008,20.1498592 28.27008,19.0819829 C28.27008,18.0718329 29.04882,17.3214515 30.15324,17.3214515 C31.15854,17.3214515 31.83822,17.6966116 32.33376,18.5047805 L32.6736,18.3027383 C32.09304,17.3503147 31.3143,16.9173671 30.15324,16.9173671 C28.86474,16.9173671 27.83112,17.7687696 27.83112,19.0819829 C27.83112,20.3374698 28.56744,20.8714385 29.92668,21.549662 L30.80454,21.9826096 C32.22048,22.6752646 32.84352,23.3101933 32.84352,24.5079539 C32.84352,25.7201461 31.9656,26.5426854 30.42228,26.5426854 C29.17626,26.5426854 28.18512,25.8933252 27.63288,24.8254488 L27.25062,25.0419227 Z" id="Fill-11"></path>
                <polygon id="Fill-12" points="40.7769 26.8457488 41.23002 26.8457488 41.23002 17.0328198 40.7769 17.0328198"></polygon>
                <path d="M53.43948,26.9612015 C55.23774,26.9612015 56.35632,26.3984307 57.30498,25.5036723 L57.30498,23.0216227 L53.6802,23.0216227 L53.6802,23.425646 L56.85186,23.425646 L56.85186,25.3305544 C56.15808,25.9943463 55.15278,26.5426854 53.43948,26.5426854 C50.89086,26.5426854 48.96516,24.5801119 48.96516,21.9393148 C48.96516,19.2984567 50.86254,17.3358831 53.34036,17.3358831 C54.88374,17.3358831 55.87488,17.8986538 56.61114,18.7501175 L56.93682,18.4470542 C56.1156,17.5090621 54.95454,16.9173671 53.34036,16.9173671 C50.69262,16.9173671 48.49794,19.0386881 48.49794,21.9393148 C48.49794,24.8687436 50.70678,26.9612015 53.43948,26.9612015 Z" id="Fill-13"></path>
                <polygon id="Fill-14" points="71.8788 27.0910858 71.9358 27.0910858 71.9358 17.0328198 71.5248 17.0328198 71.5248 25.9077567 64.785 16.7874828 64.7286 16.7874828 64.7286 26.8457488 65.139 26.8457488 65.139 17.9708118"></polygon>
                <path d="M79.0194,25.0419227 C79.614,26.1819569 80.676,26.9612015 82.191,26.9612015 C83.9892,26.9612015 85.0512,25.9654831 85.0512,24.5079539 C85.0512,23.1803702 84.372,22.4154961 82.7574,21.6073883 L81.894,21.1744407 C80.6196,20.539512 80.0388,20.1498592 80.0388,19.0819829 C80.0388,18.0718329 80.8176,17.3214515 81.9222,17.3214515 C82.9272,17.3214515 83.607,17.6966116 84.1026,18.5047805 L84.4428,18.3027383 C83.862,17.3503147 83.0832,16.9173671 81.9222,16.9173671 C80.6334,16.9173671 79.6002,17.7687696 79.6002,19.0819829 C79.6002,20.3374698 80.3364,20.8714385 81.6954,21.549662 L82.5738,21.9826096 C83.9892,22.6752646 84.6126,23.3101933 84.6126,24.5079539 C84.6126,25.7201461 83.7348,26.5426854 82.191,26.5426854 C80.9454,26.5426854 79.9542,25.8933252 79.4016,24.8254488 L79.0194,25.0419227 Z" id="Fill-15"></path>
            </g>
        </g>
    </g>
</svg>