<?xml version="1.0" encoding="UTF-8"?>
<svg width="160px" height="90px" viewBox="0 0 160 90" version="1.1" xmlns="http://www.w3.org/2000/svg" xmlns:xlink="http://www.w3.org/1999/xlink">
    <!-- Generator: Sketch 49.3 (51167) - http://www.bohemiancoding.com/sketch -->
    <title>Earth Day Baton Rouge logo designed by Isral Duke</title>
    <desc>Created with Sketch.</desc>
    <defs></defs>
    <g id="Earth-Day-Baton-Rouge-logo-designed-by-Isral-Duke" stroke="none" stroke-width="1" fill="none" fill-rule="evenodd">
        <polygon id="Fill-1" fill="#5090CC" points="23.4531243 35.145006 23.4531243 19 33.6502378 19 33.6502378 23.3272754 28.8693243 23.3272754 28.8693243 24.8455509 32.6328865 24.8455509 32.6328865 29.2994551 28.8693243 29.2994551 28.8693243 30.8177305 34.1585946 30.8177305 34.1585946 35.145006"></polygon>
        <path d="M43.2366216,26.085497 C43.109373,25.7059281 42.9821243,25.2758982 42.9059027,24.7950898 L42.8551946,24.7950898 C42.778973,25.2758982 42.6517243,25.7313174 42.5499892,26.085497 L41.8123297,28.5907784 L43.9739622,28.5907784 L43.2366216,26.085497 Z M45.8303892,35.145006 L45.0675351,32.6143353 L40.7190757,32.6143353 L39.9562216,35.145006 L34.9466432,35.145006 L40.7952973,19 L45.347227,19 L51.1958811,35.145006 L45.8303892,35.145006 Z" id="Fill-2" fill="#5090CC"></path>
        <path d="M58.5957568,23.0994072 L57.5025027,23.0994072 L57.5025027,25.4275988 L58.5957568,25.4275988 C59.1806541,25.4275988 59.841773,25.0480299 59.841773,24.263503 C59.841773,23.478976 59.1806541,23.0994072 58.5957568,23.0994072 Z M61.5964649,35.145006 L58.0108595,29.527006 L57.5025027,29.527006 L57.5025027,35.145006 L52.3401622,35.145006 L52.3401622,19 L59.3079027,19 C62.5883027,19 64.9023784,21.2523413 64.9023784,24.263503 C64.9023784,25.883018 63.9615676,27.5787006 62.791773,28.1858204 L67.5723676,35.145006 L61.5964649,35.145006 Z" id="Fill-3" fill="#5090CC"></path>
        <polygon id="Fill-4" fill="#5090CC" points="76.1168432 23.1755749 76.1168432 35.145006 70.7003243 35.145006 70.7003243 23.1501856 66.1228811 23.1501856 66.1228811 19 80.668773 19 80.668773 23.1755749"></polygon>
        <polygon id="Fill-5" fill="#5090CC" points="91.2725081 35.145006 91.2725081 29.4006946 87.1023243 29.4006946 87.1023243 35.145006 81.6858054 35.145006 81.6858054 19 87.1023243 19 87.1023243 24.7443114 91.2725081 24.7443114 91.2725081 19 96.689027 19 96.689027 35.145006"></polygon>
        <path d="M61.4698541,44.4669126 L61.1391351,44.4669126 L61.1391351,51.2991521 L61.4698541,51.2991521 C63.4276973,51.2991521 65.1568757,50.059206 65.1568757,47.8833497 C65.1568757,45.7068587 63.4276973,44.4669126 61.4698541,44.4669126 M61.9526973,55.9555353 L55.9767946,55.9555353 L55.9767946,39.8105928 L61.9526973,39.8105928 C66.7591243,39.8105928 70.5733946,43.0498766 70.5733946,47.8833497 C70.5733946,52.7165054 66.7591243,55.9555353 61.9526973,55.9555353" id="Fill-6" fill="#5090CC"></path>
        <path d="M77.2100973,46.8960263 C77.0831676,46.5164575 76.9559189,46.0864275 76.8793784,45.6056192 L76.8286703,45.6056192 C76.7524486,46.0864275 76.6252,46.5418467 76.5234649,46.8960263 L75.7861243,49.4016251 L77.9477568,49.4016251 L77.2100973,46.8960263 Z M79.8038649,55.9555353 L79.0410108,53.425182 L74.6925514,53.425182 L73.9296973,55.9555353 L68.9201189,55.9555353 L74.768773,39.8105928 L79.3207027,39.8105928 L85.1696757,55.9555353 L79.8038649,55.9555353 Z" id="Fill-7" fill="#5090CC"></path>
        <path d="M92.2388324,48.9709605 L92.2388324,55.9555353 L87.0257838,55.9555353 L87.0257838,49.1483677 L81.1005892,39.8105928 L86.847827,39.8105928 L88.9332378,43.0244874 C89.1874162,43.4294455 89.5181351,44.0365653 89.7468,44.6189305 L89.797827,44.6189305 C90.0268108,44.0365653 90.3827243,43.4040563 90.6369027,43.0244874 L92.7219946,39.8105928 L98.0878054,39.8105928 L92.2388324,48.9709605 Z" id="Fill-8" fill="#5090CC"></path>
        <path d="M102.199946,27.6209102 L102.199946,33.6419641 L102.977789,33.6419641 C104.721638,33.6419641 105.404762,32.8209401 105.404762,30.7910719 C105.404762,28.6698024 104.627238,27.6209102 103.048589,27.6209102 L102.199946,27.6209102 Z M102.199946,20.8695988 L102.199946,26.3663653 L102.977789,26.3663653 C104.532838,26.3663653 105.0514,25.6592754 105.0514,23.5837066 C105.0514,21.5081377 104.603638,20.8695988 103.11907,20.8695988 L102.199946,20.8695988 Z M100.738978,19.6379042 L103.02467,19.6379042 C104.203076,19.6379042 104.792119,19.7746886 105.334281,20.162509 C106.088205,20.7099641 106.535968,21.9870419 106.535968,23.4694551 C106.535968,25.4310898 105.994124,26.4117485 104.603638,27.0506048 C106.300286,27.5066587 106.913249,28.4647844 106.913249,30.699988 C106.913249,32.4788204 106.512368,33.5737305 105.616843,34.2122695 C104.910119,34.7368743 104.391557,34.8508084 102.883389,34.8508084 L100.738978,34.8508084 L100.738978,19.6379042 Z" id="Fill-9" fill="#EEB110"></path>
        <path d="M113.141735,30.4946527 L112.10493,25.1346707 C111.822049,23.6522575 111.751568,23.1048024 111.657168,21.5538383 C111.539486,23.1958862 111.445086,24.1311617 111.256605,25.1346707 L110.2906,30.4946527 L113.141735,30.4946527 Z M112.387811,19.6379042 L115.521827,34.8508084 L113.966459,34.8508084 L113.377416,31.7263473 L110.0546,31.7263473 L109.465557,34.8508084 L107.910508,34.8508084 L111.020924,19.6379042 L112.387811,19.6379042 Z" id="Fill-10" fill="#EEB110"></path>
        <polygon id="Fill-11" fill="#EEB110" points="121.42693 19.6379042 121.42693 20.9378323 119.070119 20.9378323 119.070119 34.8508084 117.609151 34.8508084 117.609151 20.9378323 115.252659 20.9378323 115.252659 19.6379042"></polygon>
        <path d="M128.504697,27.1873892 C128.504697,22.6941317 127.797654,20.8010479 126.148205,20.8010479 C124.498438,20.8010479 123.744514,22.8309162 123.744514,27.2330898 C123.744514,31.6577964 124.498438,33.6876647 126.148205,33.6876647 C127.821254,33.6876647 128.504697,31.8174311 128.504697,27.1873892 M129.989265,27.1873892 C129.989265,32.5930719 128.787578,35.0561437 126.148205,35.0561437 C123.532432,35.0561437 122.259946,32.4788204 122.259946,27.2330898 C122.259946,22.0327425 123.532432,19.4325689 126.124605,19.4325689 C128.740378,19.4325689 129.989265,21.9416587 129.989265,27.1873892" id="Fill-12" fill="#EEB110"></path>
        <path d="M138.708189,19.6379042 L138.708189,34.8508084 L137.436022,34.8508084 L133.948005,24.8154012 L133.806724,24.3593473 L133.594643,23.6747904 L133.429762,23.1048024 L133.311762,22.6712814 L133.359281,23.1048024 C133.406162,23.720491 133.453362,24.7011497 133.453362,25.3628563 L133.453362,34.8508084 L132.180876,34.8508084 L132.180876,19.6379042 L133.453362,19.6379042 L137.011859,29.9700479 L137.129541,30.335018 L137.365222,31.087491 L137.506822,31.5435449 L137.577303,31.7717305 C137.482903,30.9278563 137.436022,30.3121677 137.436022,29.5593772 L137.436022,19.6379042 L138.708189,19.6379042 Z" id="Fill-13" fill="#EEB110"></path>
        <path d="M102.435627,41.3021461 L102.435627,46.6621281 L103.401951,46.6621281 C105.0278,46.6621281 105.593243,45.9553557 105.593243,43.993721 C105.593243,41.986703 105.0042,41.3021461 103.213151,41.3021461 L102.435627,41.3021461 Z M102.435627,47.7798886 L102.435627,55.2151222 L100.833059,55.2151222 L100.833059,40.0022814 L102.812589,40.0022814 C104.297476,40.0022814 104.910119,40.1162156 105.522443,40.4354216 C106.653649,41.0285772 107.219411,42.191721 107.219411,43.9023198 C107.219411,46.5710443 106.300286,47.756721 104.108676,47.9166731 L107.761254,55.2151222 L106.088205,55.2151222 L102.435627,47.7798886 Z" id="Fill-14" fill="#EEB110"></path>
        <path d="M114.382968,47.551703 C114.382968,43.0584455 113.675924,41.1653617 112.026476,41.1653617 C110.376708,41.1653617 109.622784,43.1952299 109.622784,47.5970862 C109.622784,52.0221102 110.376708,54.0519784 112.026476,54.0519784 C113.699524,54.0519784 114.382968,52.1817449 114.382968,47.551703 M115.867535,47.551703 C115.867535,52.9570683 114.66553,55.4204575 112.026476,55.4204575 C109.410703,55.4204575 108.138216,52.8431341 108.138216,47.5970862 C108.138216,42.3970563 109.410703,39.7969461 112.002876,39.7969461 C114.618649,39.7969461 115.867535,42.3059725 115.867535,47.551703" id="Fill-15" fill="#EEB110"></path>
        <path d="M123.714535,40.0022814 L123.714535,50.6536311 C123.714535,52.9113677 123.573254,53.6413078 122.91373,54.3940982 C122.347968,55.0783377 121.499643,55.4204575 120.415638,55.4204575 C118.860589,55.4204575 117.681865,54.6222838 117.328503,53.299188 C117.140022,52.6606491 117.116741,52.1135114 117.116741,50.6536311 L117.116741,40.0022814 L118.577708,40.0022814 L118.577708,50.539697 C118.577708,53.3677389 118.93107,54.0519784 120.415638,54.0519784 C121.900205,54.0519784 122.253568,53.3448886 122.253568,50.539697 L122.253568,40.0022814 L123.714535,40.0022814 Z" id="Fill-16" fill="#EEB110"></path>
        <path d="M128.498319,47.1867329 L132.103697,47.1867329 L132.103697,50.2429605 C132.103697,52.295679 131.938816,53.2081042 131.396654,54.0519784 C130.831211,54.9640862 129.912086,55.4204575 128.7576,55.4204575 C126.73087,55.4204575 125.623584,54.097679 125.317103,51.3835713 C125.175503,50.0604754 125.081422,48.4866611 125.081422,47.2324335 C125.081422,44.3583737 125.363984,42.6252419 126.047427,41.4392479 C126.61287,40.4128886 127.673595,39.7969461 128.898881,39.7969461 C130.57193,39.7969461 131.538254,40.6636072 132.080097,42.6706251 L130.64273,43.2180802 C130.336249,41.7356671 129.841286,41.1653617 128.898881,41.1653617 C127.273032,41.1653617 126.565989,42.9445114 126.565989,47.1184994 C126.565989,49.5815713 126.75447,51.4746551 127.060951,52.5692479 C127.343514,53.5273737 127.979757,54.0519784 128.851681,54.0519784 C130.289368,54.0519784 130.64273,53.2306371 130.64273,49.8783078 L130.64273,48.4866611 L128.498319,48.4866611 L128.498319,47.1867329 Z" id="Fill-17" fill="#EEB110"></path>
        <polygon id="Fill-18" fill="#EEB110" points="138.608049 40.0022814 138.608049 41.3021461 135.167551 41.3021461 135.167551 46.6621281 138.513649 46.6621281 138.513649 47.9623737 135.167551 47.9623737 135.167551 53.915194 138.608049 53.915194 138.608049 55.2151222 133.706265 55.2151222 133.706265 40.0022814"></polygon>
        <polygon id="Fill-19" fill="#439538" points="55.8619838 59.9987689 59.2587892 59.9987689 59.2587892 61.0892359 57.1411676 61.0892359 57.1411676 64.1308647 59.0173676 64.1308647 59.0173676 65.2216491 57.1411676 65.2216491 57.1411676 68.4784515 59.2587892 68.4784515 59.2587892 69.5692359 55.8619838 69.5692359"></polygon>
        <path d="M61.7036216,68.4498886 L61.7603892,68.4498886 C63.2385784,68.4498886 63.664973,67.6752 63.664973,64.9633138 C63.664973,61.9930922 63.2529297,61.0892359 61.8598919,61.0892359 L61.7036216,61.0892359 L61.7036216,68.4498886 Z M60.4244378,59.9987689 L62.0021297,59.9987689 C63.0966595,59.9987689 63.664973,60.228224 64.1484541,60.8737449 C64.6459676,61.5338647 64.8730378,62.2514275 64.9585081,63.5285054 C64.9868919,63.9877329 65.0012432,64.4609246 65.0012432,64.9201521 C65.0012432,66.9433557 64.7311189,68.1198287 64.0913676,68.8085114 C63.5654703,69.3683437 62.8689514,69.5692359 61.4618811,69.5692359 L60.4244378,69.5692359 L60.4244378,59.9987689 Z" id="Fill-20" fill="#439538"></path>
        <path d="M66.2660757,59.9987689 L67.5168757,59.9987689 L67.5168757,66.7567449 C67.5168757,68.1341102 67.7018486,68.4784515 68.4407838,68.4784515 C69.2084216,68.4784515 69.3787243,68.1915533 69.3787243,66.9433557 L69.3787243,59.9987689 L70.6298432,59.9987689 L70.6298432,66.9433557 C70.6298432,68.3496012 70.4448703,68.923715 69.8762378,69.3109006 C69.4925784,69.5692359 69.0378,69.6984036 68.4267514,69.6984036 C67.3178703,69.6984036 66.5929676,69.2106132 66.3939622,68.3064395 C66.2947784,67.9192539 66.2660757,67.5460323 66.2660757,66.7567449 L66.2660757,59.9987689 Z" id="Fill-21" fill="#439538"></path>
        <path d="M75.8033459,60.1564994 L75.8033459,61.318691 C75.4053351,61.1177988 75.2347135,61.0746371 74.9789405,61.0746371 C74.2680703,61.0746371 73.6997568,61.6055892 73.4864,62.4666012 C73.3160973,63.1121222 73.2449784,63.9014096 73.2449784,64.8484275 C73.2449784,67.287697 73.8276432,68.4356072 75.0500595,68.4356072 C75.3201838,68.4356072 75.4764541,68.4070443 75.8033459,68.2493138 L75.8033459,69.4257868 C75.4053351,69.6552419 75.2490649,69.6984036 74.7659027,69.6984036 C72.8469676,69.6984036 71.8946757,68.1055473 71.8946757,64.948715 C71.8946757,61.5195832 72.8185838,59.8838826 74.7375189,59.8838826 C75.1779459,59.8838826 75.3629189,59.9270443 75.8033459,60.1564994" id="Fill-22" fill="#439538"></path>
        <path d="M79.7888757,66.7139006 L79.5187514,65.1784874 C79.3481297,64.3174754 79.1491243,62.825224 79.0499405,61.8639246 C78.9928541,62.437721 78.9644703,62.6674934 78.8933514,63.1984455 C78.7794973,64.0305772 78.7086973,64.4323617 78.5096919,65.4796671 L78.2823027,66.7139006 L79.7888757,66.7139006 Z M78.5664595,59.9987689 L79.5758378,59.9987689 L81.5939568,69.5692359 L80.3288054,69.5692359 L79.9735297,67.7037629 L78.0973297,67.7037629 L77.7420541,69.5692359 L76.5056054,69.5692359 L78.5664595,59.9987689 Z" id="Fill-23" fill="#439538"></path>
        <polygon id="Fill-24" fill="#439538" points="81.3818757 59.9987689 85.5466378 59.9987689 85.5466378 61.1320802 84.1108649 61.1320802 84.1108649 69.5692359 82.8600649 69.5692359 82.8600649 61.1320802 81.3818757 61.1320802"></polygon>
        <polygon id="Fill-25" fill="#439538" points="86.2428378 59.9987689 89.6399622 59.9987689 89.6399622 61.0892359 87.5220216 61.0892359 87.5220216 64.1308647 89.3982216 64.1308647 89.3982216 65.2216491 87.5220216 65.2216491 87.5220216 68.4784515 89.6399622 68.4784515 89.6399622 69.5692359 86.2428378 69.5692359"></polygon>
        <polygon id="Fill-26" fill="#439538" points="91.1041189 68.234715 92.1272108 68.536212 90.9191459 71.9079006 90.2653622 71.7216072"></polygon>
        <path d="M100.740573,60.1564994 L100.740573,61.318691 C100.342562,61.1177988 100.171941,61.0746371 99.9161676,61.0746371 C99.2056162,61.0746371 98.6369838,61.6055892 98.4239459,62.4666012 C98.2533243,63.1121222 98.1822054,63.9014096 98.1822054,64.8484275 C98.1822054,67.287697 98.7648703,68.4356072 99.9872865,68.4356072 C100.257411,68.4356072 100.413681,68.4070443 100.740573,68.2493138 L100.740573,69.4257868 C100.342562,69.6552419 100.186292,69.6984036 99.7028108,69.6984036 C97.7841946,69.6984036 96.8315838,68.1055473 96.8315838,64.948715 C96.8315838,61.5195832 97.7558108,59.8838826 99.6747459,59.8838826 C100.115173,59.8838826 100.299827,59.9270443 100.740573,60.1564994" id="Fill-27" fill="#439538"></path>
        <polygon id="Fill-28" fill="#439538" points="101.8064 59.9987689 105.203205 59.9987689 105.203205 61.0892359 103.085584 61.0892359 103.085584 64.1308647 104.961784 64.1308647 104.961784 65.2216491 103.085584 65.2216491 103.085584 68.4784515 105.203205 68.4784515 105.203205 69.5692359 101.8064 69.5692359"></polygon>
        <polygon id="Fill-29" fill="#439538" points="106.369173 59.9987689 107.648038 59.9987689 107.648038 68.4784515 109.737595 68.4784515 109.737595 69.5692359 106.369173 69.5692359"></polygon>
        <polygon id="Fill-30" fill="#439538" points="110.533616 59.9987689 113.930741 59.9987689 113.930741 61.0892359 111.8128 61.0892359 111.8128 64.1308647 113.689 64.1308647 113.689 65.2216491 111.8128 65.2216491 111.8128 68.4784515 113.930741 68.4784515 113.930741 69.5692359 110.533616 69.5692359"></polygon>
        <path d="M116.304454,68.4641701 C117.384632,68.4356072 117.683141,68.0912659 117.683141,66.9005114 C117.683141,65.6662778 117.327865,65.2356132 116.304454,65.2356132 L116.304454,68.4641701 Z M116.304454,64.217188 L116.389924,64.217188 C117.28513,64.217188 117.626373,63.7722419 117.626373,62.6243317 C117.626373,61.5481461 117.270778,61.0460743 116.517492,61.0460743 L116.304454,61.0460743 L116.304454,64.217188 Z M115.096389,59.9987689 L116.830351,59.9987689 C118.209038,59.9987689 118.862822,60.8309006 118.862822,62.5526072 C118.862822,63.8442838 118.564314,64.3892 117.668789,64.7049784 C118.6922,65.1210443 119.005059,65.6519964 119.005059,66.9433557 C119.005059,68.7225054 118.279838,69.5692359 116.773584,69.5692359 L115.096389,69.5692359 L115.096389,59.9987689 Z" id="Fill-31" fill="#439538"></path>
        <path d="M121.549076,64.2457509 C122.544103,64.2314695 122.91373,63.829685 122.91373,62.7246192 C122.91373,61.5338647 122.586519,61.0603557 121.762114,61.0603557 L121.549076,61.0603557 L121.549076,64.2457509 Z M120.270211,59.9987689 L121.961119,59.9987689 C122.657957,59.9987689 122.998881,60.0847749 123.340124,60.3570743 C123.866022,60.7734575 124.150497,61.5195832 124.150497,62.4808826 C124.150497,63.8442838 123.681368,64.7195772 122.842611,64.9201521 L124.590605,69.5692359 L123.283357,69.5692359 L121.549076,64.8915892 L121.549076,69.5692359 L120.270211,69.5692359 L120.270211,59.9987689 Z" id="Fill-32" fill="#439538"></path>
        <path d="M128.546795,66.7139006 L128.27667,65.1784874 C128.106049,64.3174754 127.907043,62.825224 127.807541,61.8639246 C127.750773,62.437721 127.722389,62.6674934 127.65127,63.1984455 C127.537735,64.0305772 127.466297,64.4323617 127.267611,65.4796671 L127.039903,66.7139006 L128.546795,66.7139006 Z M127.324378,59.9987689 L128.333438,59.9987689 L130.351876,69.5692359 L129.086724,69.5692359 L128.731449,67.7037629 L126.855249,67.7037629 L126.499973,69.5692359 L125.263524,69.5692359 L127.324378,59.9987689 Z" id="Fill-33" fill="#439538"></path>
        <polygon id="Fill-34" fill="#439538" points="130.139476 59.9987689 134.304238 59.9987689 134.304238 61.1320802 132.868465 61.1320802 132.868465 69.5692359 131.617665 69.5692359 131.617665 61.1320802 130.139476 61.1320802"></polygon>
        <polygon id="Fill-35" fill="#439538" points="135.000438 59.9987689 138.397243 59.9987689 138.397243 61.0892359 136.279622 61.0892359 136.279622 64.1308647 138.155822 64.1308647 138.155822 65.2216491 136.279622 65.2216491 136.279622 68.4784515 138.397243 68.4784515 138.397243 69.5692359 135.000438 69.5692359"></polygon>
        <path d="M24.0737405,55.7486132 C24.0737405,61.8309186 29.2603189,66.7615054 35.6581514,66.7615054 C42.0553459,66.7615054 47.2409676,61.8309186 47.2409676,55.7486132 C47.2409676,49.6663078 42.0553459,44.7363557 35.6581514,44.7363557 C29.2603189,44.7363557 24.0737405,49.6663078 24.0737405,55.7486132" id="Fill-36" fill="#5090CC"></path>
        <path d="M34.892427,46.2098826 L31.5460108,45.1720982 L35.1204541,46.3054096 C35.0474216,46.2689126 34.9727946,46.2343198 34.892427,46.2098826" id="Fill-37" fill="#FFFFFF"></path>
        <path d="M22.2763135,60.0819186 C24.8557297,70.4778527 35.0888811,71.2795174 40.1185514,69.769176 C46.8400865,67.8335653 50.0315081,63.5386611 54.5008378,57.5395054 C54.5008378,57.5395054 37.9782865,54.7251102 28.8935622,62.3009365 C26.2704541,64.508212 24.6803243,58.4173377 24.8895351,55.494721 C25.0694054,52.990709 26.7124757,49.9995413 31.2707838,49.463194 L31.4927514,49.8414934 C31.4927514,49.8414934 32.1864,49.5885533 34.754973,49.4133677 C36.5026486,49.3505293 36.4037838,46.9134814 35.1204541,46.2635174 C35.1204541,46.2635174 33.5006649,45.0045293 31.5460108,45.1720982 C31.1687297,45.2603257 19.2609351,47.9290503 22.2763135,60.0819186" id="Fill-38" fill="#B6D293"></path>
        <path d="M31.9806973,47.2121222 C31.9806973,46.7503557 32.359573,46.3771341 32.8267892,46.3771341 C33.2946432,46.3771341 33.6728811,46.7503557 33.6728811,47.2121222 C33.6728811,47.6732539 33.2946432,48.0477449 32.8267892,48.0477449 C32.359573,48.0477449 31.9806973,47.6732539 31.9806973,47.2121222" id="Fill-39" fill="#439538"></path>
        <path d="M37.7910811,56.9641222 C29.728173,56.6902359 30.7439297,49.6142599 31.2707838,49.463194 C31.8483459,49.3943257 32.851027,49.2448467 34.644627,49.3248228 C36.3814595,49.4016251 36.5501676,47.0899365 35.0907946,46.2438407 C34.6691838,46.1086431 49.8120919,50.5216072 49.8120919,50.5216072 C46.6790324,51.6295293 45.2694108,57.217697 37.7910811,56.9641222" id="Fill-40" fill="#EEB110"></path>
        <path d="M27.2201946,68.5079665 C34.2979622,73.4947269 46.9003622,62.6173497 45.4291892,63.5304096 C28.1820541,74.2408527 23.5829243,63.7728766 23.5829243,63.7728766 C23.5829243,63.7728766 23.6846595,66.0172838 27.2201946,68.5079665" id="Fill-41" fill="#439538"></path>
        <path d="M54.1162216,57.5049126 C50.0037622,63.0140563 46.3961514,67.7957988 40.1185514,69.769176 C35.108973,71.3426731 24.8557297,70.4778527 22.2763135,60.0819186 C19.6445946,49.476206 29.4631514,45.6865473 32.0696757,45.153691 L31.5460108,45.1720982 C31.5460108,45.1720982 28.1594108,45.4478886 24.8873027,48.3616192 C15.2195946,56.9672958 24.9061189,75.4804814 39.4389351,71.0732299 C48.2828757,68.390224 54.5008378,57.5395054 54.5008378,57.5395054 L54.1162216,57.5049126 Z" id="Fill-42" fill="#439538"></path>
        <path d="M33.4713243,68.2772419 C35.0764432,68.1826671 37.4051892,66.4428707 38.2783892,65.2594156 C37.9961459,66.0474335 36.8222054,67.2803976 36.0829514,67.8008766 C35.4872108,68.2197988 34.3244324,68.3610263 33.5925135,68.3416671" id="Fill-43" fill="#439538"></path>
        <path d="M38.8068378,67.0658587 C40.0011892,66.6488407 41.3872108,64.8303377 41.7912811,63.7471701 C41.7488649,64.4050683 41.1272919,65.5901102 40.6808054,66.1432778 C40.320427,66.5888587 39.4701892,66.9446251 38.9124,67.0880743" id="Fill-44" fill="#439538"></path>
    </g>
</svg>