<?xml version="1.0" encoding="UTF-8"?>
<svg width="160px" height="90px" viewBox="0 0 160 90" version="1.1" xmlns="http://www.w3.org/2000/svg" xmlns:xlink="http://www.w3.org/1999/xlink">
    <!-- Generator: Sketch 49.3 (51167) - http://www.bohemiancoding.com/sketch -->
    <title>ecoLogos logo designed by Isral Duke</title>
    <desc>Created with Sketch.</desc>
    <defs></defs>
    <g id="ecoLogos-logo-designed-by-Isral-Duke" stroke="none" stroke-width="1" fill="none" fill-rule="evenodd">
        <g id="Page-1" transform="translate(28.000000, 12.000000)">
            <path d="M55.98,16.1492 C55.99,16.1452 56.674,12.7472 56.72,12.3892 C56.858,11.3612 57.194,10.4432 57.63,9.4792 C58.288,8.0292 58.806,6.8092 59.976,5.6372 C61.236,4.3772 61.994,2.7312 63.726,1.9732 C66.684,0.6772 69.702,0.4492 72.866,0.0992 C74.402,-0.0728 75.806,-0.0288 77.32,0.2932 C78.84,0.6152 80.342,1.1712 81.86,1.4452 C83.374,1.7152 85.162,2.0432 86.576,2.6552 C88.256,3.3812 89.378,4.5112 90.864,5.4932 C93.152,7.0052 95.776,9.3452 96.254,12.2012 C96.534,13.8692 96.392,15.4652 96.38,17.1632 C96.37,18.8452 96.254,20.4032 95.576,21.9692 C94.952,23.3972 94.164,24.2912 93.026,25.3372 C91.852,26.4172 89.868,26.7352 88.36,27.0912 C86.894,27.4392 85.526,28.2052 84.062,28.5712 C82.428,28.9812 80.892,28.8872 79.24,28.9692 C78.874,28.9852 77.628,29.0592 77.37,29.3092 L74.194,33.8992 C74.194,33.8992 73.15,33.1672 72.784,32.9492 C73.276,32.2092 73.928,30.5092 73.692,28.5192 C71.518,29.0592 69.346,27.9812 67.162,28.0012 C66.204,28.0092 65.37,27.6392 64.466,27.5452 C63.24,27.4212 62.408,26.7412 61.392,26.1212 C59.642,25.0492 58.578,23.3352 57.674,21.5592 C56.798,19.8432 55.98,18.0772 55.98,16.0912" id="Fill-1" fill="#231F20"></path>
            <path d="M58.768,10.6832 C59.092,9.5932 60.6,7.0812 61.218,6.5432 C62.264,5.6372 63.294,4.8932 64.378,4.0472 C65.4,3.2512 67.018,2.7632 68.248,2.2932 C69.736,1.7232 71.748,2.2332 73.302,1.8992 C75.694,1.3872 77.776,2.0252 80.138,2.5532 C84.514,3.5332 87.904,5.3632 91.09,8.4352 C94.142,11.3832 95.348,17.5112 93.632,21.3092 C91.794,25.3712 87.096,25.5352 83.298,26.1132 C81.658,26.3612 79.968,26.3732 78.326,26.5892 C78.326,26.5892 77.446,26.7412 76.952,26.8492 C76.652,26.9152 75.53,28.8392 75.53,28.8392 C75.53,28.8392 74.96,26.9392 74.582,26.8492 C73.962,26.7012 73.644,26.5972 73.45,26.5372 C70.93,25.7892 66.258,25.8752 64.048,25.1292 C61.986,24.4372 61.44,22.7792 60.244,21.1672 C59.02,19.5132 57.528,17.5352 57.514,15.4892 C57.502,14.0632 58.768,10.6832 58.768,10.6832" id="Fill-2" fill="#9FD2F1"></path>
            <path d="M76.106,20.3172 C76.026,19.8512 75.816,19.4392 75.606,19.0212 C75.554,18.9212 75.478,18.8532 75.434,18.7472 C75.384,18.6372 75.356,18.5632 75.29,18.4592 C75.19,18.2932 75.132,18.0992 75.026,17.9312 C74.832,17.6072 74.608,17.3092 74.416,16.9832 C74.332,16.8412 74.232,16.6872 74.162,16.5412 C74.098,16.4012 74.026,16.2872 73.938,16.1552 C73.856,16.0352 73.734,15.9432 73.658,15.8212 C73.632,15.7792 73.614,15.7252 73.59,15.6792 C73.55,15.6112 73.51,15.5512 73.47,15.4832 C73.386,15.3472 73.318,15.1952 73.228,15.0512 C73.132,14.8992 72.844,14.5872 72.796,14.5592 C72.762,14.5392 72.55,14.4572 72.496,14.4412 C72.424,14.4212 72.346,14.4152 72.272,14.3972 C72.104,14.3512 71.946,14.2772 71.778,14.2292 C71.562,14.1652 71.358,14.0312 71.144,13.9512 C70.83,13.8312 70.526,13.7152 70.194,13.6512 C69.904,13.5952 69.612,13.4692 69.332,13.3752 C69.062,13.2852 68.794,13.1932 68.528,13.0872 C68.312,13.0012 68.108,12.9012 67.894,12.7992 C67.824,12.7652 67.746,12.7352 67.668,12.7072 C67.668,12.6392 67.666,12.5712 67.656,12.5112 C67.646,12.4592 67.612,12.4212 67.604,12.3672 C67.596,12.3232 67.61,12.2692 67.608,12.2252 C67.602,12.1212 67.55,12.0332 67.522,11.9372 C67.456,11.7172 67.312,11.4772 67.174,11.3012 C67.028,11.1232 66.898,10.9392 66.694,10.8192 C66.522,10.7212 66.334,10.6092 66.128,10.5912 C65.916,10.5712 65.716,10.5392 65.492,10.5452 C65.388,10.5492 65.308,10.5912 65.206,10.5952 C65.108,10.5992 65.014,10.6172 64.92,10.6412 C64.872,10.6512 64.818,10.6692 64.776,10.6872 C64.724,10.7112 64.684,10.7532 64.63,10.7752 C64.584,10.7972 64.534,10.7972 64.486,10.8192 C64.434,10.8432 64.396,10.8972 64.344,10.9192 C64.286,10.9432 64.264,10.9392 64.208,10.9752 C64.182,10.9932 64.134,11.0352 64.104,11.0592 C64.028,11.1132 63.964,11.1892 63.9,11.2532 C63.806,11.3452 63.73,11.4572 63.662,11.5752 C63.634,11.5712 63.61,11.5672 63.588,11.5632 C63.444,11.5412 63.298,11.5532 63.154,11.5532 C63.014,11.5532 62.888,11.5672 62.752,11.6012 C62.662,11.6192 62.568,11.6252 62.482,11.6472 C62.36,11.6772 62.26,11.7452 62.136,11.7812 C61.712,11.9052 61.334,12.1712 60.94,12.3672 C60.56,12.5552 60.202,12.8172 59.882,13.0852 C59.67,13.2632 59.478,13.4892 59.316,13.7112 C59.174,13.9112 59.028,14.0852 58.97,14.3352 C58.826,14.9452 59.006,15.5932 59.26,16.1572 C59.302,16.2512 59.31,16.3512 59.352,16.4452 C59.396,16.5472 59.454,16.6412 59.498,16.7412 C59.61,17.0032 59.694,17.2512 59.848,17.4912 C59.97,17.6852 60.118,17.8712 60.22,18.0752 C60.27,18.1752 60.308,18.2732 60.372,18.3632 C60.454,18.4812 60.518,18.6312 60.614,18.7372 C60.864,19.0252 61.04,19.3832 61.272,19.6932 C61.524,20.0332 61.818,20.3992 62.186,20.6172 C62.298,20.6832 62.346,20.7652 62.436,20.8492 C62.522,20.9292 62.622,20.9572 62.702,21.0492 C62.86,21.2292 63.052,21.3232 63.24,21.4692 C63.658,21.7872 64.146,21.9812 64.596,22.2492 C64.674,22.2972 64.756,22.3312 64.826,22.3932 C64.876,22.4372 64.908,22.4912 64.964,22.5272 C65.038,22.5732 65.094,22.5772 65.16,22.6432 C65.228,22.7072 65.258,22.7672 65.338,22.8252 C65.492,22.9392 65.674,23.0092 65.822,23.1252 C65.944,23.2232 66.072,23.3172 66.212,23.3892 C66.432,23.4972 66.684,23.4972 66.922,23.4972 C67.264,23.4972 67.588,23.5452 67.93,23.5452 C68.584,23.5452 69.226,23.6632 69.868,23.7472 C70.236,23.7952 70.598,23.8712 70.96,23.9292 C71.046,23.9392 71.128,23.9692 71.212,23.9792 C71.318,23.9912 71.422,23.9672 71.528,23.9852 C71.742,24.0252 71.954,23.9932 72.164,24.0352 C72.33,24.0672 72.48,24.0772 72.654,24.0732 C72.82,24.0672 72.968,24.0132 73.132,23.9852 C73.408,23.9432 73.694,23.8992 73.944,23.7752 C74.09,23.7052 74.234,23.6152 74.37,23.5332 C74.518,23.4452 74.618,23.3032 74.754,23.2032 C74.864,23.1232 74.978,23.0572 75.078,22.9592 C75.194,22.8432 75.286,22.7032 75.398,22.5852 C75.482,22.4972 75.542,22.4672 75.606,22.3572 C75.662,22.2492 75.744,22.1712 75.808,22.0692 C75.9,21.9232 75.98,21.7412 76.036,21.5812 C76.11,21.3732 76.07,21.1792 76.094,20.9692 C76.106,20.8632 76.14,20.7732 76.144,20.6652 C76.15,20.5392 76.126,20.4392 76.106,20.3172" id="Fill-3" fill="#8CC63F"></path>
            <path d="M67.27,10.0672 C67.342,10.1772 67.444,10.2872 67.522,10.4012 C67.628,10.5592 67.718,10.6872 67.894,10.7732 C68.196,10.9252 68.546,10.7952 68.844,10.6772 C68.978,10.6232 69.078,10.5412 69.19,10.4512 C69.32,10.3472 69.344,10.1652 69.392,10.0172 C69.456,9.8152 69.506,9.3472 69.336,9.1892 C69.238,9.1012 69.118,9.0132 68.994,8.9752 C68.864,8.9352 68.746,8.8632 68.61,8.8652 C68.484,8.8692 68.358,8.8672 68.23,8.8652 C68.128,8.8652 68.058,8.8832 67.994,8.9152 C67.724,8.9092 67.46,9.1372 67.258,9.2852 C67.2,9.3252 67.14,9.3612 67.11,9.4312 C67.082,9.5032 67.12,9.5332 67.126,9.6232 C67.144,9.7892 67.178,9.9292 67.27,10.0672" id="Fill-4" fill="#8CC63F"></path>
            <path d="M70.158,9.4772 C70.33,9.6012 70.504,9.5052 70.676,9.4292 C70.756,9.3932 70.834,9.3992 70.918,9.3592 C70.988,9.3252 71.062,9.2712 71.12,9.2152 C71.26,9.0792 71.286,8.9252 71.216,8.7592 C71.156,8.6212 71.024,8.4272 70.868,8.3852 C70.78,8.3592 70.566,8.4192 70.456,8.5132 L70.53,8.3872 C70.434,8.4832 70.292,8.5172 70.206,8.6372 C70.122,8.7552 70.076,8.9132 70.04,9.0472 C70.022,9.1232 69.99,9.1552 70.014,9.2492 C70.038,9.3492 70.074,9.4172 70.158,9.4772" id="Fill-5" fill="#8CC63F"></path>
            <path d="M75.808,4.1172 C75.92,4.1072 76.03,4.0132 76.142,3.9832 C76.314,3.9392 76.484,3.9232 76.66,3.9252 C77.03,3.9272 77.42,3.8872 77.784,3.9372 C77.96,3.9612 78.122,4.0232 78.304,4.0232 C78.484,4.0232 78.692,4.0592 78.864,4.1152 C79.442,4.3112 80.072,4.3212 80.664,4.4632 C80.92,4.5252 81.208,4.5552 81.456,4.6452 C81.594,4.6912 81.708,4.7232 81.854,4.7512 C81.988,4.7792 82.104,4.8472 82.236,4.8752 C82.51,4.9332 82.778,5.0232 83.038,5.1252 C83.172,5.1772 83.304,5.2232 83.438,5.2692 C83.618,5.3292 83.776,5.4372 83.95,5.5112 C84.07,5.5612 84.194,5.5992 84.312,5.6512 C84.43,5.7032 84.52,5.7852 84.632,5.8452 C84.86,5.9672 85.09,6.0912 85.318,6.2152 C85.556,6.3472 85.792,6.4932 86.038,6.6112 C86.308,6.7452 86.548,6.9212 86.828,7.0412 C87.06,7.1432 87.308,7.2712 87.514,7.4172 C87.714,7.5612 87.952,7.6332 88.136,7.8092 C88.354,8.0232 88.62,8.1792 88.856,8.3752 C89.126,8.6012 89.394,8.8372 89.674,9.0492 C90.044,9.3312 90.362,9.6532 90.694,9.9832 C90.816,10.1092 90.942,10.2372 91.06,10.3652 C91.202,10.5152 91.368,10.6552 91.496,10.8192 C91.554,10.8932 91.582,10.9832 91.636,11.0612 C91.694,11.1512 91.778,11.2152 91.83,11.3112 C91.932,11.4912 92.026,11.6792 92.116,11.8612 C92.194,12.0172 92.29,12.1712 92.358,12.3312 C92.392,12.4132 92.388,12.4752 92.414,12.5612 C92.444,12.6712 92.51,12.7852 92.546,12.8952 C92.61,13.0652 92.67,13.2392 92.73,13.4112 C92.788,13.5872 92.776,13.7212 92.786,13.9032 C92.798,14.0832 92.836,14.2472 92.836,14.4312 C92.836,14.6092 92.792,14.7692 92.79,14.9452 C92.784,15.1692 92.658,15.3572 92.61,15.5712 C92.582,15.6692 92.558,15.7312 92.512,15.8212 C92.454,15.9372 92.382,16.0132 92.32,16.1192 C92.264,16.2132 92.24,16.3072 92.166,16.3992 C92.086,16.4932 92.014,16.5972 91.926,16.6852 C91.778,16.8372 91.71,17.0192 91.542,17.1652 C91.202,17.4632 90.778,17.7172 90.33,17.8252 C90.076,17.8892 89.83,17.9312 89.564,17.9312 C89.252,17.9332 88.974,17.8032 88.666,17.7872 C88.342,17.7692 88.058,17.6792 87.75,17.5852 C87.642,17.5512 87.518,17.5052 87.418,17.4552 C87.362,17.4252 87.308,17.3912 87.262,17.3552 C87.18,17.3152 87.096,17.3032 87.018,17.2612 C86.856,17.1792 86.682,17.0832 86.54,16.9732 C86.482,16.9252 86.436,16.8952 86.36,16.8772 C86.33,16.8692 86.306,16.8592 86.276,16.8452 C86.21,16.8612 86.162,16.9692 86.118,17.0132 C86.062,17.0692 85.988,17.0972 85.928,17.1532 C85.846,17.2292 85.808,17.2692 85.702,17.3192 C85.412,17.4592 85.158,17.6512 84.864,17.7852 C84.528,17.9352 84.218,18.1672 83.902,18.3532 C83.756,18.4392 83.598,18.5252 83.444,18.6052 C83.36,18.6532 83.248,18.7012 83.152,18.7292 C83.284,18.5772 83.36,18.3252 83.44,18.1392 C83.506,17.9732 83.6,17.8172 83.674,17.6552 C83.82,17.3392 83.986,17.0192 84.098,16.6872 C84.198,16.3792 84.238,16.0372 84.358,15.7372 C84.41,15.6032 84.476,15.4752 84.526,15.3392 C84.54,15.3072 84.572,15.2352 84.58,15.2052 C84.61,15.0572 84.462,14.8972 84.402,14.7712 C84.312,14.5832 84.178,14.4532 84.002,14.3472 C83.89,14.2792 83.78,14.2172 83.674,14.1452 C83.61,14.1012 83.552,14.0332 83.482,13.9952 C83.376,13.9372 83.282,13.9252 83.184,13.8452 C82.828,13.5512 82.334,13.4132 81.912,13.2312 C81.686,13.1352 81.448,13.0952 81.228,12.9932 C80.95,12.8632 80.674,12.7612 80.376,12.6932 C80.112,12.6332 79.872,12.5112 79.608,12.4532 C79.382,12.4032 79.178,12.2772 78.974,12.1772 C78.804,12.0932 78.606,12.0252 78.446,11.9292 C78.228,11.7912 78.014,11.6652 77.776,11.5532 C77.556,11.4472 77.32,11.3732 77.1,11.2652 C76.922,11.1752 76.75,11.0712 76.574,10.9772 C76.412,10.8912 76.264,10.7872 76.11,10.6892 C75.92,10.5652 75.706,10.4732 75.52,10.3432 C75.334,10.2132 75.14,10.1232 74.942,10.0172 C74.788,9.9372 74.664,9.8152 74.514,9.7292 C74.232,9.5712 74.026,9.3112 73.84,9.0592 C73.808,9.0172 73.768,8.9612 73.744,8.9152 C73.704,8.8412 73.714,8.7872 73.69,8.7092 C73.666,8.6412 73.612,8.5872 73.588,8.5212 C73.558,8.4492 73.558,8.3772 73.542,8.3032 C73.502,8.1252 73.458,7.9972 73.458,7.8092 C73.458,7.6272 73.38,7.4552 73.408,7.2712 C73.44,7.0372 73.492,6.7932 73.554,6.5652 C73.582,6.4632 73.614,6.3652 73.648,6.2652 C73.688,6.1452 73.758,6.0492 73.804,5.9292 C73.88,5.7312 74.014,5.5332 74.14,5.3612 C74.162,5.3372 74.188,5.3172 74.216,5.3072 C74.24,5.2652 74.244,5.2252 74.274,5.1832 C74.324,5.1072 74.412,5.0152 74.478,4.9412 C74.714,4.6832 75.092,4.6032 75.378,4.4172 C75.65,4.2392 75.948,4.0192 76.286,4.0232" id="Fill-6" fill="#8CC63F"></path>
            <path d="M61.29,13.1772 C61.468,13.0912 61.618,12.9932 61.764,12.8592 C61.94,12.7012 62.1,12.6172 62.322,12.5652 C62.556,12.5092 62.76,12.4092 62.992,12.3992 C63.12,12.3932 63.218,12.3372 63.354,12.3392 C63.494,12.3412 63.644,12.3172 63.778,12.3512 C63.892,12.3792 64.028,12.4552 64.144,12.4632 C64.286,12.4732 64.3,12.3712 64.368,12.2752 C64.5,12.0952 64.704,11.9472 64.886,11.8152 C65.068,11.6792 65.306,11.6172 65.536,11.6192 C65.658,11.6192 65.778,11.6172 65.902,11.6192 C66.06,11.6212 66.126,11.6752 66.264,11.7372 C66.376,11.7952 66.46,11.8452 66.566,11.9192 C66.696,12.0092 66.72,12.0872 66.794,12.2212 C66.854,12.3212 66.888,12.4052 66.932,12.5192 C66.954,12.5792 66.972,12.6392 66.994,12.6992 C67.012,12.7492 67.042,12.8232 67.056,12.8752 C67.068,12.9272 67.05,13.0012 67.05,13.0572 C67.056,13.1352 67.082,13.1652 67.1,13.2372 C67.126,13.3432 67.068,13.5072 67.11,13.6012 C67.156,13.7052 67.312,13.6432 67.418,13.6692 C67.554,13.7052 67.688,13.7032 67.826,13.7292 C68.344,13.8352 68.838,14.0752 69.358,14.1932 C69.592,14.2472 69.796,14.4132 70.026,14.4812 C70.302,14.5632 70.556,14.7092 70.828,14.8092 C71.066,14.8992 71.322,14.9452 71.538,15.0492 C71.642,15.0972 71.772,15.1352 71.86,15.1972 C71.946,15.2612 72.034,15.3592 72.104,15.4392 C72.264,15.6272 72.424,15.8192 72.572,16.0072 C72.658,16.1172 72.686,16.2352 72.75,16.3552 C72.838,16.5032 72.958,16.6252 73.054,16.7712 C73.142,16.9052 73.264,16.9972 73.346,17.1312 C73.424,17.2652 73.484,17.3752 73.592,17.4952 C73.666,17.5792 73.69,17.6372 73.738,17.7312 C73.792,17.8452 73.884,17.9392 73.95,18.0452 C74.022,18.1592 74.09,18.2792 74.148,18.3932 C74.204,18.4992 74.294,18.5672 74.346,18.6912 C74.452,18.9452 74.608,19.1692 74.738,19.4072 C74.804,19.5272 74.85,19.6412 74.892,19.7712 C74.928,19.8932 75.012,20.0092 75.046,20.1292 C75.122,20.3952 75.14,20.6432 75.07,20.9092 C75.038,21.0332 75.046,21.1432 74.998,21.2672 C74.948,21.3892 74.922,21.5092 74.862,21.6272 C74.746,21.8532 74.634,22.0472 74.464,22.2272 C74.324,22.3752 74.184,22.4972 73.966,22.5292 C73.706,22.5692 73.448,22.6072 73.192,22.6592 C73.15,22.6672 73.114,22.7012 73.058,22.7072 C72.998,22.7152 72.946,22.7072 72.888,22.7192 C72.85,22.7292 72.812,22.7592 72.756,22.7672 C72.698,22.7752 72.628,22.7672 72.572,22.7652 C72.264,22.7652 71.954,22.7652 71.646,22.7652 C71.038,22.7652 70.446,22.7712 69.858,22.6592 C69.716,22.6332 69.562,22.6452 69.42,22.6472 C69.278,22.6492 69.178,22.5932 69.04,22.5832 C68.886,22.5752 68.72,22.6072 68.566,22.5872 C68.412,22.5692 68.29,22.5252 68.132,22.5252 C67.972,22.5272 67.864,22.5172 67.718,22.4812 C67.6,22.4492 67.478,22.4912 67.356,22.4692 C67.068,22.4212 66.818,22.2872 66.566,22.1512 C66.326,22.0192 66.08,21.8952 65.842,21.7652 C65.568,21.6152 65.31,21.4232 65.052,21.2552 C64.842,21.1172 64.61,20.9932 64.386,20.8652 C64.092,20.6932 63.864,20.4652 63.596,20.2632 C63.478,20.1732 63.404,20.0572 63.294,19.9492 C63.174,19.8332 63.068,19.7252 62.978,19.5892 C62.838,19.3872 62.69,19.1892 62.552,18.9932 C62.478,18.8832 62.398,18.7752 62.322,18.6792 C62.232,18.5632 62.178,18.4292 62.08,18.3152 C61.994,18.2152 61.904,18.0932 61.85,17.9712 C61.818,17.8992 61.826,17.8712 61.778,17.8052 C61.736,17.7392 61.68,17.6932 61.642,17.6112 C61.588,17.5032 61.524,17.4152 61.458,17.3152 C61.42,17.2592 61.404,17.1892 61.368,17.1312 C61.332,17.0692 61.282,17.0492 61.244,16.9992 C61.082,16.7832 61.006,16.5292 60.884,16.2952 C60.752,16.0392 60.694,15.7792 60.626,15.5152 C60.556,15.2272 60.514,14.9032 60.624,14.6152 C60.682,14.4712 60.69,14.3352 60.764,14.1952 C60.826,14.0752 60.888,13.9552 60.946,13.8392 C61.044,13.6452 61.29,13.1772 61.29,13.1772" id="Fill-7" fill="#FFFFFF"></path>
            <path d="M77.192,4.8672 C77.064,4.9112 76.938,4.8812 76.81,4.9052 C76.62,4.9412 76.39,5.0352 76.214,5.1112 C75.922,5.2372 75.662,5.4212 75.46,5.6592 C75.356,5.7812 75.25,5.8932 75.148,6.0172 C75.034,6.1532 74.976,6.2112 74.912,6.3752 C74.864,6.4872 74.81,6.6092 74.782,6.7272 C74.744,6.8992 74.768,7.0932 74.766,7.2692 C74.766,7.5432 74.828,7.7972 74.934,8.0532 C75,8.2192 75.088,8.3712 75.194,8.5172 C75.298,8.6652 75.4,8.8332 75.56,8.9392 C75.728,9.0552 75.914,9.1072 76.072,9.2512 C76.28,9.4392 76.512,9.5692 76.74,9.7332 C77.166,10.0412 77.602,10.3092 78.094,10.5132 C78.36,10.6232 78.572,10.8152 78.838,10.9252 C78.956,10.9752 79.086,10.9852 79.206,11.0392 C79.336,11.0932 79.452,11.1692 79.582,11.2252 C80.026,11.4212 80.494,11.5732 80.94,11.7632 C81.36,11.9432 81.772,12.1452 82.186,12.3212 C82.672,12.5272 83.172,12.7312 83.648,12.9592 C83.966,13.1112 84.282,13.2672 84.584,13.4532 C84.702,13.5272 84.836,13.5772 84.954,13.6472 C85.07,13.7152 85.152,13.8172 85.262,13.8892 C85.39,13.9732 85.394,14.0192 85.434,14.1692 C85.478,14.3332 85.444,14.5272 85.444,14.6952 C85.444,14.8432 85.404,14.9312 85.376,15.0652 C85.354,15.1952 85.424,15.3632 85.38,15.4852 C85.366,15.5272 85.352,15.5572 85.308,15.5752 C85.412,15.5112 85.57,15.5192 85.69,15.4712 C85.81,15.4232 85.952,15.3752 86.062,15.3092 C86.232,15.2092 86.452,15.0052 86.668,15.0832 C86.766,15.1192 86.886,15.2092 86.99,15.2512 C87.116,15.3032 87.234,15.3872 87.36,15.4492 C87.634,15.5792 87.874,15.6812 88.166,15.7492 C88.296,15.7792 88.41,15.8672 88.534,15.9052 C88.648,15.9372 88.79,15.9192 88.908,15.9192 C89.18,15.9152 89.44,16.0432 89.712,16.0392 C89.964,16.0392 90.224,16.0512 90.456,15.9432 C90.708,15.8272 90.994,15.6032 91.154,15.3952 C91.256,15.2672 91.338,15.1252 91.408,14.9792 C91.48,14.8292 91.556,14.7032 91.64,14.5632 C91.79,14.3152 91.878,14.0092 91.97,13.7332 C92.076,13.3952 91.932,13.2392 91.772,12.9572 C91.676,12.7852 91.61,12.6772 91.464,12.5352 C91.302,12.3812 91.176,12.2232 91.032,12.0552 C90.814,11.7912 90.574,11.5512 90.37,11.2772 C90.132,10.9592 89.802,10.6312 89.478,10.3812 C89.188,10.1532 88.948,9.8652 88.626,9.6732 C88.482,9.5872 88.38,9.4632 88.246,9.3592 C88.064,9.2212 87.882,9.0832 87.702,8.9392 C87.472,8.7592 87.222,8.6292 86.978,8.4592 C86.872,8.3852 86.754,8.3552 86.652,8.2832 C86.514,8.1892 86.434,8.0692 86.272,7.9932 C85.724,7.7392 85.2,7.4252 84.682,7.1232 C83.776,6.5952 82.79,6.1472 81.836,5.7512 C81.614,5.6592 81.394,5.5252 81.154,5.4652 C80.93,5.4052 80.694,5.3532 80.476,5.2712 C80.274,5.1932 80.058,5.1932 79.856,5.1352 C79.74,5.1012 79.678,5.0312 79.548,5.0232 C79.444,5.0192 79.344,5.0372 79.238,5.0112 C79.046,4.9632 78.886,4.9012 78.684,4.9032 C78.482,4.9032 78.316,4.8392 78.122,4.8392 C77.938,4.8432 77.754,4.8392 77.566,4.8372 L77.192,4.8672 Z" id="Fill-8" fill="#FFFFFF"></path>
            <path d="M5.568,44.5152 C3.79,44.5152 2.75,45.9252 2.516,48.3052 L7.586,48.3052 C8.018,48.3052 8.222,47.9372 8.222,47.4012 C8.222,45.5552 7.35,44.5152 5.568,44.5152 M8.288,50.4552 L2.552,50.4552 C2.582,52.4012 3.454,54.6492 5.67,54.6492 C6.712,54.6492 7.716,54.3132 8.49,53.6072 L9.9,55.2852 C8.96,56.3252 7.448,56.8972 5.568,56.8972 C1.946,56.8972 0,54.2792 0,49.6152 C0,44.9172 1.982,42.2672 5.568,42.2672 C9.06,42.2672 10.606,44.6132 10.606,48.2412 C10.606,50.0852 9.998,50.4552 8.288,50.4552" id="Fill-9" fill="#231F20"></path>
            <path d="M21.93,54.3812 C21.092,55.9552 19.412,56.8972 17.028,56.8972 C13.306,56.8972 11.46,54.4792 11.46,49.6152 C11.46,45.6212 12.94,42.3632 17.028,42.3632 C19.546,42.3632 21.19,43.3052 21.93,45.1872 L19.848,46.1592 C19.382,45.0852 18.236,44.6132 17.028,44.6132 C14.278,44.6132 13.776,47.1672 13.776,49.6152 C13.776,52.9372 14.85,54.6492 17.028,54.6492 C18.544,54.6492 19.616,54.1452 20.252,53.0372 L21.93,54.3812 Z" id="Fill-10" fill="#231F20"></path>
            <path d="M27.938,44.5472 C25.76,44.5472 24.686,46.2592 24.686,49.5472 C24.686,51.8952 25.458,54.5812 27.938,54.5812 C30.122,54.5812 31.23,52.8712 31.23,49.5472 C31.23,46.2592 30.122,44.5472 27.938,44.5472 M27.938,56.8292 C24.318,56.8292 22.37,54.2112 22.37,49.5472 C22.37,44.7172 24.214,42.2992 27.938,42.2992 C31.664,42.2992 33.544,44.7172 33.544,49.5472 C33.544,54.4132 31.664,56.8292 27.938,56.8292" id="Fill-11" fill="#231F20"></path>
            <path d="M50.18,51.0692 C49.982,52.1072 49.276,55.2952 48.972,56.3372 L36.854,56.3372 C36.854,56.3372 36.86,54.9592 36.86,52.1072 L36.86,38.6852 C36.86,35.8332 36.624,35.6692 33.906,35.4632 L33.906,34.5252 L39.714,34.5252 C39.714,34.5252 39.712,35.8332 39.712,38.6852 L39.712,51.9392 C39.712,53.7552 39.878,54.4252 40.482,54.7592 C41.154,55.1292 42.296,55.1932 43.704,55.1932 C45.552,55.1932 46.692,55.0272 47.462,54.1552 C48.034,53.4832 48.668,52.4092 49.172,50.8652 L50.18,51.0692 Z" id="Fill-12" fill="#8CC63F"></path>
            <path d="M58.124,42.3772 C56.076,42.3772 54.266,44.4572 54.266,48.2492 C54.266,52.4772 56.11,55.6312 58.862,55.6312 C60.942,55.6312 62.654,54.0892 62.654,49.4892 C62.654,45.5652 61.08,42.3772 58.158,42.3772 L58.124,42.3772 Z M58.528,41.2712 C62.654,41.2712 65.776,44.5932 65.776,48.7532 C65.776,54.1552 61.814,56.7372 58.492,56.7372 C53.898,56.7372 51.146,53.0452 51.146,49.3252 C51.146,43.7852 55.44,41.2712 58.492,41.2712 L58.528,41.2712 Z" id="Fill-13" fill="#8CC63F"></path>
            <path d="M72.394,42.2752 C70.952,42.2752 69.644,43.6852 69.644,46.3032 C69.644,48.9212 70.92,50.7972 72.798,50.7972 C74.274,50.7652 75.584,49.4552 75.584,46.8052 C75.584,44.1532 74.346,42.2752 72.43,42.2752 L72.394,42.2752 Z M73.134,56.7032 C71.558,56.7032 70.818,56.9072 70.214,57.4412 C69.342,58.1492 68.67,59.0872 68.67,60.0612 C68.67,61.8752 70.618,63.2472 73.098,63.2472 C76.29,63.2472 77.932,61.6052 77.932,59.5232 C77.932,58.3832 77.362,57.5432 76.39,57.1412 C75.552,56.8052 74.58,56.7032 73.168,56.7032 L73.134,56.7032 Z M77.39,43.3572 C78.028,44.0952 78.336,45.2952 78.336,46.5072 C78.336,50.1292 75.316,51.8732 72.464,51.8732 C71.894,51.8732 71.286,51.7732 70.75,51.7032 C70.28,52.0092 69.746,52.6112 69.746,53.0812 C69.746,53.7552 70.35,54.3872 71.858,54.3872 C73.066,54.3872 74.274,54.3552 75.382,54.3552 C77.462,54.3552 80.216,55.0272 80.216,58.3152 C80.216,61.7032 76.29,64.9592 71.826,64.9592 C68.1,64.9592 66.052,62.7772 66.022,60.8672 C66.022,60.1292 66.32,59.4912 66.826,58.9892 C67.496,58.3152 68.808,57.2432 69.61,56.6392 C68.402,56.2692 67.564,55.4972 67.128,54.7912 C66.826,54.2872 66.726,53.7192 66.758,53.3832 C68.1,52.8792 69.174,52.0092 69.714,51.3372 C68.198,50.6992 66.758,49.1212 66.758,46.8392 C66.758,43.0152 70.182,41.2712 72.734,41.2712 L72.768,41.2712 C75.73,41.2712 77.39,43.3572 77.39,43.3572 Z" id="Fill-14" fill="#8CC63F"></path>
            <path d="M86.5,42.3772 C84.452,42.3772 82.638,44.4572 82.638,48.2492 C82.638,52.4772 84.486,55.6312 87.238,55.6312 C89.318,55.6312 91.026,54.0892 91.026,49.4892 C91.026,45.5652 89.452,42.3772 86.532,42.3772 L86.5,42.3772 Z M86.902,41.2712 C91.026,41.2712 94.15,44.5932 94.15,48.7532 C94.15,54.1552 90.192,56.7372 86.868,56.7372 C82.274,56.7372 79.522,53.0452 79.522,49.3252 C79.522,43.7852 83.814,41.2712 86.868,41.2712 L86.902,41.2712 Z" id="Fill-15" fill="#8CC63F"></path>
            <path d="M103.396,45.6292 C102.758,43.6512 101.584,42.3112 99.942,42.3112 C98.664,42.3112 97.758,43.3152 97.758,44.6232 C97.758,46.1032 99.1,46.9072 100.61,47.5452 C103.128,48.5832 104.838,49.7932 104.838,52.1072 C104.838,55.1632 101.986,56.7372 99.302,56.7372 C97.59,56.7372 96.046,56.1032 95.444,55.6012 C95.208,55.1292 94.906,52.8472 94.906,51.6392 L95.778,51.4692 C96.38,53.6852 97.892,55.6312 99.904,55.6312 C101.148,55.6312 102.288,54.6912 102.288,53.2832 C102.288,51.8052 101.314,51.0012 99.636,50.2292 C97.624,49.2872 95.444,48.1832 95.444,45.6012 C95.444,43.2512 97.454,41.2712 100.544,41.2712 C101.92,41.2352 102.826,41.5712 103.528,41.8412 C103.798,42.6112 104.166,44.5932 104.27,45.4292 L103.396,45.6292 Z" id="Fill-16" fill="#8CC63F"></path>
            <path d="M73.524,41.6852 L73.752,37.2992 C73.494,36.7592 72.6,36.0732 72.064,35.7652 L71.792,35.9592 C71.976,37.1732 72.202,40.2412 72.244,41.8872 C71.836,42.6012 74.1,41.1992 73.524,41.6852" id="Fill-17" fill="#8CC63F"></path>
        </g>
    </g>
</svg>