<?xml version="1.0" encoding="UTF-8"?>
<svg width="533px" height="128px" viewBox="0 0 533 128" version="1.1" xmlns="http://www.w3.org/2000/svg" xmlns:xlink="http://www.w3.org/1999/xlink">
    <!-- Generator: Sketch 49.2 (51160) - http://www.bohemiancoding.com/sketch -->
    <title>logo wide white</title>
    <desc>Created with Sketch.</desc>
    <defs>
        <linearGradient x1="0%" y1="0%" x2="100%" y2="100%" id="linearGradient-1">
            <stop stop-color="#0082BB" offset="0%"></stop>
            <stop stop-color="#0082BB" offset="32.0235582%"></stop>
            <stop stop-color="#952D98" offset="32.3263149%"></stop>
            <stop stop-color="#952D98" offset="51.5824298%"></stop>
            <stop stop-color="#952D98" offset="69.0440958%"></stop>
            <stop stop-color="#E00034" offset="69.3671074%"></stop>
            <stop stop-color="#E00034" offset="100%"></stop>
        </linearGradient>
        <path d="M7.17926241,16.6427696 C11.1657239,16.6427696 14.213643,13.712559 14.213643,9.84276421 C14.213643,6.09067787 11.1657239,2.92505034 7.17926241,2.92505034 C3.31050932,2.92505034 0.144881783,6.09067787 0.144881783,9.84276421 C0.144881783,13.712559 3.31050932,16.6427696 7.17926241,16.6427696 Z M11.9855163,71.8615638 L1.0834242,71.8615638 L1.0834242,23.4417334 L16.6751033,23.4417334 L16.6751033,33.8771584 L11.9855163,33.8771584 L11.9855163,71.8615638 Z M39.7344968,73.0334398 C33.9897005,73.0334398 27.6594871,70.5719795 21.0938569,65.6480172 L27.4251119,56.9719686 C31.9969906,60.7240549 36.1001189,62.7167648 39.7344968,62.7167648 C45.2449179,62.7167648 47.941795,60.9584301 47.941795,57.7928026 C47.941795,53.4552991 39.8522052,52.6344651 36.2178273,51.5792559 C28.0115707,49.1177956 22.5011497,45.4834177 22.5011497,38.0969535 C22.5011497,28.2490289 29.8865722,22.2698575 40.0865804,22.2698575 C47.0042943,22.2698575 53.1001325,24.6136094 58.2584699,29.3031964 L52.2792985,37.5104947 C48.4105454,33.9927835 44.1897087,32.5875741 40.0865804,32.5875741 C35.6313685,32.5875741 33.4042834,34.2271587 33.4042834,37.0417443 C33.4042834,40.3250803 36.6865777,40.9104974 43.4865831,42.9032073 C54.1553417,46.0688349 58.8449287,50.1730048 58.8449287,57.6761358 C58.8449287,61.7782224 57.4376359,65.1782251 54.975134,67.7573939 C51.8105481,71.275105 46.5345022,73.0334398 39.7344968,73.0334398 Z M91.5532882,37.2761195 C91.5532882,37.2761195 88.9741195,32.8209076 85.9251587,32.8209076 C80.1803625,32.8209076 77.3668186,38.6834123 77.3668186,42.4354986 L77.3668186,71.8615638 L66.3470181,71.8615638 L66.3470181,23.793817 L77.3668186,23.793817 L77.3668186,27.8969453 C78.5386945,25.5521518 83.6980736,22.5042327 87.2157848,22.5042327 C91.669955,22.5042327 94.6012073,24.6136094 98.4699604,29.1865297 L91.5532882,37.2761195 Z M135.515823,73.5032318 C133.053321,71.3928134 130.708528,68.812603 129.771027,67.4063519 C126.371024,71.5094802 122.854355,72.916773 115.819974,72.916773 C105.97205,72.916773 101.048088,67.8751023 101.048088,58.2615529 C101.048088,49.0011289 104.916841,44.5448753 115.233516,42.5521654 L127.191858,40.3250803 C127.191858,36.6896607 126.254358,32.4698656 120.158519,32.4698656 C116.757475,32.4698656 112.419972,33.8771584 108.668927,37.9802867 L102.103297,31.2979897 C106.324133,25.9042354 112.067888,22.2698575 120.158519,22.2698575 C132.818946,22.2698575 138.094992,28.1313205 138.094992,40.5584138 L138.094992,58.2615529 C138.094992,60.2542629 139.618952,62.7167648 142.315829,65.5303088 L135.515823,73.5032318 Z M157.320008,73.737607 C151.928337,68.4605194 149.231459,63.4198904 149.231459,54.8625919 L149.231459,0.111506422 L160.252302,0.111506422 L160.252302,54.8625919 C160.252302,59.0823869 161.658553,63.1855152 164.941889,66.234476 L157.320008,73.737607 Z M127.191858,50.1730048 C127.191858,50.1730048 121.330395,51.2271723 117.812684,51.9313395 C113.00643,52.8688403 111.951221,53.8073827 111.951221,58.2615529 C111.951221,61.309472 113.826223,63.1855152 117.461642,63.1855152 C120.275186,63.1855152 127.191858,60.6063465 127.191858,56.7375934 L127.191858,50.1730048 Z" id="path-2"></path>
        <path d="M11.7054631,11.4844322 L11.7054631,60.6063465 L20.9669288,60.6063465 C29.7596442,60.6063465 31.6356874,44.7792505 31.6356874,35.5167431 C31.6356874,25.5521518 29.2908938,11.4844322 19.3252609,11.4844322 L11.7054631,11.4844322 Z M0.215870572,71.8615638 L0.215870572,0.22921485 L19.2085941,0.22921485 C37.2627752,0.22921485 43.4773635,18.6354796 43.4773635,35.5167431 C43.4773635,51.6969644 38.670068,71.8615638 20.8502621,71.8615638 L0.215870572,71.8615638 Z M85.7982307,73.5032318 C83.3357287,71.9782306 81.6940608,69.633437 81.1086436,68.1094775 C78.6461417,71.3928134 73.8398878,72.916773 69.1492591,72.916773 C56.7232074,72.916773 50.5096608,66.4678095 50.5096608,52.7521735 L50.5096608,23.9115255 L61.4127945,23.9115255 L61.4127945,52.8688403 C61.4127945,59.0823869 63.9909216,62.7167648 69.1492591,62.7167648 C74.4263466,62.7167648 76.8878069,58.9646785 76.8878069,52.8688403 L76.8878069,23.9115255 L87.7909406,23.9115255 L87.7909406,57.9094693 C87.7909406,60.6063465 89.3149002,62.7167648 92.0117773,65.5303088 L85.7982307,73.5032318 Z M124.602428,71.8615638 L112.878461,52.9865487 L110.885751,55.6834259 L110.885751,71.8615638 L99.8649086,71.8615638 L99.8649086,0.346923277 L110.885751,0.346923277 L110.885751,37.6282031 L121.553468,23.3250667 L135.387854,23.3250667 L120.146175,44.0761249 L137.380564,71.8615638 L124.602428,71.8615638 Z M151.56495,51.5792559 C152.151409,57.7928026 154.730578,62.7167648 160.826416,62.7167648 C164.930586,62.7167648 167.157671,61.1928053 170.323298,58.4959281 L177.357679,66.4678095 C172.7858,70.8063546 168.917047,73.1511482 160.474332,73.1511482 C147.813905,73.1511482 139.724316,63.7709323 139.724316,47.4761276 C139.724316,31.0625728 147.696197,22.1521491 160.474332,22.1521491 C173.019134,22.1521491 179.233722,30.5938225 179.233722,43.4907078 C179.233722,50.5250884 176.772262,51.5792559 169.854548,51.5792559 L151.56495,51.5792559 Z M160.474332,32.5875741 C154.847244,32.5875741 152.854534,35.8688267 151.56495,42.5521654 L167.392046,42.5521654 C167.978505,42.5521654 168.21288,42.083415 168.21288,41.1459142 C168.21288,35.8688267 165.633711,32.5875741 160.474332,32.5875741 Z" id="path-4"></path>
    </defs>
    <g id="logo-wide-white" stroke="none" stroke-width="1" fill="none" fill-rule="evenodd">
        <g id="assets/isral-Duke-Mark-icon">
            <g id="colors/gradient-sharp" fill="url(#linearGradient-1)" fill-rule="nonzero">
                <rect id="gradient" x="0" y="0" width="128" height="128"></rect>
            </g>
            <g id="assets/id" fill="#FFFFFF" fill-rule="evenodd">
                <path d="M103.75,105.295228 C100.050676,106.971476 98.2540029,107.3916 95.9287907,107.3916 C92.6531547,107.3916 90.2212876,106.448277 88.2131088,104.351682 C74.1563081,109.80122 59.3594621,108.543084 59.3594621,86.9539881 C59.3903537,79.8990804 59.4027555,74.5034275 59.4052358,70.4028029 C57.154434,71.791515 57.3693222,71.8178985 54.9297886,72.7822384 L53.8287402,60.2992573 C65.5181628,55.3695642 72.1648152,47.942157 84.3816497,50.6343937 L84.7243886,50.6927504 C87.0466694,46.2951994 83.6857998,28.9113683 81.7069342,23.4057096 C88.5227531,19.5034661 92.7017737,17.2015659 94.243996,16.5000092 C94.2937436,16.4932771 95.1598262,20.2000771 95.1617838,20.241972 C96.6946316,26.2798326 97.867961,34.4135353 97.936744,45.033486 L97.936744,91.5664083 C97.936744,95.023767 98.0316736,95.8188499 98.5719382,96.0728472 C99.0170477,96.2825738 101.319711,95.3385805 101.319711,95.3385805 L103.75,105.295228 Z M84.7243886,92.9289604 C82.5053803,93.7667489 79.8638111,94.9193508 77.4317185,94.9193508 C73.4162629,94.9193508 72.6755412,93.3479664 72.6755412,87.3729942 C72.7821961,73.8539011 72.7821961,66.8316373 72.7821961,64.525539 C75.4242162,63.3724899 77.8560833,62.5351486 80.0753171,62.5351486 C84.0912237,62.5351486 84.7243886,64.2125143 84.7243886,70.1850271 L84.7243886,92.9289604 Z M44.4841696,52.7267122 C44.4841696,56.516625 41.3918381,59.6166042 37.5257508,59.6166042 C33.6583174,59.6166042 30.5655373,56.516625 30.5655373,52.7267122 C30.5655373,48.8513448 33.6583174,45.7513656 37.5257508,45.7513656 C41.3918381,45.7513656 44.4841696,48.8513448 44.4841696,52.7267122 Z M50.0846457,75.012605 C48.0691563,75.7002899 45.9924215,76.2478741 43.8537683,76.6542334 L43.8537683,111.75 L31.0234195,111.75 L31.0234195,76.9794107 C26.8167808,76.754755 24.5,75.4884523 24.5,75.4884523 L25.745996,63.2149187 C34.9590529,66.0549359 42.4024993,64.98293 48.9938944,62.5195879 L50.0846457,75.012605 Z" id="id"></path>
            </g>
        </g>
        <g id="isral-white" transform="translate(156.750000, 27.000000)">
            <mask id="mask-3" fill="white">
                <use xlink:href="#path-2"></use>
            </mask>
            <use id="Mask" fill="#FFFFFF" fill-rule="nonzero" xlink:href="#path-2"></use>
        </g>
        <g id="duke-white" transform="translate(351.750000, 27.000000)">
            <mask id="mask-5" fill="white">
                <use xlink:href="#path-4"></use>
            </mask>
            <use id="Mask" fill="#FFFFFF" fill-rule="nonzero" xlink:href="#path-4"></use>
        </g>
    </g>
</svg>