<?xml version="1.0" encoding="UTF-8"?>
<svg width="160px" height="90px" viewBox="0 0 160 90" version="1.1" xmlns="http://www.w3.org/2000/svg" xmlns:xlink="http://www.w3.org/1999/xlink">
    <!-- Generator: Sketch 49.3 (51167) - http://www.bohemiancoding.com/sketch -->
    <title>IT by Design logo designed by Isral Duke</title>
    <desc>Created with Sketch.</desc>
    <defs>
        <linearGradient x1="49.9998497%" y1="0%" x2="49.9998497%" y2="100.000465%" id="linearGradient-1">
            <stop stop-color="#263690" offset="0%"></stop>
            <stop stop-color="#28A7DF" offset="100%"></stop>
        </linearGradient>
    </defs>
    <g id="IT-by-Design-logo-designed-by-Isral-Duke" stroke="none" stroke-width="1" fill="none" fill-rule="evenodd">
        <g id="Group" transform="translate(21.000000, 14.000000)">
            <path d="M69.7313556,53.2078556 L64.8589667,42.1635523 L64.8589667,53.2078556 L61.2684722,53.2078556 L61.2684722,34.7574477 L64.8589667,34.7574477 L69.7313556,45.8015307 L69.7313556,34.7574477 L73.3227315,34.7574477 L73.3227315,53.2078556 L69.7313556,53.2078556 Z M53.0398426,53.4637473 C49.6520889,53.4637473 46.0633574,52.285148 46.0633574,44.2386534 C46.0633574,36.217704 50.2168981,34.5013357 53.7831519,34.5013357 C56.3458389,34.5013357 58.1160741,35.3727329 58.1160741,35.3727329 L58.1160741,38.2941264 C58.1160741,38.2941264 55.6018685,37.3965235 53.7831519,37.3965235 C51.9611296,37.3965235 49.6520889,38.6270939 49.6520889,43.9821011 C49.6520889,49.6456318 51.6034685,50.5943249 52.9876148,50.5943249 C54.063463,50.5943249 55.2962148,50.3630975 55.2962148,50.3630975 L55.2962148,44.9303538 L52.8575963,44.9303538 L52.8575963,42.1890975 L58.8847259,42.1890975 L58.8847259,52.7973718 C58.8847259,52.7973718 55.7548056,53.4637473 53.0398426,53.4637473 Z M36.6405407,53.2078556 L36.6405407,50.7986859 L38.9502426,50.7986859 L38.9502426,37.1666173 L36.6405407,37.1666173 L36.6405407,34.7574477 L44.8475741,34.7574477 L44.8475741,37.1666173 L42.5396352,37.1666173 L42.5396352,50.7986859 L44.8475741,50.7986859 L44.8475741,53.2078556 L36.6405407,53.2078556 Z M29.6199815,53.4637473 C27.3387074,53.4637473 25.3624259,52.822917 25.3624259,52.822917 L25.3624259,49.7473718 C25.3624259,49.7473718 27.8777333,50.5170289 29.1080611,50.5170289 C30.5680148,50.5170289 31.8767944,49.9537148 31.8767944,48.2104801 C31.8767944,46.622278 30.9547648,46.007213 29.7231148,45.314852 L28.1082407,44.4185704 C26.5942963,43.5718375 25.2108111,42.3941191 25.2108111,39.600231 C25.2108111,35.6797148 28.4405593,34.5013357 30.7998444,34.5013357 C33.3131685,34.5013357 34.6970944,35.1928159 34.6970944,35.1928159 L34.6970944,38.1144296 C34.6970944,38.1144296 32.7734815,37.3711986 31.0565759,37.3711986 C29.7742407,37.3711986 28.748637,37.9604982 28.748637,39.3954296 C28.748637,40.6508845 29.5688556,41.291935 30.620463,41.8810144 L32.1590889,42.7270866 C33.7993056,43.623148 35.4664074,44.9554585 35.4664074,48.0818736 C35.4664074,52.465065 32.185313,53.4637473 29.6199815,53.4637473 Z M13.7773352,53.2078556 L13.7773352,34.7574477 L23.7788444,34.7574477 L23.7788444,37.8072274 L17.3676093,37.8072274 L17.3676093,42.1890975 L22.7528,42.1890975 L22.7528,44.9554585 L17.3676093,44.9554585 L17.3676093,50.1578556 L23.7788444,50.1578556 L23.7788444,53.2078556 L13.7773352,53.2078556 Z M4.87371111,37.5502347 L3.58961296,37.5502347 L3.58961296,50.4146282 L4.66634259,50.4146282 C7.10407963,50.4146282 8.46244259,49.3122238 8.46244259,43.9821011 C8.46244259,38.7043899 7.17966667,37.5502347 4.87371111,37.5502347 Z M4.53830741,53.2078556 L0,53.2078556 L0,34.7574477 L4.53830741,34.7574477 C9.56451481,34.7574477 12.0516148,36.8070036 12.0516148,43.9821011 C12.0516148,50.9783827 9.56451481,53.2078556 4.53830741,53.2078556 Z" id="Fill-1" fill="url(#linearGradient-1)"></path>
            <path d="M81.0542056,15.6113755 L88.575887,15.6113755 L88.575887,9.37021661 L81.0542056,9.37021661 L81.0542056,15.6113755 Z M81.0542056,6.23279061 L88.575887,6.23279061 L88.575887,0 L81.0542056,0 L81.0542056,6.23279061 Z" id="Fill-4" fill="#274098"></path>
            <path d="M88.5767685,40.5755704 L88.5767685,34.534148 L96.3849315,34.534148 L96.3849315,28.2319892 C93.9112741,28.2333105 91.2185685,28.2352924 88.5767685,28.2392563 L88.5767685,21.976296 L81.0542056,21.976296 L81.0542056,28.2004982 L73.5453056,28.2004982 L73.5453056,34.534148 L73.5550019,34.534148 L73.5550019,34.5398736 L81.0932111,34.5398736 L81.0914481,40.5755704 L88.5767685,40.5755704 Z" id="Fill-5" fill="#F56B00"></path>
            <path d="M115.214919,31.7070072 C112.322998,28.9415271 107.799235,28.2337509 106.598437,28.2337509 C105.974348,28.2337509 96.3849315,28.2319892 96.3849315,28.2319892 L96.3849315,34.534148 L106.598437,34.534148 C107.241919,34.534148 109.2301,35.0036498 110.644217,36.2740794 C112.206202,37.6825848 112.544911,39.4899025 112.544911,39.9089747 L112.544911,54.5853105 L90.7280241,54.5853105 C90.7280241,54.5853105 89.5582981,54.4593466 89.0086944,53.9570325 C88.5324741,53.5031661 88.5767685,52.3710325 88.5767685,52.3710325 L88.5767685,40.5755704 L81.0914481,40.5755704 L81.0850574,54.7286715 C81.0850574,54.7286715 81.2955111,57.6841986 83.0712556,59.1532635 C85.0872037,60.803787 88.6992944,60.8374801 88.6992944,60.8374801 L118.788885,60.8374801 C118.788885,60.8374801 118.808057,40.9083177 118.808057,39.9089747 C118.808057,38.8984007 118.409848,34.7622924 115.214919,31.7070072 Z" id="Fill-6" fill="url(#linearGradient-1)"></path>
            <path d="M33.5617463,12.0187617 L33.5617463,9.55938267 L21.12845,9.55938267 L21.12845,12.0187617 L25.5323315,12.0187617 L25.5323315,28.1971949 L29.156763,28.1971949 L29.156763,12.0187617 L33.5617463,12.0187617 Z M8.29143519,28.1971949 L8.29143519,25.7635812 L5.96057778,25.7635812 L5.96057778,11.9934368 L8.29143519,11.9934368 L8.29143519,9.55938267 L0.00352592593,9.55938267 L0.00352592593,11.9934368 L2.33504444,11.9934368 L2.33504444,25.7635812 L0.00352592593,25.7635812 L0.00352592593,28.1971949 L8.29143519,28.1971949 Z M12.7177944,28.1280469 L17.5064426,28.1280469 L17.5064426,24.1588628 L12.7177944,24.1588628 L12.7177944,28.1280469 Z M33.6375537,28.1280469 L38.4279648,28.1280469 L38.4279648,24.1588628 L33.6375537,24.1588628 L33.6375537,28.1280469 Z M60.4998204,31.7556751 L57.9682056,31.7556751 L59.1837685,28.592704 L56.1686611,20.1015921 L58.8005444,20.1015921 L60.2673296,25.6620614 L61.7131796,20.1015921 L64.2445741,20.1015921 L60.4998204,31.7556751 Z M51.5032,21.6664513 C50.6699796,21.6664513 50.0868796,22.1498267 50.0868796,22.1498267 L50.0868796,27.0439206 C50.0868796,27.0439206 50.8874852,27.1438989 51.3533481,27.1438989 C52.1854667,27.1438989 53.0867815,26.6107545 53.0867815,24.2973791 C53.0867815,22.0496282 52.5858796,21.6664513 51.5032,21.6664513 Z M51.3024426,28.7580866 C49.6703796,28.7580866 47.7549204,28.3773321 47.7549204,28.3773321 L47.7549204,16.6045523 L50.0868796,16.6045523 L50.0868796,20.7173177 C50.0868796,20.7173177 50.9544778,19.9353285 52.1709222,19.9353285 C53.3856037,19.9353285 55.4176389,20.3517581 55.4176389,24.2973791 C55.4176389,28.3429783 52.9188593,28.7580866 51.3024426,28.7580866 Z" id="Fill-9" fill="#F56B00"></path>
        </g>
    </g>
</svg>