<?xml version="1.0" encoding="UTF-8"?>
<svg width="160px" height="90px" viewBox="0 0 160 90" version="1.1" xmlns="http://www.w3.org/2000/svg" xmlns:xlink="http://www.w3.org/1999/xlink">
    <!-- Generator: Sketch 49.3 (51167) - http://www.bohemiancoding.com/sketch -->
    <title>Jivka Duke Violinist Violist logo designed by Isral Duke</title>
    <desc>Created with Sketch.</desc>
    <defs>
        <path d="M8.74595745,0 C8.10480851,0 7.46365957,0.0514347826 6.82306383,0.152608696 C6.1813617,0.254347826 5.56676596,0.407521739 4.97706383,0.611 C4.38791489,0.814478261 3.84025532,1.06882609 3.33297872,1.37404348 C2.82625532,1.67982609 2.38480851,2.03647826 2.00808511,2.44343478 C1.63080851,2.85095652 1.33429787,3.30878261 1.11744681,3.81804348 C0.901148936,4.32673913 0.792723404,4.88630435 0.792723404,5.49730435 C0.792723404,5.88673913 0.853574468,6.25413043 0.974723404,6.59947826 C1.09587234,6.94426087 1.27344681,7.24552174 1.50744681,7.50213043 C1.74144681,7.75930435 2.02468085,7.96052174 2.35825532,8.10691304 C2.69182979,8.25217391 3.06689362,8.32565217 3.48289362,8.32565217 C3.75119149,8.32565217 4.02225532,8.28382609 4.29497872,8.1996087 C4.56825532,8.1153913 4.81055319,7.98652174 5.02242553,7.81469565 C5.23540426,7.64173913 5.40855319,7.42695652 5.54297872,7.17034783 C5.67685106,6.91373913 5.74378723,6.60852174 5.74378723,6.25413043 C5.74378723,6.00656522 5.70948936,5.79573913 5.63978723,5.62334783 C5.5706383,5.45095652 5.486,5.31134783 5.38642553,5.20508696 C5.28685106,5.09882609 5.17842553,5.0213913 5.06170213,4.97334783 C4.94497872,4.92417391 4.83434043,4.89930435 4.73034043,4.89930435 C4.60034043,4.89930435 4.4852766,4.93773913 4.38625532,5.01291304 C4.28612766,5.08752174 4.17991489,5.16834783 4.06761702,5.252 C3.95531915,5.33621739 3.82919149,5.41591304 3.69089362,5.49052174 C3.55204255,5.56569565 3.37446809,5.60356522 3.15817021,5.60356522 C3.11446809,5.60356522 3.04310638,5.59226087 2.94353191,5.57021739 C2.84395745,5.54817391 2.74604255,5.49504348 2.65089362,5.4113913 C2.55574468,5.3266087 2.47165957,5.20113043 2.39753191,5.03269565 C2.32395745,4.86482609 2.28744681,4.63873913 2.28744681,4.355 C2.28744681,4.02830435 2.36489362,3.72308696 2.52144681,3.43878261 C2.67689362,3.15617391 2.87880851,2.899 3.12553191,2.66952174 C3.37280851,2.43891304 3.65382979,2.2326087 3.97025532,2.05173913 C4.28612766,1.87030435 4.60034043,1.71769565 4.91234043,1.59334783 C5.22434043,1.47013043 5.52085106,1.37686957 5.80297872,1.31469565 C6.084,1.25252174 6.32021277,1.22143478 6.51051064,1.22143478 C6.64051064,1.22143478 6.75944681,1.23273913 6.86787234,1.25534783 C6.97685106,1.27682609 7.06978723,1.32147826 7.14723404,1.38817391 C7.22578723,1.45430435 7.28608511,1.54473913 7.32978723,1.66004348 C7.37238298,1.77534783 7.39451064,1.93021739 7.39451064,2.12521739 L7.39451064,10.3208696 C7.39451064,10.7803913 7.0133617,10.9007826 6.82306383,10.9313043 C6.1813617,11.0330435 5.56676596,11.1856522 4.97706383,11.3891304 C4.38791489,11.5926087 3.84025532,11.8475217 3.33297872,12.1521739 C2.82625532,12.4579565 2.38480851,12.8146087 2.00808511,13.221 C1.63080851,13.6285217 1.33429787,14.086913 1.11744681,14.5956087 C0.901148936,15.1048696 0.792723404,15.6644348 0.792723404,16.2754348 C0.792723404,16.6648696 0.853574468,17.0322609 0.974723404,17.3776087 C1.09587234,17.7223913 1.27344681,18.023087 1.50744681,18.2802609 C1.74144681,18.5374348 2.02468085,18.7386522 2.35825532,18.8844783 C2.69182979,19.0303043 3.06689362,19.1037826 3.48289362,19.1037826 C3.75119149,19.1037826 4.02225532,19.0613913 4.29497872,18.9771739 C4.56825532,18.8935217 4.81055319,18.7652174 5.02242553,18.5922609 C5.23540426,18.4198696 5.40855319,18.205087 5.54297872,17.9484783 C5.67685106,17.6918696 5.74378723,17.3866522 5.74378723,17.0322609 C5.74378723,16.7841304 5.70948936,16.5738696 5.63978723,16.400913 C5.5706383,16.229087 5.486,16.0894783 5.38642553,15.9832174 C5.28685106,15.8769565 5.17842553,15.800087 5.06170213,15.750913 C4.94497872,15.7028696 4.83434043,15.6774348 4.73034043,15.6774348 C4.60034043,15.6774348 4.4852766,15.7158696 4.38625532,15.7904783 C4.28612766,15.8662174 4.17991489,15.945913 4.06761702,16.0295652 C3.95531915,16.1143478 3.82919149,16.1934783 3.69089362,16.2686522 C3.55204255,16.3438261 3.37446809,16.3811304 3.15817021,16.3811304 C3.11446809,16.3811304 3.04310638,16.3703913 2.94353191,16.3483478 C2.84395745,16.3263043 2.74604255,16.2731739 2.65089362,16.1895217 C2.55574468,16.1047391 2.47165957,15.9786957 2.39753191,15.8102609 C2.32395745,15.6429565 2.28744681,15.4174348 2.28744681,15.1336957 C2.28744681,14.8064348 2.36489362,14.5012174 2.52144681,14.2174783 C2.67689362,13.9337391 2.87880851,13.6776957 3.12553191,13.447087 C3.37280851,13.2170435 3.65382979,13.0113043 3.97025532,12.8298696 C4.28612766,12.6484348 4.60034043,12.4952609 4.91234043,12.370913 C5.22434043,12.2476957 5.52085106,12.155 5.80297872,12.0922609 C6.084,12.0306522 6.32021277,11.9995652 6.51051064,11.9995652 C6.64051064,11.9995652 6.75944681,12.0108696 6.86787234,12.032913 C6.97685106,12.0555217 7.06978723,12.0990435 7.14723404,12.1663043 C7.22578723,12.2324348 7.28608511,12.3228696 7.32978723,12.4381739 C7.37238298,12.5534783 7.39451064,12.7077826 7.39451064,12.9027826 L7.39451064,14.7380435 L7.39451064,32.8600435 C7.39451064,33.6038696 7.31817021,34.2872174 7.16714894,34.9112174 C7.01557447,35.5352174 6.78323404,36.0727391 6.47178723,36.5243478 C6.16034043,36.9759565 5.76314894,37.3252609 5.28242553,37.5739565 C4.80170213,37.8215217 4.22804255,37.9453043 3.56089362,37.9453043 C3.22344681,37.9453043 2.94131915,37.8966957 2.71617021,37.7994783 C2.49102128,37.7016957 2.29795745,37.5807391 2.13808511,37.4343478 C1.97765957,37.2873913 1.84765957,37.1308261 1.74808511,36.9623913 C1.64851064,36.7939565 1.56,36.6373913 1.48144681,36.4915652 C1.40344681,36.3451739 1.32765957,36.2236522 1.25408511,36.1264348 C1.18051064,36.0286522 1.09587234,35.9800435 1.0007234,35.9800435 C0.844723404,35.9800435 0.704212766,36.0246957 0.578638298,36.1123043 C0.45306383,36.2016087 0.346297872,36.3118261 0.26,36.4452174 C0.173148936,36.5774783 0.108425532,36.7261304 0.0652765957,36.8900435 C0.0221276596,37.0533913 0,37.2150435 0,37.3744348 C0,37.5869565 0.0929361702,37.7836522 0.279914894,37.965087 C0.465787234,38.147087 0.714723404,38.3042174 1.0267234,38.4364783 C1.3387234,38.5693043 1.69774468,38.6733043 2.10544681,38.7490435 C2.51204255,38.8236522 2.93689362,38.8615217 3.37889362,38.8615217 C4.5306383,38.8615217 5.61212766,38.7128696 6.62114894,38.4161304 C7.63017021,38.1205217 8.50753191,37.6734348 9.25323404,37.076 C9.99782979,36.478 10.584766,35.7324783 11.0134894,34.8383043 C11.442766,33.9446957 11.6574043,32.895087 11.6574043,31.6911739 L11.6574043,1.84656522 C11.6574043,1.70413043 11.6391489,1.52721739 11.6048511,1.31469565 C11.57,1.10217391 11.4599149,0.89926087 11.2740426,0.70426087 C11.0870638,0.50926087 10.7966383,0.343652174 10.402766,0.206304348 C10.0088936,0.0689565217 9.45680851,0 8.74595745,0 Z M106.186213,7.35517391 C105.856511,7.43430435 105.546723,7.5366087 105.256851,7.6603913 C104.966426,7.78417391 104.70034,7.92773913 104.456936,8.09165217 C104.214638,8.25556522 103.993362,8.42173913 103.794766,8.5896087 L104.054766,8.90782609 C104.175915,8.8106087 104.290426,8.73826087 104.398851,8.68852174 C104.506723,8.64047826 104.635064,8.61617391 104.782766,8.61617391 C105.059362,8.61617391 105.256851,8.71169565 105.373574,8.9016087 C105.490851,9.09152174 105.548936,9.31534783 105.548936,9.57195652 L105.548936,26.7008696 C105.548936,26.798087 105.564426,26.9263913 105.594298,27.0863478 C105.624723,27.2451739 105.703277,27.4000435 105.828298,27.5503913 C105.954426,27.7007391 106.146936,27.8313043 106.406936,27.942087 C106.666383,28.0534348 107.025957,28.1082609 107.485106,28.1082609 C107.944809,28.1082609 108.310468,28.0568261 108.583191,27.9556522 C108.856468,27.853913 109.064468,27.7318261 109.207191,27.5905217 C109.349915,27.4486522 109.441191,27.2983043 109.479915,27.138913 C109.519191,26.9795217 109.539106,26.8427391 109.539106,26.7268696 L109.539106,19.8753043 C109.694553,19.4864348 109.893149,19.0551739 110.136553,18.5815217 C110.378851,18.1078696 110.649915,17.6653043 110.948638,17.2532609 C111.247362,16.8423478 111.561574,16.4964348 111.890723,16.2177826 C112.219872,15.9391304 112.545149,15.7995217 112.864894,15.7995217 C113.029745,15.7995217 113.158638,15.8306087 113.248809,15.8922174 C113.339532,15.9543913 113.409234,16.0250435 113.457362,16.1047391 C113.504383,16.1844348 113.532043,16.2663913 113.541447,16.3506087 C113.549745,16.4348261 113.55417,16.4947391 113.55417,16.5297826 C113.55417,16.7683043 113.523745,17.0565652 113.463447,17.3928696 C113.402596,17.7297391 113.251021,18.1146522 113.008723,18.5481739 C112.765872,18.9822609 112.406298,19.4666522 111.929447,20.001913 C111.453149,20.5371739 110.798723,21.119913 109.967277,21.7478696 C110.582426,23.2530435 111.176,24.5671739 111.748,25.6919565 C112.319447,26.8161739 112.875957,27.7849565 113.417532,28.5994348 C113.95966,29.4133478 114.487957,30.0865217 115.002979,30.6178261 C115.518553,31.1491304 116.027489,31.5736087 116.53034,31.8923913 C117.032638,32.2106087 117.532723,32.4327391 118.031149,32.5559565 C118.529021,32.6803043 119.033532,32.741913 119.545234,32.741913 C120.108383,32.741913 120.592979,32.7153478 121.000128,32.6627826 C121.408383,32.6096522 121.766851,32.5384348 122.079404,32.4496957 C122.390851,32.362087 122.668,32.2575217 122.910851,32.1382609 C123.153149,32.0184348 123.391574,31.8923913 123.625574,31.7595652 L123.378851,31.2949565 C123.275404,31.3475217 123.175277,31.3921739 123.080128,31.4277826 C122.992723,31.4628261 122.897574,31.493913 122.794128,31.5204783 C122.689574,31.5470435 122.586128,31.5600435 122.482128,31.5600435 C121.884681,31.5600435 121.256255,31.3656087 120.597404,30.9761739 C119.939106,30.5867391 119.252596,29.9819565 118.538426,29.1635217 C117.823702,28.345087 117.080213,27.3011304 116.309617,26.0299565 C115.537915,24.759913 114.745191,23.244 113.930894,21.4822174 C114.537745,21.164 115.040043,20.8118696 115.438894,20.4269565 C115.837191,20.0420435 116.155277,19.643 116.393702,19.232087 C116.632128,18.8206087 116.800851,18.4040435 116.900979,17.984087 C117.000553,17.5635652 117.049787,17.1583043 117.049787,16.7683043 C117.049787,16.556913 117.008851,16.2997391 116.926979,15.9984783 C116.844,15.6977826 116.700723,15.4078261 116.497702,15.1291739 C116.294128,14.8499565 116.027489,14.6108696 115.69834,14.411913 C115.369191,14.2129565 114.957617,14.112913 114.463617,14.112913 C113.909872,14.112913 113.39817,14.2236957 112.930723,14.4452609 C112.462723,14.6662609 112.029574,14.95 111.630723,15.2947826 C111.232426,15.6406957 110.860128,16.0273043 110.513277,16.4563043 C110.166426,16.8864348 109.841702,17.3092174 109.539106,17.7246522 L109.539106,9.42556522 C109.539106,9.23169565 109.523617,9.00786957 109.493191,8.75521739 C109.463319,8.50369565 109.374255,8.2646087 109.226553,8.03852174 C109.079404,7.813 108.84983,7.62252174 108.538383,7.46708696 C108.22583,7.31278261 107.788809,7.23534783 107.225106,7.23534783 C106.86166,7.23534783 106.514809,7.27491304 106.186213,7.35517391 Z M35.7848511,7.35517391 C35.4551489,7.43430435 35.1459149,7.5366087 34.8554894,7.6603913 C34.5650638,7.78417391 34.2984255,7.92773913 34.0561277,8.09165217 C33.8132766,8.25556522 33.5925532,8.42173913 33.3934043,8.5896087 L33.6534043,8.90782609 C33.7745532,8.8106087 33.8890638,8.73826087 33.9974894,8.68852174 C34.1059149,8.64047826 34.2337021,8.61617391 34.3808511,8.61617391 C34.6585532,8.61617391 34.8554894,8.71169565 34.972766,8.9016087 C35.0894894,9.09152174 35.1475745,9.31534783 35.1475745,9.57195652 L35.1475745,26.7008696 C35.1475745,26.798087 35.1625106,26.9263913 35.1929362,27.0863478 C35.2233617,27.2451739 35.3013617,27.4000435 35.4269362,27.5503913 C35.5525106,27.7007391 35.7450213,27.8313043 36.0050213,27.942087 C36.2655745,28.0534348 36.6245957,28.1082609 37.0837447,28.1082609 C37.5428936,28.1082609 37.9096596,28.0568261 38.182383,27.9556522 C38.4551064,27.853913 38.6625532,27.7318261 38.8058298,27.5905217 C38.9491064,27.4486522 39.0398298,27.2983043 39.0791064,27.138913 C39.1178298,26.9795217 39.1371915,26.8427391 39.1371915,26.7268696 L39.1371915,19.8753043 C39.2937447,19.4864348 39.4928936,19.0551739 39.7351915,18.5815217 C39.9774894,18.1078696 40.2485532,17.6653043 40.5472766,17.2532609 C40.8465532,16.8423478 41.1602128,16.4964348 41.4893617,16.2177826 C41.8190638,15.9391304 42.1437872,15.7995217 42.4640851,15.7995217 C42.6289362,15.7995217 42.7567234,15.8306087 42.8474468,15.8922174 C42.9387234,15.9543913 43.0078723,16.0250435 43.0554468,16.1047391 C43.1030213,16.1844348 43.131234,16.2663913 43.1395319,16.3506087 C43.148383,16.4348261 43.1533617,16.4947391 43.1533617,16.5297826 C43.1533617,16.7683043 43.1229362,17.0565652 43.0620851,17.3928696 C43.001234,17.7297391 42.8491064,18.1146522 42.6068085,18.5481739 C42.3645106,18.9822609 42.0049362,19.4666522 41.5286383,20.001913 C41.0523404,20.5371739 40.3979149,21.119913 39.5664681,21.7478696 C40.1810638,23.2530435 40.7746383,24.5671739 41.3460851,25.6919565 C41.9180851,26.8161739 42.4751489,27.7849565 43.0161702,28.5994348 C43.5577447,29.4133478 44.0860426,30.0865217 44.601617,30.6178261 C45.1171915,31.1491304 45.6261277,31.5736087 46.1289787,31.8923913 C46.6312766,32.2106087 47.1313617,32.4327391 47.6297872,32.5559565 C48.1276596,32.6803043 48.6327234,32.741913 49.1438723,32.741913 C49.7064681,32.741913 50.1921702,32.7153478 50.5993191,32.6627826 C51.0064681,32.6096522 51.3660426,32.5384348 51.6774894,32.4496957 C51.9900426,32.362087 52.2671915,32.2575217 52.5094894,32.1382609 C52.7517872,32.0184348 52.990766,31.8923913 53.224766,31.7595652 L52.9774894,31.2949565 C52.8734894,31.3475217 52.7739149,31.3921739 52.6782128,31.4277826 C52.5919149,31.4628261 52.496766,31.493913 52.392766,31.5204783 C52.2893191,31.5470435 52.184766,31.5600435 52.080766,31.5600435 C51.482766,31.5600435 50.8548936,31.3656087 50.1965957,30.9761739 C49.5377447,30.5867391 48.851234,29.9819565 48.1365106,29.1635217 C47.4217872,28.345087 46.6788511,27.3011304 45.9077021,26.0299565 C45.1365532,24.759913 44.3438298,23.244 43.5300851,21.4822174 C44.1358298,21.164 44.6386809,20.8118696 45.0375319,20.4269565 C45.4358298,20.0420435 45.7539149,19.643 45.9923404,19.232087 C46.230766,18.8206087 46.3994894,18.4040435 46.4990638,17.984087 C46.5986383,17.5635652 46.6484255,17.1583043 46.6484255,16.7683043 C46.6484255,16.556913 46.6074894,16.2997391 46.5250638,15.9984783 C46.4426383,15.6977826 46.2993617,15.4078261 46.0963404,15.1291739 C45.892766,14.8499565 45.6261277,14.6108696 45.2975319,14.411913 C44.9678298,14.2129565 44.5568085,14.112913 44.0628085,14.112913 C43.5079574,14.112913 42.9968085,14.2236957 42.5293617,14.4452609 C42.0613617,14.6662609 41.6282128,14.95 41.2299149,15.2947826 C40.8310638,15.6406957 40.458766,16.0273043 40.1119149,16.4563043 C39.7650638,16.8864348 39.4403404,17.3092174 39.1371915,17.7246522 L39.1371915,9.42556522 C39.1371915,9.23169565 39.1222553,9.00786957 39.0918298,8.75521739 C39.0614043,8.50369565 38.9728936,8.2646087 38.8257447,8.03852174 C38.6780426,7.813 38.4484681,7.62252174 38.1370213,7.46708696 C37.8250213,7.31278261 37.3874468,7.23534783 36.8242979,7.23534783 C36.4602979,7.23534783 36.1134468,7.27491304 35.7848511,7.35517391 Z M73.4433617,8.2776087 C72.1909362,8.43247826 71.095617,8.71565217 70.1557447,9.12713043 C69.2158723,9.5386087 68.4729362,10.1015652 67.9269362,10.8143043 C67.3809362,11.5270435 67.1082128,12.435913 67.1082128,13.5420435 C67.1082128,13.9320435 67.1690638,14.2994348 67.2902128,14.6447826 C67.4113617,14.9895652 67.5889362,15.2908261 67.8229362,15.5468696 C68.056383,15.8046087 68.3401702,16.0052609 68.6742979,16.151087 C69.0078723,16.2974783 69.382383,16.3703913 69.798383,16.3703913 C70.0666809,16.3703913 70.3377447,16.3291304 70.6110213,16.2443478 C70.8837447,16.1606957 71.1260426,16.0318261 71.3379149,15.8594348 C71.5508936,15.6870435 71.7234894,15.4722609 71.8579149,15.215087 C71.9923404,14.9584783 72.0592766,14.6532609 72.0592766,14.2994348 C72.0592766,14.0513043 72.0249787,13.8410435 71.9552766,13.6686522 C71.8855745,13.4956957 71.8014894,13.3566522 71.7019149,13.2503913 C71.6023404,13.1441304 71.4944681,13.0666957 71.3771915,13.0175217 C71.2604681,12.9694783 71.1492766,12.9446087 71.0458298,12.9446087 C70.9158298,12.9446087 70.8013191,12.9824783 70.7011915,13.0576522 C70.601617,13.1328261 70.4954043,13.2125217 70.3831064,13.2967391 C70.2702553,13.3809565 70.1446809,13.4606522 70.0058298,13.5358261 C69.8680851,13.611 69.6899574,13.6483043 69.4731064,13.6483043 C69.4305106,13.6483043 69.3580426,13.6375652 69.2590213,13.6149565 C69.1594468,13.592913 69.0620851,13.5403478 68.9669362,13.4561304 C68.871234,13.371913 68.7865957,13.2458696 68.7135745,13.078 C68.6394468,12.9101304 68.602383,12.6840435 68.602383,12.4003043 C68.602383,11.9933478 68.7135745,11.6146522 68.9342979,11.2647826 C69.1550213,10.9154783 69.4471064,10.6147826 69.8116596,10.3621304 C70.1751064,10.1100435 70.5866809,9.91108696 71.0458298,9.76469565 C71.5049787,9.61830435 71.9774043,9.5453913 72.4625532,9.5453913 C72.7048511,9.5453913 72.9277872,9.61434783 73.1319149,9.75113043 C73.3349362,9.88847826 73.4372766,10.0993043 73.4372766,10.381913 L73.4372766,25.2533478 C73.4372766,25.8293043 73.4887234,26.304087 73.5927234,26.6805217 C73.6972766,27.0569565 73.9047234,27.3576522 74.2161702,27.5837391 C74.5287234,27.8098261 74.9718298,27.9686522 75.5488085,28.061913 C76.1246809,28.1546087 76.8853191,28.2009565 77.829617,28.2009565 C79.2502128,28.2009565 80.5822979,27.9641304 81.8258723,27.4904783 C83.0683404,27.0173913 84.1520426,26.3272609 85.0742128,25.4195217 C85.9969362,24.5123478 86.7249362,23.3898261 87.2576596,22.0536522 C87.790383,20.716913 88.0570213,19.1857391 88.0570213,17.459 C88.0570213,15.7333913 87.8053191,14.2700435 87.3030213,13.0712174 C86.8007234,11.8718261 86.0854468,10.9002174 85.1582979,10.1563913 C84.2317021,9.41256522 83.1164681,8.87504348 81.8131489,8.54326087 C80.5087234,8.21091304 79.0510638,8.04530435 77.439617,8.04530435 C76.0273191,8.04530435 74.695234,8.12273913 73.4433617,8.2776087 Z M78.0569787,26.455 C77.8357021,26.2385217 77.7250638,25.8773478 77.7250638,25.3726087 L77.7250638,10.9527826 C77.7250638,10.2892174 77.8511915,9.82913043 78.1023404,9.57195652 C78.3534894,9.31534783 78.7606383,9.18704348 79.3237872,9.18704348 C79.557234,9.18704348 79.8238723,9.22491304 80.1237021,9.29952174 C80.4224255,9.37469565 80.727234,9.52108696 81.0397872,9.73813043 C81.351234,9.9546087 81.6565957,10.2558696 81.9553191,10.6413478 C82.2545957,11.0256957 82.5206809,11.5270435 82.7546809,12.1414348 C82.9886809,12.7569565 83.176766,13.5047391 83.3200426,14.3853478 C83.462766,15.2659565 83.5346809,16.3087826 83.5346809,17.5126957 C83.5346809,19.3095217 83.4218298,20.8005652 83.1966809,21.9869565 C82.9715319,23.1727826 82.6595319,24.1223478 82.2606809,24.835087 C81.862383,25.5472609 81.3882979,26.0497391 80.8378723,26.3425217 C80.2874468,26.6347391 79.6877872,26.78 79.0383404,26.78 C78.6046383,26.78 78.2782553,26.6720435 78.0569787,26.455 Z M15.7764681,9.386 C15.5208936,9.48378261 15.2957447,9.6166087 15.1010213,9.78447826 C14.9057447,9.95291304 14.7541702,10.1496087 14.6457447,10.3756957 C14.5373191,10.6012174 14.4836596,10.8380435 14.4836596,11.0861739 C14.4836596,11.3427826 14.5373191,11.5818696 14.6457447,11.8028696 C14.7541702,12.0244348 14.9057447,12.2171739 15.1010213,12.3805217 C15.2957447,12.5438696 15.5208936,12.6744348 15.7764681,12.7727826 C16.0320426,12.8694348 16.3114043,12.9180435 16.6151064,12.9180435 C16.9094043,12.9180435 17.1843404,12.8694348 17.4399149,12.7727826 C17.6954894,12.6744348 17.9184255,12.5438696 18.1092766,12.3805217 C18.2995745,12.2171739 18.4489362,12.0244348 18.5579149,11.8028696 C18.6657872,11.5818696 18.72,11.3427826 18.72,11.0861739 C18.72,10.8380435 18.6657872,10.6012174 18.5579149,10.3756957 C18.4489362,10.1496087 18.2995745,9.95291304 18.1092766,9.78447826 C17.9184255,9.6166087 17.6954894,9.48378261 17.4399149,9.386 C17.1843404,9.28878261 16.9094043,9.24017391 16.6151064,9.24017391 C16.3114043,9.24017391 16.0320426,9.28878261 15.7764681,9.386 Z M123.840213,14.3192174 C123.315787,14.4565652 122.802426,14.6600435 122.300128,14.9302174 C121.797277,15.1998261 121.318766,15.5389565 120.864043,15.945913 C120.408766,16.3528696 120.010468,16.8265217 119.668596,17.3668696 C119.32617,17.906087 119.055106,18.5125652 118.856511,19.1857391 C118.656809,19.858913 118.557234,20.5976522 118.557234,21.403087 C118.557234,22.5188261 118.724298,23.4921304 119.058426,24.3241304 C119.391447,25.1561304 119.83566,25.8507826 120.389404,26.4086522 C120.944255,26.9659565 121.578766,27.3847826 122.293489,27.6634348 C123.008213,27.942087 123.742851,28.0816957 124.496298,28.0816957 C125.250298,28.0816957 125.921319,27.9861739 126.510468,27.7962609 C127.099617,27.6063478 127.615191,27.3672609 128.057191,27.0795652 C128.498638,26.7918696 128.875915,26.4838261 129.187915,26.1565652 C129.499362,25.8293043 129.754936,25.5274783 129.954085,25.2533478 L129.629362,24.9351304 C129.421915,25.1205217 129.213915,25.2957391 129.005915,25.4596522 C128.797362,25.623 128.581064,25.7665652 128.355915,25.890913 C128.130213,26.0141304 127.887915,26.111913 127.627915,26.1825652 C127.367915,26.2532174 127.086894,26.2893913 126.783745,26.2893913 C126.350043,26.2893913 125.951745,26.2181739 125.587745,26.0763043 C125.224298,25.935 124.892383,25.745087 124.59366,25.5054348 C124.294936,25.2663478 124.031064,24.9944783 123.800936,24.6892609 C123.571362,24.3834783 123.378851,24.063 123.222298,23.7266957 C123.066851,23.3898261 122.947362,23.0557826 122.865489,22.7234348 C122.782511,22.3922174 122.742128,22.0847391 122.742128,21.8015652 L127.875191,18.7075652 C128.264638,18.46 128.576638,18.1694783 128.810638,17.8376957 C129.044638,17.505913 129.161915,17.1317391 129.161915,16.7151739 C129.161915,16.3703913 129.083362,16.0408696 128.927915,15.7266087 C128.771915,15.4123478 128.535702,15.1359565 128.219277,14.8968696 C127.902851,14.6577826 127.506766,14.4673043 127.030468,14.3254348 C126.553617,14.1841304 125.994894,14.112913 125.353745,14.112913 C124.869149,14.112913 124.364085,14.1824348 123.840213,14.3192174 Z M122.624851,19.8029565 C122.633702,19.4446087 122.659702,19.0704348 122.702851,18.6804348 C122.746,18.2915652 122.808511,17.9038261 122.891489,17.518913 C122.973362,17.134 123.086766,16.7914783 123.228936,16.4896522 C123.372213,16.1889565 123.554213,15.943087 123.774936,15.7531739 C123.996213,15.5632609 124.262298,15.4677391 124.574298,15.4677391 C124.816596,15.4677391 125.024596,15.5468696 125.197745,15.7068261 C125.371447,15.8662174 125.51417,16.0651739 125.627021,16.3042609 C125.739872,16.5433478 125.819532,16.7976957 125.86766,17.0678696 C125.914681,17.3374783 125.939021,17.5833478 125.939021,17.8043478 C125.939021,18.0078261 125.927957,18.1785217 125.906383,18.3158696 C125.884809,18.4532174 125.851617,18.5679565 125.809021,18.6606522 C125.765319,18.753913 125.707234,18.8336087 125.63366,18.8997391 C125.559532,18.9664348 125.466596,19.0353913 125.353745,19.1060435 L122.612128,20.7123913 C122.612128,20.4642609 122.616553,20.1613043 122.624851,19.8029565 Z M98.6163404,14.3192174 C98.2562128,14.4565652 97.9381277,14.6266957 97.6598723,14.8301739 C97.3827234,15.0336522 97.1470638,15.2484348 96.9523404,15.4739565 C96.757617,15.7000435 96.5944255,15.9057826 96.4649787,16.0917391 L96.7897021,16.3703913 C96.8937021,16.2466087 97.0126383,16.125087 97.1470638,16.0052609 C97.2814894,15.886 97.4264255,15.826087 97.5824255,15.826087 C97.7124255,15.826087 97.812,15.8526522 97.8811489,15.9057826 C97.9508511,15.958913 98.0028511,16.0273043 98.0371489,16.1115217 C98.072,16.1957391 98.0930213,16.283913 98.1024255,16.3771739 C98.1107234,16.4698696 98.1151489,16.556913 98.1151489,16.6360435 L98.1151489,24.3902609 C98.046,24.479 97.9348085,24.6112609 97.7843404,24.7887391 C97.6322128,24.9662174 97.4524255,25.1448261 97.2449787,25.3262609 C97.0369787,25.5076957 96.8074043,25.6653913 96.5557021,25.7976522 C96.3045532,25.9304783 96.0528511,25.9971739 95.8022553,25.9971739 C95.6462553,25.9971739 95.5118298,25.9638261 95.3995319,25.8971304 C95.2861277,25.831 95.1937447,25.745087 95.1201702,25.6382609 C95.0460426,25.532 94.9901702,25.415 94.9508936,25.2866957 C94.9121702,25.1583913 94.8922553,25.0323478 94.8922553,24.9085652 L94.8922553,16.0386087 C94.8922553,15.7729565 94.8446809,15.5225652 94.7495319,15.288 C94.6538298,15.054 94.5111064,14.8499565 94.3202553,14.6775652 C94.1299574,14.5051739 93.8915319,14.3678261 93.6060851,14.266087 C93.3200851,14.1643478 92.9859574,14.112913 92.6053617,14.112913 C92.1633617,14.112913 91.7622979,14.1824348 91.4032766,14.3192174 C91.0431489,14.4565652 90.7250638,14.6266957 90.4479149,14.8301739 C90.170766,15.0336522 89.934,15.2484348 89.7398298,15.4739565 C89.5445532,15.7000435 89.3824681,15.9057826 89.2524681,16.0917391 L89.5771915,16.3703913 C89.6811915,16.2466087 89.8001277,16.125087 89.934,16.0052609 C90.0689787,15.886 90.2144681,15.826087 90.3699149,15.826087 C90.5004681,15.826087 90.5994894,15.8526522 90.6691915,15.9057826 C90.7383404,15.958913 90.7897872,16.0273043 90.8246383,16.1115217 C90.8589362,16.1957391 90.8810638,16.283913 90.8899149,16.3771739 C90.8982128,16.4698696 90.9031915,16.556913 90.9031915,16.6360435 L90.9031915,24.8548696 C90.9031915,25.2448696 90.9546383,25.6343043 91.0586383,26.0237391 C91.1626383,26.4131739 91.3269362,26.7624783 91.5520851,27.0727826 C91.7777872,27.3825217 92.0737447,27.6323478 92.4421702,27.8228261 C92.8105957,28.0127391 93.2548085,28.1082609 93.7748085,28.1082609 C94.0436596,28.1082609 94.3119574,28.0732174 94.5802553,28.002 C94.8485532,27.9313478 95.1085532,27.8358261 95.3602553,27.7165652 C95.6114043,27.5967391 95.8542553,27.4616522 96.0877021,27.3118696 C96.3217021,27.1609565 96.5429787,27.006087 96.7509787,26.8472609 C97.2272766,26.4838261 97.6814468,26.0633043 98.1151489,25.5851304 L98.1151489,26.1825652 C98.1151489,26.4482174 98.1627234,26.6986087 98.2578723,26.9331739 C98.3530213,27.1677391 98.4985106,27.3717826 98.6937872,27.5441739 C98.8885106,27.7165652 99.1269362,27.853913 99.4079574,27.9556522 C99.6900851,28.0568261 100.020894,28.1082609 100.402596,28.1082609 C100.852894,28.1082609 101.255617,28.0387391 101.610766,27.9019565 C101.966468,27.7651739 102.28234,27.5950435 102.559489,27.3915652 C102.836638,27.1875217 103.072851,26.9727391 103.267574,26.7466522 C103.462851,26.5216957 103.624936,26.3153913 103.755489,26.13 L103.443489,25.8507826 C103.330638,25.9745652 103.209489,26.096087 103.079489,26.215913 C102.949489,26.3351739 102.80234,26.3956522 102.638043,26.3956522 C102.507489,26.3956522 102.408468,26.369087 102.338766,26.3153913 C102.269617,26.2628261 102.217617,26.1938696 102.182766,26.1102174 C102.148468,26.0254348 102.12634,25.9378261 102.118043,25.844 C102.109191,25.7513043 102.104766,25.6653913 102.104766,25.5851304 L102.104766,16.0386087 C102.104766,15.7729565 102.056638,15.5225652 101.961489,15.288 C101.86634,15.054 101.723617,14.8499565 101.533319,14.6775652 C101.342468,14.5051739 101.104043,14.3678261 100.818043,14.266087 C100.532596,14.1643478 100.199021,14.112913 99.8178723,14.112913 C99.3758723,14.112913 98.9748085,14.1824348 98.6163404,14.3192174 Z M52.288766,14.2926522 C51.725617,14.411913 51.2205532,14.5961739 50.7746809,14.8437391 C50.3282553,15.0918696 49.9664681,15.4078261 49.6898723,15.7927391 C49.4121702,16.1776522 49.2733191,16.6405652 49.2733191,17.1803478 C49.2733191,17.7382174 49.4226809,18.1853043 49.7219574,18.5216087 C50.0206809,18.8573478 50.4123404,19.0257826 50.8980426,19.0257826 C51.0800426,19.0257826 51.2554043,18.993 51.4241277,18.9263043 C51.5934043,18.8601739 51.7405532,18.766913 51.8661277,18.6476522 C51.9917021,18.5283913 52.0912766,18.3904783 52.1648511,18.2367391 C52.2389787,18.0813043 52.2754894,17.9106087 52.2754894,17.7246522 C52.2754894,17.4414783 52.2085532,17.2317826 52.0741277,17.0944348 C51.9397021,16.9565217 51.7903404,16.8508261 51.6260426,16.775087 C51.4611915,16.7004783 51.3118298,16.6337826 51.1774043,16.5766957 C51.0429787,16.5190435 50.9760426,16.4235217 50.9760426,16.2906957 C50.9760426,16.1759565 51.0280426,16.0538696 51.1320426,15.9261304 C51.2360426,15.7978261 51.378766,15.6802609 51.560766,15.5734348 C51.742766,15.4677391 51.959617,15.379 52.2102128,15.3077826 C52.4619149,15.2371304 52.7346383,15.202087 53.0294894,15.202087 C53.6789362,15.202087 54.1922979,15.3987826 54.5695745,15.7927391 C54.9462979,16.1866957 55.134383,16.7112174 55.134383,17.3668696 C55.134383,17.7913478 55.0198723,18.2056522 54.7897447,18.608087 C54.5601702,19.0105217 54.1945106,19.3140435 53.6922128,19.5175217 C53.0162128,19.7916522 52.3557021,20.0527826 51.7101277,20.300913 C51.0645532,20.5484783 50.4886809,20.8474783 49.9819574,21.1967826 C49.475234,21.5472174 49.0653191,21.977913 48.7538723,22.4911304 C48.4418723,23.0054783 48.2858723,23.6645217 48.2858723,24.4699565 C48.2858723,25.134087 48.3788085,25.695913 48.565234,26.1565652 C48.7516596,26.6166522 48.998383,26.9908261 49.3059574,27.2779565 C49.6135319,27.5662174 49.9625957,27.7764783 50.3520426,27.9087391 C50.7420426,28.0421304 51.144766,28.1082609 51.560766,28.1082609 C51.8810638,28.1082609 52.1997021,28.0732174 52.5161277,28.002 C52.832,27.9313478 53.1462128,27.8160435 53.4582128,27.6566522 C53.7702128,27.4972609 54.0755745,27.2898261 54.3742979,27.032087 C54.6735745,26.7760435 54.961234,26.4572609 55.238383,26.0763043 C55.368383,26.767 55.6455319,27.2779565 56.070383,27.6103043 C56.4946809,27.942087 56.9798298,28.1082609 57.5258298,28.1082609 C57.9672766,28.1082609 58.3617021,28.0421304 58.708,27.9087391 C59.0554043,27.7764783 59.358,27.6125652 59.618,27.4181304 C59.8774468,27.2231304 60.0987234,27.0151304 60.2807234,26.793 C60.4627234,26.5725652 60.6187234,26.369087 60.7481702,26.1825652 L60.424,25.903913 C60.32,26.0276957 60.2005106,26.1497826 60.0660851,26.2690435 C59.9316596,26.3888696 59.7872766,26.4482174 59.6307234,26.4482174 C59.5012766,26.4482174 59.4011489,26.4216522 59.332,26.369087 C59.2622979,26.3153913 59.2102979,26.2492609 59.176,26.1695652 C59.1411489,26.0898696 59.1195745,26.0011304 59.1107234,25.903913 C59.1024255,25.8061304 59.098,25.7185217 59.098,25.6382609 L59.098,18.1361304 C59.098,17.4194348 58.9569362,16.809 58.6759149,16.3042609 C58.3937872,15.7995217 58.017617,15.3835217 57.5451915,15.0556957 C57.072766,14.7284348 56.5295319,14.4893478 55.9138298,14.339 C55.299234,14.1886522 54.6536596,14.112913 53.9776596,14.112913 C53.4145106,14.112913 52.8519149,14.1728261 52.288766,14.2926522 Z M52.9382128,26.0898696 C52.7733617,26.0101739 52.6284255,25.8711304 52.5034043,25.6721739 C52.3772766,25.4726522 52.2777021,25.2053043 52.2041277,24.8684348 C52.13,24.5321304 52.0934894,24.1065217 52.0934894,23.5933043 C52.0934894,23.0625652 52.1543404,22.5956957 52.2754894,22.1926957 C52.3971915,21.7902609 52.5614894,21.4511304 52.7694894,21.177 C52.9769362,20.9028696 53.2175745,20.6948696 53.4902979,20.553 C53.7630213,20.4116957 54.051234,20.3404783 54.3549362,20.3404783 C54.571234,20.3404783 54.7488085,20.3986957 54.8876596,20.5134348 C55.0265106,20.6281739 55.0956596,20.7966087 55.0956596,21.0176087 L55.0956596,24.258 C55.0956596,24.4880435 55.0525106,24.718087 54.9656596,24.9481304 C54.8788085,25.1787391 54.7620851,25.3867391 54.614383,25.5721304 C54.467234,25.758087 54.2940851,25.9106957 54.0949362,26.0299565 C53.8957872,26.1497826 53.6833617,26.2091304 53.4582128,26.2091304 C53.2762128,26.2091304 53.1025106,26.1695652 52.9382128,26.0898696 Z M31.4539149,14.1530435 C31.3023404,14.1796087 31.1546383,14.2236957 31.0119149,14.2858696 C30.8691915,14.3474783 30.7458298,14.4232174 30.6418298,14.5119565 C30.5372766,14.6001304 30.4858298,14.710913 30.4858298,14.8437391 C30.4858298,14.9856087 30.5245532,15.1466957 30.6025532,15.3275652 C30.6805532,15.5095652 30.7668511,15.737913 30.8625532,16.0120435 C30.9577021,16.2867391 31.0445532,16.6247391 31.1225532,17.0277391 C31.2005532,17.4301739 31.2392766,17.9236087 31.2392766,18.5086087 C31.2392766,19.3937391 31.1745532,20.2257391 31.0445532,21.0040435 C30.9145532,21.7834783 30.7430638,22.4645652 30.5311915,23.049 C30.318766,23.6334348 30.0714894,24.0935217 29.7904681,24.4303913 C29.5088936,24.7666957 29.2162553,24.9351304 28.9136596,24.9351304 C28.3671064,24.9351304 27.895234,24.2444348 27.496383,22.8636087 C27.0980851,21.4822174 26.7385106,19.4513913 26.4182128,16.7683043 C26.3833617,16.5213043 26.3269362,16.2426522 26.2489362,15.9323478 C26.1709362,15.6226087 26.0387234,15.3326522 25.8528511,15.061913 C25.6664255,14.7928696 25.4130638,14.5667826 25.0922128,14.3853478 C24.7713617,14.203913 24.3520426,14.112913 23.8320426,14.112913 C23.4680426,14.112913 23.1211915,14.1530435 22.7925957,14.2327391 C22.4628936,14.3124348 22.1553191,14.4147391 21.8693191,14.5379565 C21.5838723,14.6623043 21.317234,14.8058696 21.0705106,14.9697826 C20.8237872,15.1336957 20.6002979,15.2998696 20.4011489,15.4677391 L20.6611489,15.7995217 C20.7828511,15.7023043 20.8973617,15.6271304 21.005234,15.5734348 C21.1136596,15.5203043 21.2414468,15.4943043 21.3891489,15.4943043 C21.6657447,15.4943043 21.863234,15.5915217 21.9799574,15.7859565 C22.097234,15.9809565 22.1813191,16.2556522 22.2333191,16.6094783 C22.3024681,17.1226957 22.3826809,17.763087 22.4739574,18.5283913 C22.565234,19.2942609 22.6858298,20.1036522 22.8379574,20.9576957 C22.9889787,21.8128696 23.1864681,22.664087 23.428766,23.5141739 C23.671617,24.3636957 23.9769787,25.1295652 24.3454043,25.8106522 C24.7132766,26.4928696 25.1619149,27.0456522 25.6902128,27.4706957 C26.2185106,27.8957391 26.8425106,28.1082609 27.5616596,28.1082609 C28.1768085,28.1082609 28.7333191,27.9285217 29.2317447,27.5707391 C29.7301702,27.2118261 30.1754894,26.7336522 30.5699149,26.1362174 C30.9643404,25.5387826 31.304,24.8548696 31.5905532,24.0850435 C31.876,23.3146522 32.1122128,22.5188261 32.2986383,21.6953043 C32.4845106,20.8717826 32.6233617,20.0527826 32.7140851,19.2388696 C32.8053617,18.4243913 32.8512766,17.6766087 32.8512766,16.9943913 C32.8512766,16.5167826 32.8357872,16.0674348 32.8053617,15.646913 C32.7749362,15.2263913 32.7212766,14.8883913 32.6427234,14.6312174 C32.5735745,14.4277391 32.4828511,14.2898261 32.37,14.2197391 C32.2571489,14.149087 32.0751489,14.112913 31.824,14.112913 C31.7288511,14.112913 31.6049362,14.1264783 31.4539149,14.1530435 Z M15.5231064,14.2327391 C15.1934043,14.3124348 14.886383,14.4147391 14.600383,14.5379565 C14.314383,14.6623043 14.0477447,14.8058696 13.8015745,14.9697826 C13.5548511,15.1336957 13.3313617,15.2998696 13.1316596,15.4677391 L13.4049362,15.7995217 C13.5260851,15.7023043 13.6389362,15.6271304 13.7429362,15.5734348 C13.8469362,15.5203043 13.9725106,15.4943043 14.1196596,15.4943043 C14.3968085,15.4943043 14.5942979,15.5898261 14.7110213,15.7797391 C14.8282979,15.9696522 14.886383,16.1934783 14.886383,16.450087 L14.886383,26.7008696 C14.886383,26.798087 14.9013191,26.9263913 14.9322979,27.0863478 C14.9621702,27.2451739 15.042383,27.4000435 15.172383,27.5503913 C15.3018298,27.7007391 15.4971064,27.8313043 15.7571064,27.942087 C16.0171064,28.0534348 16.3766809,28.1082609 16.8358298,28.1082609 C17.2949787,28.1082609 17.6584255,28.0568261 17.9272766,27.9556522 C18.1955745,27.853913 18.4013617,27.7295652 18.5440851,27.5837391 C18.6873617,27.437913 18.7780851,27.2830435 18.8173617,27.1191304 C18.8566383,26.9552174 18.876,26.8161739 18.876,26.7008696 L18.876,16.3178261 C18.876,16.1228261 18.8610638,15.8967391 18.8306383,15.6406957 C18.8002128,15.3835217 18.7117021,15.1427391 18.564,14.9166522 C18.4168511,14.6905652 18.1872766,14.5006522 17.8758298,14.3452174 C17.5632766,14.190913 17.1257021,14.112913 16.5625532,14.112913 C16.1985532,14.112913 15.8522553,14.1530435 15.5231064,14.2327391 Z" id="path-1"></path>
        <radialGradient cx="21.9050558%" cy="52.1820958%" fx="21.9050558%" fy="52.1820958%" r="229.683628%" gradientTransform="translate(0.219051,0.521821),scale(0.299040,1.000000),translate(-0.219051,-0.521821)" id="radialGradient-3">
            <stop stop-color="#A21100" offset="0%"></stop>
            <stop stop-color="#000000" offset="100%"></stop>
        </radialGradient>
    </defs>
    <g id="Jivka-Duke-Violinist-Violist-logo-designed-by-Isral-Duke" stroke="none" stroke-width="1" fill="none" fill-rule="evenodd">
        <g id="Page-1" transform="translate(16.000000, 25.000000)">
            <mask id="mask-2" fill="white">
                <use xlink:href="#path-1"></use>
            </mask>
            <g id="Clip-2"></g>
            <path d="M8.74595745,0 C8.10480851,0 7.46365957,0.0514347826 6.82306383,0.152608696 C6.1813617,0.254347826 5.56676596,0.407521739 4.97706383,0.611 C4.38791489,0.814478261 3.84025532,1.06882609 3.33297872,1.37404348 C2.82625532,1.67982609 2.38480851,2.03647826 2.00808511,2.44343478 C1.63080851,2.85095652 1.33429787,3.30878261 1.11744681,3.81804348 C0.901148936,4.32673913 0.792723404,4.88630435 0.792723404,5.49730435 C0.792723404,5.88673913 0.853574468,6.25413043 0.974723404,6.59947826 C1.09587234,6.94426087 1.27344681,7.24552174 1.50744681,7.50213043 C1.74144681,7.75930435 2.02468085,7.96052174 2.35825532,8.10691304 C2.69182979,8.25217391 3.06689362,8.32565217 3.48289362,8.32565217 C3.75119149,8.32565217 4.02225532,8.28382609 4.29497872,8.1996087 C4.56825532,8.1153913 4.81055319,7.98652174 5.02242553,7.81469565 C5.23540426,7.64173913 5.40855319,7.42695652 5.54297872,7.17034783 C5.67685106,6.91373913 5.74378723,6.60852174 5.74378723,6.25413043 C5.74378723,6.00656522 5.70948936,5.79573913 5.63978723,5.62334783 C5.5706383,5.45095652 5.486,5.31134783 5.38642553,5.20508696 C5.28685106,5.09882609 5.17842553,5.0213913 5.06170213,4.97334783 C4.94497872,4.92417391 4.83434043,4.89930435 4.73034043,4.89930435 C4.60034043,4.89930435 4.4852766,4.93773913 4.38625532,5.01291304 C4.28612766,5.08752174 4.17991489,5.16834783 4.06761702,5.252 C3.95531915,5.33621739 3.82919149,5.41591304 3.69089362,5.49052174 C3.55204255,5.56569565 3.37446809,5.60356522 3.15817021,5.60356522 C3.11446809,5.60356522 3.04310638,5.59226087 2.94353191,5.57021739 C2.84395745,5.54817391 2.74604255,5.49504348 2.65089362,5.4113913 C2.55574468,5.3266087 2.47165957,5.20113043 2.39753191,5.03269565 C2.32395745,4.86482609 2.28744681,4.63873913 2.28744681,4.355 C2.28744681,4.02830435 2.36489362,3.72308696 2.52144681,3.43878261 C2.67689362,3.15617391 2.87880851,2.899 3.12553191,2.66952174 C3.37280851,2.43891304 3.65382979,2.2326087 3.97025532,2.05173913 C4.28612766,1.87030435 4.60034043,1.71769565 4.91234043,1.59334783 C5.22434043,1.47013043 5.52085106,1.37686957 5.80297872,1.31469565 C6.084,1.25252174 6.32021277,1.22143478 6.51051064,1.22143478 C6.64051064,1.22143478 6.75944681,1.23273913 6.86787234,1.25534783 C6.97685106,1.27682609 7.06978723,1.32147826 7.14723404,1.38817391 C7.22578723,1.45430435 7.28608511,1.54473913 7.32978723,1.66004348 C7.37238298,1.77534783 7.39451064,1.93021739 7.39451064,2.12521739 L7.39451064,10.3208696 C7.39451064,10.7803913 7.0133617,10.9007826 6.82306383,10.9313043 C6.1813617,11.0330435 5.56676596,11.1856522 4.97706383,11.3891304 C4.38791489,11.5926087 3.84025532,11.8475217 3.33297872,12.1521739 C2.82625532,12.4579565 2.38480851,12.8146087 2.00808511,13.221 C1.63080851,13.6285217 1.33429787,14.086913 1.11744681,14.5956087 C0.901148936,15.1048696 0.792723404,15.6644348 0.792723404,16.2754348 C0.792723404,16.6648696 0.853574468,17.0322609 0.974723404,17.3776087 C1.09587234,17.7223913 1.27344681,18.023087 1.50744681,18.2802609 C1.74144681,18.5374348 2.02468085,18.7386522 2.35825532,18.8844783 C2.69182979,19.0303043 3.06689362,19.1037826 3.48289362,19.1037826 C3.75119149,19.1037826 4.02225532,19.0613913 4.29497872,18.9771739 C4.56825532,18.8935217 4.81055319,18.7652174 5.02242553,18.5922609 C5.23540426,18.4198696 5.40855319,18.205087 5.54297872,17.9484783 C5.67685106,17.6918696 5.74378723,17.3866522 5.74378723,17.0322609 C5.74378723,16.7841304 5.70948936,16.5738696 5.63978723,16.400913 C5.5706383,16.229087 5.486,16.0894783 5.38642553,15.9832174 C5.28685106,15.8769565 5.17842553,15.800087 5.06170213,15.750913 C4.94497872,15.7028696 4.83434043,15.6774348 4.73034043,15.6774348 C4.60034043,15.6774348 4.4852766,15.7158696 4.38625532,15.7904783 C4.28612766,15.8662174 4.17991489,15.945913 4.06761702,16.0295652 C3.95531915,16.1143478 3.82919149,16.1934783 3.69089362,16.2686522 C3.55204255,16.3438261 3.37446809,16.3811304 3.15817021,16.3811304 C3.11446809,16.3811304 3.04310638,16.3703913 2.94353191,16.3483478 C2.84395745,16.3263043 2.74604255,16.2731739 2.65089362,16.1895217 C2.55574468,16.1047391 2.47165957,15.9786957 2.39753191,15.8102609 C2.32395745,15.6429565 2.28744681,15.4174348 2.28744681,15.1336957 C2.28744681,14.8064348 2.36489362,14.5012174 2.52144681,14.2174783 C2.67689362,13.9337391 2.87880851,13.6776957 3.12553191,13.447087 C3.37280851,13.2170435 3.65382979,13.0113043 3.97025532,12.8298696 C4.28612766,12.6484348 4.60034043,12.4952609 4.91234043,12.370913 C5.22434043,12.2476957 5.52085106,12.155 5.80297872,12.0922609 C6.084,12.0306522 6.32021277,11.9995652 6.51051064,11.9995652 C6.64051064,11.9995652 6.75944681,12.0108696 6.86787234,12.032913 C6.97685106,12.0555217 7.06978723,12.0990435 7.14723404,12.1663043 C7.22578723,12.2324348 7.28608511,12.3228696 7.32978723,12.4381739 C7.37238298,12.5534783 7.39451064,12.7077826 7.39451064,12.9027826 L7.39451064,14.7380435 L7.39451064,32.8600435 C7.39451064,33.6038696 7.31817021,34.2872174 7.16714894,34.9112174 C7.01557447,35.5352174 6.78323404,36.0727391 6.47178723,36.5243478 C6.16034043,36.9759565 5.76314894,37.3252609 5.28242553,37.5739565 C4.80170213,37.8215217 4.22804255,37.9453043 3.56089362,37.9453043 C3.22344681,37.9453043 2.94131915,37.8966957 2.71617021,37.7994783 C2.49102128,37.7016957 2.29795745,37.5807391 2.13808511,37.4343478 C1.97765957,37.2873913 1.84765957,37.1308261 1.74808511,36.9623913 C1.64851064,36.7939565 1.56,36.6373913 1.48144681,36.4915652 C1.40344681,36.3451739 1.32765957,36.2236522 1.25408511,36.1264348 C1.18051064,36.0286522 1.09587234,35.9800435 1.0007234,35.9800435 C0.844723404,35.9800435 0.704212766,36.0246957 0.578638298,36.1123043 C0.45306383,36.2016087 0.346297872,36.3118261 0.26,36.4452174 C0.173148936,36.5774783 0.108425532,36.7261304 0.0652765957,36.8900435 C0.0221276596,37.0533913 0,37.2150435 0,37.3744348 C0,37.5869565 0.0929361702,37.7836522 0.279914894,37.965087 C0.465787234,38.147087 0.714723404,38.3042174 1.0267234,38.4364783 C1.3387234,38.5693043 1.69774468,38.6733043 2.10544681,38.7490435 C2.51204255,38.8236522 2.93689362,38.8615217 3.37889362,38.8615217 C4.5306383,38.8615217 5.61212766,38.7128696 6.62114894,38.4161304 C7.63017021,38.1205217 8.50753191,37.6734348 9.25323404,37.076 C9.99782979,36.478 10.584766,35.7324783 11.0134894,34.8383043 C11.442766,33.9446957 11.6574043,32.895087 11.6574043,31.6911739 L11.6574043,1.84656522 C11.6574043,1.70413043 11.6391489,1.52721739 11.6048511,1.31469565 C11.57,1.10217391 11.4599149,0.89926087 11.2740426,0.70426087 C11.0870638,0.50926087 10.7966383,0.343652174 10.402766,0.206304348 C10.0088936,0.0689565217 9.45680851,0 8.74595745,0 Z M106.186213,7.35517391 C105.856511,7.43430435 105.546723,7.5366087 105.256851,7.6603913 C104.966426,7.78417391 104.70034,7.92773913 104.456936,8.09165217 C104.214638,8.25556522 103.993362,8.42173913 103.794766,8.5896087 L104.054766,8.90782609 C104.175915,8.8106087 104.290426,8.73826087 104.398851,8.68852174 C104.506723,8.64047826 104.635064,8.61617391 104.782766,8.61617391 C105.059362,8.61617391 105.256851,8.71169565 105.373574,8.9016087 C105.490851,9.09152174 105.548936,9.31534783 105.548936,9.57195652 L105.548936,26.7008696 C105.548936,26.798087 105.564426,26.9263913 105.594298,27.0863478 C105.624723,27.2451739 105.703277,27.4000435 105.828298,27.5503913 C105.954426,27.7007391 106.146936,27.8313043 106.406936,27.942087 C106.666383,28.0534348 107.025957,28.1082609 107.485106,28.1082609 C107.944809,28.1082609 108.310468,28.0568261 108.583191,27.9556522 C108.856468,27.853913 109.064468,27.7318261 109.207191,27.5905217 C109.349915,27.4486522 109.441191,27.2983043 109.479915,27.138913 C109.519191,26.9795217 109.539106,26.8427391 109.539106,26.7268696 L109.539106,19.8753043 C109.694553,19.4864348 109.893149,19.0551739 110.136553,18.5815217 C110.378851,18.1078696 110.649915,17.6653043 110.948638,17.2532609 C111.247362,16.8423478 111.561574,16.4964348 111.890723,16.2177826 C112.219872,15.9391304 112.545149,15.7995217 112.864894,15.7995217 C113.029745,15.7995217 113.158638,15.8306087 113.248809,15.8922174 C113.339532,15.9543913 113.409234,16.0250435 113.457362,16.1047391 C113.504383,16.1844348 113.532043,16.2663913 113.541447,16.3506087 C113.549745,16.4348261 113.55417,16.4947391 113.55417,16.5297826 C113.55417,16.7683043 113.523745,17.0565652 113.463447,17.3928696 C113.402596,17.7297391 113.251021,18.1146522 113.008723,18.5481739 C112.765872,18.9822609 112.406298,19.4666522 111.929447,20.001913 C111.453149,20.5371739 110.798723,21.119913 109.967277,21.7478696 C110.582426,23.2530435 111.176,24.5671739 111.748,25.6919565 C112.319447,26.8161739 112.875957,27.7849565 113.417532,28.5994348 C113.95966,29.4133478 114.487957,30.0865217 115.002979,30.6178261 C115.518553,31.1491304 116.027489,31.5736087 116.53034,31.8923913 C117.032638,32.2106087 117.532723,32.4327391 118.031149,32.5559565 C118.529021,32.6803043 119.033532,32.741913 119.545234,32.741913 C120.108383,32.741913 120.592979,32.7153478 121.000128,32.6627826 C121.408383,32.6096522 121.766851,32.5384348 122.079404,32.4496957 C122.390851,32.362087 122.668,32.2575217 122.910851,32.1382609 C123.153149,32.0184348 123.391574,31.8923913 123.625574,31.7595652 L123.378851,31.2949565 C123.275404,31.3475217 123.175277,31.3921739 123.080128,31.4277826 C122.992723,31.4628261 122.897574,31.493913 122.794128,31.5204783 C122.689574,31.5470435 122.586128,31.5600435 122.482128,31.5600435 C121.884681,31.5600435 121.256255,31.3656087 120.597404,30.9761739 C119.939106,30.5867391 119.252596,29.9819565 118.538426,29.1635217 C117.823702,28.345087 117.080213,27.3011304 116.309617,26.0299565 C115.537915,24.759913 114.745191,23.244 113.930894,21.4822174 C114.537745,21.164 115.040043,20.8118696 115.438894,20.4269565 C115.837191,20.0420435 116.155277,19.643 116.393702,19.232087 C116.632128,18.8206087 116.800851,18.4040435 116.900979,17.984087 C117.000553,17.5635652 117.049787,17.1583043 117.049787,16.7683043 C117.049787,16.556913 117.008851,16.2997391 116.926979,15.9984783 C116.844,15.6977826 116.700723,15.4078261 116.497702,15.1291739 C116.294128,14.8499565 116.027489,14.6108696 115.69834,14.411913 C115.369191,14.2129565 114.957617,14.112913 114.463617,14.112913 C113.909872,14.112913 113.39817,14.2236957 112.930723,14.4452609 C112.462723,14.6662609 112.029574,14.95 111.630723,15.2947826 C111.232426,15.6406957 110.860128,16.0273043 110.513277,16.4563043 C110.166426,16.8864348 109.841702,17.3092174 109.539106,17.7246522 L109.539106,9.42556522 C109.539106,9.23169565 109.523617,9.00786957 109.493191,8.75521739 C109.463319,8.50369565 109.374255,8.2646087 109.226553,8.03852174 C109.079404,7.813 108.84983,7.62252174 108.538383,7.46708696 C108.22583,7.31278261 107.788809,7.23534783 107.225106,7.23534783 C106.86166,7.23534783 106.514809,7.27491304 106.186213,7.35517391 Z M35.7848511,7.35517391 C35.4551489,7.43430435 35.1459149,7.5366087 34.8554894,7.6603913 C34.5650638,7.78417391 34.2984255,7.92773913 34.0561277,8.09165217 C33.8132766,8.25556522 33.5925532,8.42173913 33.3934043,8.5896087 L33.6534043,8.90782609 C33.7745532,8.8106087 33.8890638,8.73826087 33.9974894,8.68852174 C34.1059149,8.64047826 34.2337021,8.61617391 34.3808511,8.61617391 C34.6585532,8.61617391 34.8554894,8.71169565 34.972766,8.9016087 C35.0894894,9.09152174 35.1475745,9.31534783 35.1475745,9.57195652 L35.1475745,26.7008696 C35.1475745,26.798087 35.1625106,26.9263913 35.1929362,27.0863478 C35.2233617,27.2451739 35.3013617,27.4000435 35.4269362,27.5503913 C35.5525106,27.7007391 35.7450213,27.8313043 36.0050213,27.942087 C36.2655745,28.0534348 36.6245957,28.1082609 37.0837447,28.1082609 C37.5428936,28.1082609 37.9096596,28.0568261 38.182383,27.9556522 C38.4551064,27.853913 38.6625532,27.7318261 38.8058298,27.5905217 C38.9491064,27.4486522 39.0398298,27.2983043 39.0791064,27.138913 C39.1178298,26.9795217 39.1371915,26.8427391 39.1371915,26.7268696 L39.1371915,19.8753043 C39.2937447,19.4864348 39.4928936,19.0551739 39.7351915,18.5815217 C39.9774894,18.1078696 40.2485532,17.6653043 40.5472766,17.2532609 C40.8465532,16.8423478 41.1602128,16.4964348 41.4893617,16.2177826 C41.8190638,15.9391304 42.1437872,15.7995217 42.4640851,15.7995217 C42.6289362,15.7995217 42.7567234,15.8306087 42.8474468,15.8922174 C42.9387234,15.9543913 43.0078723,16.0250435 43.0554468,16.1047391 C43.1030213,16.1844348 43.131234,16.2663913 43.1395319,16.3506087 C43.148383,16.4348261 43.1533617,16.4947391 43.1533617,16.5297826 C43.1533617,16.7683043 43.1229362,17.0565652 43.0620851,17.3928696 C43.001234,17.7297391 42.8491064,18.1146522 42.6068085,18.5481739 C42.3645106,18.9822609 42.0049362,19.4666522 41.5286383,20.001913 C41.0523404,20.5371739 40.3979149,21.119913 39.5664681,21.7478696 C40.1810638,23.2530435 40.7746383,24.5671739 41.3460851,25.6919565 C41.9180851,26.8161739 42.4751489,27.7849565 43.0161702,28.5994348 C43.5577447,29.4133478 44.0860426,30.0865217 44.601617,30.6178261 C45.1171915,31.1491304 45.6261277,31.5736087 46.1289787,31.8923913 C46.6312766,32.2106087 47.1313617,32.4327391 47.6297872,32.5559565 C48.1276596,32.6803043 48.6327234,32.741913 49.1438723,32.741913 C49.7064681,32.741913 50.1921702,32.7153478 50.5993191,32.6627826 C51.0064681,32.6096522 51.3660426,32.5384348 51.6774894,32.4496957 C51.9900426,32.362087 52.2671915,32.2575217 52.5094894,32.1382609 C52.7517872,32.0184348 52.990766,31.8923913 53.224766,31.7595652 L52.9774894,31.2949565 C52.8734894,31.3475217 52.7739149,31.3921739 52.6782128,31.4277826 C52.5919149,31.4628261 52.496766,31.493913 52.392766,31.5204783 C52.2893191,31.5470435 52.184766,31.5600435 52.080766,31.5600435 C51.482766,31.5600435 50.8548936,31.3656087 50.1965957,30.9761739 C49.5377447,30.5867391 48.851234,29.9819565 48.1365106,29.1635217 C47.4217872,28.345087 46.6788511,27.3011304 45.9077021,26.0299565 C45.1365532,24.759913 44.3438298,23.244 43.5300851,21.4822174 C44.1358298,21.164 44.6386809,20.8118696 45.0375319,20.4269565 C45.4358298,20.0420435 45.7539149,19.643 45.9923404,19.232087 C46.230766,18.8206087 46.3994894,18.4040435 46.4990638,17.984087 C46.5986383,17.5635652 46.6484255,17.1583043 46.6484255,16.7683043 C46.6484255,16.556913 46.6074894,16.2997391 46.5250638,15.9984783 C46.4426383,15.6977826 46.2993617,15.4078261 46.0963404,15.1291739 C45.892766,14.8499565 45.6261277,14.6108696 45.2975319,14.411913 C44.9678298,14.2129565 44.5568085,14.112913 44.0628085,14.112913 C43.5079574,14.112913 42.9968085,14.2236957 42.5293617,14.4452609 C42.0613617,14.6662609 41.6282128,14.95 41.2299149,15.2947826 C40.8310638,15.6406957 40.458766,16.0273043 40.1119149,16.4563043 C39.7650638,16.8864348 39.4403404,17.3092174 39.1371915,17.7246522 L39.1371915,9.42556522 C39.1371915,9.23169565 39.1222553,9.00786957 39.0918298,8.75521739 C39.0614043,8.50369565 38.9728936,8.2646087 38.8257447,8.03852174 C38.6780426,7.813 38.4484681,7.62252174 38.1370213,7.46708696 C37.8250213,7.31278261 37.3874468,7.23534783 36.8242979,7.23534783 C36.4602979,7.23534783 36.1134468,7.27491304 35.7848511,7.35517391 Z M73.4433617,8.2776087 C72.1909362,8.43247826 71.095617,8.71565217 70.1557447,9.12713043 C69.2158723,9.5386087 68.4729362,10.1015652 67.9269362,10.8143043 C67.3809362,11.5270435 67.1082128,12.435913 67.1082128,13.5420435 C67.1082128,13.9320435 67.1690638,14.2994348 67.2902128,14.6447826 C67.4113617,14.9895652 67.5889362,15.2908261 67.8229362,15.5468696 C68.056383,15.8046087 68.3401702,16.0052609 68.6742979,16.151087 C69.0078723,16.2974783 69.382383,16.3703913 69.798383,16.3703913 C70.0666809,16.3703913 70.3377447,16.3291304 70.6110213,16.2443478 C70.8837447,16.1606957 71.1260426,16.0318261 71.3379149,15.8594348 C71.5508936,15.6870435 71.7234894,15.4722609 71.8579149,15.215087 C71.9923404,14.9584783 72.0592766,14.6532609 72.0592766,14.2994348 C72.0592766,14.0513043 72.0249787,13.8410435 71.9552766,13.6686522 C71.8855745,13.4956957 71.8014894,13.3566522 71.7019149,13.2503913 C71.6023404,13.1441304 71.4944681,13.0666957 71.3771915,13.0175217 C71.2604681,12.9694783 71.1492766,12.9446087 71.0458298,12.9446087 C70.9158298,12.9446087 70.8013191,12.9824783 70.7011915,13.0576522 C70.601617,13.1328261 70.4954043,13.2125217 70.3831064,13.2967391 C70.2702553,13.3809565 70.1446809,13.4606522 70.0058298,13.5358261 C69.8680851,13.611 69.6899574,13.6483043 69.4731064,13.6483043 C69.4305106,13.6483043 69.3580426,13.6375652 69.2590213,13.6149565 C69.1594468,13.592913 69.0620851,13.5403478 68.9669362,13.4561304 C68.871234,13.371913 68.7865957,13.2458696 68.7135745,13.078 C68.6394468,12.9101304 68.602383,12.6840435 68.602383,12.4003043 C68.602383,11.9933478 68.7135745,11.6146522 68.9342979,11.2647826 C69.1550213,10.9154783 69.4471064,10.6147826 69.8116596,10.3621304 C70.1751064,10.1100435 70.5866809,9.91108696 71.0458298,9.76469565 C71.5049787,9.61830435 71.9774043,9.5453913 72.4625532,9.5453913 C72.7048511,9.5453913 72.9277872,9.61434783 73.1319149,9.75113043 C73.3349362,9.88847826 73.4372766,10.0993043 73.4372766,10.381913 L73.4372766,25.2533478 C73.4372766,25.8293043 73.4887234,26.304087 73.5927234,26.6805217 C73.6972766,27.0569565 73.9047234,27.3576522 74.2161702,27.5837391 C74.5287234,27.8098261 74.9718298,27.9686522 75.5488085,28.061913 C76.1246809,28.1546087 76.8853191,28.2009565 77.829617,28.2009565 C79.2502128,28.2009565 80.5822979,27.9641304 81.8258723,27.4904783 C83.0683404,27.0173913 84.1520426,26.3272609 85.0742128,25.4195217 C85.9969362,24.5123478 86.7249362,23.3898261 87.2576596,22.0536522 C87.790383,20.716913 88.0570213,19.1857391 88.0570213,17.459 C88.0570213,15.7333913 87.8053191,14.2700435 87.3030213,13.0712174 C86.8007234,11.8718261 86.0854468,10.9002174 85.1582979,10.1563913 C84.2317021,9.41256522 83.1164681,8.87504348 81.8131489,8.54326087 C80.5087234,8.21091304 79.0510638,8.04530435 77.439617,8.04530435 C76.0273191,8.04530435 74.695234,8.12273913 73.4433617,8.2776087 Z M78.0569787,26.455 C77.8357021,26.2385217 77.7250638,25.8773478 77.7250638,25.3726087 L77.7250638,10.9527826 C77.7250638,10.2892174 77.8511915,9.82913043 78.1023404,9.57195652 C78.3534894,9.31534783 78.7606383,9.18704348 79.3237872,9.18704348 C79.557234,9.18704348 79.8238723,9.22491304 80.1237021,9.29952174 C80.4224255,9.37469565 80.727234,9.52108696 81.0397872,9.73813043 C81.351234,9.9546087 81.6565957,10.2558696 81.9553191,10.6413478 C82.2545957,11.0256957 82.5206809,11.5270435 82.7546809,12.1414348 C82.9886809,12.7569565 83.176766,13.5047391 83.3200426,14.3853478 C83.462766,15.2659565 83.5346809,16.3087826 83.5346809,17.5126957 C83.5346809,19.3095217 83.4218298,20.8005652 83.1966809,21.9869565 C82.9715319,23.1727826 82.6595319,24.1223478 82.2606809,24.835087 C81.862383,25.5472609 81.3882979,26.0497391 80.8378723,26.3425217 C80.2874468,26.6347391 79.6877872,26.78 79.0383404,26.78 C78.6046383,26.78 78.2782553,26.6720435 78.0569787,26.455 Z M15.7764681,9.386 C15.5208936,9.48378261 15.2957447,9.6166087 15.1010213,9.78447826 C14.9057447,9.95291304 14.7541702,10.1496087 14.6457447,10.3756957 C14.5373191,10.6012174 14.4836596,10.8380435 14.4836596,11.0861739 C14.4836596,11.3427826 14.5373191,11.5818696 14.6457447,11.8028696 C14.7541702,12.0244348 14.9057447,12.2171739 15.1010213,12.3805217 C15.2957447,12.5438696 15.5208936,12.6744348 15.7764681,12.7727826 C16.0320426,12.8694348 16.3114043,12.9180435 16.6151064,12.9180435 C16.9094043,12.9180435 17.1843404,12.8694348 17.4399149,12.7727826 C17.6954894,12.6744348 17.9184255,12.5438696 18.1092766,12.3805217 C18.2995745,12.2171739 18.4489362,12.0244348 18.5579149,11.8028696 C18.6657872,11.5818696 18.72,11.3427826 18.72,11.0861739 C18.72,10.8380435 18.6657872,10.6012174 18.5579149,10.3756957 C18.4489362,10.1496087 18.2995745,9.95291304 18.1092766,9.78447826 C17.9184255,9.6166087 17.6954894,9.48378261 17.4399149,9.386 C17.1843404,9.28878261 16.9094043,9.24017391 16.6151064,9.24017391 C16.3114043,9.24017391 16.0320426,9.28878261 15.7764681,9.386 Z M123.840213,14.3192174 C123.315787,14.4565652 122.802426,14.6600435 122.300128,14.9302174 C121.797277,15.1998261 121.318766,15.5389565 120.864043,15.945913 C120.408766,16.3528696 120.010468,16.8265217 119.668596,17.3668696 C119.32617,17.906087 119.055106,18.5125652 118.856511,19.1857391 C118.656809,19.858913 118.557234,20.5976522 118.557234,21.403087 C118.557234,22.5188261 118.724298,23.4921304 119.058426,24.3241304 C119.391447,25.1561304 119.83566,25.8507826 120.389404,26.4086522 C120.944255,26.9659565 121.578766,27.3847826 122.293489,27.6634348 C123.008213,27.942087 123.742851,28.0816957 124.496298,28.0816957 C125.250298,28.0816957 125.921319,27.9861739 126.510468,27.7962609 C127.099617,27.6063478 127.615191,27.3672609 128.057191,27.0795652 C128.498638,26.7918696 128.875915,26.4838261 129.187915,26.1565652 C129.499362,25.8293043 129.754936,25.5274783 129.954085,25.2533478 L129.629362,24.9351304 C129.421915,25.1205217 129.213915,25.2957391 129.005915,25.4596522 C128.797362,25.623 128.581064,25.7665652 128.355915,25.890913 C128.130213,26.0141304 127.887915,26.111913 127.627915,26.1825652 C127.367915,26.2532174 127.086894,26.2893913 126.783745,26.2893913 C126.350043,26.2893913 125.951745,26.2181739 125.587745,26.0763043 C125.224298,25.935 124.892383,25.745087 124.59366,25.5054348 C124.294936,25.2663478 124.031064,24.9944783 123.800936,24.6892609 C123.571362,24.3834783 123.378851,24.063 123.222298,23.7266957 C123.066851,23.3898261 122.947362,23.0557826 122.865489,22.7234348 C122.782511,22.3922174 122.742128,22.0847391 122.742128,21.8015652 L127.875191,18.7075652 C128.264638,18.46 128.576638,18.1694783 128.810638,17.8376957 C129.044638,17.505913 129.161915,17.1317391 129.161915,16.7151739 C129.161915,16.3703913 129.083362,16.0408696 128.927915,15.7266087 C128.771915,15.4123478 128.535702,15.1359565 128.219277,14.8968696 C127.902851,14.6577826 127.506766,14.4673043 127.030468,14.3254348 C126.553617,14.1841304 125.994894,14.112913 125.353745,14.112913 C124.869149,14.112913 124.364085,14.1824348 123.840213,14.3192174 Z M122.624851,19.8029565 C122.633702,19.4446087 122.659702,19.0704348 122.702851,18.6804348 C122.746,18.2915652 122.808511,17.9038261 122.891489,17.518913 C122.973362,17.134 123.086766,16.7914783 123.228936,16.4896522 C123.372213,16.1889565 123.554213,15.943087 123.774936,15.7531739 C123.996213,15.5632609 124.262298,15.4677391 124.574298,15.4677391 C124.816596,15.4677391 125.024596,15.5468696 125.197745,15.7068261 C125.371447,15.8662174 125.51417,16.0651739 125.627021,16.3042609 C125.739872,16.5433478 125.819532,16.7976957 125.86766,17.0678696 C125.914681,17.3374783 125.939021,17.5833478 125.939021,17.8043478 C125.939021,18.0078261 125.927957,18.1785217 125.906383,18.3158696 C125.884809,18.4532174 125.851617,18.5679565 125.809021,18.6606522 C125.765319,18.753913 125.707234,18.8336087 125.63366,18.8997391 C125.559532,18.9664348 125.466596,19.0353913 125.353745,19.1060435 L122.612128,20.7123913 C122.612128,20.4642609 122.616553,20.1613043 122.624851,19.8029565 Z M98.6163404,14.3192174 C98.2562128,14.4565652 97.9381277,14.6266957 97.6598723,14.8301739 C97.3827234,15.0336522 97.1470638,15.2484348 96.9523404,15.4739565 C96.757617,15.7000435 96.5944255,15.9057826 96.4649787,16.0917391 L96.7897021,16.3703913 C96.8937021,16.2466087 97.0126383,16.125087 97.1470638,16.0052609 C97.2814894,15.886 97.4264255,15.826087 97.5824255,15.826087 C97.7124255,15.826087 97.812,15.8526522 97.8811489,15.9057826 C97.9508511,15.958913 98.0028511,16.0273043 98.0371489,16.1115217 C98.072,16.1957391 98.0930213,16.283913 98.1024255,16.3771739 C98.1107234,16.4698696 98.1151489,16.556913 98.1151489,16.6360435 L98.1151489,24.3902609 C98.046,24.479 97.9348085,24.6112609 97.7843404,24.7887391 C97.6322128,24.9662174 97.4524255,25.1448261 97.2449787,25.3262609 C97.0369787,25.5076957 96.8074043,25.6653913 96.5557021,25.7976522 C96.3045532,25.9304783 96.0528511,25.9971739 95.8022553,25.9971739 C95.6462553,25.9971739 95.5118298,25.9638261 95.3995319,25.8971304 C95.2861277,25.831 95.1937447,25.745087 95.1201702,25.6382609 C95.0460426,25.532 94.9901702,25.415 94.9508936,25.2866957 C94.9121702,25.1583913 94.8922553,25.0323478 94.8922553,24.9085652 L94.8922553,16.0386087 C94.8922553,15.7729565 94.8446809,15.5225652 94.7495319,15.288 C94.6538298,15.054 94.5111064,14.8499565 94.3202553,14.6775652 C94.1299574,14.5051739 93.8915319,14.3678261 93.6060851,14.266087 C93.3200851,14.1643478 92.9859574,14.112913 92.6053617,14.112913 C92.1633617,14.112913 91.7622979,14.1824348 91.4032766,14.3192174 C91.0431489,14.4565652 90.7250638,14.6266957 90.4479149,14.8301739 C90.170766,15.0336522 89.934,15.2484348 89.7398298,15.4739565 C89.5445532,15.7000435 89.3824681,15.9057826 89.2524681,16.0917391 L89.5771915,16.3703913 C89.6811915,16.2466087 89.8001277,16.125087 89.934,16.0052609 C90.0689787,15.886 90.2144681,15.826087 90.3699149,15.826087 C90.5004681,15.826087 90.5994894,15.8526522 90.6691915,15.9057826 C90.7383404,15.958913 90.7897872,16.0273043 90.8246383,16.1115217 C90.8589362,16.1957391 90.8810638,16.283913 90.8899149,16.3771739 C90.8982128,16.4698696 90.9031915,16.556913 90.9031915,16.6360435 L90.9031915,24.8548696 C90.9031915,25.2448696 90.9546383,25.6343043 91.0586383,26.0237391 C91.1626383,26.4131739 91.3269362,26.7624783 91.5520851,27.0727826 C91.7777872,27.3825217 92.0737447,27.6323478 92.4421702,27.8228261 C92.8105957,28.0127391 93.2548085,28.1082609 93.7748085,28.1082609 C94.0436596,28.1082609 94.3119574,28.0732174 94.5802553,28.002 C94.8485532,27.9313478 95.1085532,27.8358261 95.3602553,27.7165652 C95.6114043,27.5967391 95.8542553,27.4616522 96.0877021,27.3118696 C96.3217021,27.1609565 96.5429787,27.006087 96.7509787,26.8472609 C97.2272766,26.4838261 97.6814468,26.0633043 98.1151489,25.5851304 L98.1151489,26.1825652 C98.1151489,26.4482174 98.1627234,26.6986087 98.2578723,26.9331739 C98.3530213,27.1677391 98.4985106,27.3717826 98.6937872,27.5441739 C98.8885106,27.7165652 99.1269362,27.853913 99.4079574,27.9556522 C99.6900851,28.0568261 100.020894,28.1082609 100.402596,28.1082609 C100.852894,28.1082609 101.255617,28.0387391 101.610766,27.9019565 C101.966468,27.7651739 102.28234,27.5950435 102.559489,27.3915652 C102.836638,27.1875217 103.072851,26.9727391 103.267574,26.7466522 C103.462851,26.5216957 103.624936,26.3153913 103.755489,26.13 L103.443489,25.8507826 C103.330638,25.9745652 103.209489,26.096087 103.079489,26.215913 C102.949489,26.3351739 102.80234,26.3956522 102.638043,26.3956522 C102.507489,26.3956522 102.408468,26.369087 102.338766,26.3153913 C102.269617,26.2628261 102.217617,26.1938696 102.182766,26.1102174 C102.148468,26.0254348 102.12634,25.9378261 102.118043,25.844 C102.109191,25.7513043 102.104766,25.6653913 102.104766,25.5851304 L102.104766,16.0386087 C102.104766,15.7729565 102.056638,15.5225652 101.961489,15.288 C101.86634,15.054 101.723617,14.8499565 101.533319,14.6775652 C101.342468,14.5051739 101.104043,14.3678261 100.818043,14.266087 C100.532596,14.1643478 100.199021,14.112913 99.8178723,14.112913 C99.3758723,14.112913 98.9748085,14.1824348 98.6163404,14.3192174 Z M52.288766,14.2926522 C51.725617,14.411913 51.2205532,14.5961739 50.7746809,14.8437391 C50.3282553,15.0918696 49.9664681,15.4078261 49.6898723,15.7927391 C49.4121702,16.1776522 49.2733191,16.6405652 49.2733191,17.1803478 C49.2733191,17.7382174 49.4226809,18.1853043 49.7219574,18.5216087 C50.0206809,18.8573478 50.4123404,19.0257826 50.8980426,19.0257826 C51.0800426,19.0257826 51.2554043,18.993 51.4241277,18.9263043 C51.5934043,18.8601739 51.7405532,18.766913 51.8661277,18.6476522 C51.9917021,18.5283913 52.0912766,18.3904783 52.1648511,18.2367391 C52.2389787,18.0813043 52.2754894,17.9106087 52.2754894,17.7246522 C52.2754894,17.4414783 52.2085532,17.2317826 52.0741277,17.0944348 C51.9397021,16.9565217 51.7903404,16.8508261 51.6260426,16.775087 C51.4611915,16.7004783 51.3118298,16.6337826 51.1774043,16.5766957 C51.0429787,16.5190435 50.9760426,16.4235217 50.9760426,16.2906957 C50.9760426,16.1759565 51.0280426,16.0538696 51.1320426,15.9261304 C51.2360426,15.7978261 51.378766,15.6802609 51.560766,15.5734348 C51.742766,15.4677391 51.959617,15.379 52.2102128,15.3077826 C52.4619149,15.2371304 52.7346383,15.202087 53.0294894,15.202087 C53.6789362,15.202087 54.1922979,15.3987826 54.5695745,15.7927391 C54.9462979,16.1866957 55.134383,16.7112174 55.134383,17.3668696 C55.134383,17.7913478 55.0198723,18.2056522 54.7897447,18.608087 C54.5601702,19.0105217 54.1945106,19.3140435 53.6922128,19.5175217 C53.0162128,19.7916522 52.3557021,20.0527826 51.7101277,20.300913 C51.0645532,20.5484783 50.4886809,20.8474783 49.9819574,21.1967826 C49.475234,21.5472174 49.0653191,21.977913 48.7538723,22.4911304 C48.4418723,23.0054783 48.2858723,23.6645217 48.2858723,24.4699565 C48.2858723,25.134087 48.3788085,25.695913 48.565234,26.1565652 C48.7516596,26.6166522 48.998383,26.9908261 49.3059574,27.2779565 C49.6135319,27.5662174 49.9625957,27.7764783 50.3520426,27.9087391 C50.7420426,28.0421304 51.144766,28.1082609 51.560766,28.1082609 C51.8810638,28.1082609 52.1997021,28.0732174 52.5161277,28.002 C52.832,27.9313478 53.1462128,27.8160435 53.4582128,27.6566522 C53.7702128,27.4972609 54.0755745,27.2898261 54.3742979,27.032087 C54.6735745,26.7760435 54.961234,26.4572609 55.238383,26.0763043 C55.368383,26.767 55.6455319,27.2779565 56.070383,27.6103043 C56.4946809,27.942087 56.9798298,28.1082609 57.5258298,28.1082609 C57.9672766,28.1082609 58.3617021,28.0421304 58.708,27.9087391 C59.0554043,27.7764783 59.358,27.6125652 59.618,27.4181304 C59.8774468,27.2231304 60.0987234,27.0151304 60.2807234,26.793 C60.4627234,26.5725652 60.6187234,26.369087 60.7481702,26.1825652 L60.424,25.903913 C60.32,26.0276957 60.2005106,26.1497826 60.0660851,26.2690435 C59.9316596,26.3888696 59.7872766,26.4482174 59.6307234,26.4482174 C59.5012766,26.4482174 59.4011489,26.4216522 59.332,26.369087 C59.2622979,26.3153913 59.2102979,26.2492609 59.176,26.1695652 C59.1411489,26.0898696 59.1195745,26.0011304 59.1107234,25.903913 C59.1024255,25.8061304 59.098,25.7185217 59.098,25.6382609 L59.098,18.1361304 C59.098,17.4194348 58.9569362,16.809 58.6759149,16.3042609 C58.3937872,15.7995217 58.017617,15.3835217 57.5451915,15.0556957 C57.072766,14.7284348 56.5295319,14.4893478 55.9138298,14.339 C55.299234,14.1886522 54.6536596,14.112913 53.9776596,14.112913 C53.4145106,14.112913 52.8519149,14.1728261 52.288766,14.2926522 Z M52.9382128,26.0898696 C52.7733617,26.0101739 52.6284255,25.8711304 52.5034043,25.6721739 C52.3772766,25.4726522 52.2777021,25.2053043 52.2041277,24.8684348 C52.13,24.5321304 52.0934894,24.1065217 52.0934894,23.5933043 C52.0934894,23.0625652 52.1543404,22.5956957 52.2754894,22.1926957 C52.3971915,21.7902609 52.5614894,21.4511304 52.7694894,21.177 C52.9769362,20.9028696 53.2175745,20.6948696 53.4902979,20.553 C53.7630213,20.4116957 54.051234,20.3404783 54.3549362,20.3404783 C54.571234,20.3404783 54.7488085,20.3986957 54.8876596,20.5134348 C55.0265106,20.6281739 55.0956596,20.7966087 55.0956596,21.0176087 L55.0956596,24.258 C55.0956596,24.4880435 55.0525106,24.718087 54.9656596,24.9481304 C54.8788085,25.1787391 54.7620851,25.3867391 54.614383,25.5721304 C54.467234,25.758087 54.2940851,25.9106957 54.0949362,26.0299565 C53.8957872,26.1497826 53.6833617,26.2091304 53.4582128,26.2091304 C53.2762128,26.2091304 53.1025106,26.1695652 52.9382128,26.0898696 Z M31.4539149,14.1530435 C31.3023404,14.1796087 31.1546383,14.2236957 31.0119149,14.2858696 C30.8691915,14.3474783 30.7458298,14.4232174 30.6418298,14.5119565 C30.5372766,14.6001304 30.4858298,14.710913 30.4858298,14.8437391 C30.4858298,14.9856087 30.5245532,15.1466957 30.6025532,15.3275652 C30.6805532,15.5095652 30.7668511,15.737913 30.8625532,16.0120435 C30.9577021,16.2867391 31.0445532,16.6247391 31.1225532,17.0277391 C31.2005532,17.4301739 31.2392766,17.9236087 31.2392766,18.5086087 C31.2392766,19.3937391 31.1745532,20.2257391 31.0445532,21.0040435 C30.9145532,21.7834783 30.7430638,22.4645652 30.5311915,23.049 C30.318766,23.6334348 30.0714894,24.0935217 29.7904681,24.4303913 C29.5088936,24.7666957 29.2162553,24.9351304 28.9136596,24.9351304 C28.3671064,24.9351304 27.895234,24.2444348 27.496383,22.8636087 C27.0980851,21.4822174 26.7385106,19.4513913 26.4182128,16.7683043 C26.3833617,16.5213043 26.3269362,16.2426522 26.2489362,15.9323478 C26.1709362,15.6226087 26.0387234,15.3326522 25.8528511,15.061913 C25.6664255,14.7928696 25.4130638,14.5667826 25.0922128,14.3853478 C24.7713617,14.203913 24.3520426,14.112913 23.8320426,14.112913 C23.4680426,14.112913 23.1211915,14.1530435 22.7925957,14.2327391 C22.4628936,14.3124348 22.1553191,14.4147391 21.8693191,14.5379565 C21.5838723,14.6623043 21.317234,14.8058696 21.0705106,14.9697826 C20.8237872,15.1336957 20.6002979,15.2998696 20.4011489,15.4677391 L20.6611489,15.7995217 C20.7828511,15.7023043 20.8973617,15.6271304 21.005234,15.5734348 C21.1136596,15.5203043 21.2414468,15.4943043 21.3891489,15.4943043 C21.6657447,15.4943043 21.863234,15.5915217 21.9799574,15.7859565 C22.097234,15.9809565 22.1813191,16.2556522 22.2333191,16.6094783 C22.3024681,17.1226957 22.3826809,17.763087 22.4739574,18.5283913 C22.565234,19.2942609 22.6858298,20.1036522 22.8379574,20.9576957 C22.9889787,21.8128696 23.1864681,22.664087 23.428766,23.5141739 C23.671617,24.3636957 23.9769787,25.1295652 24.3454043,25.8106522 C24.7132766,26.4928696 25.1619149,27.0456522 25.6902128,27.4706957 C26.2185106,27.8957391 26.8425106,28.1082609 27.5616596,28.1082609 C28.1768085,28.1082609 28.7333191,27.9285217 29.2317447,27.5707391 C29.7301702,27.2118261 30.1754894,26.7336522 30.5699149,26.1362174 C30.9643404,25.5387826 31.304,24.8548696 31.5905532,24.0850435 C31.876,23.3146522 32.1122128,22.5188261 32.2986383,21.6953043 C32.4845106,20.8717826 32.6233617,20.0527826 32.7140851,19.2388696 C32.8053617,18.4243913 32.8512766,17.6766087 32.8512766,16.9943913 C32.8512766,16.5167826 32.8357872,16.0674348 32.8053617,15.646913 C32.7749362,15.2263913 32.7212766,14.8883913 32.6427234,14.6312174 C32.5735745,14.4277391 32.4828511,14.2898261 32.37,14.2197391 C32.2571489,14.149087 32.0751489,14.112913 31.824,14.112913 C31.7288511,14.112913 31.6049362,14.1264783 31.4539149,14.1530435 Z M15.5231064,14.2327391 C15.1934043,14.3124348 14.886383,14.4147391 14.600383,14.5379565 C14.314383,14.6623043 14.0477447,14.8058696 13.8015745,14.9697826 C13.5548511,15.1336957 13.3313617,15.2998696 13.1316596,15.4677391 L13.4049362,15.7995217 C13.5260851,15.7023043 13.6389362,15.6271304 13.7429362,15.5734348 C13.8469362,15.5203043 13.9725106,15.4943043 14.1196596,15.4943043 C14.3968085,15.4943043 14.5942979,15.5898261 14.7110213,15.7797391 C14.8282979,15.9696522 14.886383,16.1934783 14.886383,16.450087 L14.886383,26.7008696 C14.886383,26.798087 14.9013191,26.9263913 14.9322979,27.0863478 C14.9621702,27.2451739 15.042383,27.4000435 15.172383,27.5503913 C15.3018298,27.7007391 15.4971064,27.8313043 15.7571064,27.942087 C16.0171064,28.0534348 16.3766809,28.1082609 16.8358298,28.1082609 C17.2949787,28.1082609 17.6584255,28.0568261 17.9272766,27.9556522 C18.1955745,27.853913 18.4013617,27.7295652 18.5440851,27.5837391 C18.6873617,27.437913 18.7780851,27.2830435 18.8173617,27.1191304 C18.8566383,26.9552174 18.876,26.8161739 18.876,26.7008696 L18.876,16.3178261 C18.876,16.1228261 18.8610638,15.8967391 18.8306383,15.6406957 C18.8002128,15.3835217 18.7117021,15.1427391 18.564,14.9166522 C18.4168511,14.6905652 18.1872766,14.5006522 17.8758298,14.3452174 C17.5632766,14.190913 17.1257021,14.112913 16.5625532,14.112913 C16.1985532,14.112913 15.8522553,14.1530435 15.5231064,14.2327391 Z" id="Fill-1" fill="url(#radialGradient-3)" mask="url(#mask-2)"></path>
        </g>
    </g>
</svg>