<?xml version="1.0" encoding="UTF-8"?>
<svg width="160px" height="90px" viewBox="0 0 160 90" version="1.1" xmlns="http://www.w3.org/2000/svg" xmlns:xlink="http://www.w3.org/1999/xlink">
    <!-- Generator: Sketch 49.3 (51167) - http://www.bohemiancoding.com/sketch -->
    <title>Level 1 Orthopedics &amp; Spine logo designed by Isral Duke</title>
    <desc>Created with Sketch.</desc>
    <defs></defs>
    <g id="Level-1-Orthopedics-&amp;-Spine-logo-designed-by-Isral-Duke" stroke="none" stroke-width="1" fill="none" fill-rule="evenodd">
        <g id="Page-1" transform="translate(12.000000, 23.000000)">
            <polygon id="Fill-1" fill="#005CB9" points="71.3624903 12.16655 63.5294387 12.16655 63.5294387 16.62078 70.0251935 16.62078 70.0251935 19.78361 63.5294387 19.78361 63.5294387 24.47764 71.8164452 24.47764 71.8164452 27.6397 59.8032581 27.6397 59.8032581 9.00383 71.3624903 9.00383"></polygon>
            <path d="M47.6614194,39.10478 C46.9900839,39.10478 46.7350839,39.71198 46.6692774,39.87346 C46.4576,40.3931 46.4576,41.06575 46.4576,41.32183 C46.4576,41.68758 46.4794258,42.31755 46.7131484,42.78593 C46.9465419,43.23913 47.2892839,43.42206 47.6393742,43.42206 C48.0848839,43.42206 48.4128194,43.16587 48.603,42.75601 C48.8578903,42.22218 48.8578903,41.67361 48.8578903,41.27068 C48.8578903,40.56096 48.7484323,39.10478 47.6614194,39.10478 M49.0622194,42.91782 C48.7342839,43.65636 48.1432323,43.83214 47.698271,43.83214 C47.4938323,43.83214 46.953671,43.83214 46.4939032,43.31261 C46.0345742,42.79297 45.9468323,41.96599 45.9468323,41.41016 C45.9468323,40.86137 45.9616387,40.20225 46.253271,39.57316 C46.4136194,39.23645 46.8152581,38.69492 47.6248968,38.69492 C48.1722968,38.69492 48.610129,38.8927 48.9238065,39.35382 C49.2303548,39.80735 49.3685484,40.5537 49.3685484,41.27068 C49.3685484,42.01725 49.2445032,42.51467 49.0622194,42.91782" id="Fill-2" fill="#6E7C7C"></path>
            <path d="M52.7935548,41.06575 C53.2818387,41.06575 54.0993742,41.06575 54.0993742,40.14384 C54.0993742,39.28067 53.4647806,39.23634 53.0121419,39.23634 L51.9760194,39.23634 L51.9760194,41.06575 L52.7935548,41.06575 Z M51.4730387,38.79744 L53.0562323,38.79744 C53.8439355,38.79744 54.0993742,39.01711 54.2668516,39.17089 C54.4060323,39.30256 54.6246194,39.55875 54.6246194,40.12184 C54.6246194,40.70759 54.3475742,41.43205 53.3041032,41.46835 L54.8290581,43.65636 L54.2159613,43.65636 L52.8150516,41.50487 L51.9760194,41.50487 L51.9760194,43.65636 L51.4730387,43.65636 L51.4730387,38.79744 Z" id="Fill-3" fill="#6E7C7C"></path>
            <polygon id="Fill-4" fill="#6E7C7C" points="59.5742516 38.79744 59.5742516 39.22215 58.0203419 39.22215 58.0203419 43.65625 57.5024452 43.65625 57.5024452 39.22215 55.9555548 39.22215 55.9555548 38.79744"></polygon>
            <polygon id="Fill-5" fill="#6E7C7C" points="61.5908903 38.79744 62.101329 38.79744 62.101329 40.89789 64.2246839 40.89789 64.2246839 38.79744 64.7354516 38.79744 64.7354516 43.65625 64.2246839 43.65625 64.2246839 41.32172 62.101329 41.32172 62.101329 43.65625 61.5908903 43.65625"></polygon>
            <path d="M68.5612194,39.10478 C67.8899935,39.10478 67.6352129,39.71198 67.5689677,39.87346 C67.357729,40.3931 67.357729,41.06575 67.357729,41.32183 C67.357729,41.68758 67.3795548,42.31755 67.6129484,42.78593 C67.8465613,43.23913 68.1894129,43.42206 68.5392839,43.42206 C68.9847935,43.42206 69.312729,43.16587 69.5028,42.75601 C69.7578,42.22218 69.7578,41.67361 69.7578,41.27068 C69.7578,40.56096 69.6483419,39.10478 68.5612194,39.10478 M69.9622387,42.91782 C69.6343032,43.65636 69.0431419,43.83214 68.5981806,43.83214 C68.3936323,43.83214 67.8535806,43.83214 67.3937032,43.31261 C66.9344839,42.79297 66.8466323,41.96599 66.8466323,41.41016 C66.8466323,40.86137 66.8617677,40.20225 67.1532903,39.57316 C67.3137484,39.23645 67.7151677,38.69492 68.5251355,38.69492 C69.0720968,38.69492 69.5102581,38.8927 69.8239355,39.35382 C70.1302645,39.80735 70.2684581,40.5537 70.2684581,41.27068 C70.2684581,42.01725 70.1444129,42.51467 69.9622387,42.91782" id="Fill-6" fill="#6E7C7C"></path>
            <path d="M72.9128903,39.20015 L72.9128903,41.19731 L73.7590516,41.19731 C74.671129,41.19731 75.0574129,40.94871 75.0574129,40.24636 C75.0574129,39.39716 74.5105613,39.20015 73.7737484,39.20015 L72.9128903,39.20015 Z M72.4020129,38.79744 L73.8101613,38.79744 C74.3790581,38.79744 74.7878258,38.87785 75.0795677,39.11974 C75.3933548,39.37527 75.5611613,39.75587 75.5611613,40.21006 C75.5611613,40.76589 75.2911355,41.13186 75.1156516,41.29279 C74.758871,41.62224 74.3062323,41.62224 73.9049226,41.62224 L72.9128903,41.62224 L72.9128903,43.65636 L72.4020129,43.65636 L72.4020129,38.79744 Z" id="Fill-7" fill="#6E7C7C"></path>
            <polygon id="Fill-8" fill="#6E7C7C" points="77.7747806 38.79744 80.8322581 38.79744 80.8322581 39.22215 78.2783097 39.22215 78.2783097 40.87578 80.4744903 40.87578 80.4744903 41.32172 78.2783097 41.32172 78.2783097 43.21713 80.9123226 43.21713 80.9123226 43.65625 77.7747806 43.65625"></polygon>
            <path d="M83.5928387,43.21724 L84.2782129,43.21724 C84.9207032,43.21724 85.3726839,43.10768 85.7085161,42.50763 C85.9564968,42.06851 86.0005871,41.40235 86.0005871,41.22723 C86.0005871,40.44414 85.8183032,39.80031 85.2924,39.45645 C84.9355097,39.22226 84.7382,39.22226 83.5928387,39.22226 L83.5928387,43.21724 Z M83.0889806,38.79744 L84.3443484,38.79744 C85.0156839,38.79744 85.6501677,38.88566 86.1317613,39.65357 C86.4455484,40.16595 86.4889806,40.72926 86.4889806,41.26353 C86.4889806,41.94388 86.2921097,42.58089 85.8835613,43.06357 C85.4097548,43.61225 84.8033484,43.65636 84.1984774,43.65636 L83.0889806,43.65636 L83.0889806,38.79744 Z" id="Fill-9" fill="#6E7C7C"></path>
            <polygon id="Fill-10" fill="#6E7C7C" points="88.1554194 43.37102 88.6883419 43.37102 88.6883419 39.08278 88.1554194 39.08278 88.1554194 38.79744 89.7315935 38.79744 89.7315935 39.08278 89.1992194 39.08278 89.1992194 43.37102 89.7315935 43.37102 89.7315935 43.65647 88.1554194 43.65647"></polygon>
            <path d="M94.2788194,40.19521 C94.2203613,39.57327 93.8926452,39.09785 93.2645226,39.09785 C92.0609226,39.09785 91.9735097,40.86137 91.9735097,41.28553 C91.9735097,41.66558 91.9735097,43.42217 93.2352387,43.42217 C93.9939871,43.42217 94.2572129,42.77108 94.3371677,42.23637 L94.7755484,42.36881 C94.724329,42.79286 94.4248,43.83203 93.2503742,43.83203 C93.0166516,43.83203 92.3965355,43.83203 91.9298581,43.16598 C91.6304387,42.73456 91.4846774,42.1487 91.4846774,41.46846 C91.4846774,40.94156 91.520871,40.1731 91.8712903,39.55105 C92.3525548,38.69481 93.0822387,38.69481 93.3304387,38.69481 C94.0965355,38.69481 94.6292387,39.2436 94.7166516,40.04847 L94.2788194,40.19521 Z" id="Fill-11" fill="#6E7C7C"></path>
            <path d="M99.0461677,39.92472 C98.9514065,39.66061 98.7540968,39.10478 98.0030258,39.10478 C97.7985871,39.10478 97.1193548,39.18519 97.1193548,39.93891 C97.1193548,40.4657 97.6233226,40.68537 97.8637355,40.78811 C98.0535871,40.86852 98.3749419,40.98523 98.5642452,41.06575 C99.2718839,41.36583 99.6515871,41.66569 99.6515871,42.47056 C99.6515871,42.90968 99.4252129,43.3268 99.1483871,43.53195 C98.7466387,43.83203 98.2579161,43.83203 98.0609355,43.83203 C97.2656645,43.83203 96.7917484,43.31976 96.5071355,42.69782 L96.9446387,42.48552 C97.1052065,42.96864 97.4262323,43.19513 97.5284516,43.2542 C97.7985871,43.40754 98.0609355,43.41491 98.2286323,43.41491 C98.5793806,43.41491 99.1703226,43.22428 99.1703226,42.49267 C99.1703226,42.13396 99.0020774,41.83421 98.6523161,41.66569 L98.4110258,41.54898 C98.1122645,41.3952 97.7908,41.28564 97.4849097,41.1466 C97.2730129,41.04408 96.9881806,40.91252 96.7917484,40.52466 C96.6966581,40.32688 96.6602452,40.0928 96.6602452,39.94606 C96.6602452,39.2293 97.1193548,38.69492 98.0535871,38.69492 C98.6664645,38.69492 99.1114258,38.92911 99.4981484,39.69757 L99.0461677,39.92472 Z" id="Fill-12" fill="#6E7C7C"></path>
            <path d="M106.273471,39.63938 C106.273471,39.1853 105.908574,39.06837 105.711265,39.06837 C105.266303,39.06837 105.157065,39.44875 105.157065,39.66842 C105.157065,40.04154 105.441458,40.47351 105.514503,40.58318 C105.791548,40.42929 106.273471,40.15869 106.273471,39.63938 Z M106.557755,42.85842 C106.010465,42.25144 105.652916,41.68769 105.324432,41.16816 C104.857645,41.45361 104.434619,41.71684 104.434619,42.361 C104.434619,42.537 104.52949,43.36387 105.463394,43.36387 C106.017923,43.36387 106.404316,43.04146 106.557755,42.85842 Z M108.061103,41.36594 C107.92949,41.78295 107.674161,42.30985 107.200026,42.84423 C107.389548,43.07072 107.615923,43.34176 108.002316,43.34176 C108.199406,43.34176 108.279581,43.29039 108.374671,43.23209 L108.374671,43.73677 C108.265432,43.77373 108.148406,43.81729 107.972703,43.81729 C107.418503,43.81729 107.090019,43.45858 106.864413,43.21724 C106.309555,43.76603 105.652916,43.82444 105.470742,43.82444 C104.369142,43.82444 103.923961,42.99031 103.923961,42.35374 C103.923961,41.45361 104.704426,41.0223 105.112974,40.79526 C104.886271,40.42929 104.704426,40.1148 104.704426,39.66842 C104.704426,39.14878 105.149935,38.69481 105.711265,38.69481 C106.521013,38.69481 106.740258,39.30971 106.740258,39.66072 C106.740258,40.36329 106.032729,40.77293 105.733419,40.93397 C106.149097,41.60002 106.397626,41.90043 106.893697,42.52182 C107.119961,42.22911 107.411484,41.82717 107.622942,41.16816 L108.061103,41.36594 Z" id="Fill-13" fill="#6E7C7C"></path>
            <path d="M114.92329,39.92472 C114.828968,39.66061 114.631548,39.10478 113.880258,39.10478 C113.676258,39.10478 112.997355,39.18519 112.997355,39.93891 C112.997355,40.4657 113.500774,40.68537 113.740968,40.78811 C113.931806,40.86852 114.252065,40.98523 114.441806,41.06575 C115.149226,41.36583 115.529806,41.66569 115.529806,42.47056 C115.529806,42.90968 115.302774,43.3268 115.02529,43.53195 C114.623871,43.83203 114.135806,43.83203 113.938387,43.83203 C113.143226,43.83203 112.669419,43.31976 112.385355,42.69782 L112.821871,42.48552 C112.983097,42.96864 113.303355,43.19513 113.405355,43.2542 C113.676258,43.40754 113.938387,43.41491 114.106194,43.41491 C114.457161,43.41491 115.048323,43.22428 115.048323,42.49267 C115.048323,42.13396 114.879419,41.83421 114.529548,41.66569 L114.288258,41.54898 C113.989935,41.3952 113.668581,41.28564 113.362581,41.1466 C113.150903,41.04408 112.865742,40.91252 112.669419,40.52466 C112.574,40.32688 112.537806,40.0928 112.537806,39.94606 C112.537806,39.2293 112.997355,38.69492 113.931806,38.69492 C114.543806,38.69492 114.989097,38.92911 115.375161,39.69757 L114.92329,39.92472 Z" id="Fill-14" fill="#6E7C7C"></path>
            <path d="M118.356194,39.20015 L118.356194,41.19731 L119.201806,41.19731 C120.113226,41.19731 120.500387,40.94871 120.500387,40.24636 C120.500387,39.39716 119.953097,39.20015 119.216065,39.20015 L118.356194,39.20015 Z M117.845097,38.79744 L119.253355,38.79744 C119.822581,38.79744 120.230581,38.87785 120.522323,39.11974 C120.836,39.37527 121.003806,39.75587 121.003806,40.21006 C121.003806,40.76589 120.734,41.13186 120.558516,41.29279 C120.202065,41.62224 119.749097,41.62224 119.347677,41.62224 L118.356194,41.62224 L118.356194,43.65636 L117.845097,43.65636 L117.845097,38.79744 Z" id="Fill-15" fill="#6E7C7C"></path>
            <polygon id="Fill-16" fill="#6E7C7C" points="122.793742 43.37102 123.326774 43.37102 123.326774 39.08278 122.793742 39.08278 122.793742 38.79744 124.369806 38.79744 124.369806 39.08278 123.837871 39.08278 123.837871 43.37102 124.369806 43.37102 124.369806 43.65647 122.793742 43.65647"></polygon>
            <path d="M127.422129,38.79744 L128.691097,41.87821 C128.808452,42.16377 128.968581,42.63919 129.085935,42.92486 C129.136387,43.04927 129.180258,43.21009 129.252645,43.21009 C129.275677,43.21009 129.311871,43.17313 129.311871,43.10042 L129.311871,38.79744 L129.793355,38.79744 L129.793355,43.65625 L128.910452,43.65625 L127.568,40.35603 C127.414452,39.97587 127.400194,39.93891 127.262,39.57316 C127.181935,39.36097 127.158903,39.2436 127.100774,39.2436 C127.064581,39.2436 127.042645,39.28056 127.042645,39.30982 L127.042645,43.65625 L126.561161,43.65625 L126.561161,38.79744 L127.422129,38.79744 Z" id="Fill-17" fill="#6E7C7C"></path>
            <polygon id="Fill-18" fill="#6E7C7C" points="132.102065 38.79744 135.158774 38.79744 135.158774 39.22215 132.604387 39.22215 132.604387 40.87578 134.801226 40.87578 134.801226 41.32172 132.604387 41.32172 132.604387 43.21713 135.238839 43.21713 135.238839 43.65625 132.102065 43.65625"></polygon>
            <polygon id="Fill-19" fill="#005CB9" points="49.8105484 24.5421 57.5493871 24.5421 57.5493871 27.70416 46.0856839 27.70416 46.0856839 9.06829 49.8105484 9.06829"></polygon>
            <polygon id="Fill-20" fill="#005CB9" points="81.8848323 27.69404 78.4938258 27.69404 72.8338129 9.05883 76.6782258 9.05883 80.1649806 22.90332 80.2125806 22.90332 83.7004323 9.05883 87.5446258 9.05883"></polygon>
            <polygon id="Fill-21" fill="#005CB9" points="100.807806 12.23101 92.9748645 12.23101 92.9748645 16.68524 99.4708387 16.68524 99.4708387 19.84818 92.9748645 19.84818 92.9748645 24.5421 101.261432 24.5421 101.261432 27.70416 89.2484645 27.70416 89.2484645 9.06829 100.807806 9.06829"></polygon>
            <polygon id="Fill-22" fill="#005CB9" points="107.302794 24.5421 115.040645 24.5421 115.040645 27.70416 103.577271 27.70416 103.577271 9.06829 107.302794 9.06829"></polygon>
            <polygon id="Fill-23" fill="#005CB9" points="132.304968 24.7577 135.170839 24.7577 135.170839 27.70427 125.713355 27.70427 125.713355 24.7577 128.579226 24.7577 128.579226 12.54198 125.713355 12.54198 125.713355 10.50588 129.631032 9.06829 132.304968 9.06829"></polygon>
            <path d="M36.5358516,18.3216 C36.5358516,28.43995 28.3569871,36.64342 18.2689677,36.64342 C8.17963226,36.64342 0,28.43995 0,18.3216 C0,8.20325 8.17963226,0 18.2689677,0 C28.3569871,0 36.5358516,8.20325 36.5358516,18.3216" id="Fill-24" fill="#6E7C7C"></path>
            <polygon id="Fill-25" fill="#6E7C7C" points="25.2814129 43.65768 25.2814129 43.65636 26.0282065 43.65768 23.2317613 37.74408 22.2725226 37.74408 22.2743871 14.35038 14.6105677 14.35038 14.6105677 43.65768"></polygon>
            <path d="M18.2688581,1.4652 C27.5507484,1.4652 35.0748387,9.01219 35.0748387,18.32149 C35.0748387,27.63101 27.5507484,35.17833 18.2688581,35.17833 C8.98576129,35.17833 1.46167097,27.63101 1.46167097,18.32149 C1.46167097,9.01219 8.98576129,1.4652 18.2688581,1.4652" id="Fill-26" fill="#FFFFFF"></path>
            <path d="M18.2688581,3.11135 C9.89224516,3.11135 3.10200645,9.92035 3.10200645,18.3216 C3.10200645,26.7223 9.89224516,33.53317 18.2688581,33.53317 C26.6452516,33.53317 33.4354903,26.7223 33.4354903,18.3216 C33.4354903,9.92035 26.6452516,3.11135 18.2688581,3.11135" id="Fill-27" fill="#005CB9"></path>
            <path d="M22.2753742,7.85697 L14.6140774,7.85697 L14.6140774,7.85763 L13.8679419,7.85697 L11.8633677,13.77068 L14.6140774,13.77068 L14.6121032,34.74801 C15.7938774,34.98935 17.0157935,35.11596 18.2688581,35.11596 C19.6458581,35.11596 20.9856774,34.95855 22.2753742,34.66771 L22.2753742,7.85697 Z" id="Fill-28" fill="#FFFFFF"></path>
        </g>
    </g>
</svg>