<?xml version="1.0" encoding="UTF-8"?>
<svg width="160px" height="90px" viewBox="0 0 160 90" version="1.1" xmlns="http://www.w3.org/2000/svg" xmlns:xlink="http://www.w3.org/1999/xlink">
    <!-- Generator: Sketch 49.3 (51167) - http://www.bohemiancoding.com/sketch -->
    <title>Lucy and The Gamblers logo designed by Isral Duke</title>
    <desc>Created with Sketch.</desc>
    <defs>
        <polygon id="path-1" points="0.272912312 0.0759863208 12.7547228 0.0759863208 12.7547228 4.09544224 0.272912312 4.09544224"></polygon>
        <polygon id="path-3" points="0.0242760045 0.12344434 12.5060748 0.12344434 12.5060748 4.1429173 0.0242760045 4.1429173"></polygon>
    </defs>
    <g id="Lucy-and-The-Gamblers-logo-designed-by-Isral-Duke" stroke="none" stroke-width="1" fill="none" fill-rule="evenodd">
        <g id="Page-1" transform="translate(30.000000, 14.000000)">
            <g id="Group-3" transform="translate(6.066066, 35.065146)">
                <mask id="mask-2" fill="white">
                    <use xlink:href="#path-1"></use>
                </mask>
                <g id="Clip-2"></g>
                <path d="M7.19562823,0.259488679 C7.10985405,0.261925472 6.69387357,0.24825566 6.25875465,0.331582075 C6.06630871,0.372026887 5.86564324,0.430480189 5.66873874,0.515262736 C5.61402282,0.540106132 5.55933724,0.564979245 5.50662312,0.591278774 C4.97626697,0.853144811 4.50235556,1.17545519 4.02771622,1.47241698 C3.55604925,1.76863585 3.08410931,2.06414151 2.60300961,2.23103208 C2.36406727,2.31554717 2.12612583,2.35233679 1.90283393,2.31067358 C1.67954204,2.26707877 1.46747237,2.12333774 1.28497477,1.91359528 C1.25761682,1.88242217 1.21136306,1.86949528 1.1695982,1.8850967 C1.11588318,1.9043533 1.08855556,1.96354953 1.10869489,2.01519764 L1.11018108,2.01956604 C1.21436577,2.29266509 1.42916517,2.57768066 1.75463994,2.7202033 C2.07738498,2.86953113 2.43916517,2.85782264 2.75217417,2.80498585 C3.38595676,2.67854009 3.91831471,2.39474292 4.42753063,2.11287736 C4.93301592,1.82224528 5.41138589,1.51408019 5.8731045,1.20615283 C6.34003994,0.905535849 6.76994204,0.57861934 7.28589129,0.424388208 L7.29608228,0.421238208 C7.32914234,0.411253302 7.35574204,0.385191509 7.36644865,0.350333491 C7.36966366,0.337198585 7.36769219,0.324271698 7.36593303,0.31185 C7.34803814,0.278240094 7.28216066,0.257527358 7.19562823,0.259488679 M12.739042,2.46636085 C12.6811111,2.93312547 12.4448985,3.40036557 12.0244595,3.66419292 C11.8165754,3.79500708 11.5714153,3.86151368 11.3332312,3.8622566 C11.177576,3.86418821 11.0276532,3.83788868 10.8836751,3.7969684 L10.8821889,3.79818679 C10.6549541,3.73581085 10.4122811,3.69049245 10.2362438,3.58039104 C10.1385195,3.5260684 10.0634216,3.44081038 10.0233856,3.33629575 C10.0233856,3.33507736 10.022142,3.33311604 10.0216568,3.33189764 C10.0208985,3.33020377 10.0216568,3.32752925 10.0204132,3.32580566 C10.0037619,3.27781274 9.99232733,3.22690755 9.99232733,3.1738033 C9.99232733,2.91434434 10.2071267,2.70460189 10.4714556,2.70460189 C10.7362393,2.70460189 10.9508264,2.91434434 10.9508264,3.1738033 C10.9508264,3.19255472 10.9478237,3.21059292 10.945094,3.22934434 C10.9446087,3.23056274 10.9463375,3.23103821 10.9458523,3.23299953 C10.9458523,3.23421792 10.9446087,3.23543632 10.9446087,3.23736792 C10.9351456,3.30339906 10.9127922,3.36550755 10.877973,3.41959245 C10.8523742,3.5000066 10.8511306,3.56529481 10.9351456,3.58208491 C11.2628649,3.64128113 11.5968018,3.59206981 11.8369877,3.40036557 C12.1311009,3.17647783 12.2822976,2.79815094 12.2904868,2.43028443 C12.3011934,2.06001085 12.1741396,1.69264953 11.9423856,1.42320566 C11.7111471,1.1501066 11.3822147,0.974479245 11.0194336,0.895550943 C10.8409093,0.854363208 10.6447327,0.838286321 10.4612646,0.836354717 C10.419985,0.835849528 10.3645411,0.837067925 10.3093399,0.838791509 L10.2693039,0.840009906 L10.2591129,0.840009906 C10.2713057,0.840009906 10.2573538,0.840723113 10.2578694,0.840723113 L10.2402171,0.842684434 L10.1676063,0.848271226 C10.0723691,0.8568 9.97716216,0.869221698 9.88316847,0.886784434 C9.50646577,0.955222642 9.14817357,1.09848821 8.80704835,1.28582406 C8.12504054,1.66415094 7.49747568,2.19617406 6.78538018,2.688525 C6.08147387,3.18574953 5.27113844,3.65055283 4.36013664,3.89464811 C3.90736547,4.01767642 3.43794294,4.08489623 2.97222072,4.09440566 C2.85314384,4.09731792 2.73130691,4.09366274 2.62885105,4.08878915 C2.50231291,4.08367783 2.39166787,4.07443585 2.27231802,4.05957736 C2.03759159,4.02911745 1.80189459,3.97553774 1.57462943,3.8890316 C1.11961381,3.72217075 0.702662763,3.38916226 0.482373574,2.95357075 C0.260325225,2.52044575 0.219045646,2.0236967 0.338395495,1.57497028 C0.454772973,1.1289184 0.739210811,0.708690566 1.16935556,0.487982547 C1.35831351,0.390778302 1.57165706,0.344003774 1.78123964,0.344003774 L1.7799961,0.341566981 C1.79667778,0.341566981 1.81308649,0.342785377 1.8294952,0.343528302 C1.83968619,0.344003774 1.84987718,0.342309906 1.86006817,0.343528302 C1.86752943,0.343528302 1.87523333,0.34522217 1.88293724,0.345965094 C2.30313363,0.363973585 2.69251441,0.493331604 2.87774174,0.723786792 C2.8973958,0.747441509 2.91504805,0.771541981 2.93021321,0.797871226 C2.93121411,0.799089623 2.93245766,0.801021226 2.93394384,0.802239623 C2.93442913,0.803458019 2.93442913,0.805151887 2.93518739,0.806637736 C2.97173544,0.87314434 2.9946045,0.947674528 2.9946045,1.02805896 C2.9946045,1.28704245 2.77953213,1.49726038 2.51523363,1.49726038 C2.25041952,1.49726038 2.03586276,1.28704245 2.03586276,1.02805896 C2.03586276,0.959620755 2.05175586,0.894808019 2.07887117,0.835849528 C2.07987207,0.833917925 2.07935646,0.833175 2.07987207,0.831956604 C2.16737508,0.690682075 2.16143033,0.617816038 2.07887117,0.599302358 C1.80562523,0.556450472 1.53137838,0.589822642 1.30335495,0.725510377 C0.970691892,0.917214623 0.765567868,1.28264434 0.697688589,1.65342311 C0.627807508,2.02809481 0.693715315,2.42395472 0.892378979,2.73018821 C1.08855556,3.03811557 1.40456727,3.24860094 1.76583183,3.34749906 C1.94584234,3.39864198 2.13655946,3.42470377 2.33000631,3.4335 C2.42472793,3.43715519 2.52991351,3.43593679 2.61841742,3.4322816 C2.73130691,3.42470377 2.8253006,3.41546179 2.92050751,3.40229717 C3.31486246,3.35261038 3.69329399,3.22981981 4.04885646,3.0619783 C4.7621955,2.72385849 5.39048829,2.22297877 6.07698498,1.73137075 C6.75802222,1.23708821 7.50244985,0.723073585 8.39106787,0.393958019 C8.83116096,0.229504245 9.30458709,0.116966038 9.78471622,0.0857929245 C9.90479399,0.0777396226 10.0241438,0.0745896226 10.1434937,0.0765212264 L10.2337568,0.0797009434 L10.2847117,0.0813948113 L10.325233,0.0840693396 C10.3779471,0.0870113208 10.4306613,0.0909042453 10.4968117,0.0969962264 C10.7424571,0.121839623 10.9756973,0.164958962 11.2101508,0.241925943 C11.6756,0.387628302 12.1209099,0.67823066 12.4016474,1.08969198 C12.6863279,1.49678491 12.7992174,1.99594104 12.739042,2.46636085" id="Fill-1" fill="#000000" mask="url(#mask-2)"></path>
            </g>
            <g id="Group-6" transform="translate(83.711712, 35.065146)">
                <mask id="mask-4" fill="white">
                    <use xlink:href="#path-3"></use>
                </mask>
                <g id="Clip-5"></g>
                <path d="M5.58351051,0.306946698 C5.66904204,0.309383491 6.08517417,0.295743396 6.52011111,0.379040094 C6.71270871,0.419484906 6.9134955,0.477967925 7.11033934,0.562720755 C7.16493393,0.587593868 7.21952853,0.612437264 7.2723033,0.638736792 C7.80278078,0.900632547 8.27654054,1.22291321 8.75121021,1.519875 C9.22284685,1.81612358 9.69478679,2.11162925 10.1761291,2.27849009 C10.4148288,2.36303491 10.6529219,2.39979481 10.8761532,2.35816132 C11.0993844,2.31453679 11.3113934,2.17082547 11.493982,1.9610533 C11.5212793,1.92988019 11.5676847,1.91698302 11.6095405,1.93255472 C11.6632252,1.95181132 11.6905225,2.01100755 11.6702012,2.06265566 L11.6686847,2.06702406 C11.5646517,2.34012311 11.3499129,2.62513868 11.0244685,2.76766132 C10.7017538,2.91698915 10.3399129,2.90531038 10.0269039,2.85244387 C9.393,2.72599811 8.8607027,2.44220094 8.35145646,2.16033538 C7.84615315,1.8697033 7.36754054,1.56153821 6.90591291,1.25361085 C6.43882583,0.952993868 6.00904505,0.626077358 5.49312613,0.471875943 L5.48281381,0.468696226 C5.44975375,0.458711321 5.42336637,0.432649528 5.41244745,0.397821226 C5.40941441,0.384656604 5.41123423,0.371729717 5.41305405,0.359308019 C5.43094895,0.325698113 5.49676577,0.304985377 5.58351051,0.306946698 M0.040036036,2.51381887 C0.097966967,2.98058349 0.33424024,3.44782358 0.754618619,3.71165094 C0.962381381,3.84246509 1.20745045,3.9089717 1.44584685,3.90971462 C1.60144144,3.91164623 1.75127327,3.8853467 1.89534234,3.84442642 L1.89685886,3.84564481 C2.12403303,3.78326887 2.36667568,3.73795047 2.54289489,3.62784906 C2.64055856,3.57352642 2.71547447,3.4882684 2.75551051,3.38375377 C2.75551051,3.38253538 2.75672372,3.38057406 2.75733033,3.37935566 C2.75824024,3.37766179 2.75733033,3.37498726 2.75854354,3.3732934 C2.77522523,3.32530047 2.78675075,3.27436557 2.78675075,3.22126132 C2.78675075,2.96183208 2.57201201,2.75205991 2.30753153,2.75205991 C2.04274775,2.75205991 1.82831231,2.96183208 1.82831231,3.22126132 C1.82831231,3.24001274 1.83104204,3.25805094 1.83377177,3.27680236 C1.83437838,3.27802075 1.83255856,3.27852594 1.83316517,3.28045755 C1.83316517,3.28167594 1.83437838,3.28289434 1.83437838,3.28485566 C1.84378078,3.35085708 1.86622523,3.41299528 1.90110511,3.46708019 C1.92658258,3.54746462 1.9277958,3.61275283 1.84378078,3.62957264 C1.51621321,3.68876887 1.18227628,3.63955755 0.94206006,3.44782358 C0.647855856,3.22393585 0.496810811,2.84560896 0.488621622,2.47777217 C0.477702703,2.10746887 0.604786787,1.74010755 0.836510511,1.47066368 C1.06793093,1.19759434 1.39671171,1.02193726 1.75946246,0.943008962 C1.93810811,0.901850943 2.13434535,0.885774057 2.31784384,0.883812736 C2.35909309,0.883337264 2.4145976,0.88455566 2.4697988,0.886249528 L2.50983483,0.887467925 L2.51984384,0.887467925 C2.50771171,0.887467925 2.52166366,0.888210849 2.52105706,0.888210849 L2.53864865,0.890142453 L2.61144144,0.895758962 C2.70667868,0.904287736 2.80191592,0.916709434 2.89593994,0.934242453 C3.27264264,1.00271038 3.63084384,1.14594623 3.97206006,1.33328208 C4.65388589,1.71160896 5.28142042,2.24366179 5.99357658,2.73598302 C6.69754354,3.23320755 7.50796997,3.69801085 8.41878979,3.94210613 C8.87162162,4.06513443 9.34113514,4.13238396 9.80670571,4.14186368 C9.9259039,4.14480566 10.0478318,4.14115047 10.150045,4.13627689 C10.2768258,4.13116557 10.3872282,4.12189387 10.5067297,4.10703538 C10.7414865,4.07657547 10.9771532,4.02299575 11.2043273,3.93651934 C11.6592823,3.76962877 12.0763243,3.43662028 12.2965225,3.00102877 C12.5185405,2.56790377 12.5600931,2.07118443 12.4405916,1.62245802 C12.3241231,1.17640613 12.0399279,0.756148585 11.6095405,0.535440566 C11.4205826,0.438236321 11.2073604,0.391461792 10.9977778,0.391461792 L10.998991,0.389054717 C10.9823093,0.389054717 10.9659309,0.390273113 10.9495526,0.390986321 C10.9392402,0.391461792 10.9292312,0.389767925 10.9189189,0.390986321 C10.9113363,0.390986321 10.9037538,0.392680189 10.8961712,0.393423113 C10.4757928,0.411461321 10.0863514,0.54081934 9.90133634,0.771274528 C9.88162162,0.794899528 9.86403003,0.819 9.84886486,0.845329245 C9.84765165,0.846547642 9.84643844,0.848479245 9.84492192,0.849697642 C9.84461862,0.850916038 9.84461862,0.852639623 9.84370871,0.854095755 C9.80731231,0.920602358 9.78426126,0.995132547 9.78426126,1.0755467 C9.78426126,1.33450047 9.99960661,1.5447184 10.2637838,1.5447184 C10.5285676,1.5447184 10.743003,1.33450047 10.743003,1.0755467 C10.743003,1.00707877 10.7272312,0.942295755 10.7002372,0.883337264 C10.699024,0.881375943 10.6996306,0.880633019 10.699024,0.87944434 C10.6116727,0.738140094 10.6174354,0.665303774 10.7002372,0.646790094 C10.9735135,0.603908491 11.2476997,0.63728066 11.4757838,0.772968396 C11.8082042,0.964702358 12.0135405,1.33010236 12.0811772,1.70088113 C12.1512402,2.07555283 12.0854234,2.47144245 11.8867598,2.77764623 C11.6905225,3.08557358 11.3744805,3.29605896 11.0132462,3.39495708 C10.8330841,3.44612972 10.6423063,3.47219151 10.4491021,3.48095802 C10.3541682,3.48461321 10.2492252,3.48339481 10.1606607,3.47973962 C10.0478318,3.47219151 9.95380781,3.46291981 9.85857057,3.44978491 C9.46427628,3.4000684 9.08575375,3.27730755 8.73028228,3.10943632 C8.01691291,2.77131651 7.38846847,2.27043679 6.70209309,1.77882877 C6.02087387,1.28454623 5.27656757,0.770531604 4.38788889,0.441416038 C3.9477958,0.276991981 3.47433934,0.164424057 2.99421021,0.133250943 C2.8741021,0.125197642 2.7549039,0.122047642 2.6354024,0.123979245 L2.54532132,0.127158962 L2.49436637,0.12885283 L2.45372372,0.131557075 C2.40094895,0.13446934 2.34847748,0.138362264 2.28205405,0.144454245 C2.03668168,0.169297642 1.80344144,0.212416981 1.56898799,0.289413679 C1.10341742,0.435086321 0.658168168,0.725718396 0.377309309,1.13717972 C0.0928108108,1.54424292 -0.0203213213,2.04339906 0.040036036,2.51381887" id="Fill-4" fill="#000000" mask="url(#mask-4)"></path>
            </g>
            <path d="M8.31566667,62.7503774 L7.92106907,61.9218679 C7.44184985,62.5845566 5.55318018,62.9991085 4.70757057,62.9991085 C3.41064565,62.9991085 2.19864565,62.7503774 1.24020721,61.9218679 C0.535633634,61.3417925 0.394597598,60.7340802 0,60.5685566 C0.338183183,60.3201226 0.451012012,60.0713915 0.451012012,59.8502972 L0.451012012,44.9638726 C0.451012012,44.7151415 0.338183183,44.4667075 0,44.2179764 C0.394597598,44.0524528 0.704573574,43.4171038 1.43765766,42.8646651 C2.67786486,41.9532453 4.22835135,41.7877217 5.75063063,41.7877217 C7.38543544,41.7877217 9.13306907,42.4227736 10.1479219,43.0581226 C9.61228829,44.0245189 8.73847147,46.7867123 8.23104505,48.6371887 C7.61078979,48.2782075 7.18798498,48.08475 6.48341141,47.8915896 L6.87800901,46.6761651 C7.01904505,46.2342736 7.15977778,45.6818349 7.15977778,45.1846698 C7.15977778,44.411434 6.8498018,43.7208113 5.86315616,43.7208113 C5.2432042,43.7208113 4.48191291,43.9695425 4.48191291,44.6601651 L4.48191291,60.2924858 C4.48191291,60.8722642 5.07396096,61.1206981 5.6378018,61.1206981 C6.00419219,61.1206981 6.39878979,60.9828113 6.56803303,60.7893538 L6.56803303,52.3105047 C6.53982583,52.0620708 6.34237538,51.8409764 6.06060661,51.8409764 L5.66600901,51.8409764 L6.06060661,51.0121698 L10.9089099,51.0121698 L11.3038108,51.8409764 L10.9371171,51.8409764 C10.5989339,51.8409764 10.2607508,52.0620708 10.2607508,52.3657783 L10.2607508,62.7503774 L8.31566667,62.7503774 Z" id="Fill-7" fill="#000000"></path>
            <path d="M19.1958234,44.4942552 C19.1958234,43.9418165 18.6601898,43.6657458 18.1245562,43.6657458 C17.5889225,43.6657458 17.0532889,43.9694533 17.0532889,44.4942552 L17.0532889,54.9620618 L19.1958234,54.9620618 L19.1958234,44.4942552 Z M18.7448114,62.7502882 L18.3502138,61.9217788 L18.7448114,61.9217788 C19.0265802,61.9217788 19.1958234,61.7006844 19.1958234,61.3969769 L19.1958234,56.8398778 L17.0532889,56.8398778 L17.0532889,61.3969769 C17.0532889,61.7006844 17.3635682,61.9217788 17.6735441,61.9217788 L18.0399345,61.9217788 L17.6735441,62.7502882 L12.6559976,62.7502882 L12.2896072,61.9217788 L12.8249375,61.9217788 C13.1070096,61.9217788 13.3326673,61.7006844 13.3326673,61.4522505 L13.3326673,44.9914203 C13.3326673,44.7429863 13.1916312,44.4942552 12.881352,44.2455241 C13.2759495,44.0800005 13.5862288,43.4446514 14.2908024,42.8925099 C15.3620697,42.0640005 16.7715201,41.7876325 18.1245562,41.7876325 C19.4211778,41.7876325 20.8588354,42.0913401 21.9301027,42.8925099 C22.6631868,43.4446514 22.9731628,44.0800005 23.3677604,44.2455241 C23.0574811,44.4942552 22.9167483,44.7429863 22.9167483,44.9914203 L22.9167483,61.3969769 C22.9167483,61.7006844 23.2831387,61.9217788 23.593418,61.9217788 L23.9598084,61.9217788 L23.593418,62.7502882 L18.7448114,62.7502882 Z" id="Fill-8" fill="#000000"></path>
            <path d="M34.0224414,62.7503774 L33.6560511,61.9218679 L34.0224414,61.9218679 C34.3606246,61.9218679 34.6988078,61.7560472 34.6988078,61.397066 L34.6988078,48.9408962 L31.4856126,54.8789434 C30.7807357,52.2825708 28.159255,50.5429387 28.0746333,48.8856226 L28.0746333,61.397066 C28.0746333,61.7560472 28.4974381,61.9218679 28.8074141,61.9218679 L29.2020117,61.9218679 L28.8074141,62.7503774 L25.3121468,62.7503774 L24.9457565,61.9218679 L25.3121468,61.9218679 C25.65033,61.9218679 25.9885132,61.7560472 25.9885132,61.397066 L25.9885132,43.389467 C25.9885132,43.0581226 25.65033,42.8646651 25.3121468,42.8646651 L24.9457565,42.8646651 L25.3121468,42.0361557 L29.9347925,42.0361557 C29.963303,43.9142689 32.8665526,45.7923821 33.2329429,47.6428585 L34.6988078,44.7704151 L34.6988078,43.389467 C34.6988078,43.0581226 34.3606246,42.8646651 34.0506486,42.8646651 L33.6560511,42.8646651 L34.0506486,42.0361557 L39.3784745,42.0361557 L39.7730721,42.8646651 L39.4066817,42.8646651 C39.0681952,42.8646651 38.730012,43.0581226 38.730012,43.389467 L38.730012,61.397066 C38.730012,61.7560472 39.0681952,61.9218679 39.4066817,61.9218679 L39.7730721,61.9218679 L39.3784745,62.7503774 L34.0224414,62.7503774 Z" id="Fill-9" fill="#000000"></path>
            <path d="M48.6795736,53.3875075 C48.6795736,52.1723802 47.6368168,51.8410358 46.5655495,51.8410358 L46.5655495,60.8723236 C47.5236847,60.8723236 48.6795736,60.5130453 48.6795736,59.3531915 L48.6795736,53.3875075 Z M48.594952,45.4884368 C48.594952,44.6322906 47.7493423,43.9143283 46.5655495,43.9143283 L46.5655495,49.9629226 C47.7211351,49.9629226 48.594952,49.3275736 48.594952,48.388517 L48.594952,45.4884368 Z M41.857979,62.7504368 L41.4630781,61.9216302 L41.9426006,61.9216302 C42.2243694,61.9216302 42.5343453,61.6731962 42.5343453,61.3968283 L42.5343453,43.3895264 C42.5343453,43.0855217 42.2525766,42.8647245 41.9426006,42.8647245 L41.4630781,42.8647245 L41.857979,42.0362151 L48.594952,42.0362151 C51.7238288,42.0362151 52.2315586,43.9143283 52.9361321,44.2180358 C52.6258529,44.466767 52.5133273,44.7152009 52.5133273,44.9639321 L52.5133273,49.0235689 C52.5133273,49.2723 52.6258529,49.5210311 52.9361321,49.7694651 C52.2594625,49.9073519 51.4705706,50.6808849 50.1736456,50.7914321 C51.4705706,50.9019792 52.5133273,51.7581255 53.1614865,51.8960123 C52.8233033,52.1447434 52.7107778,52.3931774 52.7107778,52.6142717 L52.7107778,59.8227198 C52.7107778,60.0714509 52.8233033,60.3198849 53.1614865,60.568616 C52.3443874,60.8723236 51.7238288,62.7504368 48.594952,62.7504368 L41.857979,62.7504368 Z" id="Fill-10" fill="#000000"></path>
            <path d="M54.9649279,62.7503774 L54.570027,61.9218679 L54.9649279,61.9218679 C55.3031111,61.9218679 55.6412943,61.7560472 55.6412943,61.397066 L55.6412943,43.389467 C55.6412943,43.0581226 55.3031111,42.8646651 54.9649279,42.8646651 L54.570027,42.8646651 L54.9649279,42.0361557 L60.3206577,42.0361557 L60.7155586,42.8646651 L60.3206577,42.8646651 C60.0106817,42.8646651 59.6721952,43.0581226 59.6721952,43.389467 L59.6721952,60.8722642 C61.5044505,60.8449245 63.2523874,55.8732736 63.478045,54.7134198 C64.0697898,55.1000377 64.3518619,55.2102877 65.0282282,55.4313821 C64.5493123,56.5635991 63.8444354,61.397066 63.8444354,62.7503774 L54.9649279,62.7503774 Z" id="Fill-11" fill="#000000"></path>
            <path d="M65.8165135,62.7503774 L65.4498198,61.9218679 L65.9011351,61.9218679 C66.2111111,61.9218679 66.4928799,61.7007736 66.4928799,61.397066 L66.4928799,43.389467 C66.4928799,43.0857594 66.2111111,42.8646651 65.9011351,42.8646651 L65.4498198,42.8646651 L65.8165135,42.0361557 L75.2595586,42.0361557 C74.6396066,42.8646651 74.4421562,44.2179764 74.4421562,45.4057642 L74.4421562,45.9582028 C74.0193514,46.0684528 73.7093754,46.2066368 73.2019489,46.5379811 C73.1737417,45.046783 71.7360841,43.9142689 70.5237808,43.9142689 L70.5237808,50.1010472 C71.1158288,49.7417689 72.7509369,48.9132594 73.1455345,48.1400236 L73.1455345,54.4923255 C72.7509369,53.7743632 71.0315105,52.8626462 70.5237808,52.4483915 L70.5237808,60.8722642 C72.8355586,60.8722642 74.1603874,56.0387972 74.3857417,54.7134198 C74.8370571,54.9894906 75.457009,55.2934953 75.9362282,55.4313821 C75.457009,56.5635991 74.7521321,61.397066 74.7521321,62.7503774 L65.8165135,62.7503774 Z" id="Fill-12" fill="#000000"></path>
            <path d="M84.1384595,45.1570627 C84.1384595,43.9142986 83.3210571,43.9142986 82.0244354,43.9142986 L82.0244354,52.7247892 C83.0957027,52.7247892 84.1384595,52.7247892 84.1384595,51.343841 L84.1384595,45.1570627 Z M84.927958,62.7504071 L82.0244354,54.1886476 L82.0244354,61.3967986 C82.0244354,61.7560769 82.3626186,61.9218976 82.6725946,61.9218976 L83.0674955,61.9218976 L82.6725946,62.7504071 L77.3168649,62.7504071 L76.921964,61.9218976 L77.3168649,61.9218976 C77.6268408,61.9218976 77.9932312,61.7560769 77.9932312,61.3967986 L77.9932312,43.3894967 C77.9932312,43.0581524 77.6268408,42.8646948 77.3168649,42.8646948 L76.921964,42.8646948 L77.3168649,42.0361854 L83.9695195,42.0361854 C87.0983964,42.0361854 87.8875916,43.9142986 88.5924685,44.2180061 C88.2821892,44.4667373 88.1414565,44.7151712 88.1414565,44.9639024 L88.1414565,52.0344637 C88.1414565,52.2826005 88.2821892,52.5313316 88.5924685,52.7797656 C88.1414565,52.9732231 87.2958468,53.8570061 86.1681652,54.1057373 L88.7052973,61.3967986 C88.8178228,61.6731665 89.0716877,61.9218976 89.3816637,61.9218976 L89.8326757,61.9218976 L89.4662853,62.7504071 L84.927958,62.7504071 Z" id="Fill-13" fill="#000000"></path>
            <path d="M91.1568979,62.7503774 L90.5366426,61.9218679 C91.0443724,60.9828113 91.3258378,58.5246226 91.3258378,56.1772783 C91.3258378,55.1276745 91.2694234,54.1333443 91.1568979,53.2771981 C91.8896787,53.7743632 92.65097,54.1333443 93.4401652,54.3820755 C93.3555435,54.9618538 93.2991291,55.7074528 93.2991291,56.4809858 C93.2991291,58.6628066 93.7501411,61.1206981 95.4977748,61.1206981 C96.7664925,61.1206981 97.6403093,59.9608443 97.6403093,58.3590991 C97.6403093,56.5635991 96.5411381,54.2435943 93.6376156,52.4483915 C91.8053604,51.3161745 90.5366426,49.106717 90.5366426,46.9245991 C90.5366426,44.3837972 92.3971051,42.0361557 95.1031772,42.0361557 L99.0215526,42.0361557 L99.7543333,42.8646651 C99.2472102,43.8866321 98.6551622,45.8476557 98.4012973,47.200967 C97.8095526,46.9245991 97.33003,46.7867123 96.7382853,46.6761651 C96.9354324,46.0960896 96.9918468,45.7647453 96.9918468,45.4334009 C96.9918468,44.5769575 96.6254565,43.6655377 95.6952252,43.6655377 C94.3986036,43.6655377 94.145042,45.0191462 94.145042,45.9582028 C94.145042,47.8915896 96.8793213,49.3275142 98.4295045,50.874283 C99.979991,52.4483915 100.853808,54.5199623 100.853808,56.6741462 C100.853808,58.0550943 99.9517838,62.7503774 96.2590661,62.7503774 L91.1568979,62.7503774 Z" id="Fill-14" fill="#000000"></path>
            <path d="M24.6570117,28.3259292 C24.6570117,28.3259292 25.7601258,27.0177877 25.7601258,25.9940377 L25.7601258,2.33189151 C25.7601258,1.30814151 24.6570117,0 24.6570117,0 L30.5781291,0 C30.5781291,0 29.5332189,1.30814151 29.5332189,2.33189151 L29.5332189,24.8564717 L32.609958,24.8564717 C34.4094565,24.8564717 36.7897808,18.8313538 36.3251201,15.4754151 C36.0351622,15.7030472 35.6866667,15.8168632 35.2805435,15.8168632 C34.3515255,15.8168632 33.5969069,15.0775047 33.5969069,14.1672736 C33.5969069,13.2573396 34.3515255,12.5179811 35.2805435,12.5179811 C37.1962072,12.5179811 37.7764264,14.7360566 37.7764264,16.3285896 L37.7764264,28.3259292 L24.6570117,28.3259292 Z" id="Fill-15" fill="#000000"></path>
            <path d="M43.0587568,28.3259292 C41.8977117,28.3259292 40.9110661,27.4159953 40.9110661,26.2213726 L40.9110661,10.2389858 C40.9110661,9.32905189 39.9241171,8.13472642 39.9241171,8.13472642 L44.3938979,8.13472642 L44.3938979,24.4015047 C44.3938979,24.7994151 44.7423934,25.0838066 45.1485165,25.0838066 L48.2252252,25.0838066 L48.2252252,10.2389858 C48.2252252,9.32905189 47.2385796,8.13472642 47.2385796,8.13472642 L51.7083604,8.13472642 L51.7083604,26.2213726 C51.7083604,27.1316038 52.695006,28.3259292 52.695006,28.3259292 L43.0587568,28.3259292 Z" id="Fill-16" fill="#000000"></path>
            <path d="M65.1877658,39.0750071 L65.1877658,35.6049552 C65.1877658,33.3865825 65.5362613,32.0785896 66.8134715,31.7374387 C67.3936907,31.5668632 67.9162823,32.1356462 67.9162823,32.7041321 C67.9162823,33.3298231 67.5680901,33.4436392 67.0454985,33.6142146 C66.3488108,33.7847901 66.3488108,34.125941 66.3488108,34.3535731 C66.3488108,36.0765637 66.2908799,35.8331816 67.626021,35.8331816 L72.3745375,35.8331816 C73.3614865,35.8331816 74.4063664,35.0938231 74.4063664,34.2406486 L74.4063664,28.3262264 L69.2398979,28.3262264 C68.0791562,28.3262264 67.0919039,27.4162925 67.0919039,26.2216698 L67.0919039,10.239283 C67.0919039,9.32934906 66.1052583,8.13502358 66.1052583,8.13502358 L70.575039,8.13502358 L70.575039,24.4018019 C70.575039,24.7997123 70.9232312,25.0841038 71.3296577,25.0841038 L74.4063664,25.0841038 L74.4063664,10.239283 C74.4063664,9.32934906 73.4197207,8.13502358 73.4197207,8.13502358 L77.8895015,8.13502358 L77.8895015,37.0275071 C77.8895015,38.3356486 76.6705255,39.0750071 75.7997417,39.0750071 L65.1877658,39.0750071 Z" id="Fill-17" fill="#000000"></path>
            <path d="M26.9868057,32.3772453 C26.9868057,32.1745755 26.7902652,32.0732406 26.5937246,32.0732406 C26.3971841,32.0732406 26.2006435,32.1846792 26.2006435,32.3772453 L26.2006435,36.217541 L26.9868057,36.217541 L26.9868057,32.3772453 Z M26.8212021,39.0751259 L26.6765264,38.7711212 L26.8212021,38.7711212 C26.9246285,38.7711212 26.9868057,38.6899939 26.9868057,38.5785552 L26.9868057,36.9066778 L26.2006435,36.9066778 L26.2006435,38.5785552 C26.2006435,38.6899939 26.3146856,38.7711212 26.4284243,38.7711212 L26.5627877,38.7711212 L26.4284243,39.0751259 L24.5873733,39.0751259 L24.4530099,38.7711212 L24.6492471,38.7711212 C24.7526736,38.7711212 24.8354754,38.6899939 24.8354754,38.5987627 L24.8354754,32.5594104 C24.8354754,32.4684764 24.7839138,32.3772453 24.6701751,32.2860142 C24.8148508,32.2250943 24.9285895,31.9921132 25.1873072,31.7894434 C25.580085,31.4854387 26.0975204,31.3841038 26.5937246,31.3841038 C27.0696075,31.3841038 27.597052,31.4955425 27.9898297,31.7894434 C28.2588598,31.9921132 28.3725985,32.2250943 28.5172742,32.2860142 C28.4035354,32.3772453 28.3519739,32.4684764 28.3519739,32.5594104 L28.3519739,38.5785552 C28.3519739,38.6899939 28.4863372,38.7711212 28.600076,38.7711212 L28.7344393,38.7711212 L28.600076,39.0751259 L26.8212021,39.0751259 Z" id="Fill-18" fill="#000000"></path>
            <path d="M32.4674054,39.0750962 L32.3227297,38.7710915 L32.4674054,38.7710915 C32.5811441,38.7710915 32.7158108,38.7104689 32.7158108,38.5785255 L32.7158108,36.6733698 C32.7158108,35.3765208 30.8228949,35.072516 30.6057297,33.8362896 L30.6057297,38.5785255 C30.6057297,38.7104689 30.7300841,38.7710915 30.8541351,38.7710915 L30.9884985,38.7710915 L30.8228949,39.0750962 L29.602736,39.0750962 L29.4577571,38.7710915 L29.602736,38.7710915 C29.7164748,38.7710915 29.8405258,38.7104689 29.8405258,38.5785255 L29.8405258,31.9719057 C29.8405258,31.8503632 29.7164748,31.7793396 29.602736,31.7793396 L29.4577571,31.7793396 L29.602736,31.4753349 L30.8335105,31.4753349 C30.8541351,32.1644717 32.7054985,33.380134 32.7158108,33.9679358 L32.7158108,31.9719057 C32.7158108,31.8503632 32.5811441,31.7793396 32.4674054,31.7793396 L32.3227297,31.7793396 L32.4674054,31.4753349 L33.7188348,31.4753349 L33.8638138,31.7793396 L33.7188348,31.7793396 C33.6050961,31.7793396 33.4704294,31.8503632 33.4704294,31.9719057 L33.4704294,38.5785255 C33.4704294,38.7104689 33.6050961,38.7710915 33.7188348,38.7710915 L33.8638138,38.7710915 L33.6878979,39.0750962 L32.4674054,39.0750962 Z" id="Fill-19" fill="#000000"></path>
            <path d="M37.3897147,32.7418726 C37.3897147,32.1641745 37.0275706,32.1641745 36.5932402,32.1641745 L36.5932402,38.3860783 C37.0275706,38.3860783 37.3897147,38.3860783 37.3897147,37.818484 L37.3897147,32.7418726 Z M34.834991,39.0752151 L34.6903153,38.7712104 L34.8559189,38.7712104 C34.9696577,38.7712104 35.0730841,38.7001868 35.0730841,38.5887481 L35.0730841,31.9615047 C35.0730841,31.8503632 34.9696577,31.7793396 34.8559189,31.7793396 L34.6903153,31.7793396 L34.834991,31.4753349 L37.3897147,31.4753349 C38.5377177,31.4753349 38.703018,32.1641745 38.9617357,32.2759104 C38.847997,32.3668443 38.8064444,32.4580755 38.8064444,32.5493066 L38.8064444,38.0113472 C38.8064444,38.0921774 38.847997,38.1834085 38.9617357,38.2746396 C38.703018,38.3860783 38.5377177,39.0752151 37.3897147,39.0752151 L34.834991,39.0752151 Z" id="Fill-20" fill="#000000"></path>
            <path d="M44.9898889,39.0750962 L44.8452132,38.7710915 L44.9898889,38.7710915 C45.1036276,38.7710915 45.237991,38.7104689 45.237991,38.5785255 L45.237991,32.0732406 C44.4830691,32.0732406 44.4830691,33.2788585 44.4830691,33.8258887 C44.2762162,33.7043462 44.20403,33.6743321 44.0178018,33.6134123 L44.0178018,33.4107425 C44.0178018,32.9751509 43.9453123,31.7793396 43.7178348,31.4753349 L48.227045,31.4753349 C47.9995676,31.7793396 47.9270781,32.9751509 47.9270781,33.4107425 L47.9270781,33.6134123 C47.7820991,33.6639311 47.648039,33.7147472 47.4718198,33.8258887 C47.4618108,33.2788585 47.4718198,32.0732406 46.7168979,32.0732406 L46.7068889,38.5785255 C46.7068889,38.7104689 46.8409489,38.7710915 46.954991,38.7710915 L47.0996667,38.7710915 L46.954991,39.0750962 L44.9898889,39.0750962 Z" id="Fill-21" fill="#000000"></path>
            <path d="M51.6392072,39.0750962 L51.4945315,38.7710915 L51.5667177,38.7710915 C51.6910721,38.7710915 51.8151231,38.7104689 51.8151231,38.5785255 L51.8151231,35.072516 L50.9670871,35.072516 L50.9670871,38.5785255 C50.9670871,38.7104689 51.0911381,38.7710915 51.2151892,38.7710915 L51.2773664,38.7710915 L51.143003,39.0750962 L49.2500871,39.0750962 L49.1054114,38.7710915 L49.2707117,38.7710915 C49.3847538,38.7710915 49.4881802,38.6899642 49.4881802,38.5785255 L49.4881802,31.9719057 C49.4881802,31.8601698 49.3847538,31.7793396 49.2707117,31.7793396 L49.1054114,31.7793396 L49.2500871,31.4753349 L51.143003,31.4753349 L51.2773664,31.7793396 L51.2151892,31.7793396 C51.0911381,31.7793396 50.9670871,31.8503632 50.9670871,31.9719057 L50.9670871,34.3227566 L51.8151231,34.3227566 L51.8151231,31.9719057 C51.8151231,31.8503632 51.6910721,31.7793396 51.5667177,31.7793396 L51.4945315,31.7793396 L51.6392072,31.4753349 L53.5424354,31.4753349 L53.6764955,31.7793396 L53.5111952,31.7793396 C53.3974565,31.7793396 53.29403,31.8601698 53.29403,31.9719057 L53.29403,38.5785255 C53.29403,38.6899642 53.3974565,38.7710915 53.5111952,38.7710915 L53.6764955,38.7710915 L53.5424354,39.0750962 L51.6392072,39.0750962 Z" id="Fill-22" fill="#000000"></path>
            <path d="M54.9063904,39.0750962 L54.7617147,38.7710915 L54.927015,38.7710915 C55.0410571,38.7710915 55.1444835,38.6899642 55.1444835,38.5785255 L55.1444835,31.9719057 C55.1444835,31.8601698 55.0410571,31.7793396 54.927015,31.7793396 L54.7617147,31.7793396 L54.9063904,31.4753349 L58.371024,31.4753349 C58.1435465,31.7793396 58.0710571,32.2759104 58.0710571,32.7115613 L58.0710571,32.9142311 C57.9054535,32.9546462 57.792018,33.0054623 57.6057898,33.1270047 C57.5954775,32.5796179 57.068033,32.1644717 56.6233904,32.1644717 L56.6233904,34.3227566 L57.8642042,34.3227566 L57.8642042,35.072516 L56.6233904,35.072516 L56.6233904,38.3862566 C57.4711231,38.3862566 57.9676306,36.6127472 58.0401201,36.1262802 C58.216036,36.2276151 58.4332012,36.3393509 58.6191261,36.3898698 C58.4332012,36.8053132 58.1747868,38.5785255 58.1747868,39.0750962 L54.9063904,39.0750962 Z" id="Fill-23" fill="#000000"></path>
            <path d="M64.8028739,22.8122406 C64.3385165,22.3572736 63.9903243,22.6984245 64.0482553,23.0398726 C64.2802823,24.2341981 63.8159249,25.4285236 62.6548799,25.4285236 L58.8235526,25.4285236 C58.4171261,25.4285236 58.1268649,25.0873726 58.1268649,24.6891651 L58.1268649,12.4035708 C58.1268649,12.0056604 58.4171261,11.6642123 58.8235526,11.6642123 L60.5071892,11.6642123 C63.2096216,11.6642123 63.8329099,12.6356604 61.8623483,15.3939906 C61.630018,15.1791368 61.5405435,14.507533 60.7674234,14.507533 C60.051021,14.507533 59.4701952,15.0766132 59.4701952,15.7785283 C59.4701952,16.4804434 60.051021,17.0495236 60.7674234,17.0495236 C62.6742913,17.0495236 64.6867087,13.0505094 64.6867087,12.5744434 L64.6867087,10.5266462 C64.6867087,9.38937736 63.7576907,8.42238679 62.5969489,8.42238679 L56.7917237,8.42238679 C55.5727477,8.42238679 54.6437297,9.38937736 54.6437297,10.5266462 L54.6437297,26.5660896 C54.6437297,27.7036557 55.5727477,28.6706462 56.7917237,28.6706462 L63.2936366,28.6706462 C64.4543784,28.6706462 65.3830931,27.7036557 65.5574925,26.5660896 C65.7315886,24.9735566 65.6154234,23.5515991 64.8028739,22.8122406" id="Fill-24" fill="#000000"></path>
            <path d="M64.2984805,7.43013679 C64.1613874,7.42181604 64.2129489,7.4842217 64.2939309,7.37545755 C65.0054805,6.41975943 70.575039,3.69590094 70.575039,8.13472642 L66.6069219,8.82208019 C66.488027,8.82208019 66.104045,7.53890094 64.2984805,7.43013679" id="Fill-25" fill="#000000"></path>
        </g>
    </g>
</svg>