<?xml version="1.0" encoding="UTF-8"?>
<svg width="160px" height="90px" viewBox="0 0 160 90" version="1.1" xmlns="http://www.w3.org/2000/svg" xmlns:xlink="http://www.w3.org/1999/xlink">
    <!-- Generator: Sketch 49.3 (51167) - http://www.bohemiancoding.com/sketch -->
    <title>Mercer Downs &amp; Company logo designed by Isral Duke</title>
    <desc>Created with Sketch.</desc>
    <defs></defs>
    <g id="Mercer-Downs-&amp;-Company-logo-designed-by-Isral-Duke" stroke="none" stroke-width="1" fill="none" fill-rule="evenodd">
        <g id="Page-1" transform="translate(11.000000, 21.000000)">
            <path d="M17.2840359,3.0848 C17.2840359,1.38112 18.6394619,0 20.3106726,0 C21.98,0 23.3341704,1.38112 23.3341704,3.0848 C23.3341704,4.78592 21.98,6.16704 20.3106726,6.16704 C18.6394619,6.16704 17.2840359,4.78592 17.2840359,3.0848 Z M33.8329148,11.82144 C33.8329148,9.65888 35.5518386,7.90656 37.6725561,7.90656 C39.7920179,7.90656 41.5103139,9.65888 41.5103139,11.82144 C41.5103139,13.9808 39.7920179,15.73376 37.6725561,15.73376 C35.5518386,15.73376 33.8329148,13.9808 33.8329148,11.82144 Z M0,11.82144 C0,9.65888 1.71892377,7.90656 3.84026906,7.90656 C5.95973094,7.90656 7.67802691,9.65888 7.67802691,11.82144 C7.67802691,13.9808 5.95973094,15.73376 3.84026906,15.73376 C1.71892377,15.73376 0,13.9808 0,11.82144 Z M15.0904933,20.06016 C15.0904933,17.12256 17.4271749,14.73856 20.3106726,14.73856 C23.1929148,14.73856 25.5283408,17.12256 25.5283408,20.06016 C25.5283408,22.9984 23.1929148,25.37984 20.3106726,25.37984 C17.4271749,25.37984 15.0904933,22.9984 15.0904933,20.06016 Z M18.7788341,10.90624 L7.67112108,19.16608 L20.3370404,28.90816 L32.9753363,19.16864 L21.8475336,11.01248 L21.8475336,6.99712 L38.4811659,18.13056 L38.4811659,32.99264 L32.9753363,37.36128 L32.9753363,26.24064 L27.0721076,31.3024 L27.0721076,42.04416 L20.350852,47.37344 L13.5743498,41.87904 L13.5743498,31.3024 L7.67112108,26.24064 L7.67112108,37.09056 L2.61668161,32.99264 L2.61668161,18.29312 L18.7788341,6.99712 L18.7788341,10.90624 Z" id="Fill-1" fill="#B2A97D"></path>
            <polygon id="Fill-2" fill="#3A6E8F" points="54.5391031 29.93984 54.5391031 19.48416 54.5095964 19.48416 50.9756951 29.93984 49.2347982 29.93984 45.7008969 19.72608 45.6713901 19.72608 45.6713901 29.93984 43.9939013 29.93984 43.9939013 17.72992 46.8020628 17.72992 50.263139 27.69024 50.2970404 27.69344 53.6652018 17.72992 56.5499552 17.72992 56.5499552 29.93984"></polygon>
            <path d="M62.5504933,23.27424 C62.4977578,23.06304 62.4142601,22.8736 62.3006278,22.70592 C62.1876233,22.53824 62.0438565,22.4032 61.8686996,22.30208 C61.6929148,22.20096 61.4838565,22.1504 61.2415247,22.1504 C60.9979372,22.1504 60.7876233,22.20224 60.6093274,22.30656 C60.4310314,22.41088 60.2816143,22.5472 60.1604484,22.71424 C60.0386547,22.88256 59.9426009,23.072 59.8716592,23.2832 C59.8013453,23.4944 59.7542601,23.71008 59.732287,23.93024 L62.6314798,23.93024 C62.6314798,23.70432 62.6044843,23.48544 62.5504933,23.27424 Z M59.732287,24.81024 C59.732287,25.12064 59.7617937,25.44 59.8208072,25.76832 C59.8804484,26.09664 59.967713,26.41728 60.0838565,26.73088 C60.1993722,27.04448 60.3450224,27.3408 60.5208072,27.61984 C60.6953363,27.89888 60.9006278,28.144 61.135426,28.35392 C61.3695964,28.56384 61.6326457,28.73088 61.9233184,28.8544 C62.2146188,28.97792 62.535426,29.04 62.8857399,29.04 C63.1682511,29.04 63.4426009,29.00416 63.7081614,28.93248 C63.973722,28.8608 64.2392825,28.77312 64.5054709,28.67008 L64.5054709,29.552 C64.2562332,29.66144 64.0289686,29.7536 63.8224215,29.82912 C63.6165022,29.904 63.4099552,29.96416 63.2040359,30.01024 C62.9974888,30.05632 62.7840359,30.0896 62.5636771,30.11008 C62.3433184,30.12992 62.0972197,30.14016 61.826009,30.14016 C61.1027803,30.14016 60.4781166,30.01856 59.9532735,29.77728 C59.4278027,29.53472 58.9927354,29.19872 58.6486996,28.76928 C58.3046637,28.33984 58.049148,27.83296 57.8827803,27.24736 C57.7157848,26.6624 57.6329148,26.02688 57.6329148,25.3408 C57.6329148,24.71232 57.7032287,24.14912 57.8444843,23.65056 C57.9851121,23.152 58.2054709,22.7296 58.5049327,22.384 C58.8037668,22.03776 59.184843,21.77408 59.6475336,21.59232 C60.110852,21.41056 60.664574,21.32032 61.3086996,21.32032 C61.8172197,21.32032 62.2780269,21.38368 62.6911211,21.5104 C63.1035874,21.63776 63.455157,21.83104 63.7464574,22.09088 C64.0377578,22.35072 64.2618834,22.67968 64.4200897,23.0784 C64.578296,23.47648 64.6573991,23.94688 64.6573991,24.4896 L64.6573991,24.81024 L59.732287,24.81024 Z" id="Fill-3" fill="#3A6E8F"></path>
            <path d="M69.5919283,23.64672 C69.2384753,23.73056 68.9446637,23.87456 68.7104933,24.07936 C68.4756951,24.28416 68.2992825,24.5568 68.18,24.89728 C68.0619731,25.23712 68.0023318,25.6608 68.0023318,26.16832 L68.0023318,29.93984 L65.9029596,29.93984 L65.9029596,21.5104 L68.0023318,21.5104 L68.0023318,23.61984 L68.0362332,23.61984 C68.1944395,23.31456 68.3595516,23.02784 68.5321973,22.75968 C68.7042152,22.49216 68.8994619,22.25408 69.1166816,22.04608 C69.3345291,21.83872 69.5837668,21.67168 69.863139,21.54496 C70.143139,21.41824 70.4664574,21.34336 70.833722,21.32032 L70.833722,23.53024 C70.3591031,23.52448 69.9453812,23.56352 69.5919283,23.64672" id="Fill-4" fill="#3A6E8F"></path>
            <path d="M76.0815247,24.36032 L76.0815247,23.98912 C76.0815247,23.79904 76.0727354,23.59616 76.0557848,23.37984 C76.0388341,23.16416 75.9967713,22.96576 75.9289686,22.78464 C75.8611659,22.60352 75.7582063,22.45248 75.6200897,22.33152 C75.4813453,22.21056 75.2886099,22.1504 75.04,22.1504 C74.763139,22.1504 74.5358744,22.24064 74.3582063,22.4224 C74.1805381,22.60416 74.0405381,22.8256 73.9388341,23.088 C73.83713,23.3504 73.7668161,23.6256 73.7272646,23.9136 C73.687713,24.20224 73.6682511,24.45248 73.6682511,24.6656 C73.6682511,24.96512 73.6921076,25.28128 73.7404484,25.6128 C73.7881614,25.94368 73.86287,26.27072 73.964574,26.59392 C74.066278,26.91648 74.1962332,27.22624 74.3544395,27.5232 C74.5126457,27.81952 74.7016143,28.08064 74.9226009,28.30528 C75.1423318,28.52992 75.3934529,28.70912 75.6765919,28.8416 C75.9584753,28.97408 76.2780269,29.04 76.6333632,29.04 C76.9158744,29.04 77.1927354,29.0112 77.4639462,28.95424 C77.735157,28.89728 78.0032287,28.8192 78.2687892,28.72192 L78.2687892,29.62112 C78.0427803,29.70816 77.8261883,29.7824 77.6202691,29.8464 C77.413722,29.90976 77.2078027,29.96288 77.0012556,30.00576 C76.7947085,30.04928 76.5856502,30.08256 76.3740807,30.1056 C76.1618834,30.12864 75.93713,30.14016 75.6998206,30.14016 C74.9703139,30.14016 74.3362332,30.02496 73.7963229,29.79456 C73.2564126,29.56416 72.8081614,29.24096 72.4521973,28.8256 C72.0962332,28.41088 71.8306726,27.91168 71.6548879,27.32992 C71.4797309,26.74752 71.3924664,26.10176 71.3924664,25.39264 C71.3924664,24.77056 71.4671749,24.208 71.6172197,23.70688 C71.7666368,23.20512 71.995157,22.77696 72.3040359,22.4224 C72.6116592,22.06848 73.0002691,21.79584 73.4692377,21.60576 C73.9382063,21.41504 74.489417,21.32032 75.1222422,21.32032 C75.647713,21.32032 76.1097758,21.37344 76.5078027,21.48032 C76.9064574,21.58656 77.2398206,21.76064 77.5085202,22.00256 C77.7765919,22.24448 77.9787444,22.55808 78.1143498,22.944 C78.2499552,23.32928 78.3177578,23.8016 78.3177578,24.36032 L76.0815247,24.36032 Z" id="Fill-5" fill="#3A6E8F"></path>
            <path d="M84.2178475,23.27424 C84.1638565,23.06304 84.0803587,22.8736 83.9679821,22.70592 C83.8543498,22.53824 83.710583,22.4032 83.535426,22.30208 C83.3602691,22.20096 83.1512108,22.1504 82.9082511,22.1504 C82.6652915,22.1504 82.4543498,22.20224 82.2760538,22.30656 C82.0983857,22.41088 81.9483408,22.5472 81.8271749,22.71424 C81.7053812,22.88256 81.6093274,23.072 81.5390135,23.2832 C81.4680717,23.4944 81.4216143,23.71008 81.3990135,23.93024 L84.2982063,23.93024 C84.2982063,23.70432 84.2712108,23.48544 84.2178475,23.27424 Z M81.3990135,24.81024 C81.3990135,25.12064 81.4285202,25.44 81.4881614,25.76832 C81.5471749,26.09664 81.6350673,26.41728 81.750583,26.73088 C81.8667265,27.04448 82.0117489,27.3408 82.1875336,27.61984 C82.3626906,27.89888 82.5673543,28.144 82.8021525,28.35392 C83.0363229,28.56384 83.2993722,28.73088 83.5906726,28.8544 C83.8813453,28.97792 84.2021525,29.04 84.5524664,29.04 C84.8356054,29.04 85.1093274,29.00416 85.3748879,28.93248 C85.6404484,28.8608 85.9066368,28.77312 86.1715695,28.67008 L86.1715695,29.552 C85.9229596,29.66144 85.6956951,29.7536 85.4897758,29.82912 C85.2832287,29.904 85.0766816,29.96416 84.8707623,30.01024 C84.6642152,30.05632 84.4507623,30.0896 84.2304036,30.11008 C84.0100448,30.12992 83.764574,30.14016 83.4927354,30.14016 C82.7695067,30.14016 82.144843,30.01856 81.6193722,29.77728 C81.0945291,29.53472 80.6594619,29.19872 80.315426,28.76928 C79.9713901,28.33984 79.7158744,27.83296 79.5495067,27.24736 C79.383139,26.6624 79.2996413,26.02688 79.2996413,25.3408 C79.2996413,24.71232 79.3699552,24.14912 79.5112108,23.65056 C79.6524664,23.152 79.8721973,22.7296 80.1716592,22.384 C80.4704933,22.03776 80.8515695,21.77408 81.3148879,21.59232 C81.7775785,21.41056 82.3313004,21.32032 82.9760538,21.32032 C83.484574,21.32032 83.9453812,21.38368 84.3578475,21.5104 C84.7703139,21.63776 85.1225112,21.83104 85.4131839,22.09088 C85.7038565,22.35072 85.9292377,22.67968 86.0874439,23.0784 C86.2456502,23.47648 86.3247534,23.94688 86.3247534,24.4896 L86.3247534,24.81024 L81.3990135,24.81024 Z" id="Fill-6" fill="#3A6E8F"></path>
            <path d="M91.0853812,23.64672 C90.7319283,23.73056 90.4374888,23.87456 90.2033184,24.07936 C89.9685202,24.28416 89.7921076,24.5568 89.6734529,24.89728 C89.5547982,25.23712 89.495157,25.6608 89.495157,26.16832 L89.495157,29.93984 L87.3964126,29.93984 L87.3964126,21.5104 L89.495157,21.5104 L89.495157,23.61984 L89.5290583,23.61984 C89.6872646,23.31456 89.8530045,23.02784 90.0250224,22.75968 C90.1976682,22.49216 90.392287,22.25408 90.6101345,22.04608 C90.8273543,21.83872 91.0765919,21.67168 91.3559641,21.54496 C91.6359641,21.41824 91.9592825,21.34336 92.3271749,21.32032 L92.3271749,23.53024 C91.8519283,23.52448 91.4382063,23.56352 91.0853812,23.64672" id="Fill-7" fill="#3A6E8F"></path>
            <path d="M103.526547,23.6576 C103.526547,23.26592 103.520269,22.88128 103.509596,22.50432 C103.497668,22.12672 103.463767,21.77152 103.407892,21.4368 C103.35139,21.10336 103.262242,20.79488 103.141076,20.51264 C103.019283,20.2304 102.84852,19.9872 102.628161,19.7824 C102.40843,19.57824 102.12843,19.41824 101.790045,19.30304 C101.451031,19.18784 101.039193,19.13024 100.553901,19.13024 L99.6222422,19.13024 L99.6222422,28.4704 L100.554529,28.4704 C101.02287,28.4704 101.424036,28.41536 101.757399,28.30592 C102.090762,28.19648 102.370135,28.03072 102.596771,27.80928 C102.822152,27.58784 103.000448,27.30816 103.130404,26.97088 C103.260359,26.63424 103.356413,26.23808 103.418565,25.78304 C103.462511,25.42592 103.49139,25.07136 103.505202,24.72 C103.519013,24.36864 103.526547,24.01472 103.526547,23.6576 M105.919731,23.6576 C105.919731,24.05568 105.904036,24.46016 105.872646,24.87168 C105.841883,25.28384 105.786637,25.68576 105.707534,26.07744 C105.62843,26.46976 105.518565,26.84672 105.376682,27.2096 C105.236054,27.57248 105.053363,27.90848 104.829865,28.21632 C104.606996,28.52416 104.338296,28.79936 104.024395,29.04128 C103.710493,29.2832 103.341973,29.47648 102.917578,29.62048 C102.544664,29.75296 102.155426,29.83936 101.751749,29.87968 C101.347444,29.92 100.947534,29.93984 100.552018,29.93984 L97.3464574,29.93984 L97.3464574,17.72992 L100.552018,17.72992 C101.547085,17.72992 102.386457,17.85792 103.070135,18.11456 C103.754439,18.3712 104.306906,18.74816 104.728161,19.24672 C105.149417,19.74528 105.453274,20.36288 105.639731,21.10016 C105.826188,21.83744 105.919731,22.68992 105.919731,23.6576" id="Fill-8" fill="#3A6E8F"></path>
            <path d="M112.043318,24.64384 C112.038296,24.41856 112.019462,24.192 111.9887,23.96416 C111.957937,23.73632 111.910852,23.51232 111.849327,23.29344 C111.787175,23.07392 111.698655,22.88064 111.582511,22.71296 C111.466996,22.54592 111.323229,22.41024 111.151839,22.30592 C110.979193,22.20224 110.769507,22.1504 110.521525,22.1504 C110.278565,22.1504 110.073274,22.20096 109.903767,22.30144 C109.734888,22.40256 109.592377,22.53824 109.476861,22.70848 C109.360717,22.87872 109.270314,23.072 109.20565,23.28896 C109.140987,23.50528 109.09139,23.72736 109.058117,23.9552 C109.024215,24.18304 109.00287,24.40832 108.994709,24.6304 C108.985919,24.85248 108.981525,25.05344 108.981525,25.232 L108.981525,26.22784 C108.981525,26.40704 108.985919,26.60736 108.994709,26.82944 C109.00287,27.05216 109.02296,27.2768 109.053722,27.50528 C109.085112,27.73312 109.132825,27.9552 109.197489,28.17152 C109.262152,28.38848 109.352556,28.58112 109.468072,28.75136 C109.583587,28.92224 109.726099,29.05728 109.895605,29.15904 C110.064484,29.25952 110.272915,29.31008 110.521525,29.31008 C110.769507,29.31008 110.979193,29.25824 111.151839,29.15456 C111.323229,29.05024 111.466996,28.91456 111.582511,28.74752 C111.698655,28.57984 111.787175,28.38656 111.849327,28.16704 C111.910852,27.94816 111.957937,27.72416 111.9887,27.49632 C112.019462,27.26848 112.038296,27.04192 112.043318,26.81664 C112.048969,26.59136 112.052108,26.38976 112.052108,26.21056 L112.052108,25.24928 C112.052108,25.07072 112.048969,24.86912 112.043318,24.64384 M114.327892,25.72992 C114.327892,26.39296 114.261345,26.9952 114.128879,27.53728 C113.995785,28.07936 113.779821,28.54336 113.480359,28.92928 C113.180269,29.31584 112.787892,29.61408 112.301973,29.82464 C111.815426,30.03456 111.222152,30.14016 110.521525,30.14016 C109.820269,30.14016 109.226996,30.03456 108.741076,29.82464 C108.254529,29.61408 107.861525,29.31584 107.562063,28.92928 C107.262601,28.54336 107.045381,28.07936 106.909776,27.53728 C106.773543,26.9952 106.70574,26.39296 106.70574,25.72992 C106.70574,25.06752 106.773543,24.46336 106.909776,23.91872 C107.045381,23.37408 107.262601,22.91008 107.562063,22.52608 C107.861525,22.14336 108.254529,21.8464 108.741076,21.63584 C109.226996,21.42528 109.820269,21.32032 110.521525,21.32032 C111.222152,21.32032 111.815426,21.42528 112.301973,21.63584 C112.787892,21.8464 113.180269,22.14336 113.480359,22.52608 C113.779821,22.91008 113.995785,23.37408 114.128879,23.91872 C114.261345,24.46336 114.327892,25.06752 114.327892,25.72992" id="Fill-9" fill="#3A6E8F"></path>
            <polygon id="Fill-10" fill="#3A6E8F" points="123.648879 29.93984 121.843318 29.93984 120.164574 24.80448 120.130673 24.80448 118.613274 29.93984 116.824664 29.93984 114.730314 21.5104 116.654529 21.5104 117.99426 27.53024 118.028161 27.52768 119.656054 21.5104 120.749686 21.5104 122.538296 27.40992 122.572197 27.40672 123.759372 21.5104 125.488341 21.5104"></polygon>
            <path d="M131.210762,29.93984 L131.210762,24.68416 C131.210762,24.51712 131.207623,24.32832 131.201973,24.11776 C131.196323,23.90784 131.164933,23.7088 131.10843,23.52128 C131.051928,23.3344 130.96278,23.17696 130.840987,23.05024 C130.718565,22.92352 130.539013,22.86016 130.301076,22.86016 C130.040538,22.86016 129.815157,22.92608 129.625561,23.05856 C129.435964,23.19104 129.272735,23.36576 129.136502,23.58208 C129.000269,23.7984 128.889776,24.0416 128.805022,24.31232 C128.720269,24.58304 128.653094,24.85824 128.605381,25.13792 C128.55704,25.4176 128.523139,25.68832 128.503677,25.95072 C128.483587,26.21248 128.473543,26.43904 128.473543,26.62912 L128.473543,29.93984 L126.374798,29.93984 L126.374798,21.5104 L128.473543,21.5104 L128.473543,23.40416 L128.503049,23.40416 C128.644933,23.10976 128.801256,22.83456 128.972018,22.57792 C129.142152,22.32192 129.336771,22.10112 129.555247,21.9168 C129.77435,21.73248 130.019821,21.58656 130.292915,21.48032 C130.565381,21.37344 130.878027,21.32032 131.230224,21.32032 C131.660269,21.32032 132.011211,21.39648 132.283049,21.54944 C132.55426,21.70176 132.766457,21.90848 132.919013,22.16768 C133.072197,22.42688 133.175785,22.7264 133.229148,23.06688 C133.282511,23.40672 133.309507,23.76128 133.309507,24.12992 L133.309507,29.93984 L131.210762,29.93984 Z" id="Fill-11" fill="#3A6E8F"></path>
            <path d="M139.685471,27.60704 C139.685471,28.08 139.595067,28.47744 139.41426,28.8 C139.233453,29.1232 138.994888,29.38368 138.698565,29.58272 C138.402242,29.78112 138.063229,29.92384 137.681525,30.01024 C137.300448,30.09728 136.909327,30.14016 136.508161,30.14016 C136.140897,30.14016 135.776771,30.11008 135.415157,30.04928 C135.05417,29.98912 134.695067,29.90656 134.339731,29.80288 L134.339103,27.88352 C134.491659,28.02112 134.652377,28.15168 134.822511,28.27584 C134.99139,28.39936 135.169686,28.5088 135.356143,28.60416 C135.542601,28.69888 135.735336,28.77376 135.933094,28.82816 C136.130852,28.8832 136.33426,28.91008 136.543318,28.91008 C136.673274,28.91008 136.810762,28.89728 136.954529,28.87104 C137.098924,28.8448 137.23139,28.79936 137.353184,28.7328 C137.47435,28.66688 137.574798,28.57984 137.653901,28.4736 C137.733004,28.36672 137.772556,28.2304 137.772556,28.06272 C137.772556,27.92448 137.727982,27.78624 137.636951,27.648 C137.546547,27.50976 137.429148,27.3728 137.284753,27.23776 C137.140987,27.10208 136.978386,26.97088 136.797578,26.84416 C136.616771,26.71744 136.438475,26.59648 136.263946,26.48128 C136.088161,26.36544 135.924305,26.25728 135.771749,26.1568 C135.619193,26.05632 135.49426,25.9648 135.398834,25.88416 C135.218027,25.74016 135.057937,25.59616 134.919193,25.45216 C134.781076,25.30816 134.663677,25.15584 134.567623,24.99392 C134.47157,24.83264 134.398117,24.656 134.347265,24.46272 C134.296413,24.26944 134.270673,24.05184 134.270673,23.80992 C134.270673,23.37216 134.352915,22.99584 134.516143,22.6816 C134.680628,22.36736 134.897848,22.11008 135.169058,21.90848 C135.440269,21.70624 135.75417,21.55776 136.109507,21.4624 C136.465471,21.36768 136.835874,21.32032 137.22009,21.32032 C137.553453,21.32032 137.878655,21.35168 138.195067,21.41504 C138.51148,21.47904 138.827892,21.55072 139.143677,21.63136 L139.143677,23.38688 C139.003049,23.26592 138.854888,23.14688 138.699821,23.02912 C138.544753,22.91072 138.383408,22.80704 138.217668,22.71808 C138.050673,22.62912 137.877399,22.5568 137.69722,22.50176 C137.516413,22.44736 137.330583,22.41984 137.138475,22.41984 C137.020448,22.41984 136.900538,22.43456 136.779372,22.46336 C136.657578,22.49216 136.547713,22.53824 136.449148,22.6016 C136.350583,22.66496 136.269596,22.74688 136.208072,22.848 C136.145919,22.94912 136.115157,23.07136 136.115157,23.21536 C136.115157,23.34848 136.159731,23.48224 136.250135,23.61728 C136.340538,23.75296 136.456054,23.88672 136.597309,24.0192 C136.737937,24.15168 136.897399,24.28032 137.075067,24.40384 C137.253363,24.528 137.427892,24.6464 137.59991,24.7584 C137.771928,24.87104 137.933901,24.97728 138.086457,25.0784 C138.239013,25.17952 138.359552,25.2672 138.449955,25.34208 C138.642063,25.4976 138.814081,25.65504 138.966009,25.81312 C139.118565,25.97184 139.247892,26.13888 139.355247,26.31488 C139.462601,26.49088 139.544843,26.68416 139.600717,26.89408 C139.65722,27.10464 139.685471,27.34208 139.685471,27.60704" id="Fill-12" fill="#3A6E8F"></path>
            <path d="M45.2656502,34.0128 C45.3711211,33.9776 45.4514798,33.93408 45.5060987,33.8816 C45.5613453,33.82912 45.5889686,33.7696 45.5889686,33.70432 C45.5889686,33.64096 45.5613453,33.58976 45.5060987,33.55136 C45.4514798,33.51296 45.3773991,33.49376 45.2844843,33.49376 C45.1890583,33.49376 45.1149776,33.50976 45.0634978,33.54176 C45.0113901,33.57376 44.9856502,33.61984 44.9856502,33.68064 C44.9856502,33.73312 45.0088789,33.78752 45.0559641,33.8432 C45.1030493,33.89888 45.1727354,33.9552 45.2656502,34.0128 Z M45.435157,35.60256 L44.6409865,34.86016 C44.5612556,34.90624 44.5016143,34.96192 44.4626906,35.02528 C44.4237668,35.08928 44.4043049,35.16224 44.4043049,35.24352 C44.4043049,35.37856 44.461435,35.49568 44.5756951,35.59296 C44.6899552,35.69024 44.8286996,35.73888 44.9913004,35.73888 C45.0666368,35.73888 45.1407175,35.72736 45.2135426,35.7056 C45.2863677,35.6832 45.3604484,35.64864 45.435157,35.60256 Z M46.335426,36.46144 L46.0610762,36.1856 C45.858296,36.31488 45.635426,36.41088 45.3912108,36.47424 C45.1463677,36.5376 44.8770404,36.56896 44.5826009,36.56896 C44.1343498,36.56896 43.7733632,36.46144 43.4996413,36.2464 C43.2265471,36.03136 43.0896861,35.75168 43.0896861,35.40672 C43.0896861,35.12256 43.1756951,34.8832 43.3483408,34.688 C43.5209865,34.49344 43.7576682,34.36928 44.0583857,34.3168 C43.9610762,34.2496 43.8869955,34.16576 43.8361435,34.06528 C43.7846637,33.9648 43.7589238,33.85216 43.7589238,33.728 C43.7589238,33.44704 43.8807175,33.23136 44.1249327,33.0816 C44.3685202,32.9312 44.7182063,32.85632 45.173991,32.85632 C45.6410762,32.85632 46.0026906,32.93248 46.2588341,33.0848 C46.5149776,33.23712 46.6430493,33.45152 46.6430493,33.728 C46.6430493,33.94176 46.5702242,34.11328 46.4239462,34.24256 C46.2770404,34.37184 46.064843,34.45248 45.7860987,34.48448 L46.3730942,35.01376 C46.4986547,34.93504 46.6223318,34.8384 46.7447534,34.72256 C46.8671749,34.60672 46.9833184,34.47488 47.0950673,34.3264 L47.6826906,34.86016 C47.5935426,34.98816 47.4930942,35.1104 47.3819731,35.22624 C47.2702242,35.34272 47.1446637,35.45792 47.0027803,35.5712 L47.9702242,36.46144 L46.335426,36.46144 Z" id="Fill-13" fill="#3A6E8F"></path>
            <path d="M53.4879821,34.4064 C53.4653812,34.18752 53.3900448,34.02112 53.2600897,33.90592 C53.1301345,33.79136 52.9524664,33.73376 52.7270852,33.73376 C52.4389238,33.73376 52.218565,33.81632 52.066009,33.98016 C51.9134529,34.14464 51.8374888,34.38144 51.8374888,34.6912 C51.8374888,34.99904 51.9134529,35.23456 52.0666368,35.39712 C52.2191928,35.56032 52.4401794,35.6416 52.7283408,35.6416 C52.9367713,35.6416 53.1050224,35.59296 53.2324664,35.49632 C53.3599103,35.39968 53.4446637,35.25632 53.4854709,35.06624 L55.0373991,35.06624 C54.9670852,35.55648 54.7366816,35.92704 54.3455605,36.17792 C53.9550673,36.4288 53.4157848,36.5536 52.7283408,36.5536 C51.9561435,36.5536 51.3729148,36.3968 50.9799103,36.08384 C50.5869058,35.7696 50.3904036,35.3056 50.3904036,34.6912 C50.3904036,34.07488 50.5869058,33.61024 50.9799103,33.29664 C51.3729148,32.98304 51.9555157,32.82624 52.727713,32.82624 C53.4484305,32.82624 54.0059193,32.96256 54.4008072,33.23456 C54.7950673,33.50656 55.0041256,33.8976 55.0279821,34.4064 L53.4879821,34.4064 Z" id="Fill-14" fill="#3A6E8F"></path>
            <path d="M56.8793722,34.6912 C56.8793722,34.99904 56.9559641,35.23456 57.109148,35.39712 C57.261704,35.56032 57.4826906,35.6416 57.770852,35.6416 C58.0596413,35.6416 58.28,35.56032 58.4331839,35.39712 C58.5863677,35.23456 58.6623318,34.99904 58.6623318,34.6912 C58.6623318,34.38144 58.5863677,34.14464 58.4331839,33.98016 C58.28,33.81632 58.0596413,33.73376 57.770852,33.73376 C57.4826906,33.73376 57.261704,33.81632 57.109148,33.98016 C56.9559641,34.14464 56.8793722,34.38144 56.8793722,34.6912 M55.4329148,34.6912 C55.4329148,34.07488 55.629417,33.61024 56.0224215,33.29664 C56.4160538,32.98304 56.9986547,32.82624 57.770852,32.82624 C58.5436771,32.82624 59.126278,32.98304 59.5199103,33.29664 C59.9129148,33.61024 60.109417,34.07488 60.109417,34.6912 C60.109417,35.3056 59.9129148,35.7696 59.5199103,36.08384 C59.126278,36.3968 58.5436771,36.5536 57.770852,36.5536 C56.9986547,36.5536 56.4160538,36.3968 56.0224215,36.08384 C55.629417,35.7696 55.4329148,35.3056 55.4329148,34.6912" id="Fill-15" fill="#3A6E8F"></path>
            <polygon id="Fill-16" fill="#3A6E8F" points="60.7391031 36.46144 60.7391031 32.91904 62.7367713 32.91904 63.3243946 35.07712 63.9584753 32.91904 65.9285202 32.91904 65.9285202 36.46144 64.6798206 36.46144 64.6798206 33.69472 63.8530045 36.46144 62.8026906 36.46144 61.9846637 33.69472 61.9846637 36.46144"></polygon>
            <path d="M68.866009,33.68128 L68.1283408,33.68128 L68.1283408,34.44416 L68.866009,34.44416 C69.0844843,34.44416 69.2364126,34.416 69.3199103,34.35904 C69.4034081,34.30272 69.4454709,34.20416 69.4454709,34.064 C69.4454709,33.92192 69.4034081,33.82272 69.3199103,33.7664 C69.2364126,33.71008 69.0844843,33.68128 68.866009,33.68128 Z M66.7823318,36.46144 L66.7823318,32.91904 L69.3801794,32.91904 C69.8717489,32.91904 70.2515695,33.01888 70.5190135,33.2192 C70.7858296,33.42016 70.9195516,33.70304 70.9195516,34.06912 C70.9195516,34.43264 70.7858296,34.71488 70.5190135,34.91584 C70.2515695,35.11616 69.8717489,35.21664 69.3801794,35.21664 L68.1283408,35.21664 L68.1283408,36.46144 L66.7823318,36.46144 Z" id="Fill-17" fill="#3A6E8F"></path>
            <path d="M72.7684305,35.23904 L73.6304036,35.23904 L73.212287,33.9936 L72.7684305,35.23904 Z M70.8825112,36.46144 L72.3898655,32.91904 L74.0981166,32.91904 L75.5025112,36.46144 L74.0434978,36.46144 L73.9286099,36.11392 L72.4507623,36.11392 L72.3264574,36.46144 L70.8825112,36.46144 Z" id="Fill-18" fill="#3A6E8F"></path>
            <polygon id="Fill-19" fill="#3A6E8F" points="75.8383857 36.46144 75.8383857 32.91904 77.4304933 32.91904 78.7714798 34.95936 78.7714798 32.91904 80.0760538 32.91904 80.0760538 36.46144 78.5649327 36.46144 77.1059193 34.3872 77.1059193 36.46144"></polygon>
            <polygon id="Fill-20" fill="#3A6E8F" points="82.0184753 36.46144 82.0184753 35.45984 80.4929148 32.91904 82.0774888 32.91904 82.7021525 34.3776 83.3669955 32.91904 84.9145291 32.91904 83.3669955 35.45984 83.3669955 36.46144"></polygon>
        </g>
    </g>
</svg>