<?xml version="1.0" encoding="UTF-8"?>
<svg width="160px" height="90px" viewBox="0 0 160 90" version="1.1" xmlns="http://www.w3.org/2000/svg" xmlns:xlink="http://www.w3.org/1999/xlink">
    <!-- Generator: Sketch 49.3 (51167) - http://www.bohemiancoding.com/sketch -->
    <title>Miss Red Pen logo designed by Isral Duke</title>
    <desc>Created with Sketch.</desc>
    <defs></defs>
    <g id="Miss-Red-Pen-logo-designed-by-Isral-Duke" stroke="none" stroke-width="1" fill="none" fill-rule="evenodd">
        <g id="Page-1" transform="translate(8.000000, 28.000000)">
            <path d="M22.332825,9.76925954 L19.297575,15.3777481 C19.179825,15.5948931 18.851075,15.4926183 18.875575,15.2462519 L19.484575,9.16417557 C19.512075,8.88808397 19.666075,8.64398473 19.896075,8.49132824 C20.157575,8.31776336 20.342575,8.02983206 20.376325,7.69227481 C20.437325,7.08240458 19.988575,6.5400458 19.380575,6.49470229 C18.817575,6.45414504 18.303575,6.87709924 18.229575,7.44112214 C18.184075,7.79379389 18.311575,8.12732061 18.543825,8.35756489 C18.738325,8.55103053 18.835825,8.82183206 18.808325,9.09540458 L18.199575,15.1787405 C18.174825,15.4251069 17.832575,15.4593664 17.760075,15.2228244 L15.896825,9.13419847 C15.775325,8.73920611 15.764575,8.31851908 15.862575,7.91798473 L17.733075,0.344358779 C17.787075,0.125198473 17.992575,-0.0204045802 18.215325,0.00226717557 L21.867575,0.373580153 C22.090325,0.396 22.262825,0.580145038 22.272575,0.805351145 L22.606075,8.58428244 C22.624075,8.99665649 22.528825,9.40651145 22.332825,9.76925954" id="Fill-1" fill="#A32430"></path>
            <path d="M65.63725,25.4954221 C65.37975,25.6861168 65.10125,25.8158496 64.802,25.8848725 C64.503,25.9533916 64.20175,25.9876511 63.899,25.9876511 C62.86125,25.9876511 61.93925,25.8332313 61.1325,25.5241397 C60.326,25.2150481 59.6175,24.7893229 59.00775,24.2477198 C58.39825,23.7058649 57.87925,23.0685366 57.4515,22.335987 C57.0235,21.6031855 56.6675,20.8132008 56.3835,19.9662847 C56.0995,19.1191168 55.88175,18.2339107 55.73025,17.3104145 C55.57875,16.3869183 55.47625,15.4654374 55.42375,14.5454679 C55.3705,13.6260023 55.35725,12.7254298 55.38375,11.8440023 C55.41025,10.9625748 55.46125,10.1441244 55.53725,9.38839924 C55.40075,9.59446031 55.23425,9.92269695 55.03725,10.3728573 C54.84,10.8232695 54.6225,11.3500099 54.384,11.9525748 C54.14525,12.5556435 53.89725,13.2138802 53.64,13.9272847 C53.382,14.6411931 53.1265,15.3603916 52.87275,16.085384 C52.61925,16.8103763 52.373,17.5222695 52.1345,18.2203076 C51.89575,18.9188496 51.6835,19.5541626 51.49825,20.1262466 C51.3125,20.6988344 51.15325,21.1855214 51.021,21.5863076 C50.88825,21.9865901 50.80325,22.2558802 50.76525,22.3931702 C50.735,22.4848649 50.69525,22.5992313 50.646,22.7365214 C50.59675,22.8740634 50.53625,23.0073229 50.46425,23.1373076 C50.39225,23.2667885 50.30875,23.3776282 50.21425,23.4693229 C50.1195,23.5607656 50.01175,23.606613 49.8905,23.606613 C49.75425,23.606613 49.6405,23.5511931 49.54975,23.4406053 C49.45875,23.3297656 49.385,23.1982695 49.32825,23.045613 C49.27125,22.8929565 49.22575,22.7405519 49.19175,22.5876435 C49.15775,22.434987 49.133,22.3130634 49.118,22.2213687 C49.0725,21.9006893 49.03075,21.4963763 48.993,21.007926 C48.955,20.5194756 48.923,19.9776206 48.8965,19.3823611 C48.86975,18.7871015 48.849,18.1517885 48.834,17.4761702 C48.81875,16.8008038 48.8055,16.1216588 48.794,15.4384832 C48.78275,14.7555595 48.77525,14.0839718 48.7715,13.4237198 C48.7675,12.7637198 48.76375,12.1455366 48.76,11.5691702 C48.75625,10.9930557 48.7545,10.4758878 48.7545,10.0181702 L48.7545,8.91884198 C48.58775,9.30073511 48.38875,9.78540687 48.15775,10.3728573 C47.92675,10.9608115 47.677,11.6208115 47.408,12.3533611 C47.13925,13.0859107 46.85875,13.8741321 46.5675,14.7172695 C46.27575,15.5606588 45.988,16.4287351 45.704,17.3217504 C45.41975,18.2147656 45.14725,19.1153382 44.886,20.0234679 C44.62475,20.9315977 44.39175,21.8130252 44.18725,22.6677504 C44.1645,22.7440786 44.136,22.8375366 44.102,22.9483763 C44.068,23.0589641 44.02425,23.163758 43.97125,23.2632618 C43.91825,23.3622618 43.852,23.4481626 43.7725,23.5207122 C43.693,23.5932618 43.5965,23.6295366 43.48275,23.6295366 C43.3765,23.6295366 43.282,23.5952771 43.19875,23.5265061 C43.1155,23.4577351 43.0455,23.375613 42.9885,23.2803916 C42.93175,23.1849183 42.8865,23.0818878 42.85225,22.9710481 C42.81825,22.8604603 42.79725,22.759445 42.78975,22.6677504 C42.75175,22.4770557 42.71975,22.267216 42.69325,22.0382313 C42.6665,21.8092466 42.64375,21.5747198 42.625,21.3343992 C42.606,21.0938267 42.589,20.8572847 42.574,20.6245214 C42.5585,20.3915061 42.5435,20.1761244 42.5285,19.9776206 C42.445,18.9319489 42.3865,17.8981168 42.35225,16.8751168 C42.31825,15.8526206 42.30125,14.8223153 42.30125,13.7844527 C42.30125,12.7617046 42.31825,11.7465137 42.35225,10.7391321 C42.3865,9.73175038 42.4375,8.71303282 42.50575,7.68247557 C42.5285,7.38494656 42.5625,7.05116794 42.608,6.6808626 C42.6535,6.31080916 42.74225,5.96166412 42.875,5.63342748 C43.0075,5.30544275 43.2005,5.03061069 43.45425,4.80918321 C43.708,4.58800763 44.0545,4.47741985 44.494,4.47741985 C44.6,4.47741985 44.69075,4.50210687 44.76675,4.55148092 C44.84225,4.60135878 44.88025,4.68700763 44.88025,4.80918321 L44.88025,4.92354962 C44.812,5.38151908 44.744,5.83772519 44.67575,6.29166412 C44.6075,6.74585496 44.5355,7.20936641 44.45975,7.68247557 C44.27825,9.20929237 44.12475,10.7333382 43.99975,12.2558725 C43.87475,13.7786588 43.81225,15.3107656 43.81225,16.852445 C43.81225,17.4552618 43.82375,18.0505214 43.84625,18.6382237 C43.869,19.225926 43.91075,19.8174069 43.97125,20.4126664 C44.494,18.7795443 44.95425,17.3333382 45.35175,16.0740481 C45.7495,14.814758 46.09975,13.7119031 46.4025,12.7654832 C46.7055,11.8193153 46.961,11.0122008 47.1695,10.3441397 C47.37775,9.67658244 47.554,9.1173458 47.69775,8.66693359 C47.8415,8.21677328 47.95525,7.85629237 48.0385,7.58521374 C48.122,7.31441221 48.19,7.10432061 48.24325,6.95544275 C48.296,6.80681679 48.334,6.69799237 48.35675,6.62922137 C48.3795,6.56070229 48.40225,6.49974046 48.425,6.44633588 C48.5385,6.18687023 48.69375,5.95410687 48.89075,5.74779389 C49.0875,5.54173282 49.34125,5.4389542 49.652,5.4389542 C49.864,5.4389542 50.03625,5.49235878 50.16875,5.59916794 C50.30125,5.7059771 50.4055,5.83948855 50.48125,5.99970229 C50.557,6.15991603 50.608,6.33549618 50.63475,6.52619084 C50.66125,6.7171374 50.6745,6.89271756 50.6745,7.0529313 C50.65925,8.23591832 50.625,9.40552901 50.57225,10.5617885 C50.519,11.7180481 50.47375,12.8647351 50.43575,14.0018496 C50.398,15.139216 50.38075,16.2685214 50.38475,17.3902695 C50.3885,18.5122695 50.43975,19.6304908 50.538,20.7446817 C50.841,19.8441092 51.12125,18.994926 51.37875,18.197384 C51.63625,17.4000939 51.8805,16.6388267 52.11175,15.9135824 C52.3425,15.1885901 52.56625,14.4905519 52.782,13.8187122 C52.99775,13.1473763 53.22125,12.4833458 53.4525,11.8266206 C53.6835,11.1703992 53.92375,10.5141779 54.17375,9.85770458 C54.42375,9.2012313 54.70025,8.52611679 55.00325,7.83135344 C55.07125,7.69406336 55.147,7.55473282 55.23025,7.41366412 C55.3135,7.27234351 55.40825,7.14437405 55.5145,7.03000763 C55.6205,6.91564122 55.74175,6.82016794 55.878,6.74383969 C56.01425,6.66776336 56.16575,6.62922137 56.33225,6.62922137 C56.56725,6.62922137 56.75275,6.70580153 56.88925,6.85845802 C57.0255,7.0111145 57.1295,7.19425191 57.2015,7.40787023 C57.2735,7.62174046 57.32075,7.84495649 57.3435,8.07771985 C57.36625,8.31048321 57.37775,8.50697176 57.37775,8.66693359 C57.37775,9.3692542 57.355,10.1458878 57.3095,10.9965824 C57.264,11.8477809 57.23175,12.7312237 57.213,13.6469107 C57.194,14.5628496 57.2035,15.4901244 57.24125,16.4287351 C57.279,17.3673458 57.3815,18.2759794 57.548,19.1533763 C57.71475,20.0312771 57.96075,20.8514908 58.2865,21.6147733 C58.612,22.3778038 59.0515,23.0438496 59.6045,23.612155 C60.15725,24.1807122 60.84075,24.6291092 61.655,24.9573458 C62.46925,25.2855824 63.44825,25.4495748 64.592,25.4495748 C64.76625,25.4495748 64.9345,25.4364756 65.0975,25.4095214 C65.26025,25.3828191 65.4175,25.3352084 65.56925,25.2666893 L65.63725,25.4954221 Z" id="Fill-2" fill="#A32430"></path>
            <path d="M65.4335,18.5465542 C65.25925,18.8367527 65.053,19.1017603 64.81425,19.3423328 C64.5755,19.5826534 64.31425,19.792745 64.0305,19.9718519 C63.74625,20.1512107 63.44325,20.290516 63.1215,20.3897679 C62.7995,20.4887679 62.46825,20.5386458 62.12725,20.5386458 C61.703,20.5386458 61.32625,20.4658443 60.997,20.3209969 C60.6675,20.1761496 60.391,19.9758824 60.16775,19.7199435 C59.944,19.4642565 59.7735,19.162974 59.6565,18.8155924 C59.53875,18.4684626 59.48025,18.0888366 59.48025,17.6767145 C59.48025,17.2341115 59.5445,16.8141802 59.6735,16.4174244 C59.80225,16.0206687 59.98025,15.6486 60.2075,15.3012183 C60.4345,14.9538366 60.7015,14.6354244 61.00825,14.345226 C61.315,14.0552794 61.6425,13.7958137 61.991,13.566829 L62.12725,13.6698595 C61.75625,14.1124626 61.45525,14.6084702 61.22425,15.1581344 C60.993,15.7075466 60.8775,16.2798824 60.8775,16.875142 C60.8775,17.218745 60.9175,17.5489969 60.997,17.8656458 C61.0765,18.1822947 61.2015,18.4626687 61.372,18.7070198 C61.5425,18.9511191 61.76,19.1458443 62.025,19.2906916 C62.29025,19.4357908 62.612,19.5080885 62.991,19.5080885 C63.43775,19.5080885 63.86375,19.4128672 64.269,19.2221725 C64.674,19.0314779 65.0395,18.7911573 65.3655,18.5007069 L65.4335,18.5465542 Z" id="Fill-3" fill="#A32430"></path>
            <path d="M62.25225,10.9452435 C62.25225,11.0981519 62.218,11.2505565 62.15,11.4029611 C62.08175,11.5558695 61.99275,11.6913962 61.883,11.8095412 C61.77325,11.9279382 61.64625,12.0251748 61.5025,12.1015031 C61.3585,12.1780832 61.21075,12.2158695 61.05925,12.2158695 C60.86225,12.2158695 60.70525,12.151129 60.588,12.0213962 C60.47025,11.8916634 60.41175,11.7274191 60.41175,11.5289153 C60.41175,11.3765107 60.44575,11.2256176 60.514,11.0767397 C60.582,10.9281137 60.67125,10.7963656 60.781,10.6819992 C60.89075,10.5673809 61.01575,10.4741748 61.15575,10.4016252 C61.296,10.3290756 61.44175,10.2928008 61.59325,10.2928008 C61.79,10.2928008 61.94925,10.3537626 62.07025,10.4759382 C62.1915,10.5981137 62.25225,10.7545489 62.25225,10.9452435" id="Fill-4" fill="#A32430"></path>
            <path d="M80.017,28.3897992 C80.017,28.5424557 79.98275,28.6951122 79.91475,28.8475168 C79.8465,29.0004252 79.7575,29.1359519 79.64775,29.2540969 C79.538,29.3724939 79.411,29.4697305 79.26725,29.5460588 C79.12325,29.622387 78.9755,29.6604252 78.82425,29.6604252 C78.627,29.6604252 78.47,29.5956847 78.35275,29.4657 C78.235,29.3362191 78.1765,29.1719748 78.1765,28.973471 C78.1765,28.8210664 78.21075,28.6701733 78.27875,28.5212954 C78.34675,28.3726695 78.436,28.2409214 78.54575,28.126555 C78.6555,28.0119366 78.7805,27.9187305 78.9205,27.8461809 C79.06075,27.7736313 79.2065,27.7373565 79.358,27.7373565 C79.55475,27.7373565 79.714,27.7983183 79.835,27.9204939 C79.95625,28.0426695 80.017,28.1991046 80.017,28.3897992" id="Fill-5" fill="#6D6E70"></path>
            <path d="M115.6115,28.3897992 C115.6115,28.5424557 115.57725,28.6951122 115.50925,28.8475168 C115.441,29.0004252 115.352,29.1359519 115.24225,29.2540969 C115.1325,29.3724939 115.0055,29.4697305 114.86175,29.5460588 C114.71775,29.622387 114.57,29.6604252 114.41875,29.6604252 C114.22175,29.6604252 114.0645,29.5956847 113.94725,29.4657 C113.8295,29.3362191 113.771,29.1719748 113.771,28.973471 C113.771,28.8210664 113.80525,28.6701733 113.87325,28.5212954 C113.94125,28.3726695 114.0305,28.2409214 114.14025,28.126555 C114.25,28.0119366 114.375,27.9187305 114.515,27.8461809 C114.65525,27.7736313 114.801,27.7373565 114.9525,27.7373565 C115.14925,27.7373565 115.3085,27.7983183 115.42975,27.9204939 C115.55075,28.0426695 115.6115,28.1991046 115.6115,28.3897992" id="Fill-6" fill="#6D6E70"></path>
            <path d="M71.22775,17.7224359 C71.22775,18.1191916 71.1555,18.4932756 71.01175,18.844184 C70.868,19.1955962 70.667,19.5006573 70.40975,19.7601229 C70.152,20.0195885 69.851,20.2253977 69.50625,20.3783061 C69.1615,20.5307107 68.78875,20.6072908 68.3875,20.6072908 C68.122,20.6072908 67.86075,20.5652221 67.6035,20.4813366 C67.346,20.3971992 67.109,20.2772908 66.89325,20.1206038 C66.6775,19.9644206 66.49,19.7754893 66.331,19.5540618 C66.17175,19.3326344 66.05825,19.088787 65.99025,18.8212603 L66.2515,18.7527412 C66.44825,18.9968405 66.6775,19.1991229 66.93875,19.3593366 C67.20025,19.5198023 67.49725,19.5999092 67.8305,19.5999092 C68.11075,19.5999092 68.37025,19.5389473 68.60875,19.4167718 C68.8475,19.2945962 69.052,19.1343824 69.2225,18.9358786 C69.39275,18.7373748 69.52525,18.5066267 69.62,18.2431305 C69.7145,17.9798863 69.762,17.7108481 69.762,17.4362679 C69.762,17.1080313 69.7165,16.8349626 69.62575,16.6175656 C69.535,16.4001687 69.4155,16.2170313 69.26775,16.0684053 C69.12,15.9195275 68.95525,15.7895427 68.77375,15.678955 C68.59175,15.5683672 68.40825,15.4557641 68.2225,15.3413977 C68.03675,15.2267794 67.859,15.0970466 67.68875,14.9519473 C67.51825,14.8071 67.37225,14.6199321 67.25125,14.3909473 C67.24375,14.8413595 67.16775,15.3144435 67.024,15.8107031 C66.88,16.3069626 66.685,16.7876038 66.439,17.2531305 C66.1925,17.7186573 65.9105,18.1537031 65.5925,18.558016 C65.27425,18.9628328 64.93725,19.3021534 64.58125,19.5769855 L64.4905,19.4167718 C64.733,19.1573061 64.945,18.8328481 65.12675,18.4436496 C65.3085,18.0541992 65.458,17.6440924 65.5755,17.2128252 C65.69275,16.7820618 65.78,16.3487794 65.83675,15.9134817 C65.8935,15.4786878 65.922,15.0816802 65.922,14.7232145 C65.922,14.5325198 65.903,14.3453519 65.86525,14.1619626 C65.827,13.9790771 65.80825,13.7997183 65.80825,13.6238863 C65.80825,13.4105198 65.87075,13.2462756 65.99575,13.1316573 C66.12075,13.0172908 66.28175,12.9601076 66.47875,12.9601076 C66.63,12.9601076 66.7515,12.9943672 66.84225,13.0631382 C66.933,13.1316573 67.01625,13.2215885 67.09225,13.3321763 C67.16775,13.443016 67.24375,13.5689702 67.31925,13.709787 C67.395,13.8513595 67.49175,13.9962069 67.609,14.1450847 C67.7265,14.2939626 67.87425,14.4388099 68.05225,14.5798786 C68.23,14.7211992 68.45925,14.8451382 68.7395,14.9519473 C69.06525,15.0741229 69.37775,15.2134282 69.67675,15.3698634 C69.976,15.5262985 70.241,15.7114511 70.47225,15.9250695 C70.703,16.1389397 70.88675,16.3928634 71.02325,16.6863366 C71.1595,16.9803137 71.22775,17.3256802 71.22775,17.7224359" id="Fill-7" fill="#A32430"></path>
            <path d="M77.09725,17.7224359 C77.09725,18.1191916 77.025,18.4932756 76.88125,18.844184 C76.7375,19.1955962 76.5365,19.5006573 76.27925,19.7601229 C76.0215,20.0195885 75.7205,20.2253977 75.37575,20.3783061 C75.031,20.5307107 74.65825,20.6072908 74.257,20.6072908 C73.9915,20.6072908 73.73025,20.5652221 73.473,20.4813366 C73.2155,20.3971992 72.9785,20.2772908 72.76275,20.1206038 C72.547,19.9644206 72.3595,19.7754893 72.2005,19.5540618 C72.04125,19.3326344 71.92775,19.088787 71.85975,18.8212603 L72.121,18.7527412 C72.31775,18.9968405 72.547,19.1991229 72.80825,19.3593366 C73.06975,19.5198023 73.36675,19.5999092 73.7,19.5999092 C73.98025,19.5999092 74.23975,19.5389473 74.47825,19.4167718 C74.71675,19.2945962 74.9215,19.1343824 75.09175,18.9358786 C75.26225,18.7373748 75.39475,18.5066267 75.4895,18.2431305 C75.584,17.9798863 75.6315,17.7108481 75.6315,17.4362679 C75.6315,17.1080313 75.586,16.8349626 75.49525,16.6175656 C75.40425,16.4001687 75.285,16.2170313 75.13725,16.0684053 C74.9895,15.9195275 74.82475,15.7895427 74.64325,15.678955 C74.46125,15.5683672 74.27775,15.4557641 74.092,15.3413977 C73.90625,15.2267794 73.7285,15.0970466 73.55825,14.9519473 C73.38775,14.8071 73.24175,14.6199321 73.12075,14.3909473 C73.113,14.8413595 73.03725,15.3144435 72.8935,15.8107031 C72.7495,16.3069626 72.5545,16.7876038 72.3085,17.2531305 C72.062,17.7186573 71.78,18.1537031 71.462,18.558016 C71.14375,18.9628328 70.80675,19.3021534 70.45075,19.5769855 L70.36,19.4167718 C70.60225,19.1573061 70.8145,18.8328481 70.99625,18.4436496 C71.178,18.0541992 71.3275,17.6440924 71.445,17.2128252 C71.56225,16.7820618 71.6495,16.3487794 71.70625,15.9134817 C71.763,15.4786878 71.7915,15.0816802 71.7915,14.7232145 C71.7915,14.5325198 71.7725,14.3453519 71.73475,14.1619626 C71.6965,13.9790771 71.67775,13.7997183 71.67775,13.6238863 C71.67775,13.4105198 71.74025,13.2462756 71.86525,13.1316573 C71.99025,13.0172908 72.15125,12.9601076 72.34825,12.9601076 C72.4995,12.9601076 72.621,12.9943672 72.71175,13.0631382 C72.8025,13.1316573 72.88575,13.2215885 72.96175,13.3321763 C73.03725,13.443016 73.113,13.5689702 73.18875,13.709787 C73.2645,13.8513595 73.36125,13.9962069 73.4785,14.1450847 C73.596,14.2939626 73.74375,14.4388099 73.92175,14.5798786 C74.0995,14.7211992 74.32875,14.8451382 74.609,14.9519473 C74.93475,15.0741229 75.24725,15.2134282 75.54625,15.3698634 C75.8455,15.5262985 76.1105,15.7114511 76.34175,15.9250695 C76.5725,16.1389397 76.75625,16.3928634 76.89275,16.6863366 C77.029,16.9803137 77.09725,17.3256802 77.09725,17.7224359" id="Fill-8" fill="#A32430"></path>
            <path d="M85.18825,18.3748282 C85.423,18.3748282 85.654,18.3597137 85.88125,18.3289809 C86.10875,18.2987519 86.33175,18.2566832 86.5515,18.2030267 C86.36225,17.943813 86.15975,17.7052557 85.94375,17.4878588 C85.728,17.2702099 85.47975,17.096645 85.19975,16.9669122 C85.192,17.2037061 85.18825,17.4382328 85.18825,17.6709962 L85.18825,18.3748282 Z M82.90475,17.4820649 C82.90475,17.588874 82.93875,17.6843473 83.00675,17.7682328 C83.07525,17.8523702 83.166,17.9266832 83.2795,17.9914237 C83.39325,18.0561641 83.52,18.111584 83.66025,18.1574313 C83.80025,18.2030267 83.946,18.2415687 84.09775,18.2720496 C84.08225,18.0123321 84.069,17.7548817 84.05775,17.4989427 C84.0465,17.2435076 84.03325,16.9898359 84.018,16.7379275 C83.88925,16.7379275 83.7585,16.7454847 83.62625,16.7608511 C83.4935,16.7759656 83.37425,16.8104771 83.26825,16.8638817 C83.16225,16.9172863 83.07525,16.9918511 83.00675,17.0870725 C82.93875,17.1825458 82.90475,17.3142939 82.90475,17.4820649 Z M86.972,7.21339695 C86.972,7.28972519 86.9625,7.35648092 86.9435,7.41366412 C86.9245,7.47109924 86.90375,7.5300458 86.881,7.59100763 C86.75225,7.89619466 86.616,8.19596565 86.47225,8.48969084 C86.32825,8.78366794 86.2145,9.0945229 86.13125,9.42275954 C85.851,10.5674313 85.64075,11.7236908 85.50075,12.8912863 C85.3605,14.0591336 85.26775,15.2342863 85.2225,16.4172481 C85.7145,16.5243092 86.15575,16.6998893 86.546,16.9439885 C86.936,17.1883397 87.31675,17.4780344 87.68775,17.8138282 C88.40725,17.5087672 89.0605,17.127126 89.6475,16.6691565 C90.2345,16.211187 90.73625,15.6846985 91.15275,15.0894389 C91.56925,14.4941794 91.89125,13.8341794 92.11875,13.1089351 C92.34575,12.3839427 92.4595,11.6093244 92.4595,10.7850802 C92.4595,10.3271107 92.393,9.8595687 92.2605,9.38270611 C92.128,8.9055916 91.9425,8.44208015 91.70375,7.99166794 C91.46525,7.54163359 91.1815,7.11817557 90.85175,6.72091603 C90.5225,6.32441221 90.15675,5.9790458 89.75525,5.6850687 C89.354,5.39134351 88.924,5.15832824 88.466,4.98677863 C88.0075,4.8149771 87.5325,4.72907634 87.04,4.72907634 C86.5705,4.72907634 86.084,4.81699237 85.58025,4.99257252 C85.0765,5.16815267 84.61625,5.41426718 84.2,5.73091603 C83.78325,6.04781679 83.4425,6.42744275 83.17725,6.86979389 C82.91225,7.31264885 82.77975,7.79719466 82.77975,8.32368321 C82.77975,8.52974427 82.80425,8.71489695 82.8535,8.87888931 C82.90275,9.04313359 82.95575,9.19377481 83.01275,9.33131679 C83.06925,9.46860687 83.12225,9.59632443 83.17175,9.71446947 C83.221,9.83311832 83.2455,9.95302672 83.2455,10.0752023 C83.2455,10.2968817 83.17175,10.4815305 83.024,10.6304084 C82.87625,10.7792863 82.69625,10.8538511 82.4845,10.8538511 C82.28725,10.8538511 82.132,10.8004466 82.0185,10.6933855 C81.905,10.5865763 81.816,10.4530649 81.7515,10.2928511 C81.687,10.1323855 81.64525,9.96285115 81.6265,9.78349237 C81.60775,9.60413359 81.59825,9.44568321 81.59825,9.30814122 C81.59825,8.63680534 81.75725,8.03020992 82.0755,7.4879771 C82.3935,6.94637405 82.8025,6.45767176 83.30225,6.02287786 C83.62025,5.7480458 83.9405,5.50772519 84.2625,5.30166412 C84.58425,5.09535115 84.9175,4.9200229 85.26225,4.77492366 C85.60675,4.63007634 85.9645,4.52125191 86.33575,4.44870229 C86.70675,4.37640458 87.1045,4.33987786 87.5285,4.33987786 C88.1345,4.33987786 88.71975,4.41645802 89.284,4.5688626 C89.84825,4.72177099 90.3785,4.93916794 90.8745,5.22130534 C91.3705,5.50369466 91.825,5.84351908 92.23775,6.24027481 C92.65075,6.63703053 93.00475,7.0798855 93.3,7.56833588 C93.5955,8.05666031 93.8245,8.58516412 93.9875,9.15372137 C94.1505,9.72227863 94.23175,10.3195534 94.23175,10.9452939 C94.23175,11.8687901 94.06725,12.7197366 93.7375,13.4981336 C93.408,14.2767824 92.96325,14.9730573 92.4025,15.5874618 C91.842,16.2018664 91.19075,16.7321336 90.4485,17.1785153 C89.706,17.6248969 88.926,17.9742939 88.10825,18.2259504 C88.1915,18.3100878 88.273,18.3901947 88.35225,18.4665229 C88.432,18.5428511 88.51325,18.622958 88.59675,18.7068435 C89.051,19.1575076 89.50375,19.6341183 89.95425,20.1379351 C90.40475,20.6415 90.869,21.1412863 91.346,21.6375458 C91.82325,22.1335534 92.3155,22.6086527 92.823,23.0628435 C93.33025,23.5167824 93.86825,23.9175687 94.43625,24.2649504 C95.0045,24.6120802 95.60825,24.8886756 96.24825,25.0949885 C96.8885,25.3007977 97.57575,25.4038282 98.31025,25.4038282 C98.43925,25.4038282 98.56225,25.3982863 98.67975,25.3866985 C98.797,25.3753626 98.92,25.3504237 99.04875,25.3123855 L99.10575,25.5413702 C98.77225,25.7169504 98.42025,25.8429046 98.049,25.9189809 C97.678,25.9953092 97.29925,26.0335992 96.913,26.0335992 C96.11025,26.0335992 95.37925,25.9514771 94.72025,25.7874847 C94.06125,25.6232405 93.45175,25.3924924 92.891,25.0949885 C92.3305,24.7972328 91.81175,24.4402786 91.33475,24.0246298 C90.8575,23.6082252 90.39925,23.1525229 89.96,22.6565153 C89.5205,22.1602557 89.09075,21.6320038 88.6705,21.0707519 C88.25,20.5100038 87.8165,19.931874 87.36975,19.3363626 C87.271,19.2068817 87.1745,19.0751336 87.07975,18.9416221 C86.985,18.8081107 86.8925,18.6763626 86.8015,18.5466298 C86.52875,18.5924771 86.258,18.6287519 85.98925,18.6554542 C85.72025,18.6824084 85.45325,18.6992863 85.18825,18.7068435 C85.18825,19.6381489 85.211,20.5576145 85.25625,21.4659962 C85.302,22.374126 85.35475,23.2668893 85.4155,24.1445382 L85.19975,24.2133092 C84.889,23.4044313 84.65225,22.5189733 84.4895,21.5574389 C84.32675,20.5956527 84.2035,19.626813 84.12025,18.6496603 C83.92325,18.6194313 83.73025,18.5773626 83.541,18.5237061 C83.3515,18.4705534 83.17925,18.3959885 83.024,18.3005153 C82.86875,18.205042 82.74375,18.0868969 82.64925,17.9455763 C82.55425,17.8045076 82.507,17.6347214 82.507,17.4362176 C82.507,17.2530802 82.5525,17.0946298 82.64325,16.9611183 C82.7345,16.8276069 82.8535,16.7170191 83.00125,16.6291031 C83.149,16.5416908 83.30975,16.4726679 83.48425,16.423042 C83.65825,16.3736679 83.8325,16.3411718 84.00675,16.3258053 C83.999,16.112187 83.99525,15.900584 83.99525,15.6904924 L83.99525,15.0778511 C83.99525,14.7652328 83.997,14.3757824 84.001,13.9102557 C84.005,13.4449809 84.02375,12.9487214 84.05775,12.4219809 C84.092,11.8952405 84.14675,11.3591794 84.22275,10.8135458 C84.298,10.2679122 84.40225,9.7545229 84.535,9.27388168 C84.6675,8.79298855 84.838,8.36575191 85.0465,7.99166794 C85.2545,7.61796183 85.51,7.34312977 85.81325,7.16754962 C85.92675,7.09877863 86.05175,7.03580153 86.188,6.97887023 C86.3245,6.92143511 86.46825,6.89296947 86.62,6.89296947 C86.8545,6.89296947 86.972,6.99977863 86.972,7.21339695 Z" id="Fill-9" fill="#A32430"></path>
            <path d="M95.45525,17.1386634 L95.73925,17.1386634 C96.012,17.1386634 96.29225,17.0945794 96.58,17.0069153 C96.86775,16.9192511 97.127,16.7892664 97.35825,16.6177168 C97.58925,16.4459153 97.7805,16.2340603 97.932,15.9824038 C98.0835,15.7304954 98.159,15.4440756 98.159,15.1236481 C98.159,14.8110298 98.09275,14.5513122 97.9605,14.3452511 C97.82775,14.1391901 97.5985,14.0364115 97.273,14.0364115 C96.9395,14.0364115 96.65775,14.1374267 96.42675,14.3397092 C96.1955,14.5417397 96.008,14.7901214 95.86425,15.0838466 C95.7205,15.3775718 95.616,15.6866634 95.552,16.0108695 C95.4875,16.3353275 95.45525,16.6235107 95.45525,16.8751672 L95.45525,17.1386634 Z M101.34025,18.5465794 C101.14325,18.8367779 100.90675,19.1075794 100.63025,19.3592359 C100.35375,19.6111443 100.051,19.8287931 99.72125,20.0119305 C99.39175,20.1953198 99.047,20.3399153 98.6875,20.4469763 C98.3275,20.5537855 97.966,20.607442 97.6025,20.607442 C97.08725,20.607442 96.60625,20.5404344 96.1595,20.4069229 C95.7125,20.2731595 95.32275,20.0693656 94.9895,19.7945336 C94.65625,19.5197015 94.39475,19.174587 94.2055,18.7584344 C94.016,18.3425336 93.9215,17.8560985 93.9215,17.2988771 C93.9215,16.749213 94.022,16.2360756 94.2225,15.7589611 C94.42325,15.2823504 94.69975,14.8661977 95.052,14.5112588 C95.40425,14.1563198 95.81875,13.8759458 96.296,13.6696328 C96.773,13.4638237 97.28425,13.3607931 97.82975,13.3607931 C98.087,13.3607931 98.3275,13.3970679 98.55125,13.4696176 C98.7745,13.5421672 98.96975,13.6489763 99.13625,13.790045 C99.30275,13.9313656 99.4335,14.1049305 99.52825,14.3107397 C99.62275,14.5170527 99.67025,14.7535947 99.67025,15.0208695 C99.67025,15.3412969 99.606,15.6236863 99.477,15.8677855 C99.34825,16.1121366 99.178,16.325755 98.96575,16.5088924 C98.75375,16.6922817 98.513,16.8449382 98.24425,16.9668618 C97.9755,17.0890374 97.69525,17.1882893 97.40375,17.2646176 C97.112,17.3409458 96.8245,17.3961137 96.54025,17.4303733 C96.25625,17.4648847 95.99675,17.4820145 95.762,17.4820145 L95.4895,17.4820145 C95.5875,18.176526 95.86025,18.707045 96.30725,19.0733198 C96.754,19.4395947 97.37125,19.6227321 98.159,19.6227321 C98.71975,19.6227321 99.267,19.5237321 99.801,19.3252282 C100.33475,19.1267244 100.81775,18.8521443 101.2495,18.5007321 L101.34025,18.5465794 Z" id="Fill-10" fill="#A32430"></path>
            <path d="M107.1,12.1701229 L107.1,13.1261153 C107.1,13.4886115 107.1095,13.8722679 107.12825,14.2765809 C107.147,14.6813977 107.18125,15.0950313 107.2305,15.5187412 C107.28,15.9424511 107.35375,16.3528099 107.45225,16.7493137 C107.7705,16.1313824 108.06175,15.4540008 108.327,14.7171687 C108.592,13.9808405 108.82125,13.2253672 109.01425,12.4504969 C109.2075,11.6761305 109.357,10.9035275 109.463,10.1324359 C109.569,9.36184809 109.62225,8.63282519 109.62225,7.94587099 C109.62225,7.80102366 109.6145,7.59100763 109.5995,7.31617557 C109.58425,7.04159542 109.54275,6.76903053 109.4745,6.49772519 C109.4065,6.22692366 109.304,5.99038168 109.16775,5.78809924 C109.0315,5.58581679 108.8455,5.48480153 108.611,5.48480153 C108.42925,5.48480153 108.26625,5.57070229 108.1225,5.74225191 C107.9785,5.91405344 107.85375,6.14278626 107.7475,6.42920611 C107.6415,6.71537405 107.5525,7.04159542 107.4805,7.40812214 C107.4085,7.77432137 107.348,8.15571069 107.29875,8.55271832 C107.2495,8.94972595 107.2115,9.34245115 107.18525,9.73164962 C107.1585,10.1208481 107.13975,10.4815809 107.12825,10.8135962 C107.117,11.1456115 107.1095,11.4317794 107.1055,11.6721 C107.10175,11.9126725 107.1,12.0786802 107.1,12.1701229 Z M104.237,19.2220466 C104.6685,19.2220466 105.068,19.1381611 105.43575,18.9701382 C105.803,18.8023672 106.138,18.5809397 106.441,18.3061076 C106.297,18.0239702 106.174,17.7206725 106.072,17.3962145 C105.96975,17.0717565 105.8825,16.7435198 105.8105,16.4117565 C105.7385,16.0797412 105.6815,15.7457107 105.64,15.4099168 C105.59825,15.0741229 105.56625,14.7499168 105.5435,14.4367947 C105.4525,14.3375427 105.339,14.2556725 105.20275,14.1906802 C105.06625,14.1261916 104.8995,14.0934435 104.70275,14.0934435 C104.3465,14.0934435 104.0305,14.1906802 103.754,14.3854053 C103.4775,14.5798786 103.24475,14.8242298 103.05525,15.117955 C102.866,15.4119321 102.722,15.7326115 102.62375,16.0797412 C102.52525,16.426871 102.476,16.7571229 102.476,17.0697412 C102.476,17.3601916 102.50825,17.6365351 102.57275,17.8997794 C102.63675,18.1632756 102.741,18.3920084 102.885,18.5867336 C103.02875,18.7812069 103.2125,18.9358786 103.436,19.050245 C103.65925,19.1648634 103.9265,19.2220466 104.237,19.2220466 Z M111.758,18.5464282 C111.63675,18.7983366 111.4855,19.0258099 111.3035,19.2278405 C111.12175,19.4301229 110.91725,19.6019244 110.69,19.7427412 C110.46275,19.8843137 110.22025,19.9931382 109.963,20.0692145 C109.7055,20.1455427 109.4365,20.1835809 109.1565,20.1835809 C108.5655,20.1835809 108.0635,20.0387336 107.651,19.748787 C107.23825,19.4588405 106.8915,19.0809779 106.6115,18.6154511 C106.40675,18.844184 106.1815,19.0714053 105.9355,19.2966115 C105.68925,19.5218176 105.428,19.7200695 105.1515,19.8916191 C104.875,20.0634206 104.58925,20.202726 104.29375,20.3095351 C103.9985,20.4163443 103.703,20.4697489 103.4075,20.4697489 C103.0515,20.4697489 102.73325,20.3971992 102.45325,20.2523519 C102.173,20.1075046 101.9345,19.9145427 101.7375,19.6742221 C101.5405,19.4339015 101.389,19.1590695 101.283,18.8502298 C101.177,18.5408863 101.124,18.2186954 101.124,17.8826496 C101.124,17.3790847 101.23575,16.8714893 101.45925,16.3601153 C101.6825,15.8489931 101.978,15.3852298 102.34525,14.9690771 C102.7125,14.5534282 103.135,14.2156191 103.61225,13.9561534 C104.08925,13.6966878 104.58525,13.566955 105.1005,13.566955 C105.25175,13.566955 105.3845,13.5820695 105.49825,13.6128023 L105.49825,13.1316573 C105.49825,12.9104817 105.5055,12.6165046 105.52075,12.2502298 C105.53575,11.883955 105.56625,11.4776267 105.61175,11.031245 C105.65725,10.5846115 105.71575,10.1153061 105.78775,9.6230771 C105.85975,9.13084809 105.95425,8.64239771 106.072,8.15772595 C106.189,7.67312977 106.3275,7.21138168 106.4865,6.77255725 C106.64575,6.33373282 106.831,5.94831298 107.043,5.61629771 C107.255,5.28428244 107.49775,5.01927481 107.7705,4.82077099 C108.04275,4.62226718 108.34975,4.52301527 108.6905,4.52301527 C109.092,4.52301527 109.41775,4.64141221 109.66775,4.8779542 C109.91775,5.11449618 110.1145,5.40645802 110.2585,5.75358779 C110.40225,6.10096947 110.49875,6.46925954 110.548,6.85845802 C110.59725,7.24765649 110.622,7.59503817 110.622,7.90027557 C110.622,8.2970313 110.58375,8.75701603 110.5085,9.27947405 C110.4325,9.80218397 110.3265,10.3556267 110.19025,10.9395504 C110.05375,11.523474 109.891,12.1207489 109.70175,12.7313748 C109.51225,13.3417489 109.30775,13.9291992 109.08825,14.4939779 C108.86825,15.0590084 108.63175,15.5837336 108.378,16.0684053 C108.12425,16.5528252 107.8685,16.9629321 107.61125,17.298726 C107.7095,17.5964817 107.829,17.8713137 107.96925,18.1232221 C108.10925,18.3748786 108.27375,18.5925275 108.46325,18.7756649 C108.6525,18.9588023 108.86825,19.1018863 109.111,19.2049168 C109.35325,19.3079473 109.6295,19.3593366 109.94025,19.3593366 C110.65225,19.3593366 111.2355,19.0731687 111.68975,18.5008328 L111.758,18.5464282 Z" id="Fill-11" fill="#A32430"></path>
            <path d="M50.3595,30.7903099 L49.184,27.443455 C49.096,27.1925542 49.01925,27.0671038 48.95325,27.0671038 C48.924,27.0671038 48.88975,27.0706305 48.85075,27.0781878 C48.81175,27.0854931 48.78,27.0718901 48.7555,27.0376305 C48.731,27.0031191 48.719,26.9600427 48.719,26.9084015 C48.719,26.8567603 48.7395,26.8038595 48.781,26.7496992 C48.8225,26.6955389 48.87525,26.6489359 48.9385,26.6093863 C49.08025,26.5184473 49.204,26.4728519 49.31025,26.4728519 C49.4165,26.4728519 49.49525,26.475371 49.5465,26.4804092 C49.59775,26.4851954 49.6465,26.5023252 49.693,26.5320504 C49.78575,26.593516 49.864,26.7325695 49.92725,26.9489588 L50.8685,30.1592794 C51.1005,29.4705618 51.2505,29.0153634 51.319,28.7939359 C51.56075,27.9724626 51.72175,27.3646076 51.80225,26.9711267 C51.8195,26.882455 51.9,26.8076382 52.044,26.7459206 C52.15625,26.6993176 52.2515,26.6758901 52.32975,26.6758901 C52.40775,26.6758901 52.45975,26.6814321 52.48525,26.692516 C52.511,26.7033481 52.53,26.7237527 52.542,26.7534779 C52.5715,26.8124244 52.5935,26.8837145 52.608,26.9673481 L53.58225,30.185226 C53.76525,29.7350656 53.88975,29.4189206 53.95575,29.2367908 L54.146,28.6979588 C54.34875,28.1100046 54.45,27.6512794 54.45,27.3215313 C54.45,27.0880122 54.33775,26.9575237 54.11325,26.9305695 C54.08875,26.8912718 54.0765,26.8499588 54.0765,26.8066305 C54.0765,26.764058 54.09725,26.7209817 54.13875,26.6779053 C54.18025,26.634829 54.234,26.5970427 54.3,26.5653023 C54.43175,26.5035847 54.5655,26.4728519 54.701,26.4728519 C54.8365,26.4728519 54.94075,26.4804092 55.014,26.4950198 C55.08725,26.5098824 55.14575,26.5355771 55.18975,26.5726076 C55.27275,26.6464168 55.31425,26.7565008 55.31425,26.9026076 C55.31425,27.0492183 55.2985,27.1968366 55.26675,27.3454626 C55.235,27.4945924 55.19225,27.6575771 55.1385,27.8346687 C55.08475,28.0117603 55.0225,28.1974168 54.95175,28.3916382 C54.68575,29.1052947 54.4915,29.5947527 54.3695,29.860516 L54.10225,30.4212641 C54.0485,30.5295847 54.007,30.6081802 53.97775,30.6575542 L53.886,30.8013939 C53.7835,30.9613557 53.66275,31.0412107 53.5235,31.0412107 C53.37225,31.0412107 53.24775,31.0006534 53.15,30.9195389 C53.111,30.8850275 53.083,30.8419511 53.06575,30.7903099 L52.1575,28.1482947 C51.9135,28.9181267 51.7585,29.4002794 51.6925,29.5947527 C51.49225,30.1605389 51.3715,30.4860046 51.33,30.5706458 C51.2885,30.6557908 51.25175,30.7245618 51.22,30.7772107 C51.18825,30.8303634 51.153,30.8752031 51.114,30.9119817 C51.026,30.9981344 50.9295,31.0412107 50.8245,31.0412107 C50.678,31.0412107 50.55225,30.9981344 50.4475,30.9119817 C50.40825,30.8802412 50.379,30.8394321 50.3595,30.7903099" id="Fill-12" fill="#6D6E70"></path>
            <path d="M57.85975,30.4397542 C58.02325,30.4397542 58.16975,30.4009603 58.29925,30.3236244 C58.4285,30.2457847 58.5385,30.1397313 58.62875,30.0044565 C58.8095,29.7238305 58.89975,29.3598229 58.89975,28.9121817 C58.89975,28.4199527 58.8045,28.0017847 58.61425,27.657426 C58.39925,27.261426 58.09025,27.063426 57.6875,27.063426 C57.363,27.063426 57.103,27.1888763 56.9075,27.4397771 C56.7,27.7055405 56.59625,28.0768534 56.59625,28.5542198 C56.59625,29.1519985 56.727,29.6243267 56.98825,29.9712046 C57.2225,30.283571 57.513,30.4397542 57.85975,30.4397542 M55.78325,28.9340977 C55.78325,28.6340748 55.81275,28.3647847 55.87125,28.1259756 C55.92975,27.8874183 56.0105,27.6770748 56.113,27.4951969 C56.2155,27.3130672 56.33625,27.1576397 56.4755,27.0281588 C56.61475,26.8991817 56.7635,26.793884 56.92225,26.7127695 C57.23225,26.5528076 57.57275,26.4729527 57.94375,26.4729527 C58.41975,26.4729527 58.824,26.6475252 59.15625,26.9969221 C59.52475,27.3808305 59.709,27.8874183 59.709,28.5171893 C59.709,29.3437008 59.48575,29.9870748 59.039,30.4470595 C58.65075,30.8433115 58.1855,31.0413115 57.6435,31.0413115 C57.07725,31.0413115 56.62325,30.8407924 56.2815,30.4397542 C55.94925,30.0535786 55.78325,29.5517771 55.78325,28.9340977" id="Fill-13" fill="#6D6E70"></path>
            <path d="M62.34225,30.9895695 C62.291,30.977226 62.21275,30.9711802 62.108,30.9711802 L60.8665,30.9711802 C60.632,30.9711802 60.482,30.9293634 60.416,30.8457298 C60.38925,30.8137374 60.37575,30.7767069 60.37575,30.7348901 C60.37575,30.6316076 60.39525,30.5552794 60.43425,30.5061573 C60.493,30.5258061 60.547,30.5356305 60.5975,30.5356305 C60.64725,30.5356305 60.6895,30.5290809 60.7235,30.5154779 C60.75775,30.5021267 60.78475,30.4792031 60.80425,30.4472107 C60.83825,30.3880122 60.8555,30.2723863 60.8555,30.1003328 L60.8555,27.6870504 C60.8555,27.4557985 60.81275,27.3117069 60.72725,27.2552794 C60.693,27.2331115 60.648,27.2220275 60.59175,27.2220275 C60.5355,27.2220275 60.491,27.2305924 60.45825,27.247974 C60.425,27.2651038 60.39825,27.2774473 60.37775,27.2847527 C60.35675,27.292058 60.339,27.2915542 60.3245,27.2829893 C60.30975,27.2744244 60.295,27.2613252 60.2805,27.2441954 C60.24375,27.1998595 60.2255,27.1575389 60.2255,27.1167298 C60.2255,27.0764244 60.24075,27.0320885 60.27125,26.983974 C60.30175,26.9361115 60.35125,26.8806916 60.41975,26.8182183 C60.488,26.7552412 60.56625,26.698058 60.654,26.6464168 C60.85175,26.5307908 61.0495,26.4728519 61.24725,26.4728519 C61.47175,26.4728519 61.605,26.6204702 61.6465,26.9157069 C61.65875,27.0018595 61.666,27.0915389 61.6685,27.1852489 C62.02475,26.8678443 62.39225,26.6501954 62.77075,26.5320504 C62.89775,26.4927527 63.013,26.4728519 63.117,26.4728519 C63.2205,26.4728519 63.30575,26.4877145 63.37325,26.5171878 C63.44025,26.5466611 63.49325,26.5874702 63.5325,26.6391115 C63.60575,26.7398748 63.64225,26.8691038 63.64225,27.0265466 C63.64225,27.1839893 63.635,27.3094397 63.62025,27.4028977 C63.60575,27.4963557 63.58725,27.5787298 63.5655,27.6500198 C63.5215,27.7951191 63.48,27.8875695 63.441,27.9268672 C63.3725,27.9981573 63.281,28.0339282 63.16625,28.0339282 C63.049,28.0339282 62.9905,27.9994168 62.9905,27.9306458 C62.9905,27.6674015 62.9795,27.4988748 62.9575,27.4250656 C62.916,27.2895389 62.83775,27.2220275 62.723,27.2220275 C62.60825,27.2220275 62.5045,27.2348748 62.41175,27.2608214 C62.319,27.286516 62.22875,27.3217832 62.14075,27.3658672 C61.9625,27.4545389 61.80625,27.5689053 61.672,27.7092183 L61.672,30.163058 C61.6795,30.3572794 61.7635,30.4754244 61.92475,30.5172412 C61.97125,30.5295847 62.02375,30.5406687 62.08225,30.5504931 C62.14075,30.5603176 62.19125,30.5721573 62.234,30.5855084 C62.27675,30.5991115 62.3105,30.6144779 62.335,30.6316076 C62.3765,30.6636 62.39725,30.7152412 62.39725,30.7865313 C62.39725,30.8752031 62.37875,30.9429664 62.34225,30.9895695" id="Fill-14" fill="#6D6E70"></path>
            <path d="M66.97875,27.3438 C66.7395,27.1594031 66.46125,27.0669527 66.14375,27.0669527 C65.763,27.0669527 65.454,27.2085252 65.21725,27.4914183 C64.96325,27.7939603 64.8365,28.2060824 64.8365,28.7275328 C64.8365,29.5565634 65.07075,30.0681893 65.5395,30.2626626 C65.686,30.3216092 65.828,30.3513344 65.966,30.3513344 C66.104,30.3513344 66.2195,30.3402504 66.31225,30.3180824 C66.405,30.2959145 66.49175,30.2664412 66.57225,30.2294107 C66.73325,30.1556015 66.869,30.0659221 66.97875,29.9601206 L66.97875,27.3438 Z M66.98975,30.5097847 C66.61125,30.866487 66.195,31.0448382 65.741,31.0448382 C65.2405,31.0448382 64.83275,30.8727847 64.51775,30.528426 C64.176,30.1495557 64.005,29.6268458 64.005,28.9600443 C64.005,28.2098611 64.242,27.5997389 64.7155,27.1296779 C65.1575,26.6918611 65.68,26.4729527 66.283,26.4729527 C66.52475,26.4729527 66.7565,26.5135099 66.97875,26.5946244 L66.97875,25.5282962 C66.97875,25.3559908 66.96175,25.2466626 66.9275,25.1998076 C66.87125,25.1212122 66.77975,25.0819145 66.65275,25.0819145 C66.599,25.0819145 66.54575,25.0872046 66.4935,25.0985405 C66.441,25.1093725 66.40425,25.1093725 66.3835,25.0985405 C66.36275,25.0872046 66.3465,25.0718382 66.33425,25.0521893 C66.2855,24.9710748 66.3465,24.8677924 66.51725,24.742342 C66.786,24.5430824 67.05075,24.4433267 67.312,24.4433267 C67.58775,24.4433267 67.74525,24.5947237 67.7845,24.8972656 C67.79425,24.9882046 67.799,25.0841817 67.799,25.1851969 L67.799,29.4694031 C67.799,29.8480214 67.81375,30.0843115 67.843,30.1777695 C67.87225,30.2712275 67.907,30.3321893 67.9475,30.360655 C67.9875,30.3888687 68.03825,30.4029756 68.09925,30.4029756 C68.1605,30.4029756 68.2105,30.3931511 68.2495,30.3732504 L68.35925,30.3253878 C68.391,30.3180824 68.41925,30.3326931 68.4435,30.3697237 C68.49475,30.4458 68.50225,30.5148229 68.4655,30.5762885 C68.429,30.6377542 68.374,30.6969527 68.30075,30.7533802 C68.2275,30.8100595 68.14575,30.8591817 68.0555,30.9009985 C67.66,31.0806092 67.3645,31.0843878 67.16925,30.9120824 C67.074,30.8284489 67.01425,30.6944336 66.98975,30.5097847 Z" id="Fill-15" fill="#6D6E70"></path>
            <path d="M71.42825,27.7829015 C71.42825,27.4040313 71.272,27.1531305 70.9595,27.0301992 C70.8595,26.9906496 70.75125,26.9710008 70.63525,26.9710008 C70.51925,26.9710008 70.41225,26.9808252 70.313,27.000726 C70.2145,27.0203748 70.127,27.0511076 70.05125,27.0929244 C69.8805,27.1863824 69.795,27.3203977 69.795,27.4952221 C69.795,27.6624893 69.86575,27.8075885 70.00725,27.9305198 C70.1635,28.0610084 70.45425,28.221474 70.879,28.4121687 C71.30375,28.6028634 71.63125,28.8106878 71.86225,29.035642 C72.09275,29.2608481 72.20825,29.5198099 72.20825,29.8125275 C72.20825,30.1420237 72.074,30.4201305 71.8055,30.6463443 C71.4905,30.9095885 71.05475,31.0413366 70.498,31.0413366 C69.817,31.0413366 69.34575,30.8949779 69.0845,30.6020084 C68.99425,30.498726 68.949,30.3672298 68.949,30.2072679 C68.949,29.8210924 69.043,29.5958863 69.231,29.5319015 C69.2775,29.5172908 69.32125,29.5097336 69.36275,29.5097336 C69.4775,29.5097336 69.53975,29.5455046 69.5495,29.6167947 C69.60325,30.231955 69.945,30.5392832 70.575,30.5392832 C70.9535,30.5392832 71.206,30.432474 71.333,30.2183519 C71.3745,30.1495809 71.39525,30.0659473 71.39525,29.9674511 C71.39525,29.868955 71.36425,29.7792756 71.30175,29.6981611 C71.23975,29.6167947 71.1535,29.5412221 71.04375,29.4709397 C70.93375,29.4011611 70.80325,29.332642 70.652,29.2663901 L70.16475,29.0449626 C69.41775,28.7006038 69.04425,28.2428863 69.04425,27.6723137 C69.04425,27.3032679 69.2065,27.0080313 69.53125,26.7866038 C69.839,26.5775198 70.2355,26.4729779 70.7215,26.4729779 C71.38075,26.4729779 71.79075,26.6168176 71.952,26.9047489 C71.9935,26.978558 72.01425,27.0596725 72.01425,27.1480924 C72.01425,27.2367641 72.00925,27.3161153 71.9995,27.3863977 C71.98975,27.4561763 71.9775,27.5196573 71.963,27.5763366 C71.9385,27.6844053 71.9105,27.7607336 71.87875,27.8050695 C71.81525,27.8516725 71.72425,27.8751 71.606,27.8751 C71.48725,27.8751 71.42825,27.8443672 71.42825,27.7829015" id="Fill-16" fill="#6D6E70"></path>
            <path d="M87.56675,27.5762611 L87.56675,30.1631084 C87.79625,30.3548107 88.071,30.4507878 88.39075,30.4507878 C88.769,30.4507878 89.07675,30.3094672 89.3135,30.026574 C89.565,29.7262992 89.69075,29.3141771 89.69075,28.7902076 C89.69075,28.239284 89.57975,27.8246427 89.3575,27.5467878 C89.15975,27.2933679 88.88325,27.166658 88.52825,27.166658 C88.17275,27.166658 87.85225,27.3031924 87.56675,27.5762611 Z M87.56675,26.9895664 C87.933,26.6452076 88.342,26.4729023 88.7935,26.4729023 C89.2915,26.4729023 89.697,26.6464672 90.0095,26.993345 C90.35125,27.3671771 90.522,27.8886275 90.522,28.5576962 C90.522,29.3106504 90.28775,29.9207725 89.819,30.3880626 C89.377,30.8236122 88.8545,31.0412611 88.2515,31.0412611 C87.8585,31.0412611 87.46675,30.9513298 87.076,30.771971 C86.949,30.7152916 86.8405,30.6500473 86.75,30.5762382 L86.75,25.5282458 C86.75,25.3584595 86.733,25.2491313 86.69875,25.1997573 C86.6475,25.1211618 86.55725,25.0818641 86.42775,25.0818641 C86.36925,25.0818641 86.31425,25.0871542 86.263,25.0984901 C86.21175,25.1093221 86.17625,25.1093221 86.15675,25.0984901 C86.13725,25.0871542 86.12025,25.0720397 86.1055,25.0521389 C86.05425,24.9735435 86.11525,24.8702611 86.28875,24.7422916 C86.55725,24.5430321 86.822,24.4432763 87.08325,24.4432763 C87.36175,24.4432763 87.518,24.5946733 87.552,24.8972153 C87.56175,24.9884061 87.56675,25.0841313 87.56675,25.1851466 L87.56675,26.9895664 Z" id="Fill-17" fill="#6D6E70"></path>
            <path d="M93.1225,30.4397542 C93.286,30.4397542 93.4325,30.4009603 93.562,30.3236244 C93.69125,30.2457847 93.80125,30.1397313 93.8915,30.0044565 C94.07225,29.7238305 94.1625,29.3598229 94.1625,28.9121817 C94.1625,28.4199527 94.06725,28.0017847 93.877,27.657426 C93.662,27.261426 93.35325,27.063426 92.9505,27.063426 C92.62575,27.063426 92.36575,27.1888763 92.17025,27.4397771 C91.96275,27.7055405 91.859,28.0768534 91.859,28.5542198 C91.859,29.1519985 91.98975,29.6243267 92.251,29.9712046 C92.48525,30.283571 92.77575,30.4397542 93.1225,30.4397542 M91.046,28.9340977 C91.046,28.6340748 91.0755,28.3647847 91.134,28.1259756 C91.1925,27.8874183 91.27325,27.6770748 91.37575,27.4951969 C91.47825,27.3130672 91.599,27.1576397 91.73825,27.0281588 C91.8775,26.8991817 92.02625,26.793884 92.185,26.7127695 C92.495,26.5528076 92.83575,26.4729527 93.20675,26.4729527 C93.68275,26.4729527 94.08675,26.6475252 94.419,26.9969221 C94.7875,27.3808305 94.97175,27.8874183 94.97175,28.5171893 C94.97175,29.3437008 94.7485,29.9870748 94.30175,30.4470595 C93.9135,30.8433115 93.4485,31.0413115 92.9065,31.0413115 C92.34,31.0413115 91.886,30.8407924 91.54425,30.4397542 C91.212,30.0535786 91.046,29.5517771 91.046,28.9340977" id="Fill-18" fill="#6D6E70"></path>
            <path d="M97.6235,30.4397542 C97.787,30.4397542 97.9335,30.4009603 98.063,30.3236244 C98.19225,30.2457847 98.30225,30.1397313 98.3925,30.0044565 C98.57325,29.7238305 98.6635,29.3598229 98.6635,28.9121817 C98.6635,28.4199527 98.56825,28.0017847 98.378,27.657426 C98.163,27.261426 97.85425,27.063426 97.4515,27.063426 C97.12675,27.063426 96.86675,27.1888763 96.67125,27.4397771 C96.46375,27.7055405 96.36,28.0768534 96.36,28.5542198 C96.36,29.1519985 96.49075,29.6243267 96.752,29.9712046 C96.98625,30.283571 97.27675,30.4397542 97.6235,30.4397542 M95.547,28.9340977 C95.547,28.6340748 95.5765,28.3647847 95.635,28.1259756 C95.6935,27.8874183 95.77425,27.6770748 95.87675,27.4951969 C95.97925,27.3130672 96.1,27.1576397 96.23925,27.0281588 C96.3785,26.8991817 96.52725,26.793884 96.686,26.7127695 C96.996,26.5528076 97.33675,26.4729527 97.70775,26.4729527 C98.18375,26.4729527 98.58775,26.6475252 98.92,26.9969221 C99.2885,27.3808305 99.47275,27.8874183 99.47275,28.5171893 C99.47275,29.3437008 99.2495,29.9870748 98.80275,30.4470595 C98.4145,30.8433115 97.9495,31.0413115 97.4075,31.0413115 C96.841,31.0413115 96.387,30.8407924 96.04525,30.4397542 C95.713,30.0535786 95.547,29.5517771 95.547,28.9340977" id="Fill-19" fill="#6D6E70"></path>
            <path d="M103.0695,26.4729527 C103.45025,26.4729527 103.64075,26.5910977 103.64075,26.8271359 C103.64075,27.1248916 103.34425,27.5357542 102.751,28.0597237 C102.5215,28.2637695 102.29075,28.4385939 102.05875,28.5836931 C102.215,28.7287924 102.375,28.9169679 102.5385,29.1482198 L102.923,29.6943573 C103.24525,30.1593802 103.48825,30.3918916 103.65175,30.3918916 C103.786,30.3918916 103.8745,30.3782885 103.9175,30.3513344 C103.96,30.3241282 103.99125,30.3092656 104.01075,30.3069985 C104.03025,30.3044794 104.05575,30.3130443 104.0875,30.3326931 C104.11925,30.352342 104.13525,30.3855939 104.13525,30.4324489 C104.13525,30.4790519 104.11625,30.5377466 104.0785,30.6075252 C104.0405,30.6778076 103.9875,30.7448153 103.919,30.8088 C103.753,30.9637237 103.57375,31.0413115 103.38075,31.0413115 C103.188,31.0413115 103.0255,30.9952122 102.89375,30.9027618 C102.762,30.8108153 102.6385,30.6914107 102.52375,30.5450519 C102.409,30.3986931 102.3005,30.2357084 102.198,30.0560977 L101.894,29.5321282 C101.6475,29.103884 101.43625,28.826029 101.2605,28.6980595 C101.158,28.6267695 101.12375,28.581174 101.158,28.5615252 L101.264,28.5025786 L101.85375,28.078113 C102.10525,27.8886779 102.2785,27.7398 102.37375,27.6317313 C102.55925,27.4226473 102.652,27.2478229 102.652,27.1077618 C102.652,27.0092656 102.5545,26.9525863 102.359,26.9379756 C102.33475,26.898426 102.3225,26.8566092 102.3225,26.8125252 C102.3225,26.7681893 102.34625,26.7246092 102.394,26.6812809 C102.44125,26.6384565 102.50175,26.6021817 102.57525,26.5727084 C102.7315,26.5062046 102.89625,26.4729527 103.0695,26.4729527 M101.5205,30.9896702 C101.4715,30.9773267 101.3935,30.971029 101.286,30.971029 L100.1875,30.971029 C99.953,30.971029 99.803,30.9292122 99.737,30.8455786 C99.71,30.8135863 99.69675,30.7768076 99.69675,30.7349908 C99.69675,30.6317084 99.71625,30.5553802 99.75525,30.506258 C99.814,30.5259069 99.881,30.5357313 99.95675,30.5357313 C100.0325,30.5357313 100.0885,30.5049985 100.12525,30.4435328 C100.16175,30.3820672 100.17875,30.2674489 100.1765,30.1001817 L100.1765,25.6945557 C100.1765,25.5247695 100.15925,25.4151893 100.12525,25.3660672 C100.074,25.2872198 99.9835,25.2479221 99.85425,25.2479221 C99.815,25.2479221 99.77525,25.2524565 99.73525,25.2607695 C99.69475,25.2695863 99.66425,25.2680748 99.6435,25.2572427 C99.62275,25.2459069 99.6065,25.2307924 99.59425,25.2111435 C99.5625,25.1617695 99.56525,25.1121435 99.6035,25.0615099 C99.641,25.0113802 99.6955,24.9577237 99.76625,24.9010443 C99.837,24.8446168 99.91525,24.7952427 100.00075,24.753426 C100.18375,24.6574489 100.34175,24.6095863 100.475,24.6095863 C100.60775,24.6095863 100.70675,24.6292351 100.7715,24.6685328 C100.836,24.7080824 100.8845,24.7609832 100.91625,24.8272351 C100.97,24.9355557 100.99675,25.1101282 100.99675,25.3512046 L100.99675,30.1372122 C100.99675,30.341258 101.05775,30.4667084 101.17975,30.5135634 C101.214,30.528426 101.25475,30.5405176 101.30275,30.5505939 C101.35,30.5604183 101.3935,30.5720061 101.4325,30.5853573 C101.4715,30.5992122 101.50225,30.6143267 101.524,30.6317084 C101.56075,30.6637008 101.579,30.715342 101.579,30.7866321 C101.579,30.8727847 101.5595,30.9402962 101.5205,30.9896702" id="Fill-20" fill="#6D6E70"></path>
            <path d="M106.99525,27.7829015 C106.99525,27.4040313 106.839,27.1531305 106.5265,27.0301992 C106.4265,26.9906496 106.31825,26.9710008 106.20225,26.9710008 C106.08625,26.9710008 105.97925,26.9808252 105.88,27.000726 C105.7815,27.0203748 105.694,27.0511076 105.61825,27.0929244 C105.4475,27.1863824 105.362,27.3203977 105.362,27.4952221 C105.362,27.6624893 105.43275,27.8075885 105.57425,27.9305198 C105.7305,28.0610084 106.02125,28.221474 106.446,28.4121687 C106.87075,28.6028634 107.19825,28.8106878 107.42925,29.035642 C107.65975,29.2608481 107.77525,29.5198099 107.77525,29.8125275 C107.77525,30.1420237 107.641,30.4201305 107.3725,30.6463443 C107.0575,30.9095885 106.62175,31.0413366 106.065,31.0413366 C105.384,31.0413366 104.91275,30.8949779 104.6515,30.6020084 C104.56125,30.498726 104.516,30.3672298 104.516,30.2072679 C104.516,29.8210924 104.61,29.5958863 104.798,29.5319015 C104.84425,29.5172908 104.88825,29.5097336 104.92975,29.5097336 C105.0445,29.5097336 105.10675,29.5455046 105.1165,29.6167947 C105.17025,30.231955 105.512,30.5392832 106.142,30.5392832 C106.5205,30.5392832 106.773,30.432474 106.9,30.2183519 C106.9415,30.1495809 106.96225,30.0659473 106.96225,29.9674511 C106.96225,29.868955 106.93125,29.7792756 106.86875,29.6981611 C106.80675,29.6167947 106.7205,29.5412221 106.61075,29.4709397 C106.50075,29.4011611 106.37025,29.332642 106.219,29.2663901 L105.73175,29.0449626 C104.98475,28.7006038 104.61125,28.2428863 104.61125,27.6723137 C104.61125,27.3032679 104.7735,27.0080313 105.09825,26.7866038 C105.406,26.5775198 105.8025,26.4729779 106.2885,26.4729779 C106.94775,26.4729779 107.35775,26.6168176 107.519,26.9047489 C107.5605,26.978558 107.58125,27.0596725 107.58125,27.1480924 C107.58125,27.2367641 107.57625,27.3161153 107.5665,27.3863977 C107.55675,27.4561763 107.5445,27.5196573 107.53,27.5763366 C107.5055,27.6844053 107.4775,27.7607336 107.44575,27.8050695 C107.38225,27.8516725 107.29125,27.8751 107.173,27.8751 C107.05425,27.8751 106.99525,27.8443672 106.99525,27.7829015" id="Fill-21" fill="#6D6E70"></path>
            <path d="M33.3295,8.02625496 C25.67775,9.51352214 20.65005,16.0319038 18.6323,19.1648885 C18.57855,19.2648962 18.5293,19.3583542 18.4803,19.4513084 L18.45905,19.5883466 C20.3478,16.8919191 25.44525,10.6612168 33.42825,8.5794458 C33.39775,8.39378931 33.36525,8.20939237 33.3295,8.02625496" id="Fill-22" fill="#A32430"></path>
            <path d="M17.7684,19.8591733 C16.69165,17.2602344 12.39865,8.23863893 3.7514,5.56919084 C3.64365,5.74149618 3.53765,5.91531298 3.4339,6.09114504 C12.20215,9.47802824 16.6504,17.6380969 17.76215,19.9473412 L17.7684,19.8591733 Z" id="Fill-23" fill="#A32430"></path>
            <path d="M32.15175,5.31954962 C25.29225,7.30685496 20.61235,14.8734275 18.57485,18.8394733 L18.53385,19.1044809 C20.55385,15.4455115 25.27675,8.25176336 32.3015,5.72487023 C32.253,5.58858779 32.20325,5.45356489 32.15175,5.31954962" id="Fill-24" fill="#A32430"></path>
            <path d="M17.804625,19.3580519 C16.412375,15.2902351 12.769625,6.71915267 6.031625,3.71917557 C5.898625,3.87838168 5.766875,4.03909924 5.637625,4.20258779 C12.446625,8.11739542 16.275375,15.7824641 17.796375,19.473426 L17.804625,19.3580519 Z" id="Fill-25" fill="#A32430"></path>
            <path d="M121.3245,23.8927053 C121.3245,24.1065756 121.207,24.2133847 120.9725,24.2133847 C120.82075,24.2133847 120.677,24.1846672 120.5405,24.127484 C120.40425,24.0703008 120.27925,24.0073237 120.16575,23.9388046 C119.931,23.8088198 119.7245,23.6181252 119.5465,23.3662168 C119.3685,23.1143084 119.217,22.8243618 119.092,22.4961252 C118.967,22.1678885 118.861,21.8109344 118.774,21.4257664 C118.68675,21.0403466 118.61675,20.6491328 118.56375,20.2523771 C118.51075,19.8556214 118.469,19.4623924 118.43875,19.0731939 C118.4085,18.6839954 118.3895,18.3217511 118.38225,17.9857053 C118.16225,17.9018198 117.94075,17.8065985 117.71725,17.6995374 C117.494,17.5927282 117.293,17.4725679 117.11525,17.3388046 C116.93725,17.205545 116.7915,17.0604458 116.67775,16.9040107 C116.56425,16.7475756 116.5075,16.5815679 116.5075,16.4057359 C116.5075,16.2684458 116.5395,16.1445069 116.604,16.0339191 C116.66825,15.9233313 116.77625,15.8679115 116.92775,15.8679115 C117.0565,15.8679115 117.17775,15.896629 117.29125,15.9535603 C117.405,16.0109954 117.5185,16.0853084 117.63225,16.1770031 C117.746,16.2684458 117.863,16.3734916 117.9845,16.4916366 C118.1055,16.6102855 118.2345,16.7301939 118.37075,16.8523695 C118.37075,16.0739725 118.397,15.2479649 118.45025,14.3738427 C118.50325,13.4999725 118.598,12.6261023 118.73425,11.752484 C118.87075,10.8786137 119.054,10.0256519 119.28525,9.19359847 C119.51625,8.36204885 119.8095,7.59503817 120.16575,6.89296947 L120.37025,6.96148855 C120.1125,8.28169008 119.925,9.60395725 119.808,10.9279878 C119.69025,12.2522702 119.63175,13.578316 119.63175,14.9061252 C119.63175,15.3948275 119.64475,15.877484 119.6715,16.3543466 C119.698,16.8314611 119.73775,17.3065603 119.79075,17.7796443 C120.018,17.8713389 120.27175,17.9438885 120.552,17.9972931 C120.832,18.0506977 121.14275,18.0774 121.48375,18.0774 C122.059,18.0774 122.595,17.989484 123.091,17.8139038 C123.58725,17.6385756 124.0415,17.3962397 124.45475,17.0868962 C124.86725,16.7780565 125.23275,16.4137969 125.55075,15.9938656 C125.869,15.5741863 126.13775,15.1220107 126.3575,14.6373389 C126.57725,14.1526672 126.744,13.6488504 126.8575,13.1261405 C126.971,12.6034305 127.02775,12.0787053 127.02775,11.5519649 C127.02775,11.0330336 126.971,10.5045298 126.8575,9.96645344 C126.744,9.4283771 126.57525,8.90566718 126.35175,8.39807176 C126.1285,7.89072824 125.85575,7.41567939 125.534,6.97282443 C125.212,6.53022137 124.8425,6.14278626 124.426,5.8110229 C124.0095,5.47875573 123.54925,5.21551145 123.04575,5.02103817 C122.542,4.82631298 121.9985,4.72907634 121.4155,4.72907634 C120.93825,4.72907634 120.44575,4.81674046 119.9385,4.99257252 C119.431,5.16815267 118.97075,5.41426718 118.55825,5.73066412 C118.14525,6.04756489 117.8045,6.42744275 117.53575,6.86979389 C117.26675,7.31264885 117.1325,7.79701832 117.1325,8.32350687 C117.1325,8.52981985 117.15675,8.71497252 117.206,8.87871298 C117.2555,9.04320916 117.3085,9.19359847 117.36525,9.33114046 C117.422,9.46843053 117.475,9.5964 117.52425,9.71454504 C117.5735,9.83294198 117.59825,9.95310229 117.59825,10.075026 C117.59825,10.2967053 117.52425,10.4816061 117.3765,10.630484 C117.22875,10.7791099 117.049,10.8536748 116.837,10.8536748 C116.64,10.8536748 116.48475,10.8002702 116.37125,10.6934611 C116.2575,10.5866519 116.1685,10.4528885 116.104,10.2929267 C116.0395,10.1324611 115.99775,9.96267481 115.979,9.78331603 C115.96025,9.60395725 115.95075,9.44550687 115.95075,9.30821679 C115.95075,8.63688092 116.108,8.02827023 116.42225,7.48218321 C116.7365,6.93680153 117.1475,6.45036641 117.65475,6.02287786 C117.973,5.7480458 118.293,5.50570992 118.615,5.29587023 C118.93675,5.08603053 119.268,4.91070229 119.609,4.76912977 C119.94975,4.62806107 120.30775,4.52125191 120.68275,4.44845038 C121.05775,4.37615267 121.457,4.33987786 121.88125,4.33987786 C122.86575,4.33987786 123.77475,4.50991603 124.608,4.84923664 C125.441,5.18906107 126.15875,5.66214504 126.76075,6.26874046 C127.363,6.87558779 127.8325,7.59680153 128.16975,8.43258321 C128.50675,9.26816336 128.67525,10.1858656 128.67525,11.1856901 C128.67525,12.2159954 128.49525,13.179545 128.1355,14.076087 C127.77575,14.9731328 127.276,15.7553084 126.636,16.4231176 C125.996,17.0909267 125.2365,17.6156519 124.358,17.9972931 C123.47925,18.3786824 122.52125,18.569629 121.48375,18.569629 C121.21825,18.569629 120.94975,18.5545145 120.677,18.5237817 C120.40425,18.4933008 120.13525,18.4550107 119.8705,18.4091634 C120.1205,20.1342321 120.57475,21.8358733 121.23375,23.5150947 C121.2565,23.5760565 121.27725,23.6390336 121.29625,23.704026 C121.315,23.7687664 121.3245,23.8317435 121.3245,23.8927053" id="Fill-26" fill="#A32430"></path>
            <path d="M129.80725,17.1386634 L130.09125,17.1386634 C130.364,17.1386634 130.64425,17.0945794 130.932,17.0069153 C131.21975,16.9192511 131.479,16.7892664 131.71025,16.6177168 C131.94125,16.4459153 132.1325,16.2340603 132.284,15.9824038 C132.4355,15.7304954 132.511,15.4440756 132.511,15.1236481 C132.511,14.8110298 132.44475,14.5513122 132.3125,14.3452511 C132.17975,14.1391901 131.9505,14.0364115 131.625,14.0364115 C131.2915,14.0364115 131.00975,14.1374267 130.77875,14.3397092 C130.5475,14.5417397 130.36,14.7901214 130.21625,15.0838466 C130.07225,15.3775718 129.968,15.6866634 129.904,16.0108695 C129.8395,16.3353275 129.80725,16.6235107 129.80725,16.8751672 L129.80725,17.1386634 Z M135.69225,18.5465794 C135.49525,18.8367779 135.25875,19.1075794 134.98225,19.3592359 C134.70575,19.6111443 134.403,19.8287931 134.07325,20.0119305 C133.74375,20.1953198 133.399,20.3399153 133.0395,20.4469763 C132.6795,20.5537855 132.318,20.607442 131.9545,20.607442 C131.43925,20.607442 130.95825,20.5404344 130.5115,20.4069229 C130.0645,20.2731595 129.67475,20.0693656 129.3415,19.7945336 C129.00825,19.5197015 128.74675,19.174587 128.5575,18.7584344 C128.368,18.3425336 128.2735,17.8560985 128.2735,17.2988771 C128.2735,16.749213 128.374,16.2360756 128.5745,15.7589611 C128.77525,15.2823504 129.0515,14.8661977 129.404,14.5112588 C129.75625,14.1563198 130.17075,13.8759458 130.648,13.6696328 C131.125,13.4638237 131.63625,13.3607931 132.18175,13.3607931 C132.439,13.3607931 132.6795,13.3970679 132.90325,13.4696176 C133.1265,13.5421672 133.32175,13.6489763 133.48825,13.790045 C133.65475,13.9313656 133.7855,14.1049305 133.88025,14.3107397 C133.97475,14.5170527 134.02225,14.7535947 134.02225,15.0208695 C134.02225,15.3412969 133.95775,15.6236863 133.829,15.8677855 C133.70025,16.1121366 133.53,16.325755 133.31775,16.5088924 C133.10575,16.6922817 132.865,16.8449382 132.59625,16.9668618 C132.3275,17.0890374 132.04725,17.1882893 131.75575,17.2646176 C131.464,17.3409458 131.1765,17.3961137 130.89225,17.4303733 C130.60825,17.4648847 130.34875,17.4820145 130.114,17.4820145 L129.8415,17.4820145 C129.9395,18.176526 130.21225,18.707045 130.65925,19.0733198 C131.106,19.4395947 131.72325,19.6227321 132.511,19.6227321 C133.07175,19.6227321 133.619,19.5237321 134.153,19.3252282 C134.68675,19.1267244 135.16975,18.8521443 135.6015,18.5007321 L135.69225,18.5465794 Z" id="Fill-27" fill="#A32430"></path>
            <path d="M144.95175,18.5465542 C144.80775,18.8213863 144.65425,19.0848824 144.4915,19.3365389 C144.32875,19.5884473 144.145,19.8098748 143.9405,20.0003176 C143.73625,20.1912641 143.505,20.3439206 143.24775,20.4585389 C142.98975,20.5729053 142.69475,20.6300885 142.3615,20.6300885 C141.9825,20.6300885 141.657,20.5366305 141.38425,20.3497145 C141.11175,20.1627985 140.87875,19.9146687 140.6855,19.6055771 C140.4925,19.2967374 140.337,18.9435618 140.21975,18.5465542 C140.102,18.1500504 140.00575,17.7452336 139.93,17.3333634 C139.85425,16.9209893 139.7975,16.5146611 139.7595,16.1141267 C139.72175,15.7133405 139.6875,15.3526076 139.65725,15.0321802 C139.5135,15.1465466 139.33925,15.3662107 139.13475,15.6904168 C138.93025,16.0148748 138.72175,16.3945008 138.50975,16.8295466 C138.29775,17.2645924 138.09525,17.7376763 137.90225,18.2490504 C137.709,18.7604244 137.5515,19.2642412 137.4305,19.7599969 C137.40775,19.867058 137.372,19.9776458 137.3225,20.0922641 C137.27325,20.2066305 137.21275,20.3114244 137.141,20.4068977 C137.069,20.502371 136.98375,20.5824779 136.88525,20.6474702 C136.78675,20.7122107 136.67675,20.744455 136.55575,20.744455 C136.35875,20.744455 136.21675,20.6759359 136.12975,20.5386458 C136.0425,20.4011038 135.98,20.2446687 135.94225,20.0693405 C135.7225,19.0999969 135.56925,18.172974 135.48225,17.287516 C135.395,16.402058 135.3515,15.5171038 135.3515,14.6313939 C135.3515,14.4177756 135.38725,14.2328748 135.4595,14.0761878 C135.53125,13.9200046 135.628,13.7900198 135.749,13.6869893 C135.87025,13.5839588 136.01425,13.5078824 136.181,13.4582565 C136.3475,13.4086305 136.52175,13.3836916 136.7035,13.3836916 L136.81125,13.3836916 C136.86075,13.3836916 136.908,13.3892336 136.9535,13.4008214 C136.99875,13.4121573 137.03675,13.429287 137.067,13.4522107 C137.09725,13.4751344 137.1085,13.5058672 137.10125,13.5441573 C136.90425,14.5437298 136.8095,15.560684 136.81725,16.5947679 C136.8245,17.6288519 136.8775,18.6231344 136.97625,19.5771115 C137.0595,19.1954702 137.1825,18.7621878 137.34525,18.2777679 C137.50825,17.7930962 137.6975,17.3043939 137.9135,16.8121649 C138.12925,16.3199359 138.364,15.8506305 138.61775,15.4042489 C138.8715,14.9578672 139.131,14.5820198 139.396,14.2767069 C139.52475,14.1318595 139.65525,14.0074168 139.78825,13.9043863 C139.9205,13.8016076 140.08525,13.7499664 140.28225,13.7499664 C140.39575,13.7499664 140.4905,13.7728901 140.56625,13.8184855 C140.642,13.8645847 140.7045,13.9217679 140.75375,13.990287 C140.80275,14.059058 140.84075,14.1374015 140.86725,14.2250656 C140.89375,14.3127298 140.9145,14.3986305 140.92975,14.482516 C140.9675,14.7041954 141.0055,14.9903634 141.0435,15.3412718 C141.08125,15.6924321 141.12875,16.0662641 141.1855,16.4630198 C141.24225,16.8600275 141.31225,17.2587985 141.3955,17.6595847 C141.47875,18.0601191 141.58475,18.4228672 141.71375,18.7470733 C141.84225,19.0715313 141.998,19.3365389 142.1795,19.5426 C142.3615,19.7486611 142.57725,19.8516916 142.82725,19.8516916 C143.0315,19.8516916 143.2305,19.8116382 143.42375,19.7315313 C143.61675,19.6514244 143.80025,19.5483939 143.97475,19.4224397 C144.14875,19.2967374 144.3115,19.1516382 144.46325,18.9873939 C144.6145,18.8234015 144.75075,18.6611725 144.87225,18.5007069 L144.95175,18.5465542 Z" id="Fill-28" fill="#A32430"></path>
            <path d="M122.4385,25.7865779 C122.3555,25.7865779 122.279,25.7734786 122.20975,25.7480359 C122.14,25.7218374 122.0795,25.684555 122.02825,25.6354328 C121.921,25.5318985 121.86725,25.3930969 121.86725,25.2182725 C121.86725,25.0510053 121.93075,24.9096847 122.05775,24.7940588 C122.17975,24.6784328 122.32625,24.6204939 122.497,24.6204939 C122.668,24.6204939 122.80475,24.6721351 122.90725,24.7754176 C123.00975,24.8789519 123.061,25.019013 123.061,25.1961046 C123.061,25.3633718 123,25.5049443 122.878,25.6205702 C122.75825,25.731158 122.61175,25.7865779 122.4385,25.7865779 Z M122.215,30.9711046 C121.83925,30.9711046 121.65125,30.8849519 121.65125,30.7128985 C121.65125,30.6242267 121.67075,30.5554557 121.70975,30.5060817 C121.76825,30.5259824 121.822,30.5358069 121.87075,30.5358069 C122.098,30.5358069 122.209,30.3904557 122.20425,30.1002573 L122.20425,27.6280282 C122.20425,27.4557229 122.1805,27.3358145 122.1325,27.2683031 C122.08525,27.2005397 122.00025,27.166784 121.87825,27.166784 C121.78775,27.166784 121.706,27.1778679 121.63275,27.199784 C121.589,27.2048221 121.55725,27.1703107 121.53775,27.0965015 C121.5205,27.0302496 121.53025,26.9718069 121.567,26.9214252 C121.6035,26.8710435 121.6605,26.8181427 121.737,26.762471 C121.81425,26.7073031 121.899,26.6586847 121.99175,26.6168679 C122.192,26.5208908 122.35925,26.4730282 122.4935,26.4730282 C122.62775,26.4730282 122.727,26.4926771 122.79175,26.5319748 C122.8565,26.5712725 122.906,26.6241733 122.94025,26.6906771 C122.994,26.7989977 123.02075,26.9735702 123.02075,27.2146466 L123.02075,30.1629824 C123.028,30.3574557 123.09775,30.4753489 123.2295,30.5171656 C123.26625,30.5295092 123.31125,30.5405931 123.365,30.5504176 C123.41875,30.560242 123.46675,30.5720817 123.5095,30.5854328 C123.55225,30.5992878 123.586,30.6144023 123.61025,30.6315321 C123.652,30.6635244 123.67275,30.7154176 123.67275,30.7867076 C123.67275,30.8751275 123.65425,30.9428908 123.61775,30.9894939 C123.5665,30.9771504 123.48825,30.9711046 123.38325,30.9711046 L122.215,30.9711046 Z" id="Fill-29" fill="#6D6E70"></path>
            <path d="M127.02,27.3438 C126.78075,27.1594031 126.5025,27.0669527 126.185,27.0669527 C125.80425,27.0669527 125.49525,27.2085252 125.2585,27.4914183 C125.0045,27.7939603 124.87775,28.2060824 124.87775,28.7275328 C124.87775,29.5565634 125.112,30.0681893 125.58075,30.2626626 C125.72725,30.3216092 125.86925,30.3513344 126.00725,30.3513344 C126.14525,30.3513344 126.26075,30.3402504 126.3535,30.3180824 C126.44625,30.2959145 126.533,30.2664412 126.6135,30.2294107 C126.7745,30.1556015 126.91,30.0659221 127.02,29.9601206 L127.02,27.3438 Z M127.031,30.5097847 C126.6525,30.866487 126.23625,31.0448382 125.78225,31.0448382 C125.28175,31.0448382 124.874,30.8727847 124.559,30.528426 C124.21725,30.1495557 124.04625,29.6268458 124.04625,28.9600443 C124.04625,28.2098611 124.28325,27.5997389 124.75675,27.1296779 C125.19875,26.6918611 125.72125,26.4729527 126.32425,26.4729527 C126.566,26.4729527 126.79775,26.5135099 127.02,26.5946244 L127.02,25.5282962 C127.02,25.3559908 127.003,25.2466626 126.96875,25.1998076 C126.9125,25.1212122 126.821,25.0819145 126.694,25.0819145 C126.64025,25.0819145 126.587,25.0872046 126.53475,25.0985405 C126.48225,25.1093725 126.4455,25.1093725 126.42475,25.0985405 C126.404,25.0872046 126.38775,25.0718382 126.3755,25.0521893 C126.32675,24.9710748 126.38775,24.8677924 126.5585,24.742342 C126.827,24.5430824 127.092,24.4433267 127.35325,24.4433267 C127.629,24.4433267 127.7865,24.5947237 127.82575,24.8972656 C127.8355,24.9882046 127.84025,25.0841817 127.84025,25.1851969 L127.84025,29.4694031 C127.84025,29.8480214 127.855,30.0843115 127.88425,30.1777695 C127.9135,30.2712275 127.94825,30.3321893 127.98875,30.360655 C128.02875,30.3888687 128.0795,30.4029756 128.1405,30.4029756 C128.20175,30.4029756 128.25175,30.3931511 128.29075,30.3732504 L128.4005,30.3253878 C128.43225,30.3180824 128.4605,30.3326931 128.48475,30.3697237 C128.536,30.4458 128.5435,30.5148229 128.50675,30.5762885 C128.47025,30.6377542 128.41525,30.6969527 128.342,30.7533802 C128.26875,30.8100595 128.187,30.8591817 128.09675,30.9009985 C127.70125,31.0806092 127.40575,31.0843878 127.2105,30.9120824 C127.11525,30.8284489 127.0555,30.6944336 127.031,30.5097847 Z" id="Fill-30" fill="#6D6E70"></path>
            <path d="M129.77025,28.3659435 C130.4735,28.3314321 131.11675,28.2860885 131.70025,28.2294092 C131.727,27.4469817 131.4585,27.0560198 130.8945,27.0560198 C130.5795,27.0560198 130.322,27.1789511 130.12175,27.4250656 C129.93875,27.6512794 129.8215,27.9649053 129.77025,28.3659435 M128.95725,28.9858901 C128.95725,28.6881344 128.98775,28.4236305 129.04875,28.1923786 C129.10975,27.9613786 129.192,27.754058 129.29625,27.5709206 C129.39975,27.3875313 129.52175,27.2268137 129.66225,27.0892718 C129.8025,26.9514779 129.9535,26.8371115 130.1145,26.7459206 C130.432,26.5640427 130.7445,26.4728519 131.052,26.4728519 C131.35975,26.4728519 131.60625,26.5277679 131.79175,26.6370962 C131.97725,26.7466763 132.12875,26.8922794 132.24575,27.0744092 C132.46325,27.421287 132.57175,27.8825313 132.57175,28.458142 C132.57175,28.6722641 132.48275,28.7815924 132.3045,28.7866305 L129.74825,28.8420504 C129.763,29.3758443 129.89975,29.7705847 130.1585,30.0265237 C130.37825,30.242913 130.6625,30.3512336 131.01175,30.3512336 C131.53175,30.3512336 131.954,30.2416534 132.27875,30.022745 C132.30075,30.022745 132.32775,30.0411344 132.3595,30.0781649 C132.4205,30.151974 132.451,30.2159588 132.451,30.2701191 C132.451,30.3880122 132.3045,30.5394092 132.0115,30.7238061 C131.6745,30.9354092 131.2815,31.0412107 130.83225,31.0412107 C130.24625,31.0412107 129.78625,30.8530351 129.45175,30.476684 C129.122,30.1076382 128.95725,29.6106229 128.95725,28.9858901" id="Fill-31" fill="#6D6E70"></path>
            <path d="M135.66275,30.0190924 C135.66275,29.6649092 135.66525,29.3129931 135.67,28.9635962 C135.16225,28.9834969 134.81725,29.016245 134.6355,29.0615885 C134.4535,29.107184 134.3225,29.1507641 134.242,29.1925809 C134.16125,29.2343977 134.09775,29.2835198 134.0515,29.3401992 C133.97575,29.4336573 133.938,29.5742221 133.938,29.7626496 C133.938,29.9505733 134.00375,30.1009626 134.13575,30.2130618 C134.2675,30.3249092 134.45675,30.3805809 134.70325,30.3805809 C135.0525,30.3805809 135.37225,30.2601687 135.66275,30.0190924 M135.67375,30.5025046 C135.31725,30.861726 134.8865,31.0413366 134.381,31.0413366 C133.9905,31.0413366 133.678,30.9279779 133.4435,30.7017641 C133.20675,30.4730313 133.08825,30.1765351 133.08825,29.8125275 C133.08825,29.3598481 133.2885,29.0202756 133.68875,28.7940618 C134.05025,28.587245 134.55925,28.4839626 135.216,28.4839626 L135.67375,28.4839626 C135.67625,28.3905046 135.6775,28.2995656 135.6775,28.2108939 L135.6775,27.9342985 C135.6775,27.6045504 135.62975,27.3720389 135.5345,27.2367641 C135.42725,27.0843595 135.244,27.0080313 134.98525,27.0080313 C134.392,27.0080313 134.08675,27.2219015 134.06975,27.6501458 C134.06725,27.7163977 134.0685,27.7718176 134.0735,27.8161534 C134.0245,27.8554511 133.942,27.8751 133.82625,27.8751 C133.71025,27.8751 133.626,27.8614969 133.5735,27.8345427 C133.521,27.8075885 133.47525,27.770558 133.43625,27.723955 C133.35325,27.6279779 133.31175,27.5055504 133.31175,27.3569244 C133.31175,27.2080466 133.355,27.077558 133.4415,26.9657107 C133.52825,26.8538634 133.64625,26.7619168 133.795,26.6906267 C134.08575,26.5455275 134.42875,26.4729779 134.82425,26.4729779 C135.21975,26.4729779 135.51675,26.5115198 135.716,26.5893595 C135.91475,26.6664435 136.073,26.769474 136.19,26.8971916 C136.39775,27.1236573 136.50125,27.4274588 136.50125,27.8088481 L136.46475,29.580016 C136.46475,29.9022069 136.48,30.1065046 136.5105,30.1926573 C136.541,30.278558 136.5775,30.3364969 136.62025,30.3659702 C136.663,30.3954435 136.7155,30.4103061 136.778,30.4103061 C136.84,30.4103061 136.89075,30.4004817 136.92975,30.3805809 L137.0325,30.3327183 C137.0665,30.3203748 137.09625,30.3344817 137.12225,30.3752908 C137.14775,30.4155962 137.1605,30.4516191 137.1605,30.4821 C137.1605,30.5130847 137.14775,30.5528863 137.12225,30.6020084 C137.09625,30.6513824 137.049,30.7035275 136.97925,30.7591992 C136.90975,30.8141153 136.831,30.8629855 136.743,30.9048023 C136.25725,31.1360542 135.9265,31.0818939 135.75075,30.7423214 C135.714,30.6758176 135.6885,30.5959626 135.67375,30.5025046" id="Fill-32" fill="#6D6E70"></path>
            <path d="M140.1635,27.7829015 C140.1635,27.4040313 140.00725,27.1531305 139.69475,27.0301992 C139.59475,26.9906496 139.4865,26.9710008 139.3705,26.9710008 C139.2545,26.9710008 139.1475,26.9808252 139.04825,27.000726 C138.94975,27.0203748 138.86225,27.0511076 138.7865,27.0929244 C138.61575,27.1863824 138.53025,27.3203977 138.53025,27.4952221 C138.53025,27.6624893 138.601,27.8075885 138.7425,27.9305198 C138.89875,28.0610084 139.1895,28.221474 139.61425,28.4121687 C140.039,28.6028634 140.3665,28.8106878 140.5975,29.035642 C140.828,29.2608481 140.9435,29.5198099 140.9435,29.8125275 C140.9435,30.1420237 140.80925,30.4201305 140.54075,30.6463443 C140.22575,30.9095885 139.79,31.0413366 139.23325,31.0413366 C138.55225,31.0413366 138.081,30.8949779 137.81975,30.6020084 C137.7295,30.498726 137.68425,30.3672298 137.68425,30.2072679 C137.68425,29.8210924 137.77825,29.5958863 137.96625,29.5319015 C138.01275,29.5172908 138.0565,29.5097336 138.098,29.5097336 C138.21275,29.5097336 138.275,29.5455046 138.28475,29.6167947 C138.3385,30.231955 138.68025,30.5392832 139.31025,30.5392832 C139.68875,30.5392832 139.94125,30.432474 140.06825,30.2183519 C140.10975,30.1495809 140.1305,30.0659473 140.1305,29.9674511 C140.1305,29.868955 140.0995,29.7792756 140.037,29.6981611 C139.975,29.6167947 139.88875,29.5412221 139.779,29.4709397 C139.669,29.4011611 139.5385,29.332642 139.38725,29.2663901 L138.9,29.0449626 C138.153,28.7006038 137.7795,28.2428863 137.7795,27.6723137 C137.7795,27.3032679 137.94175,27.0080313 138.2665,26.7866038 C138.57425,26.5775198 138.971,26.4729779 139.45675,26.4729779 C140.116,26.4729779 140.526,26.6168176 140.68725,26.9047489 C140.72875,26.978558 140.7495,27.0596725 140.7495,27.1480924 C140.7495,27.2367641 140.7445,27.3161153 140.73475,27.3863977 C140.725,27.4561763 140.71275,27.5196573 140.69825,27.5763366 C140.67375,27.6844053 140.64575,27.7607336 140.614,27.8050695 C140.5505,27.8516725 140.4595,27.8751 140.34125,27.8751 C140.2225,27.8751 140.1635,27.8443672 140.1635,27.7829015" id="Fill-33" fill="#6D6E70"></path>
            <path d="M18.480975,19.4463206 L17.198225,27.7489695 L17.789475,19.5697557 C16.765475,17.7736489 12.099225,10.4826641 2.496225,7.83384733 C1.814725,9.22941985 1.251725,10.7098855 0.831225,12.2588702 C0.058225,15.1061908 -0.158525,17.8965802 0.109975,20.4877099 C11.799225,23.2325038 16.574475,32.8732901 16.574475,32.8732901 C16.574475,32.8732901 21.492975,26.8312672 30.3415,24.9263359 C31.75775,22.7765496 32.87725,20.3486565 33.58975,17.7252824 C34.1575,15.633687 34.42375,13.5730763 34.4195,11.599374 C25.62775,12.5314351 20.067225,17.7587863 18.480975,19.4463206" id="Fill-34" fill="#6D6E70"></path>
        </g>
    </g>
</svg>