<?xml version="1.0" encoding="UTF-8"?>
<svg width="160px" height="90px" viewBox="0 0 160 90" version="1.1" xmlns="http://www.w3.org/2000/svg" xmlns:xlink="http://www.w3.org/1999/xlink">
    <!-- Generator: Sketch 49.3 (51167) - http://www.bohemiancoding.com/sketch -->
    <title>Northstar Coaching Systems logo designed by Isral Duke</title>
    <desc>Created with Sketch.</desc>
    <defs></defs>
    <g id="Northstar-Coaching-Systems-logo-designed-by-Isral-Duke" stroke="none" stroke-width="1" fill="none" fill-rule="evenodd">
        <g id="Page-1" transform="translate(11.000000, 18.000000)">
            <path d="M36.5489052,21.4366698 C36.6169651,21.4667921 36.6891613,21.5335187 36.7654937,21.6364683 L48.4240872,37.4594468 C48.3985177,37.2013101 48.385733,36.9519432 48.385733,36.7109647 L48.385733,21.3912957 L49.5310954,21.3912957 L49.5310954,39.653418 L48.9076512,39.653418 C48.7121199,39.653418 48.5553188,39.5676266 48.4364959,39.3956626 L36.7271395,23.5467561 C36.752709,23.8048928 36.7654937,24.0500655 36.7654937,24.2822741 L36.7654937,39.653418 L35.6325401,39.653418 L35.6325401,21.3912957 L36.2687689,21.3912957 C36.3875918,21.3912957 36.4808452,21.4065475 36.5489052,21.4366698" id="Fill-1" fill="#008FBE"></path>
            <path d="M57.8163597,38.8533849 C58.5714114,38.8533849 59.2313297,38.7222194 59.7957384,38.4598885 C60.3597711,38.1975576 60.8309264,37.8208381 61.2084523,37.3304928 C61.5856022,36.8401475 61.8679946,36.2483777 62.0545014,35.555946 C62.2413842,34.8635144 62.3346376,34.0868165 62.3346376,33.2262338 C62.3346376,32.3744209 62.2413842,31.6003921 62.0545014,30.9033849 C61.8679946,30.2063777 61.5856022,29.610795 61.2084523,29.1158741 C60.8309264,28.6213345 60.3597711,28.2404209 59.7957384,27.9735144 C59.2313297,27.7069892 58.5714114,27.573536 57.8163597,27.573536 C57.0613079,27.573536 56.4013896,27.7069892 55.8373569,27.9735144 C55.2729482,28.2404209 54.8017929,28.6213345 54.4246431,29.1158741 C54.0471172,29.610795 53.7628447,30.2063777 53.5718256,30.9033849 C53.3808065,31.6003921 53.285297,32.3744209 53.285297,33.2262338 C53.285297,34.0868165 53.3808065,34.8635144 53.5718256,35.555946 C53.7628447,36.2483777 54.0471172,36.8401475 54.4246431,37.3304928 C54.8017929,37.8208381 55.2729482,38.1975576 55.8373569,38.4598885 C56.4013896,38.7222194 57.0613079,38.8533849 57.8163597,38.8533849 M57.8163597,26.6054281 C58.7244523,26.6054281 59.5366594,26.7629029 60.253733,27.0767086 C60.9708065,27.3908957 61.5754496,27.8358669 62.0676621,28.4123849 C62.5594986,28.9889029 62.9347684,29.6836223 63.1938474,30.4965432 C63.4525504,31.3098453 63.5819019,32.2196151 63.5819019,33.2262338 C63.5819019,34.2328525 63.4525504,35.1410971 63.1938474,35.9494424 C62.9347684,36.7581691 62.5594986,37.450982 62.0676621,38.0275 C61.5754496,38.604018 60.9708065,39.0470827 60.253733,39.3566942 C59.5366594,39.6663058 58.7244523,39.8214928 57.8163597,39.8214928 C56.908267,39.8214928 56.0960599,39.6663058 55.3793624,39.3566942 C54.6619128,39.0470827 54.0553896,38.604018 53.5590409,38.0275 C53.0626921,37.450982 52.6851662,36.7581691 52.4264632,35.9494424 C52.1673842,35.1410971 52.0380327,34.2328525 52.0380327,33.2262338 C52.0380327,32.2196151 52.1673842,31.3098453 52.4264632,30.4965432 C52.6851662,29.6836223 53.0626921,28.9889029 53.5590409,28.4123849 C54.0553896,27.8358669 54.6619128,27.3908957 55.3793624,27.0767086 C56.0960599,26.7629029 56.908267,26.6054281 57.8163597,26.6054281" id="Fill-2" fill="#008FBE"></path>
            <path d="M66.2550409,39.6535705 L66.2550409,26.8119374 L66.8912698,26.8119374 C67.0356621,26.8119374 67.1398202,26.8420597 67.2029918,26.9023043 C67.2669155,26.9625489 67.3030136,27.0658799 67.3116621,27.2122971 L67.413188,29.9225417 C67.8204196,28.8816065 68.3633951,28.0660165 69.0424905,27.4765345 C69.7212098,26.8874338 70.5567302,26.5926928 71.5498038,26.5926928 C71.9314659,26.5926928 72.2834223,26.6334914 72.606049,26.7150885 C72.9286757,26.7970669 73.2340054,26.9152683 73.5224142,27.0700741 L73.3569646,27.9218871 C73.3313951,28.0595345 73.2467902,28.1285489 73.1023978,28.1285489 C73.0516349,28.1285489 72.9794387,28.1113906 72.8861853,28.0766928 C72.7925559,28.0423763 72.6759891,28.0038655 72.536109,27.9607791 C72.3962289,27.9176928 72.2243869,27.879182 72.0205831,27.8444842 C71.8171553,27.8101676 71.5832698,27.7930094 71.3208065,27.7930094 C70.3615749,27.7930094 69.5749373,28.0942324 68.9597657,28.6962971 C68.344218,29.2987432 67.8459891,30.1677144 67.463951,31.3035921 L67.463951,39.6535705 L66.2550409,39.6535705 Z" id="Fill-3" fill="#008FBE"></path>
            <path d="M79.8094986,39.8600417 C78.952545,39.8600417 78.2862343,39.6194446 77.8113188,39.1371065 C77.3360272,38.6555309 77.0987575,37.9112432 77.0987575,36.9046245 L77.0987575,28.1283583 L75.278436,28.1283583 C75.1851826,28.1283583 75.1088501,28.1028115 75.0494387,28.0509554 C74.9900272,27.9994806 74.9603215,27.9262719 74.9603215,27.8317108 L74.9603215,27.3539482 L77.123951,27.1991424 L77.4262725,22.6045381 C77.434545,22.5271353 77.4661308,22.4585022 77.520654,22.3982576 C77.5751771,22.3380129 77.6485014,22.3078906 77.7410027,22.3078906 L78.3076676,22.3078906 L78.3076676,27.2121065 L82.2912425,27.2121065 L82.2912425,28.1283583 L78.3076676,28.1283583 L78.3076676,36.8401856 C78.3076676,37.1928835 78.3524142,37.4963942 78.4411553,37.7499554 C78.5302725,38.0038978 78.6532316,38.2124662 78.8104087,38.3756604 C78.9672098,38.5396173 79.1518365,38.6597252 79.3639128,38.7371281 C79.5759891,38.8145309 79.8049864,38.853423 80.0512807,38.853423 C80.3569864,38.853423 80.6198256,38.8084302 80.8405504,38.717682 C81.0608992,38.6276964 81.2519183,38.5285597 81.4132316,38.4210345 C81.5741689,38.3135094 81.7057766,38.214754 81.8076785,38.1243871 C81.9095804,38.0336388 81.990049,37.988646 82.0494605,37.988646 C82.1175204,37.988646 82.1852044,38.0317324 82.2532643,38.117905 L82.5841635,38.6597252 C82.2615368,39.0211928 81.8524251,39.3117396 81.3557003,39.5309842 C80.8593515,39.7502288 80.3438256,39.8600417 79.8094986,39.8600417" id="Fill-4" fill="#008FBE"></path>
            <path d="M85.422752,39.6535705 L85.422752,20.8751748 L86.6316621,20.8751748 L86.6316621,29.0062899 C87.2171281,28.2749662 87.8853188,27.6919662 88.6362343,27.2572899 C89.3871499,26.822995 90.2294387,26.6056568 91.1631008,26.6056568 C91.8583651,26.6056568 92.4716567,26.7173763 93.0022234,26.9411964 C93.5324142,27.1650165 93.9716076,27.4875921 94.3198038,27.908923 C94.6668719,28.3306353 94.9300872,28.8381388 95.1083215,29.4318151 C95.2869319,30.0258727 95.375673,30.6969518 95.375673,31.4454338 L95.375673,39.6535705 L94.1667629,39.6535705 L94.1667629,31.4454338 C94.1667629,30.240923 93.8952752,29.2964554 93.3515477,28.6124122 C92.8089482,27.9283691 91.977564,27.5863475 90.8573951,27.5863475 C90.0256349,27.5863475 89.2536621,27.8036856 88.5407248,28.2383619 C87.8281635,28.6726568 87.1919346,29.2686209 86.6316621,30.0258727 L86.6316621,39.6535705 L85.422752,39.6535705 Z" id="Fill-5" fill="#008FBE"></path>
            <path d="M105.91406,28.4124612 C105.854649,28.5329504 105.761395,28.593195 105.633924,28.593195 C105.54067,28.593195 105.419591,28.5394324 105.271063,28.4319072 C105.12291,28.324382 104.927755,28.2038928 104.685597,28.0704396 C104.444191,27.9369863 104.146757,27.8168784 103.794801,27.7089719 C103.442845,27.6014468 103.011924,27.5476842 102.503166,27.5476842 C102.044796,27.5476842 101.627035,27.6144108 101.24951,27.7474827 C100.871608,27.8801734 100.548981,28.0586194 100.282005,28.281677 C100.01503,28.5047345 99.8067139,28.7640151 99.6581853,29.0602813 C99.5100327,29.3561662 99.4355804,29.6673029 99.4355804,29.9933101 C99.4355804,30.3967201 99.5374823,30.7314971 99.7412861,30.9972597 C99.9447139,31.2634036 100.212065,31.4906554 100.542965,31.6793964 C100.873864,31.8681374 101.24951,32.0313317 101.669526,32.1685978 C102.089166,32.305864 102.520087,32.4435115 102.961161,32.581159 C103.402234,32.7188065 103.833155,32.8713245 104.253172,33.0390942 C104.672812,33.206864 105.048458,33.4158137 105.379357,33.6651806 C105.710256,33.9149288 105.977608,34.2199647 106.181411,34.5814324 C106.384839,34.9429 106.486741,35.3817705 106.486741,35.8980439 C106.486741,36.4574036 106.387095,36.9778712 106.187804,37.4594468 C105.988136,37.9414036 105.699728,38.3585403 105.322202,38.7116194 C104.944676,39.0643173 104.480289,39.3438065 103.928665,39.5500871 C103.377041,39.7567489 102.749084,39.8600799 102.044796,39.8600799 C101.154,39.8600799 100.385787,39.7159504 99.7412861,39.4276914 C99.0960327,39.1394324 98.5192153,38.7630942 98.0100817,38.2982957 L98.3030027,37.8594252 C98.3451172,37.7907921 98.3921199,37.7393173 98.4428828,37.7050007 C98.4940218,37.6703029 98.565842,37.6531446 98.6590954,37.6531446 C98.7692698,37.6531446 98.9050136,37.722159 99.066703,37.8594252 C99.2276403,37.997454 99.4374605,38.1457777 99.6965395,38.3047777 C99.9552425,38.464159 100.277869,38.6124827 100.663668,38.7501302 C101.049842,38.8877777 101.527014,38.9567921 102.095935,38.9567921 C102.630262,38.9567921 103.101417,38.881677 103.508649,38.7310655 C103.91588,38.580454 104.255052,38.3756986 104.526916,38.1179432 C104.798027,37.8594252 105.004087,37.5562957 105.143967,37.2077921 C105.283847,36.8592885 105.354163,36.4913388 105.354163,36.1043245 C105.354163,35.6742237 105.251886,35.3169504 105.048458,35.0332669 C104.844654,34.7492022 104.577302,34.508605 104.246403,34.3103317 C103.91588,34.1128209 103.54061,33.9450511 103.120218,33.8070223 C102.700202,33.6697561 102.267777,33.5317273 101.822191,33.3940799 C101.376605,33.2568137 100.943804,33.1062022 100.523787,32.9422453 C100.103771,32.7790511 99.7285014,32.5727705 99.3976022,32.3230223 C99.066703,32.0736554 98.7993515,31.7701446 98.5955477,31.4132525 C98.3921199,31.0563604 98.290218,30.6110079 98.290218,30.077195 C98.290218,29.6211662 98.3876076,29.182677 98.5827629,28.7609647 C98.7779183,28.3396338 99.0557984,27.9693964 99.4167793,27.6510151 C99.7773842,27.3326338 100.216202,27.0786914 100.733984,26.8895691 C101.25139,26.7004468 101.832719,26.6055043 102.477597,26.6055043 C103.249569,26.6055043 103.934681,26.7191302 104.532932,26.9456194 C105.131183,27.1728712 105.68055,27.5194683 106.181411,27.9865547 L105.91406,28.4124612 Z" id="Fill-6" fill="#008FBE"></path>
            <path d="M113.079907,39.8600417 C112.222954,39.8600417 111.556643,39.6194446 111.081728,39.1371065 C110.606436,38.6555309 110.36879,37.9112432 110.36879,36.9046245 L110.36879,28.1283583 L108.548845,28.1283583 C108.455215,28.1283583 108.378883,28.1028115 108.319847,28.0509554 C108.260436,27.9994806 108.23073,27.9262719 108.23073,27.8317108 L108.23073,27.3539482 L110.39436,27.1991424 L110.696681,22.6045381 C110.70533,22.5271353 110.73654,22.4585022 110.790687,22.3982576 C110.845586,22.3380129 110.91891,22.3078906 111.011411,22.3078906 L111.578076,22.3078906 L111.578076,27.2121065 L115.562027,27.2121065 L115.562027,28.1283583 L111.578076,28.1283583 L111.578076,36.8401856 C111.578076,37.1928835 111.622447,37.4963942 111.711564,37.7499554 C111.801057,38.0038978 111.92364,38.2124662 112.080817,38.3756604 C112.237619,38.5396173 112.422245,38.6597252 112.634322,38.7371281 C112.846398,38.8145309 113.075395,38.853423 113.321689,38.853423 C113.627019,38.853423 113.889858,38.8084302 114.110583,38.717682 C114.331308,38.6276964 114.522327,38.5285597 114.68364,38.4210345 C114.844578,38.3135094 114.976185,38.214754 115.078087,38.1243871 C115.179989,38.0336388 115.260458,37.988646 115.319869,37.988646 C115.387929,37.988646 115.455237,38.0317324 115.523673,38.117905 L115.854572,38.6597252 C115.531946,39.0211928 115.122834,39.3117396 114.626109,39.5309842 C114.12976,39.7502288 113.61461,39.8600417 113.079907,39.8600417" id="Fill-7" fill="#008FBE"></path>
            <path d="M121.556567,38.9695655 C122.048779,38.9695655 122.500381,38.9158029 122.911749,38.8082777 C123.323493,38.7007525 123.705531,38.550141 124.057488,38.3564432 C124.409444,38.1627453 124.738463,37.9328245 125.043793,37.6662993 C125.349499,37.3993928 125.650692,37.1111338 125.947749,36.801141 L125.947749,33.4587094 C124.742975,33.4930259 123.705531,33.5856806 122.835793,33.7362921 C121.966054,33.8869036 121.248981,34.0912777 120.684948,34.3490331 C120.12054,34.6075511 119.704659,34.9152561 119.437308,35.2721482 C119.169956,35.6290403 119.036469,36.0355007 119.036469,36.4915295 C119.036469,36.9220115 119.106409,37.2937741 119.246289,37.6079612 C119.386545,37.9221482 119.571172,38.1802849 119.800169,38.3823712 C120.029166,38.5844576 120.296518,38.7327813 120.602223,38.8273424 C120.907177,38.9222849 121.225668,38.9695655 121.556567,38.9695655 Z M126.647526,39.6536086 C126.392959,39.6536086 126.235782,39.5331194 126.176747,39.292141 L125.998512,37.652954 C125.650692,37.9972633 125.305128,38.3072561 124.961444,38.5821698 C124.61776,38.857846 124.259035,39.0900547 123.885646,39.279177 C123.512256,39.4686806 123.109537,39.6128101 122.676736,39.7115655 C122.243935,39.8107022 121.768267,39.8598892 121.251237,39.8598892 C120.818436,39.8598892 120.39842,39.7958317 119.991188,39.6665727 C119.583956,39.5373137 119.222975,39.3398029 118.909373,39.0728964 C118.595395,38.8063712 118.342708,38.4643496 118.152065,38.0468317 C117.961046,37.629695 117.865913,37.1282921 117.865913,36.5433856 C117.865913,36.0011842 118.018578,35.4978748 118.323531,35.0330763 C118.629237,34.568659 119.106409,34.164105 119.755798,33.820177 C120.404812,33.4758676 121.240332,33.2005727 122.263112,32.9942921 C123.285515,32.7876302 124.513602,32.667141 125.947749,32.6328245 L125.947749,31.2902849 C125.947749,30.1033137 125.695063,29.1889683 125.190441,28.5480115 C124.685444,27.9070547 123.936785,27.5863856 122.943711,27.5863856 C122.332676,27.5863856 121.81339,27.6725583 121.384725,27.8445223 C120.95606,28.0168676 120.593199,28.2059899 120.296518,28.4126518 C119.99946,28.6189324 119.757678,28.808436 119.571172,28.9804 C119.384665,29.152364 119.227488,29.2385367 119.100392,29.2385367 C118.930431,29.2385367 118.803335,29.1607525 118.718354,29.0063281 L118.502142,28.6318964 C119.16394,27.9608173 119.859204,27.4529324 120.589439,27.1090043 C121.318921,26.7650763 122.146169,26.5927309 123.071183,26.5927309 C123.749902,26.5927309 124.344016,26.7025439 124.85315,26.9217885 C125.362283,27.1414144 125.78418,27.4552201 126.119591,27.8639683 C126.454251,28.2727165 126.706937,28.7672561 126.876523,29.3483496 C127.046485,29.9290619 127.13109,30.5765007 127.13109,31.2902849 L127.13109,39.6536086 L126.647526,39.6536086 Z" id="Fill-8" fill="#008FBE"></path>
            <path d="M130.681864,39.6535705 L130.681864,26.8119374 L131.318093,26.8119374 C131.462485,26.8119374 131.566643,26.8420597 131.629815,26.9023043 C131.693362,26.9625489 131.72946,27.0658799 131.738485,27.2122971 L131.840011,29.9225417 C132.247243,28.8816065 132.790218,28.0660165 133.469313,27.4765345 C134.148033,26.8874338 134.983553,26.5926928 135.976627,26.5926928 C136.358289,26.5926928 136.710245,26.6334914 137.032872,26.7150885 C137.355123,26.7970669 137.660828,26.9152683 137.949237,27.0700741 L137.783787,27.9218871 C137.758218,28.0595345 137.673613,28.1285489 137.529221,28.1285489 C137.478458,28.1285489 137.406262,28.1113906 137.313008,28.0766928 C137.219379,28.0423763 137.102812,28.0038655 136.962932,27.9607791 C136.823052,27.9176928 136.65121,27.879182 136.447406,27.8444842 C136.243978,27.8101676 136.010469,27.7930094 135.747629,27.7930094 C134.788398,27.7930094 134.001384,28.0942324 133.386213,28.6962971 C132.771417,29.2987432 132.272812,30.1677144 131.89115,31.3035921 L131.89115,39.6535705 L130.681864,39.6535705 Z" id="Fill-9" fill="#008FBE"></path>
            <path d="M29.9342305,7.9122518 L1.68521689,7.9122518 C0.868121526,7.9122518 0.205947139,8.58371223 0.205947139,9.41264748 L0.205947139,38.0559827 C0.205947139,38.8845367 0.868121526,39.5563784 1.68521689,39.5563784 L29.9342305,39.5563784 C30.7513259,39.5563784 31.4138763,38.8845367 31.4138763,38.0559827 L31.4138763,9.41264748 C31.4138763,8.58371223 30.7513259,7.9122518 29.9342305,7.9122518 Z" id="Fill-10" fill="#0055B8"></path>
            <path d="M29.9342305,7.9122518 L1.68521689,7.9122518 C0.868121526,7.9122518 0.205947139,8.58371223 0.205947139,9.41264748 L0.205947139,38.0559827 C0.205947139,38.8845367 0.868121526,39.5563784 1.68521689,39.5563784 L29.9342305,39.5563784 C30.7513259,39.5563784 31.4138763,38.8845367 31.4138763,38.0559827 L31.4138763,9.41264748 C31.4138763,8.58371223 30.7513259,7.9122518 29.9342305,7.9122518 Z" id="Stroke-11" stroke="#231F20" stroke-width="0.75"></path>
            <path d="M9.01636349,34.4437086 L4.60637984,29.9715 C4.41987302,29.782759 4.10100654,29.9165935 4.10100654,30.1838813 L4.10100654,39.534759 C4.10100654,39.7006223 4.23374223,39.8348381 4.39693569,39.8348381 L8.80691935,39.8348381 C8.97048883,39.8348381 9.1028485,39.7006223 9.1028485,39.534759 L9.1028485,34.6560899 C9.1028485,34.5763993 9.07201471,34.5001403 9.01636349,34.4437086 M15.0812191,29.1330324 L19.4840583,33.5972338 C19.6701891,33.7863561 19.9890556,33.6525216 19.9890556,33.3852338 L19.9890556,23.734277 L15.0812191,28.7086511 C14.9657804,28.8260899 14.9657804,29.0159748 15.0812191,29.1330324 M4.39693569,23.7293201 L8.91934986,23.7293201 C8.99793842,23.7293201 9.07314278,23.7609676 9.12879401,23.817018 L19.9021946,34.7399748 C19.9578458,34.7964065 19.9890556,34.8726655 19.9890556,34.9523561 L19.9890556,39.5400971 C19.9890556,39.7055791 19.8566959,39.839795 19.6931264,39.839795 L15.1707123,39.839795 C15.0921237,39.839795 15.0169193,39.8081475 14.9612681,39.7520971 L4.18786757,28.8238022 C4.13221635,28.7677518 4.10100654,28.6914928 4.10100654,28.6118022 L4.10100654,24.0293993 C4.10100654,23.863536 4.23374223,23.7293201 4.39693569,23.7293201" id="Fill-12" fill="#FFFFFF"></path>
            <path d="M3.70941744,50.7299223 C3.74062725,50.7299223 3.76958093,50.7428863 3.79515041,50.7688144 L4.02001144,51.0178 C3.84628937,51.2221741 3.63571717,51.3811741 3.38829482,51.4948 C3.14087248,51.6091885 2.84231117,51.6660014 2.49336294,51.6660014 C2.1872812,51.6660014 1.91015313,51.6126201 1.66160272,51.5054763 C1.41305232,51.3983324 1.20097602,51.2484835 1.02537384,51.0555482 C0.850147684,50.8622317 0.713651771,50.6307856 0.617014169,50.3608288 C0.520752589,50.0908719 0.472245777,49.7934619 0.472245777,49.4697424 C0.472245777,49.1456417 0.523760763,48.8486129 0.627542779,48.5782748 C0.731324796,48.308318 0.87646921,48.0764906 1.06410409,47.8824115 C1.25136294,47.6883324 1.47584796,47.5377209 1.73718311,47.4309583 C1.99851826,47.3238144 2.28692698,47.2704331 2.60278529,47.2704331 C2.91450736,47.2704331 3.18298692,47.3192388 3.40897602,47.4172317 C3.63496512,47.5152245 3.83538474,47.6482964 4.01098692,47.8164475 L3.82485613,48.083354 C3.81094332,48.1035626 3.79515041,48.1199583 3.77747738,48.1329223 C3.75980436,48.1458863 3.73385886,48.1523683 3.70039292,48.1523683 C3.67482343,48.1523683 3.64774986,48.142836 3.61917221,48.1241525 C3.59059455,48.1050878 3.55637657,48.0814475 3.51689428,48.0532317 C3.47741199,48.0253971 3.43116131,47.9952748 3.37814223,47.963246 C3.32474714,47.9315986 3.26157548,47.9014763 3.18862725,47.8732604 C3.11567902,47.8454259 3.03069809,47.8217856 2.93406049,47.8027209 C2.83742289,47.7836561 2.72574441,47.774505 2.59977711,47.774505 C2.37265995,47.774505 2.16509591,47.8137784 1.97708501,47.8930878 C1.78832207,47.9720158 1.62625668,48.0844978 1.49013678,48.2305338 C1.35401689,48.3765698 1.24797875,48.5542532 1.17202234,48.7643468 C1.09606594,48.9744403 1.05808774,49.2096993 1.05808774,49.4697424 C1.05808774,49.7377928 1.09606594,49.9764835 1.17202234,50.1869583 C1.24797875,50.3966705 1.35138474,50.574354 1.48261635,50.719246 C1.61384796,50.8645194 1.76914496,50.975095 1.94850736,51.0509727 C2.12824578,51.1268504 2.32152098,51.1649799 2.52870899,51.1649799 C2.65505232,51.1649799 2.7686109,51.157354 2.86900872,51.1424835 C2.96978256,51.1272317 3.06265995,51.1039727 3.14876894,51.0719439 C3.23450191,51.0399151 3.31421853,50.9994978 3.38829482,50.9503108 C3.46237112,50.901505 3.53682343,50.8427856 3.61165177,50.7749151 C3.64511771,50.7447928 3.67783161,50.7299223 3.70941744,50.7299223" id="Fill-13" fill="#0055B8"></path>
            <path d="M11.4382447,51.2428403 C11.7341738,51.2428403 11.9548986,51.1425597 12.1011711,50.941236 C12.2470676,50.7402935 12.3200158,50.4596604 12.3200158,50.099718 C12.3200158,49.7378691 12.2470676,49.4557108 12.1011711,49.2536245 C11.9548986,49.0515381 11.7341738,48.950495 11.4382447,48.950495 C11.288212,48.950495 11.1581084,48.976423 11.047558,49.0286604 C10.9370076,49.0805165 10.8448823,49.1556317 10.770806,49.2536245 C10.6971057,49.3516173 10.6418305,49.4721065 10.6053564,49.6150921 C10.5685063,49.7580777 10.5504572,49.9197468 10.5504572,50.099718 C10.5504572,50.2796892 10.5685063,50.4405957 10.6053564,50.5828187 C10.6418305,50.7250417 10.6971057,50.8443871 10.770806,50.941236 C10.8448823,51.0384662 10.9370076,51.1128187 11.047558,51.1646748 C11.1581084,51.2169122 11.288212,51.2428403 11.4382447,51.2428403 M11.4382447,48.5303079 C11.6570894,48.5303079 11.8548768,48.5672935 12.0316071,48.641646 C12.2079613,48.7156173 12.357994,48.8204734 12.4813292,48.9565957 C12.6046643,49.092718 12.6994218,49.2570561 12.7652256,49.4499914 C12.8314054,49.6433079 12.8644954,49.8587396 12.8644954,50.0966676 C12.8644954,50.3368835 12.8314054,50.5526964 12.7652256,50.7448691 C12.6994218,50.9370417 12.6046643,51.1009986 12.4813292,51.2367396 C12.357994,51.3728619 12.2079613,51.4773367 12.0316071,51.5505453 C11.8548768,51.6233727 11.6570894,51.659977 11.4382447,51.659977 C11.219024,51.659977 11.0216125,51.6233727 10.8448823,51.5505453 C10.6685281,51.4773367 10.5177433,51.3728619 10.3936561,51.2367396 C10.2695689,51.1009986 10.1736834,50.9370417 10.1063755,50.7448691 C10.0394436,50.5526964 10.0059777,50.3368835 10.0059777,50.0966676 C10.0059777,49.8587396 10.0394436,49.6433079 10.1063755,49.4499914 C10.1736834,49.2570561 10.2695689,49.092718 10.3936561,48.9565957 C10.5177433,48.8204734 10.6685281,48.7156173 10.8448823,48.641646 C11.0216125,48.5672935 11.219024,48.5303079 11.4382447,48.5303079" id="Fill-14" fill="#0055B8"></path>
            <path d="M20.0903935,51.2908835 C20.1832708,51.2908835 20.2678757,51.2813511 20.3449602,51.2622863 C20.4216687,51.2432216 20.4942409,51.2165309 20.5623008,51.1814518 C20.6303608,51.1463727 20.6954125,51.1040489 20.7574561,51.053718 C20.8194997,51.0041496 20.8804153,50.9469554 20.9394507,50.8828978 L20.9394507,50.2556676 C20.6969166,50.2556676 20.4908567,50.2713007 20.3212708,50.3025669 C20.151685,50.3338331 20.013309,50.3746317 19.9068948,50.4249626 C19.8004807,50.4749122 19.7230202,50.5343942 19.6745134,50.602646 C19.6263826,50.6712791 19.6023172,50.7479194 19.6023172,50.8321856 C19.6023172,50.9126388 19.6147259,50.9820345 19.6406714,51.0403727 C19.6662409,51.0987108 19.7008349,51.146754 19.7440774,51.1837396 C19.7873199,51.2211065 19.8388349,51.2481784 19.8978703,51.2653367 C19.9572817,51.282495 20.0212054,51.2908835 20.0903935,51.2908835 Z M21.4572327,51.6180345 L21.2237232,51.6180345 C21.1722082,51.6180345 21.1308458,51.6100273 21.0992599,51.5940129 C21.0676741,51.5779986 21.0469929,51.5440633 21.0372163,51.4918259 L20.9781809,51.2100489 C20.8992163,51.2821137 20.8221319,51.3465525 20.7473035,51.4033655 C20.6720992,51.4605597 20.5935106,51.5086029 20.5104098,51.547495 C20.427685,51.5863871 20.3393199,51.6161281 20.2456905,51.6359554 C20.152061,51.656164 20.047903,51.6660777 19.9335924,51.6660777 C19.8170256,51.6660777 19.7079793,51.6493007 19.6064534,51.6165094 C19.5049275,51.5833367 19.4165624,51.5333871 19.3417341,51.467423 C19.2669057,51.4010777 19.2071183,51.3171928 19.1627477,51.2157683 C19.1183771,51.1147252 19.0961918,50.9946173 19.0961918,50.8562072 C19.0961918,50.735718 19.1285297,50.6198043 19.1939575,50.5084662 C19.2590093,50.3971281 19.3639193,50.2979914 19.5090638,50.2118187 C19.6538322,50.1252647 19.8437232,50.0547252 20.0783608,49.9994374 C20.3133744,49.9441496 20.600279,49.9166964 20.9394507,49.9166964 L20.9394507,49.6783871 C20.9394507,49.440459 20.8898158,49.2608691 20.79017,49.139236 C20.6905243,49.0176029 20.5431237,48.9565957 20.3479684,48.9565957 C20.2193689,48.9565957 20.1114507,48.9729914 20.0238376,49.006164 C19.9358485,49.0389554 19.8598921,49.075941 19.7959684,49.1171209 C19.7316687,49.1579194 19.6763935,49.194905 19.6301428,49.2280777 C19.5838921,49.2612504 19.5380174,49.277646 19.4925188,49.277646 C19.4571728,49.277646 19.4259629,49.2681137 19.3996414,49.2490489 C19.3729439,49.2299842 19.3515106,49.2067252 19.3357177,49.1785094 L19.2409602,49.0076892 C19.4067858,48.8456388 19.5853962,48.7247683 19.7767913,48.6446964 C19.9678104,48.5646245 20.1802627,48.5245885 20.4126441,48.5245885 C20.5803499,48.5245885 20.7296305,48.552423 20.8597341,48.6084734 C20.9898376,48.6645237 21.0992599,48.7423079 21.1880011,48.8425885 C21.2767422,48.9424878 21.3436741,49.0637396 21.3895488,49.2055813 C21.4346714,49.3478043 21.4572327,49.503754 21.4572327,49.6738115 L21.4572327,51.6180345 Z" id="Fill-15" fill="#0055B8"></path>
            <path d="M30.2189542,49.1185317 C30.2031613,49.1406468 30.1873684,49.157805 30.1715755,49.1696252 C30.1557826,49.1818266 30.1332213,49.187546 30.1035155,49.187546 C30.0741858,49.187546 30.041848,49.1749633 30.00763,49.1501791 C29.973036,49.1250137 29.9290414,49.0975604 29.8756463,49.0674381 C29.8226272,49.0376971 29.7579515,49.0098626 29.6819951,48.9850784 C29.6060387,48.9599129 29.5127853,48.9477115 29.4022349,48.9477115 C29.2563384,48.9477115 29.1269869,48.9740209 29.0145564,49.0270209 C28.9025019,49.0800209 28.8081204,49.1566612 28.732164,49.2565604 C28.6562076,49.356841 28.5990523,49.4777115 28.5603221,49.6195532 C28.5219678,49.7617763 28.5027907,49.9207763 28.5027907,50.0965532 C28.5027907,50.2807187 28.5234719,50.4442942 28.5648343,50.5872799 C28.6061967,50.7302655 28.6644801,50.8503734 28.7393084,50.9472223 C28.8145128,51.0444525 28.9055101,51.1184237 29.0130523,51.1695173 C29.1205946,51.2206108 29.2412975,51.2461576 29.3755373,51.2461576 C29.5037608,51.2461576 29.6094229,51.2305245 29.6925237,51.1996396 C29.7752485,51.1683734 29.8440605,51.1340568 29.8993357,51.0959273 C29.9546109,51.0577978 30.0001095,51.0234813 30.0354556,50.9925964 C30.0708016,50.9613302 30.1065237,50.9456971 30.1418698,50.9456971 C30.1873684,50.9456971 30.2208343,50.9628554 30.2426436,50.9967906 L30.3907962,51.1916324 C30.2603166,51.354064 30.0978752,51.4722655 29.9023439,51.5473806 C29.7071886,51.6224957 29.5007526,51.6602439 29.284164,51.6602439 C29.0965292,51.6602439 28.9224311,51.6251647 28.7618698,51.5550065 C28.6009324,51.4852295 28.4614283,51.3834237 28.3429815,51.2503518 C28.2245346,51.1172799 28.1312812,50.9537043 28.0635973,50.7600065 C27.9951613,50.5659273 27.9613193,50.3447763 27.9613193,50.0965532 C27.9613193,49.8708266 27.9925292,49.6614957 28.0545728,49.4697043 C28.1166163,49.2775317 28.2072376,49.1120496 28.3268125,48.9732583 C28.4460114,48.8340856 28.593412,48.7254165 28.7690142,48.6476324 C28.9446163,48.5694669 29.145788,48.5305748 29.3729052,48.5305748 C29.5819733,48.5305748 29.767352,48.5648914 29.9290414,48.6339058 C30.0907308,48.7029201 30.2339951,48.8005317 30.3580823,48.9267403 L30.2189542,49.1185317 Z" id="Fill-16" fill="#0055B8"></path>
            <path d="M36.8264845,51.6179964 L36.8264845,47.1984065 L37.353291,47.1984065 L37.353291,48.9866799 C37.4815144,48.8486511 37.6236131,48.7380755 37.7792861,48.6549532 C37.9349591,48.5722122 38.1146975,48.5302698 38.3177493,48.5302698 C38.4813188,48.5302698 38.6260872,48.5581043 38.7513025,48.6130108 C38.8765177,48.6679173 38.9810518,48.7460827 39.0649046,48.8471259 C39.1487575,48.9481691 39.2123052,49.0694209 39.2555477,49.2116439 C39.2991662,49.3538669 39.3209755,49.5105791 39.3209755,49.6825432 L39.3209755,51.6179964 L38.7941689,51.6179964 L38.7941689,49.6825432 C38.7941689,49.4526223 38.7422779,49.2741763 38.6388719,49.147205 C38.5350899,49.0202338 38.3771608,48.9565576 38.1639564,48.9565576 C38.0082834,48.9565576 37.8623869,48.9946871 37.7273951,49.0705647 C37.5924409,49.1468237 37.4676016,49.2497734 37.353291,49.3794137 L37.353291,51.6179964 L36.8264845,51.6179964 Z" id="Fill-17" fill="#0055B8"></path>
            <path d="M46.5910403,51.6181108 L46.0644972,51.6181108 L46.0644972,48.5784273 L46.5910403,48.5784273 L46.5910403,51.6181108 Z M46.709428,47.6244273 C46.709428,47.6762835 46.6989046,47.7247079 46.6782338,47.7697007 C46.6575629,47.8150748 46.6297512,47.8551108 46.5951745,47.8898086 C46.5609736,47.9248878 46.5207594,47.952341 46.4756594,47.9725496 C46.4301835,47.992377 46.3820768,48.0022906 46.3305875,48.0022906 C46.2794741,48.0022906 46.2317432,47.992377 46.187019,47.9725496 C46.1426706,47.952341 46.1032081,47.9248878 46.0690072,47.8898086 C46.0344305,47.8551108 46.0073705,47.8150748 45.9874513,47.7697007 C45.9679079,47.7247079 45.9581362,47.6762835 45.9581362,47.6244273 C45.9581362,47.5721899 45.9679079,47.5226216 45.9874513,47.4757223 C46.0073705,47.428823 46.0344305,47.3876432 46.0690072,47.3529453 C46.1032081,47.3178662 46.1426706,47.2904129 46.187019,47.2702043 C46.2317432,47.250377 46.2794741,47.240082 46.3305875,47.240082 C46.3820768,47.240082 46.4301835,47.250377 46.4756594,47.2702043 C46.5207594,47.2904129 46.5609736,47.3178662 46.5951745,47.3529453 C46.6297512,47.3876432 46.6575629,47.428823 46.6782338,47.4757223 C46.6989046,47.5226216 46.709428,47.5721899 46.709428,47.6244273 Z" id="Fill-18" fill="#0055B8"></path>
            <path d="M53.4090082,51.6179964 L53.4090082,48.5783129 L53.7226104,48.5783129 C53.7974387,48.5783129 53.8448174,48.6152986 53.8647466,48.6896511 L53.906109,49.0194712 C54.0362125,48.8734353 54.181733,48.7556151 54.3426703,48.6656295 C54.5032316,48.5756439 54.6893624,48.5302698 54.9003106,48.5302698 C55.0638801,48.5302698 55.2086485,48.5581043 55.3338638,48.6130108 C55.459079,48.6679173 55.5636131,48.7460827 55.6474659,48.8471259 C55.7313188,48.9481691 55.7948665,49.0694209 55.838109,49.2116439 C55.8817275,49.3538669 55.9035368,49.5105791 55.9035368,49.6825432 L55.9035368,51.6179964 L55.3767302,51.6179964 L55.3767302,49.6825432 C55.3767302,49.4526223 55.3248392,49.2741763 55.2214332,49.147205 C55.1176512,49.0202338 54.9597221,48.9565576 54.7465177,48.9565576 C54.5908447,48.9565576 54.4449482,48.9946871 54.3099564,49.0705647 C54.1749646,49.1468237 54.0501253,49.2497734 53.9358147,49.3794137 L53.9358147,51.6179964 L53.4090082,51.6179964 Z" id="Fill-19" fill="#0055B8"></path>
            <path d="M63.5969428,50.1326619 C63.7033569,50.1326619 63.7977384,50.1177914 63.8793351,50.0876691 C63.9613079,50.0579281 64.0297439,50.0156043 64.0850191,49.9618417 C64.1402943,49.9076978 64.1816567,49.843259 64.2094823,49.7681439 C64.2369319,49.6930288 64.2508447,49.6106691 64.2508447,49.5206835 C64.2508447,49.3346115 64.1951935,49.1866691 64.083515,49.0764748 C63.9722125,48.9666619 63.8097711,48.9113741 63.5969428,48.9113741 C63.3856185,48.9113741 63.2243052,48.9666619 63.1130027,49.0764748 C63.0017003,49.1866691 62.946049,49.3346115 62.946049,49.5206835 C62.946049,49.6106691 62.9603379,49.6930288 62.9889155,49.7681439 C63.0171172,49.843259 63.0592316,49.9076978 63.1145068,49.9618417 C63.169782,50.0156043 63.237842,50.0579281 63.3186866,50.0876691 C63.3995313,50.1177914 63.4924087,50.1326619 63.5969428,50.1326619 M64.531733,51.7722302 C64.531733,51.6948273 64.5114278,51.6326763 64.4696894,51.585777 C64.428327,51.5388777 64.3722997,51.5022734 64.3012316,51.4767266 C64.2301635,51.4511799 64.1481907,51.4324964 64.0556894,51.420295 C63.962812,51.4080935 63.8650463,51.4019928 63.7623924,51.4019928 L63.4487902,51.4019928 C63.342376,51.4019928 63.2408501,51.3882662 63.1442125,51.3615755 C63.031782,51.4157194 62.9404087,51.4816835 62.8704687,51.5598489 C62.8005286,51.6380144 62.7655586,51.7310504 62.7655586,51.8393381 C62.7655586,51.9072086 62.7824796,51.9708849 62.8170736,52.0299856 C62.8516676,52.0890863 62.9043106,52.1401799 62.9753787,52.1832662 C63.0464469,52.2263525 63.135564,52.2606691 63.2434823,52.2854532 C63.3506485,52.3106187 63.4773678,52.3232014 63.6236403,52.3232014 C63.7654005,52.3232014 63.8928719,52.3098561 64.0053025,52.2835468 C64.117733,52.2568561 64.2128665,52.2191079 64.290703,52.1703022 C64.3685395,52.1211151 64.428327,52.062777 64.4696894,51.9956691 C64.5114278,51.9281799 64.531733,51.8538273 64.531733,51.7722302 M63.5969428,48.5274101 C63.7270463,48.5274101 63.8488774,48.5418993 63.962436,48.5708777 C64.0756185,48.5998561 64.1786485,48.6425612 64.2715259,48.6986115 L65.0852371,48.6986115 L65.0852371,48.8965036 C65.0852371,48.9624676 65.0438747,49.0047914 64.9607738,49.0223309 L64.6208501,49.0703741 C64.687782,49.200777 64.721248,49.3456691 64.721248,49.5054317 C64.721248,49.6537554 64.6934223,49.7883525 64.6370191,49.909223 C64.5806158,50.0300935 64.5027793,50.1338058 64.4031335,50.2199784 C64.3034877,50.3057698 64.1850409,50.3717338 64.0481689,50.4178705 C63.910921,50.4640072 63.7605123,50.4868849 63.5969428,50.4868849 C63.4566866,50.4868849 63.324703,50.4697266 63.2002398,50.4357914 C63.1370681,50.4769712 63.0893134,50.5215827 63.0565995,50.5692446 C63.0242616,50.6169065 63.0080926,50.6634245 63.0080926,50.7087986 C63.0080926,50.7831511 63.0366703,50.8395827 63.0938256,50.8780935 C63.1509809,50.916223 63.2269373,50.943295 63.3216948,50.9600719 C63.4164523,50.9764676 63.5239946,50.9848561 63.6439455,50.9848561 L64.0124469,50.9848561 C64.1376621,50.9848561 64.2606213,50.9959137 64.3809482,51.0184101 C64.5012752,51.0405252 64.6088174,51.0771295 64.7035749,51.1274604 C64.7983324,51.1781727 64.8739128,51.2483309 64.9314441,51.3371727 C64.9885995,51.4263957 65.0171771,51.5419281 65.0171771,51.6833885 C65.0171771,51.8153165 64.9852153,51.9426691 64.9209155,52.0662086 C64.8569918,52.1897482 64.7644905,52.2995612 64.6445395,52.3960288 C64.5238365,52.4917338 64.377188,52.5687554 64.2034659,52.6267122 C64.0297439,52.6842878 63.8334605,52.7132662 63.6146158,52.7132662 C63.3957711,52.7132662 63.204,52.6911511 63.0393025,52.6473022 C62.8742289,52.6030719 62.737733,52.5439712 62.6294387,52.47 C62.5207684,52.3960288 62.4391717,52.3102374 62.3850245,52.2130072 C62.3308774,52.1161583 62.3038038,52.0143525 62.3038038,51.9083525 C62.3038038,51.7581223 62.3508065,51.6303885 62.444436,51.5251511 C62.5380654,51.4199137 62.6666649,51.3364101 62.8302343,51.2746403 C62.7456294,51.2346043 62.6783215,51.181223 62.6279346,51.1141151 C62.5775477,51.0473885 62.5523542,50.9577842 62.5523542,50.8460647 C62.5523542,50.8022158 62.5602507,50.7568417 62.5760436,50.7099424 C62.5918365,50.6630432 62.6159019,50.6165252 62.6486158,50.5703885 C62.6809537,50.5246331 62.720812,50.4807842 62.7681907,50.4384604 C62.8155695,50.396518 62.8708447,50.3599137 62.9340163,50.3278849 C62.7862398,50.244 62.670049,50.1322806 62.5861962,49.9931079 C62.5023433,49.8543165 62.4606049,49.6915036 62.4606049,49.5054317 C62.4606049,49.3574892 62.4888065,49.2232734 62.5448338,49.1020216 C62.6012371,48.9811511 62.6798256,48.8778201 62.7802234,48.7931727 C62.8806213,48.7081439 63.0005722,48.6425612 63.1397003,48.5964245 C63.2788283,48.5506691 63.4311172,48.5274101 63.5969428,48.5274101" id="Fill-20" fill="#0055B8"></path>
            <path d="M80.8450627,47.990318 C80.8273896,48.0204403 80.8085886,48.0429367 80.7886594,48.0578072 C80.7691063,48.073059 80.7431608,48.0803036 80.711951,48.0803036 C80.678109,48.0803036 80.6393787,48.0635266 80.5950082,48.0295914 C80.5506376,47.9952748 80.4942343,47.9579079 80.4261744,47.9171094 C80.3581144,47.8759295 80.2761417,47.8385626 80.1806322,47.804246 C80.0851226,47.7703108 79.9689319,47.7531525 79.833188,47.7531525 C79.7045886,47.7531525 79.591406,47.7706921 79.4925123,47.8057712 C79.3939946,47.8408504 79.3116458,47.8885122 79.245842,47.9483755 C79.1796621,48.0082388 79.1296512,48.0787784 79.0961853,48.1599942 C79.0627193,48.2408288 79.0457984,48.3285266 79.0457984,48.4223252 C79.0457984,48.5424331 79.074752,48.6419511 79.1330354,48.7212604 C79.1913188,48.8001885 79.2684033,48.8676777 79.3639128,48.9237281 C79.4594223,48.9797784 79.5680926,49.0282029 79.6895477,49.0690014 C79.8110027,49.1101813 79.9350899,49.152505 80.0621853,49.1967353 C80.1896567,49.2405842 80.3137439,49.2901525 80.4351989,49.345059 C80.5562779,49.4003468 80.6649482,49.4697424 80.7604578,49.5536273 C80.8563433,49.6375122 80.9330518,49.7408432 80.9913351,49.8628576 C81.0496185,49.9844906 81.0789482,50.1347209 81.0789482,50.3127856 C81.0789482,50.500764 81.0473624,50.6773036 80.9841907,50.8424043 C80.9210191,51.007505 80.8288937,51.1508719 80.7074387,51.2728863 C80.5859837,51.3949007 80.437079,51.4909871 80.2607248,51.5611453 C80.0839946,51.6309223 79.8831989,51.6660014 79.6583379,51.6660014 C79.384218,51.6660014 79.1341635,51.6156705 78.9081744,51.5146273 C78.6825613,51.4135842 78.4896621,51.2770806 78.3298529,51.1047353 L78.4953025,50.8286777 C78.5110954,50.8069439 78.5306485,50.7882604 78.5532098,50.7733899 C78.5757711,50.7585194 78.6009646,50.7508935 78.6284142,50.7508935 C78.6701526,50.7508935 78.7175313,50.7733899 78.7705504,50.8183827 C78.8239455,50.8633755 78.8905014,50.9129439 78.970594,50.9670878 C79.0503106,51.0208504 79.1469482,51.0704187 79.2605068,51.1154115 C79.3736894,51.1604043 79.5124414,51.1829007 79.6763869,51.1829007 C79.8121308,51.1829007 79.9335858,51.163836 80.04,51.1260878 C80.1467902,51.0879583 80.2370354,51.0341957 80.3111117,50.9655626 C80.384812,50.8965482 80.4415913,50.8138072 80.4810736,50.7177209 C80.5205559,50.6216345 80.540109,50.5148719 80.540109,50.3970518 C80.540109,50.2666489 80.5111553,50.1602676 80.4528719,50.0771453 C80.3945886,49.9944043 80.3182561,49.9246273 80.2234986,49.868577 C80.1287411,49.8129079 80.0208229,49.765246 79.8993678,49.726354 C79.7782888,49.6870806 79.6542016,49.6470446 79.5267302,49.606246 C79.3996349,49.5650662 79.2751717,49.5177856 79.1537166,49.4636417 C79.0326376,49.4094978 78.9247193,49.3397209 78.8299619,49.2535482 C78.7352044,49.1677568 78.6588719,49.0602317 78.6005886,48.9309727 C78.5423052,48.802095 78.5133515,48.6423324 78.5133515,48.4524475 C78.5133515,48.3003108 78.5423052,48.1535122 78.6005886,48.0112892 C78.6588719,47.8694475 78.7431008,47.7436201 78.8536512,47.6334259 C78.9642016,47.5232317 79.1006975,47.4351525 79.263139,47.3691885 C79.4263324,47.3032245 79.6132153,47.2704331 79.8241635,47.2704331 C80.0610572,47.2704331 80.2768937,47.3081813 80.472049,47.3844403 C80.6675804,47.460318 80.8379183,47.5701309 80.9841907,47.7142604 L80.8450627,47.990318 Z" id="Fill-21" fill="#0055B8"></path>
            <path d="M88.4346866,52.5151835 C88.4170136,52.5552194 88.3948283,52.5872482 88.3681308,52.6108885 C88.3414332,52.6349101 88.3008229,52.6471115 88.2455477,52.6471115 L87.854861,52.6471115 L88.4023488,51.4410755 L87.1656131,48.5783129 L87.6209755,48.5783129 C87.6664741,48.5783129 87.7018202,48.5901331 87.7277657,48.6130108 C87.7533351,48.6358885 87.7717602,48.6614353 87.7837929,48.6896511 L88.5854714,50.6037518 C88.6035204,50.647982 88.6185613,50.6918309 88.631346,50.7356799 C88.6445068,50.7799101 88.6557875,50.8249029 88.665564,50.8710396 C88.6794768,50.8249029 88.6930136,50.7799101 88.7069264,50.7356799 C88.7208392,50.6918309 88.7366322,50.6468381 88.7543052,50.6007014 L89.5326703,48.6896511 C89.544327,48.6576223 89.5646322,48.6309317 89.5932098,48.6099604 C89.6217875,48.5889892 89.6529973,48.5783129 89.6864632,48.5783129 L90.1064796,48.5783129 L88.4346866,52.5151835 Z" id="Fill-22" fill="#0055B8"></path>
            <path d="M98.2199019,49.0796396 C98.1965886,49.1234885 98.1597384,49.1456036 98.1104796,49.1456036 C98.0807738,49.1456036 98.0473079,49.134546 98.0097057,49.1124309 C97.9724796,49.0906971 97.9266049,49.0659129 97.8720817,49.0392223 C97.8183106,49.0121504 97.7536349,48.9869849 97.6788065,48.9641072 C97.6032262,48.9412295 97.514861,48.9294094 97.4122071,48.9294094 C97.3234659,48.9294094 97.2433733,48.9412295 97.1726812,48.9641072 C97.1012371,48.9869849 97.0406975,49.0186324 96.9903106,49.0586683 C96.9402997,49.0987043 96.9015695,49.1452223 96.875248,49.1982223 C96.8485504,49.2512223 96.8350136,49.3087978 96.8350136,49.3705676 C96.8350136,49.4487331 96.8571989,49.5135532 96.9015695,49.5657906 C96.9459401,49.6176468 97.0049755,49.6626396 97.0779237,49.7007691 C97.1504959,49.7388986 97.2335967,49.7720712 97.3264741,49.8014309 C97.4189755,49.8304094 97.514109,49.8612942 97.6118747,49.8940856 C97.7096403,49.9272583 97.8047738,49.9638626 97.8976512,50.0035173 C97.9901526,50.0439345 98.0728774,50.0938842 98.1462016,50.1537475 C98.2187738,50.2139921 98.2774332,50.2872007 98.3218038,50.3745173 C98.3665504,50.4614525 98.3887357,50.5659273 98.3887357,50.6879417 C98.3887357,50.827877 98.3639183,50.9575173 98.3146594,51.0764813 C98.2654005,51.1954453 98.1924523,51.298395 98.0958147,51.3853302 C97.9988011,51.4722655 97.8807302,51.5412799 97.7408501,51.5908482 C97.600594,51.6407978 97.4389046,51.6659633 97.255406,51.6659633 C97.0463379,51.6659633 96.8568229,51.6316468 96.6872371,51.5626324 C96.5176512,51.493618 96.3736349,51.4051576 96.255188,51.2968698 L96.3792752,51.092877 C96.3950681,51.0669489 96.4138692,51.0471216 96.4356785,51.0330137 C96.4574877,51.0189058 96.4860654,51.0120424 96.5214114,51.0120424 C96.5571335,51.0120424 96.5947357,51.0257691 96.633842,51.0539849 C96.6733243,51.0818194 96.721455,51.1130856 96.7774823,51.1470209 C96.8335095,51.1809561 96.9015695,51.211841 96.9816621,51.2400568 C97.0613787,51.2678914 97.1617766,51.2819993 97.2821035,51.2819993 C97.3843815,51.2819993 97.4746267,51.2682727 97.5513351,51.2412007 C97.6284196,51.2145101 97.6923433,51.1779058 97.7434823,51.1317691 C97.7946213,51.0860137 97.8329755,51.0330137 97.8574169,50.9727691 C97.8822343,50.9129058 97.8946431,50.8488482 97.8946431,50.7809777 C97.8946431,50.6967115 97.8720817,50.6273158 97.8277112,50.5724094 C97.7837166,50.5175029 97.7250572,50.4702223 97.651733,50.4313302 C97.5787847,50.3924381 97.4953079,50.3585029 97.4016785,50.3291432 C97.308049,50.3001647 97.2121635,50.2700424 97.1147738,50.2380137 C97.0173842,50.2059849 96.9214986,50.1693806 96.8278692,50.1282007 C96.7342398,50.0874022 96.6507629,50.035546 96.5778147,49.9737763 C96.5044905,49.9116252 96.4458311,49.8349849 96.4014605,49.7442367 C96.3574659,49.6531072 96.3349046,49.5425317 96.3349046,49.4128914 C96.3349046,49.2965964 96.35897,49.1852583 96.4063488,49.0781144 C96.4533515,48.9709705 96.5221635,48.8771719 96.6135368,48.7959561 C96.704158,48.7151216 96.8154605,48.6506827 96.9474441,48.6026396 C97.0798038,48.5545964 97.2305886,48.5305748 97.4001744,48.5305748 C97.5975858,48.5305748 97.7743161,48.5622223 97.9314932,48.625136 C98.0882943,48.6880496 98.2240381,48.7746036 98.3383488,48.8844165 L98.2199019,49.0796396 Z" id="Fill-23" fill="#0055B8"></path>
            <path d="M105.868937,51.6660396 C105.63242,51.6660396 105.450425,51.5989317 105.32333,51.4650971 C105.195858,51.3308813 105.132311,51.137946 105.132311,50.8859101 L105.132311,49.0255719 L104.77133,49.0255719 C104.739744,49.0255719 104.713046,49.0160396 104.691237,48.9969748 C104.669804,48.9779101 104.658899,48.9485504 104.658899,48.9085144 L104.658899,48.6953705 L105.149984,48.6324568 L105.271439,47.6933273 C105.275199,47.663205 105.287984,47.6388022 105.309793,47.6197374 C105.331226,47.6006727 105.359428,47.5911403 105.392518,47.5911403 L105.658741,47.5911403 L105.658741,48.6385576 L106.517199,48.6385576 L106.517199,49.0255719 L105.658741,49.0255719 L105.658741,50.8496871 C105.658741,50.9778022 105.689199,51.0727446 105.750866,51.1348957 C105.811782,51.1970468 105.890747,51.2279317 105.987384,51.2279317 C106.042659,51.2279317 106.090414,51.2206871 106.130649,51.2054353 C106.171635,51.1901835 106.206229,51.1737878 106.236311,51.1558669 C106.26564,51.137946 106.290834,51.1215504 106.311515,51.1062986 C106.33182,51.0914281 106.350245,51.0838022 106.366038,51.0838022 C106.393864,51.0838022 106.418305,51.1009604 106.44049,51.1348957 L106.594283,51.389982 C106.503286,51.4757734 106.393864,51.5436439 106.26564,51.5924496 C106.137417,51.6416367 106.005057,51.6660396 105.868937,51.6660396" id="Fill-24" fill="#0055B8"></path>
            <path d="M114.284681,48.9236137 C114.030114,48.9236137 113.830071,48.9979662 113.683798,49.1470525 C113.538278,49.2961388 113.447281,49.5028007 113.411935,49.7666568 L115.042365,49.7666568 C115.042365,49.642736 115.025444,49.5291101 114.991978,49.4261604 C114.958136,49.3232108 114.908877,49.2339878 114.843826,49.159254 C114.778774,49.0841388 114.699433,49.026182 114.605804,48.9850022 C114.511798,48.9442036 114.405008,48.9236137 114.284681,48.9236137 M114.273025,48.5304986 C114.452387,48.5304986 114.618213,48.5610022 114.770125,48.6220094 C114.921662,48.6830165 115.052894,48.7710957 115.163444,48.8858655 C115.273995,49.0010165 115.360104,49.1432396 115.422147,49.3121532 C115.484567,49.4810669 115.515401,49.6736209 115.515401,49.8898151 C115.515401,49.9737 115.506752,50.0297504 115.489079,50.0579662 C115.47103,50.0858007 115.437564,50.0995273 115.388681,50.0995273 L113.394262,50.0995273 C113.398022,50.2917 113.423591,50.4587072 113.47097,50.6009302 C113.518349,50.7427719 113.583401,50.8613547 113.666125,50.9562971 C113.749226,51.0516209 113.847744,51.1225417 113.962431,51.169441 C114.076365,51.2163403 114.204589,51.2399806 114.346725,51.2399806 C114.479084,51.2399806 114.592643,51.2243475 114.688529,51.1934626 C114.784038,51.1625777 114.866763,51.1290237 114.935575,51.0928007 C115.004763,51.056959 115.062294,51.023405 115.108545,50.9925201 C115.154796,50.961254 115.19503,50.9460022 115.228872,50.9460022 C115.272114,50.9460022 115.30558,50.9627791 115.32927,50.9967144 L115.477046,51.1919374 C115.411995,51.2720094 115.334158,51.341405 115.243537,51.4005058 C115.152916,51.4596065 115.055526,51.5080309 114.951744,51.5457791 C114.848338,51.5839086 114.741548,51.6125058 114.630997,51.6315705 C114.520447,51.6506353 114.411025,51.6601676 114.302354,51.6601676 C114.095166,51.6601676 113.904523,51.6243259 113.729673,51.553405 C113.555575,51.4824842 113.404414,51.3783906 113.276943,51.2415058 C113.149847,51.1046209 113.050954,50.9349446 112.97951,50.7328583 C112.908817,50.5307719 112.873095,50.2985633 112.873095,50.0366137 C112.873095,49.8246137 112.905433,49.6267216 112.969357,49.4425561 C113.033657,49.2583906 113.125782,49.0990094 113.246109,48.9640309 C113.366436,48.8290525 113.513084,48.7230525 113.686807,48.6460309 C113.860529,48.5690094 114.05606,48.5304986 114.273025,48.5304986" id="Fill-25" fill="#0055B8"></path>
            <path d="M121.986736,51.6179964 L121.986736,48.5783129 L122.300714,48.5783129 C122.375542,48.5783129 122.422921,48.6152986 122.442474,48.6896511 L122.480828,49.0015504 C122.591379,48.8635216 122.71509,48.750277 122.852338,48.6625791 C122.989586,48.5745 123.149019,48.5302698 123.330262,48.5302698 C123.533313,48.5302698 123.697635,48.587464 123.823226,48.7014712 C123.948441,48.8154784 124.038311,48.9695216 124.093962,49.1636007 C124.135324,49.0534065 124.189847,48.958464 124.257907,48.8783921 C124.325967,48.7983201 124.402676,48.7327374 124.487281,48.6805 C124.572262,48.6286439 124.662131,48.5905144 124.758016,48.5664928 C124.853526,48.5424712 124.950916,48.5302698 125.049809,48.5302698 C125.206986,48.5302698 125.347619,48.5558165 125.47133,48.6069101 C125.594665,48.6580036 125.698823,48.7327374 125.784932,48.8303489 C125.870665,48.928723 125.936093,49.0492122 125.981591,49.1921978 C126.026714,49.3351835 126.049651,49.498759 126.049651,49.6825432 L126.049651,51.6179964 L125.522845,51.6179964 L125.522845,49.6825432 C125.522845,49.4446151 125.471706,49.2642626 125.369052,49.1411043 C125.266774,49.017946 125.117493,48.9565576 124.922338,48.9565576 C124.835477,48.9565576 124.752752,48.9721906 124.674916,49.0030755 C124.597079,49.0339604 124.528643,49.0797158 124.469608,49.1395791 C124.410196,49.1994424 124.363193,49.2749388 124.328975,49.3660683 C124.294381,49.4571978 124.277084,49.5624353 124.277084,49.6825432 L124.277084,51.6179964 L123.750278,51.6179964 L123.750278,49.6825432 C123.750278,49.4385144 123.702147,49.2566367 123.60551,49.1365288 C123.508872,49.0164209 123.367864,48.9565576 123.182485,48.9565576 C123.052005,48.9565576 122.931302,48.992018 122.82,49.0629388 C122.708322,49.134241 122.606044,49.2307086 122.513542,49.352723 L122.513542,51.6179964 L121.986736,51.6179964 Z" id="Fill-26" fill="#0055B8"></path>
            <path d="M134.390943,49.0796396 C134.367629,49.1234885 134.330779,49.1456036 134.28152,49.1456036 C134.251815,49.1456036 134.218349,49.134546 134.180747,49.1124309 C134.14352,49.0906971 134.097646,49.0659129 134.043123,49.0392223 C133.989351,49.0121504 133.924676,48.9869849 133.849847,48.9641072 C133.774267,48.9412295 133.685902,48.9294094 133.583248,48.9294094 C133.494507,48.9294094 133.414414,48.9412295 133.343722,48.9641072 C133.272278,48.9869849 133.211738,49.0186324 133.161351,49.0586683 C133.111341,49.0987043 133.07261,49.1452223 133.046289,49.1982223 C133.019591,49.2512223 133.006054,49.3087978 133.006054,49.3705676 C133.006054,49.4487331 133.02824,49.5135532 133.07261,49.5657906 C133.116981,49.6176468 133.176016,49.6626396 133.248965,49.7007691 C133.321537,49.7388986 133.404638,49.7720712 133.497515,49.8014309 C133.590016,49.8304094 133.68515,49.8612942 133.782916,49.8940856 C133.880681,49.9272583 133.975815,49.9638626 134.068692,50.0035173 C134.161193,50.0439345 134.243918,50.0938842 134.317243,50.1537475 C134.389815,50.2139921 134.448474,50.2872007 134.492845,50.3745173 C134.537591,50.4614525 134.559777,50.5659273 134.559777,50.6879417 C134.559777,50.827877 134.534959,50.9575173 134.4857,51.0764813 C134.436441,51.1954453 134.363493,51.298395 134.266856,51.3853302 C134.169842,51.4722655 134.051771,51.5412799 133.911891,51.5908482 C133.771635,51.6407978 133.609946,51.6659633 133.426447,51.6659633 C133.217379,51.6659633 133.027864,51.6316468 132.858278,51.5626324 C132.688692,51.493618 132.544676,51.4051576 132.426229,51.2968698 L132.550316,51.092877 C132.566109,51.0669489 132.58491,51.0471216 132.606719,51.0330137 C132.628529,51.0189058 132.657106,51.0120424 132.692452,51.0120424 C132.728174,51.0120424 132.765777,51.0257691 132.804883,51.0539849 C132.844365,51.0818194 132.892496,51.1130856 132.948523,51.1470209 C133.00455,51.1809561 133.07261,51.211841 133.152703,51.2400568 C133.23242,51.2678914 133.332817,51.2819993 133.453144,51.2819993 C133.555422,51.2819993 133.645668,51.2682727 133.722376,51.2412007 C133.79946,51.2145101 133.863384,51.1779058 133.914523,51.1317691 C133.965662,51.0860137 134.004016,51.0330137 134.028458,50.9727691 C134.053275,50.9129058 134.065684,50.8488482 134.065684,50.7809777 C134.065684,50.6967115 134.043123,50.6273158 133.998752,50.5724094 C133.954757,50.5175029 133.896098,50.4702223 133.822774,50.4313302 C133.749826,50.3924381 133.666349,50.3585029 133.572719,50.3291432 C133.47909,50.3001647 133.383204,50.2700424 133.285815,50.2380137 C133.188425,50.2059849 133.09254,50.1693806 132.99891,50.1282007 C132.905281,50.0874022 132.821804,50.035546 132.748856,49.9737763 C132.675531,49.9116252 132.616872,49.8349849 132.572501,49.7442367 C132.528507,49.6531072 132.505946,49.5425317 132.505946,49.4128914 C132.505946,49.2965964 132.530011,49.1852583 132.57739,49.0781144 C132.624392,48.9709705 132.693204,48.8771719 132.784578,48.7959561 C132.875199,48.7151216 132.986501,48.6506827 133.118485,48.6026396 C133.250845,48.5545964 133.401629,48.5305748 133.571215,48.5305748 C133.768627,48.5305748 133.945357,48.5622223 134.102534,48.625136 C134.259335,48.6880496 134.395079,48.7746036 134.50939,48.8844165 L134.390943,49.0796396 Z" id="Fill-27" fill="#0055B8"></path>
            <polygon id="Fill-28" fill="#FFFFFF" points="20.6382196 23.2963978 20.6363395 23.2975417 20.6649172 23.3413906 26.4048899 39.8400237 26.5428899 39.8400237 21.6888245 24.9001245 31.5052496 39.8400237 31.8869117 39.8400237 22.4532768 25.2028727 36.4593368 39.8400237 37.0865411 39.8400237 23.2553313 25.3317504 36.0735384 33.7835345 21.9746011 23.9125705 48.9332207 31.7699158 22.6751297 23.6166856 90.9141744 23.5766496 90.9141744 23.1713331 21.8268245 23.1179518 35.7456474 18.0234698 22.2682741 22.4663187 43.5185068 2.36326619 22.0577019 22.0213475 36.4337673 0 35.9069608 0 21.7117619 21.652254 28.0131351 3.02519424 20.6423559 23.2739014 20.6416038 23.2739014 20.6419798 23.2750453 20.6363395 23.2902971 20.6374676 23.2910597 20.6352114 23.2944914"></polygon>
        </g>
    </g>
</svg>