<?xml version="1.0" encoding="UTF-8"?>
<svg width="160px" height="90px" viewBox="0 0 160 90" version="1.1" xmlns="http://www.w3.org/2000/svg" xmlns:xlink="http://www.w3.org/1999/xlink">
    <!-- Generator: Sketch 49.3 (51167) - http://www.bohemiancoding.com/sketch -->
    <title>Perfect Pairings Travel logo designed by Isral Duke</title>
    <desc>Created with Sketch.</desc>
    <defs></defs>
    <g id="Perfect-Pairings-Travel-logo-designed-by-Isral-Duke" stroke="none" stroke-width="1" fill="none" fill-rule="evenodd">
        <g id="Page-1" transform="translate(20.000000, 18.000000)">
            <path d="M42.9737122,21.47787 C42.9737122,33.33987 33.3537196,42.95592 21.4868561,42.95592 C9.61999262,42.95592 0,33.33987 0,21.47787 C0,9.61587 9.61999262,0 21.4868561,0 C33.3537196,0 42.9737122,9.61587 42.9737122,21.47787" id="Fill-1" fill="#000000"></path>
            <path d="M34.1782775,17.934795 C33.8527941,17.335845 33.4165653,16.844895 32.8695911,16.460145 C32.3221668,16.075845 31.6860561,15.791445 30.9617092,15.606495 C30.2369122,15.421995 29.4752,15.329295 28.6765727,15.329295 C28.6765727,15.329295 27.4534214,15.329295 27.4291114,15.329295 C27.0518568,15.330195 26.8168605,15.061095 26.7182701,14.660145 C26.7182701,14.659245 26.7182701,14.658345 26.7182701,14.657895 C26.7101668,14.585895 26.4481594,13.499145 26.3999897,13.282245 C26.3473181,13.065795 26.261783,12.843945 26.1866022,12.604995 C26.1046686,12.368295 25.9853697,12.132045 25.8773255,11.878245 C25.746772,11.636145 25.6108162,11.381445 25.4505506,11.129895 C25.2767793,10.888245 25.1142627,10.622295 24.8986244,10.387845 C24.5011114,9.888795 23.9892517,9.441495 23.4233697,9.030195 C22.8511852,8.62245 22.1907646,8.3034 21.4911779,8.05275 C21.1355321,7.947 20.7758347,7.83405 20.4017314,7.77915 C20.2158052,7.74405 20.0294288,7.7067 19.8399011,7.6977 L19.5562849,7.6743 L19.4140266,7.6626 L19.3428974,7.6572 L19.3073328,7.6545 L19.2893255,7.6527 L19.280772,7.65225 C19.2600635,7.65225 19.3145358,7.6509 19.232152,7.6527 L18.7184915,7.6599 C18.6289048,7.66395 18.5564251,7.6563 18.4528827,7.6698 L18.1539601,7.70355 C17.7442923,7.73775 17.3796428,7.82865 17.0100413,7.91325 C16.2829934,8.1216 15.5825063,8.406 14.9635026,8.7894 C14.3499011,9.176445 13.7840192,9.611145 13.3320339,10.108395 C13.0889343,10.342395 12.8985063,10.609695 12.6981742,10.855845 C12.5108974,11.111445 12.3479306,11.373345 12.1921668,11.624445 C12.058462,11.887245 11.914403,12.133845 11.80951,12.382695 C11.7113697,12.634245 11.604676,12.869595 11.5321963,13.099995 C11.4646686,13.332645 11.4016428,13.550445 11.3431188,13.751595 C11.2994509,13.956345 11.2674878,14.146695 11.2350745,14.318145 C11.2004103,14.489595 11.1779011,14.643495 11.1711483,14.778495 L11.1706982,14.782545 C11.1432369,15.115095 10.8731262,15.371145 10.5399897,15.389145 C10.1289712,15.410745 9.7170524,15.441345 9.30333284,15.484545 C9.19979041,15.499395 9.10390111,15.529095 9.01521476,15.573195 C8.92652841,15.617745 8.88196015,15.699195 8.88196015,15.817095 C8.88196015,16.009245 8.94093432,16.135245 9.05933284,16.194195 C9.17773137,16.253145 9.32179041,16.286445 9.49196015,16.294095 C9.66212989,16.301745 9.8507572,16.297695 10.0578421,16.282845 C10.2649269,16.268445 10.4531041,16.286445 10.623724,16.338195 C10.7934435,16.390395 10.9375026,16.489845 11.0559011,16.637445 C11.1742996,16.785495 11.233724,17.022195 11.233724,17.347095 C11.233724,18.322695 11.2368753,19.295145 11.2445284,20.263095 C11.2517314,21.231495 11.255783,22.203495 11.255783,23.179095 C11.255783,24.228045 11.2449786,25.276545 11.2251705,26.325495 C11.2107646,27.065295 11.2134657,27.804645 11.2112148,28.544895 C11.2107646,28.812195 11.2031114,29.089845 11.1891557,29.376945 C11.1742996,29.680245 11.1076723,29.956995 10.989724,30.208545 C10.9005875,30.371445 10.7416723,30.500595 10.5125284,30.596445 C10.2829343,30.692745 10.0465875,30.773745 9.80258745,30.840345 C9.55858745,30.906945 9.34429963,30.966345 9.1592738,31.017645 C8.97424797,31.069845 8.88196015,31.125195 8.88196015,31.184145 C8.88196015,31.302495 8.90401919,31.409595 8.94858745,31.505445 C8.99315572,31.601745 9.08904502,31.649895 9.23715572,31.649895 C9.75441771,31.649895 10.2608753,31.623795 10.7565284,31.572045 C11.470521,31.497345 12.2065727,31.477095 12.9682849,31.509495 C13.2676576,31.522095 13.5665801,31.555845 13.8655026,31.584645 C14.3102849,31.627845 14.7492148,31.649895 15.1822923,31.649895 C15.2853845,31.649895 15.3893771,31.642245 15.4929196,31.627395 C15.5960118,31.612545 15.6846982,31.575645 15.7589786,31.516695 C15.7882406,31.413645 15.8215542,31.324545 15.8589196,31.250745 C15.8958347,31.176945 15.8548679,31.110345 15.7369196,31.050945 C15.6774952,31.036545 15.5775542,31.017645 15.4370967,30.995595 C15.2966391,30.973545 15.1413255,30.947895 14.9716059,30.917745 C14.8014362,30.888495 14.6348679,30.859245 14.4723513,30.829095 C14.3093845,30.799845 14.183783,30.770595 14.0950967,30.740445 C13.917724,30.696345 13.7808679,30.615345 13.6849786,30.496545 C13.5881889,30.378645 13.5107572,30.241845 13.451783,30.086595 C13.3928089,29.931345 13.3554435,29.764845 13.3410376,29.587545 C13.3261815,29.410245 13.3189786,29.232945 13.3189786,29.055195 L13.3189786,26.882145 C13.3189786,26.571645 13.3221299,26.265195 13.329783,25.961895 C13.336986,25.659045 13.3441889,25.371045 13.3522923,25.096995 C13.3594952,24.823845 13.3702996,24.606045 13.3851557,24.443145 L13.3851557,22.801995 L13.4072148,22.801995 C13.3928089,22.048245 13.3775026,21.301695 13.3630967,20.562345 C13.3482406,19.823445 13.3410376,19.076895 13.3410376,18.322695 L13.3410376,17.879445 C13.3410376,17.613495 13.3666982,17.335845 13.4184694,17.047845 C13.4702406,16.759395 13.5629786,16.548795 13.695783,16.416045 C13.8290376,16.297695 13.9915542,16.227495 14.183783,16.204995 C14.3760118,16.182945 14.5533845,16.172145 14.7163513,16.172145 C15.3376059,16.201845 15.8845801,16.326945 16.357724,16.548795 C16.8308679,16.770645 17.2265801,17.059095 17.5448605,17.413695 C17.8626908,17.768295 18.0994878,18.178695 18.2543513,18.644445 C18.4101151,19.110195 18.4875469,19.594395 18.4875469,20.097045 C18.4875469,20.628945 18.402462,21.120795 18.2322923,21.571245 C18.0621225,22.022595 17.8221742,22.406895 17.5115469,22.724595 C17.2009196,23.042745 16.8308679,23.293845 16.4022923,23.478345 C15.9732664,23.663295 15.4929196,23.763195 14.9603513,23.777595 C14.9454952,23.777595 14.9081299,23.770395 14.8496059,23.755545 C14.7753255,23.755545 14.7276059,23.788845 14.7050967,23.855445 C14.6830376,23.922045 14.6753845,23.999445 14.6830376,24.088095 C14.6902406,24.176745 14.7122996,24.262245 14.7496649,24.343245 C14.7861299,24.424695 14.8198937,24.480045 14.8496059,24.509745 C14.9526982,24.583545 15.0301299,24.639345 15.0823513,24.675795 C15.1341225,24.713145 15.2853845,24.731145 15.5370376,24.731145 C16.2469786,24.731145 16.9236059,24.616845 17.5669196,24.387795 C18.2102332,24.158745 18.768462,23.836995 19.2416059,23.422995 C19.7147498,23.009445 20.0920044,22.517595 20.3729196,21.948345 C20.6538347,21.379545 20.7947424,20.747295 20.7947424,20.052495 C20.7947424,19.239795 20.6317756,18.533745 20.3067424,17.934795 C19.981259,17.335845 19.5445801,16.844895 18.9976059,16.460145 C18.4506317,16.075845 17.814521,15.791445 17.089724,15.606495 C16.3653771,15.421995 15.6036649,15.329295 14.8050376,15.329295 L14.1176059,15.329745 C13.7399011,15.329745 13.4486317,14.997195 13.4990524,14.622795 C13.5125579,14.498145 13.5283144,14.359995 13.5449712,14.209695 C13.5764841,14.061645 13.6106982,13.900995 13.6471631,13.729995 C13.6863292,13.558995 13.7552074,13.384845 13.8105801,13.194495 C13.8727055,13.006845 13.9685948,12.821445 14.0491779,12.618495 C14.1522701,12.427245 14.2571631,12.224295 14.3818642,12.024045 C14.5200708,11.833245 14.6429712,11.618145 14.8149417,11.432295 C15.1246686,11.031345 15.5316354,10.676295 15.9768679,10.343745 C16.428403,10.015245 16.9515173,9.760995 17.5047941,9.554445 C17.6466022,9.511695 17.7888605,9.468945 17.9311188,9.426195 C18.0769786,9.374895 18.2075321,9.367695 18.3470893,9.333495 L18.5546244,9.289845 C18.6190007,9.272745 18.7189417,9.272745 18.7995247,9.262845 L19.295628,9.220095 L19.3001299,9.220095 L19.3289417,9.220545 L19.3856649,9.221445 L19.5000118,9.223245 L19.7287055,9.225495 C19.8822185,9.219645 20.0330303,9.240345 20.1842923,9.258345 C20.4895173,9.278595 20.7843882,9.351945 21.0810598,9.414495 C21.6613476,9.579195 22.2249786,9.798345 22.7233328,10.103445 C23.2158347,10.411695 23.6768236,10.753695 24.0414731,11.153295 C24.2409048,11.337795 24.3912664,11.554695 24.5564841,11.749995 C24.7081963,11.954745 24.8401004,12.164895 24.968403,12.364695 C25.0746465,12.576645 25.1952959,12.772845 25.2803808,12.972645 C25.3587129,13.175145 25.4487498,13.362795 25.507724,13.547745 C25.5635469,13.734495 25.6157683,13.909545 25.6643882,14.071095 C25.6963513,14.231745 25.7256133,14.379345 25.751724,14.512995 C25.7652295,14.580045 25.7778347,14.643045 25.7899897,14.702895 C25.7985432,14.766345 25.8016945,14.830695 25.8075469,14.888295 L25.807997,14.891445 C25.8291557,15.136245 25.6373771,15.346845 25.3915764,15.349995 C25.3587129,15.350445 25.3262996,15.350895 25.2938863,15.351345 C24.5911483,15.366195 23.885259,15.410745 23.1753181,15.484545 C23.0717756,15.499395 22.9754362,15.529095 22.8867498,15.573195 C22.7980635,15.617745 22.7534952,15.699195 22.7534952,15.817095 C22.7534952,16.009245 22.8124694,16.135245 22.9313181,16.194195 C23.0492664,16.253145 23.1937756,16.286445 23.3634952,16.294095 C23.5336649,16.301745 23.7222923,16.297695 23.9293771,16.282845 C24.136462,16.268445 24.3250893,16.286445 24.495259,16.338195 C24.6649786,16.390395 24.8090376,16.489845 24.9278863,16.637445 C25.0458347,16.785495 25.105259,17.022195 25.105259,17.347095 C25.105259,18.322695 25.1088605,19.295145 25.1160635,20.263095 C25.1237166,21.231495 25.1273181,22.203495 25.1273181,23.179095 C25.1273181,24.228495 25.1165137,25.278345 25.0967055,26.328195 C25.0827498,27.066645 25.0850007,27.805545 25.0832,28.544445 C25.0822996,28.812195 25.0746465,29.089845 25.0606908,29.376945 C25.0458347,29.680245 24.9792074,29.956995 24.861259,30.208545 C24.7721225,30.371445 24.6132074,30.500595 24.3840635,30.596445 C24.1549196,30.692745 23.9181225,30.773745 23.6741225,30.840345 C23.4301225,30.906945 23.2158347,30.966345 23.0308089,31.017645 C22.845783,31.069845 22.7534952,31.125195 22.7534952,31.184145 C22.7534952,31.302495 22.7760044,31.409595 22.8201225,31.505445 C22.8646908,31.601745 22.9605801,31.649895 23.1086908,31.649895 C23.6259528,31.649895 24.1324103,31.623795 24.6280635,31.572045 C25.3420561,31.497345 26.0785579,31.477095 26.8398199,31.509495 C27.1396428,31.522095 27.4385653,31.555845 27.7370376,31.584645 C28.1822701,31.627845 28.6207498,31.649895 29.0538273,31.649895 C29.1573697,31.649895 29.2609122,31.642245 29.3644546,31.627395 C29.4675469,31.612545 29.5562332,31.575645 29.6305137,31.516695 C29.6602258,31.413645 29.6935395,31.324545 29.7304546,31.250745 C29.7673697,31.176945 29.7268531,31.110345 29.6084546,31.050945 C29.5490303,31.036545 29.4495395,31.017645 29.3090819,30.995595 C29.1681742,30.973545 29.0128605,30.947895 28.843141,30.917745 C28.6729712,30.888495 28.506403,30.859245 28.3438863,30.829095 C28.1809196,30.799845 28.0553181,30.770595 27.9666317,30.740445 C27.789259,30.696345 27.652403,30.615345 27.5565137,30.496545 C27.4601742,30.378645 27.3822923,30.241845 27.3237683,30.086595 C27.2643439,29.931345 27.2269786,29.764845 27.2125727,29.587545 C27.1977166,29.410245 27.1905137,29.232945 27.1905137,29.055195 L27.1905137,26.882145 C27.1905137,26.571645 27.1936649,26.265195 27.2017683,25.961895 C27.2089712,25.659045 27.2161742,25.371045 27.2238273,25.096995 C27.2310303,24.823845 27.2422849,24.606045 27.2566908,24.443145 L27.2566908,22.801995 L27.2792,22.801995 C27.2643439,22.048245 27.2494878,21.301695 27.2346317,20.562345 C27.2197756,19.823445 27.2125727,19.076895 27.2125727,18.322695 L27.2125727,17.879445 C27.2125727,17.613495 27.2382332,17.335845 27.2904546,17.047845 C27.3417756,16.759395 27.4345137,16.548795 27.5673181,16.416045 C27.7005727,16.297695 27.8630893,16.227495 28.0553181,16.204995 C28.2475469,16.182945 28.4253697,16.172145 28.5878863,16.172145 C29.209141,16.201845 29.7561151,16.326945 30.2297092,16.548795 C30.7028531,16.770645 31.0981151,17.059095 31.4163956,17.413695 C31.7342258,17.768295 31.9710229,18.178695 32.1263365,18.644445 C32.2816502,19.110195 32.3590819,19.594395 32.3590819,20.097045 C32.3590819,20.628945 32.273997,21.120795 32.1042775,21.571245 C31.9341077,22.022595 31.6937092,22.406895 31.3830819,22.724595 C31.0724546,23.042745 30.7028531,23.293845 30.2738273,23.478345 C29.8448015,23.663295 29.3644546,23.763195 28.8318863,23.777595 C28.8170303,23.777595 28.7801151,23.770395 28.721141,23.755545 C28.6468605,23.755545 28.599141,23.788845 28.5770819,23.855445 C28.5545727,23.922045 28.5473697,23.999445 28.5545727,24.088095 C28.5617756,24.176745 28.5842849,24.262245 28.6212,24.343245 C28.6581151,24.424695 28.6914288,24.480045 28.721141,24.509745 C28.8242332,24.583545 28.9021151,24.639345 28.9538863,24.675795 C29.0056576,24.713145 29.1573697,24.731145 29.4085727,24.731145 C30.1185137,24.731145 30.795141,24.616845 31.4384546,24.387795 C32.0817683,24.158745 32.639997,23.836995 33.1135911,23.422995 C33.5867351,23.009445 33.9635395,22.517595 34.2449048,21.948345 C34.5253697,21.379545 34.6662775,20.747295 34.6662775,20.052495 C34.6662775,19.239795 34.5033107,18.533745 34.1782775,17.934795" id="Fill-2" fill="#FFFFFF"></path>
            <path d="M102.597048,10.22166 C102.611904,10.46691 102.539424,10.65816 102.380509,10.79586 C102.221144,10.93311 102.026214,11.00196 101.794819,11.00196 C101.563424,11.00196 101.354089,10.91511 101.165911,10.74186 C100.978185,10.56816 100.790007,10.37691 100.602731,10.16721 C100.414554,9.95796 100.21197,9.76626 99.9949815,9.59301 C99.7784428,9.41886 99.5254391,9.33246 99.2364207,9.33246 C98.7011513,9.33246 98.2419631,9.46656 97.8593063,9.73386 C97.4761993,10.00161 97.165572,10.34451 96.9269742,10.76301 C96.6879262,11.18241 96.5186568,11.64141 96.4169151,12.13956 C96.3160738,12.63861 96.2656531,13.12596 96.2656531,13.60296 C96.2656531,14.12316 96.3304797,14.63616 96.460583,15.14196 C96.5902362,15.64776 96.7928192,16.09911 97.0678819,16.49691 C97.3420443,16.89426 97.6855351,17.21511 98.0979041,17.46126 C98.5098229,17.70696 99.0122288,17.82981 99.6051218,17.82981 L100.082317,17.82981 C100.457321,17.82981 100.812066,17.75016 101.144753,17.59086 C101.476989,17.43246 101.787616,17.23716 102.076635,17.00586 C102.149114,16.94826 102.217993,16.89426 102.282819,16.84341 C102.347646,16.79256 102.416524,16.74576 102.489004,16.70211 C102.532221,16.73181 102.565085,16.77096 102.586694,16.82181 C102.607852,16.87221 102.619107,16.91901 102.619107,16.96221 C102.619107,17.09271 102.568236,17.22231 102.467395,17.35281 C102.365653,17.48286 102.279218,17.59851 102.207188,17.69931 C102.120303,17.81541 102.001004,17.93421 101.849292,18.05706 C101.697579,18.18036 101.531461,18.29916 101.350037,18.41481 C101.169963,18.53091 100.989439,18.63171 100.808015,18.71856 C100.627491,18.80496 100.472177,18.86976 100.342524,18.91341 C99.8653284,19.07226 99.3948856,19.15191 98.9325461,19.15191 C98.2388118,19.15191 97.6238598,19.01826 97.0894908,18.75051 C96.5546716,18.48321 96.1031365,18.12186 95.7339852,17.66646 C95.3652841,17.21196 95.0798672,16.68816 94.8781845,16.09551 C94.6751513,15.50286 94.57431,14.87421 94.57431,14.20956 C94.5594539,13.47246 94.6715498,12.77181 94.9101476,12.10671 C95.1491956,11.44296 95.4850332,10.85346 95.9185609,10.34046 C96.3520886,9.82791 96.8761033,9.41886 97.4906052,9.11601 C98.105107,8.81235 98.7880369,8.6607 99.5402952,8.6607 L99.6051218,8.6607 C99.1418819,8.35695 98.8060443,8.0433 98.5967085,7.7175 C98.3869225,7.3926 98.2748266,7.0281 98.2604207,6.62355 C98.2455646,6.20415 98.3072399,5.7636 98.4449963,5.301 C98.5818524,4.8384 98.8209004,4.41225 99.1603395,4.02255 C99.4997786,3.63195 99.9517638,3.30705 100.515845,3.04695 C101.079026,2.7864 101.780413,2.6568 102.619107,2.6568 C103.501018,2.6568 104.230317,2.81205 104.809255,3.123 C105.387292,3.4335 105.850081,3.8133 106.196723,4.2606 C106.543815,4.7088 106.789616,5.17815 106.934125,5.66955 C107.078635,6.1614 107.158317,6.58755 107.172273,6.94845 C107.187129,7.20855 107.198384,7.3566 107.205137,7.3926 C107.212339,7.4286 107.215941,7.4763 107.215941,7.53345 L107.215941,7.902 L107.215941,9.09396 C107.346494,9.12321 107.498207,9.14121 107.671528,9.14796 C107.844849,9.15561 108.025373,9.15561 108.21355,9.14796 C108.401277,9.14121 108.585852,9.13401 108.766827,9.12681 C108.947351,9.12006 109.102664,9.11601 109.233218,9.11601 L109.449756,9.11601 C109.565454,9.11601 109.687904,9.12006 109.818458,9.12681 C109.948561,9.13401 110.06741,9.14481 110.175904,9.15921 C110.284849,9.17361 110.345624,9.18846 110.36048,9.20286 C110.447365,9.23166 110.500937,9.28926 110.522996,9.37611 C110.544605,9.46251 110.55586,9.54216 110.55586,9.61416 C110.55586,9.68661 110.541004,9.75951 110.512192,9.83106 C110.48293,9.90396 110.461321,9.97596 110.447365,10.04751 C110.389292,10.12041 110.280797,10.16001 110.122332,10.16721 C109.962967,10.17486 109.847269,10.17801 109.77479,10.17801 C109.485771,10.17801 109.207557,10.17081 108.940148,10.15596 C108.672288,10.14201 108.401277,10.13436 108.127114,10.13436 C108.025373,10.13436 107.884915,10.13796 107.704391,10.14516 C107.523417,10.15281 107.396465,10.19286 107.324886,10.26486 C107.251956,10.26486 107.215941,10.29366 107.215941,10.35126 C107.158317,10.45296 107.129506,10.58256 107.129506,10.74186 C107.100694,11.23281 107.089439,11.72421 107.096642,12.21516 C107.103845,12.70701 107.107446,13.19841 107.107446,13.68936 C107.107446,14.12316 107.103845,14.55651 107.096642,14.98986 C107.089439,15.42321 107.085838,15.85701 107.085838,16.29081 C107.085838,16.75296 107.227196,17.12151 107.509011,17.39646 C107.791277,17.67051 108.163129,17.80776 108.625469,17.80776 C109.016229,17.80776 109.316052,17.73936 109.525387,17.60166 C109.734723,17.46486 109.991779,17.30196 110.295653,17.11431 C110.454118,17.11431 110.533801,17.18721 110.533801,17.33076 C110.533801,17.56206 110.45817,17.76816 110.306458,17.94861 C110.154295,18.12951 109.991779,18.28476 109.818458,18.41481 C109.543395,18.61776 109.229166,18.76536 108.875321,18.85896 C108.520576,18.95256 108.169882,19.00026 107.82324,19.00026 C106.926923,19.00026 106.290362,18.74736 105.914908,18.24111 C105.539004,17.73576 105.351277,17.06391 105.351277,16.22556 C105.351277,15.32961 105.362531,14.44446 105.38369,13.57011 C105.405299,12.69621 105.416103,11.81061 105.416103,10.91511 C105.416103,10.65501 105.336871,10.48491 105.177956,10.40526 C105.01859,10.32651 104.849321,10.28331 104.667897,10.27566 C104.487373,10.26846 104.317203,10.26126 104.158738,10.25361 C103.999373,10.24686 103.92014,10.17801 103.92014,10.04751 C103.92014,10.01961 103.923292,9.99756 103.931395,9.98271 C103.938148,9.96876 103.941299,9.94671 103.941299,9.91791 C103.984967,9.88911 104.08986,9.84231 104.256428,9.77661 C104.422096,9.71181 104.592266,9.62901 104.765587,9.52776 C104.938908,9.42696 105.094672,9.30411 105.231978,9.15921 C105.369284,9.01521 105.438162,8.8488 105.438162,8.6607 C105.438162,8.51625 105.445365,8.4438 105.459771,8.4438 C105.459771,7.95285 105.430509,7.4115 105.373336,6.81795 C105.314812,6.2262 105.185159,5.6772 104.982576,5.17095 C104.779542,4.66515 104.483771,4.239 104.093911,3.89205 C103.703151,3.54555 103.182738,3.37185 102.532221,3.37185 C102.026214,3.37185 101.589085,3.46635 101.220384,3.654 C100.851683,3.8412 100.547808,4.08735 100.309661,4.3911 C100.071513,4.69395 99.8977417,5.03775 99.7892472,5.42025 C99.6807528,5.80365 99.6267306,6.1893 99.6267306,6.5799 C99.6267306,6.696 99.6370849,6.83685 99.6591439,7.00245 C99.6807528,7.1685 99.7316236,7.34985 99.8113063,7.54425 C99.8900886,7.73955 100.005786,7.93845 100.157948,8.14095 C100.309661,8.343 100.523048,8.52345 100.797661,8.68275 C100.912908,8.71155 101.032207,8.75115 101.155557,8.80155 C101.277557,8.8524 101.404959,8.9136 101.534613,8.98551 C101.823631,9.10206 102.073033,9.26046 102.282819,9.46251 C102.492155,9.66501 102.597048,9.91791 102.597048,10.22166 M91.4297712,11.11041 C91.4297712,10.86426 91.3757491,10.62621 91.2672546,10.39491 C91.1587601,10.16406 91.0183026,9.96111 90.8445314,9.78741 C90.6712103,9.61416 90.4722288,9.47736 90.2480369,9.37611 C90.023845,9.27531 89.7965018,9.22446 89.565107,9.22446 C89.2612325,9.22446 88.9650111,9.30006 88.6759926,9.45171 C88.3869742,9.60336 88.1299188,9.80226 87.9066273,10.04751 C87.6815351,10.29366 87.5050627,10.57176 87.3745092,10.88226 C87.2448561,11.19321 87.1800295,11.50011 87.1800295,11.80386 C87.1800295,11.86146 87.2263985,11.90151 87.3209373,11.92311 C87.4145756,11.94426 87.5230701,11.95911 87.6459705,11.96631 C87.7684207,11.97396 87.8877196,11.97396 88.003417,11.96631 C88.1191144,11.95911 88.1915941,11.95506 88.2208561,11.95506 C88.625572,11.95506 88.9614096,11.95911 89.2292694,11.96631 C89.4962288,11.97396 89.8253137,11.96316 90.2156236,11.93346 C90.3893948,11.91951 90.5478598,11.90511 90.692369,11.89026 C90.8368782,11.87631 90.9633801,11.84661 91.0718745,11.80386 C91.1808192,11.76021 91.2672546,11.68416 91.3320812,11.57571 C91.3978081,11.46816 91.4297712,11.31246 91.4297712,11.11041 M93.2296089,12.17241 C93.2296089,12.36051 93.200797,12.50496 93.1431734,12.60576 C93.0702435,12.62061 92.9946125,12.63096 92.9153801,12.63861 C92.8361476,12.64536 92.7600664,12.64896 92.6875867,12.64896 L87.2880738,12.64896 C87.23,12.64896 87.1584207,12.66336 87.0715351,12.69261 C87.0278672,12.69261 86.9990554,12.75021 86.9846494,12.86586 C86.9702435,12.98151 86.9630406,13.09671 86.9630406,13.21236 L86.9630406,13.38606 C86.9769963,13.97871 87.0458745,14.54211 87.1692251,15.07626 C87.2916753,15.61131 87.4902066,16.08111 87.7652694,16.48566 C88.0394317,16.89021 88.4013801,17.21196 88.8493137,17.45046 C89.2972472,17.68851 89.8541255,17.80776 90.519048,17.80776 C90.7941107,17.80776 91.0358598,17.78616 91.2456458,17.74296 C91.4549815,17.69931 91.6503616,17.63451 91.8313358,17.54766 C92.0118598,17.46126 92.1923838,17.35281 92.3733579,17.22231 C92.5538819,17.09271 92.7528635,16.94826 92.9694022,16.78896 C92.9838081,16.77456 93.0414317,16.76781 93.1431734,16.76781 C93.2440148,16.76781 93.2944354,16.81056 93.2944354,16.89741 C93.2944354,16.96986 93.2548192,17.06391 93.1755867,17.17911 C93.0959041,17.29476 93.005417,17.41041 92.9045756,17.52606 C92.8032841,17.64171 92.6983911,17.75016 92.5898967,17.85096 C92.4818524,17.95221 92.3985683,18.02421 92.3404945,18.06786 C91.8921107,18.44406 91.458583,18.71451 91.0399114,18.88101 C90.6203395,19.04661 90.1215351,19.12986 89.543048,19.12986 C88.8637196,19.12986 88.264524,19.01061 87.7432103,18.77211 C87.2232472,18.53406 86.7816162,18.20151 86.4210185,17.77491 C86.0590701,17.34921 85.7849077,16.85421 85.5967306,16.29081 C85.4090037,15.72696 85.3077122,15.11991 85.2933063,14.46966 C85.2789004,13.79106 85.3437269,13.10391 85.4882362,12.41046 C85.6327454,11.71701 85.8717934,11.09241 86.2044797,10.53576 C86.5362657,9.97956 86.973845,9.52416 87.5158672,9.17001 C88.0583395,8.8164 88.7120074,8.6391 89.4782214,8.6391 C90.3457269,8.6391 91.0862804,8.82315 91.7007823,9.19161 C92.3157343,9.56016 92.7528635,10.17801 93.0130701,11.04471 C93.0702435,11.23281 93.1179631,11.42091 93.1539779,11.60856 C93.1899926,11.79666 93.2156531,11.98476 93.2296089,12.17241 M87.1588708,3.0681 C87.2020886,3.2418 87.1768782,3.40785 87.0832399,3.56715 C86.9887011,3.72645 86.8621993,3.85245 86.7032841,3.94605 C86.544369,4.04055 86.3746494,4.095 86.1932251,4.10895 C86.0127011,4.12335 85.8645904,4.08015 85.748893,3.9789 C85.6620074,3.92085 85.5935793,3.8133 85.5431587,3.654 C85.492738,3.4947 85.3981993,3.33945 85.2613432,3.1878 C85.1240369,3.03615 84.9106494,2.8989 84.621631,2.77605 C84.3317122,2.65365 83.9058376,2.592 83.3422066,2.592 C83.0387823,2.592 82.7785756,2.6856 82.5615867,2.87325 C82.3445978,3.06135 82.1640738,3.30345 82.0195646,3.5991 C81.8750554,3.8961 81.7593579,4.2318 81.6724723,4.60755 C81.5860369,4.98375 81.5212103,5.36265 81.4770923,5.74515 C81.4334244,6.12855 81.4046125,6.49305 81.3906568,6.84 C81.3758007,7.1865 81.3685978,7.48305 81.3685978,7.72875 L81.3685978,8.03205 C81.3685978,8.20575 81.3717491,8.4006 81.3798524,8.61705 C81.3866052,8.8344 81.4266716,8.97885 81.4991513,9.05121 L87.5987011,9.05121 C87.7859779,9.05121 87.9237343,9.09396 88.0101697,9.18081 C88.0101697,9.25326 88.0137712,9.31806 88.0214244,9.37611 C88.0281771,9.43371 88.0322288,9.49851 88.0322288,9.57141 C88.0322288,9.73026 87.9957638,9.86706 87.9237343,9.98271 C87.8512546,9.99756 87.7720221,10.00836 87.6851365,10.01556 C87.5987011,10.02276 87.5118155,10.02636 87.4253801,10.02636 L82.4098745,10.02636 L81.9758967,10.02636 C81.8462435,10.02636 81.7084871,10.03356 81.5639779,10.04751 C81.4626863,10.14921 81.4158672,10.30851 81.4235203,10.52451 C81.4302731,10.74186 81.4334244,10.91511 81.4334244,11.04471 C81.4334244,12.04191 81.4302731,13.02831 81.4235203,14.00346 C81.4158672,14.97906 81.4122657,15.96501 81.4122657,16.96221 C81.4122657,17.28081 81.4626863,17.51886 81.5639779,17.67771 C81.6648192,17.83656 81.7953727,17.95626 81.954738,18.03501 C82.113203,18.11466 82.3013801,18.16551 82.5179188,18.18756 C82.7349077,18.20871 82.9663026,18.24111 83.2121033,18.28476 C83.2692768,18.34281 83.2989889,18.42246 83.2989889,18.52326 C83.2989889,18.62451 83.262524,18.68931 83.1904945,18.71856 L83.1684354,18.78336 C83.0671439,18.84096 82.9302878,18.86976 82.7569668,18.86976 C82.4819041,18.86976 82.2068413,18.84816 81.932679,18.80496 C81.6576162,18.76131 81.3830037,18.74016 81.1083911,18.74016 C80.6892694,18.74016 80.2701476,18.76131 79.8510258,18.80496 C79.4314539,18.84816 79.0127823,18.86976 78.5932103,18.86976 C78.5207306,18.86976 78.4086347,18.86211 78.2573727,18.84816 C78.1056605,18.83376 78.0291292,18.76851 78.0291292,18.65286 C78.0291292,18.45126 78.1160148,18.32796 78.289786,18.28476 C78.4635572,18.24111 78.6580369,18.19431 78.8750258,18.14391 C79.0924649,18.09351 79.2869446,17.99226 79.4602657,17.84061 C79.6344871,17.68851 79.7209225,17.40321 79.7209225,16.98426 L79.7209225,10.69821 C79.7209225,10.51056 79.6993137,10.31526 79.6556458,10.11321 C79.3085535,10.06956 78.9691144,10.04751 78.6368782,10.04751 C78.5207306,10.04751 78.3906273,10.03356 78.2461181,10.00476 C78.1016089,9.97596 78.0291292,9.88191 78.0291292,9.72261 C78.0291292,9.66501 78.0331808,9.59616 78.0399336,9.51651 C78.0471365,9.43776 78.0651439,9.36891 78.0948561,9.31131 C78.1376236,9.23841 78.2281107,9.18846 78.3658672,9.15921 C78.5027232,9.13086 78.6548856,9.10521 78.8210037,9.08316 C78.9871218,9.06156 79.1532399,9.04356 79.3198081,9.02916 C79.4859262,9.01521 79.612428,8.98551 79.6993137,8.94285 C79.7425314,8.379 79.7672915,7.81515 79.7749446,7.2522 C79.7821476,6.68835 79.8577786,6.13215 80.0022878,5.5827 C80.1328413,5.0337 80.3313727,4.5099 80.5992325,4.0113 C80.8666421,3.5127 81.1916753,3.0762 81.5747823,2.69955 C81.9578893,2.32425 82.3990701,2.02815 82.8974244,1.81125 C83.396679,1.5948 83.9418524,1.494 84.5347454,1.50795 C84.8386199,1.50795 85.1451956,1.5291 85.4567232,1.57275 C85.7669004,1.61595 86.0451144,1.6992 86.2909151,1.82205 C86.5371661,1.94535 86.7392989,2.1078 86.8986642,2.30985 C87.0575793,2.51235 87.1440148,2.76525 87.1588708,3.0681 M77.2269004,10.48176 C77.2269004,10.64106 77.1980886,10.79586 77.1400148,10.94706 C77.0823911,11.09961 76.9919041,11.21796 76.8690037,11.30481 C76.7465535,11.39166 76.5907897,11.43216 76.4035129,11.42451 C76.2153358,11.41731 75.9978967,11.32686 75.7525461,11.15316 C75.6363985,11.08161 75.5607675,10.97271 75.5247528,10.82826 C75.488738,10.68381 75.4486716,10.53936 75.4059041,10.39491 C75.3622362,10.25046 75.3041624,10.12401 75.232583,10.01556 C75.1596531,9.90711 75.0295498,9.85311 74.8418229,9.85311 C74.5379483,9.85311 74.2489299,9.90711 73.9747675,10.01556 C73.6997048,10.12401 73.4539041,10.26126 73.2373653,10.42731 C73.0203764,10.59336 72.8466052,10.78461 72.716952,11.00196 C72.5863985,11.21796 72.521572,11.43531 72.521572,11.65221 L72.521572,16.91901 C72.521572,17.03466 72.5287749,17.12871 72.543631,17.20116 C72.5719926,17.44686 72.6480738,17.64171 72.7709742,17.78616 C72.8934244,17.93061 73.0419852,18.03906 73.2153063,18.11151 C73.3890775,18.18351 73.5804059,18.22716 73.7901919,18.24111 C73.9999779,18.25596 74.205262,18.26316 74.4082952,18.26316 C74.5379483,18.26316 74.6036753,18.39276 74.6036753,18.65286 C74.6036753,18.75411 74.5631587,18.81576 74.4839262,18.83736 C74.4042435,18.85896 74.3286125,18.86976 74.2561328,18.86976 C73.8950849,18.86976 73.5371882,18.84501 73.182893,18.79416 C72.8285978,18.74331 72.4711513,18.71856 72.109203,18.71856 C71.7044871,18.71856 71.2997712,18.74331 70.8955055,18.79416 C70.4907897,18.84501 70.0851734,18.86976 69.6804576,18.86976 C69.5940221,18.86976 69.4891292,18.84816 69.366679,18.80496 C69.2437786,18.76131 69.1821033,18.67491 69.1821033,18.54486 C69.1821033,18.40041 69.2541328,18.30996 69.3990923,18.27396 C69.5431513,18.23796 69.7025166,18.20151 69.8758376,18.16551 C70.0491587,18.12951 70.2193284,18.06786 70.3858967,17.98146 C70.5515646,17.89461 70.6569077,17.72811 70.7001255,17.48286 C70.7577491,17.19396 70.7937638,16.90506 70.8086199,16.61571 C70.8225756,16.32681 70.8302288,16.03746 70.8302288,15.74856 C70.8302288,15.18516 70.8266273,14.66496 70.8194244,14.18796 C70.8117712,13.71141 70.8086199,13.19076 70.8086199,12.62736 C70.8086199,12.43926 70.8045683,12.24486 70.7978155,12.04191 C70.7901624,11.83986 70.7505461,11.65221 70.6780664,11.47806 C70.6204428,11.30481 70.5335572,11.17521 70.4178598,11.08836 C70.3026125,11.00196 70.1905166,10.92906 70.0820221,10.87146 C69.9735277,10.81431 69.8726863,10.75581 69.7781476,10.69821 C69.6845092,10.64106 69.6300369,10.55376 69.615631,10.43811 C69.6444428,10.36611 69.6953137,10.30851 69.7677934,10.26486 C69.8398229,10.22166 69.9046494,10.18566 69.9627232,10.15596 C70.1072325,10.08441 70.24769,10.01241 70.3858967,9.93996 C70.5227528,9.86706 70.6641107,9.78741 70.8086199,9.70101 C70.9094613,9.64386 71.0256089,9.56421 71.155262,9.46251 C71.2858155,9.36171 71.4154686,9.26046 71.5460221,9.15921 C71.6756753,9.05841 71.8062288,8.9676 71.9358819,8.88795 C72.0664354,8.8092 72.1821328,8.7624 72.2829742,8.74755 C72.3266421,8.7336 72.3622066,8.73675 72.3914686,8.75835 C72.4202804,8.7804 72.4490923,8.7984 72.4779041,8.81235 C72.5067159,8.86995 72.5287749,8.9568 72.543631,9.07236 C72.5575867,9.18846 72.5647897,9.31806 72.5647897,9.46251 L72.5647897,10.13436 C72.5796458,10.07721 72.6804871,9.97596 72.8686642,9.83106 C73.055941,9.68661 73.2949889,9.53541 73.5840074,9.37611 C73.8730258,9.21726 74.1913063,9.07596 74.5379483,8.95365 C74.8850406,8.8308 75.232583,8.76915 75.5792251,8.76915 C75.8970554,8.76915 76.1604133,8.82315 76.3706494,8.9316 C76.5799852,9.04041 76.750155,9.17766 76.8802583,9.34326 C77.0103616,9.50976 77.1003985,9.69381 77.1512694,9.89631 C77.20169,10.09881 77.2269004,10.29366 77.2269004,10.48176 M66.536369,11.11041 C66.536369,10.86426 66.4823469,10.62621 66.3738524,10.39491 C66.2653579,10.16406 66.1244502,9.96111 65.9511292,9.78741 C65.7778081,9.61416 65.5783764,9.47736 65.3541845,9.37611 C65.1304428,9.27531 64.9026494,9.22446 64.6717048,9.22446 C64.3678303,9.22446 64.0716089,9.30006 63.7825904,9.45171 C63.493572,9.60336 63.2365166,9.80226 63.0132251,10.04751 C62.7881328,10.29366 62.6116605,10.57176 62.481107,10.88226 C62.3514539,11.19321 62.2866273,11.50011 62.2866273,11.80386 C62.2866273,11.86146 62.3329963,11.90151 62.4270849,11.92311 C62.5211734,11.94426 62.6296679,11.95911 62.7521181,11.96631 C62.8750185,11.97396 62.9943173,11.97396 63.1100148,11.96631 C63.2257122,11.95911 63.2981919,11.95506 63.3270037,11.95506 C63.7317196,11.95506 64.0675572,11.95911 64.335417,11.96631 C64.6028266,11.97396 64.9319114,11.96316 65.3222214,11.93346 C65.4955424,11.91951 65.6544576,11.90511 65.7989668,11.89026 C65.943476,11.87631 66.0699779,11.84661 66.1784723,11.80386 C66.2869668,11.76021 66.3738524,11.68416 66.438679,11.57571 C66.5044059,11.46816 66.536369,11.31246 66.536369,11.11041 M68.3362066,12.17241 C68.3362066,12.36051 68.3073948,12.50496 68.249321,12.60576 C68.1768413,12.62061 68.1012103,12.63096 68.0219779,12.63861 C67.9422952,12.64536 67.8666642,12.64896 67.7941845,12.64896 L62.3946716,12.64896 C62.3365978,12.64896 62.2645683,12.66336 62.1781328,12.69261 C62.1344649,12.69261 62.105203,12.75021 62.0912472,12.86586 C62.0763911,12.98151 62.0696384,13.09671 62.0696384,13.21236 L62.0696384,13.38606 C62.0835941,13.97871 62.1524723,14.54211 62.2758229,15.07626 C62.3982731,15.61131 62.5968044,16.08111 62.8718672,16.48566 C63.1460295,16.89021 63.5075277,17.21196 63.9559114,17.45046 C64.403845,17.68851 64.9607232,17.80776 65.6256458,17.80776 C65.9002583,17.80776 66.1424576,17.78616 66.3517934,17.74296 C66.5615793,17.69931 66.7565092,17.63451 66.9379336,17.54766 C67.1184576,17.46126 67.2989815,17.35281 67.4799557,17.22231 C67.6604797,17.09271 67.8594613,16.94826 68.076,16.78896 C68.0899557,16.77456 68.1480295,16.76781 68.249321,16.76781 C68.3501624,16.76781 68.4010332,16.81056 68.4010332,16.89741 C68.4010332,16.96986 68.361417,17.06391 68.2821845,17.17911 C68.2025018,17.29476 68.1120148,17.41041 68.0111734,17.52606 C67.9098819,17.64171 67.8049889,17.75016 67.6964945,17.85096 C67.5884502,17.95221 67.5051661,18.02421 67.4470923,18.06786 C66.9987085,18.44406 66.5651808,18.71451 66.1465092,18.88101 C65.7269373,19.04661 65.2276827,19.12986 64.6496458,19.12986 C63.9703173,19.12986 63.3706716,19.01061 62.8498081,18.77211 C62.3293948,18.53406 61.888214,18.20151 61.5271661,17.77491 C61.1656679,17.34921 60.8915055,16.85421 60.7033284,16.29081 C60.5156015,15.72696 60.41431,15.11991 60.3999041,14.46966 C60.385048,13.79106 60.4498745,13.10391 60.5948339,12.41046 C60.7393432,11.71701 60.977941,11.09241 61.3106273,10.53576 C61.6428635,9.97956 62.0804428,9.52416 62.6224649,9.17001 C63.1644871,8.8164 63.8186052,8.6391 64.5848192,8.6391 C65.4518745,8.6391 66.1928782,8.82315 66.8073801,9.19161 C67.4223321,9.56016 67.8594613,10.17801 68.1196679,11.04471 C68.1768413,11.23281 68.2245609,11.42091 68.2605756,11.60856 C68.2961402,11.79666 68.3222509,11.98476 68.3362066,12.17241 M58.6036679,7.55505 C58.6036679,7.0641 58.5271365,6.5907 58.3754244,6.13575 C58.2237122,5.68035 57.9927675,5.27985 57.68169,4.93245 C57.3706125,4.5855 56.9843542,4.3038 56.5215646,4.08735 C56.0583247,3.87045 55.5239557,3.7476 54.917107,3.7188 C54.7577417,3.7188 54.5844207,3.7296 54.3966937,3.75165 C54.2085166,3.7728 54.0491513,3.8412 53.9194982,3.95685 C53.7889446,4.08735 53.6984576,4.29345 53.6484871,4.5747 C53.5976162,4.8564 53.5728561,5.1273 53.5728561,5.3874 L53.5728561,5.82165 C53.5728561,6.55785 53.5796089,7.2882 53.5940148,8.01045 C53.6084207,8.7336 53.6228266,9.46251 53.6376827,10.19961 L53.6156236,10.19961 L53.6156236,11.80386 C53.6016679,11.96316 53.5904133,12.17601 53.5836605,12.44331 C53.5760074,12.71016 53.5688044,12.99231 53.5616015,13.28841 C53.5539483,13.58496 53.550797,13.88466 53.550797,14.18796 L53.550797,14.98986 L53.550797,16.31241 C53.550797,16.48566 53.558,16.65936 53.5728561,16.83261 C53.5868118,17.00586 53.6228266,17.16831 53.6813506,17.31996 C53.738524,17.47206 53.814155,17.60571 53.9086937,17.72136 C54.0023321,17.83656 54.1360369,17.91621 54.3093579,17.95941 C54.3966937,17.98911 54.5186937,18.01701 54.678059,18.04626 C54.8374244,18.07551 54.999941,18.10386 55.1665092,18.13266 C55.3321771,18.16236 55.4843395,18.18756 55.6216458,18.20871 C55.7585018,18.23031 55.8561919,18.24921 55.9147159,18.26316 C56.0295129,18.32076 56.0695793,18.38556 56.0335646,18.45846 C55.9975498,18.53091 55.9646863,18.61776 55.9358745,18.71856 C55.8633948,18.77571 55.7765092,18.81216 55.6756679,18.82701 C55.5748266,18.84096 55.4735351,18.84816 55.3726937,18.84816 C54.9094539,18.84816 54.4399114,18.82296 53.9627159,18.77211 C53.4859705,18.72171 53.0087749,18.69651 52.5315793,18.69651 C52.0251218,18.69651 51.5308192,18.72171 51.0464207,18.77211 C50.5620221,18.82296 50.0668192,18.84816 49.5603616,18.84816 C49.4158524,18.84816 49.322214,18.80136 49.2789963,18.70731 C49.2353284,18.61371 49.2137196,18.50886 49.2137196,18.39276 C49.2137196,18.33561 49.3042066,18.28116 49.4847306,18.23031 C49.6652546,18.18036 49.8754908,18.12186 50.1136384,18.05706 C50.3526863,17.99226 50.5831808,17.91261 50.8078229,17.81901 C51.0315646,17.72496 51.1868782,17.59851 51.2737638,17.43921 C51.3894613,17.19396 51.4542878,16.92306 51.4691439,16.62651 C51.4830996,16.33041 51.4907528,16.04466 51.4907528,15.77061 C51.4907528,14.90301 51.4979557,14.03631 51.5128118,13.16961 C51.5267675,12.30201 51.5339705,11.43531 51.5339705,10.56816 C51.5339705,9.61416 51.5308192,8.66475 51.5236162,7.7175 C51.5159631,6.77205 51.5128118,5.82165 51.5128118,4.8672 C51.5128118,4.5495 51.4542878,4.31865 51.3390406,4.17375 C51.222893,4.0293 51.0824354,3.9321 50.9158672,3.88125 C50.7497491,3.8313 50.5651734,3.8133 50.3630406,3.82725 C50.1604576,3.8412 49.9763321,3.84525 49.810214,3.83805 C49.6440959,3.8313 49.502738,3.79845 49.3870406,3.7404 C49.2713432,3.6828 49.2137196,3.55995 49.2137196,3.37185 C49.2137196,3.2562 49.2573875,3.177 49.3442731,3.1338 C49.4307085,3.09015 49.5243469,3.06135 49.6260886,3.04695 C50.3198229,2.9745 51.0095055,2.93175 51.6969373,2.9169 C52.3830185,2.9025 53.0736015,2.89485 53.767786,2.89485 L55.0039926,2.89485 C55.7841624,2.89485 56.5287675,2.9853 57.2373579,3.16575 C57.945048,3.3471 58.5667528,3.6252 59.1020221,4.0005 C59.6363911,4.37625 60.0636162,4.8564 60.3814465,5.4423 C60.6992768,6.02685 60.8581919,6.71715 60.8581919,7.5123 C60.8581919,8.19135 60.7208856,8.8092 60.4462731,9.36531 C60.1716605,9.92196 59.8029594,10.40211 59.3401697,10.80666 C58.8778303,11.21121 58.3322066,11.52576 57.7037491,11.74896 C57.0748413,11.97396 56.4130701,12.08556 55.7193358,12.08556 C55.4735351,12.08556 55.3249742,12.06756 55.2750037,12.03111 C55.2241328,11.99511 55.1476015,11.94111 55.0467601,11.86866 C55.0179483,11.83986 54.9850849,11.78586 54.9490701,11.70621 C54.9130554,11.62701 54.8914465,11.54376 54.8842435,11.45691 C54.8765904,11.37051 54.8842435,11.29446 54.9063026,11.22921 C54.9279114,11.16441 54.9742804,11.13156 55.0467601,11.13156 C55.1048339,11.14641 55.1403985,11.15316 55.1552546,11.15316 C55.6756679,11.13921 56.1452103,11.04156 56.5647823,10.86066 C56.9843542,10.68021 57.3458524,10.43496 57.6488266,10.12401 C57.9527011,9.81351 58.1872472,9.43776 58.3538155,8.99676 C58.5199336,8.5563 58.6036679,8.07525 58.6036679,7.55505" id="Fill-3" fill="#000000"></path>
            <path d="M121.821277,37.641555 C121.821277,37.960155 121.741594,38.313855 121.582229,38.703555 C121.29321,39.397455 120.873638,39.896055 120.324413,40.199805 C119.775188,40.502655 119.146731,40.654755 118.43814,40.654755 C118.264819,40.654755 118.018568,40.636305 117.701188,40.600305 C117.382458,40.564305 117.064627,40.499505 116.746797,40.405005 C116.428967,40.311405 116.153904,40.188555 115.922509,40.037355 C115.691565,39.884805 115.575867,39.693555 115.575867,39.462705 L115.597476,38.725605 C115.597476,38.566755 115.593875,38.407455 115.586672,38.249055 C115.579018,38.089755 115.575867,37.909305 115.575867,37.707255 C115.589823,37.634355 115.630339,37.591605 115.695166,37.576755 C115.759993,37.562355 115.821668,37.554705 115.879742,37.554705 C115.966177,37.554705 116.027402,37.584405 116.063867,37.641555 C116.099882,37.699155 116.131845,37.764855 116.161557,37.836855 C116.277255,38.096955 116.396103,38.357055 116.519454,38.616705 C116.641904,38.877705 116.786413,39.104955 116.952982,39.300255 C117.118649,39.495105 117.31403,39.654405 117.538221,39.776355 C117.762413,39.899655 118.040627,39.960855 118.373314,39.960855 C118.893277,39.960855 119.312849,39.802005 119.630679,39.484305 C119.948959,39.166605 120.108325,38.733255 120.108325,38.183355 C120.108325,37.822455 119.991727,37.515555 119.761232,37.262655 C119.529387,37.009755 119.240369,36.774855 118.893277,36.557505 C118.546635,36.341505 118.170731,36.135405 117.766015,35.940105 C117.360849,35.744805 116.985845,35.517555 116.638303,35.257455 C116.29121,34.997355 116.002192,34.697655 115.770797,34.357905 C115.539852,34.018155 115.424155,33.602805 115.424155,33.111855 C115.424155,32.591655 115.506989,32.143455 115.673557,31.767705 C115.839675,31.391955 116.067018,31.084605 116.356937,30.846555 C116.645055,30.608055 116.988996,30.430755 117.386509,30.315555 C117.784022,30.199905 118.213948,30.141855 118.677188,30.141855 C119.008974,30.141855 119.377675,30.192705 119.782391,30.293505 C120.187107,30.395205 120.51259,30.575205 120.758391,30.835305 C120.816015,30.893355 120.866886,30.955005 120.910554,31.019805 C120.953321,31.084605 120.97538,31.161105 120.97538,31.247505 C120.97538,31.738905 120.953321,32.208705 120.910554,32.656455 C120.895697,32.743305 120.87769,32.826555 120.855631,32.905755 C120.834472,32.984955 120.766044,33.025005 120.650347,33.025005 C120.563461,33.025005 120.483779,32.909355 120.411299,32.678055 C120.338819,32.447205 120.227173,32.197905 120.075461,31.930155 C119.923749,31.663305 119.70676,31.414005 119.424494,31.182255 C119.142679,30.951855 118.748768,30.835305 118.24276,30.835305 C117.809232,30.835305 117.480148,30.994605 117.255956,31.312755 C117.031764,31.630455 116.920118,32.006205 116.920118,32.439555 C116.920118,32.757705 117.039417,33.043005 117.278015,33.295905 C117.517063,33.548805 117.820037,33.790905 118.188738,34.022205 C118.557439,34.253505 118.951351,34.487505 119.370923,34.726455 C119.789594,34.964505 120.183956,35.224605 120.552657,35.506755 C120.921358,35.788455 121.224332,36.102555 121.46338,36.449955 C121.701978,36.796455 121.821277,37.193805 121.821277,37.641555 M110.978583,33.393555 C110.934915,33.032205 110.866037,32.696055 110.772399,32.385555 C110.67786,32.074605 110.541004,31.810905 110.36048,31.594455 C110.179506,31.377555 109.940908,31.218705 109.645137,31.117455 C109.348015,31.016655 108.983365,30.986955 108.549838,31.030605 C108.173483,31.074255 107.866908,31.189905 107.62786,31.377555 C107.389712,31.565655 107.197483,31.785705 107.053875,32.038605 C106.908465,32.291505 106.810775,32.555655 106.760804,32.829705 C106.709934,33.104655 106.691926,33.342705 106.706332,33.545205 C106.735144,33.877755 106.796819,34.209405 106.890458,34.542405 C106.984546,34.874955 107.121852,35.167455 107.302827,35.419905 C107.483351,35.672805 107.717897,35.868105 108.007815,36.005355 C108.296834,36.143055 108.643476,36.188955 109.048192,36.146205 C109.467764,36.102555 109.810804,36.008955 110.078664,35.864055 C110.345624,35.719605 110.548207,35.528355 110.685513,35.290305 C110.822819,35.051355 110.913756,34.773255 110.956524,34.455555 C111.000192,34.137855 111.007395,33.783255 110.978583,33.393555 M113.189889,42.865605 C113.189889,41.998905 112.894118,41.366205 112.301225,40.968855 C111.708332,40.571505 110.826871,40.380255 109.655941,40.394655 C108.571446,40.394655 107.728701,40.629105 107.129506,41.099355 C106.52941,41.568705 106.229587,42.280605 106.229587,43.234155 C106.229587,43.537905 106.323225,43.822755 106.511402,44.090055 C106.699129,44.357805 106.94538,44.592255 107.248354,44.795205 C107.552229,44.996805 107.895269,45.155655 108.278827,45.271305 C108.661483,45.386955 109.040989,45.445005 109.416893,45.445005 C109.865277,45.445005 110.31276,45.379755 110.761144,45.249705 C111.209528,45.120105 111.614244,44.938755 111.976192,44.707905 C112.33724,44.476605 112.62986,44.205705 112.854052,43.895655 C113.078244,43.584255 113.189889,43.241355 113.189889,42.865605 M104.516635,43.060905 C104.516635,42.901605 104.559402,42.706305 104.646288,42.475005 C104.732723,42.244155 104.877232,41.998905 105.080266,41.738805 C105.281948,41.477805 105.546207,41.214555 105.87169,40.946805 C106.196723,40.679955 106.605491,40.423005 107.096642,40.177755 C106.272804,40.249755 105.647498,40.134105 105.221173,39.831255 C104.794399,39.527505 104.581461,39.137805 104.581461,38.660355 C104.566605,38.458305 104.661144,38.252205 104.863277,38.042955 C105.06586,37.833705 105.318863,37.641555 105.622738,37.468305 C105.925712,37.295055 106.251646,37.140255 106.598288,37.002105 C106.94538,36.865305 107.255557,36.767655 107.53017,36.710055 C107.197483,36.536355 106.880103,36.352305 106.576229,36.157005 C106.272804,35.961705 106.005395,35.741655 105.774,35.495505 C105.543055,35.250255 105.361631,34.972605 105.231978,34.661655 C105.101424,34.350705 105.036598,34.000155 105.036598,33.610005 C105.036598,33.075855 105.141491,32.598855 105.351277,32.179455 C105.561063,31.760505 105.838827,31.409955 106.185919,31.128255 C106.532561,30.846555 106.934125,30.629205 107.389712,30.478005 C107.845299,30.326355 108.325646,30.250755 108.831653,30.250755 C109.221513,30.250755 109.586613,30.308355 109.926952,30.424005 C110.265941,30.539655 110.616635,30.676905 110.978583,30.835305 C111.151904,30.908205 111.314421,30.994605 111.466133,31.095405 C111.618295,31.197105 111.809624,31.305555 112.041018,31.421205 C112.330037,31.565655 112.626258,31.608405 112.929683,31.550805 C113.233557,31.493655 113.550937,31.463955 113.883624,31.463955 C114.042989,31.463955 114.144731,31.532805 114.187498,31.670055 C114.231166,31.807755 114.252325,31.934205 114.252325,32.049855 C114.252325,32.194305 114.198753,32.298705 114.089808,32.363505 C113.981314,32.428305 113.851661,32.468805 113.699498,32.483205 C113.547786,32.497155 113.385269,32.501205 113.211948,32.494005 C113.038627,32.486805 112.886915,32.483205 112.756362,32.483205 C112.640664,32.483205 112.593845,32.489955 112.615904,32.504805 C112.637063,32.519205 112.6051,32.562855 112.518214,32.634405 C112.546576,32.793705 112.568185,32.924205 112.583041,33.025005 C112.596996,33.125805 112.6051,33.263055 112.6051,33.436755 C112.6051,33.595605 112.596996,33.722055 112.583041,33.816105 C112.568185,33.910605 112.53217,34.036155 112.474546,34.195455 C112.271963,34.888905 111.910465,35.470755 111.390052,35.940105 C110.870089,36.409905 110.241181,36.695655 109.503779,36.796455 C109.272384,36.825255 108.979314,36.872505 108.625469,36.937305 C108.271173,37.002105 107.931734,37.088505 107.606251,37.197405 C107.281218,37.305855 107.002103,37.446255 106.771609,37.620405 C106.539764,37.793655 106.424967,37.996155 106.424967,38.227005 C106.424967,38.515905 106.547417,38.714355 106.792768,38.822805 C107.039018,38.931705 107.342893,38.989305 107.703941,38.996505 C108.065439,39.004155 108.452148,38.982105 108.864066,38.931705 C109.276435,38.880855 109.655941,38.841705 110.002583,38.812005 C110.536952,38.769255 111.076273,38.808855 111.618295,38.931705 C112.160317,39.054105 112.644266,39.260205 113.07059,39.549105 C113.496915,39.838005 113.844007,40.210605 114.111867,40.665555 C114.378827,41.120505 114.512531,41.651955 114.512531,42.258555 C114.527387,43.139655 114.357218,43.852005 114.003373,44.393805 C113.648627,44.935605 113.193491,45.354105 112.637063,45.651105 C112.080635,45.946755 111.472886,46.146105 110.816066,46.246905 C110.157446,46.348155 109.525387,46.399005 108.918539,46.399005 C108.325646,46.399005 107.758413,46.312155 107.216391,46.138905 C106.673919,45.964755 106.199875,45.729855 105.796059,45.433755 C105.390893,45.138105 105.072613,44.787105 104.841668,44.383005 C104.610273,43.978455 104.501779,43.537905 104.516635,43.060905 M95.1703542,29.968605 C95.2279779,29.968605 95.282,30.004605 95.3328708,30.077055 C95.3837417,30.149505 95.4094022,30.206655 95.4094022,30.250755 C95.4094022,30.308355 95.4017491,30.365955 95.3873432,30.424005 C95.3724871,30.481605 95.3657343,30.539655 95.3657343,30.597255 L95.3657343,31.767705 L95.4094022,31.789755 C95.4521697,31.774905 95.5102435,31.731705 95.5827232,31.659255 C96.0734244,31.240755 96.572679,30.882555 97.0786863,30.586455 C97.5842435,30.290355 98.1699336,30.141855 98.8348561,30.141855 C99.412893,30.141855 99.8941402,30.236355 100.276797,30.424005 C100.659904,30.612105 100.96738,30.868155 101.198775,31.193055 C101.43017,31.518855 101.589085,31.908555 101.67597,32.363505 C101.762856,32.818905 101.805624,33.306705 101.805624,33.826905 C101.805624,34.115805 101.798871,34.397955 101.784015,34.672005 C101.769609,34.946955 101.762856,35.228655 101.762856,35.517555 L101.762856,38.682405 C101.762856,39.173355 101.906465,39.477105 102.196384,39.592755 C102.485402,39.708405 102.839247,39.766005 103.258819,39.766005 C103.330849,39.766005 103.378118,39.798405 103.399277,39.863655 C103.421336,39.928455 103.43214,39.997305 103.43214,40.069305 C103.43214,40.126905 103.421336,40.184955 103.399277,40.242555 C103.378118,40.300605 103.316443,40.329405 103.215601,40.329405 C103.012568,40.329405 102.814037,40.318605 102.619107,40.297005 C102.423727,40.275405 102.225196,40.264605 102.023063,40.264605 L100.396546,40.264605 C100.280849,40.264605 100.165151,40.267755 100.049454,40.275405 C99.9333063,40.282605 99.8185092,40.293405 99.7028118,40.308255 C99.586214,40.322205 99.4709668,40.333005 99.3557196,40.340205 C99.239572,40.347405 99.1238745,40.351005 99.0081771,40.351005 C98.9217417,40.351005 98.7952399,40.340205 98.6291218,40.318605 C98.4630037,40.297005 98.3792694,40.221405 98.3792694,40.090905 C98.3792694,39.946455 98.4373432,39.849255 98.5534908,39.798405 C98.6682878,39.748455 98.8096458,39.711555 98.976214,39.689955 C99.1418819,39.668805 99.3084502,39.639555 99.4745683,39.603105 C99.6411365,39.567105 99.7748413,39.484305 99.8761328,39.353805 C99.9918303,39.209355 100.056657,39.014955 100.071513,38.769255 C100.085469,38.523105 100.092672,38.313855 100.092672,38.140605 C100.106627,37.822455 100.11428,37.511955 100.11428,37.208205 L100.11428,34.411905 C100.11428,34.036155 100.096273,33.667605 100.060258,33.306705 C100.023793,32.945355 99.9373579,32.623605 99.8005018,32.341905 C99.6622952,32.060655 99.4565609,31.832505 99.1819483,31.659255 C98.9073358,31.486005 98.5386347,31.399155 98.0762952,31.399155 C97.7436089,31.399155 97.4433358,31.445955 97.1763764,31.540005 C96.9085166,31.634055 96.6303026,31.760505 96.3412841,31.919355 C96.211631,31.991805 96.048214,32.085405 95.8537343,32.201055 C95.6583542,32.316705 95.5241993,32.447205 95.4521697,32.591655 C95.4233579,32.678055 95.3981476,32.811705 95.3765387,32.992155 C95.3544797,33.173505 95.3364723,33.379605 95.3225166,33.610005 C95.3076605,33.841755 95.3009077,34.079805 95.3009077,34.325055 L95.3009077,35.019405 L95.3009077,38.551905 C95.3009077,38.841705 95.3657343,39.079755 95.4958376,39.267405 C95.6547528,39.484305 95.8388782,39.607155 96.048214,39.635955 C96.258,39.664755 96.4641845,39.679605 96.6667675,39.679605 C96.7820148,39.679605 96.8977122,39.700755 97.0138598,39.744405 C97.1007454,39.773205 97.1435129,39.852855 97.1435129,39.982455 C97.1435129,40.099005 97.1147011,40.184955 97.0570775,40.242555 C96.9413801,40.286205 96.8652989,40.311405 96.8292841,40.318605 C96.7928192,40.326255 96.7099852,40.329405 96.5803321,40.329405 C96.2616015,40.329405 95.9514244,40.311405 95.6475498,40.275405 C95.3436753,40.238955 95.0407011,40.221405 94.7368266,40.221405 C94.3609225,40.221405 93.9953727,40.238955 93.6415277,40.275405 C93.2876827,40.311405 92.9221328,40.329405 92.5462288,40.329405 C92.4305314,40.329405 92.3328413,40.311405 92.254059,40.275405 C92.1743764,40.238955 92.1347601,40.156155 92.1347601,40.026105 C92.1347601,39.939705 92.1851808,39.870855 92.2860221,39.820005 C92.3877638,39.769605 92.510214,39.726405 92.6547232,39.689955 C92.7992325,39.654405 92.9401402,39.610755 93.0783469,39.559905 C93.215203,39.509505 93.3196458,39.440655 93.3921255,39.353805 C93.5078229,39.195405 93.5839041,38.974455 93.6194686,38.693205 C93.6554834,38.411505 93.6743911,38.169405 93.6743911,37.966905 L93.6743911,33.501555 C93.6743911,33.154605 93.6455793,32.858505 93.5875055,32.612805 C93.5577934,32.453955 93.4821624,32.331555 93.3597122,32.244255 C93.2368118,32.157405 93.1062583,32.089455 92.9694022,32.038605 C92.8320959,31.988205 92.7096458,31.945005 92.6007011,31.908555 C92.4922066,31.872555 92.4381845,31.810905 92.4381845,31.724055 L92.4381845,31.681305 C92.4953579,31.580505 92.5750406,31.493655 92.6767823,31.421205 C92.7344059,31.377555 92.8901697,31.276755 93.1431734,31.117455 C93.3952768,30.958605 93.6703395,30.795705 93.9670111,30.629205 C94.2632325,30.463605 94.5306421,30.311955 94.76969,30.174705 C95.0078376,30.037455 95.1415424,29.968605 95.1703542,29.968605 M89.5768118,25.135155 C89.5768118,25.452855 89.4534613,25.723755 89.2081107,25.947855 C88.9618598,26.171955 88.6876974,26.283555 88.3838229,26.283555 C88.0511365,26.283555 87.7729225,26.171955 87.5487306,25.947855 C87.3245387,25.723755 87.212893,25.445655 87.212893,25.113105 C87.212893,24.809355 87.3357934,24.542505 87.5815941,24.311205 C87.8269446,24.079905 88.1020074,23.964705 88.4058819,23.964705 C88.7376679,23.964705 89.0158819,24.076305 89.2409742,24.300405 C89.4642657,24.524505 89.5768118,24.802605 89.5768118,25.135155 M90.9210627,40.069305 C90.9210627,40.228605 90.8454317,40.315005 90.6932694,40.329405 C90.5415572,40.343355 90.4150554,40.351005 90.314214,40.351005 C90.0535572,40.351005 89.796952,40.333005 89.5439483,40.297005 C89.2909446,40.260555 89.0415424,40.242555 88.7957417,40.242555 C88.4198376,40.242555 88.0371808,40.260555 87.6464207,40.297005 C87.2565609,40.333005 86.8730037,40.351005 86.4970996,40.351005 L86.258952,40.351005 C86.1428044,40.351005 86.0347601,40.336605 85.9334686,40.308255 C85.8326273,40.278555 85.7817565,40.184955 85.7817565,40.026105 C85.7817565,39.982455 85.7957122,39.946455 85.8254244,39.917655 C85.853786,39.888855 85.8825978,39.860055 85.91231,39.831255 C86.0419631,39.730455 86.1900738,39.668805 86.3566421,39.646755 C86.52231,39.625155 86.6848266,39.603105 86.8441919,39.581955 C87.0035572,39.559905 87.1440148,39.509505 87.2669151,39.429855 C87.3893653,39.350655 87.4730996,39.195405 87.5167675,38.964105 C87.5455793,38.819655 87.5599852,38.718405 87.5599852,38.660355 L87.5599852,38.335455 C87.573941,37.873305 87.5775424,37.421505 87.5707897,36.980955 C87.5635867,36.539955 87.566738,36.088155 87.5815941,35.626005 C87.5955498,35.279505 87.6144576,34.935705 87.6356162,34.595955 C87.6572251,34.257105 87.6684797,33.913755 87.6684797,33.566805 C87.6684797,33.393555 87.6572251,33.184305 87.6356162,32.938155 C87.6144576,32.692455 87.5455793,32.497155 87.4298819,32.352705 C87.3574022,32.265855 87.2565609,32.194305 87.1260074,32.136255 C86.9963542,32.078655 86.8694022,32.024655 86.7465018,31.973355 C86.6240517,31.922955 86.515107,31.872555 86.4214686,31.821705 C86.3269299,31.771755 86.2801107,31.710105 86.2801107,31.637655 C86.2801107,31.565655 86.3237786,31.500855 86.4106642,31.442355 C86.4970996,31.385205 86.6019926,31.330305 86.7253432,31.279905 C86.8473432,31.229505 86.9670923,31.185855 87.0832399,31.150305 C87.1980369,31.114305 87.2849225,31.088655 87.3434465,31.074255 C87.4442878,31.045455 87.588797,30.979755 87.7769742,30.878955 C87.9642509,30.778155 88.1564797,30.672855 88.3509594,30.564405 C88.5463395,30.455955 88.7237122,30.358305 88.8821771,30.271905 C89.0415424,30.185055 89.1500369,30.141855 89.2081107,30.141855 C89.2945461,30.141855 89.3377638,30.177855 89.3377638,30.250755 C89.3377638,30.466755 89.3346125,30.680505 89.3274096,30.890205 C89.3197565,31.099455 89.308952,31.312755 89.2945461,31.528755 C89.2801402,31.963005 89.2688856,32.400405 89.2621328,32.840505 C89.2549299,33.281955 89.2508782,33.718455 89.2508782,34.151805 C89.2508782,34.686855 89.2549299,35.217855 89.2621328,35.744805 C89.2688856,36.272655 89.2801402,36.803655 89.2945461,37.338705 C89.2945461,37.584405 89.2909446,37.833705 89.2837417,38.085705 C89.2760886,38.339055 89.286893,38.588805 89.3166052,38.834055 C89.3449668,39.137805 89.4426568,39.339855 89.6087749,39.440655 C89.7753432,39.541905 89.9563173,39.610755 90.150797,39.646755 C90.3461771,39.682755 90.5235498,39.719205 90.6820148,39.755205 C90.8413801,39.791205 90.9210627,39.896055 90.9210627,40.069305 M84.8921919,31.963005 C84.8921919,32.122305 84.8633801,32.277105 84.8053063,32.428305 C84.7476827,32.580855 84.6571956,32.699655 84.5342952,32.786055 C84.4113948,32.872905 84.2560812,32.913405 84.0688044,32.905755 C83.8801771,32.898555 83.6631882,32.808105 83.4178376,32.634405 C83.30169,32.562855 83.226059,32.453955 83.1900443,32.309505 C83.1540295,32.165055 83.1139631,32.020605 83.0711956,31.876155 C83.0275277,31.731705 82.9694539,31.605255 82.8974244,31.496805 C82.8249446,31.388355 82.6948413,31.334355 82.5071144,31.334355 C82.2032399,31.334355 81.9142214,31.388355 81.640059,31.496805 C81.3649963,31.605255 81.1187454,31.742955 80.9026568,31.908555 C80.6852177,32.074605 80.5118967,32.265855 80.3822435,32.483205 C80.25169,32.699655 80.1868635,32.916555 80.1868635,33.133455 L80.1868635,38.400705 C80.1868635,38.515905 80.1940664,38.609955 80.2089225,38.682405 C80.2368339,38.928105 80.3133653,39.122955 80.4362657,39.267405 C80.5587159,39.411855 80.7072768,39.520305 80.8805978,39.592755 C81.0539188,39.664755 81.2456974,39.708405 81.4554834,39.722355 C81.6648192,39.737205 81.8705535,39.744405 82.0735867,39.744405 C82.2032399,39.744405 82.2689668,39.874005 82.2689668,40.134105 C82.2689668,40.235355 82.2284502,40.297005 82.1492177,40.318605 C82.0695351,40.340205 81.9939041,40.351005 81.9214244,40.351005 C81.5603764,40.351005 81.2024797,40.326255 80.8477343,40.275405 C80.4938893,40.224555 80.1359926,40.199805 79.7744945,40.199805 C79.3697786,40.199805 78.9650627,40.224555 78.5603469,40.275405 C78.155631,40.326255 77.7504649,40.351005 77.3457491,40.351005 C77.2588635,40.351005 77.1544207,40.329405 77.0315203,40.286205 C76.9090701,40.242555 76.8473948,40.156155 76.8473948,40.026105 C76.8473948,39.881655 76.9194244,39.791205 77.0643838,39.755205 C77.2084428,39.719205 77.3678081,39.682755 77.5411292,39.646755 C77.7144502,39.610755 77.8846199,39.549105 78.0511882,39.462705 C78.2168561,39.375855 78.3221993,39.209355 78.365417,38.964105 C78.4230406,38.675205 78.4590554,38.386305 78.4739114,38.096955 C78.4878672,37.808055 78.4955203,37.518705 78.4955203,37.229805 C78.4955203,36.666405 78.4919188,36.146205 78.4847159,35.669205 C78.4770627,35.192655 78.4739114,34.672005 78.4739114,34.108605 C78.4739114,33.920505 78.4698598,33.726105 78.4626568,33.523155 C78.4550037,33.321105 78.4158376,33.133455 78.3433579,32.959305 C78.2857343,32.786055 78.1988487,32.656455 78.0831513,32.569605 C77.9674539,32.483205 77.8558081,32.410305 77.7473137,32.352705 C77.6388192,32.295555 77.5379779,32.237055 77.4434391,32.179455 C77.3498007,32.122305 77.2948782,32.035005 77.2809225,31.919355 C77.3097343,31.847355 77.3606052,31.789755 77.4330849,31.746105 C77.5051144,31.702905 77.569941,31.666905 77.6280148,31.637655 C77.772524,31.565655 77.9129815,31.493655 78.0511882,31.421205 C78.1880443,31.348305 78.3294022,31.268655 78.4739114,31.182255 C78.5747528,31.125105 78.6909004,31.045455 78.8205535,30.944205 C78.951107,30.842955 79.0807601,30.741705 79.2113137,30.640455 C79.3409668,30.539655 79.4715203,30.448755 79.6011734,30.369105 C79.7312768,30.290355 79.8469742,30.243555 79.9478155,30.228705 C79.9914834,30.214755 80.0274982,30.217905 80.05631,30.239505 C80.085572,30.261555 80.1143838,30.279555 80.1431956,30.293505 C80.1720074,30.351555 80.1940664,30.437955 80.2089225,30.553605 C80.2228782,30.669705 80.2300812,30.799305 80.2300812,30.944205 L80.2300812,31.615605 C80.2449373,31.558455 80.3457786,31.457205 80.5339557,31.312755 C80.7212325,31.167855 80.9602804,31.016655 81.2492989,30.857355 C81.5383173,30.698505 81.8561476,30.557655 82.2032399,30.434805 C82.5498819,30.311955 82.8974244,30.250755 83.2445166,30.250755 C83.5623469,30.250755 83.8257048,30.304305 84.035941,30.412755 C84.2452768,30.521655 84.4154465,30.658905 84.5450996,30.824505 C84.6756531,30.991005 84.76569,31.175055 84.8161107,31.377555 C84.8669815,31.580505 84.8921919,31.774905 84.8921919,31.963005 M74.2894465,25.135155 C74.2894465,25.452855 74.1660959,25.723755 73.9207454,25.947855 C73.6749446,26.171955 73.4003321,26.283555 73.0964576,26.283555 C72.7637712,26.283555 72.4860074,26.171955 72.2618155,25.947855 C72.0376236,25.723755 71.9255277,25.445655 71.9255277,25.113105 C71.9255277,24.809355 72.048428,24.542505 72.2942288,24.311205 C72.5395793,24.079905 72.8146421,23.964705 73.1185166,23.964705 C73.4507528,23.964705 73.7289668,24.076305 73.9536089,24.300405 C74.1769004,24.524505 74.2894465,24.802605 74.2894465,25.135155 M75.6341476,40.069305 C75.6341476,40.228605 75.5580664,40.315005 75.4059041,40.329405 C75.2541919,40.343355 75.12769,40.351005 75.0268487,40.351005 C74.7661919,40.351005 74.5100369,40.333005 74.256583,40.297005 C74.0035793,40.260555 73.7546273,40.242555 73.5083764,40.242555 C73.1324723,40.242555 72.7498155,40.260555 72.3590554,40.297005 C71.9691956,40.333005 71.5860886,40.351005 71.2101845,40.351005 L70.9715867,40.351005 C70.8554391,40.351005 70.7473948,40.336605 70.6461033,40.308255 C70.545262,40.278555 70.4943911,40.184955 70.4943911,40.026105 C70.4943911,39.982455 70.508797,39.946455 70.538059,39.917655 C70.5664207,39.888855 70.5952325,39.860055 70.6249446,39.831255 C70.7545978,39.730455 70.9031587,39.668805 71.0692768,39.646755 C71.2349446,39.625155 71.3974613,39.603105 71.5568266,39.581955 C71.7161919,39.559905 71.8570996,39.509505 71.9795498,39.429855 C72.1024502,39.350655 72.1857343,39.195405 72.2294022,38.964105 C72.258214,38.819655 72.2726199,38.718405 72.2726199,38.660355 L72.2726199,38.335455 C72.2865756,37.873305 72.2906273,37.421505 72.2834244,36.980955 C72.2762214,36.539955 72.2798229,36.088155 72.2942288,35.626005 C72.3086347,35.279505 72.3270923,34.935705 72.3482509,34.595955 C72.37031,34.257105 72.3811144,33.913755 72.3811144,33.566805 C72.3811144,33.393555 72.37031,33.184305 72.3482509,32.938155 C72.3270923,32.692455 72.258214,32.497155 72.1429668,32.352705 C72.0700369,32.265855 71.9691956,32.194305 71.8390923,32.136255 C71.7089889,32.078655 71.5820369,32.024655 71.4591365,31.973355 C71.3366863,31.922955 71.2281919,31.872555 71.1341033,31.821705 C71.0400148,31.771755 70.9931956,31.710105 70.9931956,31.637655 C70.9931956,31.565655 71.0368635,31.500855 71.1232989,31.442355 C71.2101845,31.385205 71.3146273,31.330305 71.4379779,31.279905 C71.5599779,31.229505 71.6797269,31.185855 71.7958745,31.150305 C71.9111218,31.114305 71.9975572,31.088655 72.0560812,31.074255 C72.1569225,31.045455 72.3014317,30.979755 72.4896089,30.878955 C72.6773358,30.778155 72.8691144,30.672855 73.0640443,30.564405 C73.2589742,30.455955 73.4363469,30.358305 73.595262,30.271905 C73.7546273,30.185055 73.8631218,30.141855 73.9207454,30.141855 C74.007631,30.141855 74.0503985,30.177855 74.0503985,30.250755 C74.0503985,30.466755 74.0472472,30.680505 74.0404945,30.890205 C74.0323911,31.099455 74.0215867,31.312755 74.007631,31.528755 C73.9927749,31.963005 73.9819705,32.400405 73.9747675,32.840505 C73.9675646,33.281955 73.9639631,33.718455 73.9639631,34.151805 C73.9639631,34.686855 73.9675646,35.217855 73.9747675,35.744805 C73.9819705,36.272655 73.9927749,36.803655 74.007631,37.338705 C74.007631,37.584405 74.0035793,37.833705 73.9963764,38.085705 C73.9887232,38.339055 73.9999779,38.588805 74.0292399,38.834055 C74.0576015,39.137805 74.1552915,39.339855 74.3214096,39.440655 C74.4879779,39.541905 74.668952,39.610755 74.8638819,39.646755 C75.059262,39.682755 75.2361845,39.719205 75.3950996,39.755205 C75.5544649,39.791205 75.6341476,39.896055 75.6341476,40.069305 M66.2550037,35.875305 C66.2473506,35.766855 66.2365461,35.676855 66.2221402,35.604405 C66.0920369,35.633205 65.9403247,35.672805 65.7670037,35.723655 C65.5932325,35.774505 65.41631,35.831655 65.235786,35.896905 C65.0543616,35.961705 64.8810406,36.026505 64.7153727,36.092205 C64.5488044,36.157005 64.4006937,36.211005 64.2710406,36.254655 C63.8802804,36.399105 63.5223838,36.608355 63.1973506,36.883305 C62.8718672,37.158255 62.7093506,37.518705 62.7093506,37.966905 C62.7093506,38.371455 62.8029889,38.703555 62.9911661,38.964105 C63.178893,39.224205 63.5043764,39.353805 63.9671661,39.353805 C64.2710406,39.353805 64.5780664,39.278205 64.8886937,39.126555 C65.1988708,38.974455 65.4559262,38.790405 65.6585092,38.573955 C65.7737565,38.458305 65.897107,38.288655 66.0272103,38.064555 C66.1573137,37.840455 66.2293432,37.649205 66.2441993,37.489905 C66.2441993,37.389105 66.2473506,37.320705 66.2550037,37.283805 C66.2622066,37.247805 66.2653579,37.223055 66.2653579,37.208205 L66.2653579,36.254655 C66.2653579,36.110205 66.2622066,35.983755 66.2550037,35.875305 M69.9087011,38.660355 C69.9087011,38.675205 69.893845,38.740005 69.8650332,38.855655 C69.7493358,39.318255 69.5035351,39.689955 69.1280812,39.971655 C68.7517269,40.253355 68.3254022,40.394655 67.8486568,40.394655 C67.3714613,40.394655 66.9955572,40.242555 66.7209446,39.939705 C66.4463321,39.635955 66.2514022,39.267405 66.1357048,38.834055 C65.9763395,39.050955 65.7778081,39.260205 65.5396605,39.462705 C65.3006125,39.664755 65.0363542,39.849255 64.7473358,40.015305 C64.4583173,40.180905 64.1584945,40.311405 63.847417,40.405005 C63.5367897,40.499505 63.2365166,40.546305 62.9474982,40.546305 C62.2109963,40.546305 61.6937343,40.333005 61.3975129,39.906855 C61.1008413,39.480705 60.9531808,38.942505 60.9531808,38.291805 C60.9531808,37.974105 61.0360148,37.682055 61.2021328,37.414305 C61.3682509,37.147005 61.5780369,36.904455 61.8310406,36.688005 C62.0835941,36.471105 62.3586568,36.283455 62.6553284,36.124155 C62.9515498,35.965755 63.2297638,35.835255 63.4895203,35.734455 C63.9959779,35.546355 64.4551661,35.383905 64.8670849,35.246655 C65.2785535,35.108955 65.7449446,34.975755 66.2653579,34.845255 L66.2653579,33.176655 C66.2653579,32.569605 66.1537122,32.081805 65.9295203,31.713255 C65.7053284,31.345155 65.2681993,31.161105 64.6176827,31.161105 C64.184155,31.161105 63.8366125,31.236705 63.5764059,31.388355 C63.3161993,31.540005 63.1109151,31.720905 62.9583026,31.930155 C62.8070406,32.139405 62.7016974,32.345505 62.644524,32.548005 C62.5864502,32.750955 62.5427823,32.902155 62.5139705,33.002955 C62.4414908,33.234255 62.2897786,33.429555 62.0583838,33.587955 C61.8274391,33.747255 61.5744354,33.826905 61.2998229,33.826905 C61.1404576,33.826905 61.0468192,33.758055 61.0180074,33.620805 C60.9891956,33.483555 60.9743395,33.357555 60.9743395,33.241455 C60.9743395,32.894505 61.1188487,32.537205 61.4083173,32.168655 C61.6968856,31.799655 62.051631,31.457205 62.4707528,31.139055 C62.8898745,30.821355 63.3450111,30.561255 63.8366125,30.358305 C64.328214,30.156705 64.7761476,30.055455 65.1817638,30.055455 C65.2826052,30.055455 65.409107,30.066255 65.5608192,30.088305 C65.7129815,30.109455 65.867845,30.135105 66.0272103,30.163905 C66.1856753,30.192705 66.3378376,30.228705 66.4823469,30.271905 C66.6268561,30.315555 66.7425535,30.358305 66.8294391,30.401955 C67.3066347,30.648105 67.6028561,30.969855 67.7181033,31.366305 C67.8338007,31.764555 67.8918745,32.208705 67.8918745,32.699655 C67.8918745,33.249105 67.8846716,33.830955 67.8707159,34.444755 C67.8558598,35.059005 67.8486568,35.640405 67.8486568,36.188955 C67.8486568,36.319455 67.8450554,36.511605 67.8378524,36.763605 C67.8301993,37.016955 67.8301993,37.277055 67.8378524,37.543905 C67.8450554,37.811655 67.8594613,38.064555 67.8806199,38.303055 C67.902679,38.541105 67.9422952,38.703555 68.000369,38.790405 C68.0579926,38.891655 68.1448782,38.960505 68.2605756,38.996505 C68.3762731,39.032955 68.4915203,39.050955 68.6072177,39.050955 C68.766583,39.050955 68.8962362,39.025755 68.9979779,38.974455 C69.0988192,38.924505 69.1852546,38.866455 69.2581845,38.801205 C69.3297638,38.736405 69.3954908,38.675205 69.4531144,38.616705 C69.5111882,38.559555 69.5760148,38.523105 69.6484945,38.509155 C69.8218155,38.465505 69.9087011,38.515905 69.9087011,38.660355 M58.6032177,29.036205 C58.6032177,28.545255 58.5266863,28.071855 58.3749742,27.616905 C58.2237122,27.161505 57.9923173,26.761005 57.6812399,26.413605 C57.3706125,26.066655 56.9839041,25.784955 56.5215646,25.568505 C56.0583247,25.351605 55.5239557,25.228755 54.9166568,25.199955 C54.7572915,25.199955 54.5839705,25.210755 54.3962435,25.232805 C54.2080664,25.253955 54.0491513,25.322355 53.919048,25.438005 C53.7889446,25.568505 53.6980074,25.774605 53.6480369,26.055855 C53.5971661,26.337555 53.5724059,26.608455 53.5724059,26.868555 L53.5724059,27.302805 C53.5724059,28.039005 53.5796089,28.769355 53.5935646,29.491605 C53.6084207,30.214755 53.6223764,30.944205 53.6372325,31.681305 L53.6151734,31.681305 L53.6151734,33.285105 C53.6012177,33.444405 53.5904133,33.657255 53.5832103,33.924555 C53.5755572,34.191855 53.5683542,34.473555 53.5616015,34.769655 C53.5534982,35.066205 53.5503469,35.365905 53.5503469,35.669205 L53.5503469,36.471105 L53.5503469,37.793655 C53.5503469,37.966905 53.5575498,38.140605 53.5724059,38.313855 C53.5863616,38.487105 53.6223764,38.649555 53.6809004,38.801205 C53.7380738,38.953305 53.8137048,39.086955 53.9082435,39.202605 C54.0018819,39.318255 54.1355867,39.397455 54.3089077,39.440655 C54.3962435,39.470355 54.5186937,39.498255 54.6776089,39.527505 C54.8369742,39.556755 54.9994908,39.585105 55.166059,39.613905 C55.3317269,39.643605 55.4838893,39.668805 55.6211956,39.689955 C55.7580517,39.711555 55.8557417,39.730455 55.9142657,39.744405 C56.0295129,39.802005 56.0691292,39.866805 56.0331144,39.939705 C55.9970996,40.012155 55.9642362,40.099005 55.9354244,40.199805 C55.8629446,40.256955 55.776059,40.293405 55.6752177,40.308255 C55.5743764,40.322205 55.4730849,40.329405 55.3722435,40.329405 C54.9090037,40.329405 54.4394613,40.304205 53.9622657,40.253355 C53.4855203,40.202955 53.0083247,40.177755 52.5311292,40.177755 C52.0251218,40.177755 51.530369,40.202955 51.0459705,40.253355 C50.561572,40.304205 50.066369,40.329405 49.5603616,40.329405 C49.4158524,40.329405 49.3217638,40.282605 49.2789963,40.188555 C49.2353284,40.094955 49.2132694,39.990105 49.2132694,39.874005 C49.2132694,39.816855 49.3037565,39.762405 49.4842804,39.711555 C49.6648044,39.661605 49.8750406,39.603105 50.1131882,39.538305 C50.3522362,39.473505 50.5827306,39.393855 50.8078229,39.300255 C51.0311144,39.206205 51.186428,39.079755 51.2733137,38.920455 C51.3890111,38.675205 51.4538376,38.404305 51.4686937,38.107755 C51.4826494,37.811655 51.4903026,37.525905 51.4903026,37.251855 C51.4903026,36.384255 51.4975055,35.517555 51.5123616,34.650855 C51.5263173,33.783255 51.5335203,32.916555 51.5335203,32.049855 C51.5335203,31.095405 51.530369,30.145905 51.5231661,29.198655 C51.5155129,28.253205 51.5123616,27.302805 51.5123616,26.348805 C51.5123616,26.030655 51.4538376,25.799805 51.3390406,25.655355 C51.2224428,25.510455 51.0819852,25.413255 50.915417,25.362405 C50.7492989,25.312455 50.5647232,25.294455 50.3625904,25.308405 C50.1600074,25.322355 49.9758819,25.326405 49.810214,25.319205 C49.6436458,25.312455 49.5022878,25.279605 49.3865904,25.221555 C49.2713432,25.163955 49.2132694,25.041105 49.2132694,24.853005 C49.2132694,24.737805 49.2569373,24.658155 49.3438229,24.614955 C49.4302583,24.571305 49.5243469,24.542505 49.6256384,24.528105 C50.3193727,24.455655 51.0095055,24.412905 51.6964871,24.398055 C52.3825683,24.383655 53.0731513,24.376005 53.767786,24.376005 L55.0035424,24.376005 C55.7837122,24.376005 56.5283173,24.466455 57.2369077,24.646905 C57.9445978,24.828255 58.5667528,25.106355 59.101572,25.481655 C59.635941,25.857405 60.0631661,26.337555 60.3809963,26.923455 C60.6992768,27.508005 60.8577417,28.198305 60.8577417,28.993455 C60.8577417,29.672505 60.7204354,30.290355 60.4462731,30.846555 C60.1712103,31.403205 59.8025092,31.883355 59.3401697,32.287905 C58.8773801,32.692455 58.3322066,33.007005 57.7032989,33.230655 C57.0743911,33.455205 56.4126199,33.566805 55.7188856,33.566805 C55.4730849,33.566805 55.324524,33.548805 55.2745535,33.512355 C55.2236827,33.476355 55.1471513,33.422355 55.04631,33.349905 C55.0174982,33.321105 54.9846347,33.267105 54.9490701,33.187455 C54.9130554,33.108255 54.8909963,33.025005 54.8837934,32.938155 C54.8761402,32.851755 54.8837934,32.775705 54.9058524,32.710455 C54.9274613,32.645655 54.9738303,32.612805 55.04631,32.612805 C55.1043838,32.627655 55.1403985,32.634405 55.1552546,32.634405 C55.6752177,32.620455 56.1447601,32.522805 56.5643321,32.341905 C56.9839041,32.161455 57.3454022,31.916205 57.6488266,31.605255 C57.9527011,31.294755 58.186797,30.919005 58.3533653,30.478005 C58.5194834,30.037455 58.6032177,29.556405 58.6032177,29.036205" id="Fill-4" fill="#000000"></path>
            <polygon id="Fill-5" fill="#000000" points="54.2179705 47.71413 53.0078745 47.64888 52.3055867 47.64888 52.2731734 51.72093 52.3055867 53.88138 51.4299779 53.88138 51.4948044 51.79653 51.4407823 47.64888 50.7384945 47.64888 49.5067897 47.71413 49.4523173 47.62818 49.5175941 46.95813 54.2179705 46.95813 54.282797 47.04453"></polygon>
            <path d="M61.5429225,50.60925 C62.3316458,50.38245 62.7530185,49.842 62.7530185,49.00005 C62.7530185,48.10365 62.2560148,47.69325 61.3272841,47.6604 L60.2788044,47.69325 L60.2463911,50.57685 L61.5429225,50.60925 Z M64.0175867,53.67645 L64.0067823,53.7849 C63.7470258,53.8812 63.4877196,53.94645 63.2068044,53.97885 L63.0884059,53.90325 C62.5265756,53.0604 61.9859041,52.18605 61.4997048,51.3108 L60.2355867,51.3108 L60.2355867,51.7212 L60.2788044,53.8812 L59.4036458,53.8812 L59.4576679,51.7968 L59.4036458,46.9584 L61.5213137,46.9476 C62.8718672,46.9476 63.6502362,47.64915 63.6502362,48.92445 C63.6502362,49.8852 63.1208192,50.6628 62.2240517,51.084 C62.7642731,51.9696 63.369321,52.82325 64.0175867,53.67645 Z" id="Fill-6" fill="#000000"></path>
            <path d="M71.601845,47.854755 L71.526214,47.854755 L70.2729004,51.267555 L71.4825461,51.289605 L72.7255055,51.267555 L71.601845,47.854755 Z M73.5142288,53.881605 L73.3521624,53.190405 L72.963203,52.002405 L71.4069151,51.970005 L70.0023395,52.002405 L69.581417,53.147655 L69.4080959,53.881605 L68.5437417,53.881605 L71.0832325,46.958355 L72.0880443,46.958355 L74.4001919,53.881605 L73.5142288,53.881605 Z" id="Fill-7" fill="#000000"></path>
            <polygon id="Fill-8" fill="#000000" points="80.817572 53.881425 78.5054244 46.958175 79.3913875 46.958175 79.5534539 47.660625 81.3145756 53.007075 81.3794022 53.007075 83.3246494 47.703375 83.4975203 46.958175 84.3618745 46.958175 81.8223838 53.881425"></polygon>
            <polygon id="Fill-9" fill="#000000" points="93.4375941 53.881425 89.5475498 53.881425 89.601572 51.796575 89.5475498 46.958175 93.4479483 46.958175 93.4916162 47.044575 93.4267897 47.714175 91.795321 47.681775 90.4231587 47.703375 90.4010996 49.971825 91.6980812 49.992975 92.8433506 49.960575 92.9081771 50.036175 92.8325461 50.705775 91.6224502 50.684625 90.3902952 50.695425 90.3794908 51.720975 90.4119041 53.158275 91.7840664 53.168625 93.4479483 53.125425 93.5024207 53.211825"></polygon>
            <polygon id="Fill-10" fill="#000000" points="102.891469 53.881425 99.4768192 53.881425 99.5308413 51.796575 99.4768192 46.958175 100.362782 46.958175 100.30921 51.720975 100.341173 53.158275 102.901823 53.158275 102.9671 53.233875"></polygon>
            <path d="M120.68276,50.405715 L120.526096,50.918265 L119.948059,52.564365 L119.899439,52.564365 L119.348863,50.918265 L119.208856,50.405715 L118.366561,50.405715 L118.015417,53.881515 L118.630819,53.881515 L118.7069,52.759215 L118.841506,51.490215 L118.889675,51.490215 L119.597365,53.514315 L120.164598,53.514315 L120.941616,51.490215 L120.996089,51.490215 L121.119889,52.828965 L121.173911,53.881515 L121.821727,53.881515 L121.508849,50.405715 L120.68276,50.405715 Z M115.190059,50.405715 L115.141889,50.950665 L115.190059,51.010065 L115.854531,50.978115 L116.06972,50.978115 L116.097631,52.845165 L116.059365,53.881515 L116.793616,53.881515 L116.761203,52.780815 L116.788214,50.978115 L117.004303,50.978115 L117.65797,51.010065 L117.700738,50.465115 L117.65797,50.405715 L115.190059,50.405715 Z" id="Fill-11" fill="#000000"></path>
        </g>
    </g>
</svg>