<?xml version="1.0" encoding="UTF-8"?>
<svg width="160px" height="90px" viewBox="0 0 160 90" version="1.1" xmlns="http://www.w3.org/2000/svg" xmlns:xlink="http://www.w3.org/1999/xlink">
    <!-- Generator: Sketch 49.3 (51167) - http://www.bohemiancoding.com/sketch -->
    <title>Recursively Isomorphic logo designed by Isral Duke</title>
    <desc>Created with Sketch.</desc>
    <defs></defs>
    <g id="Recursively-Isomorphic-logo-designed-by-Isral-Duke" stroke="none" stroke-width="1" fill="none" fill-rule="evenodd">
        <g id="Page-1" transform="translate(14.000000, 25.000000)">
            <polygon id="Fill-1" fill="#8E8884" points="0.000943661972 27.1693976 11.7353803 38.9883 99.955507 38.996861 99.955507 19.4597634 88.2890141 7.72076341 0 7.67225122"></polygon>
            <polygon id="Fill-2" fill="#82A1C3" points="112.357113 10.6527073 124.456746 10.6517561 119.310014 5.52468293 119.310014 9.55214634 117.224521 9.55214634 117.229239 0.00570731707 101.821127 -7.10542736e-15"></polygon>
            <polygon id="Fill-3" fill="#82A1C3" points="127.49062 26.1376098 127.496282 13.7650976 113.433831 13.749878 113.433831 16.8042439 111.361549 16.8042439 111.361549 13.749878 103.177169 5.52468293 103.177169 17.8581951 117.240563 17.8971951 117.246225 14.811439 119.310014 14.811439 119.310014 17.8914878"></polygon>
            <polygon id="Fill-4" fill="#82A1C3" points="128.577718 31.4353317 118.274817 21.0727463 106.330887 21.0727463 111.357775 26.1379902 111.358718 22.1552341 113.434775 22.1552341 113.434775 31.4353317"></polygon>
            <polygon id="Fill-5" fill="#82A1C3" points="118.402211 0.00542195122 130.015859 11.705422 130.015859 31.4318122 133.440408 31.4318122 133.440408 11.6902024 121.86262 0.00542195122"></polygon>
            <path d="M7.55495775,11.0124585 L6.55939437,11.0124585 L6.55939437,16.1576049 L7.92959155,16.1576049 C8.99876056,16.1576049 9.28091549,14.624239 9.28091549,13.4532878 C9.28091549,12.1853122 8.79209859,11.0695317 7.55495775,11.0124585 Z M9.76784507,21.1496049 L9.1865493,19.3908 C8.71660563,18.0105805 8.22967606,17.4988244 7.32942254,17.4988244 L6.55939437,17.4988244 L6.55939437,21.1496049 L5.15239437,21.1496049 L5.15239437,9.63223902 L7.53608451,9.63223902 C9.54325352,9.63223902 10.7247183,10.9572878 10.7247183,13.4532878 C10.7247183,15.078922 10.2755352,16.2508244 9.44888732,16.9880195 C9.84333803,17.3865805 10.1622958,17.9164098 10.4057606,18.6155561 L11.2880845,21.1496049 L9.76784507,21.1496049 Z" id="Fill-6" fill="#FFFFFF"></path>
            <polygon id="Fill-7" fill="#FFFFFF" points="12.2529789 21.1497951 12.2529789 9.63242927 17.5808944 9.63242927 17.5808944 11.0506976 13.6618662 11.0506976 13.6618662 14.2848439 16.5862746 14.2848439 16.5862746 15.685039 13.6618662 15.685039 13.6618662 19.7305756 17.7309366 19.7305756 17.7309366 21.1497951"></polygon>
            <path d="M18.7318789,15.4573171 C18.7318789,12.8671463 19.6330761,9.42468293 22.4829352,9.42468293 C23.4775549,9.42468293 24.3966817,9.70909756 25.2799493,10.2750732 L24.4721746,11.5240244 C23.8720056,11.0331951 23.1774704,10.824878 22.4074423,10.8619756 C20.6824282,10.9190488 20.2700479,13.8117073 20.2700479,15.3431707 C20.2700479,16.9126829 20.6635549,19.9194878 22.4074423,19.9194878 C22.9896817,19.9194878 23.8342592,19.751122 24.6420338,19.2013171 L25.2978789,20.3922439 C24.3778085,21.0362195 23.4030056,21.3577317 22.3715831,21.3577317 C20.3445972,21.3577317 18.7318789,19.5038049 18.7318789,15.4573171" id="Fill-8" fill="#FFFFFF"></path>
            <path d="M29.8614282,21.339278 C27.3286394,21.339278 26.5784282,19.3911805 26.5784282,17.2347659 L26.5784282,9.63166829 L27.9863718,9.63166829 L27.9863718,17.2166927 C27.9863718,18.7472049 28.4553718,19.9581073 29.8614282,19.9581073 C31.0070338,19.9581073 31.6251324,19.1647902 31.7374282,17.2347659 L31.7374282,9.63166829 L33.1453718,9.63166829 L33.1453718,17.2347659 C33.1453718,19.4663268 32.1498085,21.339278 29.8614282,21.339278" id="Fill-9" fill="#FFFFFF"></path>
            <path d="M37.5766197,11.0124585 L36.5829437,11.0124585 L36.5829437,16.1576049 L37.9531408,16.1576049 C39.0223099,16.1576049 39.3044648,14.624239 39.3044648,13.4532878 C39.3044648,12.1853122 38.8156479,11.0695317 37.5766197,11.0124585 Z M39.7913944,21.1496049 L39.2091549,19.3908 C38.7401549,18.0105805 38.2532254,17.4988244 37.3529718,17.4988244 L36.5829437,17.4988244 L36.5829437,21.1496049 L35.1759437,21.1496049 L35.1759437,9.63223902 L37.5586901,9.63223902 C39.5668028,9.63223902 40.7482676,10.9572878 40.7482676,13.4532878 C40.7482676,15.078922 40.2971972,16.2508244 39.4724366,16.9880195 C39.8659437,17.3865805 40.1849014,17.9164098 40.4302535,18.6155561 L41.3116338,21.1496049 L39.7913944,21.1496049 Z" id="Fill-10" fill="#FFFFFF"></path>
            <path d="M44.8305493,21.3574463 C43.5367887,21.3574463 42.5044225,20.9037146 41.7343944,19.9953 L42.5978451,18.9755927 C43.2914366,19.5796171 43.742507,19.9953 44.8305493,19.9953 C45.9176479,19.9953 46.4621408,19.2961537 46.4621408,18.028178 C46.4621408,17.3299829 45.8619718,16.5357146 44.5483944,15.8175439 C42.6535211,14.7769098 41.9221831,14.0768122 41.9221831,12.3379829 C41.9221831,10.8046171 43.0659014,9.34925122 44.8682958,9.34925122 C46.087507,9.34925122 47.0632535,9.91712927 47.7389155,10.6362512 C47.5501831,10.8807146 46.9500141,11.6378854 46.9500141,11.6378854 C46.3309718,10.9758366 45.5618873,10.7113976 44.8682958,10.7113976 C43.9482254,10.7113976 43.3282394,11.5437146 43.3282394,12.3379829 C43.3282394,13.5859829 44.0982676,13.850422 45.3184225,14.5695439 C47.0821268,15.6082756 47.8691408,16.554739 47.8691408,18.028178 C47.8691408,20.0704463 46.8565915,21.3574463 44.8305493,21.3574463" id="Fill-11" fill="#FFFFFF"></path>
            <polygon id="Fill-12" fill="#FFFFFF" points="57.5865944 21.1497951 56.2730169 21.1497951 53.3278479 9.63242927 54.7914676 9.63242927 56.9307493 18.1239659 59.0492704 9.63242927 60.5317634 9.63242927"></polygon>
            <polygon id="Fill-13" fill="#FFFFFF" points="61.9620718 21.1497951 61.9620718 9.63242927 67.2899873 9.63242927 67.2899873 11.0506976 63.3700155 11.0506976 63.3700155 14.2848439 66.2972549 14.2848439 66.2972549 15.685039 63.3700155 15.685039 63.3700155 19.7305756 67.4400296 19.7305756 67.4400296 21.1497951"></polygon>
            <polygon id="Fill-14" fill="#FFFFFF" points="69.0201915 21.1497951 69.0201915 9.61340488 70.4262479 9.61340488 70.4262479 19.7876488 74.216938 19.7876488 74.216938 21.1497951"></polygon>
            <polygon id="Fill-15" fill="#FFFFFF" points="77.4753085 16.1758683 77.4753085 21.1497951 76.0286746 21.1497951 76.0286746 16.1758683 73.403407 9.63242927 74.9595056 9.63242927 76.7807732 14.2848439 78.5435338 9.63242927 80.1571958 9.63242927"></polygon>
            <polygon id="Fill-16" fill="#FFFFFF" points="52.6756831 10.644622 52.6756831 9.60779268 48.6519085 9.60779268 48.6519085 10.644622 49.9286831 10.644622 49.9286831 20.1121098 48.6519085 20.1121098 48.6519085 21.1498902 52.6756831 21.1498902 52.6756831 20.1121098 51.3545563 20.1121098 51.3545563 10.644622"></polygon>
            <path d="M28.9150296,37.4352439 C27.6174944,37.4352439 26.5832408,36.980561 25.812269,36.0702439 L26.6766634,35.0486341 C27.3721423,35.654561 27.8241563,36.0702439 28.9150296,36.0702439 C30.0040155,36.0702439 30.5494521,35.3701463 30.5494521,34.1002683 C30.5494521,33.4001707 29.9473958,32.604 28.631931,31.8839268 C26.7332831,30.8413902 26.0010014,30.1403415 26.0010014,28.3977073 C26.0010014,26.8614878 27.1475507,25.4032683 28.9508887,25.4032683 C30.1738746,25.4032683 31.1505648,25.9711463 31.8271704,26.6921707 C31.6403254,26.9366341 31.038269,27.6957073 31.038269,27.6957073 C30.4182831,27.0327073 29.6473113,26.7673171 28.9508887,26.7673171 C28.0308183,26.7673171 27.4098887,27.6015366 27.4098887,28.3977073 C27.4098887,29.6476098 28.1808606,29.913 29.4029028,30.6330732 C31.169438,31.6737073 31.9602268,32.6220732 31.9602268,34.1002683 C31.9602268,36.1463415 30.9448465,37.4352439 28.9150296,37.4352439" id="Fill-17" fill="#FFFFFF"></path>
            <path d="M36.3822268,26.7108146 C34.9714521,26.7108146 34.2957901,28.3402537 34.2957901,31.4288634 C34.2957901,34.5184244 34.9714521,36.145961 36.3822268,36.145961 C37.7920577,36.145961 38.469607,34.5184244 38.469607,31.4288634 C38.469607,28.3402537 37.7920577,26.7108146 36.3822268,26.7108146 M36.3822268,37.4538878 C33.3936493,37.4538878 32.8482127,34.1388878 32.8482127,31.4288634 C32.8482127,27.3918878 34.0325085,25.3838634 36.3822268,25.3838634 C38.7319451,25.3838634 39.9162408,27.3918878 39.9162408,31.4288634 C39.9162408,34.2140341 39.3141845,37.4538878 36.3822268,37.4538878" id="Fill-18" fill="#FFFFFF"></path>
            <polygon id="Fill-19" fill="#FFFFFF" points="48.0614592 37.2272122 48.0614592 30.4050659 46.1816845 37.2272122 44.8473465 37.2272122 42.9685155 30.4050659 42.9685155 37.2272122 41.5577408 37.2272122 41.5577408 25.6860659 42.9864451 25.6860659 45.5050789 34.8016024 48.0425859 25.6860659 49.4703465 25.6860659 49.4703465 37.2272122"></polygon>
            <path d="M54.6468042,26.7108146 C53.2360296,26.7108146 52.5594239,28.3402537 52.5594239,31.4288634 C52.5594239,34.5184244 53.2360296,36.145961 54.6468042,36.145961 C56.0556915,36.145961 56.7322972,34.5184244 56.7322972,31.4288634 C56.7322972,28.3402537 56.0556915,26.7108146 54.6468042,26.7108146 M54.6468042,37.4538878 C51.6572831,37.4538878 51.1118465,34.1388878 51.1118465,31.4288634 C51.1118465,27.3918878 52.2970859,25.3838634 54.6468042,25.3838634 C56.9955789,25.3838634 58.1808183,27.3918878 58.1808183,31.4288634 C58.1808183,34.2140341 57.578762,37.4538878 54.6468042,37.4538878" id="Fill-20" fill="#FFFFFF"></path>
            <path d="M62.2264859,27.0698049 L61.2309225,27.0698049 L61.2309225,32.2244634 L62.603007,32.2244634 C63.675007,32.2244634 63.9562183,30.6882439 63.9562183,29.5153902 C63.9562183,28.244561 63.4674014,27.126878 62.2264859,27.0698049 Z M64.4450352,37.2269268 L63.8618521,35.4643171 C63.3928521,34.0812439 62.9040352,33.5694878 62.0018944,33.5694878 L61.2309225,33.5694878 L61.2309225,37.2269268 L59.8210915,37.2269268 L59.8210915,25.6857805 L62.2076127,25.6857805 C64.2195,25.6857805 65.4037958,27.0136829 65.4037958,29.5153902 C65.4037958,31.143878 64.953669,32.3186341 64.1260775,33.0577317 C64.5214718,33.4562927 64.8404296,33.9870732 65.0838944,34.6871707 L65.9690493,37.2269268 L64.4450352,37.2269268 Z" id="Fill-21" fill="#FFFFFF"></path>
            <path d="M70.0845479,27.0698049 L68.9370549,27.0698049 L68.9370549,32.2063902 L70.1789141,32.2063902 C71.3820831,32.2063902 71.7765338,30.7843171 71.7765338,29.5153902 C71.7765338,28.2826098 71.2867732,27.1468537 70.0845479,27.0698049 M70.1959,33.5694878 L68.9370549,33.5694878 L68.9370549,37.2269268 L67.5281676,37.2269268 L67.5281676,25.6857805 L70.0468014,25.6857805 C72.3030972,25.6857805 73.2241113,27.2980976 73.2241113,29.5153902 C73.2241113,31.6936829 72.2653507,33.4182439 70.1959,33.5694878" id="Fill-22" fill="#FFFFFF"></path>
            <polygon id="Fill-23" fill="#FFFFFF" points="79.4354831 37.2272122 79.4354831 31.7310659 75.8259761 31.7310659 75.8259761 37.2272122 74.4161451 37.2272122 74.4161451 25.6679927 75.8259761 25.6679927 75.8259761 30.3299195 79.4354831 30.3299195 79.4354831 25.6679927 80.8462577 25.6679927 80.8462577 37.2272122"></polygon>
            <path d="M86.9174958,31.5231293 C86.9174958,28.9272512 87.818693,25.4790805 90.6751577,25.4790805 C91.6716648,25.4790805 92.5926789,25.7634951 93.4768901,26.3313732 L92.6681718,27.5812756 C92.0670592,27.0894951 91.3715803,26.8821293 90.6006085,26.9182756 C88.8718197,26.9753488 88.4575521,29.8746659 88.4575521,31.4089829 C88.4575521,32.9823 88.8529465,35.9957634 90.6006085,35.9957634 C91.1828479,35.9957634 92.0302563,35.8254951 92.8361437,35.274739 L93.4948197,36.4685195 C92.5738056,37.1124951 91.5971155,37.4349585 90.562862,37.4349585 C88.5358761,37.4349585 86.9174958,35.5791293 86.9174958,31.5231293" id="Fill-24" fill="#FFFFFF"></path>
            <polygon id="Fill-25" fill="#FFFFFF" points="24.9749577 26.6964512 24.9749577 25.6567683 20.9436338 25.6567683 20.9436338 26.6964512 22.2222958 26.6964512 22.2222958 36.1829634 20.9436338 36.1829634 20.9436338 37.2216951 24.9749577 37.2216951 24.9749577 36.1829634 23.651 36.1829634 23.651 26.6964512"></polygon>
            <polygon id="Fill-26" fill="#FFFFFF" points="86.2005014 26.6964512 86.2005014 25.6567683 82.1701211 25.6567683 82.1701211 26.6964512 83.4478394 26.6964512 83.4478394 36.1829634 82.1701211 36.1829634 82.1701211 37.2216951 86.2005014 37.2216951 86.2005014 36.1829634 84.8774873 36.1829634 84.8774873 26.6964512"></polygon>
        </g>
    </g>
</svg>