<?xml version="1.0" encoding="UTF-8"?>
<svg width="160px" height="90px" viewBox="0 0 160 90" version="1.1" xmlns="http://www.w3.org/2000/svg" xmlns:xlink="http://www.w3.org/1999/xlink">
    <!-- Generator: Sketch 49.3 (51167) - http://www.bohemiancoding.com/sketch -->
    <title>Roux Luxury Travel logo designed by Isral Duke</title>
    <desc>Created with Sketch.</desc>
    <defs>
        <polygon id="path-1" points="0.0927478043 0.124987531 29.4734956 0.124987531 29.4734956 40.2367681 0.0927478043 40.2367681"></polygon>
    </defs>
    <g id="Roux-Luxury-Travel-logo-designed-by-Isral-Duke" stroke="none" stroke-width="1" fill="none" fill-rule="evenodd">
        <g id="Page-1" transform="translate(25.000000, 16.000000)">
            <path d="M9.75254404,15.9613965 C11.8031137,15.9613965 13.3321877,15.4614464 14.3406374,14.4591721 C15.3483563,13.457596 15.8525671,12.1274214 15.8525671,10.4693466 C15.8525671,8.60402993 15.3573501,7.21408479 14.3667754,6.29811471 C13.3761726,5.3834015 11.8381049,4.92534663 9.75254404,4.92534663 L4.64312371,4.92534663 L4.64312371,15.9613965 L9.75254404,15.9613965 Z M22.0049787,33.8886584 C20.7880151,33.8886584 19.6930289,33.6378454 18.7203011,33.1378953 C17.7468708,32.6373865 16.8434228,31.7306334 16.0091142,30.417217 L8.70983388,19.3293566 L4.64312371,19.3293566 L4.64312371,33.5780748 L0.00264190715,33.5780748 L0.00264190715,1.29847382 L10.7952542,1.29847382 C13.8192542,1.29847382 16.2086625,2.09364589 17.964266,3.68217456 C19.7190263,5.27112219 20.5973199,7.51614963 20.5973199,10.4175362 C20.5973199,11.3161895 20.4580577,12.2050673 20.1800954,13.0858454 C19.9017114,13.9667631 19.4674831,14.7785536 18.8767077,15.521217 C18.2852296,16.2645786 17.5381882,16.9290374 16.6347403,17.51599 C15.7304492,18.1039202 14.653591,18.5520599 13.4021701,18.8633416 L19.9195583,28.448419 C20.370931,29.1399701 20.8230063,29.5973267 21.2752221,29.8217456 C21.7264542,30.0465835 22.2136612,30.1583042 22.7350163,30.1583042 C22.9084266,30.1583042 23.0911117,30.1502045 23.2823689,30.1323292 C23.4732045,30.1157107 23.6734555,30.0897357 23.881857,30.0546833 L23.881857,33.6815561 C23.3255107,33.8191122 22.7000251,33.8886584 22.0049787,33.8886584 Z" id="Fill-1" fill="#F5B336"></path>
            <path d="M68.2937215,33.9922793 C66.5551217,33.9922793 64.9474931,33.7506833 63.4705546,33.2673516 C61.993054,32.78402 60.69866,32.067192 59.5865295,31.1167282 C58.4736964,30.1675212 57.6053802,28.966803 56.979473,27.5158304 C56.3537064,26.0654165 56.0410339,24.3555312 56.0410339,22.3861746 L56.0410339,1.29861347 L60.6812346,1.29861347 L60.6812346,21.8165387 C60.6812346,24.4418354 61.297867,26.4888379 62.5321154,27.9564289 C63.7658018,29.4247182 65.6868055,30.1583042 68.2937215,30.1583042 C70.9000753,30.1583042 72.8378018,29.4247182 74.1069009,27.9564289 C75.3752974,26.4888379 76.0097767,24.4418354 76.0097767,21.8165387 L76.0097767,1.29861347 L80.3894404,1.29861347 L80.3894404,22.3861746 C80.3894404,24.3555312 80.085059,26.0654165 79.4771393,27.5158304 C78.8686575,28.966803 78.025074,30.1675212 76.9483563,31.1167282 C75.8703739,32.067192 74.5931242,32.78402 73.1163262,33.2673516 C71.6382635,33.7506833 70.0310565,33.9922793 68.2937215,33.9922793" id="Fill-2" fill="#F5B336"></path>
            <polygon id="Fill-3" fill="#F5B336" points="95.5924918 16.531591 85.6341882 1.35028429 90.9001556 1.35028429 98.4599448 13.3189227 105.49866 1.35028429 110.451533 1.35028429 100.754329 16.531591 111.859614 33.5780748 106.593506 33.5780748 97.9383087 19.9513616 89.7006173 33.5780748 85.0082811 33.5780748"></polygon>
            <polygon id="Fill-4" fill="#7BA3BC" points="0 45.1130414 1.52752823 45.1130414 1.52752823 54.4932509 5.6463739 54.4932509 5.6463739 55.7386574 0 55.7386574"></polygon>
            <path d="M11.3958665,55.8750125 C10.8236407,55.8750125 10.2946971,55.7951322 9.80833325,55.6360698 C9.32182886,55.4768678 8.89575107,55.2414165 8.52967829,54.9281796 C8.16346499,54.6159202 7.87777365,54.2204289 7.67162058,53.7429626 C7.46560803,53.2654963 7.36274228,52.7027032 7.36274228,52.0544439 L7.36274228,45.1130973 L8.89027051,45.1130973 L8.89027051,51.8670324 C8.89027051,52.7309127 9.09333199,53.4048678 9.49945496,53.8879202 C9.90543739,54.3713915 10.5376683,54.6129875 11.3958665,54.6129875 C12.2540647,54.6129875 12.8916356,54.3713915 13.3095629,53.8879202 C13.726928,53.4048678 13.9358916,52.7309127 13.9358916,51.8670324 L13.9358916,45.1130973 L15.3774454,45.1130973 L15.3774454,52.0544439 C15.3774454,52.7027032 15.2772497,53.2654963 15.0772798,53.7429626 C14.8768883,54.2204289 14.5993476,54.6159202 14.244798,54.9281796 C13.8900798,55.2414165 13.4696231,55.4768678 12.9833997,55.6360698 C12.4967548,55.7951322 11.9678113,55.8750125 11.3958665,55.8750125" id="Fill-5" fill="#7BA3BC"></path>
            <polygon id="Fill-6" fill="#7BA3BC" points="20.6119348 50.1274713 17.3337215 45.1302045 19.0671217 45.1302045 21.5558545 49.0700349 23.8725822 45.1302045 25.5029762 45.1302045 22.3110464 50.1274713 25.9664341 55.7386434 24.2330339 55.7386434 21.3841305 51.253197 18.6726625 55.7386434 17.1278494 55.7386434"></polygon>
            <path d="M31.7501029,55.8750125 C31.177877,55.8750125 30.6489335,55.7951322 30.1625696,55.6360698 C29.6760652,55.4768678 29.2499875,55.2414165 28.8839147,54.9281796 C28.5177014,54.6159202 28.23201,54.2204289 28.025857,53.7429626 C27.8198444,53.2654963 27.7169787,52.7027032 27.7169787,52.0544439 L27.7169787,45.1130973 L29.2445069,45.1130973 L29.2445069,51.8670324 C29.2445069,52.7309127 29.4475684,53.4048678 29.8536913,53.8879202 C30.2596738,54.3713915 30.8919046,54.6129875 31.7501029,54.6129875 C32.6083011,54.6129875 33.245872,54.3713915 33.6635182,53.8879202 C34.0814454,53.4048678 34.290409,52.7309127 34.290409,51.8670324 L34.290409,45.1130973 L35.7316537,45.1130973 L35.7316537,52.0544439 C35.7316537,52.7027032 35.631458,53.2654963 35.431207,53.7429626 C35.2308156,54.2204289 34.9532748,54.6159202 34.5990063,54.9281796 C34.2440351,55.2414165 33.8241405,55.4768678 33.3376361,55.6360698 C32.8509912,55.7951322 32.3220477,55.8750125 31.7501029,55.8750125" id="Fill-7" fill="#7BA3BC"></path>
            <path d="M41.8923563,49.9395292 C42.5674479,49.9395292 43.0708156,49.7748808 43.4028808,49.4448858 C43.7342434,49.1154494 43.9004868,48.6775042 43.9004868,48.1317486 C43.9004868,47.517983 43.737335,47.0602075 43.4114529,46.7591202 C43.0850088,46.4580329 42.5786901,46.3069307 41.8923563,46.3069307 L40.2105295,46.3069307 L40.2105295,49.9395292 L41.8923563,49.9395292 Z M45.9254806,55.8406165 C45.5248381,55.8406165 45.1643864,55.7583621 44.8441255,55.5935741 C44.5238645,55.4289257 44.2263689,55.1303521 43.9519197,54.6982723 L41.5491895,51.0484968 L40.2105295,51.0484968 L40.2105295,55.7385317 L38.6832823,55.7385317 L38.6832823,45.1130554 L42.2355232,45.1130554 C43.2310163,45.1130554 44.0175458,45.3747611 44.5955332,45.897614 C45.1730991,46.4206065 45.4623036,47.1597786 45.4623036,48.1145716 C45.4623036,48.4106314 45.4160703,48.7032 45.3251493,48.9932549 C45.2331041,49.2831701 45.0901882,49.5504618 44.8959799,49.7945716 C44.7013501,50.0395192 44.4551468,50.2583521 44.1577917,50.4513496 C43.8604366,50.6447661 43.5054655,50.7923771 43.0937215,50.8948808 L45.2391468,54.0501526 C45.3876838,54.2775042 45.5366424,54.4280479 45.685601,54.5017835 C45.8339975,54.5760778 45.9941982,54.6129456 46.1659222,54.6129456 C46.2229762,54.6129456 46.2829812,54.6104319 46.3459373,54.6042873 C46.4090339,54.5988409 46.47466,54.5901825 46.5432371,54.5785915 L46.5432371,55.7724668 C46.3601305,55.8178534 46.1542585,55.8406165 45.9254806,55.8406165 Z" id="Fill-8" fill="#7BA3BC"></path>
            <polygon id="Fill-9" fill="#7BA3BC" points="50.1819021 51.5769915 46.7151016 45.1301486 48.3796437 45.1301486 51.0401004 50.2123232 53.6314178 45.1301486 55.2278043 45.1301486 51.7091493 51.5769915 51.7091493 55.7385875 50.1819021 55.7385875"></polygon>
            <polygon id="Fill-10" fill="#7BA3BC" points="62.641867 46.3751082 59.6895358 46.3751082 59.6895358 45.1130833 67.2581782 45.1130833 67.2581782 46.3751082 64.1691142 46.3751082 64.1691142 55.7385596 62.641867 55.7385596"></polygon>
            <path d="M72.1662233,49.9395292 C72.8414555,49.9395292 73.3446826,49.7748808 73.6767478,49.4448858 C74.0081104,49.1154494 74.1743538,48.6775042 74.1743538,48.1317486 C74.1743538,47.517983 74.011202,47.0602075 73.6853199,46.7591202 C73.3588758,46.4580329 72.8525571,46.3069307 72.1662233,46.3069307 L70.4843965,46.3069307 L70.4843965,49.9395292 L72.1662233,49.9395292 Z M76.1993476,55.8406165 C75.7987051,55.8406165 75.4382535,55.7583621 75.1179925,55.5935741 C74.7977315,55.4289257 74.5002359,55.1303521 74.2257867,54.6982723 L71.8230565,51.0484968 L70.4843965,51.0484968 L70.4843965,55.7385317 L68.9571493,55.7385317 L68.9571493,45.1130554 L72.5093902,45.1130554 C73.5048833,45.1130554 74.2914128,45.3747611 74.8694003,45.897614 C75.4469661,46.4206065 75.7361706,47.1597786 75.7361706,48.1145716 C75.7361706,48.4106314 75.6899373,48.7032 75.5990163,48.9932549 C75.5069711,49.2831701 75.3640552,49.5504618 75.1698469,49.7945716 C74.9752171,50.0395192 74.7290138,50.2583521 74.4316587,50.4513496 C74.1343036,50.6447661 73.7793325,50.7923771 73.3675885,50.8948808 L75.5130138,54.0501526 C75.6615508,54.2775042 75.8105094,54.4280479 75.959468,54.5017835 C76.1078645,54.5760778 76.2680652,54.6129456 76.4397892,54.6129456 C76.4968432,54.6129456 76.5568482,54.6104319 76.6198043,54.6042873 C76.6829009,54.5988409 76.748527,54.5901825 76.8171041,54.5785915 L76.8171041,55.7724668 C76.634138,55.8178534 76.4281255,55.8406165 76.1993476,55.8406165 Z" id="Fill-11" fill="#7BA3BC"></path>
            <path d="M84.093872,51.8498135 L82.9443614,48.4389805 C82.8183087,48.07519 82.695207,47.6998085 82.575197,47.3132549 C82.4553275,46.9268409 82.3663739,46.6140229 82.3093199,46.3750803 L82.2747503,46.3750803 C82.2407428,46.5115192 82.1945094,46.6682075 82.137596,46.8440279 C82.0801205,47.0208259 82.0201154,47.2082374 81.9575809,47.4068209 C81.8944843,47.6058234 81.8259072,47.8109706 81.7517089,48.0211451 C81.6769486,48.2313197 81.6057014,48.4333945 81.5371242,48.626392 L80.4043363,51.8498135 L84.093872,51.8498135 Z M81.4685471,45.1130554 L83.2702434,45.1130554 L87.062926,55.7385317 L85.3983839,55.7385317 L84.5061782,53.0946613 L79.9753074,53.0946613 L79.048532,55.7385317 L77.504,55.7385317 L81.4685471,45.1130554 Z" id="Fill-12" fill="#7BA3BC"></path>
            <path d="M86.9084868,45.1130414 L88.5903137,45.1130414 L90.8043162,51.7988269 C90.8730339,52.0034155 90.941611,52.219595 91.0103287,52.4469466 C91.0789059,52.6742983 91.144532,52.9017895 91.2074881,53.1291411 C91.2700226,53.3564928 91.3274981,53.5670863 91.3793526,53.7600838 C91.4307854,53.9536399 91.4735056,54.1182883 91.5080753,54.2547272 L91.5420828,54.2547272 C91.5766524,54.1182883 91.6219021,53.9505676 91.6793777,53.7515651 C91.7368532,53.5529815 91.7967177,53.3422484 91.8598143,53.1204828 C91.9223488,52.8987172 91.990926,52.6713656 92.0656863,52.4384279 C92.1400251,52.2054903 92.2116939,51.9922434 92.280271,51.7988269 L94.5629912,45.1130414 L96.1075232,45.1130414 L92.2975558,55.7386574 L90.649877,55.7386574 L86.9084868,45.1130414 Z" id="Fill-13" fill="#7BA3BC"></path>
            <polygon id="Fill-14" fill="#7BA3BC" points="97.8412045 45.1130414 103.69345 45.1130414 103.69345 46.3750663 99.3684517 46.3750663 99.3684517 49.4620489 103.058409 49.4620489 103.058409 50.6731012 99.3684517 50.6731012 99.3684517 54.4764928 103.69345 54.4764928 103.69345 55.7386574 97.8412045 55.7386574"></polygon>
            <polygon id="Fill-15" fill="#7BA3BC" points="106.181481 45.1130414 107.708728 45.1130414 107.708728 54.4932509 111.827854 54.4932509 111.827854 55.7386574 106.181481 55.7386574"></polygon>
            <g id="Group-20" transform="translate(23.327478, 0.014663)">
                <mask id="mask-2" fill="white">
                    <use xlink:href="#path-1"></use>
                </mask>
                <g id="Clip-17"></g>
                <path d="M25.1706299,4.40025935 C30.9077842,10.1022045 30.9077842,19.3456958 25.1706299,25.0469426 C25.0917942,25.1265436 14.7832974,35.3630923 14.7832974,35.3630923 C14.7832974,35.3630923 4.47620577,25.1265436 4.39582434,25.0469426 C-1.34161104,19.3456958 -1.34161104,10.1022045 4.39582434,4.40025935 C10.1326976,-1.30014963 19.4336161,-1.30014963 25.1706299,4.40025935 M14.7832974,3.34952618 C8.48529987,3.34952618 3.38051694,8.42304239 3.38051694,14.6823342 C3.38051694,20.9405087 8.48529987,26.0140249 14.7832974,26.0140249 C21.0810138,26.0140249 26.1860778,20.9405087 26.1860778,14.6823342 C26.1860778,8.42304239 21.0810138,3.34952618 14.7832974,3.34952618" id="Fill-16" fill="#F5B336" mask="url(#mask-2)"></path>
                <path d="M22.0024492,13.6554813 C22.0024492,15.0413766 21.4090038,16.2885985 20.4604467,17.1616958 L20.4622735,17.1632319 L14.7832974,22.806384 L9.10347804,17.1632319 L9.10488331,17.1616958 C8.15702886,16.2885985 7.56302133,15.0413766 7.56302133,13.6554813 C7.56302133,11.013985 9.71758093,8.87201995 12.3763513,8.87201995 C13.2529586,8.87201995 14.0744793,9.10607481 14.7832974,9.51315711 C15.4912723,9.10607481 16.312793,8.87201995 17.1898218,8.87201995 C19.8481706,8.87201995 22.0024492,11.013985 22.0024492,13.6554813" id="Fill-18" fill="#E74C38" mask="url(#mask-2)"></path>
                <path d="M21.0155282,40.2367681 L8.37259724,40.2367681 C8.07468005,40.2367681 7.83311418,39.9971272 7.83311418,39.700788 C7.83311418,39.4044489 8.07468005,39.164808 8.37259724,39.164808 L21.0155282,39.164808 C21.3134454,39.164808 21.5548708,39.4044489 21.5548708,39.700788 C21.5548708,39.9971272 21.3134454,40.2367681 21.0155282,40.2367681" id="Fill-19" fill="#E74C38" mask="url(#mask-2)"></path>
            </g>
        </g>
    </g>
</svg>