<?xml version="1.0" encoding="UTF-8"?>
<svg width="160px" height="90px" viewBox="0 0 160 90" version="1.1" xmlns="http://www.w3.org/2000/svg" xmlns:xlink="http://www.w3.org/1999/xlink">
    <!-- Generator: Sketch 49.3 (51167) - http://www.bohemiancoding.com/sketch -->
    <title>Roux Wine Tours logo designed by Isral Duke</title>
    <desc>Created with Sketch.</desc>
    <defs>
        <linearGradient x1="50%" y1="0%" x2="50%" y2="24.271114%" id="linearGradient-1">
            <stop stop-color="#F5B336" stop-opacity="0" offset="0%"></stop>
            <stop stop-color="#F5B336" offset="100%"></stop>
        </linearGradient>
        <path d="M55.0498598,13.4698257 C55.0498598,13.4698257 54.7324576,18.8918788 55.3982583,22.3707106 C55.954952,25.2780558 56.9315424,26.1298788 57.4795572,26.6468788 C59.8323838,28.8666929 63.0824502,29.2626575 63.143203,29.2701442 L63.143203,29.2709761 L63.1460959,29.2705602 L63.1489889,29.2709761 L63.1489889,29.2701442 C63.2097417,29.2626575 66.4602214,28.8666929 68.8126347,26.6468788 C69.3606494,26.1298788 70.3372399,25.2780558 70.8939336,22.3707106 C71.5597343,18.8918788 71.2423321,13.4698257 71.2423321,13.4698257 L55.0498598,13.4698257 Z" id="path-2"></path>
    </defs>
    <g id="Roux-Wine-Tours-logo-designed-by-Isral-Duke" stroke="none" stroke-width="1" fill="none" fill-rule="evenodd">
        <g id="Group" transform="translate(24.000000, 22.000000)">
            <path d="M74.8312915,32.9475823 L79.3427011,32.9475823 L87.2620517,19.6798566 L95.5835277,32.9475823 L100.646258,32.9475823 L89.969476,16.3507593 L99.2927528,1.56930088 L94.530893,1.56930088 L87.7633653,13.2225558 L80.4953506,1.56930088 L75.4326199,1.56930088 L85.0067601,16.3507593 L74.8312915,32.9475823 Z M30.836121,28.7100956 C29.6834716,28.1040867 28.7308517,27.2643257 27.9795011,26.187485 C27.2269107,25.1114761 26.6755897,23.8083699 26.325538,22.2777504 C25.9742465,20.7479628 25.7981875,19.0746796 25.7981875,17.2583168 C25.7981875,15.4423699 25.9742465,13.7699186 26.325538,12.2388832 C26.6755897,10.7090956 27.2269107,9.3976708 27.9795011,8.30419292 C28.7308517,7.21196283 29.6834716,6.36180354 30.836121,5.75662655 C31.989597,5.15103363 33.3674863,4.8480708 34.9722686,4.8480708 C36.5762244,4.8480708 37.9541137,5.15103363 39.1075897,5.75662655 C40.2602391,6.36180354 41.2124458,7.20322832 41.9640443,8.27882124 C42.7162214,9.35566195 43.2753948,10.6587681 43.643631,12.1885558 C44.0110406,13.7195912 44.194952,15.3920425 44.194952,17.2079894 C44.194952,19.0239363 44.0110406,20.6972195 43.643631,22.2278389 C43.2753948,23.7580425 42.7162214,25.0698832 41.9640443,26.1625292 C41.2124458,27.2555912 40.2602391,28.1040867 39.1075897,28.7100956 C37.9541137,29.3152726 36.5762244,29.6176531 34.9722686,29.6176531 C33.3674863,29.6176531 31.989597,29.3152726 30.836121,28.7100956 Z M41.2124458,32.0391929 C42.9662583,31.1653257 44.4201919,29.9795115 45.5728413,28.4829982 C46.7263173,26.9869009 47.5789225,25.2628743 48.129417,23.3117504 C48.6815646,21.3622903 48.9568118,19.3267327 48.9568118,17.2079894 C48.9568118,14.9549009 48.6815646,12.8527947 48.129417,10.9020867 C47.5789225,8.95221062 46.7263173,7.25355575 45.5728413,5.80695398 C44.4201919,4.3610177 42.9662583,3.21721239 41.2124458,2.37661947 C39.4576413,1.53644248 37.3775823,1.11552212 34.9722686,1.11552212 C32.5657151,1.11552212 30.4856561,1.55307965 28.7308517,2.4269469 C26.9768738,3.30206195 25.5229402,4.48704425 24.3702908,5.98372389 C23.2168148,7.4806531 22.3654494,9.20426372 21.8141284,11.1545558 C21.2619808,13.1056796 20.9867336,15.1399894 20.9867336,17.2583168 C20.9867336,19.5118212 21.2619808,21.6143434 21.8141284,23.5642195 C22.3654494,25.5153434 23.2168148,27.2139982 24.3702908,28.6593522 C25.5229402,30.105954 26.9768738,31.2493434 28.7308517,32.0895204 C30.4856561,32.9309451 32.5657151,33.3510336 34.9722686,33.3510336 C37.3775823,33.3510336 39.4576413,32.914308 41.2124458,32.0391929 Z M4.46156753,15.7954938 L4.46156753,5.05021239 L9.37427601,5.05021239 C11.3795306,5.05021239 12.8582613,5.4966708 13.8108812,6.38759115 C14.7630878,7.2785115 15.2396044,8.63194513 15.2396044,10.448308 C15.2396044,12.0625292 14.7544089,13.3573168 13.7856708,14.3322549 C12.8152797,15.3084407 11.3456413,15.7954938 9.37427601,15.7954938 L4.46156753,15.7954938 Z M22.9585122,33.0482372 L22.9585122,29.9807593 C21.4227483,29.7840248 20.8858923,29.5086796 20.4523572,29.2899009 C20.017169,29.071954 19.5828074,28.6260779 19.148859,27.9531044 L12.8830583,18.620485 C14.0861284,18.3176885 15.1214052,17.8809628 15.990955,17.3086442 C16.8596782,16.7371575 17.5779661,16.0903876 18.1462317,15.3666708 C18.7144974,14.6437858 19.1319144,13.8535204 19.3997225,12.9954584 C19.6667041,12.1382283 19.8010214,11.2730956 19.8010214,10.3975646 C19.8010214,7.57257345 18.9566819,5.38686549 17.2696561,3.83985841 C15.5818037,2.2930177 13.2843572,1.51897345 10.3769033,1.51897345 L0.00140516605,1.51897345 L0.00140516605,32.9475823 L4.46156753,32.9475823 L4.46156753,19.0746796 L8.37164871,19.0746796 L15.3896266,29.8705381 C16.1918111,31.1486885 17.0597077,32.0312903 17.9962096,32.5187593 C18.9314716,33.0058124 19.9841063,33.2503788 21.1537004,33.2503788 C21.8219808,33.2503788 22.4233092,33.1821664 22.9585122,33.0482372 Z M75.0292546,18.2469805 C75.0292546,27.2173257 71.1464502,33.143069 65.9192325,35.1599097 C65.2658303,35.3953257 64.6161476,35.4980602 63.9292694,35.604954 C64.1681476,33.8859186 64.4863764,30.9124407 65.7220959,30.4008478 C70.3851808,28.6002903 72.6549373,25.658423 72.6549373,17.0582549 C72.6549373,16.9879628 72.6512177,16.8482106 72.6512177,16.8482106 C72.6412989,8.12575929 71.9300369,3.90557522 71.2725018,1.43246018 C70.92369,0.190079646 70.1066273,0.262035398 70.1066273,0.262035398 L63.1861845,0.262035398 L63.1150996,0.262035398 L56.7922657,0.262035398 C56.7922657,0.262035398 55.3792472,0.190079646 55.0296089,1.43246018 C54.3712472,3.90557522 53.6591587,8.12575929 53.650893,16.8482106 C53.650893,16.8482106 53.6467601,16.9879628 53.6467601,17.0582549 C53.6467601,25.658423 55.9169299,28.6002903 60.5800148,30.4008478 C61.815321,30.9124407 62.1339631,33.8859186 62.372428,35.604954 C61.6851365,35.4980602 61.0362804,35.3953257 60.3824649,35.1599097 C55.1560738,33.143069 51.2724428,27.2173257 51.2724428,18.2469805 C51.2724428,18.173777 51.2782288,18.0282018 51.2782288,18.0282018 C51.287321,8.66022832 52.8420959,3.807 53.5558376,1.19080531 C53.9306863,0.0128938053 55.6433358,0 55.6433358,0 L70.6587749,0 C70.6587749,0 72.3701845,0.0128938053 72.7454465,1.19080531 C73.4600148,3.807 75.0143764,8.66022832 75.0251218,18.0282018 C75.0251218,18.0282018 75.0292546,18.173777 75.0292546,18.2469805 Z" id="Fill-1" fill="#E74C38"></path>
            <polygon id="Fill-5" fill="#F5B336" points="14.7721801 42.9627832 12.3092959 42.969854 12.3078494 42.470323 14.7707749 42.4632522"></polygon>
            <polygon id="Fill-6" fill="#F5B336" points="86.2366937 43.1575212 83.7726937 43.164592 83.770214 42.2753354 86.234214 42.2682646"></polygon>
            <polygon id="Fill-7" fill="#F5B336" points="90.3393653 43.1689177 87.8753653 43.1759885 87.8728856 42.2638558 90.3368856 42.256785"></polygon>
            <polygon id="Fill-8" fill="#F5B336" points="94.4424502 43.1807301 91.9780369 43.1878009 91.9755572 42.2523761 94.4395572 42.2453053"></polygon>
            <polygon id="Fill-9" fill="#F5B336" points="98.5451218 43.1921681 96.0807085 43.1992389 96.0782288 42.2409381 98.5422288 42.2338673"></polygon>
            <polygon id="Fill-10" fill="#F5B336" points="102.246494 43.2002372 101.004162 43.2035646 101.001269 42.2294584 102.244015 42.226131"></polygon>
            <path d="M111.682598,42.7130177 C111.683011,42.7088584 111.683838,42.705115 111.683838,42.7009558 L111.681358,42.7009558 C111.624738,42.3216283 110.253875,42.0167522 108.549904,42.0046903 L108.549904,42.0042743 L107.879557,42.0042743 C107.568354,42.0042743 107.31997,41.7102124 107.31997,41.7102124 L106.862465,41.2489469 C106.955454,41.2360531 107.04431,41.2206637 107.126554,41.2040265 L107.126554,40.4582655 C106.821137,40.3950442 106.437196,40.3576106 106.018952,40.3576106 C106.005727,40.3576106 105.992502,40.3576106 105.979277,40.3580265 L104.336059,38.7001327 L103.982288,38.7001327 C103.982288,38.7001327 104.476576,39.6958673 104.798111,40.4836372 C104.655114,40.5185752 104.533609,40.5597522 104.439793,40.6050885 L104.439793,41.0572035 C104.585269,41.1274956 104.797697,41.1869735 105.053934,41.2302301 C105.062613,41.2743186 105.067572,41.3125841 105.067572,41.342531 C105.067572,41.800885 104.903911,42.0042743 104.682391,42.0042743 L101.739395,42.2376106 C101.739395,42.2376106 101.567469,42.2563274 101.515808,42.2039204 C101.475306,42.1627434 100.997963,41.683177 100.791321,41.4731327 C100.707424,41.3874513 100.626421,41.3766372 100.626421,41.3766372 L100.578893,41.3766372 L100.776443,42.2255487 L100.934731,42.2255487 C100.93597,42.2334513 100.936797,42.241354 100.936797,42.2475929 C100.936797,42.3786106 100.928945,42.4326814 100.859513,42.4634602 C100.851247,42.4663717 100.843395,42.4692832 100.835129,42.4721947 C100.83141,42.4734425 100.828103,42.4746903 100.82397,42.4759381 L100.824384,42.4759381 C100.54583,42.5745133 100.350347,42.6606106 100.263557,42.7009558 L100.21231,42.7009558 C100.21231,42.7009558 100.220989,42.705115 100.23752,42.7130177 C100.220989,42.7209204 100.21231,42.7250796 100.21231,42.7250796 L100.263557,42.7250796 C100.350347,42.7654248 100.54583,42.8515221 100.824384,42.9500973 L100.82397,42.9500973 C100.828103,42.9513451 100.83141,42.9525929 100.835129,42.9538407 C100.843395,42.9567522 100.851247,42.9596637 100.859513,42.9625752 C100.928945,42.993354 100.936797,43.0474248 100.936797,43.1784425 C100.936797,43.1846814 100.93597,43.1925841 100.934731,43.2004867 L100.776443,43.2004867 L100.578893,44.0493982 L100.626421,44.0493982 C100.626421,44.0493982 100.707424,44.0385841 100.791321,43.9529027 C100.997963,43.7428584 101.475306,43.263292 101.515808,43.222115 C101.567469,43.169708 101.739395,43.1884248 101.739395,43.1884248 L104.682391,43.4217611 C104.903911,43.4217611 105.067572,43.6251504 105.067572,44.0835044 C105.067572,44.1134513 105.062613,44.1517168 105.053934,44.1958053 C104.797697,44.2390619 104.585269,44.2985398 104.439793,44.3688319 L104.439793,44.8209469 C104.533609,44.8662832 104.655114,44.9074602 104.798111,44.9423982 C104.476576,45.7301681 103.982288,46.7259027 103.982288,46.7259027 L104.336059,46.7259027 L105.979277,45.0680088 C105.992502,45.0684248 106.005727,45.0684248 106.018952,45.0684248 C106.437196,45.0684248 106.821137,45.0309912 107.126554,44.9677699 L107.126554,44.2220088 C107.04431,44.2049558 106.955454,44.1899823 106.862465,44.1770885 L107.31997,43.715823 C107.31997,43.715823 107.568354,43.4217611 107.879557,43.4217611 L108.549904,43.4217611 L108.549904,43.4209292 C110.253875,43.4092832 111.624738,43.1044071 111.681358,42.7250796 L111.683838,42.7250796 C111.683838,42.7209204 111.683011,42.717177 111.682598,42.7130177" id="Fill-11" fill="#F5B336"></path>
            <path d="M20.6066362,39.7850425 L21.7497801,39.7850425 L22.9565697,43.7392814 C23.0160827,43.9289451 23.0673299,44.1181929 23.1107247,44.3078566 C23.153293,44.4971044 23.1962745,44.6821929 23.2388428,44.8635381 L23.2648797,44.8635381 C23.3161269,44.6651398 23.362828,44.4754761 23.4058096,44.2949628 C23.4483779,44.1136177 23.5041712,43.9243699 23.5727764,43.7263876 L24.407197,41.1546973 L23.970769,39.7850425 L25.1006878,39.7850425 L26.2818539,43.7392814 C26.3417801,43.9459982 26.395507,44.1398212 26.4426214,44.3203345 C26.4893225,44.5016796 26.5343705,44.6821929 26.577352,44.8635381 L26.6029756,44.8635381 C26.6455439,44.6651398 26.6910052,44.4800513 26.7377063,44.3078566 C26.7848207,44.1356619 26.8381343,43.941423 26.8984738,43.7263876 L27.9767321,39.7850425 L29.0554037,39.7850425 L27.1551232,46.0909451 L25.9735439,46.0909451 L24.8952856,42.5243522 L24.8692487,42.5243522 L23.7781786,46.0909451 L22.5713889,46.0909451 L20.6066362,39.7850425 Z" id="Fill-12" fill="#F5B336"></path>
            <path d="M30.416431,39.7848345 L31.5207262,39.7848345 L31.5207262,46.0907372 L30.416431,46.0907372 L30.416431,39.7848345 Z M30.9685786,38.6090027 C30.7631764,38.6090027 30.589597,38.5378788 30.4482539,38.3960469 C30.3069107,38.2537991 30.2366524,38.0836841 30.2366524,37.8852858 C30.2366524,37.6873035 30.3069107,37.5167726 30.4482539,37.3749407 C30.589597,37.2326929 30.7631764,37.161569 30.9685786,37.161569 C31.1653018,37.161569 31.3364015,37.2326929 31.4818775,37.3749407 C31.6277668,37.5167726 31.7005048,37.6873035 31.7005048,37.8852858 C31.7005048,38.0836841 31.6277668,38.2537991 31.4818775,38.3960469 C31.3364015,38.5378788 31.1653018,38.6090027 30.9685786,38.6090027 Z" id="Fill-13" fill="#F5B336"></path>
            <path d="M33.2925166,39.7850425 L34.384,39.7850425 L34.384,40.2887327 C34.538155,40.1685292 34.7629815,40.0366796 35.0580664,39.8948478 C35.3531513,39.7526 35.7065092,39.6814761 36.1173137,39.6814761 C36.4938155,39.6814761 36.8128708,39.7376265 37.0736531,39.8495115 C37.3348487,39.9618124 37.544797,40.1190336 37.7030849,40.3211752 C37.8613727,40.5237327 37.9770923,40.7608124 38.0498303,41.0319982 C38.1225683,41.3031841 38.1589373,41.5984938 38.1589373,41.9170956 L38.1589373,46.0909451 L37.0550554,46.0909451 L37.0550554,42.0980248 C37.0550554,41.6242814 36.9670258,41.2561841 36.7913801,40.9929009 C36.6157343,40.7304496 36.2714686,40.5990159 35.7577565,40.5990159 C35.4837491,40.5990159 35.2295793,40.6464319 34.9935941,40.7412637 C34.7584354,40.8360956 34.5592325,40.939246 34.3968118,41.051131 L34.3968118,46.0909451 L33.2925166,46.0909451 L33.2925166,39.7850425 Z" id="Fill-14" fill="#F5B336"></path>
            <path d="M43.6671882,42.1884062 L43.6671882,42.1239372 C43.6671882,41.9255389 43.6394982,41.7317159 43.5841181,41.5420522 C43.5279114,41.3528044 43.4469077,41.185185 43.3398672,41.0383619 C43.2328266,40.8919549 43.0960295,40.7759106 42.9290627,40.6893973 C42.7625092,40.6033 42.571572,40.5604593 42.3574908,40.5604593 C42.1603542,40.5604593 41.97231,40.5904062 41.7929446,40.6507159 C41.6127528,40.7110257 41.4503321,40.8058575 41.3046908,40.9347956 C41.1592148,41.0641496 41.0372959,41.232185 40.938521,41.4389018 C40.8401594,41.6456186 40.7736207,41.895592 40.7397314,42.1884062 L43.6671882,42.1884062 Z M42.6017417,46.1946363 C42.0793506,46.1946363 41.627631,46.1143619 41.246831,45.955477 C40.8661963,45.7961761 40.5492074,45.5740699 40.2966908,45.2899903 C40.0437609,45.0054947 39.857783,44.6652646 39.7379306,44.2688841 C39.6180782,43.8729195 39.5585653,43.4332823 39.5585653,42.9508044 C39.5585653,42.4770611 39.6226244,42.0419991 39.7507424,41.6456186 C39.8792738,41.249654 40.0631852,40.9048487 40.30289,40.6120345 C40.5425948,40.3192204 40.8376797,40.0908752 41.1889712,39.9269991 C41.540428,39.7635389 41.9380074,39.6816009 42.3835277,39.6816009 C42.8286347,39.6816009 43.2051365,39.7614593 43.5134465,39.9207602 C43.8213432,40.0800611 44.0717934,40.2909372 44.2643838,40.5538044 C44.4569742,40.8166717 44.5937712,41.1140611 44.6751882,41.4455566 C44.7566052,41.7774681 44.797107,42.1152027 44.797107,42.459592 C44.797107,42.5456894 44.7950406,42.630123 44.7909077,42.7120611 C44.7863616,42.7935832 44.7797491,42.8730257 44.7714834,42.9508044 L40.6884841,42.9508044 C40.6884841,43.3043442 40.7248531,43.6250257 40.7975911,43.9132646 C40.8699159,44.2023354 40.9856354,44.4498133 41.1443365,44.656946 C41.3022111,44.8636628 41.504059,45.0225478 41.7474834,45.1348487 C41.9917343,45.2471496 42.2888856,45.3024681 42.6401771,45.3024681 C43.016679,45.3024681 43.3506125,45.2658664 43.6415646,45.1930788 C43.9329299,45.1198752 44.1895793,45.027123 44.4123395,44.9152381 L44.4123395,45.8327779 C44.215203,45.9271938 43.9540074,46.0112115 43.6287528,46.084415 C43.3034982,46.1576186 42.9612989,46.1946363 42.6017417,46.1946363 Z" id="Fill-15" fill="#F5B336"></path>
            <path d="M53.7852103,46.1945531 C53.211572,46.1945531 52.7834096,46.0610398 52.5015498,45.7935973 C52.2188635,45.5269867 52.0775203,45.0702965 52.0775203,44.4239425 L52.0775203,40.6248451 L51.2170627,40.6248451 L51.2170627,39.7850841 L52.0775203,39.7850841 L52.2829225,38.105146 L53.1690037,38.105146 L53.1690037,39.7850841 L54.6068192,39.7850841 L54.6068192,40.6248451 L53.1690037,40.6248451 L53.1690037,44.2688009 C53.1690037,44.6306593 53.2371956,44.8889513 53.3744059,45.0440929 C53.511203,45.1992345 53.729417,45.2770133 54.029048,45.2770133 C54.183203,45.2770133 54.328679,45.2620398 54.465476,45.231677 C54.6026863,45.2013142 54.7179926,45.1647124 54.8122214,45.1218717 L54.8122214,46.0265177 C54.7097269,46.0610398 54.568797,46.0976416 54.3886052,46.1359071 C54.2088266,46.1750044 54.0075572,46.1945531 53.7852103,46.1945531" id="Fill-16" fill="#F5B336"></path>
            <path d="M58.6508044,45.3155699 C58.9851513,45.3155699 59.2587454,45.2469416 59.4728266,45.1088531 C59.6864945,44.9711805 59.8534613,44.7902513 59.9733137,44.5660655 C60.0931661,44.3422956 60.1766494,44.0881628 60.2241771,43.8036673 C60.2708782,43.5195876 60.2948487,43.235092 60.2948487,42.9505965 C60.2948487,42.6577823 60.2708782,42.3695434 60.2241771,42.0850478 C60.1766494,41.8009681 60.0910996,41.5464195 59.9671144,41.3226496 C59.8431292,41.0984637 59.6740959,40.9154549 59.4600148,40.7732071 C59.2455203,40.6313752 58.9719262,40.5602513 58.6384059,40.5602513 C58.304059,40.5602513 58.0325314,40.6313752 57.822583,40.7732071 C57.6126347,40.9154549 57.4460812,41.0984637 57.3220959,41.3226496 C57.1976974,41.5464195 57.114214,41.8009681 57.0716458,42.0850478 C57.0286642,42.3695434 57.0071734,42.6577823 57.0071734,42.9505965 C57.0071734,43.235092 57.0307306,43.5195876 57.077845,43.8036673 C57.1253727,44.0881628 57.2084428,44.3422956 57.3287085,44.5660655 C57.4481476,44.7902513 57.6151144,44.9711805 57.8291956,45.1088531 C58.0428635,45.2469416 58.3168708,45.3155699 58.6508044,45.3155699 M58.6384059,46.1944283 C58.1589963,46.1944283 57.7436458,46.1104106 57.3927675,45.9423752 C57.041476,45.7747558 56.7525904,45.5464106 56.5256974,45.2573398 C56.2992177,44.9691009 56.1297712,44.6267912 56.0190111,44.2304106 C55.9074244,43.8336142 55.8520443,43.4077027 55.8520443,42.9505965 C55.8520443,42.5288442 55.9074244,42.1195699 56.0190111,41.7231894 C56.1297712,41.3272248 56.2992177,40.9782602 56.5256974,40.6767115 C56.7525904,40.3751628 57.041476,40.1339239 57.3927675,39.9525788 C57.7436458,39.7720655 58.1627159,39.6813929 58.6508044,39.6813929 C59.138893,39.6813929 59.5579631,39.7654106 59.9092546,39.9338619 C60.2605461,40.1014814 60.5490185,40.3323221 60.7763247,40.6251363 C61.0023911,40.9179504 61.1697712,41.2644195 61.2768118,41.6653752 C61.3834391,42.065915 61.4371661,42.4943221 61.4371661,42.9505965 C61.4371661,43.3731805 61.3813727,43.7803752 61.2706125,44.1721805 C61.1590258,44.5639858 60.9879262,44.9083752 60.7569004,45.2057646 C60.5254613,45.5027381 60.2345092,45.7418973 59.883631,45.9228265 C59.5327528,46.1041717 59.1174022,46.1944283 58.6384059,46.1944283" id="Fill-17" fill="#F5B336"></path>
            <path d="M64.878583,46.1945531 C64.4934022,46.1945531 64.1722804,46.1379867 63.915631,46.0265177 C63.6589815,45.9146327 63.4490332,45.7569956 63.2861993,45.554854 C63.1237786,45.3527124 63.0084723,45.1152168 62.9398672,44.844031 C62.871262,44.5728451 62.8373727,44.2779513 62.8373727,43.9589336 L62.8373727,39.7850841 L63.9412546,39.7850841 L63.9412546,43.7775885 C63.9412546,44.2517478 64.0288708,44.6223407 64.2045166,44.8889513 C64.3797491,45.1563938 64.724428,45.2899071 65.2381402,45.2899071 C65.5121476,45.2899071 65.7663173,45.2404115 66.0023026,45.1414204 C66.2374613,45.0420133 66.4366642,44.9409425 66.5990849,44.8373761 L66.5990849,39.7850841 L67.7033801,39.7850841 L67.7033801,46.0909867 L66.6118967,46.0909867 L66.6118967,45.5868805 C66.4577417,45.7079159 66.2333284,45.8393496 65.9378303,45.9811814 C65.6427454,46.1234292 65.2893875,46.1945531 64.878583,46.1945531" id="Fill-18" fill="#F5B336"></path>
            <path d="M69.6032472,39.7850425 L70.7075424,39.7850425 L70.7075424,40.4438743 C70.887321,40.2201044 71.1059483,40.0366796 71.3625978,39.8948478 C71.6192472,39.7526 71.9230111,39.6814761 72.2743026,39.6814761 C72.3598524,39.6814761 72.4520148,39.6902106 72.5503764,39.7072637 C72.6483247,39.7247327 72.7363542,39.7417858 72.8136384,39.7592549 L72.8136384,40.7799451 C72.7363542,40.762892 72.6441919,40.7433434 72.5375646,40.721715 C72.430524,40.7005027 72.304059,40.6896885 72.158583,40.6896885 C71.7903469,40.6896885 71.4993948,40.7475027 71.2853137,40.8639628 C71.0716458,40.980423 70.8786421,41.1114407 70.7075424,41.2582637 L70.7075424,46.0909451 L69.6032472,46.0909451 L69.6032472,39.7850425 Z" id="Fill-19" fill="#F5B336"></path>
            <path d="M75.7281181,46.1945531 C75.3855055,46.1945531 75.0433063,46.1641903 74.7006937,46.1038805 C74.3584945,46.0439867 74.0758081,45.9574735 73.8534613,45.8455885 L73.8534613,44.9280487 C73.9559557,44.9713053 74.0737417,45.0162257 74.2064059,45.0636416 C74.3390701,45.1114735 74.4824797,45.1538982 74.6362214,45.1929956 C74.7903764,45.231677 74.9465978,45.2620398 75.1052989,45.2836681 C75.2635867,45.3048805 75.415262,45.3156947 75.5611513,45.3156947 C76.4340074,45.3156947 76.8708487,44.9970929 76.8708487,44.3594735 C76.8708487,44.2043319 76.8448118,44.0770575 76.7935646,43.9780664 C76.7423173,43.8794912 76.6633801,43.7933938 76.5563395,43.7197743 C76.4488856,43.6465708 76.314155,43.5775265 76.151321,43.5130575 C75.9889004,43.4481726 75.8008561,43.3774646 75.5867749,43.2996858 C75.0730627,43.1274912 74.6622583,42.9037212 74.3543616,42.6279602 C74.0460517,42.3521991 73.8918967,41.9645531 73.8918967,41.4650221 C73.8918967,40.8531903 74.0906863,40.4031549 74.4890923,40.1145 C74.8870849,39.8258451 75.4111292,39.6815177 76.0620517,39.6815177 C76.3873063,39.6815177 76.6885904,39.7118805 76.9671439,39.7721903 C77.2452841,39.8325 77.4572989,39.896969 77.6023616,39.9655973 L77.6023616,40.8964469 C77.4486199,40.8274027 77.2345387,40.7541991 76.9605314,40.6764204 C76.686524,40.5990575 76.3997048,40.5603761 76.1000738,40.5603761 C75.7153063,40.5603761 75.4280738,40.6315 75.2400295,40.7733319 C75.051572,40.9155796 74.9577565,41.1160575 74.9577565,41.3743496 C74.9577565,41.624323 75.0453727,41.8160664 75.2206052,41.9495796 C75.3958376,42.0830929 75.6851365,42.2186858 76.087262,42.3563584 C76.3013432,42.4254027 76.5195572,42.5073407 76.7423173,42.6017566 C76.9646642,42.6970044 77.1659336,42.8176239 77.3457122,42.963615 C77.5259041,43.1104381 77.6730332,43.2913673 77.7887528,43.5064027 C77.9044723,43.7222699 77.9619188,43.9847212 77.9619188,44.2950044 C77.9619188,44.8889513 77.7565166,45.3543761 77.3457122,45.6904469 C76.9349077,46.0265177 76.395572,46.1945531 75.7281181,46.1945531" id="Fill-20" fill="#F5B336"></path>
            <mask id="mask-3" fill="white">
                <use xlink:href="#path-2"></use>
            </mask>
            <use id="Clip-22" fill="url(#linearGradient-1)" xlink:href="#path-2"></use>
        </g>
    </g>
</svg>