<?xml version="1.0" encoding="UTF-8"?>
<svg width="160px" height="90px" viewBox="0 0 160 90" version="1.1" xmlns="http://www.w3.org/2000/svg" xmlns:xlink="http://www.w3.org/1999/xlink">
    <!-- Generator: Sketch 49.3 (51167) - http://www.bohemiancoding.com/sketch -->
    <title>Run My Relay logo designed by Isral Duke</title>
    <desc>Created with Sketch.</desc>
    <defs>
        <polygon id="path-1" points="0 0.0675 119 0.0675 119 59.74935 0 59.74935"></polygon>
    </defs>
    <g id="Run-My-Relay-logo-designed-by-Isral-Duke" stroke="none" stroke-width="1" fill="none" fill-rule="evenodd">
        <g id="Page-1" transform="translate(20.000000, 15.000000)">
            <mask id="mask-2" fill="white">
                <use xlink:href="#path-1"></use>
            </mask>
            <g id="Clip-2"></g>
            <path d="M108.960618,51.49209 L108.05923,51.49209 L109.100405,47.63529 L107.284977,42.53979 L108.351759,42.53979 L109.740896,46.89009 L113.735681,42.53979 L114.865428,42.53979 L110.001792,47.63529 L108.960618,51.49209 Z M100.213365,48.30609 L104.149704,48.30609 L103.648397,43.55109 L100.213365,48.30609 Z M97.9261544,51.49209 L96.8846785,51.49209 L103.500777,42.53979 L104.389813,42.53979 L105.430385,51.49209 L104.477782,51.49209 L104.212367,49.14039 L99.6159544,49.14039 L97.9261544,51.49209 Z M92.6666557,50.69559 L96.8693139,50.69559 L96.6686709,51.49209 L91.5646253,51.49209 L93.9774633,42.53979 L94.8788506,42.53979 L92.6666557,50.69559 Z M85.3154684,50.69559 L90.139638,50.69559 L89.926643,51.49209 L84.2001823,51.49209 L86.6130203,42.53979 L92.0098962,42.53979 L91.7966,43.33659 L87.3017139,43.33659 L86.4687139,46.44729 L90.7605468,46.44729 L90.5496608,47.21829 L86.2578278,47.21829 L85.3154684,50.69559 Z M78.8277089,46.54809 L80.4271291,46.54809 C80.7320101,46.54809 81.0347823,46.52499 81.3354456,46.47909 C81.6361089,46.43259 81.9108633,46.34619 82.1597089,46.21989 C82.4079519,46.09239 82.6173316,45.91419 82.786643,45.68229 C82.956557,45.45009 83.0577823,45.14889 83.0924278,44.77779 C83.1373165,44.28939 82.9936127,43.92249 82.6604127,43.67799 C82.3275139,43.43349 81.8475975,43.31109 81.2212658,43.31109 L79.6980658,43.31109 L78.8277089,46.54809 Z M77.4955114,51.49209 L76.5941241,51.49209 L79.006962,42.53979 L81.4321519,42.53979 C81.8301241,42.53979 82.1943544,42.58209 82.5251443,42.66669 C82.8559342,42.75039 83.1385215,42.88119 83.3714,43.05819 C83.6051823,43.23549 83.7790127,43.45899 83.8937949,43.72839 C84.0085772,43.99839 84.0495494,44.31459 84.0161089,44.67699 C83.9778481,45.09009 83.8766228,45.44769 83.713638,45.75189 C83.5500506,46.05519 83.338562,46.31049 83.0782684,46.51629 C82.8179747,46.72359 82.5212278,46.88589 82.1892329,47.00379 C81.8560329,47.12139 81.505962,47.19729 81.1393215,47.23119 L82.7269924,51.49209 L81.6981696,51.49209 L80.2050962,47.30649 L78.6180278,47.30649 L77.4955114,51.49209 Z M73.5163924,47.68629 L72.4794354,51.49209 L70.3714785,51.49209 L71.3963848,47.68629 L69.5722203,42.53979 L71.933843,42.53979 L72.9042203,45.92889 L75.7942633,42.53979 L78.3589392,42.53979 L73.5163924,47.68629 Z M64.5820532,51.49209 L66.3534962,45.08169 L66.3028835,45.08169 L62.2198278,51.49209 L60.7345873,51.49209 L60.1320557,45.08169 L60.0808405,45.08169 L58.4103215,51.49209 L56.4294987,51.49209 L58.8429392,42.53979 L61.8013696,42.53979 L62.3071949,48.34389 L62.3578076,48.34389 L65.9284101,42.53979 L69.0648886,42.53979 L66.6514481,51.49209 L64.5820532,51.49209 Z M52.0002886,48.02769 L53.6888835,48.02769 L54.5261013,45.97929 L52.8369038,45.97929 L52.0002886,48.02769 Z M50.9271797,48.78609 L49.6317367,48.78609 L49.8290658,48.02769 L51.2254329,48.02769 L52.0626506,45.97929 L50.6912886,45.97929 L50.8880152,45.22089 L52.373557,45.22089 L53.4716709,42.53979 L54.2465266,42.53979 L53.1484127,45.22089 L54.8370076,45.22089 L55.9351215,42.53979 L56.7096759,42.53979 L55.611562,45.22089 L56.7548658,45.22089 L56.5575367,45.97929 L55.3003544,45.97929 L54.463438,48.02769 L55.6697063,48.02769 L55.4729797,48.78609 L54.1651848,48.78609 L53.0523089,51.49209 L52.2774532,51.49209 L53.3903291,48.78609 L51.7017342,48.78609 L50.5888582,51.49209 L49.8143038,51.49209 L50.9271797,48.78609 Z" id="Fill-1" fill="#231F20" mask="url(#mask-2)"></path>
            <path d="M119,19.3173 L114.376775,37.8552 L107.615767,37.8717 L110.982413,24.3609 L107.560635,24.3609 L104.213572,37.8552 L97.5076962,37.8384 L102.112243,19.3173 L119,19.3173 Z M78.7852304,37.8717 L83.4063468,19.3512 L90.1336127,19.3344 L86.7522051,32.8287 L90.1739823,32.8287 L93.5403266,19.3173 L100.294104,19.3512 L95.6729873,37.8717 L78.7852304,37.8717 Z M81.6065848,19.2663 L79.4793468,27.7512 L72.6864051,27.7512 L73.5299494,24.3609 L70.1593873,24.3609 L66.7611089,37.8552 L60.038362,37.8384 L64.6679139,19.2663 L81.6065848,19.2663 Z" id="Fill-3" fill="#F6A800" mask="url(#mask-2)"></path>
            <path d="M-0.0960435443,59.74935 C16.9640375,59.03625 32.5785848,42.68835 50.1327418,41.56275 L61.7356937,0.0675 C44.1706911,1.1784 28.5492147,17.5425 11.480397,18.2562 L-0.0960435443,59.74935 Z" id="Fill-4" fill="#2A7DE1" mask="url(#mask-2)"></path>
            <path d="M30.0016172,23.5752 C29.4725944,23.6373 29.0053311,23.8602 28.5787387,24.0966 C28.5001084,24.4368 28.2768704,25.938 28.2738577,26.4738 C28.7914324,26.8521 29.3535944,27.168 29.945883,27.4137 L31.1939671,26.7291 C31.0210405,26.4039 30.602281,25.6953 30.602281,25.6953 C30.602281,25.6953 31.0246557,25.5306 31.239157,25.4469 C30.8511266,24.849 30.5103949,24.2151 30.2253975,23.5596 C30.145562,23.5617 30.0718122,23.5668 30.0016172,23.5752" id="Fill-270" fill="#FFFFFF" mask="url(#mask-2)"></path>
            <path d="M35.2170709,13.4055 C34.8317519,15.93 34.4117873,18.5358 33.9683241,21.1518 L33.7866608,21.489 C33.7866608,21.489 33.4052582,21.0015 33.2594456,20.8176 C32.9045544,20.9244 31.5744658,21.6123 31.5609089,21.6195 C31.2252987,22.1451 30.907162,22.6959 30.6149342,23.2581 C30.6456633,23.3172 31.3506253,24.8415 31.6344177,25.2924 C32.4243367,24.9831 33.2003975,24.6687 33.9442228,24.3576 C33.7318304,23.7795 33.1127291,22.3632 33.0247595,22.1907 C32.9946329,22.1316 32.9949342,22.0617 33.0259646,22.0041 C33.0578987,21.945 33.1175494,21.9048 33.186238,21.8967 C33.2742076,21.8865 33.3570557,21.9306 33.3971241,22.0092 C33.4829848,22.1775 33.5700506,22.3566 33.6565139,22.5423 L35.9599924,21.6345 C35.857562,19.0722 36.3664,13.9629 36.5179367,12.5199 C36.0714608,12.8025 35.6349266,13.0995 35.2170709,13.4055" id="Fill-271" fill="#FFFFFF" mask="url(#mask-2)"></path>
            <path d="M30.8905924,33.33903 L30.8869772,33.33873 C30.887881,33.42483 30.716762,35.63793 30.6393367,36.71883 C33.1151392,35.35143 35.4830886,34.17813 37.6814253,33.23043 C37.6835342,32.86203 37.6940785,32.52063 37.7130582,32.21493 L37.7130582,32.21103 L37.7136608,32.20713 C37.7648759,31.83243 38.1019924,30.63603 38.1019924,30.63603 C38.5388278,30.21153 40.1400557,27.0591 40.4274633,26.379 C40.4084835,26.3343 40.2783367,25.941 40.2509215,25.8489 L39.1766076,26.1681 C39.1223797,26.1744 37.2533266,24.2607 36.5555949,23.6784 C35.7009038,24.057 32.5222481,25.3887 31.7458861,25.6926 C31.7458861,25.6926 31.429557,25.8168 31.2337342,25.8933 C31.5190329,26.4426 31.8094532,27.0252 32.0983671,27.627 L37.9558785,27.3333 C38.0688532,27.3276 38.1646557,27.4116 38.1739949,27.5244 C38.1833342,27.6348 38.1050051,27.7314 37.9953443,27.744 L37.9917291,27.7446 L37.9884152,27.7446 L34.2680835,27.9315 C33.7453873,28.7937 33.2784253,29.6958 32.8801519,30.61443 C32.8506278,30.68253 32.7894709,30.72813 32.7162633,30.73683 C32.6418506,30.74553 32.5677392,30.71403 32.5228506,30.65403 C32.4785646,30.59463 32.4698278,30.51873 32.4996532,30.45033 C32.8638835,29.6103 33.2919823,28.7721 33.7731038,27.9564 L33.1708734,27.9867 L29.2170909,29.1801 C29.1851567,29.7492 29.1797339,30.32043 29.2014251,30.88053 C29.514139,31.38063 30.8924,33.32313 30.8905924,33.33903" id="Fill-272" fill="#FFFFFF" mask="url(#mask-2)"></path>
            <path d="M33.8252228,22.9203 C34.0095975,23.3403 34.1783063,23.7681 34.3277342,24.1956 C35.0775848,23.8755 36.6095215,23.1861 36.6095215,23.1861 C36.6095215,23.1861 38.5108101,24.8835 39.2290278,25.7265 L49.1816456,22.7223 C49.1750177,22.7175 49.1683899,22.7073 49.1614608,22.6944 C48.5896582,22.2135 48.2889949,20.94 48.2504329,19.7274 C48.2188,18.7311 48.3619013,17.6814 48.714081,17.0517 L33.8252228,22.9203 Z" id="Fill-273" fill="#FFFFFF" mask="url(#mask-2)"></path>
            <path d="M25.8996722,26.0442 C25.8568924,26.3802 25.6493203,27.9741 25.4658494,28.6719 C25.5920797,29.022 25.7186114,29.3892 25.8427329,29.7654 L31.7476937,27.8799 C31.6621342,27.6966 31.4886051,27.3252 31.3792456,27.099 L29.9694722,27.8766 L27.8675405,26.8089 C27.8675405,26.8089 27.8759759,25.6332 27.924781,25.2459 L25.8996722,26.0442 Z" id="Fill-274" fill="#FFFFFF" mask="url(#mask-2)"></path>
            <path d="M49.6380633,30.84042 C48.8457342,30.77862 47.9699544,30.80352 47.0291013,30.91422 C42.1073215,31.49352 35.9979519,34.35552 31.7392582,36.65472 C27.3878048,39.00372 24.0326073,41.25792 23.6307187,41.53032 L23.1333289,45.97572 C32.6072051,41.98962 39.2567443,40.60452 43.1668734,40.14462 C45.438719,39.87732 46.8305671,39.91932 47.3297646,39.95022 C46.6260076,38.82162 44.0631392,35.41752 44.0360253,35.38122 L43.9848101,35.31342 L44.0399418,35.24862 C45.2431975,33.83472 48.6722051,31.48902 49.6380633,30.84042" id="Fill-275" fill="#FFFFFF" mask="url(#mask-2)"></path>
            <path d="M23.652681,37.06215 L26.0947418,33.83205 C26.4122759,32.60325 26.6544937,31.00035 26.7746987,29.9253 C25.6353114,30.25905 25.5367975,30.27075 25.5367975,30.27075 L25.0210304,28.7436 C25.0210304,28.7436 26.2107291,21.4086 26.3390684,17.4534 C25.9115722,17.5569 25.2581266,17.8668 25.0764633,17.955 C24.8550329,19.6824 24.2940759,23.0322 23.0001392,26.3691 L22.9724228,26.4339 C22.9404886,26.5032 22.8799342,26.5479 22.8088354,26.5563 C22.7012835,26.5689 22.6027696,26.4969 22.5813797,26.3931 L22.5892127,26.2827 L22.6133139,26.2203 C24.1148228,22.3479 24.618238,18.4638 24.7553139,17.1228 C24.4480228,17.3286 24.0660177,17.5884 23.8189797,17.7639 C22.8492051,20.0838 22.0505494,22.3239 21.2048962,24.6954 C20.9599671,25.3827 20.7066025,26.0934 20.4505266,26.8014 C20.4237139,26.8743 20.3598456,26.9253 20.2836253,26.9343 C20.2119241,26.9427 20.1396203,26.9127 20.0941291,26.856 C20.0492405,26.7996 20.0371899,26.7252 20.0618937,26.6571 C20.0853924,26.5917 20.1094937,26.5263 20.1335949,26.4609 L20.1335949,26.4606 C19.9462076,26.4675 19.1623139,26.5014 19.0960354,26.5029 L17.9409823,27.9804 C17.906638,28.0245 17.8575316,28.0521 17.8030025,28.0587 C17.720757,28.0683 17.6379089,28.026 17.5966354,27.9531 C17.5574709,27.8841 17.5619899,27.7995 17.6077823,27.7347 L16.6295722,27.9444 C16.5440127,28.077 16.2373241,28.5459 15.1045646,30.27465 L16.3252937,36.71955 L16.3264987,36.72615 L16.3268,36.73305 C16.3385494,36.93105 13.5461165,50.37915 12.0515367,56.95095 C15.2985797,55.68375 18.5215215,54.10335 21.7453671,52.43925 C22.6491646,46.30995 23.652681,37.06215 23.652681,37.06215" id="Fill-276" fill="#FFFFFF" mask="url(#mask-2)"></path>
            <path d="M38.3924127,41.45547 C35.8370759,42.01917 33.0892304,42.80097 30.2217823,43.78017 C30.1515873,45.40107 30.1064878,46.86597 30.0983537,48.10707 C32.9735443,46.66077 35.8669013,45.30717 38.7964101,44.20797 C38.6698785,43.42017 38.5331038,42.46497 38.3924127,41.45547" id="Fill-277" fill="#FFFFFF" mask="url(#mask-2)"></path>
            <path d="M38.8403949,12.6372 L36.7954025,21.3054 L39.3679114,20.2914 C39.2112532,17.4897 39.4239468,14.6937 39.6345316,12.5391 L38.8403949,12.6372 Z" id="Fill-278" fill="#FFFFFF" mask="url(#mask-2)"></path>
            <path d="M50.6030177,19.6533 C50.5524051,18.063 50.0595342,16.788 49.5018911,16.8054 C48.9439468,16.8231 48.5330203,18.1266 48.5836329,19.7169 C48.6339443,21.3072 49.1271165,22.5825 49.6847595,22.5648 C50.2424025,22.5471 50.6533291,21.2436 50.6030177,19.6533" id="Fill-279" fill="#FFFFFF" mask="url(#mask-2)"></path>
            <path d="M11.3279866,32.86746 C11.3686575,33.32106 11.5813511,33.73116 11.9006929,33.97536 L15.1742473,32.98746 L14.6958372,30.46026 L11.7343942,31.62756 C11.4367435,31.92666 11.2852068,32.38836 11.3279866,32.86746" id="Fill-280" fill="#FFFFFF" mask="url(#mask-2)"></path>
            <path d="M13.4551041,48.30636 L14.1483167,45.18096 C13.5358433,45.23346 11.1983218,45.38046 9.56696734,44.74026 C9.82063316,45.20946 10.6620686,46.62756 10.6620686,46.62756 C10.6620686,46.62756 9.11778,47.18286 8.55471418,47.46096 C9.13133696,47.72166 11.0250939,48.47016 13.4551041,48.30636" id="Fill-281" fill="#FFFFFF" mask="url(#mask-2)"></path>
        </g>
    </g>
</svg>