<?xml version="1.0" encoding="UTF-8"?>
<svg width="160px" height="90px" viewBox="0 0 160 90" version="1.1" xmlns="http://www.w3.org/2000/svg" xmlns:xlink="http://www.w3.org/1999/xlink">
    <!-- Generator: Sketch 49.3 (51167) - http://www.bohemiancoding.com/sketch -->
    <title>St James Technologies logo designed by Isral Duke</title>
    <desc>Created with Sketch.</desc>
    <defs>
        <linearGradient x1="50.0011523%" y1="90.6817547%" x2="50.0011523%" y2="0.777352014%" id="linearGradient-1">
            <stop stop-color="#FFFFFF" offset="0%"></stop>
            <stop stop-color="#F6A800" offset="100%"></stop>
        </linearGradient>
        <polygon id="path-2" points="0.021811082 0.0238044969 0.021811082 19.0013805 16.4161551 28.4901685 16.4161551 8.89826232"></polygon>
        <linearGradient x1="85.1551809%" y1="14.6815324%" x2="28.8459953%" y2="71.2536183%" id="linearGradient-4">
            <stop stop-color="#FFFFFF" offset="0%"></stop>
            <stop stop-color="#F6A800" offset="100%"></stop>
        </linearGradient>
        <polygon id="path-5" points="16.4891724 0.0238044969 16.4891724 19.0013805 0.0955839298 28.4901685 0.0955839298 8.89826232"></polygon>
        <linearGradient x1="14.2254511%" y1="14.0582123%" x2="70.534495%" y2="70.6301559%" id="linearGradient-7">
            <stop stop-color="#FFFFFF" offset="0%"></stop>
            <stop stop-color="#F6A800" offset="100%"></stop>
        </linearGradient>
        <polygon id="path-8" points="29.1662322 25.3296637 14.5845825 33.7700757 0.00255515464 25.3296637 0.00255515464 8.38142259 14.5845825 0.00918537722 29.1662322 8.38180134"></polygon>
        <linearGradient x1="18.2738639%" y1="70.9848889%" x2="48.2144505%" y2="51.1811556%" id="linearGradient-10">
            <stop stop-color="#7B7979" offset="0%"></stop>
            <stop stop-color="#231F20" offset="100%"></stop>
        </linearGradient>
        <polygon id="path-11" points="0.00255515464 8.38142259 14.5845825 0.00918537722 14.5845825 16.8896306 0.00255515464 25.3296637"></polygon>
        <linearGradient x1="71.1474096%" y1="58.0611027%" x2="21.4498016%" y2="39.1174477%" id="linearGradient-13">
            <stop stop-color="#231F20" offset="0%"></stop>
            <stop stop-color="#7B7979" offset="100%"></stop>
        </linearGradient>
        <polygon id="path-14" points="14.6772335 8.38142259 14.6772335 25.3296637 0.0955839298 16.8896306 0.0955839298 0.00918537722"></polygon>
        <linearGradient x1="25.7266599%" y1="59.421859%" x2="74.0727756%" y2="40.6569265%" id="linearGradient-16">
            <stop stop-color="#160000" offset="0%"></stop>
            <stop stop-color="#AC1E2C" offset="100%"></stop>
        </linearGradient>
        <polygon id="path-17" points="0.0955839298 0.0438781713 0.0955839298 16.9243234 14.6772335 8.48391138"></polygon>
        <linearGradient x1="20.6494459%" y1="30.3592942%" x2="78.7946554%" y2="69.270073%" id="linearGradient-19">
            <stop stop-color="#160000" offset="0%"></stop>
            <stop stop-color="#AC1E2C" offset="100%"></stop>
        </linearGradient>
        <polygon id="path-20" points="13.9226613 12.0788616 6.9711028 16.1026864 0.0187886652 12.0788616 0.0187886652 4.03121188 6.9711028 0.00738704606 13.9226613 4.03121188"></polygon>
        <linearGradient x1="28.6482003%" y1="35.8923465%" x2="81.6549195%" y2="70.9161761%" id="linearGradient-22">
            <stop stop-color="#FFFFFF" offset="0%"></stop>
            <stop stop-color="#F6A800" offset="100%"></stop>
        </linearGradient>
        <linearGradient x1="50.0027172%" y1="-81.8078849%" x2="50.0027172%" y2="97.096884%" id="linearGradient-23">
            <stop stop-color="#FFFFFF" offset="0%"></stop>
            <stop stop-color="#F6A800" offset="100%"></stop>
        </linearGradient>
        <linearGradient x1="50%" y1="120.560366%" x2="50%" y2="-0.354856928%" id="linearGradient-24">
            <stop stop-color="#FFFFFF" offset="0%"></stop>
            <stop stop-color="#F6A800" offset="100%"></stop>
        </linearGradient>
    </defs>
    <g id="St-James-Technologies-logo-designed-by-Isral-Duke" stroke="none" stroke-width="1" fill="none" fill-rule="evenodd">
        <g id="st-james-technologies-logo" transform="translate(8.000000, 26.000000)">
            <g id="Group" transform="translate(41.820755, 9.006494)" fill-rule="nonzero">
                <path d="M3.84226187,13.6163816 C3.97146598,16.2073743 5.70552093,16.7002303 6.53363604,16.7002303 C8.0092828,16.7002303 9.14794111,15.5079954 9.14794111,14.1606792 C9.14794111,12.5277864 7.77618653,12.1136058 5.11050207,11.0507314 C3.66092281,10.5325329 0.322017023,9.34105449 0.322017023,5.71290822 C0.322017023,2.03332033 3.55740843,0.0380668266 6.66321793,0.0380668266 C9.19969828,0.0380668266 12.5642938,1.38576128 12.7195654,5.63536756 L8.91484481,5.63536756 C8.75957322,4.75367354 8.42334035,3.27737507 6.53363604,3.27737507 C5.26577365,3.27737507 4.17773919,4.15793436 4.17773919,5.45380894 C4.15280507,6.87942229 5.18794897,7.24178302 8.42334035,8.58947749 C11.3478108,9.85925302 12.9783513,11.2583891 12.9783513,13.9794988 C12.9783513,17.0633475 11.0890248,19.9391602 6.58577102,19.9391602 C2.23741104,19.9391602 -0.0145936417,17.3220685 0.0114738507,13.6163816 L3.84226187,13.6163816 Z" id="Shape" fill="#F6A800"></path>
                <path d="M26.82359,12.5024438 C26.82359,14.5495172 26.6422509,15.7674729 26.2278156,16.7263293 C25.8398255,17.5297262 25.0884017,18.3588438 24.3127993,18.8509433 C23.1998307,19.6025203 21.8798334,19.9395385 20.6637282,19.9395385 C19.835613,19.9395385 15.5646999,19.6543402 14.7622745,15.3010942 C14.6844498,14.9122562 14.6587601,14.4715983 14.6330704,14.0313187 L18.7483342,14.0313187 C18.7483342,14.212499 18.7740239,14.3679586 18.7997136,14.5495172 C19.0849448,15.7931937 19.8613027,16.5447707 20.8443117,16.5447707 C21.9059009,16.5186716 22.4756078,15.9486533 22.7083263,15.3010942 C22.9414226,14.7049767 22.9671123,14.0313187 22.9671123,13.4355794 L22.9671123,0.400805806 L26.82359,0.400805806 L26.82359,12.5024438 Z" id="Shape" fill="#F6A800"></path>
                <polygon id="Shape" fill="#656565" points="33.2924837 3.79557362 29.1515304 3.79557362 29.1515304 0.400805806 41.2642252 0.400805806 41.2642252 3.79557362 37.1489617 3.79557362 37.1489617 19.5764213 33.2924837 19.5764213"></polygon>
                <path d="M51.4086356,10.9992898 C51.2794314,9.65159537 49.855542,7.7603598 47.3708189,7.7860806 C44.8600281,7.7860806 43.4886513,9.60015374 43.3590695,10.9992898 L51.4086356,10.9992898 Z M43.3076899,13.591039 C43.4625837,15.8714908 45.4814923,17.1408881 47.4229538,17.1147891 C49.0791841,17.1147891 50.1921524,16.3632121 50.8389286,15.1974545 L54.3331059,15.1974545 C53.6602625,16.7781492 52.6504303,17.9700058 51.4600151,18.7730244 C50.2699773,19.6025203 48.8717775,20.0174574 47.3968862,20.0174574 C43.0224588,20.0174574 39.8909595,16.46723 39.8909595,12.5024438 C39.8909595,8.46011698 43.0489041,4.90988958 47.3451289,4.90988958 C49.4675517,4.90988958 51.330811,5.71328647 52.6504303,7.08632346 C54.3848632,8.87467579 55.0312614,11.1033078 54.7475415,13.591039 L43.3076899,13.591039 Z" id="Shape" fill="#656565"></path>
                <path d="M71.9834429,14.3940576 C71.1810177,17.555447 68.3596839,20.0170791 64.6845452,20.0170791 C60.1812914,20.0170791 57.075104,16.5186716 57.075104,12.4502457 C57.075104,8.2524593 60.3108731,4.90988958 64.5553411,4.90988958 C68.1265873,4.90988958 71.1549501,7.16424237 71.9834429,10.6365508 L68.5141996,10.6365508 C67.9195587,9.13339682 66.5478042,8.07090068 64.6845452,8.07090068 C63.4423724,8.04517988 62.4846755,8.48583778 61.6561824,9.28923464 C60.9315817,10.0665324 60.4914568,11.2069475 60.4914568,12.4502457 C60.4914568,15.0162741 62.2776466,16.829969 64.6845452,16.829969 C66.80659,16.829969 67.9973835,15.5601935 68.5141996,14.3940576 L71.9834429,14.3940576 Z" id="Shape" fill="#656565"></path>
                <path d="M74.750753,0.400805806 L78.1414159,0.400805806 L78.1414159,7.0345036 C78.9438414,5.53172785 80.6518287,4.88416878 82.3341266,4.90951136 C84.5339963,4.90951136 85.9057508,5.66108836 86.7342436,6.90514309 C87.5880484,8.14881959 87.8472122,9.83315397 87.8472122,11.7508668 L87.8472122,19.5764213 L84.4565494,19.5764213 L84.4565494,11.9063264 C84.4565494,10.8177312 84.2752101,9.88497382 83.8093956,9.21131573 C83.3175132,8.53765764 82.5411552,8.09699974 81.3507397,8.09699974 C80.0046748,8.09699974 79.2022496,8.64129732 78.7364348,9.34105449 C78.27062,10.0404334 78.1414159,10.8956501 78.1414159,11.621128 L78.1414159,19.5764213 L74.750753,19.5764213 L74.750753,0.400805806 Z" id="Shape" fill="#656565"></path>
                <path d="M97.3184012,9.18521667 C97.2923339,8.43401793 96.9043436,7.65634187 95.5839686,7.65634187 C94.4453101,7.65634187 93.9020487,8.38219807 93.9020487,9.08157696 C93.9277383,9.98861353 94.9628821,10.4810913 96.308947,10.869551 C98.5862635,11.4917675 101.044919,12.1654257 101.070609,15.222797 C101.122366,18.1515644 98.6637104,20.0170791 95.6874828,20.0170791 C93.4876131,20.0170791 90.5113855,18.8766641 90.2522217,15.4304547 L93.6428848,15.4304547 C93.7724666,16.9593295 95.0924642,17.2702486 95.73924,17.2702486 C96.8004514,17.2702486 97.7067691,16.5704915 97.6807015,15.6116351 C97.6807015,14.3940576 96.6191124,14.0570395 94.0051852,13.1500029 C92.090169,12.5542637 90.5370752,11.4917675 90.5113855,9.44469421 C90.5113855,6.64604384 92.8661489,4.90951136 95.6096583,4.90951136 C97.5254301,4.90951136 100.372076,5.76472807 100.655796,9.18521667 L97.3184012,9.18521667 Z" id="Shape" fill="#656565"></path>
            </g>
            <g id="Group">
                <polygon id="Shape" fill="url(#linearGradient-1)" fill-rule="nonzero" points="32.8097435 28.4700949 16.4161551 37.9588827 0.021811082 28.4700949 0.021811082 9.49251884 16.4161551 0.00373082257 32.8097435 9.49251884"></polygon>
                <g id="Clipped" transform="translate(0.000000, 9.468714)">
                    <g id="Shape-Clipped">
                        <mask id="mask-3" fill="white">
                            <use xlink:href="#path-2"></use>
                        </mask>
                        <g id="path-2"></g>
                        <polygon id="Shape" fill="url(#linearGradient-4)" fill-rule="nonzero" mask="url(#mask-3)" points="26.1872507 18.6942154 12.9517099 31.963293 -9.44326477 9.5125925 3.79303159 -3.75686375"></polygon>
                    </g>
                </g>
                <g id="Clipped" transform="translate(16.320571, 9.468714)">
                    <g id="Shape-Clipped">
                        <mask id="mask-6" fill="white">
                            <use xlink:href="#path-5"></use>
                        </mask>
                        <g id="path-5"></g>
                        <polygon id="Shape" fill="url(#linearGradient-7)" fill-rule="nonzero" mask="url(#mask-6)" points="-9.67588941 18.6942154 3.56002913 31.963293 25.9542482 9.5125925 12.7183297 -3.75648503"></polygon>
                    </g>
                </g>
                <g id="Clipped" transform="translate(1.831573, 2.091676)">
                    <g id="Shape-Clipped" transform="translate(-0.000000, -0.000000)">
                        <mask id="mask-9" fill="white">
                            <use xlink:href="#path-8"></use>
                        </mask>
                        <g id="path-8"></g>
                        <polygon id="Shape" fill="url(#linearGradient-10)" fill-rule="nonzero" mask="url(#mask-9)" points="-7.41634455 12.7942222 21.5724101 -4.44906409 36.5851318 20.9164854 7.59637722 38.1601504"></polygon>
                    </g>
                </g>
                <g id="Clipped" transform="translate(1.831573, 2.091676)">
                    <g id="Shape-Clipped" transform="translate(-0.000000, 0.000000)">
                        <mask id="mask-12" fill="white">
                            <use xlink:href="#path-11"></use>
                        </mask>
                        <g id="path-11"></g>
                        <polygon id="Shape" fill="url(#linearGradient-13)" fill-rule="nonzero" mask="url(#mask-12)" points="7.25106613 29.5493016 -7.33889514 21.0551074 7.30698083 -4.22787492 21.8965643 4.26631935"></polygon>
                    </g>
                </g>
                <g id="Clipped" transform="translate(16.320571, 2.091676)">
                    <g id="Shape-Clipped" transform="translate(0.000000, 0.000000)">
                        <mask id="mask-15" fill="white">
                            <use xlink:href="#path-14"></use>
                        </mask>
                        <g id="path-14"></g>
                        <polygon id="Shape" fill="url(#linearGradient-16)" fill-rule="nonzero" mask="url(#mask-15)" points="-7.25380019 4.33222158 7.29762525 -4.22749617 22.056464 20.9888263 7.50466078 29.5485441"></polygon>
                    </g>
                </g>
                <g id="Clipped" transform="translate(16.320571, 18.937429)">
                    <g id="Shape-Clipped">
                        <mask id="mask-18" fill="white">
                            <use xlink:href="#path-17"></use>
                        </mask>
                        <g id="path-17"></g>
                        <polygon id="Shape" fill="url(#linearGradient-19)" fill-rule="nonzero" mask="url(#mask-18)" points="0.26710608 -0.240562007 14.6772335 8.48391138 7.05469849 21.1375225 -7.35542895 12.4130491"></polygon>
                    </g>
                </g>
                <g id="Clipped" transform="translate(9.445052, 10.926270)">
                    <g id="Shape-Clipped">
                        <mask id="mask-21" fill="white">
                            <use xlink:href="#path-20"></use>
                        </mask>
                        <g id="path-20"></g>
                        <polygon id="Shape" fill="url(#linearGradient-22)" fill-rule="nonzero" mask="url(#mask-21)" points="3.62415405 -2.07762385 17.4407544 6.11773779 10.3180515 18.1873186 -3.49892662 9.99195694"></polygon>
                    </g>
                </g>
                <polygon id="Shape" fill="url(#linearGradient-23)" fill-rule="nonzero" points="16.4161551 10.9336571 9.46384099 14.957482 16.4161551 18.7248941 23.3677137 14.957482"></polygon>
                <polygon id="Shape" fill="url(#linearGradient-24)" fill-rule="nonzero" points="16.4161551 27.0289565 9.46384099 23.0051317 9.46384099 14.957482 16.4161551 18.7248941"></polygon>
            </g>
        </g>
    </g>
</svg>