<?xml version="1.0" encoding="UTF-8"?>
<svg width="160px" height="90px" viewBox="0 0 160 90" version="1.1" xmlns="http://www.w3.org/2000/svg" xmlns:xlink="http://www.w3.org/1999/xlink">
    <!-- Generator: Sketch 49.3 (51167) - http://www.bohemiancoding.com/sketch -->
    <title>St Luke’s Episcopal Church logo designed by Isral Duke while employed at Envoc</title>
    <desc>Created with Sketch.</desc>
    <defs></defs>
    <g id="St-Luke’s-Episcopal-Church-logo-designed-by-Isral-Duke-while-employed-at-Envoc" stroke="none" stroke-width="1" fill="none" fill-rule="evenodd">
        <g id="Page-1" transform="translate(12.000000, 25.000000)">
            <path d="M10.4099362,0.37595092 L10.4099362,8.76907975 C10.4099362,8.96 10.5616401,9.11484663 10.7486854,9.11484663 L21.4307028,9.1195092 C21.6196714,9.1197546 21.7720965,9.27754601 21.7696923,9.47067485 C21.6925181,15.3170552 19.7037794,23.9985276 15.4868456,27.88 C15.3577411,27.998773 15.1625216,28 15.032215,27.8822086 C10.5032185,23.7973006 8.99267143,14.2191411 8.88953206,11.004908 C8.8835216,10.8184049 8.73374111,10.6711656 8.55126376,10.6711656 L0.726134843,10.6711656 C0.52851115,10.6711656 0.372960627,10.842454 0.388106969,11.043681 C0.615061672,14.0328834 0.958378746,17.7226994 1.47744146,19.3320245 C2.22466098,21.6358282 4.5908561,31.723681 15.0500059,39.8019632 C15.1706958,39.8952147 15.3387481,39.8952147 15.459438,39.8019632 C25.9216411,31.723681 28.3046655,21.6358282 29.046115,19.3290798 C30.4431847,15.0164417 30.5710871,2.61226994 30.5828676,0.377177914 C30.5838293,0.185521472 30.431885,0.0299386503 30.2441185,0.0299386503 L10.7489258,0.0299386503 C10.5616401,0.0299386503 10.4099362,0.184785276 10.4099362,0.37595092" id="Fill-1" fill="#004876"></path>
            <path d="M9.03539373,8.8 L9.05655052,0.346503067 C9.05703136,0.155092025 8.90508711,0 8.71780139,0 L0.338989547,0 C0.15074216,0 -0.00120209059,0.155337423 2.40418118e-05,0.347239264 C0.00769337979,1.52957055 0.0471219512,5.02895706 0.245226481,8.80883436 C0.254843206,8.99214724 0.403421603,9.13595092 0.583254355,9.13619632 L8.69616376,9.14503067 C8.88320906,9.14503067 9.03491289,8.99067485 9.03539373,8.8" id="Fill-2" fill="#004876"></path>
            <path d="M4.15353554,4.18846626 L4.15353554,2.70822086 C3.93355296,2.84368098 3.64793624,2.77177914 3.51522544,2.54723926 C3.38227422,2.32269939 3.45295714,2.03092025 3.67293972,1.89570552 C3.8054101,1.81398773 3.96889443,1.80490798 4.10929861,1.87165644 C3.97851115,1.64490798 4.05255993,1.35312883 4.27446585,1.2193865 C4.49637178,1.08588957 4.78246934,1.16147239 4.91325679,1.38797546 C4.9995669,1.53717791 4.9995669,1.72245399 4.91325679,1.87165644 C5.14598153,1.7609816 5.42270279,1.86404908 5.53089094,2.10159509 C5.63931951,2.3393865 5.53858432,2.62159509 5.30561916,2.73226994 C5.16521498,2.79877301 5.00173066,2.78993865 4.86926028,2.70822086 L4.86926028,4.18846626 L6.31922195,4.18846626 C6.18651115,3.96392638 6.25719408,3.67214724 6.47693624,3.53668712 C6.69691882,3.40122699 6.98277596,3.47337423 7.11524634,3.69766871 C7.19530557,3.83312883 7.20420105,4 7.13880732,4.14331288 C7.36095366,4.00981595 7.6468108,4.08515337 7.77783868,4.31165644 C7.90862613,4.53840491 7.83481777,4.83042945 7.61267143,4.96392638 C7.46649721,5.05177914 7.28498153,5.05177914 7.13880732,4.96392638 C7.24723589,5.20147239 7.14626028,5.48392638 6.91353554,5.59435583 C6.68057038,5.70503067 6.40408955,5.60196319 6.29566098,5.36441718 C6.23050767,5.22110429 6.23916272,5.05398773 6.31922195,4.91877301 L4.86926028,4.91877301 L4.86926028,6.3990184 C5.08900244,6.26355828 5.37485958,6.33570552 5.50757038,6.56 C5.64028118,6.78453988 5.56959826,7.07631902 5.3498561,7.21153374 C5.2171453,7.29325153 5.05366098,7.30233129 4.91325679,7.23558282 C5.04404425,7.46233129 4.97023589,7.75411043 4.74832997,7.88785276 C4.52618362,8.02134969 4.24032648,7.94601227 4.10929861,7.7192638 C4.02322892,7.57006135 4.02322892,7.38478528 4.10929861,7.23558282 C3.87657387,7.34625767 3.60009303,7.24319018 3.49166446,7.00564417 C3.38323589,6.76785276 3.4842115,6.48564417 3.71717666,6.37496933 C3.85734042,6.30846626 4.02106516,6.31730061 4.15353554,6.3990184 L4.15353554,4.91877301 L2.70333345,4.91877301 C2.83628467,5.14331288 2.76560174,5.43509202 2.54561916,5.57055215 C2.325877,5.70601227 2.04001986,5.63386503 1.90730906,5.40957055 C1.82724983,5.27411043 1.81859477,5.10723926 1.88374808,4.96392638 C1.66184216,5.09742331 1.3757446,5.02208589 1.24495714,4.79558282 C1.11416969,4.56883436 1.18797805,4.27680982 1.40988397,4.14331288 C1.55605819,4.05546012 1.73757387,4.05546012 1.88374808,4.14331288 C1.77531951,3.90576687 1.87629512,3.62331288 2.10926028,3.51288344 C2.34198502,3.40220859 2.61846585,3.50527607 2.72689443,3.74282209 C2.79228815,3.88613497 2.78339268,4.05325153 2.70333345,4.18846626 L4.15353554,4.18846626 Z" id="Fill-3" fill="#FFFFFF"></path>
            <path d="M10.3844519,11.0233129 C10.4695599,14.6910429 11.8495599,21.5562454 14.998316,25.6801718 C15.133431,25.8571043 15.3969293,25.8571043 15.5320443,25.6801718 C18.6808003,21.5562454 20.0610408,14.6910429 20.1459084,11.0233129 C20.1504763,10.8299387 19.9966087,10.6711656 19.8069188,10.6711656 L10.723201,10.6711656 C10.5337516,10.6711656 10.379884,10.8299387 10.3844519,11.0233129" id="Fill-4" fill="#AB0B3D"></path>
            <path d="M29.046115,19.3290307 C30.4431847,15.0164417 30.5710871,2.61226994 30.5828676,0.377177914 C30.5833484,0.280736196 30.5448815,0.193619632 30.4830941,0.130797546 L21.666577,9.2191411 C21.7307686,9.28294479 21.7709185,9.37177914 21.769476,9.47067485 C21.6923017,15.3170552 19.7038035,23.9984785 15.4868697,27.8799509 C15.4207547,27.9405644 15.33757,27.9697669 15.2546258,27.9687853 L15.2546258,39.8718528 C15.3267512,39.8718528 15.3991171,39.8485399 15.459462,39.8019141 C25.9214007,31.7236319 28.3046655,21.6357791 29.046115,19.3290307" id="Fill-5" fill="#2C9942"></path>
            <polygon id="Fill-6" fill="#004876" points="38.5092125 24.2291043 42.6857561 24.2291043 42.6857561 24.892908 39.2475366 24.892908 39.2475366 27.5812515 42.2558885 27.5812515 42.2558885 28.2335215 39.2475366 28.2335215 39.2475366 31.1807607 42.7189338 31.1807607 42.7189338 31.844319 38.5092125 31.844319"></polygon>
            <path d="M46.6312578,24.8816687 L45.5623589,24.8816687 L45.5623589,28.0873129 L46.6644355,28.0873129 C47.8105087,28.0873129 48.5377735,27.513816 48.5377735,26.467681 C48.5377735,25.2752883 47.7443937,24.8816687 46.6312578,24.8816687 M46.6644355,28.7285399 L45.5623589,28.7285399 L45.5623589,31.8443681 L44.8240348,31.8443681 L44.8240348,24.2291534 L46.6644355,24.2291534 C48.2401359,24.2291534 49.3092753,24.7916074 49.3092753,26.4451043 C49.3092753,27.9413006 48.2622544,28.7285399 46.6644355,28.7285399" id="Fill-7" fill="#004876"></path>
            <polygon id="Fill-8" fill="#004876" points="51.1277979 31.8442945 51.866122 31.8442945 51.866122 24.2290798 51.1277979 24.2290798"></polygon>
            <path d="M57.7953136,25.0503804 C57.2885122,24.8705031 56.7374739,24.7465767 56.2414913,24.7465767 C55.3709373,24.7465767 54.6655505,25.1065767 54.6655505,26.0626503 C54.6655505,28.1998282 58.0708328,27.1762699 58.0708328,29.8871902 C58.0708328,31.3833865 56.9687561,31.9905031 55.7233902,31.9905031 C55.0622404,31.9905031 54.3681533,31.8332025 53.751,31.5293988 L53.751,30.8322209 C54.3792125,31.1357791 55.0954181,31.3382331 55.7344495,31.3382331 C56.6050035,31.3382331 57.3103902,30.9446135 57.3103902,29.9323436 C57.3103902,27.7949202 53.8940488,28.7622822 53.8940488,26.085227 C53.8940488,24.6567607 54.9961254,24.1053497 56.2414913,24.1053497 C56.7593519,24.1053497 57.299331,24.2066994 57.7953136,24.3755337 L57.7953136,25.0503804 Z" id="Fill-9" fill="#004876"></path>
            <path d="M63.1624077,24.7354847 C61.4323589,24.7354847 60.253108,25.9727853 60.253108,28.0311902 C60.253108,29.9210061 61.123662,31.338184 63.2174634,31.338184 C63.9007317,31.338184 64.4407108,31.2481227 65.1129199,30.9894724 L65.1129199,31.6419877 C64.517885,31.8557301 63.9007317,31.990454 63.1181707,31.990454 C60.5396864,31.990454 59.4926655,30.2922945 59.4926655,28.0873865 C59.4926655,25.3877546 61.0686063,24.105546 63.0191185,24.105546 C63.7906202,24.105546 64.4296516,24.229227 64.9588118,24.4429693 L64.9588118,25.117816 C64.3967143,24.8817423 63.8016794,24.7354847 63.1624077,24.7354847" id="Fill-10" fill="#004876"></path>
            <path d="M72.3978293,28.0423804 C72.3978293,26.2313374 71.6263275,24.7464294 69.7640488,24.7464294 C67.8904704,24.7464294 67.1300279,26.2539141 67.1300279,28.0423804 C67.1300279,29.876 67.9015296,31.3383313 69.7640488,31.3383313 C71.6263275,31.3383313 72.3978293,29.8534233 72.3978293,28.0423804 M66.3698258,28.0762454 C66.3698258,25.8490061 67.4387247,24.1054479 69.775108,24.1054479 C72.1112509,24.1054479 73.1469721,25.8040982 73.1469721,28.031092 C73.1469721,30.2696196 72.0670139,31.9906012 69.7529895,31.9906012 C67.405547,31.9906012 66.3698258,30.3481472 66.3698258,28.0762454" id="Fill-11" fill="#004876"></path>
            <path d="M76.9494251,24.8816687 L75.8805261,24.8816687 L75.8805261,28.0873129 L76.9823624,28.0873129 C78.1284355,28.0873129 78.8559408,27.513816 78.8559408,26.467681 C78.8559408,25.2752883 78.0623206,24.8816687 76.9494251,24.8816687 M76.9823624,28.7285399 L75.8805261,28.7285399 L75.8805261,31.8443681 L75.1419617,31.8443681 L75.1419617,24.2291534 L76.9823624,24.2291534 C78.5583031,24.2291534 79.6274425,24.7916074 79.6274425,26.4451043 C79.6274425,27.9413006 78.5801812,28.7285399 76.9823624,28.7285399" id="Fill-12" fill="#004876"></path>
            <path d="M81.7765401,28.9985767 L84.7521951,28.9985767 L83.2642474,25.0164908 L81.7765401,28.9985767 Z M86.5264808,31.8444663 L85.7549791,31.8444663 L84.9392404,29.6508466 L81.6113728,29.6508466 L80.7958746,31.8444663 L80.0464913,31.8444663 L82.8675575,24.2290061 L83.715993,24.2290061 L86.5264808,31.8444663 Z" id="Fill-13" fill="#004876"></path>
            <polygon id="Fill-14" fill="#004876" points="88.1906551 24.2291043 88.9289791 24.2291043 88.9289791 31.1807607 92.4003763 31.1807607 92.4003763 31.844319 88.1906551 31.844319"></polygon>
            <path d="M100.67701,25.0503804 C100.170209,24.8705031 99.6191707,24.7465767 99.1231882,24.7465767 C98.2526341,24.7465767 97.5472474,25.1065767 97.5472474,26.0626503 C97.5472474,28.1998282 100.95253,27.1762699 100.95253,29.8871902 C100.95253,31.3833865 99.850453,31.9905031 98.6053275,31.9905031 C97.9439373,31.9905031 97.2496098,31.8332025 96.6326969,31.5293988 L96.6326969,30.8322209 C97.260669,31.1357791 97.977115,31.3382331 98.6163868,31.3382331 C99.4869408,31.3382331 100.192087,30.9446135 100.192087,29.9323436 C100.192087,27.7949202 96.7757456,28.7622822 96.7757456,26.085227 C96.7757456,24.6567607 97.8778223,24.1053497 99.1231882,24.1053497 C99.6410488,24.1053497 100.181028,24.2066994 100.67701,24.3755337 L100.67701,25.0503804 Z" id="Fill-15" fill="#004876"></path>
            <path d="M105.823641,24.7354847 C104.093352,24.7354847 102.914101,25.9727853 102.914101,28.0311902 C102.914101,29.9210061 103.784895,31.338184 105.878697,31.338184 C106.561725,31.338184 107.101704,31.2481227 107.773913,30.9894724 L107.773913,31.6419877 C107.179118,31.8557301 106.561725,31.990454 105.779404,31.990454 C103.200679,31.990454 102.153659,30.2922945 102.153659,28.0873865 C102.153659,25.3877546 103.729599,24.105546 105.680111,24.105546 C106.451613,24.105546 107.090885,24.229227 107.619805,24.4429693 L107.619805,25.117816 C107.057707,24.8817423 106.462672,24.7354847 105.823641,24.7354847" id="Fill-16" fill="#004876"></path>
            <polygon id="Fill-17" fill="#004876" points="114.111094 28.2448834 110.177132 28.2448834 110.177132 31.8443926 109.449627 31.8443926 109.449627 24.2291779 110.177132 24.2291779 110.177132 27.5813252 114.111094 27.5813252 114.111094 24.2291779 114.849418 24.2291779 114.849418 31.8443926 114.111094 31.8443926"></polygon>
            <path d="M122.652188,28.0423804 C122.652188,26.2313374 121.880927,24.7464294 120.018408,24.7464294 C118.14507,24.7464294 117.384627,26.2539141 117.384627,28.0423804 C117.384627,29.876 118.156129,31.3383313 120.018408,31.3383313 C121.880927,31.3383313 122.652188,29.8534233 122.652188,28.0423804 M116.624185,28.0762454 C116.624185,25.8490061 117.693084,24.1054479 120.029467,24.1054479 C122.36585,24.1054479 123.401571,25.8040982 123.401571,28.031092 C123.401571,30.2696196 122.321613,31.9906012 120.007348,31.9906012 C117.659906,31.9906012 116.624185,30.3481472 116.624185,28.0762454" id="Fill-18" fill="#004876"></path>
            <path d="M130.785293,28.0423804 C130.785293,26.2313374 130.013791,24.7464294 128.151512,24.7464294 C126.278174,24.7464294 125.517732,26.2539141 125.517732,28.0423804 C125.517732,29.876 126.289233,31.3383313 128.151512,31.3383313 C130.013791,31.3383313 130.785293,29.8534233 130.785293,28.0423804 M124.757289,28.0762454 C124.757289,25.8490061 125.826188,24.1054479 128.162571,24.1054479 C130.498955,24.1054479 131.534676,25.8040982 131.534676,28.031092 C131.534676,30.2696196 130.454718,31.9906012 128.140453,31.9906012 C125.79301,31.9906012 124.757289,30.3481472 124.757289,28.0762454" id="Fill-19" fill="#004876"></path>
            <polygon id="Fill-20" fill="#004876" points="133.529906 24.2291043 134.26823 24.2291043 134.26823 31.1807607 137.739627 31.1807607 137.739627 31.844319 133.529906 31.844319"></polygon>
            <path d="M40.8922369,6.34625767 C40.8922369,9.55803681 49.4472753,9.47779141 49.4472753,14.0147239 C49.4472753,17.2064049 46.7134808,19.0932761 43.8618815,19.0932761 C41.9541638,19.0932761 40.6563868,18.3906994 39.9286411,18.2100859 C39.4564599,18.0895951 38.9450906,18.0895951 38.6698118,18.0895951 C38.3945331,18.0895951 38.2570139,17.9691043 38.2570139,17.4272638 C38.2570139,17.0056687 38.3945331,16.2429693 38.3945331,15.6807607 C38.3748188,14.8979141 38.2962021,14.2152147 38.2962021,14.0346012 C38.2962021,13.7737423 38.4928641,13.6932515 38.6698118,13.6932515 C38.9648049,13.6932515 39.043662,14.0547239 39.1614669,14.3960736 C39.9483554,16.624319 41.7183136,17.9691043 43.9799268,17.9691043 C45.9662613,17.9691043 46.9103833,16.5639509 46.9103833,15.5401472 C46.9103833,11.5455215 38.0995401,12.0876074 38.0995401,7.71116564 C38.0995401,4.35877301 41.4430348,3.43558282 43.3505122,3.43558282 C45.25823,3.43558282 46.044878,3.87705521 46.5367735,3.87705521 C47.0281882,3.87705521 47.4215122,3.69644172 47.6970314,3.69644172 C47.9723101,3.69644172 48.1492578,3.91730061 48.1492578,4.4593865 C48.1492578,5.48294479 48.4050627,7.30969325 48.4050627,7.63092025 C48.4050627,7.89202454 48.2084007,7.97226994 48.0312125,7.97226994 C47.7362195,7.97226994 47.5789861,7.59092025 47.4215122,7.26969325 C46.5562474,5.56343558 45.4943206,4.6198773 43.2324669,4.6198773 C41.8558328,4.6198773 40.8922369,5.24196319 40.8922369,6.34625767" id="Fill-21" fill="#004876"></path>
            <path d="M55.358676,8.57595092 C55.358676,7.98699387 55.1062369,7.91337423 54.6374216,7.91337423 C53.7897073,7.91337423 52.6534913,8.61276074 51.9680592,9.93815951 C51.8420801,10.1774233 51.7697143,10.3798773 51.5353066,10.3798773 C51.4090871,10.3798773 51.2828676,10.2694479 51.2828676,10.0669939 C51.2828676,9.80932515 51.6617666,8.41030675 51.6617666,7.6002454 C51.6617666,7.17693252 51.8420801,6.95607362 52.2207387,6.95607362 C52.5813659,6.95607362 55.2685192,7.15852761 56.5307143,7.15852761 C57.7753589,7.15852761 60.4625122,6.95607362 60.8231394,6.95607362 C61.2198293,6.95607362 61.3821115,7.17693252 61.3821115,7.6002454 C61.3821115,8.41030675 61.76077,9.80932515 61.76077,10.0669939 C61.76077,10.2694479 61.6345505,10.3798773 61.508331,10.3798773 C61.2739233,10.3798773 61.2017979,10.1774233 61.0755784,9.93815951 C60.4081777,8.61276074 59.2719617,7.91337423 58.4064564,7.91337423 C57.9376411,7.91337423 57.6849617,7.98699387 57.6849617,8.57595092 L57.6849617,17.0065031 C57.6849617,17.6325153 57.9193693,18.1846626 58.5507073,18.3137423 C58.8933031,18.3689571 58.9834599,18.4425767 58.9834599,18.6266258 C58.9834599,18.773865 58.8572404,18.8842945 58.6228328,18.8842945 C58.2622056,18.8842945 57.0178014,18.7370552 56.5307143,18.7370552 C56.0258362,18.7370552 54.7816725,18.8842945 54.4027735,18.8842945 C54.1863972,18.8842945 54.0421463,18.773865 54.0421463,18.6266258 C54.0421463,18.4425767 54.1323031,18.3689571 54.4929303,18.3137423 C55.1062369,18.2030675 55.358676,17.6325153 55.358676,17.0065031 L55.358676,8.57595092 Z" id="Fill-22" fill="#004876"></path>
            <path d="M64.050993,16.8410307 C64.6282369,16.8410307 65.0970523,17.319411 65.0970523,17.908638 C65.0970523,18.497865 64.6282369,18.9762454 64.050993,18.9762454 C63.4735087,18.9762454 63.0049338,18.497865 63.0049338,17.908638 C63.0049338,17.319411 63.4735087,16.8410307 64.050993,16.8410307 Z" id="Fill-23" fill="#004876"></path>
            <path d="M75.7598362,16.9052515 C75.7598362,17.447092 76.2514913,17.7685644 76.7628606,17.7685644 C77.9231185,17.7685644 78.7491951,17.7685644 80.204446,17.3469693 C81.5616063,16.9656196 82.4463449,16.1224294 83.3904669,14.5364417 C83.6068432,14.1752147 83.7446028,14.0346012 83.9607387,14.0346012 C84.1379268,14.0346012 84.275446,14.1953374 84.275446,14.4561963 C84.275446,14.7774233 83.2921359,17.085865 83.2921359,18.1096687 C83.2921359,18.6517546 83.0757596,18.9327362 82.5841045,18.9327362 C82.0532613,18.9327362 80.5780557,18.6917546 74.1668258,18.6917546 C73.5374111,18.6917546 72.2788223,18.8927362 71.8068815,18.8927362 C71.5116481,18.8927362 71.3152265,18.8122454 71.3152265,18.5312638 C71.3152265,18.3104049 71.3741289,18.2502822 71.8854983,18.1499141 C72.6916202,17.9891779 73.0063275,17.2866012 73.0063275,16.4836564 L73.0063275,6.04515337 C73.0063275,5.24220859 72.6916202,4.5195092 71.8854983,4.3791411 C71.4330314,4.29865031 71.3152265,4.19828221 71.3152265,3.97742331 C71.3152265,3.77668712 71.4921742,3.63631902 71.7871672,3.63631902 C72.2588676,3.63631902 73.7537875,3.83705521 74.3829617,3.83705521 C75.0126167,3.83705521 76.4873415,3.63631902 76.9592822,3.63631902 C77.2545157,3.63631902 77.4314634,3.77668712 77.4314634,3.97742331 C77.4314634,4.19828221 77.3134181,4.29865031 76.8611916,4.3791411 C76.0548293,4.5396319 75.7598362,5.24220859 75.7598362,6.04515337 L75.7598362,16.9052515 Z" id="Fill-24" fill="#004876"></path>
            <path d="M91.7428328,19.0682945 C87.9915889,19.0682945 86.5671115,16.877865 86.5671115,14.7239264 L86.5671115,8.90699387 C86.5671115,8.28122699 86.3146725,7.71067485 85.7013659,7.6002454 C85.3407387,7.54478528 85.2505819,7.45276074 85.2505819,7.28711656 C85.2505819,7.12147239 85.3948328,7.02944785 85.6112091,7.02944785 C85.9898676,7.02944785 87.2342718,7.17668712 87.7393902,7.17668712 C88.2262369,7.17668712 89.4706411,7.02944785 89.8312683,7.02944785 C90.0654355,7.02944785 90.1918955,7.12147239 90.1918955,7.28711656 C90.1918955,7.45276074 90.1017387,7.54478528 89.7591429,7.6002454 C89.1278049,7.72883436 88.8933972,8.28122699 88.8933972,8.90699387 L88.8933972,13.8957055 C88.8933972,16.2518528 89.7949652,18.092589 92.1577944,18.092589 C94.628331,18.092589 95.6022648,16.491362 95.6022648,13.803681 C95.6022648,13.803681 95.5842334,10.4719018 95.4758049,9.10944785 C95.4219512,8.37325153 95.1873031,7.74748466 94.4299861,7.56343558 C94.0330557,7.47141104 93.9792021,7.39754601 93.9792021,7.26871166 C93.9792021,7.10306748 94.1232125,7.02944785 94.3398293,7.02944785 C94.8086446,7.02944785 95.6743902,7.15828221 96.0891115,7.15828221 C96.5040732,7.15828221 97.351547,7.02944785 97.8203624,7.02944785 C98.0369791,7.02944785 98.1809895,7.10306748 98.1809895,7.26871166 C98.1809895,7.39754601 98.1271359,7.47141104 97.7302056,7.56343558 C96.9728885,7.74748466 96.7382404,8.37325153 96.6843868,9.10944785 C96.5761986,10.4719018 96.59423,13.5092025 96.59423,13.9141104 C96.59423,16.8962699 95.2774599,19.0682945 91.7428328,19.0682945" id="Fill-25" fill="#004876"></path>
            <path d="M104.095997,13.3067485 C103.897652,13.3067485 103.518993,13.6564417 103.302376,13.8773006 L103.302376,17.0065767 C103.302376,17.632589 103.537024,18.1847362 104.168122,18.3135706 C104.510718,18.3687853 104.601115,18.4424049 104.601115,18.626454 C104.601115,18.7736933 104.474655,18.8843681 104.240247,18.8843681 C103.87962,18.8843681 102.454902,18.7368834 101.967815,18.7368834 C101.462937,18.7368834 100.398847,18.8843681 100.020188,18.8843681 C99.8035714,18.8843681 99.659561,18.7736933 99.659561,18.626454 C99.659561,18.4424049 99.7497178,18.3687853 100.110345,18.3135706 C100.723652,18.2031411 100.97585,17.632589 100.97585,17.0065767 L100.97585,8.87042945 C100.97585,8.24466258 100.723652,7.67386503 100.110345,7.56343558 C99.7497178,7.50822086 99.659561,7.43460123 99.659561,7.25055215 C99.659561,7.10331288 99.8035714,6.99288344 100.020188,6.99288344 C100.398847,6.99288344 101.462937,7.15852761 101.967815,7.15852761 C102.454902,7.15852761 103.87962,6.99288344 104.240247,6.99288344 C104.474655,6.99288344 104.601115,7.10331288 104.601115,7.25055215 C104.601115,7.43460123 104.510718,7.50822086 104.168122,7.56343558 C103.537024,7.69226994 103.302376,8.24466258 103.302376,8.87042945 L103.302376,12.809816 C104.510718,11.8709202 106.65669,9.51460123 107.071652,8.96245399 C107.504404,8.37325153 107.702749,8.04196319 107.702749,7.8395092 C107.702749,7.63705521 107.558498,7.56343558 107.161808,7.50822086 C106.981495,7.48981595 106.909369,7.3793865 106.909369,7.25055215 C106.909369,7.12171779 106.999526,7.02969325 107.197871,7.02969325 C107.504404,7.02969325 108.496369,7.06650307 109.019519,7.06650307 C110.22762,7.06650307 110.588247,6.99288344 111.039272,6.99288344 C111.273439,6.99288344 111.41793,7.04809816 111.41793,7.26895706 C111.41793,7.45300613 111.381868,7.56343558 110.984937,7.63705521 C110.35384,7.76588957 109.95715,7.87631902 109.091404,8.63116564 C108.24393,9.38576687 106.025592,11.4660123 106.025592,11.6500613 C106.025592,11.8525153 109.632345,16.7305031 109.902815,17.0617914 C110.534153,17.7982331 111.002969,18.1847362 111.634066,18.3135706 C112.030997,18.3871902 112.085091,18.4242454 112.085091,18.6082945 C112.085091,18.828908 111.922808,18.8843681 111.706432,18.8843681 C111.237617,18.8843681 110.714467,18.8107485 109.488334,18.8107485 C108.983216,18.8107485 107.251965,18.8475583 106.945432,18.8475583 C106.746847,18.8475583 106.65669,18.7555337 106.65669,18.626454 C106.65669,18.4976196 106.728815,18.3871902 106.92716,18.3687853 C107.306059,18.3135706 107.45031,18.2399509 107.45031,18.0374969 C107.45031,17.8350429 107.251965,17.5037546 106.837003,16.9145521 C106.837003,16.9145521 104.384498,13.3067485 104.095997,13.3067485" id="Fill-26" fill="#004876"></path>
            <path d="M117.152624,13.8773006 L117.152624,17.2090798 C117.152624,17.632638 117.531282,17.8903067 117.928213,17.8903067 C118.090254,17.8903067 120.128279,17.9823313 121.192369,17.7062577 C122.238188,17.4483436 123.013777,16.7305521 123.753303,15.4971779 C123.915585,15.2211043 124.023774,15.1106748 124.186056,15.1106748 C124.330307,15.1106748 124.438495,15.2211043 124.438495,15.4235583 C124.438495,15.681227 123.680937,17.4853988 123.680937,18.2768098 C123.680937,18.7001227 123.500624,18.9209816 123.121965,18.9209816 C122.707244,18.9209816 120.723554,18.7369325 115.727906,18.7369325 C115.241059,18.7369325 114.267125,18.8841718 113.888467,18.8841718 C113.654059,18.8841718 113.509808,18.8289571 113.509808,18.6080982 C113.509808,18.442454 113.563902,18.3872393 113.960592,18.3136196 C114.573659,18.1847853 114.826098,17.632638 114.826098,17.0066258 L114.826098,8.87042945 C114.826098,8.24441718 114.573659,7.71067485 113.960592,7.58184049 C113.563902,7.50822086 113.509808,7.45300613 113.509808,7.28736196 C113.509808,7.06650307 113.654059,6.99263804 113.888467,6.99263804 C114.122875,6.99263804 115.204756,7.08466258 116.755934,7.08466258 C121.751341,7.08466258 122.13,6.97447853 122.544962,6.97447853 C122.92362,6.97447853 123.103934,7.19533742 123.103934,7.6002454 C123.103934,8.41030675 123.482592,9.80907975 123.482592,10.0669939 C123.482592,10.2694479 123.356613,10.3798773 123.212122,10.3798773 C122.995746,10.3798773 122.905589,10.1958282 122.797401,9.93791411 C122.112209,8.61251534 121.426777,7.8395092 118.739864,7.8395092 C117.350969,7.8395092 117.152624,8.15239264 117.152624,8.63116564 L117.152624,11.8341104 C117.152624,12.2574233 117.260812,12.3494479 117.657742,12.3494479 C118.577341,12.3494479 119.87584,12.515092 120.795439,11.9813497 C121.480871,11.5764417 121.625362,10.9688344 121.85953,10.9688344 C122.004021,10.9688344 122.112209,11.0608589 122.112209,11.244908 C122.112209,11.4105521 121.931655,11.8341104 121.931655,12.6071166 C121.931655,13.398773 122.166303,14.1349693 122.166303,14.3928834 C122.166303,14.5953374 122.057875,14.7055215 121.931655,14.7055215 C121.679216,14.7055215 121.46284,13.9877301 120.957962,13.6564417 C120.453084,13.3067485 120.092456,13.3803681 119.47915,13.3803681 C117.350969,13.3803681 117.152624,13.398773 117.152624,13.8773006" id="Fill-27" fill="#004876"></path>
            <path d="M127.738233,6.05398773 C127.738233,7.32417178 126.36785,8.57570552 125.97092,8.57570552 C125.754544,8.57570552 125.628324,8.44687117 125.628324,8.24441718 C125.628324,8.00515337 126.24139,7.82110429 126.24139,7.12171779 C126.24139,6.66134969 125.772575,6.4404908 125.772575,5.92515337 C125.772575,5.40981595 126.151233,4.93104294 126.800603,4.93104294 C127.449732,4.93104294 127.738233,5.35435583 127.738233,6.05398773" id="Fill-28" fill="#004876"></path>
            <path d="M131.237038,9.12809816 C131.237038,11.6316564 137.891571,11.5764417 137.891571,15.1106748 C137.891571,17.5955828 135.76339,19.0682209 133.545533,19.0682209 C132.066481,19.0682209 131.038693,18.5160736 130.479481,18.3872393 C130.118854,18.2952147 129.721923,18.2952147 129.505787,18.2952147 C129.289171,18.2952147 129.180983,18.1847853 129.180983,17.7614724 C129.180983,17.4483436 129.289171,16.8409816 129.289171,16.4176687 C129.271139,15.7916564 129.199014,15.2579141 129.199014,15.1290798 C129.199014,14.9266258 129.361296,14.8530061 129.505787,14.8530061 C129.721923,14.8530061 129.794049,15.1474847 129.884446,15.4051534 C130.497512,17.1354601 131.868136,18.1847853 133.63569,18.1847853 C135.186387,18.1847853 135.88985,17.0986503 135.88985,16.3072393 C135.88985,13.4907975 129.054763,13.601227 129.054763,10.1958282 C129.054763,7.58184049 131.65176,6.86380368 133.148603,6.86380368 C134.627415,6.86380368 135.240481,7.21374233 135.637411,7.21374233 C136.01607,7.21374233 136.322603,7.06650307 136.538979,7.06650307 C136.755355,7.06650307 136.881815,7.23214724 136.881815,7.65546012 C136.881815,8.46527607 137.08016,9.88294479 137.08016,10.1403681 C137.08016,10.3430675 136.935669,10.3982822 136.791659,10.3982822 C136.55701,10.3982822 136.448822,10.1038037 136.322603,9.84588957 C135.637411,8.5204908 134.82576,7.78429448 133.058446,7.78429448 C131.976324,7.78429448 131.237038,8.28122699 131.237038,9.12809816" id="Fill-29" fill="#004876"></path>
        </g>
    </g>
</svg>