<?xml version="1.0" encoding="UTF-8"?>
<svg width="160px" height="90px" viewBox="0 0 160 90" version="1.1" xmlns="http://www.w3.org/2000/svg" xmlns:xlink="http://www.w3.org/1999/xlink">
    <!-- Generator: Sketch 49.3 (51167) - http://www.bohemiancoding.com/sketch -->
    <title>The Slow Pokes logo designed by Isral Duke</title>
    <desc>Created with Sketch.</desc>
    <defs>
        <path d="M19.3589487,0.177827485 C14.1775128,7.56935088 7.73589744,14.6382164 0.136589744,21.1429211 C-0.0507948718,21.3029123 -0.00933333333,21.6045234 0.210717949,21.6772953 C2.54889744,22.4554912 5.18664103,23.2012251 5.84733333,23.3854737 C5.94515385,23.4131199 6.04889744,23.3890409 6.12984615,23.3178743 C8.21584615,21.4789561 11.8971282,17.7668743 12.5483077,17.1185263 C12.6109487,17.0555643 12.6918974,17.0238158 12.7778718,17.0284532 C13.7777949,17.1031871 20.2411282,17.220193 23.4449744,16.6037719 C25.2195641,14.4546813 26.8826923,12.2717018 28.4189231,10.0685673 C28.4982564,9.95459357 28.4813846,9.80459064 28.3790769,9.71326901 C27.286,8.79648538 22.0367179,3.84710234 19.8290256,0.196377193 C19.7724872,0.105590643 19.6787949,0.059751462 19.585641,0.059751462 C19.4996667,0.059751462 19.4142308,0.0988128655 19.3589487,0.177827485 Z M21.0473846,12.4693275 C20.006359,12.4618363 18.9717949,12.3045205 17.9865897,12.0013041 C17.7956154,11.9422661 17.7299231,11.7070058 17.8564615,11.5475497 C18.7221282,10.4540088 19.5728974,9.36242982 20.4048205,8.27049415 C20.4952821,8.1520614 20.6611282,8.11763743 20.7889231,8.19219298 C21.532359,8.62614912 22.2542564,9.09381579 22.9490513,9.59644152 C23.0703846,9.68437427 23.1012564,9.85221345 23.0201282,9.97938596 C22.4962051,10.7982485 21.9168205,11.5898216 21.2932821,12.3532135 C21.2340513,12.4256287 21.1435897,12.4693275 21.0498974,12.4693275 C21.049,12.4693275 21.0482821,12.4693275 21.0473846,12.4693275 Z M30.8218974,11.9535029 C27.1442051,16.9867164 24.2011538,22.8229181 22.2585641,29.0031991 C22.2092051,29.1599798 22.2989487,29.3103395 22.4612051,29.3392342 C23.8147179,29.5901904 29.3845641,30.4739769 35.3069231,30.5199944 C35.4569744,30.5217781 35.6041538,30.4254623 35.6520769,30.293474 C36.0090769,29.3049886 36.2641282,28.301164 36.4927949,27.3080412 C36.5231282,27.1771231 36.4443333,27.058512 36.3066667,27.0251582 C34.2942564,26.5434009 32.2929744,26.0241874 30.3031795,25.4680529 C30.1746667,25.432202 30.0987436,25.3205471 30.1188462,25.1935529 C30.3360256,23.8519096 31.5165128,16.6453304 32.9389487,13.1301608 C32.9881282,13.0085175 32.9389487,12.8786696 32.8222821,12.8141023 C32.2676667,12.5073187 31.7374615,12.1934006 31.2341795,11.8734181 C31.1851795,11.842383 31.129359,11.8274006 31.0735385,11.8274006 C30.9773333,11.8274006 30.8814872,11.8718129 30.8218974,11.9535029 Z M36.1153333,14.7464825 C34.495641,17.5423158 33.1340513,20.5240029 32.0795641,23.6055731 C32.0289487,23.7543453 32.1176154,23.9011377 32.277359,23.9327079 C33.5124103,24.1756377 34.7508718,24.4062605 35.9927436,24.6240412 C36.154641,24.6524009 36.3260513,24.5559067 36.3741538,24.4075091 C36.5832564,23.768436 36.9302051,22.7772573 37.0985641,22.3020994 C37.155641,22.1403246 37.2936667,22.0092281 37.3843077,21.9896082 C37.7858205,21.9039942 38.6748205,21.7038713 39.2039487,21.5750936 C39.3990513,21.5278275 39.5745897,21.6500058 39.5575385,21.8240877 C39.4354872,23.117038 39.0007692,27.723626 39.1748718,30.2449594 C39.1840256,30.373202 39.3015897,30.460243 39.4518205,30.4538219 C41.1564103,30.3805149 42.8927692,30.2454944 44.6007692,30.0385939 C44.8244103,30.0116611 44.9798462,29.7986962 44.8935128,29.6383482 C43.5338974,27.1426991 42.0608462,22.3090556 41.7506923,21.1573684 C41.7137179,21.0216345 41.8102821,20.8764474 41.9702051,20.8268626 C42.9094615,20.5373801 45.9618205,19.5685146 47.9763846,18.8466813 C48.2459744,18.7501871 48.2588974,18.4328801 47.9964872,18.3684912 C46.9188462,18.1038012 45.7681538,17.8014766 44.5822821,17.4606257 C44.5162308,17.4417193 44.4444359,17.4438596 44.3760513,17.468117 C42.9254359,17.9851901 40.1229231,18.6938246 38.9377692,18.9692164 C38.7022821,19.0243304 38.5172308,18.8304503 38.612359,18.6294357 C38.9074359,18.0080205 39.4345897,16.9069883 39.7978718,16.2003158 C39.8669744,16.065652 39.8039744,15.9179678 39.6576923,15.8644591 C38.5940513,15.4761637 37.5397436,15.0593304 36.5173846,14.6164561 C36.4778974,14.5995117 36.4358974,14.5914854 36.3940769,14.591307 C36.2824359,14.591307 36.1720513,14.6487398 36.1153333,14.7464825 Z M13.4274359,18.7578567 C13.3551026,18.7626725 13.2847436,18.7929942 13.23,18.8429357 C11.4038974,20.504383 9.71923077,22.3597105 8.20094872,24.3830734 C8.36266667,24.4656553 8.5245641,24.5509126 8.68771795,24.6409857 C11.7307436,26.3300792 15.5423333,27.7605471 19.9460513,28.8021845 C20.0790513,28.8337547 20.2319744,28.7725763 20.3104103,28.6534301 C22.1964615,25.7944564 23.324,22.639383 23.6000513,19.4754094 C23.6129744,19.3323626 23.5097692,19.2075088 23.3633077,19.1852135 C21.0752051,18.8381199 18.7591026,18.6561901 16.429359,18.6561901 C15.4308718,18.6561901 14.4296923,18.6895439 13.4274359,18.7578567 Z M17.5005385,24.6479418 C16.8705385,24.508819 16.2518462,24.3350939 15.6491282,24.1237342 C15.4992564,24.0712956 15.4278205,23.904705 15.4904615,23.7530968 C15.6572051,23.3485526 15.8465641,22.9527661 16.0608718,22.5692865 C16.1208205,22.4619123 16.240359,22.394848 16.3615128,22.3991287 C17.0101795,22.4223158 17.6557949,22.4660146 18.298359,22.5305819 C18.4880769,22.5494883 18.5975641,22.7383743 18.5225385,22.9153099 C18.3062564,23.425962 18.0892564,23.9378804 17.8715385,24.4510295 C17.8194872,24.5739213 17.6938462,24.654898 17.5649744,24.654898 C17.5434359,24.654898 17.5218974,24.6525792 17.5005385,24.6479418 Z M47.9905641,20.0204854 C45.9323846,20.8646754 43.9975128,23.3225117 48.1657436,23.9328863 C48.1619744,23.9505442 53.0592821,24.2523336 52.940641,25.3025325 C52.8078205,26.3907225 51.0987436,26.2590909 49.4261026,26.1274594 C47.4048974,25.9681816 45.436641,25.8090822 46.3653077,27.8019272 C46.7801026,28.705512 47.2112308,29.730205 47.9736923,29.5074301 C51.0547692,28.6291728 60.444641,25.2843395 58.8310513,22.8043684 C58.0237179,21.5774123 50.2851282,22.505076 50.812641,20.989886 C51.0693077,20.2612749 52.8209231,20.2791111 54.2928974,20.2717982 C55.0214359,20.2687661 55.4389231,20.0582982 55.0435128,19.947 C55.0408205,19.9521725 54.6254872,19.8141199 53.9522308,19.6760673 C53.291359,19.5406901 52.3817179,19.4051345 51.3701282,19.4051345 C50.3000256,19.4051345 49.1157692,19.5567427 47.9905641,20.0204854 Z" id="path-1"></path>
        <linearGradient x1="8.09322597%" y1="29.2380887%" x2="96.5660635%" y2="94.5559275%" id="linearGradient-3">
            <stop stop-color="#ABDD53" offset="0%"></stop>
            <stop stop-color="#3DAC00" offset="100%"></stop>
        </linearGradient>
        <path d="M18.7041795,0.131453216 L13.6157179,0.151073099 C13.5078462,0.151608187 13.4207949,0.238827485 13.4213333,0.345845029 L13.4514872,8.10140643 C13.4520256,8.20860234 13.5397949,8.29510819 13.6474872,8.2945731 L18.7359487,8.27495322 C18.843641,8.27459649 18.9306923,8.18737719 18.9303333,8.08035965 L18.9240513,6.43211111 C18.9235128,6.32509357 18.8357436,6.23858772 18.7280513,6.23912281 L16.1915385,6.24893275 C16.0836667,6.24928947 15.9958974,6.16278363 15.9955385,6.05558772 L15.9926667,5.32679825 C15.9923077,5.21960234 16.079359,5.13238304 16.1872308,5.13202632 L18.3137949,5.12382164 C18.4218462,5.12346491 18.5087179,5.03624561 18.508359,4.92922807 L18.5018974,3.28097953 C18.501359,3.17396199 18.4137692,3.08745614 18.3058974,3.08799123 L16.1791538,3.09619591 C16.0714615,3.09637427 15.9836923,3.01004678 15.9833333,2.90285088 L15.9811795,2.38345906 C15.9808205,2.27626316 16.0678718,2.18922222 16.1755641,2.18868713 L18.3645897,2.18030409 C18.4448205,2.17994737 18.5167949,2.13089766 18.5458718,2.05652047 L18.8899487,1.17701462 C18.8985641,1.15436257 18.9032308,1.13028363 18.9032308,1.10602632 L18.9,0.324619883 C18.899641,0.217780702 18.8124103,0.131453216 18.7050769,0.131453216 C18.7047179,0.131453216 18.704359,0.131453216 18.7041795,0.131453216 Z M12.2866154,0.156245614 L10.1252308,0.164628655 C10.017359,0.165163743 9.93030769,0.252204678 9.93084615,0.359400585 L9.94089744,2.92621637 C9.94107692,3.03341228 9.85420513,3.12045322 9.74633333,3.1209883 L9.10628205,3.12348538 C8.99858974,3.12384211 8.91082051,3.03733626 8.91046154,2.93031871 L8.90041026,0.363324561 C8.89987179,0.256307018 8.81210256,0.16980117 8.70441026,0.170157895 L6.54284615,0.178540936 C6.43497436,0.178897661 6.34810256,0.266116959 6.34846154,0.373134503 L6.37879487,8.12887427 C6.37933333,8.23589181 6.46692308,8.32239766 6.57461538,8.32186257 L8.73617949,8.31347953 C8.84423077,8.31330117 8.93110256,8.22608187 8.93074359,8.11888596 L8.91997436,5.35408772 C8.9194359,5.24689181 9.00648718,5.15967251 9.11417949,5.15931579 L9.75441026,5.15681871 C9.86210256,5.15646199 9.94987179,5.24296784 9.95023077,5.34998538 L9.961,8.11496199 C9.96153846,8.22197953 10.0493077,8.30866374 10.157,8.30812865 L12.3187436,8.29974561 C12.4264359,8.29938889 12.5134872,8.21216959 12.5129487,8.10497368 L12.4826154,0.349590643 C12.4822564,0.242573099 12.3950256,0.156245614 12.2873333,0.156245614 C12.2871538,0.156245614 12.2869744,0.156245614 12.2866154,0.156245614 Z M5.56517949,0.18228655 L0.219333333,0.202976608 C0.111461538,0.203333333 0.0242307692,0.290374269 0.0247692308,0.397748538 L0.0312307692,2.05705556 C0.0317692308,2.16425146 0.119538462,2.25075731 0.227230769,2.25022222 L1.37038462,2.24576316 C1.47825641,2.24540643 1.56602564,2.33209064 1.56638462,2.43910819 L1.58864103,8.14724561 C1.58917949,8.25426316 1.67676923,8.34076901 1.78464103,8.34059064 L3.95823077,8.33202924 C4.06610256,8.33167251 4.15315385,8.24445322 4.15261538,8.13725731 L4.13035897,2.42911988 C4.13,2.32210234 4.21687179,2.23488304 4.32474359,2.23434795 L5.22576923,2.23095906 C5.306,2.2307807 5.37779487,2.18155263 5.40687179,2.1073538 L5.75094872,1.22766959 C5.75974359,1.20519591 5.76423077,1.18111696 5.76423077,1.15685965 L5.76117949,0.375453216 C5.76064103,0.268435673 5.67341026,0.18228655 5.56589744,0.18228655 C5.56571795,0.18228655 5.56535897,0.18228655 5.56517949,0.18228655 Z" id="path-4"></path>
        <linearGradient x1="6.49420638%" y1="-20.432373%" x2="95.914588%" y2="111.98696%" id="linearGradient-6">
            <stop stop-color="#ABDD53" offset="0%"></stop>
            <stop stop-color="#3DAC00" offset="100%"></stop>
        </linearGradient>
    </defs>
    <g id="The-Slow-Pokes-logo-designed-by-Isral-Duke" stroke="none" stroke-width="1" fill="none" fill-rule="evenodd">
        <g id="Page-1" transform="translate(38.000000, 14.000000)">
            <path d="M15.4236564,11.0417135 C15.1224769,11.0417135 14.8295538,10.9557427 14.5764769,10.7928977 C14.1318872,10.5068041 13.8651692,10.0218363 13.8637333,9.4954883 L13.8459641,4.95134503 C13.5480154,4.94652924 13.2649641,4.8609152 13.0196051,4.70288596 C12.5750154,4.41714912 12.3082974,3.93235965 12.3061436,3.40619006 L12.2998615,1.69355263 C12.2977077,1.28010819 12.4581692,0.889850877 12.7518103,0.595552632 C13.0454513,0.301076023 13.4369128,0.137874269 13.8544,0.135912281 L32.3398205,0.117719298 C32.6478205,0.117719298 32.9409231,0.203868421 33.194,0.366356725 C33.6384103,0.65227193 33.9051282,1.13688304 33.9071026,1.66305263 L33.9101538,2.44463743 C33.9114103,2.63762573 33.8758718,2.82865205 33.8047949,3.01147368 L33.46,3.89222807 C33.4402564,3.94270468 33.418,3.99193275 33.3935897,4.03973392 C33.4684359,4.22255556 33.5082821,4.41982456 33.509,4.61994737 L33.5154615,6.26748246 C33.516,6.4035731 33.4984103,6.53859357 33.4635897,6.66915497 C33.7586667,6.95578363 33.929359,7.34996491 33.9311538,7.77054386 L33.9376154,9.4187924 C33.9406667,10.2740409 33.243359,10.9726871 32.3828974,10.9764327 L27.2937179,10.9958743 C27.0598462,10.9958743 26.8347692,10.9464678 26.6292564,10.8514006 C26.4237436,10.9486082 26.1974103,11.000155 25.9646154,11.0012251 L23.8034103,11.0094298 C23.5512308,11.0094298 23.3094615,10.9519971 23.0912051,10.8419474 C22.8742051,10.9530673 22.6315385,11.0138889 22.3843846,11.0149591 L15.4236564,11.0417135 Z" id="Fill-1" fill="#000000"></path>
            <path d="M39.9044872,58.8652497 C35.973359,57.8484047 32.5672308,56.5215655 29.7718974,54.9822965 C29.6342308,54.906314 29.4974615,54.8360392 29.3610513,54.7670129 C28.8877436,54.528007 28.4153333,54.2866825 27.944,54.0428608 C27.7783333,54.0294836 27.6137436,54.0007673 27.4518462,53.956355 C27.2772051,53.9087322 27.1027436,53.8607526 26.9282821,53.8125947 C25.8811538,53.5266795 23.7084615,52.9107936 21.7586923,52.2793901 C21.7403846,52.2736825 21.7218974,52.2676181 21.7034103,52.2617322 C21.6807949,52.2533491 21.658,52.2447877 21.6353846,52.2364047 C21.2482308,52.0892556 20.9100769,51.849893 20.6413846,51.5442865 C20.1700513,51.6263333 19.6854359,51.5844181 19.2349231,51.4062339 C19.2300769,51.4042719 19.2254103,51.4024883 19.2207436,51.4005263 C17.8942256,50.9080673 11.7993795,48.0858363 9.5676359,46.6105994 C9.10545641,46.315231 8.74073846,45.8670058 8.51727692,45.3342368 C8.18791795,45.3224649 7.85927692,45.2439854 7.54768718,45.0930906 C7.3752,45.0099737 7.21150769,44.9054532 7.05930256,44.7829181 C5.72822564,43.775348 0.965892307,37.9771374 0.436764102,36.9560117 C-0.0884153857,36.0188947 -0.14226154,34.7955058 0.287610255,33.7756287 C1.21161026,31.5805205 2.12555897,29.4016433 3.02927692,27.2393538 C3.64545641,25.7694678 5.87791795,24.1124795 5.68496923,23.305924 C5.47227692,22.4053713 5.60061026,21.4495263 6.02994359,20.6927339 C7.62307179,17.8879825 11.5814821,11.7726433 12.5469436,10.3997865 C13.269559,9.33977778 13.8580974,8.62347368 24.7320769,9.32604386 C25.0890769,9.34709064 25.4493077,9.45624854 25.7811795,9.6408538 C26.0663846,9.37705556 26.4086667,9.19387719 26.7861282,9.11022515 C28.3652564,8.7620614 29.8465641,8.11852924 30.8086154,7.64533333 C31.3524615,7.37743275 31.9706154,7.35674269 32.5605897,7.57006433 C33.1821538,6.37699708 34.5277692,6.02098538 35.7337436,6.71231871 C35.7506154,6.72177193 35.7673077,6.73140351 35.7841795,6.74103509 C36.3978462,7.13022222 37.0127692,7.51495029 37.6293077,7.89557602 C38.3258974,8.32525146 38.8421026,9.04173392 39.0422308,9.86398538 C39.2710769,10.9065146 41.468359,19.701038 42.2148462,22.0595263 C42.4975385,22.9941462 42.2828718,23.9854854 41.6498205,24.6655819 C40.2727949,26.1447427 41.8307436,25.483731 42.9697692,25.9628129 C43.505,26.1879064 43.9522821,26.5685322 44.2636923,27.0634883 C45.6172051,29.2157895 48.5744359,32.633038 52.5014359,36.122345 C52.9722308,36.5411404 53.2513333,37.0849678 53.3242051,37.655193 C53.6808462,37.624693 54.0461026,37.659117 54.3980769,37.7639942 C54.6472051,37.838193 54.8825128,37.9452105 55.0968205,38.0820146 C55.5607949,38.3770263 56.0619231,38.6748918 56.5845897,38.9658012 C57.2684359,39.3462485 57.7047692,39.9767602 57.8198205,40.6714825 C58.401359,40.4433567 59.0577436,40.3921667 59.6884615,40.5537632 C59.8370769,40.5919327 59.9828205,40.6418743 60.1212051,40.7025175 C61.0626154,41.114 62.0880256,41.5278012 63.1712308,41.9282251 C64.1345385,42.2858421 64.714641,43.0920409 64.7412051,43.9745789 C65.2477179,43.8320673 65.7045128,43.694193 66.0545128,43.5736199 C66.6051795,43.3838421 67.186,43.3440673 67.7377436,43.4544737 C67.7759744,43.4621433 67.8143846,43.4698129 67.8526154,43.4774825 C67.8987436,43.4905029 67.9450513,43.5037018 67.991359,43.5169006 C69.0499744,43.8267164 70.1489744,44.1267222 71.3526154,44.4297602 C72.0154615,44.596886 72.5384872,44.9701988 72.8412821,45.4567719 C73.927,45.3679474 75.0671026,45.4116462 76.2391538,45.5818041 C77.4996923,45.7649825 78.4080769,46.038769 78.6302821,46.1086871 C80.9293333,46.8387251 82.8957949,48.7113538 83.5751538,49.7488889 C84.1579487,50.6458743 84.1430513,51.7119474 83.5178974,52.7764865 C82.8898718,53.8183023 80.4213846,56.7124135 70.8604615,59.6355977 C70.350359,59.7888111 69.8429487,59.8407146 69.3531282,59.7877409 C69.3527692,59.7879193 69.3525897,59.7879193 69.3527692,59.7877409 C69.1025641,59.7606298 68.8751538,59.7101532 68.6673077,59.6400567 C68.1773077,59.991431 67.5887692,60.2300801 66.9740256,60.3101649 C65.2990513,60.5290158 63.4950256,60.6945363 61.6141795,60.7926357 C61.4092051,60.8036942 61.2020769,60.7945977 61.0026667,60.7657029 C60.4211282,60.6813374 59.934359,60.4359105 59.5918974,60.0772234 C58.9791282,60.5850216 58.1691026,60.9010801 57.3384359,60.8996532 C50.8514103,60.9087497 44.8105897,59.9207994 44.1475641,59.7987994 C44.1224359,59.7945187 44.0971282,59.790238 44.072,59.7859573 C44.0414872,59.7790012 44.0109744,59.772045 43.9802821,59.7650889 C43.5662051,59.6680596 43.2084872,59.4816708 42.9214872,59.2310713 C42.4611026,59.3487906 41.9797179,59.3641298 41.5180769,59.2587175 C40.9708205,59.1329719 40.4325385,59.0018754 39.9044872,58.8652497" id="Fill-2" fill="#000000"></path>
            <path d="M35.9918462,19.6329035 C35.5203333,18.6877602 35.0875897,17.7174678 34.6928974,16.7273772 C34.5952564,16.482307 34.286359,16.4539474 34.187641,16.6833216 C33.3110256,18.7216491 32.4213077,20.7817368 31.5181282,22.8635848 C31.4671538,22.9818392 31.493,23.1275614 31.5852564,23.2206667 C31.7868205,23.4247135 31.9953846,23.6196637 32.2111282,23.8051608 C32.3225897,23.9011199 32.4819744,23.8961257 32.5821282,23.7965994 C33.8022821,22.5855175 34.9348462,21.3023772 35.9683333,19.9566316 C36.0368974,19.8676287 36.0456923,19.7402778 35.9918462,19.6329035 M39.9179487,22.9449181 C37.898359,25.1056023 35.1279744,26.8524854 32.4480513,28.448652 C32.374641,28.4923509 32.2847179,28.4984152 32.2043077,28.466845 C29.9923077,27.5900146 28.3830256,26.5223363 26.7089487,24.9331257 C26.6019744,24.8311023 26.5727179,24.6613012 26.6441538,24.5327018 C29.413641,19.5463977 33.8107179,10.5472924 34.5475128,9.01783333 C34.6135641,8.88138596 34.7698974,8.8421462 34.9032564,8.92526316 C35.4991538,9.29750585 36.0961282,9.6656462 36.6947179,10.0296842 C36.7695641,10.0751667 36.8250256,10.1513275 36.8454872,10.2403304 C37.1138205,11.4844094 39.2344615,20.235769 39.9798718,22.6613216 C40.0103846,22.7635234 39.9868718,22.871076 39.9179487,22.9449181 M19.6262051,23.3335702 C21.5221282,19.6778509 23.3467949,16.0283743 25.0788462,12.4374006 C25.1777436,12.2322836 25.0355897,11.9631345 24.8236154,11.9527895 C22.7948718,11.8778772 14.9452692,11.4321491 14.3470385,12.2634971 C13.4334487,13.5642953 9.53624359,19.5958041 7.99337179,22.318152 C7.94724359,22.3996637 7.93539744,22.5002602 7.95873077,22.596576 C8.56719231,25.1171959 9.45242308,27.5138538 10.6068846,29.7077135 C10.6628846,29.8141959 10.6628846,29.947076 10.6058077,30.0521316 C9.91065385,31.331348 9.21011538,32.6185906 8.50455128,33.914038 C8.38626923,34.1309269 8.11039744,34.1259327 8.00467949,33.9020877 C7.50462821,32.8508187 6.34675641,30.3159298 5.69432051,28.5271316 C5.59703846,28.2619064 5.28203846,28.2528099 5.17398718,28.5117924 C4.27888462,30.6624883 3.37373077,32.8294152 2.45834615,35.0129298 C2.4129359,35.1222661 2.41742308,35.2481901 2.47432051,35.3484298 C2.78752564,35.973769 7.37773077,41.6184094 8.55355128,42.5093304 C8.68475641,42.6158129 8.8739359,42.5822807 8.97121795,42.4297807 C10.5490897,39.9610643 15.466141,31.1731404 16.9802949,28.3494825 C17.048859,28.2214181 17.0303718,28.0591082 16.9345256,27.9519123 C15.3363718,26.1825556 13.0974487,22.4290936 12.5537821,21.4637953 C12.4792949,21.3344825 12.4893462,21.1655731 12.5771154,21.0555234 C13.9623974,19.3252281 15.3322436,17.6172281 16.6862949,15.9318801 C16.7760385,15.8205819 16.9246538,15.8045292 17.0393462,15.8940673 C17.5892949,16.321424 18.1407692,16.7448567 18.6935897,17.1645439 C18.8389744,17.2749503 18.8732564,17.503076 18.7664615,17.6484415 C18.0411538,18.633538 17.3109103,19.6259474 16.5759103,20.6256696 C16.4793462,20.7564094 16.4922692,20.9588509 16.6062436,21.0801374 C17.4238077,21.9509035 18.3006923,22.7356988 19.2266667,23.4313129 C19.3630769,23.5340497 19.5456154,23.4885673 19.6262051,23.3335702 M20.5500256,48.8663509 C22.4734103,47.173155 24.1333077,45.2655673 25.5017179,43.179617 C25.6122821,43.0110643 25.5453333,42.7818684 25.3671026,42.7148041 C23.7694872,42.1447573 18.4852051,39.8602895 17.4453462,38.2906988 C17.4006538,38.2257749 17.3897051,37.9987193 17.4948846,37.8139357 C18.9470256,35.2897485 28.4045641,18.9849123 32.276641,10.4365292 C32.3931282,10.1828977 32.1323333,9.88217836 31.8991795,9.99900585 C30.7240769,10.5865322 29.1318462,11.2701959 27.4236667,11.6647339 C27.3477436,11.6823918 27.2858205,11.7342953 27.2533333,11.8125965 C24.9551795,17.4324444 13.8697821,38.6509912 10.790141,43.759117 C10.6948333,43.918038 10.7346795,44.1240468 10.8780897,44.2164386 C13.016141,45.6438743 19.0044615,48.4575439 20.2414872,48.9246754 C20.3430769,48.9665906 20.4618974,48.9439386 20.5500256,48.8663509 M28.5951795,40.9466959 C27.7076154,40.7635175 26.8213077,40.5748099 25.9360769,40.3811082 C25.7662821,40.3440088 25.6451282,40.1941842 25.655,40.0318743 C25.6858718,39.5511871 25.7449231,38.5587778 25.7576667,37.8405117 C25.7630513,37.5426462 25.3744615,37.370348 25.1745128,37.5833129 C24.6775128,38.1119795 23.9622564,38.8655614 23.6398974,39.2053421 C23.5408205,39.3093275 23.3760513,39.328769 23.2392821,39.2522515 C22.3362821,38.745345 21.4363333,38.2296988 20.5394359,37.7049561 C20.3813077,37.612386 20.3147179,37.4186842 20.3895641,37.267076 C22.0338462,33.9234912 23.6447436,30.6332368 25.2222564,27.396848 C25.3003333,27.2366784 25.5096154,27.1963684 25.6745641,27.3090936 C26.0934872,27.5950088 26.5131282,27.8786053 26.9338462,28.1600614 C27.0675641,28.2497778 27.1307436,28.411731 27.0849744,28.5487135 C26.6197436,29.9394064 26.1502051,31.3370556 25.6765385,32.7418392 C25.5679487,33.0637836 26.0134359,33.3427427 26.2415641,33.096424 C27.3131026,31.9390292 28.3765641,30.7934064 29.4314103,29.6593772 C29.5161282,29.5680556 29.6575641,29.5446901 29.7862564,29.6005175 C30.1071795,29.7399971 30.428641,29.8784064 30.7504615,30.015924 C30.9078718,30.0831667 31.0017436,30.2477953 30.9672821,30.3983333 C30.6483333,31.8116784 30.3263333,33.2300175 30.0014615,34.6535292 C29.9255385,34.9856404 30.4054872,35.2130526 30.6009487,34.9385526 C31.5385897,33.6238421 32.4679744,32.321617 33.3889231,31.0318772 C33.4440256,30.9546462 33.5384359,30.9114825 33.642359,30.9157632 C34.5636667,30.9533977 35.4849744,30.9874649 36.4064615,31.0181433 C33.9672308,34.2078012 31.471641,37.480576 28.9200513,40.8350409 C28.8484359,40.9293947 28.7220769,40.9729152 28.5951795,40.9466959" id="Fill-3" fill="#FFFFFF"></path>
            <g id="Group-6" transform="translate(22.435897, 28.098170)">
                <mask id="mask-2" fill="white">
                    <use xlink:href="#path-1"></use>
                </mask>
                <g id="Clip-5"></g>
                <path d="M19.3589487,0.177827485 C14.1775128,7.56935088 7.73589744,14.6382164 0.136589744,21.1429211 C-0.0507948718,21.3029123 -0.00933333333,21.6045234 0.210717949,21.6772953 C2.54889744,22.4554912 5.18664103,23.2012251 5.84733333,23.3854737 C5.94515385,23.4131199 6.04889744,23.3890409 6.12984615,23.3178743 C8.21584615,21.4789561 11.8971282,17.7668743 12.5483077,17.1185263 C12.6109487,17.0555643 12.6918974,17.0238158 12.7778718,17.0284532 C13.7777949,17.1031871 20.2411282,17.220193 23.4449744,16.6037719 C25.2195641,14.4546813 26.8826923,12.2717018 28.4189231,10.0685673 C28.4982564,9.95459357 28.4813846,9.80459064 28.3790769,9.71326901 C27.286,8.79648538 22.0367179,3.84710234 19.8290256,0.196377193 C19.7724872,0.105590643 19.6787949,0.059751462 19.585641,0.059751462 C19.4996667,0.059751462 19.4142308,0.0988128655 19.3589487,0.177827485 Z M21.0473846,12.4693275 C20.006359,12.4618363 18.9717949,12.3045205 17.9865897,12.0013041 C17.7956154,11.9422661 17.7299231,11.7070058 17.8564615,11.5475497 C18.7221282,10.4540088 19.5728974,9.36242982 20.4048205,8.27049415 C20.4952821,8.1520614 20.6611282,8.11763743 20.7889231,8.19219298 C21.532359,8.62614912 22.2542564,9.09381579 22.9490513,9.59644152 C23.0703846,9.68437427 23.1012564,9.85221345 23.0201282,9.97938596 C22.4962051,10.7982485 21.9168205,11.5898216 21.2932821,12.3532135 C21.2340513,12.4256287 21.1435897,12.4693275 21.0498974,12.4693275 C21.049,12.4693275 21.0482821,12.4693275 21.0473846,12.4693275 Z M30.8218974,11.9535029 C27.1442051,16.9867164 24.2011538,22.8229181 22.2585641,29.0031991 C22.2092051,29.1599798 22.2989487,29.3103395 22.4612051,29.3392342 C23.8147179,29.5901904 29.3845641,30.4739769 35.3069231,30.5199944 C35.4569744,30.5217781 35.6041538,30.4254623 35.6520769,30.293474 C36.0090769,29.3049886 36.2641282,28.301164 36.4927949,27.3080412 C36.5231282,27.1771231 36.4443333,27.058512 36.3066667,27.0251582 C34.2942564,26.5434009 32.2929744,26.0241874 30.3031795,25.4680529 C30.1746667,25.432202 30.0987436,25.3205471 30.1188462,25.1935529 C30.3360256,23.8519096 31.5165128,16.6453304 32.9389487,13.1301608 C32.9881282,13.0085175 32.9389487,12.8786696 32.8222821,12.8141023 C32.2676667,12.5073187 31.7374615,12.1934006 31.2341795,11.8734181 C31.1851795,11.842383 31.129359,11.8274006 31.0735385,11.8274006 C30.9773333,11.8274006 30.8814872,11.8718129 30.8218974,11.9535029 Z M36.1153333,14.7464825 C34.495641,17.5423158 33.1340513,20.5240029 32.0795641,23.6055731 C32.0289487,23.7543453 32.1176154,23.9011377 32.277359,23.9327079 C33.5124103,24.1756377 34.7508718,24.4062605 35.9927436,24.6240412 C36.154641,24.6524009 36.3260513,24.5559067 36.3741538,24.4075091 C36.5832564,23.768436 36.9302051,22.7772573 37.0985641,22.3020994 C37.155641,22.1403246 37.2936667,22.0092281 37.3843077,21.9896082 C37.7858205,21.9039942 38.6748205,21.7038713 39.2039487,21.5750936 C39.3990513,21.5278275 39.5745897,21.6500058 39.5575385,21.8240877 C39.4354872,23.117038 39.0007692,27.723626 39.1748718,30.2449594 C39.1840256,30.373202 39.3015897,30.460243 39.4518205,30.4538219 C41.1564103,30.3805149 42.8927692,30.2454944 44.6007692,30.0385939 C44.8244103,30.0116611 44.9798462,29.7986962 44.8935128,29.6383482 C43.5338974,27.1426991 42.0608462,22.3090556 41.7506923,21.1573684 C41.7137179,21.0216345 41.8102821,20.8764474 41.9702051,20.8268626 C42.9094615,20.5373801 45.9618205,19.5685146 47.9763846,18.8466813 C48.2459744,18.7501871 48.2588974,18.4328801 47.9964872,18.3684912 C46.9188462,18.1038012 45.7681538,17.8014766 44.5822821,17.4606257 C44.5162308,17.4417193 44.4444359,17.4438596 44.3760513,17.468117 C42.9254359,17.9851901 40.1229231,18.6938246 38.9377692,18.9692164 C38.7022821,19.0243304 38.5172308,18.8304503 38.612359,18.6294357 C38.9074359,18.0080205 39.4345897,16.9069883 39.7978718,16.2003158 C39.8669744,16.065652 39.8039744,15.9179678 39.6576923,15.8644591 C38.5940513,15.4761637 37.5397436,15.0593304 36.5173846,14.6164561 C36.4778974,14.5995117 36.4358974,14.5914854 36.3940769,14.591307 C36.2824359,14.591307 36.1720513,14.6487398 36.1153333,14.7464825 Z M13.4274359,18.7578567 C13.3551026,18.7626725 13.2847436,18.7929942 13.23,18.8429357 C11.4038974,20.504383 9.71923077,22.3597105 8.20094872,24.3830734 C8.36266667,24.4656553 8.5245641,24.5509126 8.68771795,24.6409857 C11.7307436,26.3300792 15.5423333,27.7605471 19.9460513,28.8021845 C20.0790513,28.8337547 20.2319744,28.7725763 20.3104103,28.6534301 C22.1964615,25.7944564 23.324,22.639383 23.6000513,19.4754094 C23.6129744,19.3323626 23.5097692,19.2075088 23.3633077,19.1852135 C21.0752051,18.8381199 18.7591026,18.6561901 16.429359,18.6561901 C15.4308718,18.6561901 14.4296923,18.6895439 13.4274359,18.7578567 Z M17.5005385,24.6479418 C16.8705385,24.508819 16.2518462,24.3350939 15.6491282,24.1237342 C15.4992564,24.0712956 15.4278205,23.904705 15.4904615,23.7530968 C15.6572051,23.3485526 15.8465641,22.9527661 16.0608718,22.5692865 C16.1208205,22.4619123 16.240359,22.394848 16.3615128,22.3991287 C17.0101795,22.4223158 17.6557949,22.4660146 18.298359,22.5305819 C18.4880769,22.5494883 18.5975641,22.7383743 18.5225385,22.9153099 C18.3062564,23.425962 18.0892564,23.9378804 17.8715385,24.4510295 C17.8194872,24.5739213 17.6938462,24.654898 17.5649744,24.654898 C17.5434359,24.654898 17.5218974,24.6525792 17.5005385,24.6479418 Z M47.9905641,20.0204854 C45.9323846,20.8646754 43.9975128,23.3225117 48.1657436,23.9328863 C48.1619744,23.9505442 53.0592821,24.2523336 52.940641,25.3025325 C52.8078205,26.3907225 51.0987436,26.2590909 49.4261026,26.1274594 C47.4048974,25.9681816 45.436641,25.8090822 46.3653077,27.8019272 C46.7801026,28.705512 47.2112308,29.730205 47.9736923,29.5074301 C51.0547692,28.6291728 60.444641,25.2843395 58.8310513,22.8043684 C58.0237179,21.5774123 50.2851282,22.505076 50.812641,20.989886 C51.0693077,20.2612749 52.8209231,20.2791111 54.2928974,20.2717982 C55.0214359,20.2687661 55.4389231,20.0582982 55.0435128,19.947 C55.0408205,19.9521725 54.6254872,19.8141199 53.9522308,19.6760673 C53.291359,19.5406901 52.3817179,19.4051345 51.3701282,19.4051345 C50.3000256,19.4051345 49.1157692,19.5567427 47.9905641,20.0204854 Z" id="Fill-4" fill="url(#linearGradient-3)" mask="url(#mask-2)"></path>
            </g>
            <g id="Group-9" transform="translate(13.641026, 1.343784)">
                <mask id="mask-5" fill="white">
                    <use xlink:href="#path-4"></use>
                </mask>
                <g id="Clip-8"></g>
                <path d="M18.7041795,0.131453216 L13.6157179,0.151073099 C13.5078462,0.151608187 13.4207949,0.238827485 13.4213333,0.345845029 L13.4514872,8.10140643 C13.4520256,8.20860234 13.5397949,8.29510819 13.6474872,8.2945731 L18.7359487,8.27495322 C18.843641,8.27459649 18.9306923,8.18737719 18.9303333,8.08035965 L18.9240513,6.43211111 C18.9235128,6.32509357 18.8357436,6.23858772 18.7280513,6.23912281 L16.1915385,6.24893275 C16.0836667,6.24928947 15.9958974,6.16278363 15.9955385,6.05558772 L15.9926667,5.32679825 C15.9923077,5.21960234 16.079359,5.13238304 16.1872308,5.13202632 L18.3137949,5.12382164 C18.4218462,5.12346491 18.5087179,5.03624561 18.508359,4.92922807 L18.5018974,3.28097953 C18.501359,3.17396199 18.4137692,3.08745614 18.3058974,3.08799123 L16.1791538,3.09619591 C16.0714615,3.09637427 15.9836923,3.01004678 15.9833333,2.90285088 L15.9811795,2.38345906 C15.9808205,2.27626316 16.0678718,2.18922222 16.1755641,2.18868713 L18.3645897,2.18030409 C18.4448205,2.17994737 18.5167949,2.13089766 18.5458718,2.05652047 L18.8899487,1.17701462 C18.8985641,1.15436257 18.9032308,1.13028363 18.9032308,1.10602632 L18.9,0.324619883 C18.899641,0.217780702 18.8124103,0.131453216 18.7050769,0.131453216 C18.7047179,0.131453216 18.704359,0.131453216 18.7041795,0.131453216 Z M12.2866154,0.156245614 L10.1252308,0.164628655 C10.017359,0.165163743 9.93030769,0.252204678 9.93084615,0.359400585 L9.94089744,2.92621637 C9.94107692,3.03341228 9.85420513,3.12045322 9.74633333,3.1209883 L9.10628205,3.12348538 C8.99858974,3.12384211 8.91082051,3.03733626 8.91046154,2.93031871 L8.90041026,0.363324561 C8.89987179,0.256307018 8.81210256,0.16980117 8.70441026,0.170157895 L6.54284615,0.178540936 C6.43497436,0.178897661 6.34810256,0.266116959 6.34846154,0.373134503 L6.37879487,8.12887427 C6.37933333,8.23589181 6.46692308,8.32239766 6.57461538,8.32186257 L8.73617949,8.31347953 C8.84423077,8.31330117 8.93110256,8.22608187 8.93074359,8.11888596 L8.91997436,5.35408772 C8.9194359,5.24689181 9.00648718,5.15967251 9.11417949,5.15931579 L9.75441026,5.15681871 C9.86210256,5.15646199 9.94987179,5.24296784 9.95023077,5.34998538 L9.961,8.11496199 C9.96153846,8.22197953 10.0493077,8.30866374 10.157,8.30812865 L12.3187436,8.29974561 C12.4264359,8.29938889 12.5134872,8.21216959 12.5129487,8.10497368 L12.4826154,0.349590643 C12.4822564,0.242573099 12.3950256,0.156245614 12.2873333,0.156245614 C12.2871538,0.156245614 12.2869744,0.156245614 12.2866154,0.156245614 Z M5.56517949,0.18228655 L0.219333333,0.202976608 C0.111461538,0.203333333 0.0242307692,0.290374269 0.0247692308,0.397748538 L0.0312307692,2.05705556 C0.0317692308,2.16425146 0.119538462,2.25075731 0.227230769,2.25022222 L1.37038462,2.24576316 C1.47825641,2.24540643 1.56602564,2.33209064 1.56638462,2.43910819 L1.58864103,8.14724561 C1.58917949,8.25426316 1.67676923,8.34076901 1.78464103,8.34059064 L3.95823077,8.33202924 C4.06610256,8.33167251 4.15315385,8.24445322 4.15261538,8.13725731 L4.13035897,2.42911988 C4.13,2.32210234 4.21687179,2.23488304 4.32474359,2.23434795 L5.22576923,2.23095906 C5.306,2.2307807 5.37779487,2.18155263 5.40687179,2.1073538 L5.75094872,1.22766959 C5.75974359,1.20519591 5.76423077,1.18111696 5.76423077,1.15685965 L5.76117949,0.375453216 C5.76064103,0.268435673 5.67341026,0.18228655 5.56589744,0.18228655 C5.56571795,0.18228655 5.56535897,0.18228655 5.56517949,0.18228655 Z" id="Fill-7" fill="url(#linearGradient-6)" mask="url(#mask-5)"></path>
            </g>
        </g>
    </g>
</svg>