<?xml version="1.0" encoding="UTF-8"?>
<svg width="160px" height="90px" viewBox="0 0 160 90" version="1.1" xmlns="http://www.w3.org/2000/svg" xmlns:xlink="http://www.w3.org/1999/xlink">
    <!-- Generator: Sketch 49.3 (51167) - http://www.bohemiancoding.com/sketch -->
    <title>The Pelican Group logo designed by Isral Duke</title>
    <desc>Created with Sketch.</desc>
    <defs>
        <polygon id="path-1" points="0 0.354639156 118.737404 0.354639156 118.737404 43.9198065 0 43.9198065"></polygon>
    </defs>
    <g id="The-Pelican-Group-logo-designed-by-Isral-Duke" stroke="none" stroke-width="1" fill="none" fill-rule="evenodd">
        <g id="Page-1" transform="translate(21.000000, 22.000000)">
            <mask id="mask-2" fill="white">
                <use xlink:href="#path-1"></use>
            </mask>
            <g id="Clip-2"></g>
            <path d="M16.9088511,43.9198065 C7.58525532,43.9198065 -0.000361702128,36.4784839 -0.000361702128,27.3314516 C-0.000361702128,22.9843226 1.71410638,19.0229032 4.51331915,16.0617742 L5.49461702,17.1660323 C3.00791489,19.8514516 1.49274468,23.4179355 1.49274468,27.3314516 C1.49274468,35.684 8.39474468,42.4550323 16.9088511,42.4550323 C18.7350851,42.4550323 19.6042553,43.9198065 16.9088511,43.9198065" id="Fill-1" fill="#00B451" mask="url(#mask-2)"></path>
            <path d="M24.9299936,14.5031452 L16.0129511,26.7099516 L18.1563979,10.3820484 C19.5938021,10.5296613 20.9809298,10.8245323 22.2982489,11.2485645 L22.0399936,12.1448871 C25.7383979,13.2700806 24.9299936,14.5031452 24.9299936,14.5031452" id="Fill-3" fill="#FFC62A" mask="url(#mask-2)"></path>
            <path d="M21.064917,8.73850645 C20.388534,8.96844194 19.6680234,8.66718387 19.4553426,8.06583871 C19.2423,7.46403226 19.6181085,6.78948387 20.2944915,6.55954839 C20.9708745,6.32925806 21.6913851,6.63087097 21.904066,7.23232258 C22.1171085,7.83412903 21.7413,8.50857097 21.064917,8.73850645 M30.0803426,16.7795065 C29.4791936,6.89664516 22.672683,5.72709677 19.9175979,5.66251613 C19.283534,5.6476129 18.7051723,6.20187097 18.6241511,6.81893548 L18.2443638,9.71147419 C19.7013,9.86263548 21.1372574,10.1635387 22.5131723,10.6063774 L23.1414489,10.8086355 L22.8817468,11.7085065 C24.4182574,12.2542484 25.3091298,12.9021839 25.5981298,13.6807 C25.807917,14.2459581 25.6220021,14.6717645 25.5370021,14.8232806 C26.6485128,15.4701516 27.6551298,16.3973452 28.4385766,17.2397323 C28.9706404,17.8245065 30.4944915,19.6416355 31.468917,22.2149258 C31.8266404,23.2397 32.254534,24.7658613 32.3167468,26.3303452 C32.3207255,26.4563129 32.325066,26.5822806 32.325066,26.7096677 C32.325066,29.5895387 28.5687894,31.5496677 22.2621511,31.5496677 C22.2621511,31.5496677 22.8973,35.3283452 26.3768745,35.3283452 C25.0468957,35.9397323 23.6261298,36.2743452 22.2621511,36.2743452 C22.2621511,36.2743452 22.0990234,38.1897645 25.739917,38.1897645 C25.739917,38.1897645 24.6085128,39.484571 22.2621511,39.484571 C22.2621511,39.484571 22.4350447,40.7311194 24.6095979,40.7311194 C26.7841511,40.7311194 33.9313851,37.0617323 33.9313851,26.7096677 C33.9313851,22.1166355 31.8107255,18.7566677 30.0803426,16.7795065" id="Fill-4" fill="#00B451" mask="url(#mask-2)"></path>
            <path d="M14.9516809,25.5800387 L4.49704255,13.8146516 C5.712,12.9587806 7.05138298,12.2366839 8.48589362,11.6714258 L8.92644681,12.5123935 C8.92644681,12.5123935 9.90991489,12.2331355 10.8680638,12.1075226 L14.9516809,25.5800387 Z" id="Fill-5" fill="#FFC62A" mask="url(#mask-2)"></path>
            <path d="M14.5442596,21.8642387 C14.1210681,20.4679484 13.6978766,19.0713032 13.2743234,17.6750129 C12.8561957,16.2957548 12.4380681,14.9161419 12.0199404,13.5368839 C11.7005574,12.4826581 11.3811745,11.4287871 11.0617915,10.3749161 C10.9344723,9.95514194 10.8071532,9.53536774 10.679834,9.11523871 C12.0499617,8.78736774 13.4515574,8.58936774 14.8600255,8.51981935 C15.4615362,8.4900129 16.0608766,8.49214194 16.6631106,8.50704516 C16.9430681,8.51414194 17.2244723,8.5184 17.5040681,8.53827097 C17.5355362,8.5404 17.6151106,8.53081935 17.6610468,8.54359355 L15.5208553,25.086529 C15.1953234,24.0124323 14.8697915,22.9383355 14.5442596,21.8642387" id="Fill-6" fill="#FFC62A" mask="url(#mask-2)"></path>
            <path d="M4.93426809,11.8720871 C4.25788511,12.1020226 3.53737447,11.8007645 3.32469362,11.1993129 C3.11165106,10.5975065 3.48745957,9.92295806 4.16384255,9.69302258 C4.84022553,9.46273226 5.56073617,9.76434516 5.77341702,10.3657968 C5.98645957,10.9676032 5.61065106,11.6421516 4.93426809,11.8720871 Z M9.81290638,8.6270871 L9.43203404,7.37070968 C6.06531064,7.25716129 3.70411915,8.89286129 2.55824681,9.92757097 C2.09165106,10.3487645 2.10539574,11.1233774 2.5224383,11.5924742 L4.04231064,13.3027968 L4.09511915,13.2655387 C5.3625234,12.3731194 6.75326809,11.6254742 8.22937447,11.0442484 L8.8120766,10.8146677 L9.28662979,11.7209258 C9.65158723,11.6336355 10.1554383,11.5254097 10.669417,11.4526677 L9.81290638,8.6270871 Z" id="Fill-7" fill="#00B451" mask="url(#mask-2)"></path>
            <path d="M14.2525106,3.93409677 C13.9852128,4.90883871 12.8802128,5.46487097 11.784617,5.17567742 C10.6890213,4.88648387 10.0177021,3.86170968 10.285,2.88696774 C10.5522979,1.91187097 11.6572979,1.35619355 12.7528936,1.6453871 C13.8484894,1.93458065 14.5198085,2.95935484 14.2525106,3.93409677 M9.47587234,1.19474194 C8.86893617,1.375 8.53544681,2.0413871 8.71629787,2.63787097 L10.4832128,8.46680645 L10.5164894,8.45864516 C11.9173617,8.12332258 13.3670638,7.91680645 14.8250851,7.84477419 C15.1556809,7.82845161 15.4978511,7.82064516 15.8718511,7.82064516 C16.1228723,7.82064516 16.3872766,7.82419355 16.680617,7.83129032 L16.8101064,7.83448387 C17.0423191,7.84016129 17.2824894,7.84583871 17.5255532,7.86216129 C17.5472553,7.86145161 17.570766,7.86074194 17.5942766,7.86074194 C17.6640851,7.86074194 17.7291915,7.86783871 17.7903191,7.8806129 L17.9407872,6.73270968 C18.067383,5.76967742 18.9427021,4.98619355 19.8925319,4.98619355 L19.9341277,4.98654839 C21.1281064,5.01458065 23.0509149,5.24025806 24.9545532,6.22032258 C21.2008085,-1.47754839 12.5282766,0.28883871 9.47587234,1.19474194" id="Fill-8" fill="#00B451" mask="url(#mask-2)"></path>
            <path d="M44.5179362,17.0140194 L45.4334043,17.0140194 C45.9083191,17.0140194 46.2360213,16.8919548 46.4168723,16.6481806 C46.5977234,16.4040516 46.6881489,16.0825677 46.6881489,15.6833742 C46.6881489,15.3065355 46.5977234,14.9875355 46.4168723,14.7270839 C46.2360213,14.4662774 45.9083191,14.3360516 45.4334043,14.3360516 L44.5179362,14.3360516 L44.5179362,17.0140194 Z M44.5179362,18.9851484 L44.5179362,19.4840516 C44.5179362,19.7778581 44.5928085,20.006729 44.7425532,20.1703097 C44.8922979,20.3335355 45.1650213,20.4155032 45.5607234,20.4155032 L46.4251915,20.4155032 L46.4251915,23.5008258 L38.1259362,23.5008258 L38.1259362,20.4155032 C38.6232766,20.4155032 38.9791915,20.3502129 39.1940426,20.2199871 C39.4088936,20.0897613 39.5163191,19.8445677 39.5163191,19.4840516 L39.5163191,15.2760194 C39.5163191,14.9098258 39.4088936,14.6617935 39.1940426,14.5315677 C38.9791915,14.4013419 38.6232766,14.3360516 38.1259362,14.3360516 L38.1259362,11.250729 L47.2730213,11.250729 C48.1096383,11.250729 48.8102553,11.3476 49.3755957,11.5416968 C49.9405745,11.7357935 50.3941489,12.0061806 50.7359574,12.3525032 C51.0781277,12.6991806 51.3211915,13.1189548 51.4651489,13.6125355 C51.6091064,14.1061161 51.6814468,14.6493742 51.6814468,15.2426645 C51.6814468,15.8412774 51.6091064,16.3710516 51.4651489,16.8309226 C51.3211915,17.2911484 51.0781277,17.6836 50.7359574,18.0079226 C50.3941489,18.3322452 49.9405745,18.5760194 49.3755957,18.7396 C48.8102553,18.9031806 48.1096383,18.9851484 47.2730213,18.9851484 L44.5179362,18.9851484 Z" id="Fill-9" fill="#007CBA" mask="url(#mask-2)"></path>
            <path d="M58.2174043,16.2072935 C57.8217021,16.2072935 57.5294468,16.3446161 57.3399149,16.6189065 C57.1507447,16.8935516 57.0248723,17.3466806 56.9626596,17.9786484 L59.4464681,17.9786484 C59.4128298,17.4353903 59.2941915,17.0042613 59.0905532,16.6856161 C58.8872766,16.3666161 58.5961064,16.2072935 58.2174043,16.2072935 Z M56.9626596,19.4341968 C56.9854468,20.2602613 57.1449574,20.8297774 57.4415532,21.1431 C57.7385106,21.4564226 58.1638723,21.6129065 58.7176383,21.6129065 C58.9039149,21.6129065 59.0862128,21.5866484 59.2645319,21.5341323 C59.4424894,21.4812613 59.6077872,21.3953903 59.7604255,21.2761645 C59.9127021,21.1569387 60.0443617,20.9990355 60.1543191,20.8021 C60.2646383,20.6055194 60.336617,20.3571323 60.370617,20.0580032 L63.4562979,20.0580032 C63.3434468,20.7730032 63.1358298,21.371971 62.8334468,21.8541968 C62.5310638,22.3364226 62.1425957,22.7260355 61.6676809,23.0226806 C61.1931277,23.3193258 60.6404468,23.5329387 60.0103617,23.6631645 C59.3802766,23.7933903 58.6778511,23.8583258 57.9038085,23.8583258 C57.1069787,23.8583258 56.3578936,23.7586161 55.6572766,23.5591968 C54.9562979,23.3594226 54.341766,23.0560355 53.8133191,22.6483258 C53.2848723,22.240971 52.8710851,21.728229 52.5715957,21.1097452 C52.2721064,20.4916161 52.122,19.7556806 52.122,18.9019387 C52.122,18.0868742 52.2634255,17.3715194 52.5459149,16.756229 C52.828766,16.1409387 53.2255532,15.6264226 53.737,15.2133903 C54.2484468,14.8003581 54.8532128,14.4884548 55.5512979,14.2780355 C56.249383,14.0672613 57.0165532,13.9618742 57.8528085,13.9618742 C58.8814894,13.9618742 59.7658511,14.0949387 60.5062553,14.3610677 C61.2466596,14.6271968 61.8514255,14.9987129 62.3205532,15.4752613 C62.7896809,15.9521645 63.134383,16.5259387 63.3546596,17.1969387 C63.5752979,17.8679387 63.6798298,18.6134548 63.6682553,19.4341968 L56.9626596,19.4341968 Z" id="Fill-10" fill="#007CBA" mask="url(#mask-2)"></path>
            <path d="M70.6451277,11.2506581 L70.6451277,19.5173355 C70.6451277,19.8888516 70.7384468,20.1312065 70.9247234,20.2451097 C71.1113617,20.3586581 71.3486383,20.4154323 71.6369149,20.4154323 L71.8658723,20.4154323 L71.8658723,23.5007548 L64.7280426,23.5007548 L64.7280426,20.4154323 L65.0586383,20.4154323 C65.3581277,20.4154323 65.5798511,20.3224645 65.7241702,20.1368839 C65.8681277,19.9513032 65.9401064,19.7501097 65.9401064,19.5340129 L65.9401064,15.2759484 C65.9401064,14.9544645 65.8370213,14.7174323 65.6308511,14.5648516 C65.4243191,14.412271 65.1855957,14.3359806 64.9143191,14.3359806 L64.7280426,14.3359806 L64.7280426,11.2506581 L70.6451277,11.2506581 Z" id="Fill-11" fill="#007CBA" mask="url(#mask-2)"></path>
            <path d="M73.8071277,12.290229 C73.8071277,11.8133258 73.9923191,11.405971 74.3623404,11.0678097 C74.7327234,10.7296484 75.2597234,10.5603903 75.9433404,10.5603903 C76.6385319,10.5603903 77.1742128,10.7296484 77.5500213,11.0678097 C77.9258298,11.405971 78.1135532,11.8133258 78.1135532,12.290229 C78.1135532,12.7781323 77.9258298,13.1897452 77.5500213,13.5250677 C77.1742128,13.8607452 76.6385319,14.028229 75.9433404,14.028229 C75.2597234,14.028229 74.7327234,13.8607452 74.3623404,13.5250677 C73.9923191,13.1897452 73.8071277,12.7781323 73.8071277,12.290229 Z M78.6477872,14.336229 L78.6477872,19.517229 C78.6477872,19.8887452 78.7411064,20.1314548 78.927383,20.2450032 C79.1140213,20.3585516 79.3512979,20.4153258 79.6395745,20.4153258 L79.8685319,20.4153258 L79.8685319,23.5010032 L72.7303404,23.5010032 L72.7303404,20.4153258 L73.0609362,20.4153258 C73.3607872,20.4153258 73.5825106,20.3227129 73.7264681,20.1367774 C73.8707872,19.9511968 73.942766,19.7500032 73.942766,19.5339065 L73.942766,18.3611645 C73.942766,18.0396806 73.8396809,17.8026484 73.6335106,17.6500677 C73.4269787,17.4978419 73.1882553,17.4215516 72.9169787,17.4215516 L72.7303404,17.4215516 L72.7303404,14.336229 L78.6477872,14.336229 Z" id="Fill-12" fill="#007CBA" mask="url(#mask-2)"></path>
            <path d="M86.7184468,16.2072935 C86.2323191,16.2072935 85.8594043,16.4095516 85.5993404,16.8144226 C85.3392766,17.2192935 85.2094255,17.8927774 85.2094255,18.835229 C85.2094255,19.7780355 85.343617,20.4472613 85.612,20.8436161 C85.8807447,21.2403258 86.2916383,21.4383258 86.845766,21.4383258 C87.0038298,21.4383258 87.1647872,21.4134871 87.3286383,21.3634548 C87.4928511,21.3137774 87.6411489,21.2403258 87.7738936,21.1431 C87.9066383,21.046229 88.0169574,20.9213258 88.1044894,20.7687452 C88.1920213,20.6165194 88.2415745,20.4376806 88.2527872,20.2325839 L90.991234,20.2325839 C90.810383,21.4688419 90.3029149,22.3821968 89.4691915,22.9726484 C88.6358298,23.5631 87.4476383,23.8583258 85.904617,23.8583258 C85.1302128,23.8583258 84.4068085,23.7586161 83.7344043,23.5591968 C83.062,23.3594226 82.476766,23.0560355 81.9794255,22.6483258 C81.4820851,22.240971 81.0921702,21.728229 80.8096809,21.1097452 C80.5271915,20.4916161 80.385766,19.7556806 80.385766,18.9019387 C80.385766,18.0868742 80.5271915,17.3715194 80.8096809,16.756229 C81.0921702,16.1409387 81.4893191,15.6264226 82.000766,15.2133903 C82.5122128,14.8003581 83.1169787,14.4884548 83.8150638,14.2780355 C84.5127872,14.0672613 85.2799574,13.9618742 86.1165745,13.9618742 C87.0038298,13.9618742 87.7525532,14.0701 88.3631064,14.2861968 C88.9732979,14.5022935 89.4666596,14.7726806 89.8424681,15.0970032 C90.2182766,15.4213258 90.4866596,15.7708419 90.647617,16.1448419 C90.8089362,16.5191968 90.889234,16.8697774 90.889234,17.1969387 C90.889234,17.4573903 90.8512553,17.7125194 90.7749362,17.961971 C90.698617,18.2114226 90.5741915,18.4388742 90.4020213,18.643971 C90.2294894,18.8490677 90.0106596,19.0140677 89.7448085,19.138971 C89.4793191,19.2635194 89.1541489,19.325971 88.7700213,19.325971 C88.4025319,19.325971 88.1030426,19.2748742 87.8715532,19.171971 C87.6397021,19.0694226 87.4602979,18.9420355 87.3329787,18.7894548 C87.2060213,18.637229 87.1155957,18.4764871 87.0617021,18.307229 C87.0081702,18.137971 86.9814043,17.9786484 86.9814043,17.8289065 C86.9814043,17.4907452 87.0631489,17.2217774 87.227,17.0223581 C87.3908511,16.8225839 87.580383,16.6841968 87.795234,16.6064871 C87.6708085,16.5121 87.5449362,16.421971 87.4179787,16.3361 C87.2906596,16.250229 87.0573617,16.2072935 86.7184468,16.2072935" id="Fill-13" fill="#007CBA" mask="url(#mask-2)"></path>
            <path d="M97.9677447,19.0931613 C97.8433191,19.2705806 97.6881489,19.4132258 97.5015106,19.5214516 C97.3148723,19.6296774 97.1354681,19.7350645 96.9632979,19.8376129 C96.790766,19.9401613 96.6410213,20.061871 96.5137021,20.2034516 C96.3867447,20.3446774 96.3230851,20.5345161 96.3230851,20.7729677 C96.3230851,20.9560645 96.3740851,21.1210645 96.4757234,21.2679677 C96.5773617,21.414871 96.7752128,21.4883226 97.0692766,21.4883226 C97.334766,21.4883226 97.5510638,21.3871935 97.7178085,21.1849355 C97.8845532,20.9823226 97.9677447,20.6980968 97.9677447,20.3322581 L97.9677447,19.0931613 Z M96.263766,15.4922581 C95.9754894,15.4922581 95.7284468,15.5128387 95.5219149,15.5543548 C95.3157447,15.5962258 95.139234,15.6444839 94.9920213,15.6998387 C94.8451702,15.7555484 94.7236383,15.818 94.6277872,15.8871935 C94.5315745,15.9563871 94.4469362,16.0188387 94.3731489,16.0741935 L94.4581489,16.1575806 C94.5655745,16.101871 94.682766,16.0465161 94.8100851,15.9911613 C94.9370426,15.9358065 95.0994468,15.9077742 95.2972979,15.9077742 C95.6307872,15.9077742 95.9190638,16.0145806 96.1621277,16.2281935 C96.4051915,16.4414516 96.5267234,16.7810323 96.5267234,17.2469355 C96.5267234,17.6904839 96.3415319,18.0467419 95.9711489,18.3157097 C95.6011277,18.5843226 95.105234,18.7188065 94.4834681,18.7188065 C93.8902766,18.7188065 93.4168085,18.5513226 93.0634255,18.2156452 C92.7104043,17.8803226 92.5338936,17.4048387 92.5338936,16.7895484 C92.5338936,16.4513871 92.6297447,16.1142903 92.8218085,15.7789677 C93.014234,15.4436452 93.3122766,15.1427419 93.7162979,14.8766129 C94.1203191,14.6104839 94.6346596,14.3915484 95.2593191,14.2198065 C95.883617,14.0477097 96.6366809,13.9618387 97.5185106,13.9618387 C98.569617,13.9618387 99.4286596,14.0587097 100.095638,14.2528065 C100.762617,14.4469032 101.280936,14.6963548 101.651319,15.0015161 C102.02134,15.3063226 102.275617,15.653 102.414149,16.0408387 C102.552681,16.4290323 102.621766,16.8200645 102.621766,17.2135806 L102.621766,20.4653226 C102.621766,20.9699032 102.638766,21.3123226 102.672766,21.4925806 C102.706766,21.6728387 102.833723,21.7626129 103.054362,21.7626129 C103.229426,21.7626129 103.352404,21.681 103.422936,21.5174194 C103.493468,21.3538387 103.528915,21.0724516 103.528915,20.6732581 L103.528915,19.6335806 L104.495383,19.6335806 L104.495383,20.6899355 C104.495383,21.1888387 104.453064,21.6309677 104.368064,22.0163226 C104.283426,22.4016774 104.122468,22.7316774 103.88483,23.0059677 C103.647553,23.2806129 103.325638,23.4885484 102.918723,23.6297742 C102.511809,23.7713548 101.991681,23.8419677 101.358702,23.8419677 C100.787936,23.8419677 100.314468,23.7823548 99.9386596,23.663129 C99.5628511,23.5439032 99.2648085,23.3955806 99.0445319,23.2181613 C98.8238936,23.0407419 98.6672766,22.8562258 98.5739574,22.6649677 C98.4806383,22.4737097 98.4339787,22.3033871 98.4339787,22.1536452 L98.2983404,22.1536452 C98.2643404,22.3810968 98.1670426,22.5971935 98.0057234,22.8022903 C97.844766,23.0073871 97.6215957,23.1890645 97.3362128,23.3469677 C97.0508298,23.5052258 96.7090213,23.6326129 96.3104255,23.7294839 C95.9118298,23.8267097 95.458617,23.8753226 94.9497021,23.8753226 C94.4635745,23.8753226 94.0215745,23.8295484 93.6229787,23.738 C93.2247447,23.6464516 92.8854681,23.5023871 92.6058723,23.3054516 C92.3259149,23.1085161 92.1085319,22.8537419 91.953,22.5404194 C91.7974681,22.2270968 91.7200638,21.8541613 91.7200638,21.4216129 C91.7200638,20.8893548 91.8723404,20.4695806 92.177617,20.1619355 C92.4828936,19.8542903 92.8670213,19.6101613 93.3307234,19.4299032 C93.7940638,19.2496452 94.2982766,19.1027419 94.8437234,18.9891935 C95.3891702,18.8756452 95.8937447,18.7383226 96.3570851,18.5775806 C96.8204255,18.4168387 97.2049149,18.2089032 97.5098298,17.9537742 C97.8151064,17.6986452 97.9677447,17.3384839 97.9677447,16.8725806 C97.9677447,16.4567097 97.835,16.1228065 97.5691489,15.8705161 C97.3036596,15.6182258 96.8685319,15.4922581 96.263766,15.4922581 Z" id="Fill-14" fill="#007CBA" mask="url(#mask-2)"></path>
            <path d="M112.870957,18.1866548 C112.870957,17.9705581 112.844191,17.7970419 112.790298,17.6668161 C112.736766,17.5365903 112.668766,17.4368806 112.587021,17.3673323 C112.504915,17.2981387 112.413043,17.2523645 112.311404,17.2303645 C112.209766,17.2080097 112.11066,17.1970097 112.014809,17.1970097 C111.647319,17.1970097 111.373149,17.3023968 111.192298,17.513171 C111.011447,17.7235903 110.921021,18.0230742 110.921021,18.4112677 L110.921021,19.6003323 C110.921021,19.8941387 110.973468,20.1034935 111.078,20.2283968 C111.182532,20.3529452 111.384723,20.4153968 111.684213,20.4153968 L112.141766,20.4153968 L112.141766,23.5010742 L105.054936,23.5010742 L105.054936,20.4153968 L105.554809,20.4153968 C105.78666,20.4153968 105.96317,20.3419452 106.084702,20.1950419 C106.206234,20.0481387 106.267,19.8721387 106.267,19.6670419 L106.267,18.0869452 C106.267,17.8261387 106.189234,17.6501387 106.034064,17.5585903 C105.878532,17.4673968 105.702021,17.4216226 105.50417,17.4216226 L105.054936,17.4216226 L105.054936,14.3359452 L110.090553,14.3359452 L109.912234,16.6232355 L110.056553,16.6232355 C110.180979,15.7694935 110.562213,15.1123323 111.200979,14.6521065 C111.839383,14.1918806 112.707106,13.9619452 113.803426,13.9619452 C114.57783,13.9619452 115.207915,14.0698161 115.694043,14.2862677 C116.179809,14.5023645 116.557064,14.7755903 116.825809,15.1052355 C117.094191,15.4352355 117.276489,15.7929129 117.37234,16.1782677 C117.468553,16.5636226 117.51666,16.9252032 117.51666,17.2633645 L117.51666,19.6003323 C117.51666,19.8941387 117.568745,20.1034935 117.673277,20.2283968 C117.777809,20.3529452 117.98,20.4153968 118.279489,20.4153968 L118.737404,20.4153968 L118.737404,23.5010742 L112.870957,23.5010742 L112.870957,18.1866548 Z" id="Fill-15" fill="#007CBA" mask="url(#mask-2)"></path>
            <path d="M48.6464043,39.491171 L48.3668085,38.659429 C48.0105319,38.9755903 47.5204255,39.2527194 46.895766,39.491171 C46.2714681,39.7296226 45.5520426,39.8488484 44.7382128,39.8488484 C43.8227447,39.8488484 42.9579149,39.7267839 42.1440851,39.4830097 C41.3302553,39.2388806 40.6198723,38.8563645 40.0122128,38.3351065 C39.4045532,37.8138484 38.9242128,37.1446226 38.5711915,36.3267194 C38.2178085,35.5088161 38.0412979,34.5262677 38.0412979,33.3783645 C38.0412979,32.2308161 38.2290213,31.2482677 38.6048298,30.4303645 C38.9806383,29.6124613 39.4754468,28.9428806 40.0885319,28.4219774 C40.701617,27.9007194 41.3953617,27.5182032 42.169766,27.2740742 C42.9438085,27.0303 43.7381064,26.9082355 44.5519362,26.9082355 C45.0264894,26.9082355 45.4547447,26.944429 45.8359787,27.0164613 C46.2175745,27.0884935 46.5525106,27.1786226 46.8407872,27.2864935 C47.1290638,27.3947194 47.3721277,27.5082677 47.569617,27.6274935 C47.7674681,27.7467194 47.9287872,27.8453645 48.0528511,27.9227194 L48.0528511,27.2410742 L50.850617,27.2410742 L50.850617,31.773429 L47.8835745,31.773429 C47.8607872,31.1858161 47.681383,30.7103323 47.345,30.3469774 C47.0089787,29.9839774 46.5412979,29.8023 45.9419574,29.8023 C45.6370426,29.8023 45.3516596,29.8565903 45.0858085,29.9644613 C44.8203191,30.0726871 44.5855745,30.2625258 44.3822979,30.5343323 C44.1786596,30.8057839 44.0191489,31.1719774 43.9034043,31.6322032 C43.7872979,32.0920742 43.7294255,32.6743645 43.7294255,33.3783645 C43.7294255,34.0493645 43.767766,34.6107194 43.8440851,35.0627839 C43.9204043,35.5144935 44.0390426,35.8803323 44.2,36.1603 C44.3609574,36.4402677 44.5660426,36.6428806 44.8145319,36.767429 C45.063383,36.8923323 45.3628723,36.9547839 45.7133617,36.9547839 C45.7922128,36.9547839 45.892766,36.9462677 46.0142979,36.9295903 C46.1358298,36.9129129 46.2515745,36.8838161 46.3618936,36.8423 C46.4718511,36.8007839 46.5680638,36.7468484 46.6498085,36.6801387 C46.7319149,36.6137839 46.7727872,36.5222355 46.7727872,36.4058484 L46.7727872,35.9484613 C46.7727872,35.6876548 46.6823617,35.4896548 46.5015106,35.3537516 C46.3206596,35.2178484 45.9817447,35.1500742 45.4844043,35.1500742 L45.4844043,32.4053968 L52.639234,32.4053968 L52.639234,35.1500742 C52.1418936,35.1500742 51.7859787,35.2150097 51.5711277,35.3452355 C51.3562766,35.4758161 51.2488511,35.7210097 51.2488511,36.0815258 L51.2488511,39.491171 L48.6464043,39.491171 Z" id="Fill-16" fill="#007CBA" mask="url(#mask-2)"></path>
            <path d="M58.7176383,30.3263613 L58.5736809,32.6132968 L58.7176383,32.6132968 C58.9154894,31.7375548 59.2446383,31.0747161 59.7050851,30.6258452 C60.1658936,30.1766194 60.7634255,29.9520065 61.4980426,29.9520065 C61.9335319,29.9520065 62.3078936,30.0201355 62.6214894,30.1560387 C62.9350851,30.2915871 63.1879149,30.4732645 63.3803404,30.7007161 C63.5724043,30.9278129 63.7109362,31.1900387 63.7955745,31.4866839 C63.8802128,31.7829742 63.9228936,32.0895548 63.9228936,32.4053613 C63.9228936,32.6661677 63.8831064,32.9237806 63.8042553,33.1789097 C63.7250426,33.4340387 63.5977234,33.6639742 63.4226596,33.869071 C63.247234,34.0745226 63.0211702,34.2391677 62.7444681,34.364071 C62.4674043,34.4886194 62.1255957,34.551071 61.7186809,34.551071 C61.1533404,34.551071 60.7084468,34.4098452 60.3832766,34.1270387 C60.0584681,33.8442323 59.8960638,33.5032323 59.8960638,33.1040387 C59.8960638,32.9099419 59.9184894,32.7449419 59.9637021,32.6093935 C60.0089149,32.4734903 60.0555745,32.3624258 60.1036809,32.2765548 C60.1517872,32.1906839 60.1843404,32.1282323 60.2013404,32.0895548 C60.2179787,32.0505226 60.1984468,32.0313613 60.1420213,32.0313613 C60.0230213,32.0313613 59.894617,32.1644258 59.7560851,32.4305548 C59.6175532,32.6966839 59.5484681,33.1150387 59.5484681,33.686329 L59.5484681,35.5907484 C59.5484681,35.8845548 59.6005532,36.0939097 59.7050851,36.2184581 C59.8099787,36.3433613 60.0118085,36.4058129 60.3112979,36.4058129 L60.8198511,36.4058129 L60.8198511,39.4911355 L53.6820213,39.4911355 L53.6820213,36.4058129 L54.1822553,36.4058129 C54.4141064,36.4058129 54.590617,36.3323613 54.7121489,36.1854581 C54.8336809,36.0385548 54.8944468,35.8625548 54.8944468,35.6571032 L54.8944468,34.0770065 C54.8944468,33.8165548 54.8166809,33.6405548 54.6611489,33.5490065 C54.505617,33.4574581 54.3291064,33.4116839 54.1312553,33.4116839 L53.6820213,33.4116839 L53.6820213,30.3263613 L58.7176383,30.3263613 Z" id="Fill-17" fill="#007CBA" mask="url(#mask-2)"></path>
            <path d="M69.2717447,34.8921419 C69.2717447,35.3576903 69.2930851,35.7529806 69.3354043,36.0773032 C69.3777234,36.4016258 69.4468085,36.6620774 69.5430213,36.8590129 C69.639234,37.0559484 69.7690851,37.2000129 69.9329362,37.2915613 C70.0967872,37.3831097 70.3058511,37.428529 70.5604894,37.428529 C70.814766,37.428529 71.022383,37.3831097 71.1833404,37.2915613 C71.3442979,37.2000129 71.4745106,37.0559484 71.5732553,36.8590129 C71.6723617,36.6620774 71.7414468,36.4016258 71.7808723,36.0773032 C71.8206596,35.7529806 71.8405532,35.3576903 71.8405532,34.8921419 C71.8405532,33.9606903 71.7512128,33.3077871 71.5732553,32.9334323 C71.3952979,32.5594323 71.0574681,32.3720774 70.5604894,32.3720774 C70.3058511,32.3720774 70.0967872,32.4153677 69.9329362,32.5012387 C69.7690851,32.5871097 69.639234,32.7283355 69.5430213,32.925271 C69.4468085,33.1222065 69.3777234,33.3826581 69.3354043,33.7069806 C69.2930851,34.0313032 69.2717447,34.4265935 69.2717447,34.8921419 M64.4480851,34.8921419 C64.4480851,34.0770774 64.5920426,33.3620774 64.8803191,32.7464323 C65.1685957,32.1311419 65.5798511,31.6169806 66.1140851,31.2035935 C66.6479574,30.7905613 67.2907021,30.4786581 68.0426809,30.2682387 C68.7942979,30.0574645 69.6334468,29.9520774 70.5604894,29.9520774 C71.4871702,29.9520774 72.3263191,30.0574645 73.0779362,30.2682387 C73.8299149,30.4786581 74.4712128,30.7905613 75.0025532,31.2035935 C75.5335319,31.6169806 75.9447872,32.1311419 76.2359574,32.7464323 C76.5271277,33.3620774 76.6725319,34.0770774 76.6725319,34.8921419 C76.6725319,35.6962065 76.5271277,36.4083677 76.2359574,37.0293355 C75.9447872,37.6503032 75.5335319,38.1701419 75.0025532,38.5888516 C74.4712128,39.0075613 73.8299149,39.3219484 73.0779362,39.5327226 C72.3263191,39.7434968 71.4871702,39.8488839 70.5604894,39.8488839 C69.6334468,39.8488839 68.7942979,39.7434968 68.0426809,39.5327226 C67.2907021,39.3219484 66.6479574,39.0075613 66.1140851,38.5888516 C65.5798511,38.1701419 65.1685957,37.6503032 64.8803191,37.0293355 C64.5920426,36.4083677 64.4480851,35.6962065 64.4480851,34.8921419" id="Fill-18" fill="#007CBA" mask="url(#mask-2)"></path>
            <path d="M89.6601702,35.7404194 C89.6601702,36.0065484 89.7379362,36.1839677 89.8934681,36.2726774 C90.0486383,36.3613871 90.2251489,36.4057419 90.423,36.4057419 L90.8725957,36.4057419 L90.8725957,39.4910645 L85.8369787,39.4910645 L85.8369787,37.2122903 L85.7013404,37.2122903 C85.5711277,38.0607097 85.2181064,38.7040323 84.6415532,39.1419032 C84.065,39.5797742 83.2258511,39.7990645 82.1237447,39.7990645 C81.3493404,39.7990645 80.7192553,39.6908387 80.2334894,39.4743871 C79.7473617,39.2582903 79.3715532,38.9854194 79.1057021,38.6554194 C78.8402128,38.3254194 78.6579149,37.9677419 78.5591702,37.5823871 C78.4600638,37.1970323 78.4105106,36.8354516 78.4105106,36.4972903 L78.4105106,34.2266774 C78.4105106,33.932871 78.3584255,33.7235161 78.2538936,33.5989677 C78.1493617,33.4740645 77.9471702,33.4119677 77.6476809,33.4119677 L77.1391277,33.4119677 L77.1391277,30.3262903 L83.0648936,30.3262903 L83.0648936,35.574 C83.0648936,35.7904516 83.0902128,35.9636129 83.1412128,36.0938387 C83.1918511,36.2240645 83.2584043,36.324129 83.3401489,36.3933226 C83.4222553,36.4625161 83.5155745,36.5082903 83.6201064,36.5306452 C83.7246383,36.5526452 83.8219362,36.5636452 83.9123617,36.5636452 C84.2856383,36.5636452 84.5608936,36.4582581 84.7392128,36.2478387 C84.9171702,36.0370645 85.0061489,35.7375806 85.0061489,35.3493871 L85.0061489,34.2266774 C85.0061489,33.932871 84.9537021,33.7235161 84.8491702,33.5989677 C84.7446383,33.4740645 84.5428085,33.4119677 84.2429574,33.4119677 L83.7430851,33.4119677 L83.7430851,30.3262903 L89.6601702,30.3262903 L89.6601702,35.7404194 Z" id="Fill-19" fill="#007CBA" mask="url(#mask-2)"></path>
            <path d="M100.002319,34.9752806 C100.002319,34.6814742 99.9853191,34.4015065 99.9513191,34.1353774 C99.9176809,33.8692484 99.8540213,33.6364742 99.7607021,33.4367 C99.667383,33.2372806 99.5429574,33.0804419 99.3877872,32.9668935 C99.2322553,32.8533452 99.0275319,32.7962161 98.7732553,32.7962161 C98.518617,32.7962161 98.3095532,32.8505065 98.1457021,32.9583774 C97.9818511,33.0666032 97.8548936,33.2149258 97.7644681,33.4033452 C97.6740426,33.5921194 97.610383,33.8163774 97.5734894,34.0771839 C97.5369574,34.3376355 97.5185106,34.6147645 97.5185106,34.9089258 L97.5185106,36.954571 C97.6143617,37.0986355 97.7926809,37.2139581 98.052383,37.299829 C98.3124468,37.3857 98.552617,37.4286355 98.7732553,37.4286355 C99.0275319,37.4286355 99.2322553,37.3580226 99.3877872,37.2164419 C99.5429574,37.0752161 99.667383,36.8882161 99.7607021,36.6550871 C99.8540213,36.4223129 99.9176809,36.1590226 99.9513191,35.8652161 C99.9853191,35.5714097 100.002319,35.2747645 100.002319,34.9752806 M100.544872,39.7656032 C100.18317,39.7656032 99.8608936,39.7475065 99.5784043,39.7116677 C99.2959149,39.6754742 99.0387447,39.6243774 98.8068936,39.5576677 C98.5754043,39.4913129 98.354766,39.4121839 98.1457021,39.3206355 C97.9366383,39.2290871 97.7275745,39.1336355 97.5185106,39.0339258 L97.5185106,41.6341839 C97.5185106,41.9279903 97.5705957,42.1373452 97.6751277,42.2618935 C97.7796596,42.3867968 97.9847447,42.4492484 98.2900213,42.4492484 L98.7898936,42.4492484 L98.7898936,43.9197 L91.6520638,43.9197 L91.6520638,42.4492484 L92.160617,42.4492484 C92.3924681,42.4492484 92.5689787,42.3757968 92.6905106,42.2285387 C92.8120426,42.0816355 92.8728085,41.9056355 92.8728085,41.7005387 L92.8728085,34.0771839 C92.8728085,33.8163774 92.7935957,33.6403774 92.6355319,33.548829 C92.4771064,33.4576355 92.2991489,33.4118613 92.1012979,33.4118613 L91.6520638,33.4118613 L91.6520638,30.3261839 L97.1539149,30.3261839 L97.1539149,32.0311839 L97.2978723,32.0311839 C97.5072979,31.454571 97.8773191,30.9776677 98.4086596,30.600829 C98.9396383,30.2236355 99.6688298,30.0352161 100.595872,30.0352161 C101.923681,30.0352161 102.962489,30.446829 103.711213,31.2704097 C104.459936,32.0936355 104.834298,33.3007968 104.834298,34.8922484 C104.834298,36.4833452 104.451617,37.6933452 103.685894,38.5222484 C102.919809,39.3511516 101.873043,39.7656032 100.544872,39.7656032" id="Fill-20" fill="#007CBA" mask="url(#mask-2)"></path>
            <path d="M44.7042128,1.68441935 L44.7042128,4.12109677 L43.3098511,4.12109677 C43.3098511,3.93551613 43.3047872,3.77406452 43.2950213,3.63674194 C43.2848936,3.49941935 43.2631915,3.38870968 43.2291915,3.30390323 C43.1951915,3.21945161 43.1438298,3.157 43.074383,3.11690323 C43.0052979,3.07680645 42.9127021,3.05658065 42.7969574,3.05658065 L42.534,3.05658065 L42.534,5.80125806 C42.534,5.98116129 42.5875319,6.10393548 42.6949574,6.16922581 C42.802383,6.23416129 42.9803404,6.26680645 43.2291915,6.26680645 L43.2291915,7.80964516 L39.3423404,7.80964516 L39.3423404,6.26680645 C39.5908298,6.26680645 39.7684255,6.23416129 39.8740426,6.16922581 C39.9800213,6.10393548 40.0331915,5.98116129 40.0331915,5.80125806 L40.0331915,3.05658065 L39.7745745,3.05658065 C39.6588298,3.05658065 39.566234,3.07680645 39.4971489,3.11690323 C39.4277021,3.157 39.375617,3.21945161 39.3401702,3.30390323 C39.3047234,3.38870968 39.2830213,3.49941935 39.2743404,3.63674194 C39.2660213,3.77406452 39.2616809,3.93551613 39.2616809,4.12109677 L37.8629787,4.12109677 L37.8629787,1.68441935 L44.7042128,1.68441935 Z" id="Fill-21" fill="#007CBA" mask="url(#mask-2)"></path>
            <path d="M49.5745319,3.03990323 C49.9474468,3.03990323 50.2505532,3.09383871 50.4838511,3.20206452 C50.7167872,3.31029032 50.8990851,3.44654839 51.030383,3.61154839 C51.1620426,3.77654839 51.2517447,3.9553871 51.2998511,4.14806452 C51.3475957,4.34074194 51.3718298,4.52170968 51.3718298,4.6906129 L51.3718298,5.85909677 C51.3718298,6.006 51.3978723,6.11067742 51.4503191,6.17312903 C51.5024043,6.23558065 51.6033191,6.26680645 51.7530638,6.26680645 L51.9820213,6.26680645 L51.9820213,7.80929032 L49.0489787,7.80929032 L49.0489787,5.15225806 C49.0489787,5.04403226 49.0355957,4.95745161 49.0088298,4.89251613 C48.9817021,4.82722581 48.9480638,4.77719355 48.9068298,4.74277419 C48.8659574,4.708 48.8200213,4.68529032 48.7690213,4.67393548 C48.718383,4.66293548 48.6688298,4.6576129 48.6207234,4.6576129 C48.4369787,4.6576129 48.3002553,4.71012903 48.2098298,4.81551613 C48.1194043,4.92090323 48.0741915,5.07064516 48.0741915,5.26474194 L48.0741915,5.85909677 C48.0741915,6.006 48.100234,6.11067742 48.1523191,6.17312903 C48.204766,6.23558065 48.3056809,6.26680645 48.4554255,6.26680645 L48.7690213,6.26680645 L48.7690213,7.80929032 L45.1407872,7.80929032 L45.1407872,6.26680645 L45.3910851,6.26680645 C45.5068298,6.26680645 45.5950851,6.22990323 45.6558511,6.15645161 C45.716617,6.083 45.747,5.995 45.747,5.89245161 L45.7386809,3.69706452 C45.7386809,3.53596774 45.6869574,3.41745161 45.5838723,3.34151613 C45.4807872,3.26522581 45.3614255,3.22690323 45.2257872,3.22690323 L45.1407872,3.22690323 L45.1407872,1.68441935 L48.0741915,1.68441935 L48.0741915,3.22690323 C48.0741915,3.27977419 48.0571915,3.37132258 48.0231915,3.50154839 C47.9891915,3.63177419 47.9255319,3.762 47.8325745,3.89222581 L47.9172128,3.93409677 C48.0698511,3.66229032 48.2745745,3.44548387 48.5317447,3.28332258 C48.7889149,3.12116129 49.1365106,3.03990323 49.5745319,3.03990323" id="Fill-22" fill="#007CBA" mask="url(#mask-2)"></path>
            <path d="M55.2883404,4.1626129 C55.0904894,4.1626129 54.9443617,4.23109677 54.8495957,4.36841935 C54.7548298,4.50574194 54.6922553,4.73212903 54.6611489,5.04829032 L55.9028723,5.04829032 C55.8858723,4.77648387 55.8265532,4.56109677 55.7249149,4.40177419 C55.6232766,4.24245161 55.4775106,4.1626129 55.2883404,4.1626129 Z M54.6611489,5.77606452 C54.6723617,6.18909677 54.7522979,6.47403226 54.9005957,6.63051613 C55.0488936,6.787 55.2615745,6.86541935 55.5382766,6.86541935 C55.6315957,6.86541935 55.7227447,6.85229032 55.8117234,6.82603226 C55.9007021,6.79977419 55.9835319,6.75683871 56.0598511,6.69722581 C56.1361702,6.6376129 56.2016383,6.55848387 56.2569787,6.46019355 C56.3119574,6.36154839 56.3481277,6.23770968 56.3651277,6.08796774 L57.9077872,6.08796774 C57.8513617,6.44564516 57.7475532,6.74477419 57.5963617,6.98606452 C57.4451702,7.22735484 57.2509362,7.42216129 57.0136596,7.57048387 C56.7760213,7.71845161 56.5000426,7.82525806 56.185,7.89054839 C55.8695957,7.95548387 55.5187447,7.98812903 55.1313617,7.98812903 C54.7331277,7.98812903 54.358766,7.93845161 54.0082766,7.8383871 C53.6577872,7.73867742 53.3507021,7.58680645 53.0862979,7.38312903 C52.8222553,7.17945161 52.615,6.92290323 52.4652553,6.61383871 C52.3155106,6.30477419 52.2406383,5.93680645 52.2406383,5.50993548 C52.2406383,5.10222581 52.3115319,4.74490323 52.4525957,4.43690323 C52.5940213,4.12925806 52.7925957,3.87235484 53.0483191,3.66583871 C53.3040426,3.45932258 53.6064255,3.30319355 53.9551064,3.19780645 C54.3041489,3.09241935 54.6879149,3.03990323 55.1060426,3.03990323 C55.620383,3.03990323 56.0627447,3.10625806 56.432766,3.23932258 C56.8027872,3.3723871 57.1051702,3.55832258 57.3399149,3.79677419 C57.5742979,4.03522581 57.7468298,4.32193548 57.8571489,4.6576129 C57.9671064,4.99293548 58.0195532,5.36587097 58.013766,5.77606452 L54.6611489,5.77606452 Z" id="Fill-23" fill="#007CBA" mask="url(#mask-2)"></path>
            <polygon id="Fill-24" fill="#00B451" mask="url(#mask-2)" points="16.8296383 43.919771 91.0306596 43.919771 91.0306596 42.4493194 16.8296383 42.4493194"></polygon>
        </g>
    </g>
</svg>