<?xml version="1.0" encoding="UTF-8"?>
<svg width="160px" height="90px" viewBox="0 0 160 90" version="1.1" xmlns="http://www.w3.org/2000/svg" xmlns:xlink="http://www.w3.org/1999/xlink">
    <!-- Generator: Sketch 49.3 (51167) - http://www.bohemiancoding.com/sketch -->
    <title>Tom Haralson &amp; Associates logo designed by Isral Duke</title>
    <desc>Created with Sketch.</desc>
    <defs></defs>
    <g id="Tom-Haralson-&amp;-Associates-logo-designed-by-Isral-Duke" stroke="none" stroke-width="1" fill="none" fill-rule="evenodd">
        <g id="Page-1" transform="translate(17.000000, 18.000000)">
            <path d="M0,0 L110.202,0 C118.922,0 125.991,7.0685 125.991,15.789 L125.991,53.991 L15.7275,53.991 C7.041,53.991 0,46.95 0,38.2635 L0,0 Z" id="Fill-1" fill="#DAE3DC"></path>
            <path d="M103.6555,28.0215 L101.974,32.3975 L105.1605,32.3975 L103.6555,28.0215 Z M109.306,44.896 L106.9165,37.8745 L99.9235,37.8745 L97.3535,44.896 L91.3535,44.896 L100.748,19.265 L105.944,17.6135 L115.0795,44.896 L109.306,44.896 Z M81.5525,44.896 L81.5525,34.183 L74.6885,34.183 L74.6885,44.896 L68.2695,44.896 L68.2695,19.543 L74.6885,17.3585 L74.6885,28.561 L81.5525,28.561 L81.5525,18.5355 L87.9705,18.5355 L87.9705,44.896 L81.5525,44.896 Z M57.6475,24.0855 L57.6475,44.8955 L51.229,44.8955 L51.229,24.0855 L44.311,24.0855 L46.0755,18.5355 L64.234,18.5355 L64.234,24.0855 L57.6475,24.0855 Z" id="Fill-2" fill="#717074"></path>
            <path d="M7.7155,21.057 L11.5405,14.8345 L14.794,21.9885 L9.391,24.501 L7.7155,21.057 Z M8.979,26.6085 L16.246,25.0135 L20.7695,24.0205 L31.5865,21.6465 L42.6715,19.2135 L37.9495,34.9175 L33.892,34.881 C34.417,36.274 35.031,37.6845 35.7335,39.1135 L24.9875,46.356 C23.189,42.3855 21.9395,38.5225 21.24,34.7675 L17.4145,34.7335 C17.943,36.7635 18.624,38.776 19.404,40.789 L11.8735,42.9215 C9.5735,37.682 8.609,32.244 8.979,26.6085 Z M17.4375,16.055 L24.599,4.4025 L30.691,17.799 L20.574,22.5035 L17.4375,16.055 Z" id="Fill-3" fill="#10185F"></path>
        </g>
    </g>
</svg>