<?xml version="1.0" encoding="UTF-8"?>
<svg width="160px" height="90px" viewBox="0 0 160 90" version="1.1" xmlns="http://www.w3.org/2000/svg" xmlns:xlink="http://www.w3.org/1999/xlink">
    <!-- Generator: Sketch 49.3 (51167) - http://www.bohemiancoding.com/sketch -->
    <title>Zia Moving Company logo designed by Isral Duke</title>
    <desc>Created with Sketch.</desc>
    <defs></defs>
    <g id="Zia-Moving-Company-logo-designed-by-Isral-Duke" stroke="none" stroke-width="1" fill="none" fill-rule="evenodd">
        <g id="Page-1" transform="translate(20.000000, 17.000000)">
            <polygon id="Fill-1" fill="#231F20" points="80.1214 38.8822 58.6214 38.8822 58.6214 33.9032 69.3484 21.8762 63.8984 21.8762 63.8984 24.5692 58.9034 24.5692 58.9034 17.1012 80.0434 17.1012 80.0434 21.5162 68.7684 34.1062 75.0484 34.1062 75.0484 31.1312 80.1214 31.1312"></polygon>
            <polygon id="Fill-2" fill="#231F20" points="94.6214 38.8822 82.2044 38.8822 82.2044 33.6672 84.2084 33.6672 84.2084 22.3152 82.2044 22.3152 82.2044 17.1012 94.6214 17.1012 94.6214 22.3152 92.6334 22.3152 92.6334 33.6672 94.6214 33.6672"></polygon>
            <path d="M106.805,22.6283 L104.753,28.6563 L108.653,28.6563 L106.805,22.6283 Z M104.753,38.8823 L96.125,38.8823 L96.125,33.6673 L97.784,33.6673 L101.872,22.3153 L100.118,22.3153 L100.118,17.1013 L115.777,17.1013 L115.777,22.3153 L114.024,22.3153 L118.189,33.6673 L119.785,33.6673 L119.785,38.8823 L108.417,38.8823 L108.417,34.1063 L110.327,34.1063 L109.497,31.3653 L103.923,31.3653 L102.968,34.1063 L104.753,34.1063 L104.753,38.8823 Z" id="Fill-3" fill="#231F20"></path>
            <polygon id="Fill-4" fill="#231F20" points="60.595 42.8265 61.41 46.8525 61.426 46.8525 62.249 42.8265 63.95 42.8265 63.95 48.5305 62.896 48.5305 62.896 43.9765 62.88 43.9765 61.866 48.5305 60.971 48.5305 59.956 43.9765 59.94 43.9765 59.94 48.5305 58.886 48.5305 58.886 42.8265"></polygon>
            <path d="M65.9398,46.9886 C65.9508,47.1756 65.9758,47.3356 66.0158,47.4676 C66.0558,47.6006 66.1158,47.7056 66.1958,47.7796 C66.2758,47.8536 66.3818,47.8916 66.5148,47.8916 C66.7388,47.8916 66.8938,47.7746 66.9788,47.5406 C67.0638,47.3056 67.1068,46.9196 67.1068,46.3816 C67.1068,45.8436 67.0638,45.4576 66.9788,45.2226 C66.8938,44.9886 66.7388,44.8716 66.5148,44.8716 C66.3818,44.8716 66.2758,44.9086 66.1958,44.9836 C66.1158,45.0576 66.0558,45.1626 66.0158,45.2956 C65.9758,45.4276 65.9508,45.5886 65.9398,45.7746 C65.9288,45.9616 65.9238,46.1636 65.9238,46.3816 C65.9238,46.5996 65.9288,46.8016 65.9398,46.9886 M64.9098,45.4066 C64.9678,45.1246 65.0638,44.8886 65.1978,44.6996 C65.3308,44.5106 65.5048,44.3676 65.7198,44.2686 C65.9358,44.1706 66.2018,44.1206 66.5148,44.1206 C66.8448,44.1156 67.1198,44.1596 67.3378,44.2526 C67.5568,44.3456 67.7298,44.4886 67.8578,44.6796 C67.9858,44.8716 68.0758,45.1086 68.1288,45.3906 C68.1818,45.6736 68.2098,46.0036 68.2098,46.3816 C68.2098,46.7496 68.1798,47.0736 68.1218,47.3556 C68.0628,47.6386 67.9658,47.8746 67.8338,48.0626 C67.7008,48.2526 67.5258,48.3916 67.3098,48.4826 C67.0948,48.5736 66.8298,48.6186 66.5148,48.6186 C66.1848,48.6236 65.9108,48.5826 65.6928,48.4946 C65.4738,48.4066 65.3008,48.2676 65.1728,48.0796 C65.0448,47.8896 64.9548,47.6536 64.9018,47.3686 C64.8478,47.0836 64.8218,46.7546 64.8218,46.3816 C64.8218,46.0136 64.8508,45.6886 64.9098,45.4066" id="Fill-5" fill="#231F20"></path>
            <polygon id="Fill-6" fill="#231F20" points="72.3236 44.2328 71.2456 48.5308 69.9676 48.5308 68.8566 44.2328 70.0076 44.2328 70.6226 47.3078 70.6376 47.3078 71.2206 44.2328"></polygon>
            <path d="M74.4166,48.5303 L73.3136,48.5303 L73.3136,44.2323 L74.4166,44.2323 L74.4166,48.5303 Z M74.4166,43.7053 L73.3136,43.7053 L73.3136,42.7623 L74.4166,42.7623 L74.4166,43.7053 Z" id="Fill-7" fill="#231F20"></path>
            <path d="M76.7884,44.2328 L76.7884,44.7358 L76.8054,44.7358 C76.9214,44.5228 77.0734,44.3678 77.2604,44.2688 C77.4464,44.1698 77.6594,44.1208 77.8984,44.1208 C78.2504,44.1208 78.5204,44.2158 78.7104,44.4088 C78.8984,44.5998 78.9934,44.9118 78.9934,45.3428 L78.9934,48.5308 L77.8914,48.5308 L77.8914,45.5668 C77.8914,45.3428 77.8534,45.1868 77.7794,45.0988 C77.7044,45.0108 77.5844,44.9668 77.4194,44.9668 C77.0304,44.9668 76.8364,45.2048 76.8364,45.6778 L76.8364,48.5308 L75.7334,48.5308 L75.7334,44.2328 L76.7884,44.2328 Z" id="Fill-8" fill="#231F20"></path>
            <path d="M81.307,46.9408 C81.32,47.0738 81.347,47.1928 81.387,47.2958 C81.426,47.3998 81.483,47.4828 81.554,47.5448 C81.626,47.6048 81.721,47.6358 81.838,47.6358 C81.955,47.6358 82.052,47.6048 82.129,47.5448 C82.206,47.4828 82.268,47.3988 82.314,47.2928 C82.359,47.1858 82.391,47.0568 82.41,46.9048 C82.428,46.7528 82.437,46.5868 82.437,46.4058 C82.437,45.8828 82.396,45.5128 82.314,45.2948 C82.231,45.0768 82.08,44.9668 81.862,44.9668 C81.74,44.9668 81.641,44.9948 81.567,45.0468 C81.492,45.1008 81.433,45.1868 81.391,45.3068 C81.348,45.4268 81.32,45.5868 81.307,45.7868 C81.293,45.9858 81.286,46.2298 81.286,46.5168 C81.286,46.6668 81.293,46.8078 81.307,46.9408 Z M83.492,48.3148 C83.492,48.8688 83.355,49.2848 83.08,49.5608 C82.806,49.8378 82.347,49.9768 81.703,49.9768 C81.234,49.9768 80.872,49.8768 80.619,49.6768 C80.367,49.4768 80.241,49.1938 80.241,48.8268 L81.294,48.8268 C81.294,48.9638 81.351,49.0738 81.462,49.1538 C81.516,49.1908 81.573,49.2198 81.634,49.2418 C81.696,49.2628 81.761,49.2738 81.83,49.2738 C82.054,49.2738 82.21,49.2018 82.301,49.0578 C82.392,48.9148 82.437,48.7358 82.437,48.5228 L82.437,47.9558 L82.421,47.9558 C82.309,48.1158 82.172,48.2428 82.01,48.3388 C81.847,48.4348 81.678,48.4828 81.502,48.4828 C81.066,48.4828 80.737,48.3168 80.516,47.9838 C80.294,47.6508 80.184,47.0918 80.184,46.3098 C80.184,46.0588 80.199,45.8038 80.228,45.5428 C80.257,45.2818 80.319,45.0458 80.411,44.8358 C80.505,44.6258 80.641,44.4538 80.82,44.3208 C80.997,44.1868 81.236,44.1208 81.535,44.1208 C81.689,44.1208 81.849,44.1638 82.014,44.2488 C82.179,44.3338 82.315,44.4888 82.421,44.7118 L82.437,44.7118 L82.437,44.2328 L83.492,44.2328 L83.492,48.3148 Z" id="Fill-9" fill="#231F20"></path>
            <path d="M89.5902,43.8451 C89.4912,43.6561 89.3122,43.5621 89.0512,43.5621 C88.9062,43.5621 88.7882,43.6001 88.6952,43.6771 C88.6022,43.7541 88.5282,43.8791 88.4762,44.0531 C88.4222,44.2261 88.3852,44.4521 88.3632,44.7321 C88.3422,45.0111 88.3312,45.3541 88.3312,45.7581 C88.3312,46.1901 88.3462,46.5381 88.3752,46.8051 C88.4042,47.0721 88.4502,47.2781 88.5112,47.4241 C88.5722,47.5711 88.6502,47.6691 88.7432,47.7201 C88.8362,47.7711 88.9442,47.7951 89.0672,47.7951 C89.1682,47.7951 89.2622,47.7791 89.3502,47.7431 C89.4382,47.7091 89.5142,47.6401 89.5782,47.5351 C89.6422,47.4321 89.6932,47.2851 89.7302,47.0971 C89.7672,46.9081 89.7852,46.6581 89.7852,46.3501 L90.9362,46.3501 C90.9362,46.6581 90.9122,46.9511 90.8642,47.2291 C90.8172,47.5051 90.7272,47.7471 90.5972,47.9551 C90.4662,48.1631 90.2822,48.3251 90.0452,48.4431 C89.8082,48.5601 89.5002,48.6181 89.1222,48.6181 C88.6922,48.6181 88.3482,48.5491 88.0922,48.4101 C87.8362,48.2731 87.6412,48.0731 87.5052,47.8121 C87.3692,47.5511 87.2812,47.2401 87.2412,46.8771 C87.2012,46.5151 87.1812,46.1161 87.1812,45.6781 C87.1812,45.2471 87.2012,44.8491 87.2412,44.4841 C87.2812,44.1191 87.3692,43.8061 87.5052,43.5451 C87.6412,43.2841 87.8362,43.0801 88.0922,42.9341 C88.3482,42.7871 88.6922,42.7141 89.1222,42.7141 C89.5322,42.7141 89.8562,42.7821 90.0932,42.9141 C90.3302,43.0471 90.5072,43.2161 90.6242,43.4211 C90.7412,43.6261 90.8152,43.8481 90.8442,44.0841 C90.8732,44.3221 90.8882,44.5441 90.8882,44.7511 L89.7372,44.7511 C89.7372,44.3361 89.6892,44.0341 89.5902,43.8451" id="Fill-10" fill="#231F20"></path>
            <path d="M93.0775,46.9886 C93.0885,47.1756 93.1135,47.3356 93.1535,47.4676 C93.1935,47.6006 93.2535,47.7056 93.3335,47.7796 C93.4135,47.8536 93.5195,47.8916 93.6525,47.8916 C93.8765,47.8916 94.0315,47.7746 94.1165,47.5406 C94.2015,47.3056 94.2445,46.9196 94.2445,46.3816 C94.2445,45.8436 94.2015,45.4576 94.1165,45.2226 C94.0315,44.9886 93.8765,44.8716 93.6525,44.8716 C93.5195,44.8716 93.4135,44.9086 93.3335,44.9836 C93.2535,45.0576 93.1935,45.1626 93.1535,45.2956 C93.1135,45.4276 93.0885,45.5886 93.0775,45.7746 C93.0665,45.9616 93.0615,46.1636 93.0615,46.3816 C93.0615,46.5996 93.0665,46.8016 93.0775,46.9886 M92.0475,45.4066 C92.1055,45.1246 92.2015,44.8886 92.3355,44.6996 C92.4685,44.5106 92.6425,44.3676 92.8575,44.2686 C93.0735,44.1706 93.3395,44.1206 93.6525,44.1206 C93.9825,44.1156 94.2575,44.1596 94.4755,44.2526 C94.6945,44.3456 94.8675,44.4886 94.9955,44.6796 C95.1235,44.8716 95.2135,45.1086 95.2665,45.3906 C95.3195,45.6736 95.3475,46.0036 95.3475,46.3816 C95.3475,46.7496 95.3175,47.0736 95.2595,47.3556 C95.2005,47.6386 95.1035,47.8746 94.9715,48.0626 C94.8385,48.2526 94.6635,48.3916 94.4475,48.4826 C94.2325,48.5736 93.9675,48.6186 93.6525,48.6186 C93.3225,48.6236 93.0485,48.5826 92.8305,48.4946 C92.6115,48.4066 92.4385,48.2676 92.3105,48.0796 C92.1825,47.8896 92.0925,47.6536 92.0395,47.3686 C91.9855,47.0836 91.9595,46.7546 91.9595,46.3816 C91.9595,46.0136 91.9885,45.6886 92.0475,45.4066" id="Fill-11" fill="#231F20"></path>
            <path d="M97.3753,44.2328 L97.3753,44.6718 L97.3923,44.6718 C97.5293,44.4748 97.6863,44.3338 97.8583,44.2488 C98.0313,44.1638 98.2383,44.1208 98.4783,44.1208 C98.7333,44.1208 98.9473,44.1788 99.1213,44.2958 C99.2943,44.4138 99.4093,44.5848 99.4693,44.8078 L99.4843,44.8078 C99.5693,44.5788 99.7073,44.4068 99.8963,44.2928 C100.085,44.1778 100.31,44.1208 100.571,44.1208 C100.938,44.1208 101.209,44.2308 101.382,44.4528 C101.555,44.6728 101.642,44.9918 101.642,45.4068 L101.642,48.5308 L100.539,48.5308 L100.539,45.5268 C100.539,45.3458 100.506,45.2078 100.439,45.1118 C100.372,45.0148 100.262,44.9668 100.107,44.9668 C99.9323,44.9668 99.7923,45.0258 99.6883,45.1428 C99.5843,45.2598 99.5323,45.4468 99.5323,45.7028 L99.5323,48.5308 L98.4303,48.5308 L98.4303,45.5268 C98.4303,45.3458 98.3963,45.2078 98.3303,45.1118 C98.2643,45.0148 98.1523,44.9668 97.9983,44.9668 C97.8223,44.9668 97.6833,45.0258 97.5793,45.1428 C97.4753,45.2598 97.4233,45.4468 97.4233,45.7028 L97.4233,48.5308 L96.3203,48.5308 L96.3203,44.2328 L97.3753,44.2328 Z" id="Fill-12" fill="#231F20"></path>
            <path d="M104.131,47.4398 C104.202,47.6768 104.361,47.7948 104.606,47.7948 C104.846,47.7948 105.001,47.6768 105.073,47.4398 C105.146,47.2038 105.181,46.8498 105.181,46.3808 C105.181,45.9138 105.146,45.5598 105.073,45.3228 C105.001,45.0858 104.846,44.9668 104.606,44.9668 C104.361,44.9668 104.202,45.0858 104.131,45.3228 C104.059,45.5598 104.023,45.9138 104.023,46.3808 C104.023,46.8498 104.059,47.2038 104.131,47.4398 Z M103.975,44.2328 L103.975,44.6878 L103.991,44.6878 C104.113,44.4858 104.25,44.3398 104.402,44.2518 C104.554,44.1648 104.742,44.1208 104.966,44.1208 C105.418,44.1208 105.751,44.2978 105.964,44.6518 C106.177,45.0058 106.283,45.5828 106.283,46.3808 C106.283,47.1798 106.177,47.7528 105.964,48.0988 C105.751,48.4458 105.418,48.6188 104.966,48.6188 C104.758,48.6188 104.581,48.5798 104.435,48.5028 C104.288,48.4248 104.156,48.3018 104.039,48.1308 L104.023,48.1308 L104.023,49.9128 L102.92,49.9128 L102.92,44.2328 L103.975,44.2328 Z" id="Fill-13" fill="#231F20"></path>
            <path d="M109.063,46.5218 C108.978,46.5558 108.901,46.5818 108.832,46.5968 C108.608,46.6448 108.448,46.7248 108.352,46.8368 C108.256,46.9488 108.209,47.1008 108.209,47.2928 C108.209,47.4578 108.241,47.5988 108.304,47.7158 C108.369,47.8338 108.475,47.8918 108.624,47.8918 C108.699,47.8918 108.776,47.8788 108.856,47.8558 C108.935,47.8318 109.008,47.7928 109.076,47.7398 C109.142,47.6868 109.197,47.6178 109.239,47.5318 C109.282,47.4468 109.303,47.3458 109.303,47.2288 L109.303,46.3808 C109.228,46.4398 109.148,46.4868 109.063,46.5218 Z M107.29,45.4468 C107.29,45.1968 107.33,44.9878 107.41,44.8198 C107.49,44.6518 107.597,44.5158 107.733,44.4128 C107.869,44.3078 108.029,44.2338 108.212,44.1888 C108.396,44.1428 108.592,44.1208 108.799,44.1208 C109.129,44.1208 109.396,44.1528 109.598,44.2158 C109.801,44.2808 109.959,44.3718 110.07,44.4888 C110.182,44.6058 110.257,44.7458 110.297,44.9078 C110.337,45.0698 110.358,45.2478 110.358,45.4388 L110.358,47.6998 C110.358,47.9028 110.367,48.0588 110.385,48.1708 C110.404,48.2828 110.44,48.4028 110.494,48.5308 L109.439,48.5308 C109.402,48.4608 109.374,48.3878 109.355,48.3108 C109.336,48.2338 109.319,48.1578 109.303,48.0838 L109.287,48.0838 C109.159,48.3068 109.011,48.4528 108.843,48.5188 C108.676,48.5848 108.459,48.6188 108.193,48.6188 C108,48.6188 107.838,48.5848 107.706,48.5188 C107.572,48.4528 107.465,48.3608 107.385,48.2428 C107.305,48.1258 107.247,47.9948 107.209,47.8478 C107.172,47.7018 107.154,47.5558 107.154,47.4128 C107.154,47.2098 107.175,47.0358 107.218,46.8888 C107.26,46.7428 107.326,46.6178 107.414,46.5128 C107.501,46.4098 107.613,46.3228 107.75,46.2528 C107.885,46.1848 108.048,46.1238 108.241,46.0698 L108.864,45.9028 C109.029,45.8598 109.143,45.8008 109.208,45.7268 C109.271,45.6518 109.303,45.5428 109.303,45.3988 C109.303,45.2338 109.264,45.1048 109.187,45.0108 C109.11,44.9178 108.978,44.8718 108.792,44.8718 C108.622,44.8718 108.494,44.9218 108.408,45.0238 C108.323,45.1248 108.281,45.2598 108.281,45.4308 L108.281,45.5508 L107.29,45.5508 L107.29,45.4468 Z" id="Fill-14" fill="#231F20"></path>
            <path d="M112.578,44.2328 L112.578,44.7358 L112.595,44.7358 C112.711,44.5228 112.863,44.3678 113.05,44.2688 C113.236,44.1698 113.449,44.1208 113.688,44.1208 C114.04,44.1208 114.31,44.2158 114.5,44.4088 C114.688,44.5998 114.783,44.9118 114.783,45.3428 L114.783,48.5308 L113.681,48.5308 L113.681,45.5668 C113.681,45.3428 113.643,45.1868 113.569,45.0988 C113.494,45.0108 113.374,44.9668 113.209,44.9668 C112.82,44.9668 112.626,45.2048 112.626,45.6778 L112.626,48.5308 L111.523,48.5308 L111.523,44.2328 L112.578,44.2328 Z" id="Fill-15" fill="#231F20"></path>
            <path d="M116.429,49.1136 C116.631,49.1136 116.777,49.0606 116.865,48.9546 C116.952,48.8466 117.004,48.7066 117.02,48.5306 L115.814,44.2326 L116.964,44.2326 L117.603,47.2046 L117.619,47.2046 L118.178,44.2326 L119.281,44.2326 L118.242,48.2426 C118.147,48.5996 118.055,48.8886 117.967,49.1096 C117.879,49.3306 117.775,49.5016 117.656,49.6216 C117.535,49.7406 117.392,49.8196 117.224,49.8566 C117.056,49.8936 116.844,49.9126 116.588,49.9126 L116.141,49.9126 L116.141,49.0906 C116.237,49.1056 116.333,49.1136 116.429,49.1136" id="Fill-16" fill="#231F20"></path>
            <path d="M30.8407,51.7611 C30.8407,52.4145 31.3753,52.9491 32.0287,52.9491 L33.0742,52.9491 C33.7276,52.9491 34.2622,52.4145 34.2622,51.7611 L34.2622,4.1669 C34.2622,3.5129 33.7276,2.9789 33.0742,2.9789 L32.0287,2.9789 C31.3753,2.9789 30.8407,3.5129 30.8407,4.1669 L30.8407,51.7611 Z" id="Fill-17" fill="#ED1C24"></path>
            <path d="M35.4285,48.3895 C35.4285,49.0429 35.9625,49.5775 36.6165,49.5775 L37.662,49.5775 C38.3154,49.5775 38.85,49.0429 38.85,48.3895 L38.85,7.5386 C38.85,6.8852 38.3154,6.3513 37.662,6.3513 L36.6165,6.3513 C35.9625,6.3513 35.4285,6.8852 35.4285,7.5386 L35.4285,48.3895 Z" id="Fill-18" fill="#ED1C24"></path>
            <path d="M26.2536,54.7401 C26.2536,55.3935 26.7882,55.9281 27.4416,55.9281 L28.487,55.9281 C29.1404,55.9281 29.675,55.3935 29.675,54.7401 L29.675,1.1874 C29.675,0.534 29.1404,0 28.487,0 L27.4416,0 C26.7882,0 26.2536,0.534 26.2536,1.1874 L26.2536,54.7401 Z" id="Fill-19" fill="#ED1C24"></path>
            <path d="M21.6664,51.7611 C21.6664,52.4145 22.201,52.9491 22.8544,52.9491 L23.8999,52.9491 C24.5533,52.9491 25.0879,52.4145 25.0879,51.7611 L25.0879,4.1669 C25.0879,3.5129 24.5533,2.9789 23.8999,2.9789 L22.8544,2.9789 C22.201,2.9789 21.6664,3.5129 21.6664,4.1669 L21.6664,51.7611 Z" id="Fill-20" fill="#ED1C24"></path>
            <path d="M17.0786,48.3895 C17.0786,49.0429 17.6132,49.5775 18.2666,49.5775 L19.312,49.5775 C19.9654,49.5775 20.5,49.0429 20.5,48.3895 L20.5,7.5386 C20.5,6.8852 19.9654,6.3513 19.312,6.3513 L18.2666,6.3513 C17.6132,6.3513 17.0786,6.8852 17.0786,7.5386 L17.0786,48.3895 Z" id="Fill-21" fill="#ED1C24"></path>
            <path d="M51.7616,25.087 C52.4151,25.087 52.9497,24.5524 52.9497,23.899 L52.9497,22.8535 C52.9497,22.2001 52.4151,21.6655 51.7616,21.6655 L4.1668,21.6655 C3.5134,21.6655 2.9788,22.2001 2.9788,22.8535 L2.9788,23.899 C2.9788,24.5524 3.5134,25.087 4.1668,25.087 L51.7616,25.087 Z" id="Fill-22" fill="#ED1C24"></path>
            <path d="M48.3895,20.4992 C49.0429,20.4992 49.5775,19.9646 49.5775,19.3112 L49.5775,18.2658 C49.5775,17.6124 49.0429,17.0778 48.3895,17.0778 L7.5386,17.0778 C6.8852,17.0778 6.3512,17.6124 6.3512,18.2658 L6.3512,19.3112 C6.3512,19.9646 6.8852,20.4992 7.5386,20.4992 L48.3895,20.4992 Z" id="Fill-23" fill="#ED1C24"></path>
            <path d="M54.7407,29.6748 C55.3941,29.6748 55.9287,29.1402 55.9287,28.4868 L55.9287,27.4414 C55.9287,26.7879 55.3941,26.2533 54.7407,26.2533 L1.1873,26.2533 C0.5339,26.2533 0,26.7879 0,27.4414 L0,28.4868 C0,29.1402 0.5339,29.6748 1.1873,29.6748 L54.7407,29.6748 Z" id="Fill-24" fill="#ED1C24"></path>
            <path d="M51.7616,34.2613 C52.4151,34.2613 52.9497,33.7267 52.9497,33.0733 L52.9497,32.0278 C52.9497,31.3744 52.4151,30.8398 51.7616,30.8398 L4.1668,30.8398 C3.5134,30.8398 2.9788,31.3744 2.9788,32.0278 L2.9788,33.0733 C2.9788,33.7267 3.5134,34.2613 4.1668,34.2613 L51.7616,34.2613 Z" id="Fill-25" fill="#ED1C24"></path>
            <path d="M48.3895,38.8491 C49.0429,38.8491 49.5775,38.3145 49.5775,37.6611 L49.5775,36.6157 C49.5775,35.9623 49.0429,35.4277 48.3895,35.4277 L7.5386,35.4277 C6.8852,35.4277 6.3512,35.9623 6.3512,36.6157 L6.3512,37.6611 C6.3512,38.3145 6.8852,38.8491 7.5386,38.8491 L48.3895,38.8491 Z" id="Fill-26" fill="#ED1C24"></path>
            <path d="M42.8516,27.9642 C42.8516,36.1872 36.1869,42.8519 27.9639,42.8519 C19.7422,42.8519 13.0769,36.1872 13.0769,27.9642 C13.0769,19.7419 19.7422,13.0765 27.9639,13.0765 C36.1869,13.0765 42.8516,19.7419 42.8516,27.9642" id="Fill-27" fill="#ED1C24"></path>
            <path d="M39.3183,27.9642 C39.3183,34.2356 34.2356,39.3182 27.9642,39.3182 C21.6929,39.3182 16.6108,34.2356 16.6108,27.9642 C16.6108,21.6929 21.6929,16.6102 27.9642,16.6102 C34.2356,16.6102 39.3183,21.6929 39.3183,27.9642" id="Fill-28" fill="#FFFFFF"></path>
        </g>
    </g>
</svg>